<svg width="279" height="300" viewBox="0 0 279 300" fill="none" xmlns="http://www.w3.org/2000/svg">
<mask id="mask0_40_6" style="mask-type:luminance" maskUnits="userSpaceOnUse" x="142" y="220" width="9" height="60">
<path d="M142.292 220.167H150.292V279.167H142.292V220.167Z" fill="white"/>
</mask>
<g mask="url(#mask0_40_6)">
<path d="M142.307 224.479V228.708H142.318V270.708H142.307V274.938C142.307 277.271 144.203 279.167 146.536 279.167C148.87 279.167 150.766 277.271 150.766 274.938V224.479C150.766 222.146 148.88 220.245 146.547 220.245C144.214 220.245 142.307 222.146 142.307 224.479Z" fill="#FCD590"/>
</g>
<path d="M144.417 260.266V274.938C144.417 275.526 144.885 276 145.479 276C146.068 276 146.536 275.526 146.536 274.938V270.708H146.526V260.276C146.526 259.688 146.052 259.219 145.464 259.219C144.875 259.219 144.417 259.687 144.417 260.266Z" fill="#FCD590"/>
<mask id="mask1_40_6" style="mask-type:luminance" maskUnits="userSpaceOnUse" x="100" y="217" width="9" height="60">
<path d="M100.786 217.766H108.786V276.766H100.786V217.766Z" fill="white"/>
</mask>
<g mask="url(#mask1_40_6)">
<path d="M100.802 222.078V226.307H100.812V268.307H100.802V272.536C100.802 274.87 102.698 276.766 105.031 276.766C107.365 276.766 109.26 274.87 109.26 272.536V222.078C109.26 219.745 107.375 217.844 105.042 217.844C102.708 217.844 100.802 219.745 100.802 222.078Z" fill="#FCD590"/>
</g>
<path d="M102.911 257.865V272.536C102.911 273.125 103.38 273.599 103.974 273.599C104.562 273.599 105.031 273.125 105.031 272.536V268.307H105.021V257.88C105.021 257.286 104.547 256.818 103.958 256.818C103.37 256.818 102.911 257.286 102.911 257.865Z" fill="#FCD590"/>
<mask id="mask2_40_6" style="mask-type:luminance" maskUnits="userSpaceOnUse" x="80" y="252" width="42" height="40">
<path d="M80 252H121.333V292H80V252Z" fill="white"/>
</mask>
<g mask="url(#mask2_40_6)">
<mask id="mask3_40_6" style="mask-type:luminance" maskUnits="userSpaceOnUse" x="78" y="251" width="45" height="43">
<path d="M117.25 293.365L78.7969 256.885L84.3021 251.083L122.755 287.563L117.25 293.365Z" fill="white"/>
</mask>
<g mask="url(#mask3_40_6)">
<mask id="mask4_40_6" style="mask-type:luminance" maskUnits="userSpaceOnUse" x="78" y="251" width="45" height="43">
<path d="M117.25 293.365L78.7969 256.885L84.3021 251.083L122.755 287.563L117.25 293.365Z" fill="white"/>
</mask>
<g mask="url(#mask4_40_6)">
<path d="M81.651 259.578L84.4062 262.188L84.4115 262.182L111.755 288.12L111.75 288.13L114.505 290.74C116.021 292.182 118.427 292.12 119.87 290.599C121.312 289.083 121.245 286.677 119.729 285.234L86.875 254.068C85.3594 252.625 82.9583 252.682 81.5156 254.203C80.0781 255.719 80.1302 258.135 81.651 259.578Z" fill="#FCD590"/>
</g>
</g>
</g>
<mask id="mask5_40_6" style="mask-type:luminance" maskUnits="userSpaceOnUse" x="105" y="278" width="14" height="13">
<path d="M105.333 278.667H118.667V290.667H105.333V278.667Z" fill="white"/>
</mask>
<g mask="url(#mask5_40_6)">
<mask id="mask6_40_6" style="mask-type:luminance" maskUnits="userSpaceOnUse" x="78" y="251" width="45" height="43">
<path d="M117.25 293.365L78.7969 256.885L84.3021 251.083L122.755 287.563L117.25 293.365Z" fill="white"/>
</mask>
<g mask="url(#mask6_40_6)">
<mask id="mask7_40_6" style="mask-type:luminance" maskUnits="userSpaceOnUse" x="78" y="251" width="45" height="43">
<path d="M117.25 293.365L78.7969 256.885L84.3021 251.083L122.755 287.563L117.25 293.365Z" fill="white"/>
</mask>
<g mask="url(#mask7_40_6)">
<path d="M106.255 280.307L115.807 289.37C116.187 289.734 116.786 289.719 117.151 289.333C117.516 288.948 117.5 288.354 117.115 287.99L114.359 285.375L114.354 285.38L107.562 278.943C107.182 278.578 106.583 278.594 106.219 278.979C105.854 279.359 105.88 279.953 106.255 280.307Z" fill="#FCD590"/>
</g>
</g>
</g>
<mask id="mask8_40_6" style="mask-type:luminance" maskUnits="userSpaceOnUse" x="74" y="266" width="53" height="20">
<path d="M74.6666 266.667H126.667V285.333H74.6666V266.667Z" fill="white"/>
</mask>
<g mask="url(#mask8_40_6)">
<mask id="mask9_40_6" style="mask-type:luminance" maskUnits="userSpaceOnUse" x="73" y="265" width="55" height="20">
<path d="M127.323 273.526L75.5677 284.953L73.8437 277.146L125.599 265.714L127.323 273.526Z" fill="white"/>
</mask>
<g mask="url(#mask9_40_6)">
<mask id="mask10_40_6" style="mask-type:luminance" maskUnits="userSpaceOnUse" x="73" y="265" width="55" height="20">
<path d="M127.323 273.526L75.5677 284.953L73.8437 277.146L125.599 265.714L127.323 273.526Z" fill="white"/>
</mask>
<g mask="url(#mask10_40_6)">
<path d="M79.3958 284.099L83.1041 283.276L83.0989 283.266L119.901 275.141L119.906 275.151L123.615 274.328C125.656 273.88 126.953 271.849 126.5 269.802C126.047 267.76 124.021 266.464 121.974 266.917L77.7604 276.682C75.7135 277.135 74.4166 279.151 74.8698 281.198C75.3177 283.245 77.3489 284.547 79.3958 284.099Z" fill="#FCD590"/>
</g>
</g>
</g>
<mask id="mask11_40_6" style="mask-type:luminance" maskUnits="userSpaceOnUse" x="108" y="269" width="16" height="7">
<path d="M108 269.333H124V276H108V269.333Z" fill="white"/>
</mask>
<g mask="url(#mask11_40_6)">
<mask id="mask12_40_6" style="mask-type:luminance" maskUnits="userSpaceOnUse" x="73" y="265" width="55" height="20">
<path d="M127.323 273.526L75.5677 284.953L73.8438 277.146L125.599 265.714L127.323 273.526Z" fill="white"/>
</mask>
<g mask="url(#mask12_40_6)">
<mask id="mask13_40_6" style="mask-type:luminance" maskUnits="userSpaceOnUse" x="73" y="265" width="55" height="20">
<path d="M127.323 273.526L75.5677 284.953L73.8438 277.146L125.599 265.714L127.323 273.526Z" fill="white"/>
</mask>
<g mask="url(#mask13_40_6)">
<path d="M110.349 275.323L123.203 272.485C123.719 272.37 124.042 271.865 123.927 271.349C123.812 270.833 123.307 270.511 122.792 270.625L119.089 271.443V271.453L109.948 273.469C109.432 273.583 109.109 274.089 109.224 274.604C109.339 275.12 109.844 275.432 110.349 275.323Z" fill="#FCD590"/>
</g>
</g>
</g>
<mask id="mask14_40_6" style="mask-type:luminance" maskUnits="userSpaceOnUse" x="128" y="260" width="43" height="40">
<path d="M128 260H170.667V300H128V260Z" fill="white"/>
</mask>
<g mask="url(#mask14_40_6)">
<mask id="mask15_40_6" style="mask-type:luminance" maskUnits="userSpaceOnUse" x="127" y="258" width="45" height="43">
<path d="M132.573 258.661L171.021 295.141L165.516 300.943L127.068 264.469L132.573 258.661Z" fill="white"/>
</mask>
<g mask="url(#mask15_40_6)">
<mask id="mask16_40_6" style="mask-type:luminance" maskUnits="userSpaceOnUse" x="126" y="258" width="45" height="43">
<path d="M170.932 295.052L132.479 258.578L126.974 264.38L165.427 300.859L170.932 295.052Z" fill="white"/>
</mask>
<g mask="url(#mask16_40_6)">
<path d="M135.318 261.286L138.068 263.901L138.062 263.906L165.406 289.844L165.411 289.839L168.167 292.453C169.687 293.891 169.75 296.302 168.307 297.818C166.87 299.339 164.458 299.401 162.943 297.958L130.089 266.797C128.573 265.354 128.5 262.953 129.943 261.437C131.38 259.917 133.797 259.844 135.318 261.286Z" fill="#FCD590"/>
</g>
</g>
</g>
<mask id="mask17_40_6" style="mask-type:luminance" maskUnits="userSpaceOnUse" x="154" y="284" width="14" height="12">
<path d="M154.667 284H168V296H154.667V284Z" fill="white"/>
</mask>
<g mask="url(#mask17_40_6)">
<mask id="mask18_40_6" style="mask-type:luminance" maskUnits="userSpaceOnUse" x="127" y="258" width="45" height="43">
<path d="M132.573 258.661L171.021 295.141L165.516 300.943L127.068 264.469L132.573 258.661Z" fill="white"/>
</mask>
<g mask="url(#mask18_40_6)">
<mask id="mask19_40_6" style="mask-type:luminance" maskUnits="userSpaceOnUse" x="126" y="258" width="45" height="43">
<path d="M170.932 295.052L132.479 258.578L126.974 264.38L165.427 300.859L170.932 295.052Z" fill="white"/>
</mask>
<g mask="url(#mask19_40_6)">
<path d="M157.313 284.766L166.865 293.823C167.25 294.187 167.266 294.786 166.901 295.172C166.536 295.552 165.938 295.568 165.552 295.208L162.802 292.594L162.807 292.583L156.016 286.146C155.635 285.781 155.62 285.182 155.984 284.797C156.344 284.417 156.938 284.406 157.313 284.766Z" fill="#FCD590"/>
</g>
</g>
</g>
<mask id="mask20_40_6" style="mask-type:luminance" maskUnits="userSpaceOnUse" x="122" y="266" width="54" height="20">
<path d="M122.667 266.667H176V285.333H122.667V266.667Z" fill="white"/>
</mask>
<g mask="url(#mask20_40_6)">
<mask id="mask21_40_6" style="mask-type:luminance" maskUnits="userSpaceOnUse" x="122" y="267" width="54" height="20">
<path d="M122.495 278.505L174.25 267.073L175.974 274.885L124.224 286.318L122.495 278.505Z" fill="white"/>
</mask>
<g mask="url(#mask21_40_6)">
<mask id="mask22_40_6" style="mask-type:luminance" maskUnits="userSpaceOnUse" x="122" y="267" width="54" height="20">
<path d="M174.125 267.099L122.375 278.531L124.099 286.344L175.854 274.911L174.125 267.099Z" fill="white"/>
</mask>
<g mask="url(#mask22_40_6)">
<path d="M126.208 277.698L129.911 276.88L129.917 276.891L166.719 268.76L166.714 268.75L170.422 267.932C172.469 267.479 174.495 268.776 174.948 270.818C175.401 272.865 174.104 274.896 172.062 275.344L127.844 285.115C125.802 285.563 123.771 284.281 123.323 282.234C122.87 280.188 124.161 278.151 126.208 277.698Z" fill="#FCD590"/>
</g>
</g>
</g>
<mask id="mask23_40_6" style="mask-type:luminance" maskUnits="userSpaceOnUse" x="156" y="269" width="16" height="6">
<path d="M156 269.333H172V274.667H156V269.333Z" fill="white"/>
</mask>
<g mask="url(#mask23_40_6)">
<mask id="mask24_40_6" style="mask-type:luminance" maskUnits="userSpaceOnUse" x="122" y="267" width="54" height="20">
<path d="M122.495 278.505L174.25 267.073L175.974 274.885L124.224 286.318L122.495 278.505Z" fill="white"/>
</mask>
<g mask="url(#mask24_40_6)">
<mask id="mask25_40_6" style="mask-type:luminance" maskUnits="userSpaceOnUse" x="122" y="267" width="54" height="20">
<path d="M174.125 267.099L122.375 278.531L124.099 286.344L175.854 274.911L174.125 267.099Z" fill="white"/>
</mask>
<g mask="url(#mask25_40_6)">
<path d="M157.974 272.62L170.833 269.781C171.349 269.667 171.854 269.99 171.963 270.505C172.078 271.021 171.76 271.526 171.24 271.641L167.536 272.458L167.531 272.448L158.396 274.464C157.875 274.578 157.375 274.26 157.26 273.74C157.146 273.224 157.469 272.729 157.974 272.62Z" fill="#FCD590"/>
</g>
</g>
</g>
<mask id="mask26_40_6" style="mask-type:luminance" maskUnits="userSpaceOnUse" x="37" y="78" width="178" height="177">
<path d="M37.3437 78.0104H214.344V254.667H37.3437V78.0104Z" fill="white"/>
</mask>
<g mask="url(#mask26_40_6)">
<path d="M213.984 166.333C213.984 167.776 213.948 169.224 213.875 170.667C213.807 172.109 213.698 173.552 213.557 174.99C213.417 176.427 213.24 177.865 213.026 179.292C212.812 180.724 212.568 182.146 212.286 183.562C212.005 184.979 211.687 186.391 211.333 187.792C210.984 189.193 210.599 190.589 210.177 191.969C209.76 193.354 209.307 194.724 208.818 196.089C208.333 197.448 207.812 198.797 207.26 200.13C206.708 201.469 206.12 202.786 205.5 204.094C204.885 205.401 204.234 206.693 203.552 207.969C202.87 209.24 202.161 210.5 201.417 211.74C200.672 212.979 199.901 214.198 199.099 215.401C198.297 216.604 197.463 217.781 196.599 218.943C195.74 220.104 194.849 221.245 193.932 222.365C193.016 223.479 192.073 224.573 191.104 225.646C190.13 226.714 189.135 227.76 188.115 228.786C187.094 229.807 186.047 230.802 184.974 231.776C183.901 232.745 182.807 233.687 181.693 234.604C180.573 235.521 179.437 236.411 178.276 237.271C177.115 238.135 175.932 238.964 174.729 239.766C173.526 240.573 172.307 241.344 171.068 242.089C169.828 242.828 168.573 243.542 167.297 244.224C166.021 244.906 164.729 245.557 163.422 246.172C162.115 246.792 160.797 247.375 159.458 247.932C158.125 248.484 156.776 249.005 155.417 249.49C154.057 249.979 152.682 250.432 151.302 250.849C149.917 251.271 148.526 251.656 147.12 252.005C145.719 252.359 144.312 252.672 142.891 252.953C141.474 253.24 140.052 253.484 138.62 253.698C137.193 253.911 135.755 254.083 134.318 254.229C132.88 254.37 131.437 254.474 129.995 254.547C128.552 254.62 127.109 254.651 125.661 254.651C124.219 254.651 122.771 254.62 121.328 254.547C119.885 254.474 118.443 254.37 117.005 254.229C115.568 254.083 114.13 253.911 112.703 253.698C111.271 253.484 109.849 253.24 108.432 252.953C107.016 252.672 105.604 252.359 104.203 252.005C102.802 251.656 101.406 251.271 100.026 250.849C98.6406 250.432 97.2708 249.979 95.9062 249.49C94.5468 249.005 93.1979 248.484 91.8645 247.932C90.526 247.375 89.2083 246.792 87.901 246.172C86.5937 245.557 85.302 244.906 84.026 244.224C82.7551 243.542 81.4947 242.828 80.2551 242.089C79.0156 241.344 77.7968 240.573 76.5937 239.766C75.3906 238.964 74.2083 238.135 73.052 237.271C71.8906 236.411 70.7499 235.521 69.6301 234.604C68.5156 233.687 67.4218 232.745 66.3489 231.776C65.276 230.802 64.2343 229.807 63.2083 228.786C62.1874 227.76 61.1926 226.714 60.2187 225.646C59.2499 224.573 58.3072 223.479 57.3906 222.365C56.4739 221.245 55.5833 220.104 54.7239 218.943C53.8593 217.781 53.0312 216.604 52.2239 215.401C51.4218 214.198 50.651 212.979 49.9062 211.74C49.1614 210.5 48.4531 209.24 47.7708 207.969C47.0885 206.693 46.4374 205.401 45.8229 204.094C45.2031 202.786 44.6197 201.469 44.0624 200.13C43.5104 198.797 42.9895 197.448 42.5051 196.089C42.0156 194.724 41.5624 193.354 41.1458 191.969C40.7239 190.589 40.3385 189.193 39.9895 187.792C39.6354 186.391 39.3229 184.979 39.0364 183.562C38.7551 182.146 38.5104 180.724 38.2968 179.292C38.0833 177.859 37.9062 176.427 37.7656 174.99C37.6249 173.552 37.5208 172.109 37.4479 170.667C37.3749 169.224 37.3437 167.776 37.3437 166.333C37.3437 164.885 37.3749 163.443 37.4479 162C37.5208 160.557 37.6249 159.115 37.7656 157.677C37.9062 156.24 38.0833 154.802 38.2968 153.375C38.5104 151.943 38.7551 150.521 39.0364 149.104C39.3229 147.682 39.6354 146.276 39.9895 144.87C40.3385 143.469 40.7239 142.078 41.1458 140.693C41.5624 139.312 42.0156 137.937 42.5051 136.578C42.9895 135.219 43.5104 133.87 44.0624 132.531C44.6197 131.198 45.2031 129.875 45.8229 128.573C46.4374 127.266 47.0885 125.974 47.7708 124.698C48.4531 123.422 49.1614 122.167 49.9062 120.927C50.651 119.687 51.4218 118.469 52.2239 117.266C53.0312 116.062 53.8593 114.88 54.7239 113.719C55.5833 112.557 56.4739 111.422 57.3906 110.302C58.3072 109.187 59.2499 108.094 60.2187 107.021C61.1926 105.948 62.1874 104.901 63.2083 103.88C64.2343 102.859 65.276 101.865 66.3489 100.891C67.4218 99.9218 68.5156 98.9791 69.6301 98.0625C70.7499 97.1406 71.8906 96.2552 73.052 95.3906C74.2083 94.5312 75.3906 93.6979 76.5937 92.8958C77.7968 92.0937 79.0156 91.3229 80.2551 90.5781C81.4947 89.8333 82.7551 89.1198 84.026 88.4427C85.302 87.7604 86.5937 87.1093 87.901 86.4895C89.2083 85.875 90.526 85.2864 91.8645 84.7343C93.1979 84.1823 94.5468 83.6614 95.9062 83.177C97.2708 82.6875 98.6406 82.2343 100.026 81.8177C101.406 81.3958 102.802 81.0104 104.203 80.6614C105.604 80.3073 107.016 79.9895 108.432 79.7083C109.849 79.427 111.271 79.1823 112.703 78.9687C114.13 78.7552 115.568 78.5781 117.005 78.4375C118.443 78.2968 119.885 78.1875 121.328 78.1198C122.771 78.0468 124.219 78.0104 125.661 78.0104C127.109 78.0104 128.552 78.0468 129.995 78.1198C131.437 78.1875 132.88 78.2968 134.318 78.4375C135.755 78.5781 137.193 78.7552 138.62 78.9687C140.052 79.1823 141.474 79.427 142.891 79.7083C144.312 79.9895 145.719 80.3073 147.12 80.6614C148.526 81.0104 149.917 81.3958 151.302 81.8177C152.682 82.2343 154.057 82.6875 155.417 83.177C156.776 83.6614 158.125 84.1823 159.458 84.7343C160.797 85.2864 162.115 85.875 163.422 86.4895C164.729 87.1093 166.021 87.7604 167.297 88.4427C168.573 89.1198 169.828 89.8333 171.068 90.5781C172.307 91.3229 173.526 92.0937 174.729 92.8958C175.932 93.6979 177.115 94.5312 178.276 95.3906C179.437 96.2552 180.573 97.1406 181.693 98.0625C182.807 98.9791 183.901 99.9218 184.974 100.891C186.047 101.865 187.094 102.859 188.115 103.88C189.135 104.901 190.13 105.948 191.104 107.021C192.073 108.094 193.016 109.187 193.932 110.302C194.849 111.422 195.74 112.557 196.599 113.719C197.463 114.88 198.297 116.062 199.099 117.266C199.901 118.469 200.672 119.687 201.417 120.927C202.161 122.167 202.87 123.422 203.552 124.698C204.234 125.974 204.885 127.266 205.5 128.573C206.12 129.875 206.708 131.198 207.26 132.531C207.812 133.87 208.333 135.219 208.818 136.578C209.307 137.937 209.76 139.312 210.177 140.693C210.599 142.078 210.984 143.469 211.333 144.87C211.687 146.276 212.005 147.682 212.286 149.104C212.568 150.521 212.812 151.943 213.026 153.375C213.24 154.802 213.417 156.24 213.557 157.677C213.698 159.115 213.807 160.557 213.875 162C213.948 163.443 213.984 164.885 213.984 166.333Z" fill="#442F19"/>
</g>
<mask id="mask27_40_6" style="mask-type:luminance" maskUnits="userSpaceOnUse" x="92" y="195" width="84" height="32">
<path d="M92.3438 195.099H175.344V226.099H92.3438V195.099Z" fill="white"/>
</mask>
<g mask="url(#mask27_40_6)">
<path d="M166.062 212.005C154.76 208.948 146.297 211.531 140.74 214.807C148.333 207.078 159.922 204.542 163.635 203.911L166.062 212.005ZM152.698 195.146L155.885 202.76C149.875 204.63 142.021 208.25 136.703 214.938C140.068 203.24 149.266 197.078 152.698 195.146ZM115.37 195.146C118.797 197.078 128 203.219 131.365 214.958C126.047 208.276 118.193 204.651 112.177 202.781L115.37 195.146ZM104.432 203.911C108.141 204.542 119.729 207.078 127.328 214.807C121.771 211.531 113.307 208.948 102 212.005L104.432 203.911ZM138.917 226.135H129.151C127 223.359 117.714 214.438 92.3438 225.005L94.5365 217.911C119.839 205.625 132.339 222.49 132.859 223.229C132.885 223.25 132.906 223.25 132.927 223.271C132.948 223.313 132.969 223.359 133.016 223.38C133.036 223.401 133.036 223.401 133.036 223.422C133.078 223.464 133.12 223.49 133.188 223.51C133.229 223.531 133.276 223.573 133.318 223.594C133.359 223.62 133.406 223.661 133.469 223.682C133.49 223.682 133.51 223.703 133.51 223.703C133.599 223.75 133.708 223.75 133.818 223.771C133.88 223.771 133.927 223.813 133.99 223.813C134.01 223.813 134.031 223.813 134.057 223.813C134.078 223.813 134.099 223.813 134.12 223.813C134.188 223.813 134.229 223.792 134.292 223.771C134.401 223.75 134.49 223.75 134.599 223.703C134.62 223.703 134.641 223.682 134.641 223.682C134.708 223.661 134.75 223.62 134.792 223.594C134.839 223.573 134.88 223.552 134.922 223.51C134.969 223.464 135.031 223.443 135.073 223.422C135.099 223.401 135.099 223.401 135.099 223.38C135.141 223.333 135.161 223.313 135.182 223.271C135.203 223.25 135.229 223.25 135.25 223.229C135.771 222.49 148.271 205.625 173.573 217.911L175.766 225.005C150.375 214.438 141.062 223.38 138.917 226.135Z" fill="#EDE0D2"/>
</g>
<mask id="mask28_40_6" style="mask-type:luminance" maskUnits="userSpaceOnUse" x="94" y="0" width="34" height="34">
<path d="M94.6666 0H128V33.3333H94.6666V0Z" fill="white"/>
</mask>
<g mask="url(#mask28_40_6)">
<mask id="mask29_40_6" style="mask-type:luminance" maskUnits="userSpaceOnUse" x="89" y="-6" width="49" height="49">
<path d="M137.115 23.8593L118.729 42.2448L89.7343 13.2552L108.12 -5.13025L137.115 23.8593Z" fill="white"/>
</mask>
<g mask="url(#mask29_40_6)">
<mask id="mask30_40_6" style="mask-type:luminance" maskUnits="userSpaceOnUse" x="89" y="-6" width="49" height="49">
<path d="M137.115 23.8593L118.729 42.2448L89.7343 13.2552L108.12 -5.13025L137.115 23.8593Z" fill="white"/>
</mask>
<g mask="url(#mask30_40_6)">
<path d="M109.578 28.2604L127.812 33.1614L122.906 14.927C122.286 12.3906 120.135 6.88535 118.115 4.86451C112.573 -0.677153 103.922 -1.00007 98.7864 4.14056C93.6458 9.27597 93.9687 17.9322 99.5052 23.4687C101.531 25.4947 107.042 27.6406 109.578 28.2604Z" fill="#442F19"/>
</g>
</g>
</g>
<mask id="mask31_40_6" style="mask-type:luminance" maskUnits="userSpaceOnUse" x="117" y="0" width="34" height="35">
<path d="M117.333 0H150.667V34.6667H117.333V0Z" fill="white"/>
</mask>
<g mask="url(#mask31_40_6)">
<mask id="mask32_40_6" style="mask-type:luminance" maskUnits="userSpaceOnUse" x="108" y="-6" width="48" height="49">
<path d="M127.771 42.4688L108.599 24.9062L136.292 -5.32812L155.464 12.2344L127.771 42.4688Z" fill="white"/>
</mask>
<g mask="url(#mask32_40_6)">
<mask id="mask33_40_6" style="mask-type:luminance" maskUnits="userSpaceOnUse" x="108" y="-6" width="48" height="49">
<path d="M108.365 24.6927L127.542 42.2552L155.234 12.0209L136.057 -5.54163L108.365 24.6927Z" fill="white"/>
</mask>
<g mask="url(#mask33_40_6)">
<path d="M136.068 27.8802L118.068 33.5781L122.167 15.1458C122.672 12.5885 124.583 6.9948 126.516 4.88022C131.807 -0.895825 140.432 -1.59374 145.792 3.31251C151.151 8.21876 151.208 16.8802 145.917 22.6511C143.984 24.7656 138.573 27.1511 136.068 27.8802Z" fill="#442F19"/>
</g>
</g>
</g>
<mask id="mask34_40_6" style="mask-type:luminance" maskUnits="userSpaceOnUse" x="37" y="18" width="178" height="178">
<path d="M37.3437 18.4531H214.344V195.453H37.3437V18.4531Z" fill="white"/>
</mask>
<g mask="url(#mask34_40_6)">
<path d="M213.984 106.771C213.984 108.219 213.948 109.661 213.875 111.104C213.807 112.552 213.698 113.99 213.557 115.427C213.417 116.87 213.24 118.302 213.026 119.729C212.812 121.161 212.568 122.583 212.286 124C212.005 125.422 211.687 126.828 211.333 128.234C210.984 129.635 210.599 131.026 210.177 132.411C209.76 133.792 209.307 135.167 208.818 136.526C208.333 137.885 207.812 139.234 207.26 140.573C206.708 141.906 206.12 143.229 205.5 144.536C204.885 145.839 204.234 147.13 203.552 148.406C202.87 149.682 202.161 150.938 201.417 152.177C200.672 153.417 199.901 154.641 199.099 155.839C198.297 157.042 197.463 158.224 196.599 159.385C195.74 160.547 194.849 161.682 193.932 162.802C193.016 163.922 192.073 165.016 191.104 166.083C190.13 167.156 189.135 168.203 188.115 169.224C187.094 170.245 186.047 171.245 184.974 172.214C183.901 173.182 182.807 174.13 181.693 175.047C180.573 175.964 179.437 176.849 178.276 177.714C177.115 178.573 175.932 179.406 174.729 180.208C173.526 181.01 172.307 181.786 171.068 182.526C169.828 183.271 168.573 183.984 167.297 184.661C166.021 185.344 164.729 185.995 163.422 186.615C162.115 187.229 160.797 187.818 159.458 188.37C158.125 188.922 156.776 189.443 155.417 189.927C154.057 190.417 152.682 190.87 151.302 191.292C149.917 191.708 148.526 192.094 147.12 192.448C145.719 192.797 144.312 193.115 142.891 193.396C141.474 193.677 140.052 193.922 138.62 194.135C137.193 194.349 135.755 194.526 134.318 194.667C132.88 194.807 131.437 194.917 129.995 194.984C128.552 195.057 127.109 195.094 125.661 195.094C124.219 195.094 122.771 195.057 121.328 194.984C119.885 194.917 118.443 194.807 117.005 194.667C115.568 194.526 114.13 194.349 112.703 194.135C111.271 193.922 109.849 193.677 108.432 193.396C107.016 193.115 105.604 192.797 104.203 192.448C102.802 192.094 101.406 191.708 100.026 191.292C98.6406 190.87 97.2708 190.417 95.9062 189.927C94.5468 189.443 93.1979 188.922 91.8645 188.37C90.526 187.818 89.2083 187.229 87.901 186.615C86.5937 185.995 85.302 185.344 84.026 184.661C82.7551 183.984 81.4947 183.271 80.2551 182.526C79.0156 181.786 77.7968 181.01 76.5937 180.208C75.3906 179.406 74.2083 178.573 73.052 177.714C71.8906 176.849 70.7499 175.964 69.6301 175.047C68.5156 174.13 67.4218 173.182 66.3489 172.214C65.276 171.245 64.2343 170.245 63.2083 169.224C62.1874 168.203 61.1926 167.156 60.2187 166.083C59.2499 165.016 58.3072 163.922 57.3906 162.802C56.4739 161.682 55.5833 160.547 54.7239 159.385C53.8593 158.224 53.0312 157.042 52.2239 155.839C51.4218 154.641 50.651 153.417 49.9062 152.177C49.1614 150.938 48.4531 149.682 47.7708 148.406C47.0885 147.13 46.4374 145.839 45.8229 144.536C45.2031 143.229 44.6197 141.906 44.0624 140.573C43.5104 139.234 42.9895 137.885 42.5051 136.526C42.0156 135.167 41.5624 133.792 41.1458 132.411C40.7239 131.026 40.3385 129.635 39.9895 128.234C39.6354 126.828 39.3229 125.422 39.0364 124C38.7551 122.583 38.5104 121.161 38.2968 119.729C38.0833 118.302 37.9062 116.87 37.7656 115.427C37.6249 113.99 37.5208 112.552 37.4479 111.104C37.3749 109.661 37.3437 108.219 37.3437 106.771C37.3437 105.328 37.3749 103.88 37.4479 102.438C37.5208 100.995 37.6249 99.5521 37.7656 98.1146C37.9062 96.6771 38.0833 95.2448 38.2968 93.8125C38.5104 92.3854 38.7551 90.9583 39.0364 89.5417C39.3229 88.125 39.6354 86.7135 39.9895 85.3125C40.3385 83.9115 40.7239 82.5156 41.1458 81.1354C41.5624 79.75 42.0156 78.3802 42.5051 77.0156C42.9895 75.6563 43.5104 74.3073 44.0624 72.974C44.6197 71.6406 45.2031 70.3177 45.8229 69.0104C46.4374 67.7031 47.0885 66.4115 47.7708 65.1406C48.4531 63.8646 49.1614 62.6042 49.9062 61.3646C50.651 60.125 51.4218 58.9062 52.2239 57.7031C53.0312 56.5 53.8593 55.3229 54.7239 54.1615C55.5833 53 56.4739 51.8594 57.3906 50.7448C58.3072 49.625 59.2499 48.5313 60.2187 47.4583C61.1926 46.3906 62.1874 45.3438 63.2083 44.3177C64.2343 43.2969 65.276 42.3021 66.3489 41.3333C67.4218 40.3594 68.5156 39.4167 69.6301 38.5C70.7499 37.5833 71.8906 36.6927 73.052 35.8333C74.2083 34.974 75.3906 34.1406 76.5937 33.3385C77.7968 32.5313 79.0156 31.7604 80.2551 31.0156C81.4947 30.276 82.7551 29.5625 84.026 28.8802C85.302 28.1979 86.5937 27.5521 87.901 26.9323C89.2083 26.3125 90.526 25.7292 91.8645 25.1771C93.1979 24.6198 94.5468 24.1042 95.9062 23.6146C97.2708 23.1302 98.6406 22.6771 100.026 22.2552C101.406 21.8333 102.802 21.4479 104.203 21.099C105.604 20.75 107.016 20.4323 108.432 20.151C109.849 19.8646 111.271 19.6198 112.703 19.4062C114.13 19.1979 115.568 19.0208 117.005 18.875C118.443 18.7344 119.885 18.6302 121.328 18.5573C122.771 18.4896 124.219 18.4531 125.661 18.4531C127.109 18.4531 128.552 18.4896 129.995 18.5573C131.437 18.6302 132.88 18.7344 134.318 18.875C135.755 19.0208 137.193 19.1979 138.62 19.4062C140.052 19.6198 141.474 19.8646 142.891 20.151C144.312 20.4323 145.719 20.75 147.12 21.099C148.526 21.4479 149.917 21.8333 151.302 22.2552C152.682 22.6771 154.057 23.1302 155.417 23.6146C156.776 24.1042 158.125 24.6198 159.458 25.1771C160.797 25.7292 162.115 26.3125 163.422 26.9323C164.729 27.5521 166.021 28.1979 167.297 28.8802C168.573 29.5625 169.828 30.276 171.068 31.0156C172.307 31.7604 173.526 32.5313 174.729 33.3385C175.932 34.1406 177.115 34.974 178.276 35.8333C179.437 36.6927 180.573 37.5833 181.693 38.5C182.807 39.4167 183.901 40.3594 184.974 41.3333C186.047 42.3021 187.094 43.2969 188.115 44.3177C189.135 45.3438 190.13 46.3906 191.104 47.4583C192.073 48.5313 193.016 49.625 193.932 50.7448C194.849 51.8594 195.74 53 196.599 54.1615C197.463 55.3229 198.297 56.5 199.099 57.7031C199.901 58.9062 200.672 60.125 201.417 61.3646C202.161 62.6042 202.87 63.8646 203.552 65.1406C204.234 66.4115 204.885 67.7031 205.5 69.0104C206.12 70.3177 206.708 71.6406 207.26 72.974C207.812 74.3073 208.333 75.6563 208.818 77.0156C209.307 78.3802 209.76 79.75 210.177 81.1354C210.599 82.5156 210.984 83.9115 211.333 85.3125C211.687 86.7135 212.005 88.125 212.286 89.5417C212.568 90.9583 212.812 92.3854 213.026 93.8125C213.24 95.2448 213.417 96.6771 213.557 98.1146C213.698 99.5521 213.807 100.995 213.875 102.438C213.948 103.88 213.984 105.328 213.984 106.771Z" fill="#EDE0D2"/>
</g>
<mask id="mask35_40_6" style="mask-type:luminance" maskUnits="userSpaceOnUse" x="150" y="173" width="129" height="81">
<path d="M150.667 173.333H278.667V253.333H150.667V173.333Z" fill="white"/>
</mask>
<g mask="url(#mask35_40_6)">
<mask id="mask36_40_6" style="mask-type:luminance" maskUnits="userSpaceOnUse" x="143" y="167" width="143" height="92">
<path d="M143.911 218.135L269.016 167.391L285.552 208.161L160.453 258.911L143.911 218.135Z" fill="white"/>
</mask>
<g mask="url(#mask36_40_6)">
<mask id="mask37_40_6" style="mask-type:luminance" maskUnits="userSpaceOnUse" x="143" y="167" width="143" height="93">
<path d="M268.609 167.552L143.51 218.302L160.047 259.073L285.146 208.328L268.609 167.552Z" fill="white"/>
</mask>
<g mask="url(#mask37_40_6)">
<path d="M180.943 250.609L264.667 216.646C275.87 212.104 281.266 199.333 276.724 188.13C272.177 176.927 259.411 171.526 248.208 176.073L164.484 210.031C153.281 214.578 147.88 227.349 152.427 238.552C156.969 249.755 169.74 255.151 180.943 250.609Z" fill="#604428"/>
</g>
</g>
</g>
<mask id="mask38_40_6" style="mask-type:luminance" maskUnits="userSpaceOnUse" x="149" y="173" width="130" height="81">
<path d="M149.333 173.333H278.667V253.333H149.333V173.333Z" fill="white"/>
</mask>
<g mask="url(#mask38_40_6)">
<mask id="mask39_40_6" style="mask-type:luminance" maskUnits="userSpaceOnUse" x="143" y="167" width="143" height="92">
<path d="M143.911 218.135L269.016 167.391L285.552 208.161L160.453 258.911L143.911 218.135Z" fill="white"/>
</mask>
<g mask="url(#mask39_40_6)">
<mask id="mask40_40_6" style="mask-type:luminance" maskUnits="userSpaceOnUse" x="143" y="167" width="143" height="93">
<path d="M268.609 167.552L143.51 218.302L160.047 259.073L285.146 208.328L268.609 167.552Z" fill="white"/>
</mask>
<g mask="url(#mask40_40_6)">
<path d="M181.021 250.807L264.745 216.844C276.047 212.26 281.505 199.349 276.922 188.052C272.339 176.75 259.427 171.292 248.125 175.875L164.401 209.833C153.104 214.422 147.641 227.328 152.229 238.63C156.812 249.932 169.719 255.391 181.021 250.807ZM248.286 176.271C259.37 171.776 272.031 177.125 276.526 188.208C281.021 199.292 275.667 211.953 264.583 216.448L180.865 250.411C169.776 254.906 157.12 249.552 152.625 238.469C148.125 227.385 153.479 214.729 164.562 210.229L248.286 176.271Z" fill="#604428"/>
</g>
</g>
</g>
<mask id="mask41_40_6" style="mask-type:luminance" maskUnits="userSpaceOnUse" x="140" y="145" width="120" height="74">
<path d="M140 145.333H260V218.667H140V145.333Z" fill="white"/>
</mask>
<g mask="url(#mask41_40_6)">
<mask id="mask42_40_6" style="mask-type:luminance" maskUnits="userSpaceOnUse" x="134" y="138" width="133" height="87">
<path d="M134.062 186.25L250.823 138.891L266.234 176.88L149.474 224.245L134.062 186.25Z" fill="white"/>
</mask>
<g mask="url(#mask42_40_6)">
<mask id="mask43_40_6" style="mask-type:luminance" maskUnits="userSpaceOnUse" x="134" y="138" width="133" height="87">
<path d="M250.838 138.885L134.078 186.245L149.49 224.24L266.25 176.875L250.838 138.885Z" fill="white"/>
</mask>
<g mask="url(#mask43_40_6)">
<path d="M168.74 216.662L247.146 184.854C257.635 180.599 262.693 168.641 258.437 158.151C254.182 147.662 242.224 142.604 231.729 146.86L153.328 178.662C142.833 182.917 137.776 194.88 142.031 205.37C146.292 215.86 158.25 220.917 168.74 216.662Z" fill="#604428"/>
</g>
</g>
</g>
<mask id="mask44_40_6" style="mask-type:luminance" maskUnits="userSpaceOnUse" x="140" y="144" width="122" height="75">
<path d="M140 144H261.333V218.667H140V144Z" fill="white"/>
</mask>
<g mask="url(#mask44_40_6)">
<mask id="mask45_40_6" style="mask-type:luminance" maskUnits="userSpaceOnUse" x="134" y="138" width="133" height="87">
<path d="M134.062 186.25L250.823 138.891L266.234 176.88L149.474 224.245L134.062 186.25Z" fill="white"/>
</mask>
<g mask="url(#mask45_40_6)">
<mask id="mask46_40_6" style="mask-type:luminance" maskUnits="userSpaceOnUse" x="134" y="138" width="133" height="87">
<path d="M250.838 138.885L134.078 186.245L149.49 224.24L266.25 176.875L250.838 138.885Z" fill="white"/>
</mask>
<g mask="url(#mask46_40_6)">
<path d="M168.812 216.849L247.219 185.042C257.802 180.75 262.917 168.661 258.62 158.073C254.328 147.49 242.24 142.38 231.656 146.672L153.25 178.479C142.667 182.771 137.557 194.859 141.849 205.443C146.141 216.026 158.229 221.141 168.812 216.849ZM231.807 147.042C242.187 142.833 254.042 147.844 258.25 158.224C262.463 168.604 257.448 180.458 247.068 184.672L168.661 216.474C158.286 220.688 146.427 215.672 142.219 205.292C138.01 194.911 143.021 183.057 153.401 178.849L231.807 147.042Z" fill="#604428"/>
</g>
</g>
</g>
<mask id="mask47_40_6" style="mask-type:luminance" maskUnits="userSpaceOnUse" x="140" y="114" width="120" height="74">
<path d="M140 114.667H260V188H140V114.667Z" fill="white"/>
</mask>
<g mask="url(#mask47_40_6)">
<mask id="mask48_40_6" style="mask-type:luminance" maskUnits="userSpaceOnUse" x="134" y="108" width="133" height="86">
<path d="M134.062 155.937L250.823 108.573L266.234 146.568L149.474 193.932L134.062 155.937Z" fill="white"/>
</mask>
<g mask="url(#mask48_40_6)">
<mask id="mask49_40_6" style="mask-type:luminance" maskUnits="userSpaceOnUse" x="134" y="108" width="133" height="86">
<path d="M250.838 108.568L134.078 155.932L149.49 193.927L266.25 146.562L250.838 108.568Z" fill="white"/>
</mask>
<g mask="url(#mask49_40_6)">
<path d="M168.74 186.349L247.146 154.542C257.635 150.286 262.693 138.328 258.437 127.838C254.182 117.344 242.224 112.286 231.729 116.542L153.328 148.349C142.833 152.604 137.776 164.562 142.031 175.052C146.292 185.547 158.25 190.604 168.74 186.349Z" fill="#604428"/>
</g>
</g>
</g>
<mask id="mask50_40_6" style="mask-type:luminance" maskUnits="userSpaceOnUse" x="140" y="114" width="122" height="76">
<path d="M140 114.667H261.333V189.333H140V114.667Z" fill="white"/>
</mask>
<g mask="url(#mask50_40_6)">
<mask id="mask51_40_6" style="mask-type:luminance" maskUnits="userSpaceOnUse" x="134" y="108" width="133" height="86">
<path d="M134.062 155.937L250.823 108.573L266.234 146.568L149.474 193.932L134.062 155.937Z" fill="white"/>
</mask>
<g mask="url(#mask51_40_6)">
<mask id="mask52_40_6" style="mask-type:luminance" maskUnits="userSpaceOnUse" x="134" y="108" width="133" height="86">
<path d="M250.838 108.568L134.078 155.932L149.49 193.927L266.25 146.562L250.838 108.568Z" fill="white"/>
</mask>
<g mask="url(#mask52_40_6)">
<path d="M168.812 186.531L247.219 154.729C257.802 150.432 262.917 138.344 258.62 127.76C254.328 117.177 242.24 112.068 231.656 116.359L153.25 148.161C142.667 152.458 137.557 164.547 141.849 175.13C146.141 185.713 158.229 190.823 168.812 186.531ZM231.807 116.729C242.187 112.521 254.042 117.531 258.25 127.911C262.463 138.292 257.448 150.146 247.068 154.354L168.661 186.161C158.286 190.37 146.427 185.359 142.219 174.979C138.01 164.599 143.021 152.745 153.401 148.536L231.807 116.729Z" fill="#604428"/>
</g>
</g>
</g>
<mask id="mask53_40_6" style="mask-type:luminance" maskUnits="userSpaceOnUse" x="13" y="188" width="101" height="66">
<path d="M13.3333 188H113.333V253.333H13.3333V188Z" fill="white"/>
</mask>
<g mask="url(#mask53_40_6)">
<mask id="mask54_40_6" style="mask-type:luminance" maskUnits="userSpaceOnUse" x="8" y="182" width="112" height="78">
<path d="M23.4271 182.266L119.24 227.604L104.271 259.24L8.45831 213.901L23.4271 182.266Z" fill="white"/>
</mask>
<g mask="url(#mask54_40_6)">
<mask id="mask55_40_6" style="mask-type:luminance" maskUnits="userSpaceOnUse" x="8" y="182" width="112" height="78">
<path d="M23.4271 182.266L119.24 227.604L104.271 259.24L8.45831 213.901L23.4271 182.266Z" fill="white"/>
</mask>
<g mask="url(#mask55_40_6)">
<path d="M88.6927 251.516L24.3385 221.062C15.7291 216.99 12.0521 206.703 16.125 198.094C20.1979 189.484 30.4844 185.802 39.0937 189.88L103.448 220.328C112.057 224.401 115.74 234.687 111.661 243.302C107.589 251.911 97.3021 255.589 88.6927 251.516Z" fill="#604428"/>
</g>
</g>
</g>
<mask id="mask56_40_6" style="mask-type:luminance" maskUnits="userSpaceOnUse" x="13" y="188" width="102" height="67">
<path d="M13.3333 188H114.667V254.667H13.3333V188Z" fill="white"/>
</mask>
<g mask="url(#mask56_40_6)">
<mask id="mask57_40_6" style="mask-type:luminance" maskUnits="userSpaceOnUse" x="8" y="182" width="112" height="78">
<path d="M23.4271 182.266L119.24 227.604L104.271 259.24L8.45831 213.901L23.4271 182.266Z" fill="white"/>
</mask>
<g mask="url(#mask57_40_6)">
<mask id="mask58_40_6" style="mask-type:luminance" maskUnits="userSpaceOnUse" x="8" y="182" width="112" height="78">
<path d="M23.4271 182.266L119.24 227.604L104.271 259.24L8.45831 213.901L23.4271 182.266Z" fill="white"/>
</mask>
<g mask="url(#mask58_40_6)">
<path d="M88.6198 251.667L24.2656 221.219C15.5781 217.104 11.8594 206.708 15.9739 198.021C20.0833 189.333 30.4791 185.615 39.1666 189.724L103.521 220.177C112.208 224.287 115.927 234.688 111.818 243.37C107.703 252.057 97.3073 255.776 88.6198 251.667ZM39.026 190.031C30.5052 186 20.3073 189.646 16.276 198.167C12.2448 206.682 15.8906 216.88 24.4114 220.912L88.7656 251.365C97.2812 255.396 107.479 251.745 111.51 243.229C115.542 234.708 111.896 224.51 103.375 220.479L39.026 190.031Z" fill="#604428"/>
</g>
</g>
</g>
<mask id="mask59_40_6" style="mask-type:luminance" maskUnits="userSpaceOnUse" x="2" y="148" width="120" height="79">
<path d="M2.66663 148H121.333V226.667H2.66663V148Z" fill="white"/>
</mask>
<g mask="url(#mask59_40_6)">
<mask id="mask60_40_6" style="mask-type:luminance" maskUnits="userSpaceOnUse" x="-4" y="141" width="132" height="92">
<path d="M13.8385 141.776L127.734 195.667L110.198 232.729L-3.69797 178.833L13.8385 141.776Z" fill="white"/>
</mask>
<g mask="url(#mask60_40_6)">
<mask id="mask61_40_6" style="mask-type:luminance" maskUnits="userSpaceOnUse" x="-4" y="141" width="132" height="92">
<path d="M13.8385 141.776L127.734 195.667L110.198 232.729L-3.69797 178.833L13.8385 141.776Z" fill="white"/>
</mask>
<g mask="url(#mask61_40_6)">
<path d="M91.4062 224.073L14.927 187.88C4.69266 183.042 0.317662 170.813 5.16141 160.583C10.0052 150.349 22.2291 145.974 32.4635 150.818L108.943 187.005C119.177 191.849 123.552 204.073 118.708 214.307C113.865 224.542 101.641 228.912 91.4062 224.073Z" fill="#604428"/>
<path d="M91.3177 224.25L14.8385 188.063C4.51558 183.177 0.0937002 170.818 4.97912 160.495C9.86453 150.172 22.2239 145.75 32.5468 150.636L109.031 186.828C119.354 191.708 123.771 204.068 118.891 214.396C114.005 224.719 101.646 229.136 91.3177 224.25ZM32.3802 151C22.2552 146.208 10.1354 150.542 5.3437 160.667C0.552034 170.792 4.88537 182.912 15.0104 187.703L91.4895 223.891C101.615 228.682 113.734 224.349 118.526 214.224C123.318 204.099 118.984 191.979 108.859 187.188L32.3802 151Z" fill="#604428"/>
</g>
</g>
</g>
<mask id="mask62_40_6" style="mask-type:luminance" maskUnits="userSpaceOnUse" x="107" y="116" width="37" height="19">
<path d="M107.417 116.448H143.417V134.448H107.417V116.448Z" fill="white"/>
</mask>
<g mask="url(#mask62_40_6)">
<path d="M143.901 125.609C143.901 126.214 143.786 126.807 143.552 127.396C143.318 127.984 142.974 128.557 142.516 129.109C142.057 129.667 141.495 130.193 140.828 130.693C140.161 131.188 139.406 131.651 138.557 132.078C137.714 132.5 136.792 132.88 135.797 133.214C134.802 133.547 133.75 133.828 132.641 134.057C131.536 134.286 130.396 134.464 129.219 134.578C128.047 134.698 126.859 134.755 125.661 134.755C124.464 134.755 123.276 134.698 122.104 134.578C120.927 134.464 119.786 134.286 118.682 134.057C117.573 133.828 116.521 133.547 115.526 133.214C114.531 132.88 113.609 132.5 112.76 132.078C111.917 131.651 111.156 131.188 110.495 130.693C109.828 130.193 109.266 129.667 108.807 129.109C108.349 128.557 108.005 127.984 107.771 127.396C107.536 126.807 107.417 126.214 107.417 125.609C107.417 125.01 107.536 124.417 107.771 123.828C108.005 123.24 108.349 122.667 108.807 122.115C109.266 121.557 109.828 121.031 110.495 120.531C111.156 120.031 111.917 119.573 112.76 119.146C113.609 118.724 114.531 118.344 115.526 118.01C116.521 117.677 117.573 117.396 118.682 117.167C119.786 116.932 120.927 116.76 122.104 116.646C123.276 116.526 124.464 116.469 125.661 116.469C126.859 116.469 128.047 116.526 129.219 116.646C130.396 116.76 131.536 116.932 132.641 117.167C133.75 117.396 134.802 117.677 135.797 118.01C136.792 118.344 137.714 118.724 138.557 119.146C139.406 119.573 140.161 120.031 140.828 120.531C141.495 121.031 142.057 121.557 142.516 122.115C142.974 122.667 143.318 123.24 143.552 123.828C143.786 124.417 143.901 125.01 143.901 125.609Z" fill="#FFB93E"/>
</g>
<mask id="mask63_40_6" style="mask-type:luminance" maskUnits="userSpaceOnUse" x="0" y="122" width="119" height="80">
<path d="M0 122.667H118.667V201.333H0V122.667Z" fill="white"/>
</mask>
<g mask="url(#mask63_40_6)">
<mask id="mask64_40_6" style="mask-type:luminance" maskUnits="userSpaceOnUse" x="-6" y="116" width="132" height="92">
<path d="M11.75 116.448L125.646 170.339L108.109 207.401L-5.78647 153.51L11.75 116.448Z" fill="white"/>
</mask>
<g mask="url(#mask64_40_6)">
<mask id="mask65_40_6" style="mask-type:luminance" maskUnits="userSpaceOnUse" x="-6" y="116" width="132" height="92">
<path d="M11.75 116.448L125.646 170.339L108.109 207.401L-5.78647 153.51L11.75 116.448Z" fill="white"/>
</mask>
<g mask="url(#mask65_40_6)">
<path d="M89.3177 198.745L12.8385 162.557C2.60416 157.714 -1.77084 145.49 3.07291 135.255C7.91666 125.021 20.1406 120.651 30.375 125.49L106.854 161.682C117.089 166.521 121.458 178.75 116.62 188.984C111.776 199.214 99.5521 203.589 89.3177 198.745Z" fill="#604428"/>
</g>
</g>
</g>
<mask id="mask66_40_6" style="mask-type:luminance" maskUnits="userSpaceOnUse" x="0" y="122" width="120" height="80">
<path d="M0 122.667H120V201.333H0V122.667Z" fill="white"/>
</mask>
<g mask="url(#mask66_40_6)">
<mask id="mask67_40_6" style="mask-type:luminance" maskUnits="userSpaceOnUse" x="-6" y="116" width="132" height="92">
<path d="M11.75 116.448L125.646 170.339L108.109 207.401L-5.78647 153.51L11.75 116.448Z" fill="white"/>
</mask>
<g mask="url(#mask67_40_6)">
<mask id="mask68_40_6" style="mask-type:luminance" maskUnits="userSpaceOnUse" x="-6" y="116" width="132" height="92">
<path d="M11.75 116.448L125.646 170.339L108.109 207.401L-5.78647 153.51L11.75 116.448Z" fill="white"/>
</mask>
<g mask="url(#mask68_40_6)">
<path d="M89.2292 198.927L12.75 162.74C2.42707 157.854 -1.9948 145.495 2.89062 135.167C7.77603 124.844 20.1354 120.427 30.4583 125.313L106.943 161.5C117.266 166.385 121.682 178.745 116.797 189.068C111.917 199.391 99.5573 203.813 89.2292 198.927ZM30.2865 125.672C20.1615 120.88 8.04687 125.214 3.2552 135.339C-1.53647 145.464 2.79687 157.583 12.9219 162.375L89.401 198.563C99.526 203.354 111.646 199.021 116.437 188.896C121.229 178.771 116.896 166.651 106.771 161.859L30.2865 125.672Z" fill="#604428"/>
</g>
</g>
</g>
<mask id="mask69_40_6" style="mask-type:luminance" maskUnits="userSpaceOnUse" x="135" y="64" width="59" height="59">
<path d="M135.609 64.9166H193.625V122.927H135.609V64.9166Z" fill="white"/>
</mask>
<g mask="url(#mask69_40_6)">
<mask id="mask70_40_6" style="mask-type:luminance" maskUnits="userSpaceOnUse" x="135" y="64" width="59" height="59">
<path d="M164.62 64.9166C148.599 64.9166 135.609 77.9062 135.609 93.9218C135.609 109.943 148.599 122.927 164.62 122.927C180.635 122.927 193.625 109.943 193.625 93.9218C193.625 77.9062 180.635 64.9166 164.62 64.9166Z" fill="white"/>
</mask>
<g mask="url(#mask70_40_6)">
<path d="M135.609 64.9166H193.625V122.927H135.609V64.9166Z" fill="white"/>
</g>
</g>
<mask id="mask71_40_6" style="mask-type:luminance" maskUnits="userSpaceOnUse" x="137" y="67" width="55" height="54">
<path d="M137.953 67.2604H191.281V120.589H137.953V67.2604Z" fill="white"/>
</mask>
<g mask="url(#mask71_40_6)">
<mask id="mask72_40_6" style="mask-type:luminance" maskUnits="userSpaceOnUse" x="137" y="67" width="55" height="54">
<path d="M164.62 67.2604C149.891 67.2604 137.953 79.1979 137.953 93.9218C137.953 108.651 149.891 120.589 164.62 120.589C179.344 120.589 191.281 108.651 191.281 93.9218C191.281 79.1979 179.344 67.2604 164.62 67.2604Z" fill="white"/>
</mask>
<g mask="url(#mask72_40_6)">
<path d="M137.953 67.2604H191.281V120.589H137.953V67.2604Z" fill="black"/>
</g>
</g>
<mask id="mask73_40_6" style="mask-type:luminance" maskUnits="userSpaceOnUse" x="161" y="68" width="27" height="26">
<path d="M161.75 68.6615H187.016V93.9219H161.75V68.6615Z" fill="white"/>
</mask>
<g mask="url(#mask73_40_6)">
<mask id="mask74_40_6" style="mask-type:luminance" maskUnits="userSpaceOnUse" x="161" y="68" width="27" height="26">
<path d="M174.38 68.6615C167.406 68.6615 161.75 74.3125 161.75 81.2917C161.75 88.2657 167.406 93.9219 174.38 93.9219C181.359 93.9219 187.016 88.2657 187.016 81.2917C187.016 74.3125 181.359 68.6615 174.38 68.6615Z" fill="white"/>
</mask>
<g mask="url(#mask74_40_6)">
<path d="M161.75 68.6615H187.016V93.9219H161.75V68.6615Z" fill="white"/>
</g>
</g>
<mask id="mask75_40_6" style="mask-type:luminance" maskUnits="userSpaceOnUse" x="56" y="64" width="59" height="59">
<path d="M56.9479 64.9166H114.964V122.927H56.9479V64.9166Z" fill="white"/>
</mask>
<g mask="url(#mask75_40_6)">
<mask id="mask76_40_6" style="mask-type:luminance" maskUnits="userSpaceOnUse" x="56" y="64" width="59" height="59">
<path d="M85.9531 64.9166C69.9375 64.9166 56.9479 77.9062 56.9479 93.9218C56.9479 109.943 69.9375 122.927 85.9531 122.927C101.974 122.927 114.964 109.943 114.964 93.9218C114.964 77.9062 101.974 64.9166 85.9531 64.9166Z" fill="white"/>
</mask>
<g mask="url(#mask76_40_6)">
<path d="M56.9479 64.9166H114.964V122.927H56.9479V64.9166Z" fill="white"/>
</g>
</g>
<mask id="mask77_40_6" style="mask-type:luminance" maskUnits="userSpaceOnUse" x="59" y="67" width="54" height="54">
<path d="M59.2916 67.2604H112.62V120.589H59.2916V67.2604Z" fill="white"/>
</mask>
<g mask="url(#mask77_40_6)">
<mask id="mask78_40_6" style="mask-type:luminance" maskUnits="userSpaceOnUse" x="59" y="67" width="54" height="54">
<path d="M85.9531 67.2604C71.2291 67.2604 59.2916 79.1979 59.2916 93.9218C59.2916 108.651 71.2291 120.589 85.9531 120.589C100.682 120.589 112.62 108.651 112.62 93.9218C112.62 79.1979 100.682 67.2604 85.9531 67.2604Z" fill="white"/>
</mask>
<g mask="url(#mask78_40_6)">
<path d="M59.2916 67.2604H112.62V120.589H59.2916V67.2604Z" fill="black"/>
</g>
</g>
<mask id="mask79_40_6" style="mask-type:luminance" maskUnits="userSpaceOnUse" x="83" y="68" width="26" height="26">
<path d="M83.0885 68.6615H108.354V93.9219H83.0885V68.6615Z" fill="white"/>
</mask>
<g mask="url(#mask79_40_6)">
<mask id="mask80_40_6" style="mask-type:luminance" maskUnits="userSpaceOnUse" x="83" y="68" width="26" height="26">
<path d="M95.7187 68.6615C88.7448 68.6615 83.0885 74.3125 83.0885 81.2917C83.0885 88.2657 88.7448 93.9219 95.7187 93.9219C102.698 93.9219 108.354 88.2657 108.354 81.2917C108.354 74.3125 102.698 68.6615 95.7187 68.6615Z" fill="white"/>
</mask>
<g mask="url(#mask80_40_6)">
<path d="M83.0885 68.6615H108.354V93.9219H83.0885V68.6615Z" fill="white"/>
</g>
</g>
</svg>
