<svg width="530" height="529" viewBox="0 0 530 529" fill="none" xmlns="http://www.w3.org/2000/svg">
<mask id="mask0_47_13823" style="mask-type:luminance" maskUnits="userSpaceOnUse" x="108" y="13" width="171" height="7">
<path d="M108.333 13H279V19.6667H108.333V13Z" fill="white"/>
</mask>
<g mask="url(#mask0_47_13823)">
<mask id="mask1_47_13823" style="mask-type:luminance" maskUnits="userSpaceOnUse" x="79" y="-181" width="249" height="249">
<path d="M327.411 -29.2967L230.542 67.5783L79.2188 -83.7446L176.094 -180.62L327.411 -29.2967Z" fill="white"/>
</mask>
<g mask="url(#mask1_47_13823)">
<mask id="mask2_47_13823" style="mask-type:luminance" maskUnits="userSpaceOnUse" x="79" y="-181" width="249" height="249">
<path d="M327.411 -29.2967L230.542 67.5783L79.2188 -83.7446L176.094 -180.62L327.411 -29.2967Z" fill="white"/>
</mask>
<g mask="url(#mask2_47_13823)">
<path d="M183.875 -6.36975L278.911 19.198L253.354 -75.8489C250.13 -89.0625 238.922 -117.76 228.37 -128.318C199.505 -157.177 154.406 -158.859 127.63 -132.083C100.844 -105.297 102.526 -60.2031 131.391 -31.3385C141.943 -20.7812 170.661 -9.59372 183.875 -6.36975Z" fill="#442F19"/>
</g>
</g>
</g>
<mask id="mask3_47_13823" style="mask-type:luminance" maskUnits="userSpaceOnUse" x="251" y="13" width="172" height="7">
<path d="M251 13H423V19.6667H251V13Z" fill="white"/>
</mask>
<g mask="url(#mask3_47_13823)">
<mask id="mask4_47_13823" style="mask-type:luminance" maskUnits="userSpaceOnUse" x="203" y="-181" width="249" height="249">
<path d="M300.276 67.7083L203.401 -29.1615L354.724 -180.484L451.599 -83.6094L300.276 67.7083Z" fill="white"/>
</mask>
<g mask="url(#mask4_47_13823)">
<mask id="mask5_47_13823" style="mask-type:luminance" maskUnits="userSpaceOnUse" x="203" y="-181" width="249" height="249">
<path d="M203.271 -29.297L300.146 67.578L451.464 -83.7449L354.594 -180.615L203.271 -29.297Z" fill="white"/>
</mask>
<g mask="url(#mask5_47_13823)">
<path d="M346.813 -6.36975L251.771 19.198L277.328 -75.8489C280.552 -89.0625 291.761 -117.76 302.318 -128.318C331.182 -157.177 376.276 -158.859 403.052 -132.083C429.839 -105.297 428.162 -60.2031 399.297 -31.3385C388.745 -20.7812 360.026 -9.59372 346.813 -6.36975Z" fill="#442F19"/>
</g>
</g>
</g>
<mask id="mask6_47_13823" style="mask-type:luminance" maskUnits="userSpaceOnUse" x="15" y="178" width="500" height="335">
<path d="M15 178.193H515V513H15V178.193Z" fill="white"/>
</mask>
<g mask="url(#mask6_47_13823)">
<path d="M529.193 442.391C529.193 446.714 529.089 451.037 528.875 455.354C528.661 459.672 528.344 463.985 527.922 468.287C527.5 472.589 526.969 476.88 526.333 481.156C525.698 485.432 524.964 489.693 524.12 493.932C523.276 498.172 522.328 502.391 521.276 506.583C520.224 510.781 519.073 514.943 517.818 519.083C516.562 523.219 515.208 527.323 513.75 531.396C512.292 535.464 510.74 539.5 509.083 543.495C507.427 547.49 505.677 551.438 503.828 555.349C501.979 559.255 500.036 563.12 498 566.932C495.958 570.745 493.828 574.505 491.609 578.214C489.385 581.922 487.073 585.573 484.672 589.172C482.266 592.766 479.776 596.297 477.203 599.771C474.625 603.245 471.969 606.651 469.224 609.995C466.479 613.339 463.656 616.61 460.755 619.813C457.849 623.016 454.87 626.146 451.812 629.203C448.755 632.261 445.625 635.245 442.422 638.146C439.219 641.052 435.943 643.875 432.604 646.615C429.26 649.36 425.854 652.016 422.38 654.594C418.906 657.172 415.375 659.656 411.776 662.063C408.182 664.464 404.531 666.776 400.823 669C397.115 671.219 393.354 673.349 389.542 675.391C385.729 677.427 381.865 679.37 377.958 681.219C374.047 683.068 370.099 684.818 366.104 686.474C362.109 688.13 358.073 689.688 354.005 691.141C349.932 692.599 345.828 693.953 341.693 695.208C337.552 696.464 333.385 697.62 329.193 698.667C325 699.719 320.781 700.667 316.542 701.511C312.302 702.354 308.042 703.094 303.766 703.724C299.49 704.36 295.198 704.891 290.896 705.313C286.594 705.74 282.281 706.057 277.963 706.266C273.646 706.479 269.323 706.583 265 706.583C260.677 706.583 256.354 706.479 252.036 706.266C247.719 706.057 243.406 705.74 239.104 705.313C234.802 704.891 230.51 704.36 226.234 703.724C221.958 703.094 217.698 702.354 213.458 701.511C209.219 700.667 205 699.719 200.807 698.667C196.609 697.62 192.443 696.464 188.307 695.208C184.172 693.953 180.068 692.599 175.995 691.141C171.922 689.688 167.891 688.13 163.896 686.474C159.901 684.818 155.948 683.068 152.042 681.219C148.13 679.37 144.271 677.427 140.458 675.391C136.646 673.349 132.885 671.219 129.177 669C125.469 666.776 121.812 664.464 118.219 662.063C114.625 659.656 111.088 657.172 107.62 654.594C104.146 652.016 100.74 649.36 97.3958 646.615C94.052 643.875 90.7812 641.052 87.578 638.146C84.3749 635.245 81.2395 632.261 78.1822 629.203C75.1249 626.146 72.1458 623.016 69.2447 619.813C66.3385 616.61 63.5155 613.339 60.7708 609.995C58.0312 606.651 55.3697 603.245 52.7968 599.771C50.2187 596.297 47.7291 592.766 45.328 589.172C42.927 585.573 40.6145 581.922 38.3905 578.214C36.1666 574.505 34.0364 570.745 31.9999 566.932C29.9635 563.12 28.0155 559.255 26.1718 555.349C24.3228 551.438 22.5676 547.49 20.9166 543.495C19.2603 539.5 17.703 535.464 16.2499 531.396C14.7916 527.323 13.4374 523.219 12.1822 519.083C10.927 514.943 9.77075 510.776 8.71867 506.583C7.67179 502.391 6.72388 498.172 5.88013 493.932C5.03638 489.693 4.29679 485.432 3.66138 481.156C3.03117 476.88 2.49992 472.589 2.07804 468.287C1.65096 463.985 1.33325 459.672 1.11971 455.354C0.911378 451.037 0.802002 446.714 0.802002 442.391C0.802002 438.068 0.911378 433.745 1.11971 429.427C1.33325 425.11 1.65096 420.797 2.07804 416.495C2.49992 412.193 3.03117 407.901 3.66138 403.625C4.29679 399.349 5.03638 395.089 5.88013 390.849C6.72388 386.61 7.67179 382.391 8.71867 378.198C9.77075 374 10.927 369.839 12.1822 365.698C13.4374 361.563 14.7916 357.458 16.2499 353.386C17.703 349.313 19.2603 345.281 20.9166 341.287C22.5676 337.292 24.3228 333.339 26.1718 329.432C28.0155 325.526 29.9635 321.662 31.9999 317.849C34.0364 314.037 36.1666 310.276 38.3905 306.568C40.6145 302.86 42.927 299.209 45.328 295.61C47.7291 292.016 50.2187 288.485 52.7968 285.011C55.3697 281.537 58.0312 278.13 60.7708 274.787C63.5155 271.443 66.3385 268.172 69.2447 264.969C72.1458 261.766 75.1249 258.636 78.1822 255.578C81.2395 252.521 84.3749 249.537 87.578 246.636C90.7812 243.729 94.052 240.906 97.3958 238.167C100.74 235.422 104.146 232.761 107.62 230.188C111.088 227.61 114.625 225.12 118.219 222.719C121.812 220.318 125.469 218.005 129.177 215.781C132.885 213.557 136.646 211.427 140.458 209.391C144.271 207.354 148.13 205.412 152.042 203.563C155.948 201.714 159.901 199.958 163.896 198.307C167.891 196.651 171.922 195.094 175.995 193.641C180.068 192.182 184.172 190.828 188.307 189.573C192.443 188.318 196.609 187.162 200.807 186.115C205 185.063 209.219 184.115 213.458 183.271C217.698 182.427 221.958 181.688 226.234 181.052C230.51 180.422 234.802 179.891 239.104 179.469C243.406 179.042 247.719 178.724 252.036 178.516C256.354 178.302 260.677 178.193 265 178.193C269.323 178.193 273.646 178.302 277.963 178.516C282.281 178.724 286.594 179.042 290.896 179.469C295.198 179.891 299.49 180.422 303.766 181.052C308.042 181.688 312.302 182.427 316.542 183.271C320.781 184.115 325 185.063 329.193 186.115C333.385 187.162 337.552 188.318 341.693 189.573C345.828 190.828 349.932 192.182 354.005 193.641C358.073 195.094 362.109 196.651 366.104 198.307C370.099 199.958 374.047 201.714 377.958 203.563C381.865 205.412 385.729 207.354 389.542 209.391C393.354 211.427 397.115 213.557 400.823 215.781C404.531 218.005 408.182 220.318 411.776 222.719C415.375 225.12 418.906 227.61 422.38 230.188C425.854 232.761 429.26 235.422 432.604 238.167C435.943 240.906 439.219 243.729 442.422 246.636C445.625 249.537 448.755 252.521 451.812 255.578C454.87 258.636 457.849 261.766 460.755 264.969C463.656 268.172 466.479 271.443 469.224 274.787C471.969 278.13 474.625 281.537 477.203 285.011C479.776 288.485 482.266 292.016 484.672 295.61C487.073 299.209 489.385 302.86 491.609 306.568C493.828 310.276 495.958 314.037 498 317.849C500.036 321.662 501.979 325.526 503.828 329.432C505.677 333.339 507.427 337.292 509.083 341.287C510.74 345.281 512.292 349.313 513.75 353.386C515.208 357.458 516.562 361.563 517.818 365.698C519.073 369.839 520.224 374 521.276 378.198C522.328 382.391 523.276 386.61 524.12 390.849C524.964 395.089 525.698 399.349 526.333 403.625C526.969 407.901 527.5 412.193 527.922 416.495C528.344 420.797 528.661 425.11 528.875 429.427C529.089 433.745 529.193 438.068 529.193 442.391Z" fill="#442F19"/>
</g>
<path d="M529.193 264.235C529.193 268.557 529.089 272.88 528.875 277.198C528.661 281.516 528.344 285.828 527.922 290.13C527.5 294.432 526.969 298.724 526.333 303C525.698 307.276 524.964 311.537 524.12 315.776C523.276 320.016 522.328 324.235 521.276 328.427C520.224 332.62 519.073 336.787 517.818 340.927C516.562 345.063 515.208 349.167 513.75 353.24C512.292 357.307 510.74 361.344 509.083 365.339C507.427 369.333 505.677 373.281 503.828 377.193C501.979 381.099 500.036 384.958 498 388.776C495.958 392.589 493.828 396.349 491.609 400.057C489.385 403.766 487.073 407.417 484.672 411.011C482.266 414.61 479.776 418.141 477.203 421.615C474.625 425.089 471.969 428.495 469.224 431.839C466.479 435.177 463.656 438.453 460.755 441.656C457.849 444.86 454.87 447.99 451.812 451.047C448.755 454.104 445.625 457.083 442.422 459.99C439.219 462.891 435.943 465.714 432.604 468.458C429.26 471.203 425.854 473.86 422.38 476.438C418.906 479.011 415.375 481.5 411.776 483.901C408.182 486.307 404.531 488.62 400.823 490.839C397.115 493.063 393.354 495.193 389.542 497.235C385.729 499.271 381.865 501.214 377.958 503.063C374.047 504.912 370.099 506.662 366.104 508.318C362.109 509.974 358.073 511.526 354.005 512.985C349.932 514.443 345.828 515.797 341.693 517.052C337.552 518.307 333.385 519.458 329.193 520.511C325 521.563 320.781 522.511 316.542 523.354C312.302 524.193 308.042 524.932 303.766 525.568C299.49 526.203 295.198 526.735 290.896 527.156C286.594 527.578 282.281 527.896 277.963 528.11C273.646 528.323 269.323 528.427 265 528.427C260.677 528.427 256.354 528.323 252.036 528.11C247.719 527.896 243.406 527.578 239.104 527.156C234.802 526.735 230.51 526.203 226.234 525.568C221.958 524.932 217.698 524.193 213.458 523.354C209.219 522.511 205 521.563 200.807 520.511C196.609 519.458 192.443 518.307 188.307 517.052C184.172 515.797 180.068 514.443 175.995 512.985C171.922 511.526 167.891 509.974 163.896 508.318C159.901 506.662 155.948 504.912 152.042 503.063C148.13 501.214 144.271 499.271 140.458 497.235C136.646 495.193 132.885 493.063 129.177 490.839C125.469 488.62 121.812 486.307 118.219 483.901C114.625 481.5 111.088 479.011 107.62 476.438C104.146 473.86 100.74 471.203 97.3958 468.458C94.052 465.714 90.7812 462.891 87.578 459.99C84.3749 457.083 81.2395 454.104 78.1822 451.047C75.1249 447.99 72.1458 444.86 69.2447 441.656C66.3385 438.453 63.5155 435.177 60.7708 431.839C58.0312 428.495 55.3697 425.089 52.7968 421.615C50.2187 418.141 47.7291 414.61 45.328 411.011C42.927 407.417 40.6145 403.766 38.3905 400.057C36.1666 396.349 34.0364 392.589 31.9999 388.776C29.9635 384.958 28.0155 381.099 26.1718 377.193C24.3228 373.281 22.5676 369.328 20.9166 365.339C19.2603 361.344 17.703 357.307 16.2499 353.24C14.7916 349.167 13.4374 345.063 12.1822 340.927C10.927 336.787 9.77075 332.62 8.71867 328.427C7.67179 324.235 6.72388 320.016 5.88013 315.776C5.03638 311.537 4.29679 307.276 3.66138 303C3.03117 298.724 2.49992 294.432 2.07804 290.13C1.65096 285.828 1.33325 281.516 1.11971 277.198C0.911378 272.88 0.802002 268.557 0.802002 264.235C0.802002 259.912 0.911378 255.589 1.11971 251.271C1.33325 246.953 1.65096 242.641 2.07804 238.339C2.49992 234.037 3.03117 229.745 3.66138 225.469C4.29679 221.193 5.03638 216.932 5.88013 212.693C6.72388 208.448 7.67179 204.235 8.71867 200.037C9.77075 195.844 10.927 191.677 12.1822 187.542C13.4374 183.401 14.7916 179.297 16.2499 175.229C17.703 171.156 19.2603 167.125 20.9166 163.13C22.5676 159.136 24.3228 155.182 26.1718 151.276C28.0155 147.365 29.9635 143.505 31.9999 139.693C34.0364 135.88 36.1666 132.12 38.3905 128.412C40.6145 124.703 42.927 121.047 45.328 117.453C47.7291 113.86 50.2187 110.323 52.7968 106.854C55.3697 103.38 58.0312 99.9741 60.7708 96.6304C63.5155 93.2866 66.3385 90.0158 69.2447 86.8127C72.1458 83.6043 75.1249 80.4741 78.1822 77.4168C81.2395 74.3595 84.3749 71.3804 87.578 68.4793C90.7812 65.5731 94.052 62.7502 97.3958 60.0054C100.74 57.2658 104.146 54.6043 107.62 52.0314C111.088 49.4533 114.625 46.9637 118.219 44.5627C121.812 42.1616 125.469 39.8491 129.177 37.6252C132.885 35.4012 136.646 33.271 140.458 31.2345C144.271 29.1929 148.13 27.2502 152.042 25.4012C155.948 23.5522 159.901 21.8022 163.896 20.146C167.891 18.495 171.922 16.9377 175.995 15.4793C180.068 14.0262 184.172 12.6668 188.307 11.4116C192.443 10.1564 196.609 9.00537 200.807 7.95329C205 6.90641 209.219 5.9585 213.458 5.11475C217.698 4.271 221.958 3.53141 226.234 2.896C230.51 2.26058 234.802 1.73454 239.104 1.30745C243.406 0.885578 247.719 0.567871 252.036 0.354329C256.354 0.145996 260.677 0.0366211 265 0.0366211C269.323 0.0366211 273.646 0.145996 277.963 0.354329C282.281 0.567871 286.594 0.885578 290.896 1.30745C295.198 1.73454 299.49 2.26058 303.766 2.896C308.042 3.53141 312.302 4.271 316.542 5.11475C320.781 5.9585 325 6.90641 329.193 7.95329C333.385 9.00537 337.552 10.1564 341.693 11.4116C345.828 12.6668 349.932 14.0262 354.005 15.4793C358.073 16.9377 362.109 18.495 366.104 20.146C370.099 21.8022 374.047 23.5522 377.958 25.4012C381.865 27.2502 385.729 29.1929 389.542 31.2345C393.354 33.271 397.115 35.4012 400.823 37.6252C404.531 39.8491 408.182 42.1616 411.776 44.5627C415.375 46.9637 418.906 49.4533 422.38 52.0314C425.854 54.6043 429.26 57.2658 432.604 60.0054C435.943 62.7502 439.219 65.5731 442.422 68.4793C445.625 71.3804 448.755 74.3595 451.812 77.4168C454.87 80.4741 457.849 83.6043 460.755 86.8127C463.656 90.0158 466.479 93.2866 469.224 96.6304C471.969 99.9741 474.625 103.38 477.203 106.854C479.776 110.323 482.266 113.86 484.672 117.453C487.073 121.047 489.385 124.703 491.609 128.412C493.828 132.12 495.958 135.88 498 139.693C500.036 143.505 501.979 147.365 503.828 151.276C505.677 155.182 507.427 159.136 509.083 163.13C510.74 167.125 512.292 171.156 513.75 175.229C515.208 179.297 516.562 183.401 517.818 187.542C519.073 191.677 520.224 195.844 521.276 200.037C522.328 204.235 523.276 208.448 524.12 212.693C524.964 216.932 525.698 221.193 526.333 225.469C526.969 229.745 527.5 234.037 527.922 238.339C528.344 242.641 528.661 246.953 528.875 251.271C529.089 255.589 529.193 259.912 529.193 264.235Z" fill="#EDE0D2"/>
<mask id="mask7_47_13823" style="mask-type:luminance" maskUnits="userSpaceOnUse" x="297" y="186" width="189" height="188">
<path d="M297.995 186.328H485.531V373.865H297.995V186.328Z" fill="white"/>
</mask>
<g mask="url(#mask7_47_13823)">
<mask id="mask8_47_13823" style="mask-type:luminance" maskUnits="userSpaceOnUse" x="297" y="186" width="189" height="188">
<path d="M391.766 186.328C339.979 186.328 297.995 228.307 297.995 280.099C297.995 331.885 339.979 373.865 391.766 373.865C443.552 373.865 485.531 331.885 485.531 280.099C485.531 228.307 443.552 186.328 391.766 186.328Z" fill="white"/>
</mask>
<g mask="url(#mask8_47_13823)">
<path d="M297.995 186.328H485.531V373.865H297.995V186.328Z" fill="white"/>
</g>
</g>
<mask id="mask9_47_13823" style="mask-type:luminance" maskUnits="userSpaceOnUse" x="44" y="186" width="189" height="188">
<path d="M44.4688 186.328H232.005V373.865H44.4688V186.328Z" fill="white"/>
</mask>
<g mask="url(#mask9_47_13823)">
<mask id="mask10_47_13823" style="mask-type:luminance" maskUnits="userSpaceOnUse" x="44" y="186" width="189" height="188">
<path d="M138.234 186.328C86.4479 186.328 44.4688 228.307 44.4688 280.099C44.4688 331.885 86.4479 373.865 138.234 373.865C190.021 373.865 232.005 331.885 232.005 280.099C232.005 228.307 190.021 186.328 138.234 186.328Z" fill="white"/>
</mask>
<g mask="url(#mask10_47_13823)">
<path d="M44.4688 186.328H232.005V373.865H44.4688V186.328Z" fill="white"/>
</g>
</g>
<mask id="mask11_47_13823" style="mask-type:luminance" maskUnits="userSpaceOnUse" x="209" y="346" width="110" height="56">
<path d="M209.406 346.438H318.406V401.438H209.406V346.438Z" fill="white"/>
</mask>
<g mask="url(#mask11_47_13823)">
<path d="M318.562 373.86C318.562 374.755 318.474 375.651 318.302 376.542C318.125 377.432 317.865 378.318 317.516 379.198C317.167 380.073 316.734 380.943 316.214 381.802C315.693 382.656 315.094 383.5 314.411 384.328C313.724 385.156 312.964 385.964 312.12 386.755C311.276 387.547 310.359 388.313 309.365 389.057C308.375 389.802 307.307 390.521 306.177 391.214C305.042 391.906 303.844 392.568 302.578 393.203C301.312 393.833 299.99 394.438 298.609 395.005C297.229 395.573 295.792 396.104 294.307 396.604C292.823 397.099 291.292 397.563 289.714 397.985C288.135 398.406 286.521 398.787 284.87 399.13C283.219 399.474 281.542 399.776 279.828 400.037C278.12 400.297 276.385 400.516 274.635 400.688C272.88 400.865 271.115 400.995 269.333 401.083C267.557 401.172 265.771 401.214 263.984 401.214C262.198 401.214 260.417 401.172 258.635 401.083C256.859 400.995 255.089 400.865 253.339 400.688C251.583 400.516 249.854 400.297 248.141 400.037C246.432 399.776 244.75 399.474 243.099 399.13C241.448 398.787 239.833 398.406 238.255 397.985C236.682 397.563 235.151 397.099 233.661 396.604C232.177 396.104 230.745 395.573 229.359 395.005C227.979 394.438 226.656 393.833 225.391 393.203C224.13 392.568 222.932 391.906 221.797 391.214C220.661 390.521 219.599 389.802 218.604 389.057C217.615 388.313 216.693 387.547 215.854 386.755C215.01 385.964 214.245 385.156 213.562 384.328C212.88 383.5 212.276 382.656 211.755 381.802C211.24 380.943 210.807 380.073 210.458 379.198C210.109 378.318 209.844 377.432 209.672 376.542C209.495 375.651 209.406 374.755 209.406 373.86C209.406 372.964 209.495 372.068 209.672 371.177C209.844 370.287 210.109 369.401 210.458 368.521C210.807 367.646 211.24 366.776 211.755 365.917C212.276 365.063 212.88 364.219 213.562 363.391C214.245 362.563 215.01 361.755 215.854 360.964C216.693 360.172 217.615 359.406 218.604 358.662C219.599 357.917 220.661 357.198 221.797 356.505C222.932 355.813 224.13 355.151 225.391 354.516C226.656 353.886 227.979 353.281 229.359 352.714C230.745 352.146 232.177 351.615 233.661 351.115C235.151 350.615 236.682 350.156 238.255 349.735C239.833 349.313 241.448 348.932 243.099 348.589C244.75 348.245 246.432 347.943 248.141 347.682C249.854 347.422 251.583 347.203 253.339 347.031C255.089 346.854 256.859 346.724 258.635 346.636C260.417 346.547 262.198 346.505 263.984 346.505C265.771 346.505 267.557 346.547 269.333 346.636C271.115 346.724 272.88 346.854 274.635 347.031C276.385 347.203 278.12 347.422 279.828 347.682C281.542 347.943 283.219 348.245 284.87 348.589C286.521 348.932 288.135 349.313 289.714 349.735C291.292 350.156 292.823 350.615 294.307 351.115C295.792 351.615 297.229 352.146 298.609 352.714C299.99 353.281 301.312 353.886 302.578 354.516C303.844 355.151 305.042 355.813 306.177 356.505C307.307 357.198 308.375 357.917 309.365 358.662C310.359 359.406 311.276 360.172 312.12 360.964C312.964 361.755 313.724 362.563 314.411 363.391C315.094 364.219 315.693 365.063 316.214 365.917C316.734 366.776 317.167 367.646 317.516 368.521C317.865 369.401 318.125 370.287 318.302 371.177C318.474 372.068 318.562 372.964 318.562 373.86Z" fill="#FFB93E"/>
</g>
<mask id="mask12_47_13823" style="mask-type:luminance" maskUnits="userSpaceOnUse" x="332" y="223" width="117" height="117">
<path d="M332.573 223.141H448.521V339.089H332.573V223.141Z" fill="white"/>
</mask>
<g mask="url(#mask12_47_13823)">
<mask id="mask13_47_13823" style="mask-type:luminance" maskUnits="userSpaceOnUse" x="332" y="223" width="117" height="117">
<path d="M390.547 223.141C358.531 223.141 332.573 249.094 332.573 281.115C332.573 313.13 358.531 339.089 390.547 339.089C422.568 339.089 448.521 313.13 448.521 281.115C448.521 249.094 422.568 223.141 390.547 223.141Z" fill="white"/>
</mask>
<g mask="url(#mask13_47_13823)">
<path d="M332.573 223.141H448.521V339.089H332.573V223.141Z" fill="black"/>
</g>
</g>
<mask id="mask14_47_13823" style="mask-type:luminance" maskUnits="userSpaceOnUse" x="86" y="223" width="117" height="117">
<path d="M86.3125 223.141H202.26V339.089H86.3125V223.141Z" fill="white"/>
</mask>
<g mask="url(#mask14_47_13823)">
<mask id="mask15_47_13823" style="mask-type:luminance" maskUnits="userSpaceOnUse" x="86" y="223" width="117" height="117">
<path d="M144.286 223.141C112.271 223.141 86.3125 249.094 86.3125 281.115C86.3125 313.13 112.271 339.089 144.286 339.089C176.307 339.089 202.26 313.13 202.26 281.115C202.26 249.094 176.307 223.141 144.286 223.141Z" fill="white"/>
</mask>
<g mask="url(#mask15_47_13823)">
<path d="M86.3125 223.141H202.26V339.089H86.3125V223.141Z" fill="black"/>
</g>
</g>
<mask id="mask16_47_13823" style="mask-type:luminance" maskUnits="userSpaceOnUse" x="138" y="225" width="56" height="57">
<path d="M138.052 225.588H193.578V281.114H138.052V225.588Z" fill="white"/>
</mask>
<g mask="url(#mask16_47_13823)">
<mask id="mask17_47_13823" style="mask-type:luminance" maskUnits="userSpaceOnUse" x="138" y="225" width="56" height="57">
<path d="M165.818 225.588C150.484 225.588 138.052 238.015 138.052 253.349C138.052 268.682 150.484 281.114 165.818 281.114C181.151 281.114 193.578 268.682 193.578 253.349C193.578 238.015 181.151 225.588 165.818 225.588Z" fill="white"/>
</mask>
<g mask="url(#mask17_47_13823)">
<path d="M138.052 225.588H193.578V281.114H138.052V225.588Z" fill="white"/>
</g>
</g>
<mask id="mask18_47_13823" style="mask-type:luminance" maskUnits="userSpaceOnUse" x="384" y="224" width="56" height="57">
<path d="M384.292 224.573H439.818V280.099H384.292V224.573Z" fill="white"/>
</mask>
<g mask="url(#mask18_47_13823)">
<mask id="mask19_47_13823" style="mask-type:luminance" maskUnits="userSpaceOnUse" x="384" y="224" width="56" height="57">
<path d="M412.052 224.573C396.719 224.573 384.292 237 384.292 252.333C384.292 267.667 396.719 280.099 412.052 280.099C427.385 280.099 439.818 267.667 439.818 252.333C439.818 237 427.385 224.573 412.052 224.573Z" fill="white"/>
</mask>
<g mask="url(#mask19_47_13823)">
<path d="M384.292 224.573H439.818V280.099H384.292V224.573Z" fill="white"/>
</g>
</g>
<mask id="mask20_47_13823" style="mask-type:luminance" maskUnits="userSpaceOnUse" x="169" y="109" width="190" height="70">
<path d="M169.734 109H358.734V178.974H169.734V109Z" fill="white"/>
</mask>
<g mask="url(#mask20_47_13823)">
<path d="M336.63 147.24C311.031 140.312 291.87 146.156 279.297 153.578C296.49 136.089 322.724 130.339 331.13 128.911L336.63 147.24ZM306.365 109.062L313.589 126.307C299.979 130.536 282.193 138.74 270.156 153.87C277.771 127.391 298.604 113.438 306.365 109.062ZM221.859 109.062C229.625 113.438 250.453 127.344 258.068 153.922C246.031 138.786 228.25 130.583 214.641 126.359L221.859 109.062ZM197.099 128.911C205.5 130.339 231.734 136.089 248.932 153.578C236.354 146.156 217.193 140.312 191.594 147.24L197.099 128.911ZM275.167 179.224H253.057C248.193 172.938 227.167 152.74 169.734 176.667L174.693 160.604C231.979 132.797 260.281 170.969 261.458 172.641C261.51 172.688 261.557 172.688 261.609 172.74C261.656 172.839 261.703 172.938 261.802 172.984C261.854 173.031 261.854 173.031 261.854 173.083C261.953 173.182 262.052 173.229 262.198 173.281C262.297 173.328 262.396 173.427 262.49 173.474C262.589 173.526 262.688 173.625 262.833 173.672C262.885 173.672 262.932 173.719 262.932 173.719C263.13 173.818 263.375 173.818 263.62 173.87C263.771 173.87 263.87 173.969 264.016 173.969C264.062 173.969 264.115 173.969 264.161 173.969C264.214 173.969 264.26 173.969 264.307 173.969C264.458 173.969 264.557 173.917 264.703 173.87C264.948 173.818 265.146 173.818 265.391 173.719C265.438 173.719 265.49 173.672 265.49 173.672C265.635 173.625 265.734 173.526 265.833 173.474C265.932 173.427 266.031 173.375 266.125 173.281C266.224 173.182 266.375 173.13 266.474 173.083C266.521 173.031 266.521 173.031 266.521 172.984C266.62 172.885 266.667 172.839 266.719 172.74C266.766 172.688 266.818 172.688 266.865 172.641C268.042 170.969 296.344 132.797 353.63 160.604L358.594 176.667C301.109 152.74 280.031 172.984 275.167 179.224Z" fill="#442F19"/>
</g>
</svg>
