<svg width="250" height="350" viewBox="0 0 250 350" fill="none" xmlns="http://www.w3.org/2000/svg">
<mask id="mask0_47_13842" style="mask-type:luminance" maskUnits="userSpaceOnUse" x="132" y="170" width="110" height="95">
<path d="M132.333 170.667H241.667V264H132.333V170.667Z" fill="white"/>
</mask>
<g mask="url(#mask0_47_13842)">
<mask id="mask1_47_13842" style="mask-type:luminance" maskUnits="userSpaceOnUse" x="124" y="163" width="126" height="109">
<path d="M124.906 238.531L224.875 163.49L249.49 196.276L149.521 271.318L124.906 238.531Z" fill="white"/>
</mask>
<g mask="url(#mask1_47_13842)">
<mask id="mask2_47_13842" style="mask-type:luminance" maskUnits="userSpaceOnUse" x="124" y="163" width="126" height="109">
<path d="M224.917 163.458L124.948 238.5L149.557 271.292L249.526 196.25L224.917 163.458Z" fill="white"/>
</mask>
<g mask="url(#mask2_47_13842)">
<path d="M165.891 258.906L233.037 208.505C242.021 201.76 243.839 189.005 237.094 180.016C230.349 171.031 217.594 169.219 208.61 175.963L141.464 226.365C132.479 233.109 130.662 245.865 137.406 254.849C144.151 263.833 156.906 265.651 165.891 258.906Z" fill="#604428"/>
<path d="M166.011 259.068L233.156 208.661C242.224 201.859 244.058 188.964 237.255 179.901C230.448 170.833 217.558 169 208.49 175.802L141.344 226.208C132.281 233.01 130.443 245.906 137.25 254.969C144.052 264.031 156.948 265.87 166.011 259.068ZM208.729 176.12C217.62 169.448 230.266 171.25 236.938 180.135C243.61 189.026 241.808 201.672 232.917 208.344L165.771 258.75C156.88 265.422 144.24 263.62 137.568 254.729C130.891 245.839 132.693 233.198 141.584 226.526L208.729 176.12Z" fill="#604428"/>
</g>
</g>
</g>
<mask id="mask3_47_13842" style="mask-type:luminance" maskUnits="userSpaceOnUse" x="113" y="125" width="132" height="110">
<path d="M113.667 125.333H244.333V234.667H113.667V125.333Z" fill="white"/>
</mask>
<g mask="url(#mask3_47_13842)">
<mask id="mask4_47_13842" style="mask-type:luminance" maskUnits="userSpaceOnUse" x="104" y="116" width="150" height="129">
<path d="M104.953 205.594L224.115 116.141L253.531 155.328L134.37 244.781L104.953 205.594Z" fill="white"/>
</mask>
<g mask="url(#mask4_47_13842)">
<mask id="mask5_47_13842" style="mask-type:luminance" maskUnits="userSpaceOnUse" x="104" y="116" width="150" height="130">
<path d="M223.802 116.375L104.641 205.828L134.057 245.016L253.219 155.562L223.802 116.375Z" fill="white"/>
</mask>
<g mask="url(#mask5_47_13842)">
<path d="M153.656 229.802L233.453 169.901C244.13 161.885 246.292 146.729 238.276 136.047C230.26 125.37 215.099 123.214 204.422 131.229L124.625 191.13C113.948 199.146 111.786 214.302 119.802 224.979C127.818 235.661 142.979 237.818 153.656 229.802Z" fill="#604428"/>
</g>
</g>
</g>
<mask id="mask6_47_13842" style="mask-type:luminance" maskUnits="userSpaceOnUse" x="113" y="125" width="132" height="111">
<path d="M113.667 125.333H244.333V236H113.667V125.333Z" fill="white"/>
</mask>
<g mask="url(#mask6_47_13842)">
<mask id="mask7_47_13842" style="mask-type:luminance" maskUnits="userSpaceOnUse" x="104" y="116" width="150" height="129">
<path d="M104.953 205.594L224.115 116.141L253.531 155.328L134.37 244.781L104.953 205.594Z" fill="white"/>
</mask>
<g mask="url(#mask7_47_13842)">
<mask id="mask8_47_13842" style="mask-type:luminance" maskUnits="userSpaceOnUse" x="104" y="116" width="150" height="130">
<path d="M223.802 116.375L104.641 205.828L134.057 245.016L253.219 155.562L223.802 116.375Z" fill="white"/>
</mask>
<g mask="url(#mask8_47_13842)">
<path d="M153.797 229.99L233.594 170.089C244.37 162.005 246.552 146.677 238.464 135.906C230.38 125.135 215.052 122.953 204.281 131.042L124.484 190.943C113.708 199.026 111.526 214.349 119.615 225.125C127.698 235.896 143.026 238.078 153.797 229.99ZM204.563 131.417C215.13 123.484 230.156 125.625 238.089 136.193C246.016 146.755 243.875 161.781 233.313 169.714L153.51 229.615C142.948 237.547 127.922 235.406 119.99 224.839C112.063 214.276 114.203 199.25 124.766 191.318L204.563 131.417Z" fill="#604428"/>
</g>
</g>
</g>
<mask id="mask9_47_13842" style="mask-type:luminance" maskUnits="userSpaceOnUse" x="119" y="82" width="131" height="110">
<path d="M119 82.6666H249.667V192H119V82.6666Z" fill="white"/>
</mask>
<g mask="url(#mask9_47_13842)">
<mask id="mask10_47_13842" style="mask-type:luminance" maskUnits="userSpaceOnUse" x="110" y="72" width="149" height="130">
<path d="M110.224 162.406L229.385 72.9583L258.802 112.146L139.641 201.594L110.224 162.406Z" fill="white"/>
</mask>
<g mask="url(#mask10_47_13842)">
<mask id="mask11_47_13842" style="mask-type:luminance" maskUnits="userSpaceOnUse" x="109" y="73" width="150" height="129">
<path d="M229.073 73.1926L109.911 162.641L139.328 201.833L258.49 112.38L229.073 73.1926Z" fill="white"/>
</mask>
<g mask="url(#mask11_47_13842)">
<path d="M158.922 186.62L238.724 126.719C249.401 118.703 251.562 103.542 243.547 92.8646C235.531 82.1875 220.37 80.0313 209.693 88.0469L129.896 147.948C119.219 155.964 117.057 171.12 125.073 181.797C133.088 192.474 148.245 194.635 158.922 186.62Z" fill="#604428"/>
<path d="M159.068 186.807L238.864 126.906C249.635 118.823 251.818 103.495 243.734 92.7239C235.646 81.9531 220.323 79.7708 209.552 87.8541L129.75 147.755C118.979 155.844 116.797 171.167 124.885 181.937C132.969 192.714 148.291 194.896 159.068 186.807ZM209.833 88.2343C220.401 80.302 235.427 82.4427 243.354 93.0104C251.286 103.573 249.146 118.599 238.583 126.531L158.781 186.432C148.219 194.359 133.193 192.219 125.26 181.656C117.328 171.094 119.469 156.068 130.036 148.135L209.833 88.2343Z" fill="#604428"/>
</g>
</g>
</g>
<mask id="mask12_47_13842" style="mask-type:luminance" maskUnits="userSpaceOnUse" x="148" y="258" width="27" height="59">
<path d="M148.333 258.667H175V316H148.333V258.667Z" fill="white"/>
</mask>
<g mask="url(#mask12_47_13842)">
<mask id="mask13_47_13842" style="mask-type:luminance" maskUnits="userSpaceOnUse" x="148" y="258" width="27" height="59">
<path d="M167.375 316.662L148.057 260.912L155.62 258.292L174.937 314.042L167.375 316.662Z" fill="white"/>
</mask>
<g mask="url(#mask13_47_13842)">
<mask id="mask14_47_13842" style="mask-type:luminance" maskUnits="userSpaceOnUse" x="148" y="258" width="27" height="59">
<path d="M167.375 316.662L148.057 260.912L155.62 258.292L174.937 314.042L167.375 316.662Z" fill="white"/>
</mask>
<g mask="url(#mask14_47_13842)">
<path d="M149.484 264.974L150.87 268.974L150.88 268.969L164.635 308.656H164.62L166.005 312.656C166.771 314.859 169.187 316.031 171.39 315.271C173.593 314.505 174.765 312.089 174 309.885L157.479 262.208C156.718 260 154.312 258.828 152.109 259.589C149.906 260.354 148.724 262.771 149.484 264.974Z" fill="#FCD590"/>
</g>
</g>
</g>
<mask id="mask15_47_13842" style="mask-type:luminance" maskUnits="userSpaceOnUse" x="163" y="296" width="8" height="18">
<path d="M163 296H171V313.333H163V296Z" fill="white"/>
</mask>
<g mask="url(#mask15_47_13842)">
<mask id="mask16_47_13842" style="mask-type:luminance" maskUnits="userSpaceOnUse" x="148" y="258" width="27" height="59">
<path d="M167.375 316.662L148.057 260.912L155.62 258.292L174.938 314.042L167.375 316.662Z" fill="white"/>
</mask>
<g mask="url(#mask16_47_13842)">
<mask id="mask17_47_13842" style="mask-type:luminance" maskUnits="userSpaceOnUse" x="148" y="258" width="27" height="59">
<path d="M167.375 316.662L148.057 260.912L155.62 258.292L174.938 314.042L167.375 316.662Z" fill="white"/>
</mask>
<g mask="url(#mask17_47_13842)">
<path d="M163.198 298.104L168 311.964C168.193 312.521 168.792 312.813 169.349 312.62C169.906 312.427 170.198 311.828 170.005 311.271L168.62 307.276H168.61L165.193 297.422C165 296.865 164.401 296.573 163.844 296.766C163.287 296.964 163.011 297.557 163.198 298.104Z" fill="#FCD590"/>
</g>
</g>
</g>
<mask id="mask18_47_13842" style="mask-type:luminance" maskUnits="userSpaceOnUse" x="69" y="270" width="21" height="61">
<path d="M69.6667 270.667H89.6667V330.667H69.6667V270.667Z" fill="white"/>
</mask>
<g mask="url(#mask18_47_13842)">
<mask id="mask19_47_13842" style="mask-type:luminance" maskUnits="userSpaceOnUse" x="69" y="271" width="21" height="60">
<path d="M69.7292 328.938L81.3334 271.089L89.1772 272.662L77.573 330.51L69.7292 328.938Z" fill="white"/>
</mask>
<g mask="url(#mask19_47_13842)">
<mask id="mask20_47_13842" style="mask-type:luminance" maskUnits="userSpaceOnUse" x="69" y="271" width="21" height="60">
<path d="M69.7292 328.938L81.3334 271.089L89.1772 272.662L77.573 330.51L69.7292 328.938Z" fill="white"/>
</mask>
<g mask="url(#mask20_47_13842)">
<path d="M80.5053 275.318L79.672 279.464H79.6824L71.422 320.646L71.4116 320.641L70.5782 324.792C70.1199 327.078 71.6095 329.313 73.8959 329.771C76.1824 330.229 78.4168 328.745 78.8751 326.453L88.8022 276.979C89.2605 274.693 87.7866 272.464 85.4949 272C83.2084 271.542 80.9636 273.026 80.5053 275.318Z" fill="#FCD590"/>
</g>
</g>
</g>
<mask id="mask21_47_13842" style="mask-type:luminance" maskUnits="userSpaceOnUse" x="72" y="309" width="6" height="18">
<path d="M72.3333 309.333H77.6666V326.667H72.3333V309.333Z" fill="white"/>
</mask>
<g mask="url(#mask21_47_13842)">
<mask id="mask22_47_13842" style="mask-type:luminance" maskUnits="userSpaceOnUse" x="69" y="271" width="21" height="60">
<path d="M69.729 328.938L81.3332 271.089L89.1769 272.662L77.5728 330.51L69.729 328.938Z" fill="white"/>
</mask>
<g mask="url(#mask22_47_13842)">
<mask id="mask23_47_13842" style="mask-type:luminance" maskUnits="userSpaceOnUse" x="69" y="271" width="21" height="60">
<path d="M69.729 328.938L81.3332 271.089L89.1769 272.662L77.5728 330.51L69.729 328.938Z" fill="white"/>
</mask>
<g mask="url(#mask23_47_13842)">
<path d="M75.531 310.823L72.6456 325.203C72.531 325.781 72.9008 326.339 73.4789 326.453C74.057 326.568 74.6091 326.198 74.7289 325.625L75.5622 321.474H75.5466L77.5987 311.245C77.7133 310.672 77.3435 310.115 76.7706 310C76.1924 309.88 75.6456 310.255 75.531 310.823Z" fill="#FCD590"/>
</g>
</g>
</g>
<mask id="mask24_47_13842" style="mask-type:luminance" maskUnits="userSpaceOnUse" x="51" y="302" width="35" height="48">
<path d="M51 302.667H85.6667V349.333H51V302.667Z" fill="white"/>
</mask>
<g mask="url(#mask24_47_13842)">
<mask id="mask25_47_13842" style="mask-type:luminance" maskUnits="userSpaceOnUse" x="50" y="302" width="38" height="48">
<path d="M80.6093 349.938L50.0833 306.609L56.6249 302.005L87.1458 345.333L80.6093 349.938Z" fill="white"/>
</mask>
<g mask="url(#mask25_47_13842)">
<mask id="mask26_47_13842" style="mask-type:luminance" maskUnits="userSpaceOnUse" x="50" y="302" width="38" height="48">
<path d="M80.6093 349.938L50.0833 306.609L56.6249 302.005L87.1458 345.333L80.6093 349.938Z" fill="white"/>
</mask>
<g mask="url(#mask26_47_13842)">
<path d="M52.3542 309.807L54.5364 312.911L54.5469 312.906L76.2552 343.719L76.2448 343.724L78.4323 346.828C79.6354 348.542 82.0104 348.953 83.7239 347.745C85.4323 346.536 85.8437 344.167 84.6406 342.453L58.5573 305.437C57.3542 303.724 54.9896 303.307 53.276 304.516C51.5677 305.719 51.1458 308.099 52.3542 309.807Z" fill="#FCD590"/>
</g>
</g>
</g>
<mask id="mask27_47_13842" style="mask-type:luminance" maskUnits="userSpaceOnUse" x="71" y="333" width="12" height="14">
<path d="M71 333.333H83V346.667H71V333.333Z" fill="white"/>
</mask>
<g mask="url(#mask27_47_13842)">
<mask id="mask28_47_13842" style="mask-type:luminance" maskUnits="userSpaceOnUse" x="50" y="302" width="38" height="48">
<path d="M80.6093 349.938L50.0833 306.609L56.6249 302.005L87.1458 345.333L80.6093 349.938Z" fill="white"/>
</mask>
<g mask="url(#mask28_47_13842)">
<mask id="mask29_47_13842" style="mask-type:luminance" maskUnits="userSpaceOnUse" x="50" y="302" width="38" height="48">
<path d="M80.6093 349.938L50.0833 306.609L56.6249 302.005L87.1458 345.333L80.6093 349.938Z" fill="white"/>
</mask>
<g mask="url(#mask29_47_13842)">
<path d="M72.3958 334.974L79.9792 345.74C80.2812 346.172 80.875 346.271 81.3073 345.969C81.7396 345.662 81.8385 345.073 81.5364 344.641L79.3489 341.537L79.3385 341.542L73.9479 333.891C73.6458 333.458 73.0573 333.359 72.625 333.662C72.1927 333.969 72.0989 334.552 72.3958 334.974Z" fill="#FCD590"/>
</g>
</g>
</g>
<mask id="mask30_47_13842" style="mask-type:luminance" maskUnits="userSpaceOnUse" x="40" y="324" width="55" height="11">
<path d="M40.3333 324H94.9999V334.667H40.3333V324Z" fill="white"/>
</mask>
<g mask="url(#mask30_47_13842)">
<mask id="mask31_47_13842" style="mask-type:luminance" maskUnits="userSpaceOnUse" x="41" y="324" width="54" height="10">
<path d="M94.3853 332.469L41.3958 333.495L41.2395 325.5L94.2343 324.469L94.3853 332.469Z" fill="white"/>
</mask>
<g mask="url(#mask31_47_13842)">
<mask id="mask32_47_13842" style="mask-type:luminance" maskUnits="userSpaceOnUse" x="41" y="324" width="54" height="10">
<path d="M94.3853 332.469L41.3958 333.495L41.2395 325.5L94.2343 324.469L94.3853 332.469Z" fill="white"/>
</mask>
<g mask="url(#mask32_47_13842)">
<path d="M45.3176 333.406L49.1145 333.333V333.323L86.7967 332.594V332.604L90.5936 332.526C92.6822 332.49 94.354 330.75 94.3124 328.661C94.2707 326.568 92.5363 324.896 90.4426 324.938L45.1717 325.818C43.078 325.854 41.4061 327.578 41.4478 329.672C41.4895 331.766 43.2238 333.448 45.3176 333.406Z" fill="#FCD590"/>
</g>
</g>
</g>
<mask id="mask33_47_13842" style="mask-type:luminance" maskUnits="userSpaceOnUse" x="76" y="328" width="17" height="4">
<path d="M76.3333 328H92.3333V332H76.3333V328Z" fill="white"/>
</mask>
<g mask="url(#mask33_47_13842)">
<mask id="mask34_47_13842" style="mask-type:luminance" maskUnits="userSpaceOnUse" x="41" y="324" width="54" height="10">
<path d="M94.3853 332.469L41.3958 333.495L41.2395 325.5L94.2343 324.469L94.3853 332.469Z" fill="white"/>
</mask>
<g mask="url(#mask34_47_13842)">
<mask id="mask35_47_13842" style="mask-type:luminance" maskUnits="userSpaceOnUse" x="41" y="324" width="54" height="10">
<path d="M94.3853 332.469L41.3958 333.495L41.2395 325.5L94.2343 324.469L94.3853 332.469Z" fill="white"/>
</mask>
<g mask="url(#mask35_47_13842)">
<path d="M77.3907 330.891L90.5521 330.635C91.0834 330.625 91.5 330.193 91.4896 329.667C91.4792 329.135 91.0469 328.724 90.5157 328.734L86.724 328.807V328.818L77.3646 329C76.8386 329.01 76.4219 329.437 76.4323 329.969C76.4427 330.495 76.875 330.901 77.3907 330.891Z" fill="#FCD590"/>
</g>
</g>
</g>
<mask id="mask36_47_13842" style="mask-type:luminance" maskUnits="userSpaceOnUse" x="151" y="301" width="51" height="29">
<path d="M151 301.333H201.667V329.333H151V301.333Z" fill="white"/>
</mask>
<g mask="url(#mask36_47_13842)">
<mask id="mask37_47_13842" style="mask-type:luminance" maskUnits="userSpaceOnUse" x="150" y="301" width="52" height="30">
<path d="M153.474 301.203L201.745 323.083L198.443 330.37L150.172 308.49L153.474 301.203Z" fill="white"/>
</mask>
<g mask="url(#mask37_47_13842)">
<mask id="mask38_47_13842" style="mask-type:luminance" maskUnits="userSpaceOnUse" x="150" y="301" width="52" height="30">
<path d="M201.63 323.031L153.359 301.151L150.057 308.438L198.328 330.318L201.63 323.031Z" fill="white"/>
</mask>
<g mask="url(#mask38_47_13842)">
<path d="M156.922 302.781L160.38 304.349V304.359L194.708 319.917V319.906L198.167 321.474C200.073 322.339 200.922 324.594 200.057 326.5C199.193 328.406 196.943 329.255 195.036 328.391L153.792 309.698C151.88 308.833 151.031 306.589 151.896 304.682C152.76 302.776 155.016 301.917 156.922 302.781Z" fill="#FCD590"/>
</g>
</g>
</g>
<mask id="mask39_47_13842" style="mask-type:luminance" maskUnits="userSpaceOnUse" x="183" y="317" width="16" height="9">
<path d="M183 317.333H199V325.333H183V317.333Z" fill="white"/>
</mask>
<g mask="url(#mask39_47_13842)">
<mask id="mask40_47_13842" style="mask-type:luminance" maskUnits="userSpaceOnUse" x="150" y="301" width="52" height="30">
<path d="M153.474 301.203L201.745 323.083L198.443 330.37L150.172 308.49L153.474 301.203Z" fill="white"/>
</mask>
<g mask="url(#mask40_47_13842)">
<mask id="mask41_47_13842" style="mask-type:luminance" maskUnits="userSpaceOnUse" x="150" y="301" width="52" height="30">
<path d="M201.63 323.031L153.359 301.151L150.057 308.438L198.328 330.318L201.63 323.031Z" fill="white"/>
</mask>
<g mask="url(#mask41_47_13842)">
<path d="M185.396 317.766L197.386 323.198C197.87 323.417 198.078 323.979 197.86 324.458C197.641 324.943 197.084 325.151 196.599 324.932L193.146 323.365V323.354L184.625 319.495C184.141 319.276 183.932 318.714 184.151 318.234C184.37 317.75 184.922 317.552 185.396 317.766Z" fill="#FCD590"/>
</g>
</g>
</g>
<mask id="mask42_47_13842" style="mask-type:luminance" maskUnits="userSpaceOnUse" x="151" y="296" width="48" height="34">
<path d="M151 296H199V329.333H151V296Z" fill="white"/>
</mask>
<g mask="url(#mask42_47_13842)">
<mask id="mask43_47_13842" style="mask-type:luminance" maskUnits="userSpaceOnUse" x="150" y="295" width="50" height="36">
<path d="M150.448 323.25L195.604 295.505L199.792 302.323L154.635 330.063L150.448 323.25Z" fill="white"/>
</mask>
<g mask="url(#mask43_47_13842)">
<mask id="mask44_47_13842" style="mask-type:luminance" maskUnits="userSpaceOnUse" x="150" y="295" width="50" height="36">
<path d="M195.5 295.568L150.344 323.313L154.531 330.13L199.688 302.385L195.5 295.568Z" fill="white"/>
</mask>
<g mask="url(#mask44_47_13842)">
<path d="M153.688 321.271L156.927 319.287L156.932 319.297L189.042 299.563L189.037 299.557L192.271 297.568C194.057 296.474 196.396 297.031 197.495 298.818C198.589 300.599 198.031 302.943 196.245 304.037L157.667 327.745C155.88 328.839 153.547 328.287 152.448 326.505C151.354 324.719 151.906 322.37 153.688 321.271Z" fill="#FCD590"/>
</g>
</g>
</g>
<mask id="mask45_47_13842" style="mask-type:luminance" maskUnits="userSpaceOnUse" x="180" y="298" width="15" height="11">
<path d="M180.333 298.667H195V308H180.333V298.667Z" fill="white"/>
</mask>
<g mask="url(#mask45_47_13842)">
<mask id="mask46_47_13842" style="mask-type:luminance" maskUnits="userSpaceOnUse" x="150" y="295" width="50" height="36">
<path d="M150.448 323.25L195.604 295.505L199.792 302.323L154.635 330.063L150.448 323.25Z" fill="white"/>
</mask>
<g mask="url(#mask46_47_13842)">
<mask id="mask47_47_13842" style="mask-type:luminance" maskUnits="userSpaceOnUse" x="150" y="295" width="50" height="36">
<path d="M195.5 295.568L150.344 323.313L154.531 330.13L199.687 302.385L195.5 295.568Z" fill="white"/>
</mask>
<g mask="url(#mask47_47_13842)">
<path d="M182.047 306.073L193.26 299.182C193.713 298.906 194.297 299.042 194.573 299.495C194.849 299.943 194.708 300.526 194.26 300.802L191.026 302.792L191.021 302.781L183.047 307.682C182.594 307.958 182.01 307.818 181.734 307.37C181.458 306.917 181.604 306.344 182.047 306.073Z" fill="#FCD590"/>
</g>
</g>
</g>
<mask id="mask48_47_13842" style="mask-type:luminance" maskUnits="userSpaceOnUse" x="51" y="0" width="59" height="59">
<path d="M51 0H109.667V58.6667H51V0Z" fill="white"/>
</mask>
<g mask="url(#mask48_47_13842)">
<mask id="mask49_47_13842" style="mask-type:luminance" maskUnits="userSpaceOnUse" x="41" y="-10" width="85" height="85">
<path d="M125.375 41.5208L92.849 74.0469L41.9375 23.1354L74.4635 -9.39062L125.375 41.5208Z" fill="white"/>
</mask>
<g mask="url(#mask49_47_13842)">
<mask id="mask50_47_13842" style="mask-type:luminance" maskUnits="userSpaceOnUse" x="41" y="-10" width="85" height="85">
<path d="M125.375 41.5208L92.849 74.0469L41.9375 23.1354L74.4635 -9.39062L125.375 41.5208Z" fill="white"/>
</mask>
<g mask="url(#mask50_47_13842)">
<path d="M77.3959 49.1875L109.162 57.7344L100.62 25.9636C99.5417 21.5469 95.7969 11.9531 92.2657 8.4271C82.6198 -1.22394 67.5469 -1.78644 58.5938 7.16668C49.6407 16.1198 50.2032 31.1927 59.8542 40.8438C63.3803 44.3698 72.9792 48.1094 77.3959 49.1875Z" fill="#442F19"/>
</g>
</g>
</g>
<mask id="mask51_47_13842" style="mask-type:luminance" maskUnits="userSpaceOnUse" x="115" y="0" width="58" height="59">
<path d="M115 0H172.333V58.6667H115V0Z" fill="white"/>
</mask>
<g mask="url(#mask51_47_13842)">
<mask id="mask52_47_13842" style="mask-type:luminance" maskUnits="userSpaceOnUse" x="98" y="-10" width="85" height="84">
<path d="M131.333 73.9479L98.802 41.4218L149.713 -9.48962L182.245 23.0364L131.333 73.9479Z" fill="white"/>
</mask>
<g mask="url(#mask52_47_13842)">
<mask id="mask53_47_13842" style="mask-type:luminance" maskUnits="userSpaceOnUse" x="98" y="-10" width="85" height="85">
<path d="M98.9009 41.5208L131.432 74.0469L182.344 23.1354L149.818 -9.39062L98.9009 41.5208Z" fill="white"/>
</mask>
<g mask="url(#mask53_47_13842)">
<path d="M146.885 49.1875L115.115 57.7344L123.661 25.9636C124.74 21.5469 128.484 11.9531 132.01 8.4271C141.661 -1.22394 156.734 -1.78644 165.682 7.16668C174.635 16.1198 174.078 31.1927 164.427 40.8438C160.901 44.3698 151.302 48.1094 146.885 49.1875Z" fill="#442F19"/>
</g>
</g>
</g>
<mask id="mask54_47_13842" style="mask-type:luminance" maskUnits="userSpaceOnUse" x="24" y="110" width="178" height="178">
<path d="M24.2761 110.896H201.276V287.896H24.2761V110.896Z" fill="white"/>
</mask>
<g mask="url(#mask54_47_13842)">
<path d="M200.917 199.219C200.917 200.661 200.885 202.109 200.813 203.552C200.74 204.995 200.635 206.438 200.495 207.875C200.354 209.313 200.177 210.75 199.964 212.177C199.75 213.609 199.505 215.031 199.224 216.448C198.938 217.865 198.625 219.276 198.271 220.677C197.922 222.078 197.537 223.474 197.115 224.854C196.698 226.24 196.245 227.609 195.755 228.974C195.271 230.333 194.75 231.682 194.198 233.016C193.641 234.354 193.057 235.672 192.438 236.979C191.823 238.287 191.172 239.578 190.49 240.854C189.807 242.125 189.099 243.385 188.354 244.625C187.609 245.865 186.839 247.083 186.037 248.286C185.229 249.49 184.401 250.672 183.537 251.828C182.677 252.99 181.787 254.13 180.87 255.25C179.953 256.365 179.01 257.458 178.042 258.531C177.068 259.599 176.073 260.646 175.052 261.672C174.026 262.693 172.984 263.688 171.912 264.661C170.839 265.63 169.745 266.573 168.63 267.49C167.51 268.406 166.37 269.297 165.208 270.156C164.052 271.021 162.87 271.849 161.667 272.656C160.464 273.458 159.245 274.229 158.005 274.974C156.766 275.719 155.505 276.427 154.234 277.109C152.958 277.792 151.667 278.443 150.359 279.057C149.052 279.677 147.734 280.26 146.396 280.818C145.063 281.37 143.714 281.891 142.354 282.375C140.99 282.865 139.62 283.318 138.234 283.734C136.854 284.156 135.458 284.542 134.057 284.891C132.656 285.245 131.245 285.557 129.828 285.844C128.412 286.125 126.99 286.37 125.557 286.583C124.13 286.797 122.693 286.974 121.255 287.115C119.818 287.255 118.375 287.359 116.932 287.432C115.49 287.505 114.042 287.536 112.599 287.536C111.151 287.536 109.708 287.505 108.266 287.432C106.823 287.359 105.38 287.255 103.943 287.115C102.505 286.974 101.068 286.797 99.6407 286.583C98.2084 286.37 96.7865 286.125 95.3699 285.844C93.948 285.557 92.5417 285.245 91.1407 284.891C89.7345 284.542 88.3438 284.156 86.9584 283.734C85.5782 283.318 84.2032 282.865 82.8438 282.375C81.4845 281.891 80.1355 281.37 78.8022 280.818C77.4636 280.26 76.1459 279.677 74.8386 279.057C73.5313 278.443 72.2397 277.792 70.9636 277.109C69.6876 276.427 68.4324 275.719 67.1928 274.974C65.9532 274.229 64.7345 273.458 63.5313 272.656C62.3282 271.849 61.1459 271.021 59.9845 270.156C58.823 269.297 57.6876 268.406 56.5678 267.49C55.4532 266.573 54.3595 265.63 53.2865 264.661C52.2136 263.688 51.1667 262.693 50.1459 261.672C49.1251 260.646 48.1303 259.599 47.1563 258.531C46.1876 257.458 45.2449 256.365 44.3282 255.25C43.4115 254.13 42.5209 252.99 41.6615 251.828C40.797 250.672 39.9636 249.49 39.1615 248.286C38.3595 247.083 37.5886 245.865 36.8438 244.625C36.099 243.385 35.3907 242.125 34.7084 240.854C34.0261 239.578 33.3751 238.287 32.7605 236.979C32.1407 235.672 31.5522 234.354 31.0001 233.016C30.448 231.682 29.9272 230.333 29.4428 228.974C28.9532 227.609 28.5001 226.24 28.0834 224.854C27.6615 223.474 27.2761 222.078 26.9272 220.677C26.573 219.276 26.2553 217.865 25.974 216.448C25.6928 215.031 25.448 213.609 25.2345 212.177C25.0209 210.75 24.8438 209.313 24.7032 207.875C24.5626 206.438 24.4532 204.995 24.3855 203.552C24.3126 202.109 24.2761 200.661 24.2761 199.219C24.2761 197.771 24.3126 196.328 24.3855 194.885C24.4532 193.443 24.5626 192 24.7032 190.563C24.8438 189.125 25.0209 187.688 25.2345 186.26C25.448 184.828 25.6928 183.406 25.974 181.99C26.2553 180.568 26.573 179.161 26.9272 177.76C27.2761 176.354 27.6615 174.964 28.0834 173.578C28.5001 172.198 28.9532 170.823 29.4428 169.464C29.9272 168.104 30.448 166.755 31.0001 165.422C31.5522 164.083 32.1407 162.766 32.7605 161.458C33.3751 160.151 34.0261 158.859 34.7084 157.583C35.3907 156.307 36.099 155.052 36.8438 153.813C37.5886 152.573 38.3595 151.354 39.1615 150.151C39.9636 148.948 40.797 147.766 41.6615 146.604C42.5209 145.443 43.4115 144.307 44.3282 143.188C45.2449 142.073 46.1876 140.979 47.1563 139.906C48.1303 138.833 49.1251 137.786 50.1459 136.766C51.1667 135.745 52.2136 134.75 53.2865 133.776C54.3595 132.807 55.4532 131.865 56.5678 130.948C57.6876 130.031 58.823 129.141 59.9845 128.281C61.1459 127.417 62.3282 126.583 63.5313 125.781C64.7345 124.979 65.9532 124.208 67.1928 123.464C68.4324 122.719 69.6876 122.01 70.9636 121.328C72.2397 120.646 73.5313 119.995 74.8386 119.38C76.1459 118.76 77.4636 118.172 78.8022 117.62C80.1355 117.068 81.4845 116.547 82.8438 116.063C84.2032 115.573 85.5782 115.12 86.9584 114.703C88.3438 114.281 89.7345 113.896 91.1407 113.547C92.5417 113.193 93.948 112.875 95.3699 112.594C96.7865 112.313 98.2084 112.068 99.6407 111.854C101.068 111.641 102.505 111.464 103.943 111.323C105.38 111.182 106.823 111.073 108.266 111.005C109.708 110.932 111.151 110.896 112.599 110.896C114.042 110.896 115.49 110.932 116.932 111.005C118.375 111.073 119.818 111.182 121.255 111.323C122.693 111.464 124.13 111.641 125.557 111.854C126.99 112.068 128.412 112.313 129.828 112.594C131.245 112.875 132.656 113.193 134.057 113.547C135.458 113.896 136.854 114.281 138.234 114.703C139.62 115.12 140.99 115.573 142.354 116.063C143.714 116.547 145.063 117.068 146.396 117.62C147.734 118.172 149.052 118.76 150.359 119.38C151.667 119.995 152.958 120.646 154.234 121.328C155.505 122.01 156.766 122.719 158.005 123.464C159.245 124.208 160.464 124.979 161.667 125.781C162.87 126.583 164.052 127.417 165.208 128.281C166.37 129.141 167.51 130.031 168.63 130.948C169.745 131.865 170.839 132.807 171.912 133.776C172.984 134.75 174.026 135.745 175.052 136.766C176.073 137.786 177.068 138.833 178.042 139.906C179.01 140.979 179.953 142.073 180.87 143.188C181.787 144.307 182.677 145.443 183.537 146.604C184.401 147.766 185.229 148.948 186.037 150.151C186.839 151.354 187.609 152.573 188.354 153.813C189.099 155.052 189.807 156.307 190.49 157.583C191.172 158.859 191.823 160.151 192.438 161.458C193.057 162.766 193.641 164.083 194.198 165.422C194.75 166.755 195.271 168.104 195.755 169.464C196.245 170.823 196.698 172.198 197.115 173.578C197.537 174.964 197.922 176.354 198.271 177.76C198.625 179.161 198.938 180.568 199.224 181.99C199.505 183.406 199.75 184.828 199.964 186.26C200.177 187.688 200.354 189.125 200.495 190.563C200.635 192 200.74 193.443 200.813 194.885C200.885 196.328 200.917 197.771 200.917 199.219Z" fill="#442F19"/>
</g>
<mask id="mask55_47_13842" style="mask-type:luminance" maskUnits="userSpaceOnUse" x="24" y="51" width="178" height="177">
<path d="M24.2761 51.3385H201.276V228H24.2761V51.3385Z" fill="white"/>
</mask>
<g mask="url(#mask55_47_13842)">
<path d="M200.917 139.656C200.917 141.104 200.885 142.547 200.813 143.99C200.74 145.437 200.635 146.875 200.495 148.312C200.354 149.755 200.177 151.187 199.964 152.62C199.75 154.047 199.505 155.469 199.224 156.891C198.938 158.307 198.625 159.714 198.271 161.12C197.922 162.521 197.537 163.911 197.115 165.297C196.698 166.677 196.245 168.052 195.755 169.411C195.271 170.771 194.75 172.12 194.198 173.458C193.641 174.792 193.057 176.115 192.438 177.422C191.823 178.724 191.172 180.016 190.49 181.292C189.807 182.568 189.099 183.823 188.354 185.062C187.609 186.302 186.839 187.526 186.037 188.724C185.229 189.927 184.401 191.109 183.537 192.271C182.677 193.432 181.787 194.573 180.87 195.687C179.953 196.807 179.01 197.901 178.042 198.969C177.068 200.042 176.073 201.089 175.052 202.109C174.026 203.13 172.984 204.13 171.912 205.099C170.839 206.068 169.745 207.016 168.63 207.932C167.51 208.849 166.37 209.734 165.208 210.599C164.052 211.458 162.87 212.292 161.667 213.094C160.464 213.896 159.245 214.672 158.005 215.411C156.766 216.156 155.505 216.87 154.234 217.552C152.958 218.229 151.667 218.88 150.359 219.5C149.052 220.115 147.734 220.703 146.396 221.255C145.063 221.807 143.714 222.328 142.354 222.818C140.99 223.302 139.62 223.755 138.234 224.177C136.854 224.594 135.458 224.979 134.057 225.333C132.656 225.682 131.245 226 129.828 226.281C128.412 226.562 126.99 226.812 125.557 227.021C124.13 227.234 122.693 227.411 121.255 227.552C119.818 227.693 118.375 227.802 116.932 227.87C115.49 227.943 114.042 227.979 112.599 227.979C111.151 227.979 109.708 227.943 108.266 227.87C106.823 227.802 105.38 227.693 103.943 227.552C102.505 227.411 101.068 227.234 99.6407 227.021C98.2084 226.812 96.7865 226.562 95.3699 226.281C93.948 226 92.5417 225.682 91.1407 225.333C89.7345 224.979 88.3438 224.594 86.9584 224.177C85.5782 223.755 84.2032 223.302 82.8438 222.818C81.4845 222.328 80.1355 221.807 78.8022 221.255C77.4636 220.703 76.1459 220.115 74.8386 219.5C73.5313 218.88 72.2397 218.229 70.9636 217.552C69.6876 216.87 68.4324 216.156 67.1928 215.411C65.9532 214.672 64.7345 213.896 63.5313 213.094C62.3282 212.292 61.1459 211.458 59.9845 210.599C58.823 209.734 57.6876 208.849 56.5678 207.932C55.4532 207.016 54.3595 206.068 53.2865 205.099C52.2136 204.13 51.1667 203.13 50.1459 202.109C49.1251 201.089 48.1303 200.042 47.1563 198.969C46.1876 197.901 45.2449 196.807 44.3282 195.687C43.4115 194.573 42.5209 193.432 41.6615 192.271C40.797 191.109 39.9636 189.927 39.1615 188.724C38.3595 187.526 37.5886 186.302 36.8438 185.062C36.099 183.823 35.3907 182.568 34.7084 181.292C34.0261 180.016 33.3751 178.724 32.7605 177.422C32.1407 176.115 31.5522 174.792 31.0001 173.458C30.448 172.12 29.9272 170.771 29.4428 169.411C28.9532 168.052 28.5001 166.677 28.0834 165.297C27.6615 163.911 27.2761 162.521 26.9272 161.12C26.573 159.714 26.2553 158.307 25.974 156.891C25.6928 155.469 25.448 154.047 25.2345 152.62C25.0209 151.187 24.8438 149.755 24.7032 148.312C24.5626 146.875 24.4532 145.437 24.3855 143.99C24.3126 142.547 24.2761 141.104 24.2761 139.656C24.2761 138.214 24.3126 136.766 24.3855 135.323C24.4532 133.88 24.5626 132.437 24.7032 131C24.8438 129.562 25.0209 128.13 25.2345 126.698C25.448 125.271 25.6928 123.844 25.974 122.427C26.2553 121.01 26.573 119.599 26.9272 118.198C27.2761 116.797 27.6615 115.401 28.0834 114.021C28.5001 112.635 28.9532 111.266 29.4428 109.906C29.9272 108.542 30.448 107.193 31.0001 105.859C31.5522 104.526 32.1407 103.203 32.7605 101.896C33.3751 100.589 34.0261 99.2968 34.7084 98.026C35.3907 96.75 36.099 95.4895 36.8438 94.25C37.5886 93.0104 38.3595 91.7916 39.1615 90.5885C39.9636 89.3854 40.797 88.2083 41.6615 87.0468C42.5209 85.8854 43.4115 84.7448 44.3282 83.6302C45.2449 82.5104 46.1876 81.4166 47.1563 80.3437C48.1303 79.276 49.1251 78.2291 50.1459 77.2083C51.1667 76.1823 52.2136 75.1875 53.2865 74.2187C54.3595 73.2448 55.4532 72.302 56.5678 71.3854C57.6876 70.4687 58.823 69.5781 59.9845 68.7187C61.1459 67.8593 62.3282 67.026 63.5313 66.2239C64.7345 65.4166 65.9532 64.6458 67.1928 63.901C68.4324 63.1614 69.6876 62.4479 70.9636 61.7656C72.2397 61.0833 73.5313 60.4375 74.8386 59.8177C76.1459 59.1979 77.4636 58.6145 78.8022 58.0625C80.1355 57.5052 81.4845 56.9895 82.8438 56.5C84.2032 56.0156 85.5782 55.5625 86.9584 55.1406C88.3438 54.7187 89.7345 54.3333 91.1407 53.9843C92.5417 53.6354 93.948 53.3177 95.3699 53.0364C96.7865 52.7552 98.2084 52.5052 99.6407 52.2916C101.068 52.0833 102.505 51.9062 103.943 51.7604C105.38 51.6198 106.823 51.5156 108.266 51.4427C109.708 51.375 111.151 51.3385 112.599 51.3385C114.042 51.3385 115.49 51.375 116.932 51.4427C118.375 51.5156 119.818 51.6198 121.255 51.7604C122.693 51.9062 124.13 52.0833 125.557 52.2916C126.99 52.5052 128.412 52.7552 129.828 53.0364C131.245 53.3177 132.656 53.6354 134.057 53.9843C135.458 54.3333 136.854 54.7187 138.234 55.1406C139.62 55.5625 140.99 56.0156 142.354 56.5C143.714 56.9895 145.063 57.5052 146.396 58.0625C147.734 58.6145 149.052 59.1979 150.359 59.8177C151.667 60.4375 152.958 61.0833 154.234 61.7656C155.505 62.4479 156.766 63.1614 158.005 63.901C159.245 64.6458 160.464 65.4166 161.667 66.2239C162.87 67.026 164.052 67.8593 165.208 68.7187C166.37 69.5781 167.51 70.4687 168.63 71.3854C169.745 72.302 170.839 73.2448 171.912 74.2187C172.984 75.1875 174.026 76.1823 175.052 77.2083C176.073 78.2291 177.068 79.276 178.042 80.3437C179.01 81.4166 179.953 82.5104 180.87 83.6302C181.787 84.7448 182.677 85.8854 183.537 87.0468C184.401 88.2083 185.229 89.3854 186.037 90.5885C186.839 91.7916 187.609 93.0104 188.354 94.25C189.099 95.4895 189.807 96.75 190.49 98.026C191.172 99.2968 191.823 100.589 192.438 101.896C193.057 103.203 193.641 104.526 194.198 105.859C194.75 107.193 195.271 108.542 195.755 109.906C196.245 111.266 196.698 112.635 197.115 114.021C197.537 115.401 197.922 116.797 198.271 118.198C198.625 119.599 198.938 121.01 199.224 122.427C199.505 123.844 199.75 125.271 199.964 126.698C200.177 128.13 200.354 129.562 200.495 131C200.635 132.437 200.74 133.88 200.813 135.323C200.885 136.766 200.917 138.214 200.917 139.656Z" fill="#EDE0D2"/>
</g>
<mask id="mask56_47_13842" style="mask-type:luminance" maskUnits="userSpaceOnUse" x="118" y="102" width="64" height="64">
<path d="M118.979 102.573H181.677V165.271H118.979V102.573Z" fill="white"/>
</mask>
<g mask="url(#mask56_47_13842)">
<mask id="mask57_47_13842" style="mask-type:luminance" maskUnits="userSpaceOnUse" x="118" y="102" width="64" height="64">
<path d="M150.328 102.573C133.016 102.573 118.979 116.609 118.979 133.922C118.979 151.234 133.016 165.271 150.328 165.271C167.641 165.271 181.677 151.234 181.677 133.922C181.677 116.609 167.641 102.573 150.328 102.573Z" fill="white"/>
</mask>
<g mask="url(#mask57_47_13842)">
<path d="M118.979 102.573H181.677V165.271H118.979V102.573Z" fill="white"/>
</g>
</g>
<mask id="mask58_47_13842" style="mask-type:luminance" maskUnits="userSpaceOnUse" x="39" y="95" width="63" height="64">
<path d="M39.1511 95.8073H101.849V158.5H39.1511V95.8073Z" fill="white"/>
</mask>
<g mask="url(#mask58_47_13842)">
<mask id="mask59_47_13842" style="mask-type:luminance" maskUnits="userSpaceOnUse" x="39" y="95" width="63" height="64">
<path d="M70.5001 95.8073C53.1876 95.8073 39.1511 109.844 39.1511 127.156C39.1511 144.469 53.1876 158.5 70.5001 158.5C87.8126 158.5 101.849 144.469 101.849 127.156C101.849 109.844 87.8126 95.8073 70.5001 95.8073Z" fill="white"/>
</mask>
<g mask="url(#mask59_47_13842)">
<path d="M39.1511 95.8073H101.849V158.5H39.1511V95.8073Z" fill="white"/>
</g>
</g>
<mask id="mask60_47_13842" style="mask-type:luminance" maskUnits="userSpaceOnUse" x="130" y="114" width="40" height="40">
<path d="M130.948 114.542H169.708V153.302H130.948V114.542Z" fill="white"/>
</mask>
<g mask="url(#mask60_47_13842)">
<mask id="mask61_47_13842" style="mask-type:luminance" maskUnits="userSpaceOnUse" x="130" y="114" width="40" height="40">
<path d="M150.328 114.542C139.625 114.542 130.948 123.219 130.948 133.922C130.948 144.625 139.625 153.302 150.328 153.302C161.031 153.302 169.708 144.625 169.708 133.922C169.708 123.219 161.031 114.542 150.328 114.542Z" fill="white"/>
</mask>
<g mask="url(#mask61_47_13842)">
<path d="M130.948 114.542H169.708V153.302H130.948V114.542Z" fill="black"/>
</g>
</g>
<mask id="mask62_47_13842" style="mask-type:luminance" maskUnits="userSpaceOnUse" x="50" y="105" width="40" height="40">
<path d="M50.4583 105.516H89.2239V144.281H50.4583V105.516Z" fill="white"/>
</mask>
<g mask="url(#mask62_47_13842)">
<mask id="mask63_47_13842" style="mask-type:luminance" maskUnits="userSpaceOnUse" x="50" y="105" width="40" height="40">
<path d="M69.8437 105.516C59.1405 105.516 50.4583 114.193 50.4583 124.896C50.4583 135.604 59.1405 144.281 69.8437 144.281C80.5468 144.281 89.2239 135.604 89.2239 124.896C89.2239 114.193 80.5468 105.516 69.8437 105.516Z" fill="white"/>
</mask>
<g mask="url(#mask63_47_13842)">
<path d="M50.4583 105.516H89.2239V144.281H50.4583V105.516Z" fill="black"/>
</g>
</g>
<mask id="mask64_47_13842" style="mask-type:luminance" maskUnits="userSpaceOnUse" x="79" y="232" width="66" height="24">
<path d="M79.9011 232H144.901V255.984H79.9011V232Z" fill="white"/>
</mask>
<g mask="url(#mask64_47_13842)">
<path d="M137.688 245.24C128.823 242.839 122.193 244.865 117.833 247.432C123.792 241.375 132.875 239.385 135.781 238.891L137.688 245.24ZM127.208 232.021L129.708 237.99C124.995 239.453 118.839 242.297 114.672 247.536C117.307 238.365 124.521 233.536 127.208 232.021ZM97.948 232.021C100.635 233.536 107.849 238.349 110.484 247.552C106.318 242.313 100.162 239.469 95.448 238.01L97.948 232.021ZM89.3751 238.891C92.2865 239.385 101.37 241.375 107.323 247.432C102.969 244.865 96.3334 242.839 87.4688 245.24L89.3751 238.891ZM116.406 256.313H108.75C107.068 254.135 99.7865 247.141 79.9011 255.427L81.6199 249.865C101.453 240.234 111.25 253.453 111.662 254.031C111.677 254.047 111.693 254.047 111.714 254.068C111.729 254.099 111.745 254.135 111.781 254.151C111.797 254.167 111.797 254.167 111.797 254.188C111.828 254.219 111.865 254.234 111.917 254.255C111.948 254.271 111.984 254.302 112.016 254.323C112.052 254.339 112.083 254.375 112.135 254.391C112.151 254.391 112.172 254.406 112.172 254.406C112.24 254.443 112.323 254.443 112.406 254.458C112.458 254.458 112.495 254.49 112.547 254.49C112.563 254.49 112.578 254.49 112.594 254.49C112.615 254.49 112.63 254.49 112.646 254.49C112.698 254.49 112.734 254.474 112.781 254.458C112.87 254.443 112.938 254.443 113.021 254.406C113.037 254.406 113.057 254.391 113.057 254.391C113.104 254.375 113.141 254.339 113.172 254.323C113.208 254.302 113.245 254.287 113.276 254.255C113.313 254.219 113.359 254.203 113.396 254.188C113.412 254.167 113.412 254.167 113.412 254.151C113.448 254.12 113.464 254.099 113.479 254.068C113.5 254.047 113.516 254.047 113.531 254.031C113.938 253.453 123.74 240.234 143.573 249.865L145.292 255.427C125.391 247.141 118.089 254.151 116.406 256.313Z" fill="#EDE0D2"/>
</g>
<mask id="mask65_47_13842" style="mask-type:luminance" maskUnits="userSpaceOnUse" x="17" y="241" width="117" height="85">
<path d="M17.6667 241.333H133.667V325.333H17.6667V241.333Z" fill="white"/>
</mask>
<g mask="url(#mask65_47_13842)">
<mask id="mask66_47_13842" style="mask-type:luminance" maskUnits="userSpaceOnUse" x="11" y="234" width="130" height="98">
<path d="M31.3179 234.911L140.568 295.661L120.641 331.49L11.396 270.745L31.3179 234.911Z" fill="white"/>
</mask>
<g mask="url(#mask66_47_13842)">
<mask id="mask67_47_13842" style="mask-type:luminance" maskUnits="userSpaceOnUse" x="11" y="234" width="130" height="98">
<path d="M31.3179 234.911L140.568 295.661L120.641 331.49L11.396 270.745L31.3179 234.911Z" fill="white"/>
</mask>
<g mask="url(#mask67_47_13842)">
<path d="M102.776 321.443L29.3959 280.641C19.5782 275.177 16.0469 262.792 21.5052 252.969C26.9636 243.151 39.3542 239.62 49.1719 245.078L122.552 285.88C132.37 291.344 135.901 303.729 130.443 313.552C124.984 323.37 112.594 326.901 102.776 321.443Z" fill="#604428"/>
<path d="M102.677 321.615L29.3022 280.813C19.3959 275.307 15.823 262.781 21.3334 252.875C26.8386 242.969 39.3647 239.396 49.2709 244.906L122.646 285.708C132.552 291.219 136.125 303.74 130.615 313.646C125.109 323.552 112.583 327.125 102.677 321.615ZM49.0782 245.25C39.3594 239.849 27.0782 243.354 21.6772 253.068C16.2761 262.781 19.7813 275.063 29.4949 280.464L102.87 321.271C112.589 326.672 124.87 323.167 130.271 313.453C135.672 303.74 132.167 291.458 122.453 286.057L49.0782 245.25Z" fill="#604428"/>
</g>
</g>
</g>
<mask id="mask68_47_13842" style="mask-type:luminance" maskUnits="userSpaceOnUse" x="8" y="194" width="137" height="100">
<path d="M8.33325 194.667H144.333V293.333H8.33325V194.667Z" fill="white"/>
</mask>
<g mask="url(#mask68_47_13842)">
<mask id="mask69_47_13842" style="mask-type:luminance" maskUnits="userSpaceOnUse" x="-1" y="186" width="155" height="116">
<path d="M23.1614 186.526L153.385 258.938L129.573 301.76L-0.651123 229.349L23.1614 186.526Z" fill="white"/>
</mask>
<g mask="url(#mask69_47_13842)">
<mask id="mask70_47_13842" style="mask-type:luminance" maskUnits="userSpaceOnUse" x="-1" y="186" width="155" height="116">
<path d="M23.1614 186.526L153.385 258.938L129.573 301.76L-0.651123 229.349L23.1614 186.526Z" fill="white"/>
</mask>
<g mask="url(#mask70_47_13842)">
<path d="M108.089 289.354L20.8802 240.865C9.21357 234.375 5.01045 219.651 11.5 207.984C17.9896 196.313 32.7136 192.115 44.3854 198.599L131.589 247.094C143.255 253.583 147.458 268.307 140.969 279.974C134.479 291.646 119.755 295.844 108.089 289.354Z" fill="#604428"/>
</g>
</g>
</g>
<mask id="mask71_47_13842" style="mask-type:luminance" maskUnits="userSpaceOnUse" x="7" y="194" width="138" height="100">
<path d="M7 194.667H144.333V293.333H7V194.667Z" fill="white"/>
</mask>
<g mask="url(#mask71_47_13842)">
<mask id="mask72_47_13842" style="mask-type:luminance" maskUnits="userSpaceOnUse" x="-1" y="186" width="155" height="116">
<path d="M23.1614 186.526L153.385 258.938L129.573 301.76L-0.651123 229.349L23.1614 186.526Z" fill="white"/>
</mask>
<g mask="url(#mask72_47_13842)">
<mask id="mask73_47_13842" style="mask-type:luminance" maskUnits="userSpaceOnUse" x="-1" y="186" width="155" height="116">
<path d="M23.1614 186.526L153.385 258.938L129.573 301.76L-0.651123 229.349L23.1614 186.526Z" fill="white"/>
</mask>
<g mask="url(#mask73_47_13842)">
<path d="M107.974 289.563L20.7656 241.068C8.99474 234.526 4.74995 219.641 11.2968 207.87C17.8385 196.094 32.7239 191.849 44.5 198.396L131.703 246.885C143.474 253.432 147.719 268.318 141.172 280.089C134.63 291.865 119.745 296.109 107.974 289.563ZM44.2708 198.807C32.7239 192.385 18.125 196.552 11.7083 208.099C5.28641 219.641 9.45308 234.24 20.9947 240.656L108.203 289.151C119.745 295.568 134.344 291.406 140.76 279.859C147.182 268.318 143.016 253.719 131.474 247.302L44.2708 198.807Z" fill="#604428"/>
</g>
</g>
</g>
<mask id="mask74_47_13842" style="mask-type:luminance" maskUnits="userSpaceOnUse" x="0" y="154" width="138" height="100">
<path d="M0.333252 154.667H137.667V253.333H0.333252V154.667Z" fill="white"/>
</mask>
<g mask="url(#mask74_47_13842)">
<mask id="mask75_47_13842" style="mask-type:luminance" maskUnits="userSpaceOnUse" x="-8" y="146" width="155" height="117">
<path d="M16.3436 146.833L146.562 219.245L122.75 262.073L-7.47412 189.656L16.3436 146.833Z" fill="white"/>
</mask>
<g mask="url(#mask75_47_13842)">
<mask id="mask76_47_13842" style="mask-type:luminance" maskUnits="userSpaceOnUse" x="-8" y="146" width="155" height="117">
<path d="M16.3436 146.833L146.562 219.245L122.75 262.073L-7.47412 189.656L16.3436 146.833Z" fill="white"/>
</mask>
<g mask="url(#mask76_47_13842)">
<path d="M101.265 249.667L14.0571 201.172C2.39046 194.687 -1.80746 179.958 4.67692 168.292C11.1665 156.625 25.8905 152.422 37.5623 158.911L124.765 207.406C136.432 213.891 140.635 228.62 134.146 240.286C127.656 251.953 112.932 256.156 101.265 249.667Z" fill="#604428"/>
<path d="M101.151 249.875L13.9426 201.38C2.17175 194.833 -2.07305 179.948 4.47383 168.177C11.0207 156.406 25.9009 152.161 37.677 158.703L124.88 207.198C136.651 213.745 140.896 228.63 134.354 240.401C127.807 252.172 112.922 256.417 101.151 249.875ZM37.4478 159.12C25.9009 152.698 11.3072 156.859 4.88529 168.406C-1.53659 179.953 2.63008 194.547 14.1717 200.969L101.38 249.458C112.922 255.88 127.521 251.713 133.937 240.172C140.359 228.625 136.193 214.031 124.651 207.609L37.4478 159.12Z" fill="#604428"/>
</g>
</g>
</g>
<mask id="mask77_47_13842" style="mask-type:luminance" maskUnits="userSpaceOnUse" x="84" y="162" width="31" height="28">
<path d="M84.3333 162.667H115V189.333H84.3333V162.667Z" fill="white"/>
</mask>
<g mask="url(#mask77_47_13842)">
<mask id="mask78_47_13842" style="mask-type:luminance" maskUnits="userSpaceOnUse" x="80" y="158" width="40" height="37">
<path d="M91.8644 158.5L119.047 180.547L107.708 194.531L80.5259 172.484L91.8644 158.5Z" fill="white"/>
</mask>
<g mask="url(#mask78_47_13842)">
<mask id="mask79_47_13842" style="mask-type:luminance" maskUnits="userSpaceOnUse" x="80" y="158" width="40" height="37">
<path d="M91.8644 158.5L119.047 180.547L107.708 194.531L80.5259 172.484L91.8644 158.5Z" fill="white"/>
</mask>
<g mask="url(#mask79_47_13842)">
<path d="M113.453 187.297C113.088 187.745 112.646 188.115 112.114 188.411C111.588 188.708 110.984 188.927 110.312 189.062C109.635 189.198 108.901 189.25 108.104 189.219C107.312 189.188 106.468 189.078 105.583 188.88C104.698 188.688 103.786 188.411 102.843 188.062C101.906 187.708 100.953 187.281 99.9945 186.786C99.031 186.292 98.0779 185.734 97.1352 185.109C96.1925 184.49 95.2758 183.818 94.3852 183.099C93.4945 182.375 92.6508 181.62 91.8487 180.823C91.0466 180.026 90.3018 179.208 89.6195 178.375C88.932 177.536 88.3227 176.693 87.7862 175.844C87.2445 174.995 86.7862 174.161 86.4164 173.333C86.0414 172.51 85.7602 171.708 85.5622 170.938C85.3695 170.167 85.2706 169.438 85.2654 168.745C85.2602 168.057 85.3435 167.427 85.5258 166.849C85.7081 166.266 85.9789 165.755 86.3435 165.307C86.7029 164.865 87.1508 164.495 87.6768 164.198C88.2029 163.901 88.807 163.682 89.4841 163.547C90.156 163.411 90.8904 163.359 91.6872 163.391C92.4841 163.417 93.3227 163.531 94.2081 163.724C95.0935 163.922 96.0049 164.193 96.9477 164.547C97.8904 164.901 98.8383 165.323 99.8018 165.818C100.76 166.318 101.713 166.875 102.656 167.495C103.599 168.115 104.515 168.786 105.406 169.51C106.297 170.229 107.14 170.99 107.948 171.786C108.75 172.578 109.489 173.396 110.177 174.234C110.859 175.073 111.468 175.917 112.01 176.76C112.547 177.609 113.005 178.448 113.38 179.276C113.75 180.099 114.036 180.896 114.229 181.672C114.422 182.443 114.521 183.172 114.531 183.859C114.536 184.547 114.448 185.182 114.265 185.76C114.083 186.339 113.812 186.849 113.453 187.297Z" fill="#FFB93E"/>
</g>
</g>
</g>
<mask id="mask80_47_13842" style="mask-type:luminance" maskUnits="userSpaceOnUse" x="124" y="29" width="41" height="27">
<path d="M124.333 29.3334H164.333V56H124.333V29.3334Z" fill="white"/>
</mask>
<g mask="url(#mask80_47_13842)">
<mask id="mask81_47_13842" style="mask-type:luminance" maskUnits="userSpaceOnUse" x="109" y="21" width="94" height="96">
<path d="M124.974 21.974L202.432 37.5261L186.484 116.943L109.031 101.391L124.974 21.974Z" fill="white"/>
</mask>
<g mask="url(#mask81_47_13842)">
<mask id="mask82_47_13842" style="mask-type:luminance" maskUnits="userSpaceOnUse" x="109" y="21" width="94" height="96">
<path d="M124.974 21.974L202.432 37.5261L186.484 116.943L109.031 101.391L124.974 21.974Z" fill="white"/>
</mask>
<g mask="url(#mask82_47_13842)">
<mask id="mask83_47_13842" style="mask-type:luminance" maskUnits="userSpaceOnUse" x="109" y="21" width="94" height="96">
<path d="M124.974 21.974L202.432 37.5261L186.484 116.943L109.031 101.391L124.974 21.974Z" fill="white"/>
</mask>
<g mask="url(#mask83_47_13842)">
<path d="M126.458 45.4792C125.266 44.0886 125.24 42.0104 126.479 40.5938C127.833 39.0365 130.188 38.8802 131.745 40.2292C138.974 46.5365 144.906 49.0365 148.911 47.4792C154.224 45.3907 156.359 36.2084 156.734 32.8282C156.958 30.7865 158.792 29.3125 160.844 29.5313C162.906 29.7604 164.396 31.6042 164.146 33.6198C164.083 34.3021 162.281 50.2448 151.646 54.4323C144.797 57.099 136.448 54.224 126.839 45.8542C126.703 45.7396 126.573 45.6146 126.458 45.4792Z" fill="#FF3E12"/>
</g>
</g>
</g>
</g>
<mask id="mask84_47_13842" style="mask-type:luminance" maskUnits="userSpaceOnUse" x="117" y="52" width="28" height="44">
<path d="M117.667 52H144.333V96H117.667V52Z" fill="white"/>
</mask>
<g mask="url(#mask84_47_13842)">
<mask id="mask85_47_13842" style="mask-type:luminance" maskUnits="userSpaceOnUse" x="109" y="21" width="94" height="96">
<path d="M124.974 21.974L202.432 37.5261L186.484 116.943L109.031 101.391L124.974 21.974Z" fill="white"/>
</mask>
<g mask="url(#mask85_47_13842)">
<mask id="mask86_47_13842" style="mask-type:luminance" maskUnits="userSpaceOnUse" x="109" y="21" width="94" height="96">
<path d="M124.974 21.974L202.432 37.5261L186.484 116.943L109.031 101.391L124.974 21.974Z" fill="white"/>
</mask>
<g mask="url(#mask86_47_13842)">
<mask id="mask87_47_13842" style="mask-type:luminance" maskUnits="userSpaceOnUse" x="109" y="21" width="94" height="96">
<path d="M124.974 21.974L202.432 37.5261L186.484 116.943L109.031 101.391L124.974 21.974Z" fill="white"/>
</mask>
<g mask="url(#mask87_47_13842)">
<path d="M126.219 93.401C124.974 91.9531 125.021 89.7969 126.344 88.3854C133.656 80.724 136.734 74.276 135.229 69.7188C133.01 62.8698 121.307 60.7188 121.172 60.6771C119.135 60.3646 117.786 58.3854 118.141 56.375C118.495 54.3437 120.411 52.9896 122.443 53.3438C123.115 53.4375 138.635 56.349 142.313 67.3646C144.766 74.8333 141.208 83.6198 131.76 93.5469C130.318 95.0208 127.964 95.0833 126.474 93.651C126.385 93.5729 126.297 93.4896 126.219 93.401Z" fill="#FF3E12"/>
</g>
</g>
</g>
</g>
<mask id="mask88_47_13842" style="mask-type:luminance" maskUnits="userSpaceOnUse" x="164" y="38" width="31" height="45">
<path d="M164.333 38.6666H195V82.6666H164.333V38.6666Z" fill="white"/>
</mask>
<g mask="url(#mask88_47_13842)">
<mask id="mask89_47_13842" style="mask-type:luminance" maskUnits="userSpaceOnUse" x="109" y="21" width="94" height="96">
<path d="M124.974 21.9739L202.432 37.526L186.484 116.943L109.031 101.391L124.974 21.9739Z" fill="white"/>
</mask>
<g mask="url(#mask89_47_13842)">
<mask id="mask90_47_13842" style="mask-type:luminance" maskUnits="userSpaceOnUse" x="109" y="21" width="94" height="96">
<path d="M124.974 21.9739L202.432 37.526L186.484 116.943L109.031 101.391L124.974 21.9739Z" fill="white"/>
</mask>
<g mask="url(#mask90_47_13842)">
<mask id="mask91_47_13842" style="mask-type:luminance" maskUnits="userSpaceOnUse" x="109" y="21" width="94" height="96">
<path d="M124.974 21.9739L202.432 37.526L186.484 116.943L109.031 101.391L124.974 21.9739Z" fill="white"/>
</mask>
<g mask="url(#mask91_47_13842)">
<path d="M168.516 71.3801C166.38 68.8957 165.156 66.1457 164.802 63.1093C163.51 51.6978 175.536 41.6405 176.917 40.5311C178.479 39.2655 180.755 39.4686 182.078 41.0051C182.094 41.0259 182.114 41.0468 182.156 41.0936C183.448 42.6926 183.198 45.0259 181.599 46.3176C178.755 48.6457 171.505 56.0155 172.213 62.2759C172.614 65.6197 175.453 68.5988 180.562 71.1197L191.422 75.2134C193.364 75.9374 194.318 78.0988 193.594 80.0155C192.859 81.9478 190.713 82.927 188.786 82.1874L177.62 77.9686C173.677 76.0572 170.635 73.8384 168.516 71.3801Z" fill="#FF3E12"/>
</g>
</g>
</g>
</g>
<mask id="mask92_47_13842" style="mask-type:luminance" maskUnits="userSpaceOnUse" x="137" y="80" width="49" height="28">
<path d="M137.667 80H185.667V108H137.667V80Z" fill="white"/>
</mask>
<g mask="url(#mask92_47_13842)">
<mask id="mask93_47_13842" style="mask-type:luminance" maskUnits="userSpaceOnUse" x="109" y="21" width="94" height="96">
<path d="M124.974 21.974L202.432 37.5261L186.484 116.943L109.031 101.391L124.974 21.974Z" fill="white"/>
</mask>
<g mask="url(#mask93_47_13842)">
<mask id="mask94_47_13842" style="mask-type:luminance" maskUnits="userSpaceOnUse" x="109" y="21" width="94" height="96">
<path d="M124.974 21.974L202.432 37.5261L186.484 116.943L109.031 101.391L124.974 21.974Z" fill="white"/>
</mask>
<g mask="url(#mask94_47_13842)">
<mask id="mask95_47_13842" style="mask-type:luminance" maskUnits="userSpaceOnUse" x="109" y="21" width="94" height="96">
<path d="M124.974 21.974L202.432 37.5261L186.484 116.943L109.031 101.391L124.974 21.974Z" fill="white"/>
</mask>
<g mask="url(#mask95_47_13842)">
<path d="M139.344 105.99C138.255 104.724 138.135 102.828 139.13 101.386L150.021 86.0574C152.083 83.0261 155.167 81.0834 158.849 80.4741C169.255 78.7918 181.901 88.1095 183.307 89.1772C184.99 90.4011 185.266 92.7553 184.01 94.3803C182.776 96.0261 180.432 96.3595 178.781 95.1043C175.667 92.7553 166.198 86.8386 160.042 87.8491C158.354 88.1251 157.109 88.9168 156.151 90.3334L145.219 105.729C144.021 107.391 141.687 107.787 140.016 106.594C139.76 106.417 139.536 106.214 139.344 105.99Z" fill="#FF3E12"/>
</g>
</g>
</g>
</g>
</svg>
