<svg width="341" height="348" viewBox="0 0 341 348" fill="none" xmlns="http://www.w3.org/2000/svg">
<mask id="mask0_47_13838" style="mask-type:luminance" maskUnits="userSpaceOnUse" x="11" y="159" width="113" height="89">
<path d="M11.3333 159.333H123.333V247.333H11.3333V159.333Z" fill="white"/>
</mask>
<g mask="url(#mask0_47_13838)">
<mask id="mask1_47_13838" style="mask-type:luminance" maskUnits="userSpaceOnUse" x="4" y="151" width="127" height="105">
<path d="M27.0103 151.651L130.776 221.344L107.917 255.38L4.15088 185.682L27.0103 151.651Z" fill="white"/>
</mask>
<g mask="url(#mask1_47_13838)">
<mask id="mask2_47_13838" style="mask-type:luminance" maskUnits="userSpaceOnUse" x="4" y="151" width="127" height="105">
<path d="M27.0103 151.651L130.776 221.344L107.917 255.38L4.15088 185.682L27.0103 151.651Z" fill="white"/>
</mask>
<g mask="url(#mask2_47_13838)">
<path d="M90.9581 243.87L21.2602 197.057C11.9321 190.792 9.45288 178.151 15.7133 168.823C21.9789 159.495 34.6196 157.016 43.9477 163.276L113.646 210.089C122.974 216.354 125.453 228.995 119.192 238.323C112.927 247.646 100.286 250.13 90.9581 243.87Z" fill="#604428"/>
</g>
</g>
</g>
<mask id="mask3_47_13838" style="mask-type:luminance" maskUnits="userSpaceOnUse" x="11" y="159" width="113" height="90">
<path d="M11.3333 159.333H123.333V248.667H11.3333V159.333Z" fill="white"/>
</mask>
<g mask="url(#mask3_47_13838)">
<mask id="mask4_47_13838" style="mask-type:luminance" maskUnits="userSpaceOnUse" x="4" y="151" width="127" height="105">
<path d="M27.0103 151.651L130.776 221.344L107.917 255.38L4.15088 185.682L27.0103 151.651Z" fill="white"/>
</mask>
<g mask="url(#mask4_47_13838)">
<mask id="mask5_47_13838" style="mask-type:luminance" maskUnits="userSpaceOnUse" x="4" y="151" width="127" height="105">
<path d="M27.0103 151.651L130.776 221.344L107.917 255.38L4.15088 185.682L27.0103 151.651Z" fill="white"/>
</mask>
<g mask="url(#mask5_47_13838)">
<path d="M90.8488 244.031L21.1509 197.219C11.7394 190.901 9.22902 178.12 15.5519 168.714C21.8696 159.302 34.6509 156.792 44.0571 163.115L113.755 209.922C123.167 216.245 125.677 229.026 119.354 238.432C113.036 247.839 100.255 250.349 90.8488 244.031ZM43.8384 163.443C34.6092 157.245 22.078 159.708 15.8801 168.932C9.68214 178.162 12.1457 190.693 21.3696 196.891L91.0676 243.703C100.297 249.901 112.828 247.438 119.026 238.208C125.224 228.984 122.76 216.453 113.536 210.255L43.8384 163.443Z" fill="#604428"/>
</g>
</g>
</g>
<mask id="mask6_47_13838" style="mask-type:luminance" maskUnits="userSpaceOnUse" x="4" y="111" width="133" height="106">
<path d="M4.66675 111.333H136.667V216.667H4.66675V111.333Z" fill="white"/>
</mask>
<g mask="url(#mask6_47_13838)">
<mask id="mask7_47_13838" style="mask-type:luminance" maskUnits="userSpaceOnUse" x="-5" y="102" width="152" height="125">
<path d="M22.9376 102.75L146.63 185.823L119.313 226.5L-4.38013 143.427L22.9376 102.75Z" fill="white"/>
</mask>
<g mask="url(#mask7_47_13838)">
<mask id="mask8_47_13838" style="mask-type:luminance" maskUnits="userSpaceOnUse" x="-5" y="102" width="152" height="125">
<path d="M22.9376 102.75L146.63 185.823L119.313 226.5L-4.38013 143.427L22.9376 102.75Z" fill="white"/>
</mask>
<g mask="url(#mask8_47_13838)">
<path d="M98.9428 212.339L16.1095 156.703C5.02617 149.26 2.07305 134.234 9.52096 123.151C16.9637 112.068 31.9897 109.12 43.0731 116.562L125.901 172.198C136.985 179.641 139.938 194.667 132.495 205.75C125.047 216.833 110.026 219.781 98.9428 212.339Z" fill="#604428"/>
</g>
</g>
</g>
<mask id="mask9_47_13838" style="mask-type:luminance" maskUnits="userSpaceOnUse" x="4" y="111" width="134" height="107">
<path d="M4.66675 111.333H138V218H4.66675V111.333Z" fill="white"/>
</mask>
<g mask="url(#mask9_47_13838)">
<mask id="mask10_47_13838" style="mask-type:luminance" maskUnits="userSpaceOnUse" x="-5" y="102" width="152" height="125">
<path d="M22.9376 102.75L146.63 185.823L119.313 226.5L-4.38013 143.427L22.9376 102.75Z" fill="white"/>
</mask>
<g mask="url(#mask10_47_13838)">
<mask id="mask11_47_13838" style="mask-type:luminance" maskUnits="userSpaceOnUse" x="-5" y="102" width="152" height="125">
<path d="M22.9376 102.75L146.63 185.823L119.313 226.5L-4.38013 143.427L22.9376 102.75Z" fill="white"/>
</mask>
<g mask="url(#mask11_47_13838)">
<path d="M98.8073 212.536L15.9791 156.901C4.79685 149.391 1.81248 134.203 9.3229 123.021C16.8333 111.839 32.0208 108.859 43.2031 116.365L126.036 172C137.214 179.51 140.198 194.698 132.687 205.88C125.177 217.062 109.99 220.042 98.8073 212.536ZM42.9375 116.76C31.9739 109.391 17.0781 112.318 9.71352 123.286C2.34894 134.25 5.27602 149.146 16.2396 156.51L99.0729 212.141C110.036 219.51 124.932 216.583 132.297 205.615C139.661 194.651 136.74 179.755 125.771 172.391L42.9375 116.76Z" fill="#604428"/>
</g>
</g>
</g>
<mask id="mask12_47_13838" style="mask-type:luminance" maskUnits="userSpaceOnUse" x="0" y="71" width="134" height="106">
<path d="M0.666748 71.3334H134V176.667H0.666748V71.3334Z" fill="white"/>
</mask>
<g mask="url(#mask12_47_13838)">
<mask id="mask13_47_13838" style="mask-type:luminance" maskUnits="userSpaceOnUse" x="-8" y="62" width="152" height="125">
<path d="M19.4689 62.625L143.162 145.703L115.839 186.38L-7.854 103.302L19.4689 62.625Z" fill="white"/>
</mask>
<g mask="url(#mask13_47_13838)">
<mask id="mask14_47_13838" style="mask-type:luminance" maskUnits="userSpaceOnUse" x="-8" y="62" width="152" height="125">
<path d="M19.4689 62.625L143.162 145.703L115.839 186.38L-7.854 103.302L19.4689 62.625Z" fill="white"/>
</mask>
<g mask="url(#mask14_47_13838)">
<path d="M95.469 172.219L12.6408 116.583C1.55748 109.141 -1.39564 94.1146 6.04707 83.0313C13.4898 71.9479 28.5158 68.9948 39.5992 76.4427L122.433 132.073C133.516 139.516 136.469 154.542 129.021 165.625C121.578 176.708 106.552 179.661 95.469 172.219Z" fill="#604428"/>
<path d="M95.3387 172.411L12.5054 116.781C1.32307 109.271 -1.6561 94.0833 5.85431 82.901C13.3595 71.7187 28.5522 68.7344 39.7293 76.2448L122.563 131.875C133.745 139.385 136.729 154.578 129.219 165.755C121.708 176.937 106.521 179.922 95.3387 172.411ZM39.4689 76.6354C28.5001 69.2708 13.6095 72.1979 6.24494 83.1614C-1.11964 94.1302 1.80223 109.021 12.771 116.385L95.6043 172.021C106.568 179.385 121.464 176.458 128.828 165.495C136.193 154.526 133.266 139.635 122.302 132.271L39.4689 76.6354Z" fill="#604428"/>
</g>
</g>
</g>
<mask id="mask15_47_13838" style="mask-type:luminance" maskUnits="userSpaceOnUse" x="190" y="247" width="39" height="53">
<path d="M190 247.333H228.667V299.333H190V247.333Z" fill="white"/>
</mask>
<g mask="url(#mask15_47_13838)">
<mask id="mask16_47_13838" style="mask-type:luminance" maskUnits="userSpaceOnUse" x="189" y="247" width="41" height="54">
<path d="M222.469 300.323L189.057 251.698L195.651 247.167L229.063 295.792L222.469 300.323Z" fill="white"/>
</mask>
<g mask="url(#mask16_47_13838)">
<mask id="mask17_47_13838" style="mask-type:luminance" maskUnits="userSpaceOnUse" x="189" y="247" width="41" height="54">
<path d="M222.469 300.323L189.057 251.698L195.651 247.167L229.063 295.792L222.469 300.323Z" fill="white"/>
</mask>
<g mask="url(#mask17_47_13838)">
<path d="M191.511 255.24L193.906 258.724L193.917 258.719L217.703 293.333L217.693 293.339L220.089 296.828C221.412 298.75 224.047 299.24 225.974 297.917C227.896 296.594 228.386 293.958 227.063 292.037L198.485 250.448C197.162 248.521 194.537 248.026 192.615 249.349C190.688 250.672 190.193 253.313 191.511 255.24Z" fill="#FCD590"/>
</g>
</g>
</g>
<mask id="mask18_47_13838" style="mask-type:luminance" maskUnits="userSpaceOnUse" x="212" y="280" width="13" height="17">
<path d="M212.667 280.667H224.667V296.667H212.667V280.667Z" fill="white"/>
</mask>
<g mask="url(#mask18_47_13838)">
<mask id="mask19_47_13838" style="mask-type:luminance" maskUnits="userSpaceOnUse" x="189" y="247" width="41" height="54">
<path d="M222.469 300.323L189.057 251.698L195.651 247.167L229.063 295.792L222.469 300.323Z" fill="white"/>
</mask>
<g mask="url(#mask19_47_13838)">
<mask id="mask20_47_13838" style="mask-type:luminance" maskUnits="userSpaceOnUse" x="189" y="247" width="41" height="54">
<path d="M222.469 300.323L189.057 251.698L195.651 247.167L229.063 295.792L222.469 300.323Z" fill="white"/>
</mask>
<g mask="url(#mask20_47_13838)">
<path d="M213.521 283.542L221.828 295.63C222.162 296.12 222.818 296.24 223.302 295.906C223.787 295.573 223.912 294.917 223.578 294.432L221.182 290.943L221.172 290.948L215.266 282.354C214.932 281.87 214.276 281.75 213.792 282.083C213.302 282.417 213.193 283.063 213.521 283.542Z" fill="#FCD590"/>
</g>
</g>
</g>
<mask id="mask21_47_13838" style="mask-type:luminance" maskUnits="userSpaceOnUse" x="52" y="246" width="49" height="42">
<path d="M52.6667 246H100.667V287.333H52.6667V246Z" fill="white"/>
</mask>
<g mask="url(#mask21_47_13838)">
<mask id="mask22_47_13838" style="mask-type:luminance" maskUnits="userSpaceOnUse" x="51" y="244" width="51" height="45">
<path d="M51.4062 282.547L96.6875 244.719L101.812 250.854L56.5365 288.682L51.4062 282.547Z" fill="white"/>
</mask>
<g mask="url(#mask22_47_13838)">
<mask id="mask23_47_13838" style="mask-type:luminance" maskUnits="userSpaceOnUse" x="51" y="244" width="51" height="45">
<path d="M51.4062 282.547L96.6875 244.719L101.812 250.854L56.5365 288.682L51.4062 282.547Z" fill="white"/>
</mask>
<g mask="url(#mask23_47_13838)">
<path d="M93.3907 247.495L90.1407 250.203L90.1511 250.214L57.9219 277.141L57.9115 277.135L54.6667 279.849C52.8751 281.344 52.6355 284.016 54.1303 285.807C55.6303 287.594 58.3021 287.833 60.0938 286.339L98.8126 253.984C100.604 252.49 100.854 249.828 99.3542 248.036C97.8594 246.245 95.1823 245.995 93.3907 247.495Z" fill="#FCD590"/>
</g>
</g>
</g>
<mask id="mask24_47_13838" style="mask-type:luminance" maskUnits="userSpaceOnUse" x="55" y="271" width="15" height="14">
<path d="M55.3333 271.333H69.9999V284.667H55.3333V271.333Z" fill="white"/>
</mask>
<g mask="url(#mask24_47_13838)">
<mask id="mask25_47_13838" style="mask-type:luminance" maskUnits="userSpaceOnUse" x="51" y="244" width="51" height="45">
<path d="M51.4062 282.547L96.6875 244.719L101.812 250.854L56.5365 288.682L51.4062 282.547Z" fill="white"/>
</mask>
<g mask="url(#mask25_47_13838)">
<mask id="mask26_47_13838" style="mask-type:luminance" maskUnits="userSpaceOnUse" x="51" y="244" width="51" height="45">
<path d="M51.4062 282.547L96.6875 244.719L101.812 250.854L56.5365 288.682L51.4062 282.547Z" fill="white"/>
</mask>
<g mask="url(#mask26_47_13838)">
<path d="M67.276 272.057L56.0208 281.464C55.5677 281.844 55.5052 282.505 55.8854 282.958C56.2604 283.412 56.9271 283.469 57.3802 283.094L60.625 280.38L60.6198 280.37L68.6198 273.682C69.0729 273.307 69.1302 272.641 68.7552 272.193C68.375 271.74 67.7188 271.688 67.276 272.057Z" fill="#FCD590"/>
</g>
</g>
</g>
<mask id="mask27_47_13838" style="mask-type:luminance" maskUnits="userSpaceOnUse" x="46" y="252" width="12" height="55">
<path d="M46 252.667H58V306H46V252.667Z" fill="white"/>
</mask>
<g mask="url(#mask27_47_13838)">
<mask id="mask28_47_13838" style="mask-type:luminance" maskUnits="userSpaceOnUse" x="46" y="252" width="13" height="55">
<path d="M46.7292 305.734L50.0678 252.839L58.0522 253.344L54.7136 306.234L46.7292 305.734Z" fill="white"/>
</mask>
<g mask="url(#mask28_47_13838)">
<mask id="mask29_47_13838" style="mask-type:luminance" maskUnits="userSpaceOnUse" x="46" y="252" width="13" height="55">
<path d="M46.7292 305.734L50.0678 252.839L58.0522 253.344L54.7136 306.234L46.7292 305.734Z" fill="white"/>
</mask>
<g mask="url(#mask29_47_13838)">
<path d="M49.8387 256.755L49.5991 260.542H49.6095L47.2345 298.156H47.2241L46.9845 301.943C46.8543 304.037 48.4428 305.839 50.5314 305.974C52.6251 306.104 54.4272 304.511 54.5626 302.422L57.4168 257.229C57.547 255.141 55.9637 253.333 53.8751 253.203C51.7866 253.073 49.9689 254.662 49.8387 256.755Z" fill="#FCD590"/>
</g>
</g>
</g>
<mask id="mask30_47_13838" style="mask-type:luminance" maskUnits="userSpaceOnUse" x="48" y="287" width="5" height="17">
<path d="M48.6667 287.333H52.6667V303.333H48.6667V287.333Z" fill="white"/>
</mask>
<g mask="url(#mask30_47_13838)">
<mask id="mask31_47_13838" style="mask-type:luminance" maskUnits="userSpaceOnUse" x="46" y="252" width="13" height="55">
<path d="M46.7292 305.734L50.0678 252.839L58.0522 253.344L54.7136 306.234L46.7292 305.734Z" fill="white"/>
</mask>
<g mask="url(#mask31_47_13838)">
<mask id="mask32_47_13838" style="mask-type:luminance" maskUnits="userSpaceOnUse" x="46" y="252" width="13" height="55">
<path d="M46.7292 305.734L50.0678 252.839L58.0522 253.344L54.7136 306.234L46.7292 305.734Z" fill="white"/>
</mask>
<g mask="url(#mask32_47_13838)">
<path d="M49.7033 288.922L48.8751 302.063C48.8387 302.594 49.2345 303.042 49.7605 303.073C50.2918 303.11 50.7397 302.714 50.771 302.182L51.0105 298.396H51.0001L51.5887 289.052C51.6251 288.526 51.2293 288.078 50.7033 288.047C50.172 288.011 49.7345 288.406 49.7033 288.922Z" fill="#FCD590"/>
</g>
</g>
</g>
<mask id="mask33_47_13838" style="mask-type:luminance" maskUnits="userSpaceOnUse" x="27" y="263" width="46" height="37">
<path d="M27.3333 263.333H72.6666V299.333H27.3333V263.333Z" fill="white"/>
</mask>
<g mask="url(#mask33_47_13838)">
<mask id="mask34_47_13838" style="mask-type:luminance" maskUnits="userSpaceOnUse" x="26" y="262" width="48" height="39">
<path d="M68.4165 300.745L26.4634 268.359L31.3488 262.026L73.3019 294.412L68.4165 300.745Z" fill="white"/>
</mask>
<g mask="url(#mask34_47_13838)">
<mask id="mask35_47_13838" style="mask-type:luminance" maskUnits="userSpaceOnUse" x="26" y="262" width="48" height="39">
<path d="M68.4165 300.745L26.4634 268.359L31.3488 262.026L73.3019 294.412L68.4165 300.745Z" fill="white"/>
</mask>
<g mask="url(#mask35_47_13838)">
<path d="M29.5729 270.745L32.5781 273.063L32.5833 273.052L62.4218 296.083L62.4114 296.094L65.4166 298.411C67.0781 299.693 69.4635 299.385 70.7447 297.729C72.0208 296.068 71.7135 293.682 70.0572 292.401L34.2135 264.734C32.5572 263.453 30.1718 263.75 28.8958 265.411C27.6145 267.068 27.9166 269.464 29.5729 270.745Z" fill="#FCD590"/>
</g>
</g>
</g>
<mask id="mask36_47_13838" style="mask-type:luminance" maskUnits="userSpaceOnUse" x="55" y="286" width="14" height="12">
<path d="M55.3333 286H68.6666V298H55.3333V286Z" fill="white"/>
</mask>
<g mask="url(#mask36_47_13838)">
<mask id="mask37_47_13838" style="mask-type:luminance" maskUnits="userSpaceOnUse" x="26" y="262" width="48" height="39">
<path d="M68.4165 300.745L26.4634 268.359L31.3488 262.026L73.3019 294.412L68.4165 300.745Z" fill="white"/>
</mask>
<g mask="url(#mask37_47_13838)">
<mask id="mask38_47_13838" style="mask-type:luminance" maskUnits="userSpaceOnUse" x="26" y="262" width="48" height="39">
<path d="M68.4165 300.745L26.4634 268.359L31.3488 262.026L73.3019 294.412L68.4165 300.745Z" fill="white"/>
</mask>
<g mask="url(#mask38_47_13838)">
<path d="M56.1509 288.87L66.5728 296.917C66.9946 297.24 67.5884 297.162 67.9113 296.745C68.2342 296.323 68.1561 295.729 67.7394 295.406L64.7342 293.089L64.729 293.094L57.3176 287.375C56.9009 287.052 56.3071 287.13 55.9842 287.547C55.6613 287.969 55.7446 288.552 56.1509 288.87Z" fill="#FCD590"/>
</g>
</g>
</g>
<mask id="mask39_47_13838" style="mask-type:luminance" maskUnits="userSpaceOnUse" x="203" y="288" width="54" height="17">
<path d="M203.333 288.667H256.667V304.667H203.333V288.667Z" fill="white"/>
</mask>
<g mask="url(#mask39_47_13838)">
<mask id="mask40_47_13838" style="mask-type:luminance" maskUnits="userSpaceOnUse" x="203" y="289" width="55" height="17">
<path d="M204.963 289.109L257.312 297.396L256.062 305.297L203.713 297.01L204.963 289.109Z" fill="white"/>
</mask>
<g mask="url(#mask40_47_13838)">
<mask id="mask41_47_13838" style="mask-type:luminance" maskUnits="userSpaceOnUse" x="203" y="289" width="55" height="17">
<path d="M257.192 297.375L204.844 289.089L203.594 296.99L255.937 305.281L257.192 297.375Z" fill="white"/>
</mask>
<g mask="url(#mask41_47_13838)">
<path d="M208.713 289.719L212.463 290.313V290.323L249.687 296.214V296.203L253.437 296.797C255.505 297.125 256.922 299.073 256.593 301.141C256.265 303.208 254.317 304.625 252.25 304.297L207.526 297.214C205.458 296.891 204.041 294.953 204.369 292.886C204.698 290.818 206.646 289.391 208.713 289.719Z" fill="#FCD590"/>
</g>
</g>
</g>
<mask id="mask42_47_13838" style="mask-type:luminance" maskUnits="userSpaceOnUse" x="238" y="295" width="16" height="6">
<path d="M238 295.333H254V300.667H238V295.333Z" fill="white"/>
</mask>
<g mask="url(#mask42_47_13838)">
<mask id="mask43_47_13838" style="mask-type:luminance" maskUnits="userSpaceOnUse" x="203" y="289" width="55" height="17">
<path d="M204.964 289.109L257.313 297.396L256.063 305.297L203.714 297.01L204.964 289.109Z" fill="white"/>
</mask>
<g mask="url(#mask43_47_13838)">
<mask id="mask44_47_13838" style="mask-type:luminance" maskUnits="userSpaceOnUse" x="203" y="289" width="55" height="17">
<path d="M257.193 297.375L204.844 289.089L203.594 296.99L255.938 305.281L257.193 297.375Z" fill="white"/>
</mask>
<g mask="url(#mask44_47_13838)">
<path d="M240.141 296.609L253.141 298.667C253.667 298.75 254.016 299.234 253.932 299.755C253.849 300.276 253.365 300.63 252.844 300.547L249.094 299.953L249.099 299.943L239.854 298.479C239.328 298.396 238.979 297.911 239.063 297.391C239.146 296.87 239.625 296.526 240.141 296.609Z" fill="#FCD590"/>
</g>
</g>
</g>
<mask id="mask45_47_13838" style="mask-type:luminance" maskUnits="userSpaceOnUse" x="208" y="274" width="41" height="42">
<path d="M208.667 274H248.667V315.333H208.667V274Z" fill="white"/>
</mask>
<g mask="url(#mask45_47_13838)">
<mask id="mask46_47_13838" style="mask-type:luminance" maskUnits="userSpaceOnUse" x="207" y="272" width="43" height="45">
<path d="M207.896 311.167L244.078 272.438L249.922 277.896L213.745 316.63L207.896 311.167Z" fill="white"/>
</mask>
<g mask="url(#mask46_47_13838)">
<mask id="mask47_47_13838" style="mask-type:luminance" maskUnits="userSpaceOnUse" x="207" y="272" width="43" height="45">
<path d="M243.995 272.526L207.813 311.26L213.662 316.719L249.839 277.99L243.995 272.526Z" fill="white"/>
</mask>
<g mask="url(#mask47_47_13838)">
<path d="M210.5 308.401L213.094 305.625L213.099 305.636L238.828 278.094L238.818 278.083L241.412 275.313C242.839 273.781 245.245 273.698 246.776 275.13C248.307 276.557 248.391 278.964 246.958 280.495L216.047 313.583C214.62 315.115 212.219 315.203 210.693 313.776C209.162 312.344 209.073 309.932 210.5 308.401Z" fill="#FCD590"/>
</g>
</g>
</g>
<mask id="mask48_47_13838" style="mask-type:luminance" maskUnits="userSpaceOnUse" x="232" y="275" width="13" height="14">
<path d="M232.667 275.333H244.667V288.667H232.667V275.333Z" fill="white"/>
</mask>
<g mask="url(#mask48_47_13838)">
<mask id="mask49_47_13838" style="mask-type:luminance" maskUnits="userSpaceOnUse" x="207" y="272" width="43" height="45">
<path d="M207.896 311.167L244.078 272.438L249.922 277.896L213.745 316.63L207.896 311.167Z" fill="white"/>
</mask>
<g mask="url(#mask49_47_13838)">
<mask id="mask50_47_13838" style="mask-type:luminance" maskUnits="userSpaceOnUse" x="207" y="272" width="43" height="45">
<path d="M243.995 272.526L207.813 311.26L213.662 316.719L249.839 277.99L243.995 272.526Z" fill="white"/>
</mask>
<g mask="url(#mask50_47_13838)">
<path d="M233.808 286.224L242.797 276.604C243.157 276.219 243.755 276.198 244.141 276.557C244.526 276.917 244.547 277.516 244.188 277.901L241.594 280.677L241.589 280.672L235.198 287.51C234.839 287.896 234.24 287.917 233.854 287.557C233.464 287.193 233.453 286.604 233.808 286.224Z" fill="#FCD590"/>
</g>
</g>
</g>
<mask id="mask51_47_13838" style="mask-type:luminance" maskUnits="userSpaceOnUse" x="104" y="0" width="60" height="60">
<path d="M104.667 0.666626H163.333V59.3333H104.667V0.666626Z" fill="white"/>
</mask>
<g mask="url(#mask51_47_13838)">
<mask id="mask52_47_13838" style="mask-type:luminance" maskUnits="userSpaceOnUse" x="95" y="-9" width="84" height="85">
<path d="M178.453 42.6353L145.927 75.1614L95.0156 24.2499L127.542 -8.27612L178.453 42.6353Z" fill="white"/>
</mask>
<g mask="url(#mask52_47_13838)">
<mask id="mask53_47_13838" style="mask-type:luminance" maskUnits="userSpaceOnUse" x="95" y="-9" width="84" height="85">
<path d="M178.453 42.6353L145.927 75.1614L95.0156 24.2499L127.542 -8.27612L178.453 42.6353Z" fill="white"/>
</mask>
<g mask="url(#mask53_47_13838)">
<path d="M130.474 50.302L162.24 58.8489L153.698 27.0781C152.62 22.6614 148.875 13.0676 145.344 9.5416C135.698 -0.109441 120.625 -0.671942 111.672 8.28118C102.719 17.2343 103.281 32.3072 112.932 41.9583C116.458 45.4843 126.057 49.2239 130.474 50.302Z" fill="#442F19"/>
</g>
</g>
</g>
<mask id="mask54_47_13838" style="mask-type:luminance" maskUnits="userSpaceOnUse" x="159" y="0" width="59" height="60">
<path d="M159.333 0.666626H218V59.3333H159.333V0.666626Z" fill="white"/>
</mask>
<g mask="url(#mask54_47_13838)">
<mask id="mask55_47_13838" style="mask-type:luminance" maskUnits="userSpaceOnUse" x="143" y="-9" width="85" height="85">
<path d="M176.323 75.0625L143.797 42.5365L194.708 -8.375L227.234 24.151L176.323 75.0625Z" fill="white"/>
</mask>
<g mask="url(#mask55_47_13838)">
<mask id="mask56_47_13838" style="mask-type:luminance" maskUnits="userSpaceOnUse" x="143" y="-9" width="85" height="85">
<path d="M143.896 42.6355L176.422 75.1615L227.333 24.25L194.807 -8.276L143.896 42.6355Z" fill="white"/>
</mask>
<g mask="url(#mask56_47_13838)">
<path d="M191.88 50.3021L160.109 58.849L168.651 27.0782C169.729 22.6615 173.479 13.0678 177.005 9.54172C186.651 -0.109318 201.729 -0.67182 210.677 8.28131C219.63 17.2344 219.068 32.3073 209.422 41.9584C205.896 45.4844 196.297 49.224 191.88 50.3021Z" fill="#442F19"/>
</g>
</g>
</g>
<mask id="mask57_47_13838" style="mask-type:luminance" maskUnits="userSpaceOnUse" x="69" y="112" width="177" height="177">
<path d="M69.2708 112.01H246V288.667H69.2708V112.01Z" fill="white"/>
</mask>
<g mask="url(#mask57_47_13838)">
<path d="M245.911 200.333C245.911 201.776 245.875 203.224 245.807 204.667C245.734 206.109 245.63 207.552 245.49 208.99C245.344 210.427 245.167 211.865 244.958 213.292C244.745 214.724 244.5 216.146 244.213 217.562C243.932 218.979 243.615 220.391 243.266 221.792C242.917 223.193 242.531 224.589 242.109 225.969C241.687 227.354 241.234 228.724 240.75 230.089C240.26 231.448 239.745 232.797 239.187 234.13C238.635 235.469 238.052 236.786 237.432 238.094C236.812 239.401 236.167 240.693 235.484 241.969C234.802 243.24 234.088 244.5 233.349 245.74C232.604 246.979 231.833 248.198 231.026 249.401C230.224 250.604 229.391 251.786 228.531 252.943C227.672 254.104 226.781 255.245 225.865 256.365C224.948 257.479 224.005 258.573 223.031 259.646C222.062 260.714 221.068 261.76 220.042 262.786C219.021 263.807 217.974 264.802 216.906 265.776C215.833 266.745 214.74 267.687 213.62 268.604C212.505 269.521 211.365 270.411 210.203 271.271C209.042 272.135 207.865 272.964 206.661 273.771C205.458 274.573 204.24 275.344 203 276.089C201.76 276.828 200.5 277.542 199.224 278.224C197.953 278.906 196.661 279.557 195.354 280.172C194.047 280.792 192.724 281.375 191.391 281.932C190.057 282.484 188.708 283.005 187.349 283.49C185.984 283.979 184.615 284.432 183.229 284.849C181.849 285.271 180.453 285.656 179.052 286.005C177.651 286.359 176.24 286.672 174.823 286.958C173.406 287.24 171.979 287.484 170.552 287.698C169.12 287.911 167.687 288.089 166.25 288.229C164.812 288.37 163.37 288.474 161.927 288.547C160.484 288.62 159.036 288.651 157.594 288.651C156.146 288.651 154.703 288.62 153.26 288.547C151.812 288.474 150.375 288.37 148.937 288.229C147.495 288.089 146.062 287.911 144.635 287.698C143.203 287.484 141.781 287.24 140.359 286.958C138.943 286.672 137.536 286.359 136.13 286.005C134.729 285.656 133.338 285.271 131.953 284.849C130.573 284.432 129.198 283.979 127.838 283.49C126.479 283.005 125.13 282.484 123.792 281.932C122.458 281.375 121.135 280.792 119.828 280.172C118.526 279.557 117.234 278.906 115.958 278.224C114.682 277.542 113.427 276.828 112.187 276.089C110.948 275.344 109.724 274.573 108.526 273.771C107.323 272.964 106.141 272.135 104.979 271.271C103.818 270.411 102.682 269.521 101.562 268.604C100.443 267.687 99.3489 266.745 98.2812 265.776C97.2083 264.802 96.1614 263.807 95.1405 262.786C94.1197 261.76 93.1197 260.714 92.151 259.646C91.1822 258.573 90.2343 257.479 89.3176 256.365C88.401 255.245 87.5155 254.104 86.651 252.943C85.7916 251.786 84.9583 250.604 84.1562 249.401C83.3541 248.198 82.578 246.979 81.8385 245.74C81.0937 244.5 80.3801 243.24 79.703 241.969C79.0208 240.693 78.3697 239.401 77.7499 238.094C77.1353 236.786 76.5468 235.469 75.9947 234.13C75.4426 232.797 74.9218 231.448 74.4322 230.089C73.9478 228.724 73.4947 227.354 73.0728 225.969C72.6562 224.589 72.2708 223.193 71.9166 221.792C71.5676 220.391 71.2499 218.979 70.9687 217.562C70.6874 216.146 70.4374 214.724 70.2291 213.292C70.0155 211.865 69.8385 210.427 69.6978 208.99C69.5572 207.552 69.4478 206.109 69.3801 204.667C69.3072 203.224 69.2708 201.776 69.2708 200.333C69.2708 198.885 69.3072 197.443 69.3801 196C69.4478 194.557 69.5572 193.115 69.6978 191.677C69.8385 190.24 70.0155 188.802 70.2291 187.375C70.4374 185.943 70.6874 184.521 70.9687 183.104C71.2499 181.682 71.5676 180.276 71.9166 178.875C72.2708 177.469 72.6562 176.078 73.0728 174.693C73.4947 173.312 73.9478 171.937 74.4322 170.578C74.9218 169.219 75.4426 167.87 75.9947 166.536C76.5468 165.198 77.1353 163.875 77.7499 162.573C78.3697 161.266 79.0208 159.974 79.703 158.698C80.3801 157.422 81.0937 156.167 81.8385 154.927C82.578 153.687 83.3541 152.469 84.1562 151.266C84.9583 150.062 85.7916 148.88 86.651 147.719C87.5155 146.557 88.401 145.422 89.3176 144.302C90.2343 143.187 91.1822 142.094 92.151 141.021C93.1197 139.948 94.1197 138.901 95.1405 137.88C96.1614 136.859 97.2083 135.865 98.2812 134.891C99.3489 133.922 100.443 132.979 101.562 132.062C102.682 131.141 103.818 130.255 104.979 129.391C106.141 128.531 107.323 127.698 108.526 126.896C109.724 126.094 110.948 125.323 112.187 124.578C113.427 123.833 114.682 123.125 115.958 122.443C117.234 121.76 118.526 121.109 119.828 120.49C121.135 119.875 122.458 119.286 123.792 118.734C125.13 118.182 126.479 117.661 127.838 117.177C129.198 116.687 130.573 116.234 131.953 115.818C133.338 115.396 134.729 115.01 136.13 114.661C137.536 114.307 138.943 113.99 140.359 113.708C141.781 113.427 143.203 113.182 144.635 112.969C146.062 112.755 147.495 112.578 148.937 112.437C150.375 112.297 151.812 112.187 153.26 112.12C154.703 112.047 156.146 112.01 157.594 112.01C159.036 112.01 160.484 112.047 161.927 112.12C163.37 112.187 164.812 112.297 166.25 112.437C167.687 112.578 169.12 112.755 170.552 112.969C171.979 113.182 173.406 113.427 174.823 113.708C176.24 113.99 177.651 114.307 179.052 114.661C180.453 115.01 181.849 115.396 183.229 115.818C184.615 116.234 185.984 116.687 187.349 117.177C188.708 117.661 190.057 118.182 191.391 118.734C192.724 119.286 194.047 119.875 195.354 120.49C196.661 121.109 197.953 121.76 199.224 122.443C200.5 123.125 201.76 123.833 203 124.578C204.24 125.323 205.458 126.094 206.661 126.896C207.865 127.698 209.042 128.531 210.203 129.391C211.365 130.255 212.505 131.141 213.62 132.062C214.74 132.979 215.833 133.922 216.906 134.891C217.974 135.865 219.021 136.859 220.042 137.88C221.068 138.901 222.062 139.948 223.031 141.021C224.005 142.094 224.948 143.187 225.865 144.302C226.781 145.422 227.672 146.557 228.531 147.719C229.391 148.88 230.224 150.062 231.026 151.266C231.833 152.469 232.604 153.687 233.349 154.927C234.088 156.167 234.802 157.422 235.484 158.698C236.167 159.974 236.812 161.266 237.432 162.573C238.052 163.875 238.635 165.198 239.187 166.536C239.745 167.87 240.26 169.219 240.75 170.578C241.234 171.937 241.687 173.312 242.109 174.693C242.531 176.078 242.917 177.469 243.266 178.875C243.615 180.276 243.932 181.682 244.213 183.104C244.5 184.521 244.745 185.943 244.958 187.375C245.167 188.802 245.344 190.24 245.49 191.677C245.63 193.115 245.734 194.557 245.807 196C245.875 197.443 245.911 198.885 245.911 200.333Z" fill="#442F19"/>
</g>
<mask id="mask58_47_13838" style="mask-type:luminance" maskUnits="userSpaceOnUse" x="69" y="52" width="177" height="178">
<path d="M69.2708 52.4531H246V229.453H69.2708V52.4531Z" fill="white"/>
</mask>
<g mask="url(#mask58_47_13838)">
<path d="M245.911 140.771C245.911 142.219 245.875 143.661 245.807 145.104C245.734 146.552 245.63 147.99 245.49 149.427C245.344 150.87 245.167 152.302 244.958 153.729C244.745 155.161 244.5 156.583 244.213 158.005C243.932 159.422 243.615 160.828 243.266 162.234C242.917 163.635 242.531 165.026 242.109 166.411C241.687 167.792 241.234 169.167 240.75 170.526C240.26 171.885 239.745 173.234 239.187 174.573C238.635 175.906 238.052 177.229 237.432 178.536C236.812 179.839 236.167 181.13 235.484 182.406C234.802 183.682 234.088 184.938 233.349 186.177C232.604 187.417 231.833 188.641 231.026 189.839C230.224 191.042 229.391 192.224 228.531 193.385C227.672 194.547 226.781 195.682 225.865 196.802C224.948 197.922 224.005 199.016 223.031 200.083C222.062 201.156 221.068 202.203 220.042 203.224C219.021 204.245 217.974 205.245 216.906 206.214C215.833 207.182 214.74 208.13 213.62 209.047C212.505 209.964 211.365 210.849 210.203 211.714C209.042 212.573 207.865 213.406 206.661 214.208C205.458 215.01 204.24 215.786 203 216.526C201.76 217.271 200.5 217.984 199.224 218.661C197.953 219.344 196.661 219.995 195.354 220.615C194.047 221.229 192.724 221.818 191.391 222.37C190.057 222.922 188.708 223.443 187.349 223.932C185.984 224.417 184.615 224.87 183.229 225.292C181.849 225.708 180.453 226.094 179.052 226.448C177.651 226.797 176.24 227.115 174.823 227.396C173.406 227.677 171.979 227.927 170.552 228.135C169.12 228.349 167.687 228.526 166.25 228.667C164.812 228.807 163.37 228.917 161.927 228.984C160.484 229.057 159.036 229.094 157.594 229.094C156.146 229.094 154.703 229.057 153.26 228.984C151.812 228.917 150.375 228.807 148.937 228.667C147.495 228.526 146.062 228.349 144.635 228.135C143.203 227.927 141.781 227.677 140.359 227.396C138.943 227.115 137.536 226.797 136.13 226.448C134.729 226.094 133.338 225.708 131.953 225.292C130.573 224.87 129.198 224.417 127.838 223.932C126.479 223.443 125.13 222.922 123.792 222.37C122.458 221.818 121.135 221.229 119.828 220.615C118.526 219.995 117.234 219.344 115.958 218.661C114.682 217.984 113.427 217.271 112.187 216.526C110.948 215.786 109.724 215.01 108.526 214.208C107.323 213.406 106.141 212.573 104.979 211.714C103.818 210.849 102.682 209.964 101.562 209.047C100.443 208.13 99.3489 207.182 98.2812 206.214C97.2083 205.245 96.1614 204.245 95.1405 203.224C94.1197 202.203 93.1197 201.156 92.151 200.083C91.1822 199.016 90.2343 197.922 89.3176 196.802C88.401 195.682 87.5155 194.547 86.651 193.385C85.7916 192.224 84.9583 191.042 84.1562 189.839C83.3541 188.641 82.578 187.417 81.8385 186.177C81.0937 184.938 80.3801 183.682 79.703 182.406C79.0208 181.13 78.3697 179.839 77.7499 178.536C77.1353 177.229 76.5468 175.906 75.9947 174.573C75.4426 173.234 74.9218 171.885 74.4322 170.526C73.9478 169.167 73.4947 167.792 73.0728 166.411C72.6562 165.026 72.2708 163.635 71.9166 162.234C71.5676 160.828 71.2499 159.422 70.9687 158.005C70.6874 156.583 70.4374 155.161 70.2291 153.729C70.0155 152.302 69.8385 150.87 69.6978 149.427C69.5572 147.99 69.4478 146.552 69.3801 145.104C69.3072 143.661 69.2708 142.219 69.2708 140.771C69.2708 139.328 69.3072 137.88 69.3801 136.438C69.4478 134.995 69.5572 133.552 69.6978 132.115C69.8385 130.677 70.0155 129.245 70.2291 127.812C70.4374 126.385 70.6874 124.958 70.9687 123.542C71.2499 122.125 71.5676 120.714 71.9166 119.312C72.2708 117.911 72.6562 116.516 73.0728 115.135C73.4947 113.75 73.9478 112.38 74.4322 111.016C74.9218 109.656 75.4426 108.307 75.9947 106.974C76.5468 105.641 77.1353 104.318 77.7499 103.01C78.3697 101.703 79.0208 100.411 79.703 99.1406C80.3801 97.8646 81.0937 96.6042 81.8385 95.3646C82.578 94.125 83.3541 92.9062 84.1562 91.7031C84.9583 90.5 85.7916 89.3229 86.651 88.1615C87.5155 87 88.401 85.8594 89.3176 84.7448C90.2343 83.625 91.1822 82.5313 92.151 81.4583C93.1197 80.3906 94.1197 79.3438 95.1405 78.3229C96.1614 77.2969 97.2083 76.3021 98.2812 75.3333C99.3489 74.3594 100.443 73.4167 101.562 72.5C102.682 71.5833 103.818 70.6927 104.979 69.8333C106.141 68.974 107.323 68.1406 108.526 67.3385C109.724 66.5313 110.948 65.7604 112.187 65.0156C113.427 64.276 114.682 63.5625 115.958 62.8802C117.234 62.1979 118.526 61.5521 119.828 60.9323C121.135 60.3125 122.458 59.7292 123.792 59.1771C125.13 58.6198 126.479 58.1042 127.838 57.6146C129.198 57.1302 130.573 56.6771 131.953 56.2552C133.338 55.8333 134.729 55.4479 136.13 55.099C137.536 54.75 138.943 54.4323 140.359 54.151C141.781 53.8646 143.203 53.6198 144.635 53.4062C146.062 53.1979 147.495 53.0208 148.937 52.875C150.375 52.7344 151.812 52.6302 153.26 52.5573C154.703 52.4896 156.146 52.4531 157.594 52.4531C159.036 52.4531 160.484 52.4896 161.927 52.5573C163.37 52.6302 164.812 52.7344 166.25 52.875C167.687 53.0208 169.12 53.1979 170.552 53.4062C171.979 53.6198 173.406 53.8646 174.823 54.151C176.24 54.4323 177.651 54.75 179.052 55.099C180.453 55.4479 181.849 55.8333 183.229 56.2552C184.615 56.6771 185.984 57.1302 187.349 57.6146C188.708 58.1042 190.057 58.6198 191.391 59.1771C192.724 59.7292 194.047 60.3125 195.354 60.9323C196.661 61.5521 197.953 62.1979 199.224 62.8802C200.5 63.5625 201.76 64.276 203 65.0156C204.24 65.7604 205.458 66.5313 206.661 67.3385C207.865 68.1406 209.042 68.974 210.203 69.8333C211.365 70.6927 212.505 71.5833 213.62 72.5C214.74 73.4167 215.833 74.3594 216.906 75.3333C217.974 76.3021 219.021 77.2969 220.042 78.3229C221.068 79.3438 222.062 80.3906 223.031 81.4583C224.005 82.5313 224.948 83.625 225.865 84.7448C226.781 85.8594 227.672 87 228.531 88.1615C229.391 89.3229 230.224 90.5 231.026 91.7031C231.833 92.9062 232.604 94.125 233.349 95.3646C234.088 96.6042 234.802 97.8646 235.484 99.1406C236.167 100.411 236.812 101.703 237.432 103.01C238.052 104.318 238.635 105.641 239.187 106.974C239.745 108.307 240.26 109.656 240.75 111.016C241.234 112.38 241.687 113.75 242.109 115.135C242.531 116.516 242.917 117.911 243.266 119.312C243.615 120.714 243.932 122.125 244.213 123.542C244.5 124.958 244.745 126.385 244.958 127.812C245.167 129.245 245.344 130.677 245.49 132.115C245.63 133.552 245.734 134.995 245.807 136.438C245.875 137.88 245.911 139.328 245.911 140.771Z" fill="#EDE0D2"/>
</g>
<mask id="mask59_47_13838" style="mask-type:luminance" maskUnits="userSpaceOnUse" x="168" y="96" width="64" height="64">
<path d="M168.906 96.9219H231.599V159.615H168.906V96.9219Z" fill="white"/>
</mask>
<g mask="url(#mask59_47_13838)">
<mask id="mask60_47_13838" style="mask-type:luminance" maskUnits="userSpaceOnUse" x="168" y="96" width="64" height="64">
<path d="M200.255 96.9219C182.938 96.9219 168.906 110.953 168.906 128.271C168.906 145.583 182.938 159.615 200.255 159.615C217.568 159.615 231.599 145.583 231.599 128.271C231.599 110.953 217.568 96.9219 200.255 96.9219Z" fill="white"/>
</mask>
<g mask="url(#mask60_47_13838)">
<path d="M168.906 96.9219H231.599V159.615H168.906V96.9219Z" fill="white"/>
</g>
</g>
<mask id="mask61_47_13838" style="mask-type:luminance" maskUnits="userSpaceOnUse" x="84" y="96" width="63" height="64">
<path d="M84.1458 96.9219H146.844V159.615H84.1458V96.9219Z" fill="white"/>
</mask>
<g mask="url(#mask61_47_13838)">
<mask id="mask62_47_13838" style="mask-type:luminance" maskUnits="userSpaceOnUse" x="84" y="96" width="63" height="64">
<path d="M115.495 96.9219C98.1822 96.9219 84.1458 110.953 84.1458 128.271C84.1458 145.583 98.1822 159.615 115.495 159.615C132.807 159.615 146.844 145.583 146.844 128.271C146.844 110.953 132.807 96.9219 115.495 96.9219Z" fill="white"/>
</mask>
<g mask="url(#mask62_47_13838)">
<path d="M84.1458 96.9219H146.844V159.615H84.1458V96.9219Z" fill="white"/>
</g>
</g>
<mask id="mask63_47_13838" style="mask-type:luminance" maskUnits="userSpaceOnUse" x="180" y="109" width="40" height="39">
<path d="M180.464 109.229H219.229V147.99H180.464V109.229Z" fill="white"/>
</mask>
<g mask="url(#mask63_47_13838)">
<mask id="mask64_47_13838" style="mask-type:luminance" maskUnits="userSpaceOnUse" x="180" y="109" width="40" height="39">
<path d="M199.849 109.229C189.141 109.229 180.464 117.906 180.464 128.609C180.464 139.312 189.141 147.99 199.849 147.99C210.552 147.99 219.229 139.312 219.229 128.609C219.229 117.906 210.552 109.229 199.849 109.229Z" fill="white"/>
</mask>
<g mask="url(#mask64_47_13838)">
<path d="M180.464 109.229H219.229V147.99H180.464V109.229Z" fill="black"/>
</g>
</g>
<mask id="mask65_47_13838" style="mask-type:luminance" maskUnits="userSpaceOnUse" x="98" y="109" width="39" height="39">
<path d="M98.198 109.229H136.958V147.99H98.198V109.229Z" fill="white"/>
</mask>
<g mask="url(#mask65_47_13838)">
<mask id="mask66_47_13838" style="mask-type:luminance" maskUnits="userSpaceOnUse" x="98" y="109" width="39" height="39">
<path d="M117.578 109.229C106.875 109.229 98.198 117.906 98.198 128.609C98.198 139.312 106.875 147.99 117.578 147.99C128.281 147.99 136.958 139.312 136.958 128.609C136.958 117.906 128.281 109.229 117.578 109.229Z" fill="white"/>
</mask>
<g mask="url(#mask66_47_13838)">
<path d="M98.198 109.229H136.958V147.99H98.198V109.229Z" fill="black"/>
</g>
</g>
<mask id="mask67_47_13838" style="mask-type:luminance" maskUnits="userSpaceOnUse" x="115" y="110" width="20" height="19">
<path d="M115.495 110.047H134.057V128.609H115.495V110.047Z" fill="white"/>
</mask>
<g mask="url(#mask67_47_13838)">
<mask id="mask68_47_13838" style="mask-type:luminance" maskUnits="userSpaceOnUse" x="115" y="110" width="20" height="19">
<path d="M124.776 110.047C119.651 110.047 115.495 114.203 115.495 119.328C115.495 124.453 119.651 128.609 124.776 128.609C129.901 128.609 134.057 124.453 134.057 119.328C134.057 114.203 129.901 110.047 124.776 110.047Z" fill="white"/>
</mask>
<g mask="url(#mask68_47_13838)">
<path d="M115.495 110.047H134.057V128.609H115.495V110.047Z" fill="white"/>
</g>
</g>
<mask id="mask69_47_13838" style="mask-type:luminance" maskUnits="userSpaceOnUse" x="197" y="109" width="20" height="20">
<path d="M197.755 109.708H216.318V128.271H197.755V109.708Z" fill="white"/>
</mask>
<g mask="url(#mask69_47_13838)">
<mask id="mask70_47_13838" style="mask-type:luminance" maskUnits="userSpaceOnUse" x="197" y="109" width="20" height="20">
<path d="M207.036 109.708C201.911 109.708 197.755 113.859 197.755 118.99C197.755 124.115 201.911 128.271 207.036 128.271C212.161 128.271 216.318 124.115 216.318 118.99C216.318 113.859 212.161 109.708 207.036 109.708Z" fill="white"/>
</mask>
<g mask="url(#mask70_47_13838)">
<path d="M197.755 109.708H216.318V128.271H197.755V109.708Z" fill="white"/>
</g>
</g>
<mask id="mask71_47_13838" style="mask-type:luminance" maskUnits="userSpaceOnUse" x="124" y="233" width="66" height="25">
<path d="M124.896 233.099H189.896V257.099H124.896V233.099Z" fill="white"/>
</mask>
<g mask="url(#mask71_47_13838)">
<path d="M182.682 246.354C173.818 243.953 167.182 245.979 162.828 248.547C168.781 242.49 177.865 240.5 180.776 240.005L182.682 246.354ZM172.203 233.135L174.703 239.104C169.99 240.568 163.833 243.412 159.667 248.651C162.302 239.479 169.516 234.646 172.203 233.135ZM142.943 233.135C145.63 234.646 152.844 239.464 155.479 248.667C151.312 243.427 145.156 240.583 140.443 239.12L142.943 233.135ZM134.37 240.005C137.276 240.5 146.365 242.49 152.318 248.547C147.963 245.979 141.328 243.953 132.463 246.354L134.37 240.005ZM161.401 257.427H153.745C152.062 255.25 144.781 248.255 124.896 256.542L126.615 250.979C146.448 241.349 156.245 254.568 156.656 255.146C156.672 255.162 156.687 255.162 156.703 255.182C156.724 255.214 156.74 255.25 156.771 255.266C156.792 255.281 156.792 255.281 156.792 255.302C156.823 255.333 156.859 255.349 156.911 255.37C156.943 255.385 156.979 255.417 157.01 255.438C157.047 255.453 157.078 255.484 157.13 255.505C157.146 255.505 157.167 255.521 157.167 255.521C157.234 255.557 157.318 255.557 157.401 255.573C157.453 255.573 157.49 255.604 157.536 255.604C157.557 255.604 157.573 255.604 157.588 255.604C157.604 255.604 157.625 255.604 157.641 255.604C157.693 255.604 157.724 255.589 157.776 255.573C157.859 255.557 157.932 255.557 158.016 255.521C158.031 255.521 158.047 255.505 158.047 255.505C158.099 255.484 158.135 255.453 158.167 255.438C158.203 255.417 158.234 255.401 158.271 255.37C158.302 255.333 158.354 255.318 158.391 255.302C158.406 255.281 158.406 255.281 158.406 255.266C158.437 255.229 158.458 255.214 158.474 255.182C158.49 255.162 158.51 255.162 158.526 255.146C158.932 254.568 168.729 241.349 188.568 250.979L190.286 256.542C170.38 248.255 163.083 255.266 161.401 257.427Z" fill="#EDE0D2"/>
</g>
<mask id="mask72_47_13838" style="mask-type:luminance" maskUnits="userSpaceOnUse" x="139" y="254" width="109" height="94">
<path d="M139.333 254H247.333V347.333H139.333V254Z" fill="white"/>
</mask>
<g mask="url(#mask72_47_13838)">
<mask id="mask73_47_13838" style="mask-type:luminance" maskUnits="userSpaceOnUse" x="131" y="245" width="125" height="111">
<path d="M131.604 323.016L230.031 245.969L255.302 278.25L156.875 355.302L131.604 323.016Z" fill="white"/>
</mask>
<g mask="url(#mask73_47_13838)">
<mask id="mask74_47_13838" style="mask-type:luminance" maskUnits="userSpaceOnUse" x="131" y="245" width="125" height="111">
<path d="M230.067 245.938L131.64 322.99L156.911 355.271L255.338 278.224L230.067 245.938Z" fill="white"/>
</mask>
<g mask="url(#mask74_47_13838)">
<path d="M172.989 342.563L239.104 290.807C247.948 283.88 249.505 271.094 242.583 262.245C235.656 253.401 222.869 251.844 214.021 258.766L147.906 310.521C139.062 317.443 137.505 330.234 144.427 339.083C151.354 347.927 164.146 349.484 172.989 342.563Z" fill="#604428"/>
<path d="M173.114 342.719L239.224 290.964C248.151 283.974 249.724 271.047 242.739 262.125C235.75 253.198 222.823 251.625 213.901 258.609L147.786 310.365C138.859 317.349 137.286 330.281 144.271 339.203C151.26 348.125 164.187 349.703 173.114 342.719ZM214.146 258.922C222.896 252.073 235.573 253.615 242.427 262.37C249.276 271.12 247.734 283.797 238.979 290.651L172.87 342.406C164.114 349.255 151.437 347.708 144.583 338.958C137.734 330.208 139.276 317.526 148.031 310.677L214.146 258.922Z" fill="#604428"/>
</g>
</g>
</g>
<mask id="mask75_47_13838" style="mask-type:luminance" maskUnits="userSpaceOnUse" x="120" y="208" width="129" height="112">
<path d="M120.667 208.667H248.667V319.333H120.667V208.667Z" fill="white"/>
</mask>
<g mask="url(#mask75_47_13838)">
<mask id="mask76_47_13838" style="mask-type:luminance" maskUnits="userSpaceOnUse" x="110" y="198" width="149" height="132">
<path d="M110.984 290.49L228.312 198.646L258.516 237.229L141.188 329.073L110.984 290.49Z" fill="white"/>
</mask>
<g mask="url(#mask76_47_13838)">
<mask id="mask77_47_13838" style="mask-type:luminance" maskUnits="userSpaceOnUse" x="110" y="198" width="149" height="132">
<path d="M228.005 198.885L110.677 290.729L140.88 329.313L258.208 237.469L228.005 198.885Z" fill="white"/>
</mask>
<g mask="url(#mask77_47_13838)">
<path d="M160.167 313.708L238.734 252.203C249.25 243.974 251.099 228.776 242.87 218.26C234.641 207.75 219.443 205.896 208.927 214.125L130.359 275.63C119.844 283.865 117.995 299.062 126.224 309.573C134.453 320.089 149.651 321.937 160.167 313.708Z" fill="#604428"/>
<path d="M160.312 313.896L238.88 252.391C249.49 244.089 251.359 228.724 243.057 218.115C234.755 207.51 219.391 205.641 208.781 213.943L130.214 275.448C119.609 283.75 117.734 299.115 126.036 309.719C134.339 320.328 149.708 322.198 160.312 313.896ZM209.073 214.313C219.474 206.172 234.542 208.005 242.687 218.406C250.828 228.807 248.995 243.875 238.589 252.021L160.021 313.526C149.62 321.667 134.552 319.833 126.411 309.432C118.266 299.026 120.104 283.958 130.505 275.818L209.073 214.313Z" fill="#604428"/>
</g>
</g>
</g>
<mask id="mask78_47_13838" style="mask-type:luminance" maskUnits="userSpaceOnUse" x="124" y="164" width="129" height="113">
<path d="M124.667 164.667H252.667V276.667H124.667V164.667Z" fill="white"/>
</mask>
<g mask="url(#mask78_47_13838)">
<mask id="mask79_47_13838" style="mask-type:luminance" maskUnits="userSpaceOnUse" x="115" y="155" width="148" height="131">
<path d="M115.38 247.208L232.703 155.365L262.912 193.948L145.583 285.792L115.38 247.208Z" fill="white"/>
</mask>
<g mask="url(#mask79_47_13838)">
<mask id="mask80_47_13838" style="mask-type:luminance" maskUnits="userSpaceOnUse" x="115" y="155" width="148" height="132">
<path d="M232.396 155.604L115.073 247.448L145.276 286.036L262.599 194.187L232.396 155.604Z" fill="white"/>
</mask>
<g mask="url(#mask80_47_13838)">
<path d="M164.562 270.427L243.13 208.922C253.646 200.693 255.495 185.495 247.266 174.979C239.036 164.469 223.833 162.615 213.323 170.844L134.755 232.354C124.24 240.583 122.391 255.781 130.62 266.292C138.849 276.807 154.047 278.661 164.562 270.427Z" fill="#604428"/>
<path d="M164.708 270.615L243.276 209.109C253.88 200.807 255.755 185.443 247.453 174.833C239.151 164.229 223.781 162.359 213.177 170.661L134.609 232.167C124 240.469 122.13 255.833 130.432 266.438C138.734 277.047 154.099 278.917 164.708 270.615ZM213.469 171.031C223.87 162.891 238.938 164.724 247.078 175.125C255.224 185.526 253.385 200.594 242.984 208.74L164.417 270.245C154.016 278.385 138.948 276.552 130.802 266.151C122.661 255.745 124.495 240.682 134.896 232.536L213.469 171.031Z" fill="#604428"/>
</g>
</g>
</g>
<mask id="mask81_47_13838" style="mask-type:luminance" maskUnits="userSpaceOnUse" x="228" y="28" width="113" height="134">
<path d="M228.667 28.6666H340.667V162H228.667V28.6666Z" fill="white"/>
</mask>
<g mask="url(#mask81_47_13838)">
<mask id="mask82_47_13838" style="mask-type:luminance" maskUnits="userSpaceOnUse" x="209" y="2" width="178" height="185">
<path d="M289.12 186.031L209.24 68.6302L306.802 2.25L386.682 119.651L289.12 186.031Z" fill="white"/>
</mask>
<g mask="url(#mask82_47_13838)">
<mask id="mask83_47_13838" style="mask-type:luminance" maskUnits="userSpaceOnUse" x="209" y="2" width="178" height="185">
<path d="M289.12 186.031L209.24 68.6302L306.802 2.25L386.682 119.651L289.12 186.031Z" fill="white"/>
</mask>
<g mask="url(#mask83_47_13838)">
<mask id="mask84_47_13838" style="mask-type:luminance" maskUnits="userSpaceOnUse" x="209" y="2" width="178" height="185">
<path d="M289.12 186.031L209.24 68.6302L306.802 2.25L386.682 119.651L289.12 186.031Z" fill="white"/>
</mask>
<g mask="url(#mask84_47_13838)">
<path d="M263.917 147.214C263.49 147.687 263.516 148.38 263.99 148.802C264.292 149.083 264.766 149.172 265.146 149.026C272.375 146.5 286.401 142.854 299.349 147.036C308.339 149.953 316.568 154.927 323.328 161.526C323.776 161.964 324.49 161.969 324.927 161.521C325.235 161.198 325.313 160.771 325.188 160.37C322.688 152.964 319.12 139.557 321.828 129.687C323.974 121.88 334.115 109.344 339.208 103.411C339.589 102.932 339.547 102.214 339.063 101.833C338.776 101.578 338.349 101.495 337.995 101.625C330.469 104.208 314.292 108.641 303 104.042C292.901 99.9323 284.729 93.2864 280.396 89.3281C279.922 88.9062 279.219 88.9687 278.797 89.4427C278.542 89.7292 278.443 90.1302 278.578 90.4896C280.766 97.3281 284.177 110.5 281.448 118.703C277.219 131.437 268.787 141.88 263.917 147.214ZM284.156 64.4062C283.901 64.6875 283.932 65.1146 284.219 65.3698C284.406 65.5417 284.667 65.5885 284.901 65.5C289.323 63.9479 297.912 61.7292 305.813 64.3021C311.313 66.0885 316.333 69.1354 320.469 73.1875C320.729 73.4583 321.172 73.4583 321.427 73.1719C321.594 72.9844 321.672 72.7083 321.583 72.4687C320.063 67.9375 317.844 59.7396 319.516 53.7135C320.818 48.9427 327.042 41.276 330.151 37.6302C330.401 37.3437 330.354 36.8906 330.089 36.6614C329.901 36.4896 329.662 36.4687 329.401 36.5312C324.802 38.0937 314.917 40.8229 308.016 38.0156C301.834 35.5 296.834 31.4375 294.182 29.0208C293.896 28.7656 293.469 28.7969 293.214 29.0781C293.047 29.2708 293 29.526 293.068 29.7396C294.401 33.9479 296.505 41.9635 294.818 46.9948C292.307 54.75 287.151 61.1354 284.156 64.4062ZM228.87 74.7292C228.698 74.9167 228.714 75.2083 228.901 75.375C229.016 75.4896 229.188 75.5208 229.375 75.4687C232.323 74.4323 237.99 72.9635 243.261 74.6823C246.896 75.8646 250.245 77.8802 253 80.5625C253.193 80.7292 253.453 80.7396 253.641 80.5729C253.776 80.4427 253.807 80.2708 253.729 80.1042C252.724 77.0885 251.266 71.6614 252.365 67.6302C253.229 64.4635 257.365 59.3698 259.417 56.9635C259.589 56.776 259.552 56.5052 259.36 56.3333C259.25 56.2239 259.078 56.1875 258.932 56.25C255.875 57.2864 249.318 59.0989 244.724 57.2187C240.62 55.5677 237.313 52.8489 235.537 51.2239C235.344 51.0521 235.057 51.0677 234.886 51.2552C234.776 51.3646 234.745 51.5364 234.781 51.7031C235.672 54.4896 237.063 59.8177 235.943 63.1562C234.261 68.2969 230.854 72.5521 228.87 74.7292Z" fill="#FADB5E"/>
</g>
</g>
</g>
</g>
<mask id="mask85_47_13838" style="mask-type:luminance" maskUnits="userSpaceOnUse" x="147" y="163" width="37" height="25">
<path d="M147.333 163.333H183.333V187.333H147.333V163.333Z" fill="white"/>
</mask>
<g mask="url(#mask85_47_13838)">
<mask id="mask86_47_13838" style="mask-type:luminance" maskUnits="userSpaceOnUse" x="144" y="160" width="41" height="31">
<path d="M144.708 173.724L178.13 160.354L184.818 177.068L151.391 190.438L144.708 173.724Z" fill="white"/>
</mask>
<g mask="url(#mask86_47_13838)">
<mask id="mask87_47_13838" style="mask-type:luminance" maskUnits="userSpaceOnUse" x="144" y="160" width="41" height="31">
<path d="M144.708 173.724L178.13 160.354L184.818 177.068L151.391 190.438L144.708 173.724Z" fill="white"/>
</mask>
<g mask="url(#mask87_47_13838)">
<path d="M181.984 168.688C182.208 169.245 182.318 169.839 182.323 170.474C182.323 171.104 182.213 171.766 181.995 172.448C181.776 173.135 181.448 173.833 181.016 174.542C180.583 175.255 180.052 175.964 179.422 176.672C178.797 177.38 178.078 178.073 177.281 178.755C176.479 179.432 175.609 180.083 174.667 180.708C173.724 181.333 172.729 181.917 171.682 182.464C170.635 183.01 169.552 183.505 168.443 183.948C167.328 184.391 166.208 184.776 165.073 185.104C163.937 185.432 162.812 185.698 161.703 185.896C160.588 186.089 159.505 186.219 158.458 186.281C157.411 186.339 156.417 186.328 155.469 186.25C154.526 186.172 153.651 186.021 152.849 185.807C152.047 185.589 151.328 185.307 150.698 184.964C150.068 184.62 149.531 184.219 149.099 183.755C148.661 183.297 148.333 182.787 148.109 182.229C147.885 181.672 147.776 181.078 147.771 180.443C147.771 179.813 147.88 179.151 148.099 178.469C148.318 177.781 148.646 177.083 149.078 176.375C149.51 175.662 150.042 174.953 150.672 174.245C151.297 173.537 152.01 172.844 152.812 172.162C153.615 171.484 154.484 170.833 155.427 170.208C156.37 169.583 157.365 169 158.411 168.453C159.458 167.906 160.542 167.412 161.651 166.969C162.766 166.526 163.885 166.141 165.021 165.813C166.156 165.484 167.281 165.219 168.391 165.021C169.505 164.828 170.588 164.698 171.635 164.635C172.682 164.578 173.677 164.589 174.625 164.667C175.568 164.745 176.443 164.896 177.245 165.109C178.047 165.328 178.766 165.609 179.396 165.953C180.026 166.297 180.562 166.698 180.995 167.162C181.432 167.62 181.76 168.13 181.984 168.688Z" fill="#FCD590"/>
</g>
</g>
</g>
<mask id="mask88_47_13838" style="mask-type:luminance" maskUnits="userSpaceOnUse" x="131" y="164" width="38" height="24">
<path d="M131.333 164.667H168.667V187.333H131.333V164.667Z" fill="white"/>
</mask>
<g mask="url(#mask88_47_13838)">
<mask id="mask89_47_13838" style="mask-type:luminance" maskUnits="userSpaceOnUse" x="129" y="161" width="41" height="30">
<path d="M135.766 161.646L169.849 173.234L164.057 190.276L129.974 178.687L135.766 161.646Z" fill="white"/>
</mask>
<g mask="url(#mask89_47_13838)">
<mask id="mask90_47_13838" style="mask-type:luminance" maskUnits="userSpaceOnUse" x="129" y="161" width="41" height="30">
<path d="M135.766 161.646L169.849 173.234L164.057 190.276L129.974 178.687L135.766 161.646Z" fill="white"/>
</mask>
<g mask="url(#mask90_47_13838)">
<path d="M167.359 182.062C167.167 182.63 166.864 183.156 166.453 183.641C166.042 184.12 165.531 184.552 164.917 184.932C164.307 185.307 163.604 185.625 162.812 185.885C162.021 186.141 161.156 186.338 160.219 186.463C159.281 186.594 158.286 186.656 157.234 186.651C156.187 186.646 155.099 186.573 153.979 186.437C152.854 186.297 151.719 186.094 150.568 185.828C149.422 185.562 148.276 185.234 147.146 184.849C146.01 184.463 144.906 184.026 143.833 183.536C142.755 183.047 141.734 182.516 140.76 181.943C139.786 181.37 138.88 180.766 138.047 180.125C137.208 179.49 136.458 178.833 135.792 178.161C135.13 177.484 134.562 176.807 134.094 176.12C133.62 175.432 133.26 174.75 133.005 174.078C132.75 173.406 132.604 172.755 132.573 172.12C132.542 171.49 132.625 170.891 132.818 170.318C133.01 169.75 133.312 169.224 133.724 168.745C134.13 168.26 134.646 167.833 135.255 167.453C135.87 167.078 136.573 166.76 137.359 166.5C138.151 166.245 139.016 166.047 139.953 165.917C140.896 165.792 141.891 165.729 142.937 165.734C143.989 165.74 145.073 165.807 146.198 165.948C147.318 166.088 148.453 166.292 149.604 166.557C150.755 166.823 151.896 167.151 153.031 167.536C154.167 167.922 155.271 168.359 156.344 168.849C157.417 169.338 158.443 169.87 159.417 170.443C160.391 171.016 161.292 171.62 162.13 172.255C162.963 172.896 163.713 173.547 164.38 174.224C165.047 174.896 165.614 175.578 166.083 176.266C166.552 176.953 166.917 177.63 167.172 178.302C167.427 178.979 167.568 179.63 167.599 180.26C167.63 180.896 167.552 181.495 167.359 182.062Z" fill="#FCD590"/>
</g>
</g>
</g>
<mask id="mask91_47_13838" style="mask-type:luminance" maskUnits="userSpaceOnUse" x="131" y="168" width="35" height="22">
<path d="M131.333 168.667H166V190H131.333V168.667Z" fill="white"/>
</mask>
<g mask="url(#mask91_47_13838)">
<mask id="mask92_47_13838" style="mask-type:luminance" maskUnits="userSpaceOnUse" x="128" y="165" width="40" height="29">
<path d="M134.599 165.078L167.734 176.344L161.943 193.385L128.802 182.12L134.599 165.078Z" fill="white"/>
</mask>
<g mask="url(#mask92_47_13838)">
<mask id="mask93_47_13838" style="mask-type:luminance" maskUnits="userSpaceOnUse" x="128" y="165" width="40" height="29">
<path d="M134.599 165.078L167.734 176.344L161.943 193.385L128.802 182.12L134.599 165.078Z" fill="white"/>
</mask>
<g mask="url(#mask93_47_13838)">
<path d="M164.823 184.609C164.641 185.156 164.349 185.656 163.958 186.12C163.568 186.583 163.078 186.995 162.489 187.354C161.906 187.714 161.234 188.021 160.474 188.266C159.719 188.516 158.891 188.698 157.995 188.823C157.099 188.948 156.146 189.005 155.141 189C154.135 188.995 153.094 188.927 152.021 188.797C150.948 188.661 149.864 188.469 148.766 188.214C147.661 187.958 146.568 187.646 145.484 187.276C144.401 186.906 143.344 186.49 142.318 186.021C141.286 185.552 140.307 185.047 139.375 184.495C138.443 183.948 137.578 183.37 136.781 182.76C135.979 182.151 135.26 181.521 134.625 180.875C133.989 180.234 133.448 179.583 132.995 178.922C132.547 178.266 132.203 177.615 131.958 176.974C131.713 176.328 131.573 175.703 131.547 175.099C131.516 174.495 131.594 173.922 131.776 173.375C131.963 172.833 132.25 172.328 132.646 171.87C133.036 171.406 133.526 170.995 134.114 170.635C134.698 170.271 135.37 169.969 136.125 169.724C136.88 169.474 137.708 169.286 138.609 169.167C139.505 169.042 140.458 168.984 141.463 168.984C142.469 168.99 143.505 169.057 144.578 169.193C145.651 169.323 146.739 169.521 147.838 169.776C148.937 170.031 150.031 170.344 151.114 170.714C152.203 171.083 153.26 171.5 154.286 171.969C155.312 172.438 156.297 172.943 157.224 173.495C158.156 174.042 159.021 174.62 159.823 175.229C160.62 175.839 161.338 176.464 161.974 177.109C162.614 177.755 163.156 178.406 163.604 179.062C164.052 179.719 164.401 180.37 164.646 181.016C164.891 181.656 165.026 182.281 165.057 182.891C165.088 183.495 165.01 184.068 164.823 184.609Z" fill="#FFB93E"/>
</g>
</g>
</g>
<mask id="mask94_47_13838" style="mask-type:luminance" maskUnits="userSpaceOnUse" x="148" y="167" width="37" height="23">
<path d="M148.667 167.333H184.667V190H148.667V167.333Z" fill="white"/>
</mask>
<g mask="url(#mask94_47_13838)">
<mask id="mask95_47_13838" style="mask-type:luminance" maskUnits="userSpaceOnUse" x="146" y="163" width="41" height="31">
<path d="M146.052 177.089L179.479 163.724L186.162 180.438L152.735 193.802L146.052 177.089Z" fill="white"/>
</mask>
<g mask="url(#mask95_47_13838)">
<mask id="mask96_47_13838" style="mask-type:luminance" maskUnits="userSpaceOnUse" x="146" y="163" width="41" height="31">
<path d="M146.052 177.089L179.479 163.724L186.162 180.438L152.735 193.802L146.052 177.089Z" fill="white"/>
</mask>
<g mask="url(#mask96_47_13838)">
<path d="M183.334 172.052C183.552 172.609 183.667 173.208 183.667 173.839C183.672 174.474 183.563 175.13 183.344 175.818C183.12 176.5 182.797 177.198 182.365 177.911C181.933 178.62 181.401 179.333 180.771 180.042C180.141 180.75 179.427 181.443 178.625 182.12C177.828 182.802 176.953 183.453 176.011 184.078C175.068 184.703 174.073 185.286 173.026 185.833C171.979 186.375 170.901 186.87 169.787 187.318C168.677 187.76 167.552 188.146 166.417 188.474C165.287 188.802 164.162 189.062 163.047 189.26C161.938 189.458 160.854 189.589 159.808 189.646C158.755 189.708 157.761 189.698 156.818 189.62C155.875 189.536 155 189.391 154.198 189.172C153.391 188.958 152.677 188.677 152.042 188.333C151.412 187.99 150.88 187.583 150.443 187.125C150.005 186.667 149.677 186.156 149.453 185.599C149.235 185.042 149.12 184.448 149.12 183.812C149.115 183.177 149.224 182.521 149.448 181.833C149.667 181.151 149.99 180.453 150.422 179.74C150.854 179.031 151.386 178.323 152.016 177.615C152.646 176.906 153.36 176.208 154.162 175.531C154.964 174.849 155.834 174.198 156.776 173.573C157.719 172.953 158.714 172.365 159.761 171.823C160.808 171.276 161.886 170.781 163 170.339C164.11 169.891 165.235 169.505 166.37 169.177C167.505 168.849 168.625 168.589 169.74 168.391C170.854 168.193 171.933 168.062 172.979 168.005C174.032 167.943 175.026 167.953 175.969 168.031C176.917 168.115 177.787 168.26 178.589 168.479C179.396 168.693 180.11 168.974 180.745 169.318C181.375 169.667 181.907 170.068 182.344 170.526C182.782 170.984 183.11 171.495 183.334 172.052Z" fill="#FFB93E"/>
</g>
</g>
</g>
</svg>
