<svg width="430" height="341" viewBox="0 0 430 341" fill="none" xmlns="http://www.w3.org/2000/svg">
<mask id="mask0_47_13847" style="mask-type:luminance" maskUnits="userSpaceOnUse" x="231" y="160" width="137" height="45">
<path d="M231.667 160.156H367.005V204.667H231.667V160.156Z" fill="white"/>
</mask>
<g mask="url(#mask0_47_13847)">
<path d="M253.75 204.479H344.74C356.917 204.479 366.792 194.604 366.792 182.432C366.792 170.255 356.917 160.385 344.74 160.385H253.75C241.578 160.385 231.703 170.255 231.703 182.432C231.703 194.604 241.578 204.479 253.75 204.479Z" fill="#604428"/>
</g>
<mask id="mask1_47_13847" style="mask-type:luminance" maskUnits="userSpaceOnUse" x="231" y="160" width="137" height="46">
<path d="M231.49 160.156H367.005V205.156H231.49V160.156Z" fill="white"/>
</mask>
<g mask="url(#mask1_47_13847)">
<path d="M253.75 204.693H344.74C357.026 204.693 367.005 194.714 367.005 182.432C367.005 170.151 357.026 160.167 344.74 160.167H253.75C241.469 160.167 231.49 170.151 231.49 182.432C231.49 194.714 241.469 204.693 253.75 204.693ZM344.74 160.599C356.786 160.599 366.573 170.385 366.573 182.432C366.573 194.479 356.786 204.266 344.74 204.266H253.75C241.708 204.266 231.917 194.479 231.917 182.432C231.917 170.385 241.708 160.599 253.75 160.599H344.74Z" fill="#604428"/>
</g>
<mask id="mask2_47_13847" style="mask-type:luminance" maskUnits="userSpaceOnUse" x="235" y="118" width="162" height="54">
<path d="M235.667 118.625H396.62V171.333H235.667V118.625Z" fill="white"/>
</mask>
<g mask="url(#mask2_47_13847)">
<path d="M262.078 171.292H370.208C384.677 171.292 396.411 159.563 396.411 145.094C396.411 130.625 384.677 118.891 370.208 118.891H262.078C247.609 118.891 235.875 130.625 235.875 145.094C235.875 159.563 247.609 171.292 262.078 171.292Z" fill="#604428"/>
</g>
<mask id="mask3_47_13847" style="mask-type:luminance" maskUnits="userSpaceOnUse" x="235" y="118" width="162" height="54">
<path d="M235.667 118.625H396.62V171.625H235.667V118.625Z" fill="white"/>
</mask>
<g mask="url(#mask3_47_13847)">
<path d="M262.078 171.552H370.208C384.807 171.552 396.667 159.687 396.667 145.094C396.667 130.495 384.807 118.635 370.208 118.635H262.078C247.479 118.635 235.62 130.495 235.62 145.094C235.62 159.687 247.479 171.552 262.078 171.552ZM370.208 119.146C384.526 119.146 396.156 130.776 396.156 145.094C396.156 159.406 384.526 171.036 370.208 171.036H262.078C247.76 171.036 236.13 159.406 236.13 145.094C236.13 130.776 247.76 119.146 262.078 119.146H370.208Z" fill="#604428"/>
</g>
<mask id="mask4_47_13847" style="mask-type:luminance" maskUnits="userSpaceOnUse" x="268" y="84" width="162" height="54">
<path d="M268.328 84.6666H429.281V137.625H268.328V84.6666Z" fill="white"/>
</mask>
<g mask="url(#mask4_47_13847)">
<path d="M294.74 137.297H402.87C417.338 137.297 429.073 125.563 429.073 111.094C429.073 96.625 417.338 84.8906 402.87 84.8906H294.74C280.271 84.8906 268.536 96.625 268.536 111.094C268.536 125.563 280.271 137.297 294.74 137.297Z" fill="#604428"/>
</g>
<mask id="mask5_47_13847" style="mask-type:luminance" maskUnits="userSpaceOnUse" x="268" y="84" width="162" height="54">
<path d="M268.328 84.625H429.281V137.625H268.328V84.625Z" fill="white"/>
</mask>
<g mask="url(#mask5_47_13847)">
<path d="M294.74 137.552H402.87C417.469 137.552 429.328 125.687 429.328 111.094C429.328 96.4948 417.469 84.6354 402.87 84.6354H294.74C280.146 84.6354 268.281 96.4948 268.281 111.094C268.281 125.687 280.146 137.552 294.74 137.552ZM402.87 85.1458C417.188 85.1458 428.818 96.776 428.818 111.094C428.818 125.406 417.188 137.036 402.87 137.036H294.74C280.427 137.036 268.792 125.406 268.792 111.094C268.792 96.776 280.427 85.1458 294.74 85.1458H402.87Z" fill="#604428"/>
</g>
<mask id="mask6_47_13847" style="mask-type:luminance" maskUnits="userSpaceOnUse" x="223" y="256" width="18" height="61">
<path d="M223.667 256.667H241V316.667H223.667V256.667Z" fill="white"/>
</mask>
<g mask="url(#mask6_47_13847)">
<mask id="mask7_47_13847" style="mask-type:luminance" maskUnits="userSpaceOnUse" x="223" y="256" width="18" height="61">
<path d="M223.594 315.193L232.62 256.891L240.526 258.115L231.5 316.417L223.594 315.193Z" fill="white"/>
</mask>
<g mask="url(#mask7_47_13847)">
<mask id="mask8_47_13847" style="mask-type:luminance" maskUnits="userSpaceOnUse" x="223" y="256" width="18" height="61">
<path d="M223.594 315.193L232.62 256.891L240.526 258.115L231.5 316.417L223.594 315.193Z" fill="white"/>
</mask>
<g mask="url(#mask8_47_13847)">
<path d="M231.979 261.151L231.328 265.333H231.344L224.917 306.839L224.906 306.833L224.255 311.016C223.901 313.323 225.484 315.49 227.792 315.844C230.094 316.203 232.26 314.615 232.62 312.313L240.338 262.443C240.698 260.141 239.125 257.974 236.818 257.62C234.51 257.26 232.333 258.844 231.979 261.151Z" fill="#FCD590"/>
</g>
</g>
</g>
<mask id="mask9_47_13847" style="mask-type:luminance" maskUnits="userSpaceOnUse" x="225" y="295" width="7" height="18">
<path d="M225 295.333H231.667V312.667H225V295.333Z" fill="white"/>
</mask>
<g mask="url(#mask9_47_13847)">
<mask id="mask10_47_13847" style="mask-type:luminance" maskUnits="userSpaceOnUse" x="223" y="256" width="18" height="61">
<path d="M223.594 315.193L232.62 256.891L240.526 258.115L231.5 316.417L223.594 315.193Z" fill="white"/>
</mask>
<g mask="url(#mask10_47_13847)">
<mask id="mask11_47_13847" style="mask-type:luminance" maskUnits="userSpaceOnUse" x="223" y="256" width="18" height="61">
<path d="M223.594 315.193L232.62 256.891L240.526 258.115L231.5 316.417L223.594 315.193Z" fill="white"/>
</mask>
<g mask="url(#mask11_47_13847)">
<path d="M228.589 296.839L226.344 311.339C226.25 311.922 226.646 312.458 227.229 312.552C227.807 312.641 228.349 312.245 228.438 311.661L229.083 307.484L229.073 307.479L230.667 297.177C230.76 296.594 230.365 296.057 229.781 295.964C229.203 295.875 228.677 296.271 228.589 296.839Z" fill="#FCD590"/>
</g>
</g>
</g>
<mask id="mask12_47_13847" style="mask-type:luminance" maskUnits="userSpaceOnUse" x="182" y="248" width="19" height="60">
<path d="M182.333 248.667H201V307.333H182.333V248.667Z" fill="white"/>
</mask>
<g mask="url(#mask12_47_13847)">
<mask id="mask13_47_13847" style="mask-type:luminance" maskUnits="userSpaceOnUse" x="182" y="248" width="18" height="60">
<path d="M182.943 306.474L191.969 248.167L199.875 249.391L190.849 307.698L182.943 306.474Z" fill="white"/>
</mask>
<g mask="url(#mask13_47_13847)">
<mask id="mask14_47_13847" style="mask-type:luminance" maskUnits="userSpaceOnUse" x="182" y="248" width="18" height="60">
<path d="M182.943 306.474L191.969 248.167L199.875 249.391L190.849 307.698L182.943 306.474Z" fill="white"/>
</mask>
<g mask="url(#mask14_47_13847)">
<path d="M191.328 252.427L190.682 256.609H190.693L184.265 298.115H184.255L183.609 302.292C183.25 304.599 184.833 306.766 187.14 307.12C189.448 307.479 191.614 305.896 191.969 303.589L199.687 253.724C200.047 251.417 198.474 249.255 196.167 248.896C193.864 248.536 191.687 250.12 191.328 252.427Z" fill="#FCD590"/>
</g>
</g>
</g>
<mask id="mask15_47_13847" style="mask-type:luminance" maskUnits="userSpaceOnUse" x="185" y="286" width="6" height="19">
<path d="M185 286H190.333V304.667H185V286Z" fill="white"/>
</mask>
<g mask="url(#mask15_47_13847)">
<mask id="mask16_47_13847" style="mask-type:luminance" maskUnits="userSpaceOnUse" x="182" y="248" width="18" height="60">
<path d="M182.943 306.474L191.969 248.167L199.875 249.391L190.849 307.698L182.943 306.474Z" fill="white"/>
</mask>
<g mask="url(#mask16_47_13847)">
<mask id="mask17_47_13847" style="mask-type:luminance" maskUnits="userSpaceOnUse" x="182" y="248" width="18" height="60">
<path d="M182.943 306.474L191.969 248.167L199.875 249.391L190.849 307.698L182.943 306.474Z" fill="white"/>
</mask>
<g mask="url(#mask17_47_13847)">
<path d="M187.937 288.12L185.693 302.615C185.604 303.198 185.995 303.74 186.578 303.828C187.161 303.917 187.698 303.526 187.786 302.943L188.437 298.76H188.422L190.021 288.453C190.109 287.87 189.719 287.333 189.135 287.245C188.552 287.151 188.026 287.547 187.937 288.12Z" fill="#FCD590"/>
</g>
</g>
</g>
<mask id="mask18_47_13847" style="mask-type:luminance" maskUnits="userSpaceOnUse" x="163" y="282" width="37" height="44">
<path d="M163.667 282H199.667V326H163.667V282Z" fill="white"/>
</mask>
<g mask="url(#mask18_47_13847)">
<mask id="mask19_47_13847" style="mask-type:luminance" maskUnits="userSpaceOnUse" x="162" y="280" width="40" height="47">
<path d="M194.74 326.974L162.323 285.042L168.651 280.151L201.068 322.078L194.74 326.974Z" fill="white"/>
</mask>
<g mask="url(#mask19_47_13847)">
<mask id="mask20_47_13847" style="mask-type:luminance" maskUnits="userSpaceOnUse" x="162" y="280" width="40" height="47">
<path d="M194.74 326.974L162.323 285.042L168.651 280.151L201.068 322.078L194.74 326.974Z" fill="white"/>
</mask>
<g mask="url(#mask20_47_13847)">
<path d="M164.734 288.135L167.057 291.141L167.063 291.135L190.115 320.953L190.109 320.958L192.427 323.964C193.708 325.62 196.099 325.922 197.755 324.641C199.411 323.365 199.719 320.974 198.438 319.318L170.74 283.495C169.458 281.839 167.078 281.526 165.422 282.807C163.766 284.083 163.453 286.479 164.734 288.135Z" fill="#FCD590"/>
</g>
</g>
</g>
<mask id="mask21_47_13847" style="mask-type:luminance" maskUnits="userSpaceOnUse" x="185" y="310" width="11" height="14">
<path d="M185 310H195.667V323.333H185V310Z" fill="white"/>
</mask>
<g mask="url(#mask21_47_13847)">
<mask id="mask22_47_13847" style="mask-type:luminance" maskUnits="userSpaceOnUse" x="162" y="280" width="40" height="47">
<path d="M194.74 326.974L162.323 285.042L168.651 280.151L201.068 322.078L194.74 326.974Z" fill="white"/>
</mask>
<g mask="url(#mask22_47_13847)">
<mask id="mask23_47_13847" style="mask-type:luminance" maskUnits="userSpaceOnUse" x="162" y="280" width="40" height="47">
<path d="M194.74 326.974L162.323 285.042L168.651 280.151L201.068 322.078L194.74 326.974Z" fill="white"/>
</mask>
<g mask="url(#mask23_47_13847)">
<path d="M185.875 312.385L193.927 322.802C194.25 323.224 194.844 323.297 195.26 322.974C195.682 322.651 195.755 322.057 195.432 321.641L193.109 318.635L193.104 318.641L187.38 311.24C187.057 310.818 186.464 310.745 186.042 311.068C185.625 311.391 185.557 311.979 185.875 312.385Z" fill="#FCD590"/>
</g>
</g>
</g>
<mask id="mask24_47_13847" style="mask-type:luminance" maskUnits="userSpaceOnUse" x="154" y="300" width="54" height="13">
<path d="M154.333 300.667H207.667V312.667H154.333V300.667Z" fill="white"/>
</mask>
<g mask="url(#mask24_47_13847)">
<mask id="mask25_47_13847" style="mask-type:luminance" maskUnits="userSpaceOnUse" x="154" y="300" width="54" height="13">
<path d="M207.734 308.906L154.839 312.286L154.328 304.302L207.224 300.927L207.734 308.906Z" fill="white"/>
</mask>
<g mask="url(#mask25_47_13847)">
<mask id="mask26_47_13847" style="mask-type:luminance" maskUnits="userSpaceOnUse" x="154" y="300" width="54" height="13">
<path d="M207.734 308.906L154.839 312.286L154.328 304.302L207.224 300.927L207.734 308.906Z" fill="white"/>
</mask>
<g mask="url(#mask26_47_13847)">
<path d="M158.755 312.021L162.542 311.781V311.771L200.151 309.37L200.156 309.38L203.943 309.136C206.031 309.005 207.625 307.198 207.489 305.104C207.354 303.016 205.547 301.427 203.458 301.557L158.271 304.443C156.177 304.578 154.588 306.375 154.719 308.464C154.854 310.552 156.661 312.156 158.75 312.021H158.755Z" fill="#FCD590"/>
</g>
</g>
</g>
<mask id="mask27_47_13847" style="mask-type:luminance" maskUnits="userSpaceOnUse" x="189" y="304" width="16" height="5">
<path d="M189 304.667H205V308.667H189V304.667Z" fill="white"/>
</mask>
<g mask="url(#mask27_47_13847)">
<mask id="mask28_47_13847" style="mask-type:luminance" maskUnits="userSpaceOnUse" x="154" y="300" width="54" height="13">
<path d="M207.734 308.906L154.839 312.286L154.328 304.302L207.224 300.927L207.734 308.906Z" fill="white"/>
</mask>
<g mask="url(#mask28_47_13847)">
<mask id="mask29_47_13847" style="mask-type:luminance" maskUnits="userSpaceOnUse" x="154" y="300" width="54" height="13">
<path d="M207.734 308.906L154.839 312.286L154.328 304.302L207.224 300.927L207.734 308.906Z" fill="white"/>
</mask>
<g mask="url(#mask29_47_13847)">
<path d="M190.682 308.089L203.823 307.25C204.349 307.214 204.745 306.766 204.714 306.24C204.677 305.708 204.229 305.313 203.703 305.349L199.912 305.589V305.599L190.573 306.198C190.047 306.229 189.651 306.677 189.682 307.208C189.719 307.734 190.167 308.12 190.682 308.089Z" fill="#FCD590"/>
</g>
</g>
</g>
<mask id="mask30_47_13847" style="mask-type:luminance" maskUnits="userSpaceOnUse" x="213" y="295" width="38" height="46">
<path d="M213 295.333H250.333V340.667H213V295.333Z" fill="white"/>
</mask>
<g mask="url(#mask30_47_13847)">
<mask id="mask31_47_13847" style="mask-type:luminance" maskUnits="userSpaceOnUse" x="212" y="295" width="39" height="47">
<path d="M218.542 295.031L250.958 336.958L244.625 341.854L212.208 299.922L218.542 295.031Z" fill="white"/>
</mask>
<g mask="url(#mask31_47_13847)">
<mask id="mask32_47_13847" style="mask-type:luminance" maskUnits="userSpaceOnUse" x="212" y="294" width="39" height="48">
<path d="M250.88 336.859L218.463 294.932L212.135 299.823L244.552 341.755L250.88 336.859Z" fill="white"/>
</mask>
<g mask="url(#mask32_47_13847)">
<path d="M220.849 298.042L223.172 301.047L223.166 301.052L246.219 330.87L246.224 330.865L248.547 333.865C249.828 335.521 249.521 337.911 247.864 339.193C246.208 340.474 243.818 340.167 242.541 338.51L214.844 302.688C213.562 301.031 213.859 298.646 215.515 297.365C217.172 296.083 219.568 296.385 220.849 298.042Z" fill="#FCD590"/>
</g>
</g>
</g>
<mask id="mask33_47_13847" style="mask-type:luminance" maskUnits="userSpaceOnUse" x="237" y="323" width="11" height="14">
<path d="M237 323.333H247.667V336.667H237V323.333Z" fill="white"/>
</mask>
<g mask="url(#mask33_47_13847)">
<mask id="mask34_47_13847" style="mask-type:luminance" maskUnits="userSpaceOnUse" x="212" y="295" width="39" height="47">
<path d="M218.542 295.031L250.958 336.958L244.625 341.854L212.208 299.922L218.542 295.031Z" fill="white"/>
</mask>
<g mask="url(#mask34_47_13847)">
<mask id="mask35_47_13847" style="mask-type:luminance" maskUnits="userSpaceOnUse" x="212" y="294" width="39" height="48">
<path d="M250.88 336.859L218.463 294.932L212.135 299.823L244.552 341.755L250.88 336.859Z" fill="white"/>
</mask>
<g mask="url(#mask35_47_13847)">
<path d="M238.995 324.609L247.047 335.026C247.375 335.443 247.297 336.036 246.88 336.359C246.458 336.682 245.864 336.604 245.541 336.188L243.218 333.182L243.229 333.177L237.505 325.776C237.182 325.354 237.26 324.76 237.677 324.438C238.093 324.115 238.677 324.198 238.995 324.609Z" fill="#FCD590"/>
</g>
</g>
</g>
<mask id="mask36_47_13847" style="mask-type:luminance" maskUnits="userSpaceOnUse" x="205" y="308" width="55" height="13">
<path d="M205 308.667H259.667V320.667H205V308.667Z" fill="white"/>
</mask>
<g mask="url(#mask36_47_13847)">
<mask id="mask37_47_13847" style="mask-type:luminance" maskUnits="userSpaceOnUse" x="205" y="309" width="54" height="13">
<path d="M205.547 313.094L258.438 309.719L258.948 317.698L206.057 321.078L205.547 313.094Z" fill="white"/>
</mask>
<g mask="url(#mask37_47_13847)">
<mask id="mask38_47_13847" style="mask-type:luminance" maskUnits="userSpaceOnUse" x="205" y="309" width="54" height="13">
<path d="M258.318 309.724L205.422 313.104L205.932 321.083L258.823 317.708L258.318 309.724Z" fill="white"/>
</mask>
<g mask="url(#mask38_47_13847)">
<path d="M209.339 312.865L213.125 312.625V312.636L250.74 310.234V310.224L254.526 309.979C256.615 309.849 258.427 311.438 258.557 313.526C258.693 315.615 257.099 317.422 255.01 317.557L209.823 320.443C207.729 320.578 205.927 318.995 205.792 316.906C205.656 314.818 207.25 313 209.339 312.865Z" fill="#FCD590"/>
</g>
</g>
</g>
<mask id="mask39_47_13847" style="mask-type:luminance" maskUnits="userSpaceOnUse" x="239" y="311" width="17" height="5">
<path d="M239.667 311.333H255.667V315.333H239.667V311.333Z" fill="white"/>
</mask>
<g mask="url(#mask39_47_13847)">
<mask id="mask40_47_13847" style="mask-type:luminance" maskUnits="userSpaceOnUse" x="205" y="309" width="54" height="13">
<path d="M205.547 313.094L258.438 309.719L258.948 317.698L206.057 321.078L205.547 313.094Z" fill="white"/>
</mask>
<g mask="url(#mask40_47_13847)">
<mask id="mask41_47_13847" style="mask-type:luminance" maskUnits="userSpaceOnUse" x="205" y="309" width="54" height="13">
<path d="M258.318 309.724L205.422 313.104L205.932 321.083L258.823 317.708L258.318 309.724Z" fill="white"/>
</mask>
<g mask="url(#mask41_47_13847)">
<path d="M241.51 312.708L254.646 311.87C255.177 311.833 255.625 312.229 255.656 312.761C255.693 313.287 255.297 313.734 254.771 313.771L250.979 314.011V314L241.641 314.599C241.115 314.63 240.662 314.234 240.63 313.708C240.594 313.182 240.99 312.74 241.51 312.708Z" fill="#FCD590"/>
</g>
</g>
</g>
<mask id="mask42_47_13847" style="mask-type:luminance" maskUnits="userSpaceOnUse" x="75" y="11" width="60" height="58">
<path d="M75.6667 11.3334H134.333V68.6667H75.6667V11.3334Z" fill="white"/>
</mask>
<g mask="url(#mask42_47_13847)">
<mask id="mask43_47_13847" style="mask-type:luminance" maskUnits="userSpaceOnUse" x="66" y="1" width="85" height="84">
<path d="M150.13 52.1823L117.604 84.7084L66.6929 33.7969L99.2189 1.27087L150.13 52.1823Z" fill="white"/>
</mask>
<g mask="url(#mask43_47_13847)">
<mask id="mask44_47_13847" style="mask-type:luminance" maskUnits="userSpaceOnUse" x="66" y="1" width="85" height="84">
<path d="M150.13 52.1823L117.604 84.7084L66.6929 33.7969L99.2189 1.27087L150.13 52.1823Z" fill="white"/>
</mask>
<g mask="url(#mask44_47_13847)">
<path d="M102.151 59.849L133.917 68.3959L125.375 36.6251C124.297 32.2084 120.552 22.6146 117.021 19.0886C107.375 9.43756 92.3021 8.87506 83.349 17.8282C74.3959 26.7813 74.9584 41.8542 84.6042 51.5053C88.1355 55.0313 97.7344 58.7709 102.151 59.849Z" fill="#442F19"/>
</g>
</g>
</g>
<mask id="mask45_47_13847" style="mask-type:luminance" maskUnits="userSpaceOnUse" x="123" y="11" width="60" height="58">
<path d="M123.667 11.3334H182.333V68.6667H123.667V11.3334Z" fill="white"/>
</mask>
<g mask="url(#mask45_47_13847)">
<mask id="mask46_47_13847" style="mask-type:luminance" maskUnits="userSpaceOnUse" x="108" y="1" width="84" height="84">
<path d="M141.068 84.6094L108.542 52.0833L159.453 1.17188L191.979 33.6979L141.068 84.6094Z" fill="white"/>
</mask>
<g mask="url(#mask46_47_13847)">
<mask id="mask47_47_13847" style="mask-type:luminance" maskUnits="userSpaceOnUse" x="108" y="1" width="85" height="84">
<path d="M108.641 52.1823L141.167 84.7084L192.078 33.7969L159.552 1.27087L108.641 52.1823Z" fill="white"/>
</mask>
<g mask="url(#mask47_47_13847)">
<path d="M156.62 59.849L124.854 68.3959L133.396 36.6251C134.474 32.2084 138.219 22.6146 141.745 19.0886C151.396 9.43756 166.469 8.87506 175.417 17.8282C184.375 26.7813 183.813 41.8542 174.162 51.5053C170.635 55.0313 161.037 58.7709 156.62 59.849Z" fill="#442F19"/>
</g>
</g>
</g>
<mask id="mask48_47_13847" style="mask-type:luminance" maskUnits="userSpaceOnUse" x="133" y="92" width="178" height="178">
<path d="M133.333 92.974H310.333V269.974H133.333V92.974Z" fill="white"/>
</mask>
<g mask="url(#mask48_47_13847)">
<path d="M309.974 181.292C309.974 182.74 309.937 184.182 309.865 185.63C309.797 187.073 309.687 188.51 309.547 189.953C309.406 191.391 309.229 192.823 309.016 194.255C308.807 195.682 308.557 197.109 308.276 198.526C307.995 199.943 307.677 201.354 307.328 202.755C306.974 204.156 306.588 205.547 306.172 206.932C305.75 208.318 305.297 209.688 304.812 211.047C304.323 212.412 303.802 213.755 303.25 215.094C302.698 216.427 302.109 217.75 301.495 219.057C300.875 220.365 300.224 221.651 299.547 222.927C298.865 224.203 298.151 225.458 297.406 226.698C296.667 227.938 295.891 229.161 295.088 230.365C294.286 231.563 293.453 232.745 292.594 233.906C291.729 235.068 290.844 236.208 289.927 237.323C289.01 238.443 288.062 239.536 287.094 240.604C286.125 241.677 285.125 242.724 284.104 243.745C283.083 244.766 282.036 245.766 280.963 246.734C279.896 247.708 278.802 248.651 277.682 249.568C276.568 250.484 275.427 251.375 274.266 252.234C273.104 253.094 271.922 253.927 270.724 254.729C269.521 255.531 268.297 256.307 267.057 257.047C265.818 257.792 264.562 258.505 263.286 259.188C262.01 259.865 260.724 260.516 259.417 261.135C258.109 261.755 256.786 262.339 255.453 262.891C254.115 263.443 252.771 263.964 251.406 264.453C250.047 264.938 248.672 265.391 247.292 265.813C245.906 266.229 244.516 266.615 243.115 266.969C241.713 267.318 240.302 267.635 238.885 267.917C237.463 268.198 236.042 268.448 234.615 268.656C233.182 268.87 231.75 269.047 230.312 269.188C228.87 269.333 227.432 269.438 225.984 269.51C224.542 269.578 223.099 269.615 221.651 269.615C220.208 269.615 218.766 269.578 217.318 269.51C215.875 269.438 214.432 269.333 212.995 269.188C211.557 269.047 210.125 268.87 208.693 268.656C207.266 268.448 205.838 268.198 204.422 267.917C203.005 267.635 201.594 267.318 200.193 266.969C198.792 266.615 197.396 266.229 196.016 265.813C194.63 265.391 193.26 264.938 191.901 264.453C190.536 263.964 189.187 263.443 187.854 262.891C186.521 262.339 185.198 261.755 183.891 261.135C182.583 260.516 181.292 259.865 180.021 259.188C178.745 258.505 177.49 257.792 176.25 257.047C175.005 256.307 173.786 255.531 172.583 254.729C171.385 253.927 170.203 253.094 169.042 252.234C167.88 251.375 166.74 250.484 165.625 249.568C164.505 248.651 163.411 247.708 162.338 246.734C161.271 245.766 160.224 244.766 159.203 243.745C158.177 242.724 157.182 241.677 156.213 240.604C155.24 239.536 154.297 238.443 153.38 237.323C152.463 236.208 151.573 235.068 150.713 233.906C149.854 232.745 149.021 231.563 148.219 230.365C147.417 229.161 146.641 227.938 145.896 226.698C145.156 225.458 144.443 224.203 143.76 222.927C143.078 221.651 142.432 220.365 141.812 219.057C141.193 217.75 140.609 216.427 140.057 215.094C139.505 213.755 138.984 212.412 138.495 211.047C138.01 209.688 137.557 208.318 137.135 206.932C136.719 205.547 136.333 204.156 135.979 202.755C135.63 201.354 135.312 199.943 135.031 198.526C134.75 197.109 134.5 195.682 134.286 194.255C134.078 192.823 133.901 191.391 133.76 189.953C133.615 188.51 133.51 187.073 133.437 185.63C133.37 184.182 133.333 182.74 133.333 181.292C133.333 179.849 133.37 178.406 133.437 176.958C133.51 175.516 133.615 174.078 133.76 172.635C133.901 171.198 134.078 169.766 134.286 168.333C134.5 166.906 134.75 165.479 135.031 164.063C135.312 162.646 135.63 161.234 135.979 159.833C136.333 158.432 136.719 157.042 137.135 155.656C137.557 154.271 138.01 152.901 138.495 151.542C138.984 150.177 139.505 148.833 140.057 147.495C140.609 146.161 141.193 144.839 141.812 143.531C142.432 142.224 143.078 140.938 143.76 139.661C144.443 138.385 145.156 137.13 145.896 135.891C146.641 134.651 147.417 133.427 148.219 132.224C149.021 131.026 149.854 129.844 150.713 128.682C151.573 127.521 152.463 126.38 153.38 125.266C154.297 124.146 155.24 123.052 156.213 121.984C157.182 120.912 158.177 119.865 159.203 118.844C160.224 117.818 161.271 116.823 162.338 115.854C163.411 114.88 164.505 113.938 165.625 113.021C166.74 112.104 167.88 111.214 169.042 110.354C170.203 109.495 171.385 108.661 172.583 107.859C173.786 107.057 175.005 106.281 176.25 105.542C177.49 104.797 178.745 104.083 180.021 103.401C181.292 102.719 182.583 102.073 183.891 101.453C185.198 100.833 186.521 100.25 187.854 99.698C189.187 99.1459 190.536 98.625 191.901 98.1355C193.26 97.6511 194.63 97.198 196.016 96.7761C197.396 96.3594 198.792 95.974 200.193 95.6198C201.594 95.2709 203.005 94.9532 204.422 94.6719C205.838 94.3907 207.266 94.1407 208.693 93.9323C210.125 93.7188 211.557 93.5417 212.995 93.4011C214.432 93.2552 215.875 93.1511 217.318 93.0782C218.766 93.0105 220.208 92.974 221.651 92.974C223.099 92.974 224.542 93.0105 225.984 93.0782C227.432 93.1511 228.87 93.2552 230.312 93.4011C231.75 93.5417 233.182 93.7188 234.615 93.9323C236.042 94.1407 237.463 94.3907 238.885 94.6719C240.302 94.9532 241.713 95.2709 243.115 95.6198C244.516 95.974 245.906 96.3594 247.292 96.7761C248.672 97.198 250.047 97.6511 251.406 98.1355C252.771 98.625 254.115 99.1459 255.453 99.698C256.786 100.25 258.109 100.833 259.417 101.453C260.724 102.073 262.01 102.719 263.286 103.401C264.562 104.083 265.818 104.797 267.057 105.542C268.297 106.281 269.521 107.057 270.724 107.859C271.922 108.661 273.104 109.495 274.266 110.354C275.427 111.214 276.568 112.104 277.682 113.021C278.802 113.938 279.896 114.88 280.963 115.854C282.036 116.823 283.083 117.818 284.104 118.844C285.125 119.865 286.125 120.912 287.094 121.984C288.062 123.052 289.01 124.146 289.927 125.266C290.844 126.38 291.729 127.521 292.594 128.682C293.453 129.844 294.286 131.026 295.088 132.224C295.891 133.427 296.667 134.651 297.406 135.891C298.151 137.13 298.865 138.385 299.547 139.661C300.224 140.938 300.875 142.224 301.495 143.531C302.109 144.839 302.698 146.161 303.25 147.495C303.802 148.833 304.323 150.177 304.812 151.542C305.297 152.901 305.75 154.271 306.172 155.656C306.588 157.042 306.974 158.432 307.328 159.833C307.677 161.234 307.995 162.646 308.276 164.063C308.557 165.479 308.807 166.906 309.016 168.333C309.229 169.766 309.406 171.198 309.547 172.635C309.687 174.078 309.797 175.516 309.865 176.958C309.937 178.406 309.974 179.849 309.974 181.292Z" fill="#442F19"/>
</g>
<mask id="mask49_47_13847" style="mask-type:luminance" maskUnits="userSpaceOnUse" x="182" y="92" width="131" height="77">
<path d="M182.333 92.6666H313V168.667H182.333V92.6666Z" fill="white"/>
</mask>
<g mask="url(#mask49_47_13847)">
<mask id="mask50_47_13847" style="mask-type:luminance" maskUnits="userSpaceOnUse" x="175" y="86" width="145" height="90">
<path d="M175.87 132.88L303.734 86.5573L319.062 128.87L191.193 175.187L175.87 132.88Z" fill="white"/>
</mask>
<g mask="url(#mask50_47_13847)">
<mask id="mask51_47_13847" style="mask-type:luminance" maskUnits="userSpaceOnUse" x="175" y="86" width="144" height="90">
<path d="M303.281 86.7239L175.411 133.047L190.74 175.354L318.609 129.031L303.281 86.7239Z" fill="white"/>
</mask>
<g mask="url(#mask51_47_13847)">
<path d="M211.896 166.969L297.443 135.979C308.891 131.833 314.812 119.187 310.667 107.74C306.521 96.2916 293.875 90.3697 282.427 94.5208L196.875 125.51C185.432 129.656 179.51 142.302 183.656 153.75C187.802 165.193 200.448 171.115 211.896 166.969Z" fill="#604428"/>
</g>
</g>
</g>
<mask id="mask52_47_13847" style="mask-type:luminance" maskUnits="userSpaceOnUse" x="181" y="92" width="132" height="77">
<path d="M181 92.6666H313V168.667H181V92.6666Z" fill="white"/>
</mask>
<g mask="url(#mask52_47_13847)">
<mask id="mask53_47_13847" style="mask-type:luminance" maskUnits="userSpaceOnUse" x="175" y="86" width="145" height="90">
<path d="M175.87 132.88L303.734 86.5573L319.063 128.87L191.193 175.187L175.87 132.88Z" fill="white"/>
</mask>
<g mask="url(#mask53_47_13847)">
<mask id="mask54_47_13847" style="mask-type:luminance" maskUnits="userSpaceOnUse" x="175" y="86" width="144" height="90">
<path d="M303.281 86.7239L175.412 133.047L190.74 175.354L318.61 129.031L303.281 86.7239Z" fill="white"/>
</mask>
<g mask="url(#mask54_47_13847)">
<path d="M211.969 167.172L297.521 136.182C309.068 131.995 315.052 119.213 310.87 107.667C306.683 96.1197 293.901 90.1301 282.354 94.3177L196.802 125.307C185.255 129.49 179.271 142.271 183.453 153.823C187.636 165.37 200.422 171.354 211.969 167.172ZM282.5 94.7187C293.823 90.6197 306.36 96.4843 310.464 107.812C314.568 119.135 308.698 131.672 297.37 135.776L211.823 166.766C200.495 170.87 187.964 165 183.86 153.677C179.755 142.349 185.625 129.812 196.948 125.708L282.5 94.7187Z" fill="#604428"/>
</g>
</g>
</g>
<mask id="mask55_47_13847" style="mask-type:luminance" maskUnits="userSpaceOnUse" x="173" y="44" width="155" height="92">
<path d="M173 44.6666H327.667V135.333H173V44.6666Z" fill="white"/>
</mask>
<g mask="url(#mask55_47_13847)">
<mask id="mask56_47_13847" style="mask-type:luminance" maskUnits="userSpaceOnUse" x="165" y="37" width="171" height="106">
<path d="M165.604 92.4218L316.979 37.5833L335.031 87.4166L183.656 142.25L165.604 92.4218Z" fill="white"/>
</mask>
<g mask="url(#mask56_47_13847)">
<mask id="mask57_47_13847" style="mask-type:luminance" maskUnits="userSpaceOnUse" x="165" y="37" width="171" height="106">
<path d="M317.026 37.5676L165.651 92.4062L183.703 142.234L335.078 87.401L317.026 37.5676Z" fill="white"/>
</mask>
<g mask="url(#mask57_47_13847)">
<path d="M208.422 132.932L310.089 96.104C323.693 91.1717 330.729 76.1456 325.797 62.5415C320.87 48.9373 305.844 41.9008 292.24 46.8331L190.573 83.6613C176.969 88.5883 169.932 103.614 174.859 117.219C179.792 130.823 194.818 137.859 208.422 132.932Z" fill="#604428"/>
<path d="M208.511 133.172L310.177 96.3436C323.901 91.3697 331.011 76.177 326.042 62.453C321.068 48.729 305.875 41.6197 292.151 46.5884L190.484 83.4217C176.761 88.3905 169.651 103.583 174.62 117.307C179.594 131.031 194.787 138.14 208.511 133.172ZM292.328 47.0728C305.787 42.1978 320.682 49.1717 325.557 62.6301C330.432 76.0884 323.458 90.9842 310 95.8592L208.333 132.693C194.875 137.568 179.979 130.594 175.104 117.13C170.224 103.672 177.198 88.7759 190.662 83.9009L292.328 47.0728Z" fill="#604428"/>
</g>
</g>
</g>
<mask id="mask58_47_13847" style="mask-type:luminance" maskUnits="userSpaceOnUse" x="191" y="2" width="157" height="91">
<path d="M191.667 2H347.667V92.6667H191.667V2Z" fill="white"/>
</mask>
<g mask="url(#mask58_47_13847)">
<mask id="mask59_47_13847" style="mask-type:luminance" maskUnits="userSpaceOnUse" x="184" y="-6" width="171" height="106">
<path d="M184.734 49.3281L336.109 -5.50525L354.161 44.3229L202.786 99.1614L184.734 49.3281Z" fill="white"/>
</mask>
<g mask="url(#mask59_47_13847)">
<mask id="mask60_47_13847" style="mask-type:luminance" maskUnits="userSpaceOnUse" x="184" y="-6" width="171" height="106">
<path d="M336.156 -5.52087L184.781 49.3125L202.833 99.1458L354.208 44.3073L336.156 -5.52087Z" fill="white"/>
</mask>
<g mask="url(#mask60_47_13847)">
<path d="M227.552 89.8385L329.219 53.0103C342.823 48.0832 349.859 33.052 344.927 19.453C340 5.84887 324.974 -1.18759 311.37 3.73949L209.703 40.5676C196.099 45.4947 189.063 60.526 193.99 74.1301C198.922 87.7291 213.948 94.7655 227.552 89.8385Z" fill="#604428"/>
</g>
</g>
</g>
<mask id="mask61_47_13847" style="mask-type:luminance" maskUnits="userSpaceOnUse" x="191" y="0" width="157" height="93">
<path d="M191.667 0.666626H347.667V92.6666H191.667V0.666626Z" fill="white"/>
</mask>
<g mask="url(#mask61_47_13847)">
<mask id="mask62_47_13847" style="mask-type:luminance" maskUnits="userSpaceOnUse" x="184" y="-6" width="171" height="106">
<path d="M184.734 49.3281L336.109 -5.50525L354.161 44.3229L202.786 99.1614L184.734 49.3281Z" fill="white"/>
</mask>
<g mask="url(#mask62_47_13847)">
<mask id="mask63_47_13847" style="mask-type:luminance" maskUnits="userSpaceOnUse" x="184" y="-6" width="171" height="106">
<path d="M336.156 -5.52087L184.781 49.3125L202.833 99.1458L354.208 44.3073L336.156 -5.52087Z" fill="white"/>
</mask>
<g mask="url(#mask63_47_13847)">
<path d="M227.641 90.078L329.307 53.2499C343.031 48.2812 350.141 33.0885 345.172 19.3645C340.198 5.64054 325.005 -1.47405 311.281 3.49991L209.615 40.328C195.891 45.2968 188.781 60.4895 193.75 74.2135C198.724 87.9374 213.917 95.052 227.641 90.078ZM311.458 3.97908C324.917 -0.895922 339.813 6.07804 344.688 19.5364C349.563 32.9947 342.589 47.8957 329.13 52.7707L227.464 89.5989C214.005 94.4739 199.109 87.4999 194.234 74.0416C189.354 60.5832 196.328 45.6822 209.792 40.8072L311.458 3.97908Z" fill="#604428"/>
</g>
</g>
</g>
<mask id="mask64_47_13847" style="mask-type:luminance" maskUnits="userSpaceOnUse" x="45" y="52" width="178" height="178">
<path d="M45.0105 52.8541H222.01V229.854H45.0105V52.8541Z" fill="white"/>
</mask>
<g mask="url(#mask64_47_13847)">
<path d="M221.651 141.172C221.651 142.62 221.615 144.062 221.542 145.51C221.474 146.953 221.365 148.391 221.224 149.833C221.083 151.271 220.906 152.703 220.693 154.135C220.479 155.562 220.234 156.99 219.953 158.406C219.672 159.823 219.354 161.234 219 162.635C218.651 164.036 218.266 165.427 217.844 166.812C217.427 168.198 216.974 169.568 216.484 170.927C216 172.292 215.479 173.635 214.927 174.974C214.375 176.307 213.787 177.63 213.172 178.937C212.552 180.245 211.901 181.531 211.219 182.807C210.542 184.083 209.828 185.339 209.083 186.578C208.339 187.818 207.568 189.042 206.766 190.245C205.964 191.443 205.13 192.625 204.271 193.786C203.406 194.948 202.521 196.089 201.599 197.203C200.682 198.323 199.74 199.417 198.771 200.484C197.797 201.557 196.802 202.604 195.781 203.625C194.76 204.646 193.714 205.646 192.641 206.615C191.568 207.583 190.474 208.531 189.359 209.448C188.24 210.365 187.104 211.255 185.943 212.115C184.781 212.974 183.599 213.807 182.396 214.609C181.193 215.411 179.974 216.187 178.734 216.927C177.495 217.672 176.24 218.385 174.964 219.068C173.688 219.745 172.396 220.396 171.089 221.016C169.787 221.63 168.464 222.219 167.13 222.771C165.792 223.323 164.443 223.844 163.083 224.333C161.724 224.818 160.349 225.271 158.969 225.693C157.583 226.109 156.193 226.495 154.787 226.849C153.385 227.198 151.979 227.516 150.557 227.797C149.141 228.078 147.719 228.328 146.287 228.536C144.859 228.75 143.422 228.927 141.984 229.068C140.547 229.208 139.104 229.318 137.662 229.391C136.219 229.458 134.776 229.495 133.328 229.495C131.885 229.495 130.438 229.458 128.995 229.391C127.552 229.318 126.109 229.208 124.672 229.068C123.234 228.927 121.797 228.75 120.37 228.536C118.938 228.328 117.516 228.078 116.099 227.797C114.682 227.516 113.271 227.198 111.87 226.849C110.469 226.495 109.073 226.109 107.693 225.693C106.307 225.271 104.938 224.818 103.573 224.333C102.214 223.844 100.865 223.323 99.5313 222.771C98.1928 222.219 96.8751 221.63 95.5678 221.016C94.2605 220.396 92.9688 219.745 91.6928 219.068C90.422 218.385 89.1615 217.672 87.922 216.927C86.6824 216.187 85.4636 215.411 84.2605 214.609C83.0574 213.807 81.8751 212.974 80.7188 212.115C79.5574 211.255 78.4167 210.365 77.297 209.448C76.1824 208.531 75.0886 207.583 74.0157 206.615C72.948 205.646 71.9011 204.646 70.8751 203.625C69.8542 202.604 68.8595 201.557 67.8855 200.484C66.9167 199.417 65.974 198.323 65.0574 197.203C64.1407 196.089 63.2501 194.948 62.3907 193.786C61.5261 192.625 60.698 191.443 59.8959 190.245C59.0886 189.042 58.3178 187.818 57.573 186.578C56.8334 185.339 56.1199 184.083 55.4376 182.807C54.7553 181.531 54.1042 180.245 53.4897 178.937C52.8699 177.63 52.2865 176.307 51.7292 174.974C51.1772 173.635 50.6563 172.292 50.172 170.927C49.6824 169.568 49.2292 168.198 48.8126 166.812C48.3907 165.427 48.0053 164.036 47.6563 162.635C47.3022 161.234 46.9897 159.823 46.7032 158.406C46.422 156.984 46.1772 155.562 45.9636 154.135C45.7501 152.703 45.5782 151.271 45.4324 149.833C45.2917 148.391 45.1876 146.953 45.1147 145.51C45.0417 144.062 45.0105 142.62 45.0105 141.172C45.0105 139.729 45.0417 138.286 45.1147 136.839C45.1876 135.396 45.2917 133.958 45.4324 132.516C45.5782 131.078 45.7501 129.646 45.9636 128.214C46.1772 126.786 46.422 125.359 46.7032 123.943C46.9897 122.526 47.3022 121.115 47.6563 119.714C48.0053 118.312 48.3907 116.922 48.8126 115.536C49.2292 114.151 49.6824 112.781 50.172 111.422C50.6563 110.057 51.1772 108.708 51.7292 107.375C52.2865 106.042 52.8699 104.719 53.4897 103.411C54.1042 102.104 54.7553 100.812 55.4376 99.5416C56.1199 98.2656 56.8334 97.0104 57.573 95.7708C58.3178 94.5312 59.0886 93.3073 59.8959 92.1041C60.698 90.9062 61.5261 89.7239 62.3907 88.5625C63.2501 87.401 64.1407 86.2604 65.0574 85.1458C65.974 84.026 66.9167 82.9323 67.8855 81.8593C68.8595 80.7916 69.8542 79.7448 70.8751 78.7239C71.9011 77.6979 72.948 76.7031 74.0157 75.7343C75.0886 74.7604 76.1824 73.8177 77.297 72.901C78.4167 71.9843 79.5574 71.0937 80.7188 70.2343C81.8751 69.375 83.0574 68.5416 84.2605 67.7395C85.4636 66.9375 86.6824 66.1614 87.922 65.4218C89.1615 64.677 90.422 63.9635 91.6928 63.2812C92.9688 62.5989 94.2605 61.9531 95.5678 61.3333C96.8751 60.7135 98.1928 60.1302 99.5313 59.5781C100.865 59.026 102.214 58.5052 103.573 58.0156C104.938 57.5312 106.307 57.0781 107.693 56.6562C109.073 56.2395 110.469 55.8541 111.87 55.5C113.271 55.151 114.682 54.8333 116.099 54.552C117.516 54.2708 118.938 54.0208 120.37 53.8073C121.797 53.5989 123.234 53.4218 124.672 53.2812C126.109 53.1354 127.552 53.0312 128.995 52.9583C130.438 52.8906 131.885 52.8541 133.328 52.8541C134.776 52.8541 136.219 52.8906 137.662 52.9583C139.104 53.0312 140.547 53.1354 141.984 53.2812C143.422 53.4218 144.859 53.5989 146.287 53.8073C147.719 54.0208 149.141 54.2708 150.557 54.552C151.979 54.8333 153.385 55.151 154.787 55.5C156.193 55.8541 157.583 56.2395 158.969 56.6562C160.349 57.0781 161.724 57.5312 163.083 58.0156C164.443 58.5052 165.792 59.026 167.13 59.5781C168.464 60.1302 169.787 60.7135 171.089 61.3333C172.396 61.9531 173.688 62.5989 174.964 63.2812C176.24 63.9635 177.495 64.677 178.734 65.4218C179.974 66.1614 181.193 66.9375 182.396 67.7395C183.599 68.5416 184.781 69.375 185.943 70.2343C187.104 71.0937 188.24 71.9843 189.359 72.901C190.474 73.8177 191.568 74.7604 192.641 75.7343C193.714 76.7031 194.76 77.6979 195.781 78.7239C196.802 79.7448 197.797 80.7916 198.771 81.8593C199.74 82.9323 200.682 84.026 201.599 85.1458C202.521 86.2604 203.406 87.401 204.271 88.5625C205.13 89.7239 205.964 90.9062 206.766 92.1041C207.568 93.3073 208.339 94.5312 209.083 95.7708C209.828 97.0104 210.542 98.2656 211.219 99.5416C211.901 100.812 212.552 102.104 213.172 103.411C213.787 104.719 214.375 106.042 214.927 107.375C215.479 108.708 216 110.057 216.484 111.422C216.974 112.781 217.427 114.151 217.844 115.536C218.266 116.922 218.651 118.312 219 119.714C219.354 121.115 219.672 122.526 219.953 123.943C220.234 125.359 220.479 126.786 220.693 128.214C220.906 129.646 221.083 131.078 221.224 132.516C221.365 133.958 221.474 135.396 221.542 136.839C221.615 138.286 221.651 139.729 221.651 141.172Z" fill="#EDE0D2"/>
</g>
<mask id="mask65_47_13847" style="mask-type:luminance" maskUnits="userSpaceOnUse" x="65" y="92" width="64" height="64">
<path d="M65.802 92.6406H128.495V155.333H65.802V92.6406Z" fill="white"/>
</mask>
<g mask="url(#mask65_47_13847)">
<mask id="mask66_47_13847" style="mask-type:luminance" maskUnits="userSpaceOnUse" x="65" y="92" width="64" height="64">
<path d="M97.1458 92.6406C79.8333 92.6406 65.802 106.672 65.802 123.99C65.802 141.302 79.8333 155.333 97.1458 155.333C114.458 155.333 128.495 141.302 128.495 123.99C128.495 106.672 114.458 92.6406 97.1458 92.6406Z" fill="white"/>
</mask>
<g mask="url(#mask66_47_13847)">
<path d="M65.802 92.6406H128.495V155.333H65.802V92.6406Z" fill="white"/>
</g>
</g>
<mask id="mask67_47_13847" style="mask-type:luminance" maskUnits="userSpaceOnUse" x="0" y="154" width="85" height="43">
<path d="M0.65625 154.479H84.6562V196.479H0.65625V154.479Z" fill="white"/>
</mask>
<g mask="url(#mask67_47_13847)">
<path d="M84.875 175.635C84.875 176.328 84.8073 177.016 84.6719 177.708C84.5365 178.396 84.3333 179.078 84.0677 179.755C83.7969 180.432 83.4635 181.104 83.0625 181.766C82.6615 182.427 82.1979 183.073 81.6719 183.714C81.1406 184.354 80.5521 184.979 79.9062 185.589C79.2552 186.198 78.5469 186.786 77.7812 187.365C77.0104 187.938 76.1927 188.49 75.3177 189.026C74.4427 189.562 73.5156 190.073 72.5417 190.562C71.5677 191.052 70.5469 191.516 69.4792 191.953C68.4167 192.391 67.3073 192.802 66.1615 193.188C65.0156 193.568 63.8333 193.927 62.6146 194.25C61.401 194.578 60.1563 194.87 58.8802 195.135C57.6094 195.401 56.3125 195.635 54.9896 195.833C53.6719 196.036 52.3333 196.203 50.9792 196.339C49.6302 196.474 48.2656 196.573 46.8958 196.641C45.5208 196.708 44.1458 196.745 42.7656 196.745C41.3854 196.745 40.0104 196.708 38.6406 196.641C37.2656 196.573 35.9063 196.474 34.5521 196.339C33.1979 196.203 31.8646 196.036 30.5417 195.833C29.224 195.635 27.9271 195.401 26.651 195.135C25.3802 194.87 24.1302 194.578 22.9167 194.25C21.6979 193.927 20.5208 193.568 19.3698 193.188C18.224 192.802 17.1198 192.391 16.0521 191.953C14.9844 191.516 13.9635 191.052 12.9896 190.562C12.0156 190.073 11.0885 189.562 10.2135 189.026C9.33854 188.49 8.52083 187.938 7.75521 187.365C6.98958 186.786 6.28125 186.198 5.63021 185.589C4.97917 184.979 4.39062 184.354 3.86458 183.714C3.33333 183.073 2.86979 182.427 2.46875 181.766C2.06771 181.104 1.73438 180.432 1.46875 179.755C1.19792 179.078 0.994792 178.396 0.859375 177.708C0.723959 177.016 0.65625 176.328 0.65625 175.635C0.65625 174.948 0.723959 174.255 0.859375 173.568C0.994792 172.88 1.19792 172.198 1.46875 171.521C1.73438 170.844 2.06771 170.172 2.46875 169.51C2.86979 168.849 3.33333 168.198 3.86458 167.562C4.39062 166.922 4.97917 166.297 5.63021 165.688C6.28125 165.078 6.98958 164.484 7.75521 163.911C8.52083 163.339 9.33854 162.781 10.2135 162.25C11.0885 161.714 12.0156 161.203 12.9896 160.714C13.9635 160.224 14.9844 159.76 16.0521 159.323C17.1198 158.885 18.224 158.474 19.3698 158.089C20.5208 157.703 21.6979 157.349 22.9167 157.026C24.1302 156.698 25.3802 156.401 26.651 156.141C27.9271 155.875 29.224 155.641 30.5417 155.443C31.8646 155.24 33.1979 155.073 34.5521 154.938C35.9063 154.802 37.2656 154.703 38.6406 154.635C40.0104 154.568 41.3854 154.531 42.7656 154.531C44.1458 154.531 45.5208 154.568 46.8958 154.635C48.2656 154.703 49.6302 154.802 50.9792 154.938C52.3333 155.073 53.6719 155.24 54.9896 155.443C56.3125 155.641 57.6094 155.875 58.8802 156.141C60.1563 156.401 61.401 156.698 62.6146 157.026C63.8333 157.349 65.0156 157.703 66.1615 158.089C67.3073 158.474 68.4167 158.885 69.4792 159.323C70.5469 159.76 71.5677 160.224 72.5417 160.714C73.5156 161.203 74.4427 161.714 75.3177 162.25C76.1927 162.781 77.0104 163.339 77.7812 163.911C78.5469 164.484 79.2552 165.078 79.9062 165.688C80.5521 166.297 81.1406 166.922 81.6719 167.562C82.1979 168.198 82.6615 168.849 83.0625 169.51C83.4635 170.172 83.7969 170.844 84.0677 171.521C84.3333 172.198 84.5365 172.88 84.6719 173.568C84.8073 174.255 84.875 174.948 84.875 175.635Z" fill="#FFB93E"/>
</g>
<mask id="mask68_47_13847" style="mask-type:luminance" maskUnits="userSpaceOnUse" x="77" y="104" width="40" height="40">
<path d="M77.3594 104.948H116.12V143.708H77.3594V104.948Z" fill="white"/>
</mask>
<g mask="url(#mask68_47_13847)">
<mask id="mask69_47_13847" style="mask-type:luminance" maskUnits="userSpaceOnUse" x="77" y="104" width="40" height="40">
<path d="M96.7396 104.948C86.0365 104.948 77.3594 113.625 77.3594 124.328C77.3594 135.031 86.0365 143.708 96.7396 143.708C107.443 143.708 116.12 135.031 116.12 124.328C116.12 113.625 107.443 104.948 96.7396 104.948Z" fill="white"/>
</mask>
<g mask="url(#mask69_47_13847)">
<path d="M77.3594 104.948H116.12V143.708H77.3594V104.948Z" fill="black"/>
</g>
</g>
<mask id="mask70_47_13847" style="mask-type:luminance" maskUnits="userSpaceOnUse" x="94" y="105" width="20" height="19">
<path d="M94.6511 105.427H113.214V123.99H94.6511V105.427Z" fill="white"/>
</mask>
<g mask="url(#mask70_47_13847)">
<mask id="mask71_47_13847" style="mask-type:luminance" maskUnits="userSpaceOnUse" x="94" y="105" width="20" height="19">
<path d="M103.932 105.427C98.8022 105.427 94.6511 109.578 94.6511 114.708C94.6511 119.833 98.8022 123.99 103.932 123.99C109.057 123.99 113.214 119.833 113.214 114.708C113.214 109.578 109.057 105.427 103.932 105.427Z" fill="white"/>
</mask>
<g mask="url(#mask71_47_13847)">
<path d="M94.6511 105.427H113.214V123.99H94.6511V105.427Z" fill="white"/>
</g>
</g>
<mask id="mask72_47_13847" style="mask-type:luminance" maskUnits="userSpaceOnUse" x="176" y="212" width="94" height="36">
<path d="M176.906 212.062H269.906V247.062H176.906V212.062Z" fill="white"/>
</mask>
<g mask="url(#mask72_47_13847)">
<path d="M258.938 230.875C246.354 227.469 236.938 230.344 230.755 233.99C239.208 225.391 252.104 222.568 256.234 221.865L258.938 230.875ZM244.062 212.109L247.609 220.583C240.922 222.661 232.182 226.693 226.266 234.13C230.005 221.115 240.245 214.26 244.062 212.109ZM202.526 212.109C206.344 214.26 216.578 221.094 220.323 234.156C214.406 226.719 205.667 222.688 198.974 220.609L202.526 212.109ZM190.354 221.865C194.484 222.568 207.38 225.391 215.833 233.99C209.651 230.344 200.229 227.469 187.651 230.875L190.354 221.865ZM228.729 246.594H217.859C215.469 243.5 205.135 233.578 176.906 245.339L179.344 237.443C207.5 223.771 221.411 242.536 221.99 243.359C222.016 243.38 222.036 243.38 222.062 243.406C222.089 243.453 222.109 243.5 222.156 243.526C222.182 243.552 222.182 243.552 222.182 243.573C222.229 243.625 222.281 243.646 222.354 243.672C222.401 243.698 222.448 243.745 222.495 243.766C222.547 243.792 222.594 243.839 222.667 243.865C222.693 243.865 222.714 243.891 222.714 243.891C222.812 243.938 222.932 243.938 223.052 243.964C223.125 243.964 223.172 244.01 223.245 244.01C223.271 244.01 223.292 244.01 223.318 244.01C223.344 244.01 223.365 244.01 223.391 244.01C223.464 244.01 223.51 243.984 223.583 243.964C223.703 243.938 223.802 243.938 223.922 243.891C223.948 243.891 223.969 243.865 223.969 243.865C224.042 243.839 224.089 243.792 224.141 243.766C224.188 243.745 224.234 243.719 224.286 243.672C224.333 243.625 224.406 243.599 224.453 243.573C224.479 243.552 224.479 243.552 224.479 243.526C224.526 243.479 224.552 243.453 224.573 243.406C224.599 243.38 224.62 243.38 224.646 243.359C225.224 242.536 239.135 223.771 267.292 237.443L269.734 245.339C241.479 233.578 231.12 243.526 228.729 246.594Z" fill="#EDE0D2"/>
</g>
</svg>
