<svg width="426" height="336" viewBox="0 0 426 336" fill="none" xmlns="http://www.w3.org/2000/svg">
<mask id="mask0_47_13844" style="mask-type:luminance" maskUnits="userSpaceOnUse" x="56" y="193" width="126" height="42">
<path d="M56.4741 193.26H181.474V234.26H56.4741V193.26Z" fill="white"/>
</mask>
<g mask="url(#mask0_47_13844)">
<path d="M160.974 234.156H77.0156C65.7812 234.156 56.6719 225.047 56.6719 213.812C56.6719 202.578 65.7812 193.469 77.0156 193.469H160.974C172.208 193.469 181.318 202.578 181.318 213.812C181.318 225.047 172.208 234.156 160.974 234.156Z" fill="#604428"/>
<path d="M160.974 234.354H77.0158C65.6825 234.354 56.4741 225.146 56.4741 213.813C56.4741 202.479 65.6825 193.271 77.0158 193.271H160.974C172.307 193.271 181.521 202.479 181.521 213.813C181.521 225.146 172.307 234.354 160.974 234.354ZM77.0158 193.667C65.9012 193.667 56.87 202.698 56.87 213.813C56.87 224.927 65.9012 233.958 77.0158 233.958H160.974C172.089 233.958 181.12 224.927 181.12 213.813C181.12 202.698 172.089 193.667 160.974 193.667H77.0158Z" fill="#604428"/>
</g>
<mask id="mask1_47_13844" style="mask-type:luminance" maskUnits="userSpaceOnUse" x="25" y="154" width="150" height="50">
<path d="M25.8281 154.932H174.828V203.932H25.8281V154.932Z" fill="white"/>
</mask>
<g mask="url(#mask1_47_13844)">
<path d="M150.026 203.531H50.245C36.8908 203.531 26.0679 192.708 26.0679 179.354C26.0679 166.005 36.8908 155.177 50.245 155.177H150.026C163.375 155.177 174.203 166.005 174.203 179.354C174.203 192.708 163.375 203.531 150.026 203.531Z" fill="#604428"/>
<path d="M150.026 203.771H50.2448C36.776 203.771 25.8281 192.823 25.8281 179.354C25.8281 165.885 36.776 154.943 50.2448 154.943H150.026C163.495 154.943 174.438 165.885 174.438 179.354C174.438 192.823 163.495 203.771 150.026 203.771ZM50.2448 155.411C37.0365 155.411 26.3021 166.146 26.3021 179.354C26.3021 192.562 37.0365 203.297 50.2448 203.297H150.026C163.234 203.297 173.969 192.562 173.969 179.354C173.969 166.146 163.234 155.411 150.026 155.411H50.2448Z" fill="#604428"/>
</g>
<mask id="mask2_47_13844" style="mask-type:luminance" maskUnits="userSpaceOnUse" x="0" y="123" width="150" height="50">
<path d="M0.578125 123.562H149.578V172.562H0.578125V123.562Z" fill="white"/>
</mask>
<g mask="url(#mask2_47_13844)">
<path d="M124.776 172.162H24.9948C11.6406 172.162 0.8125 161.333 0.8125 147.984C0.8125 134.63 11.6406 123.807 24.9948 123.807H124.776C138.125 123.807 148.953 134.63 148.953 147.984C148.953 161.333 138.125 172.162 124.776 172.162Z" fill="#604428"/>
<path d="M124.776 172.396H24.9948C11.526 172.396 0.578125 161.453 0.578125 147.984C0.578125 134.516 11.526 123.568 24.9948 123.568H124.776C138.245 123.568 149.188 134.516 149.188 147.984C149.188 161.453 138.245 172.396 124.776 172.396ZM24.9948 124.042C11.7812 124.042 1.05208 134.776 1.05208 147.984C1.05208 161.193 11.7812 171.927 24.9948 171.927H124.776C137.984 171.927 148.719 161.193 148.719 147.984C148.719 134.776 137.984 124.042 124.776 124.042H24.9948Z" fill="#604428"/>
</g>
<mask id="mask3_47_13844" style="mask-type:luminance" maskUnits="userSpaceOnUse" x="243" y="193" width="125" height="42">
<path d="M243 193.26H367.859V234.26H243V193.26Z" fill="white"/>
</mask>
<g mask="url(#mask3_47_13844)">
<path d="M263.401 234.156H347.364C358.599 234.156 367.708 225.047 367.708 213.812C367.708 202.578 358.599 193.469 347.364 193.469H263.401C252.167 193.469 243.057 202.578 243.057 213.812C243.057 225.047 252.167 234.156 263.401 234.156Z" fill="#604428"/>
</g>
<mask id="mask4_47_13844" style="mask-type:luminance" maskUnits="userSpaceOnUse" x="242" y="193" width="126" height="42">
<path d="M242.906 193.26H367.859V234.26H242.906V193.26Z" fill="white"/>
</mask>
<g mask="url(#mask4_47_13844)">
<path d="M263.401 234.354H347.365C358.698 234.354 367.906 225.146 367.906 213.813C367.906 202.479 358.698 193.271 347.365 193.271H263.401C252.068 193.271 242.859 202.479 242.859 213.813C242.859 225.146 252.068 234.354 263.401 234.354ZM347.365 193.667C358.479 193.667 367.51 202.698 367.51 213.813C367.51 224.927 358.479 233.958 347.365 233.958H263.401C252.286 233.958 243.255 224.927 243.255 213.813C243.255 202.698 252.286 193.667 263.401 193.667H347.365Z" fill="#604428"/>
</g>
<mask id="mask5_47_13844" style="mask-type:luminance" maskUnits="userSpaceOnUse" x="246" y="154" width="150" height="50">
<path d="M246.672 154.932H395.281V203.932H246.672V154.932Z" fill="white"/>
</mask>
<g mask="url(#mask5_47_13844)">
<path d="M271.083 203.531H370.865C384.219 203.531 395.042 192.708 395.042 179.354C395.042 166.005 384.219 155.177 370.865 155.177H271.083C257.734 155.177 246.906 166.005 246.906 179.354C246.906 192.708 257.734 203.531 271.083 203.531Z" fill="#604428"/>
<path d="M271.083 203.771H370.865C384.333 203.771 395.281 192.823 395.281 179.354C395.281 165.885 384.333 154.943 370.865 154.943H271.083C257.615 154.943 246.672 165.885 246.672 179.354C246.672 192.823 257.615 203.771 271.083 203.771ZM370.865 155.411C384.073 155.411 394.807 166.146 394.807 179.354C394.807 192.562 384.073 203.297 370.865 203.297H271.083C257.875 203.297 247.141 192.562 247.141 179.354C247.141 166.146 257.875 155.411 271.083 155.411H370.865Z" fill="#604428"/>
</g>
<mask id="mask6_47_13844" style="mask-type:luminance" maskUnits="userSpaceOnUse" x="276" y="123" width="150" height="50">
<path d="M276.807 123.562H425.417V172.562H276.807V123.562Z" fill="white"/>
</mask>
<g mask="url(#mask6_47_13844)">
<path d="M301.224 172.162H401.005C414.354 172.162 425.182 161.333 425.182 147.984C425.182 134.63 414.354 123.807 401.005 123.807H301.224C287.87 123.807 277.047 134.63 277.047 147.984C277.047 161.333 287.87 172.162 301.224 172.162Z" fill="#604428"/>
<path d="M301.224 172.396H401.005C414.474 172.396 425.417 161.453 425.417 147.984C425.417 134.516 414.474 123.568 401.005 123.568H301.224C287.755 123.568 276.807 134.516 276.807 147.984C276.807 161.453 287.755 172.396 301.224 172.396ZM401.005 124.042C414.213 124.042 424.948 134.776 424.948 147.984C424.948 161.193 414.213 171.927 401.005 171.927H301.224C288.015 171.927 277.281 161.193 277.281 147.984C277.281 134.776 288.015 124.042 301.224 124.042H401.005Z" fill="#604428"/>
</g>
<mask id="mask7_47_13844" style="mask-type:luminance" maskUnits="userSpaceOnUse" x="227" y="254" width="9" height="60">
<path d="M227.958 254.167H235.958V313.167H227.958V254.167Z" fill="white"/>
</mask>
<g mask="url(#mask7_47_13844)">
<path d="M227.974 258.479V262.708H227.985V304.708H227.974V308.938C227.974 311.271 229.87 313.167 232.203 313.167C234.537 313.167 236.432 311.271 236.432 308.938V258.479C236.432 256.146 234.547 254.245 232.214 254.245C229.88 254.245 227.974 256.146 227.974 258.479Z" fill="#FCD590"/>
</g>
<path d="M230.083 294.266V308.938C230.083 309.526 230.552 310 231.146 310C231.735 310 232.203 309.526 232.203 308.938V304.708H232.193V294.276C232.193 293.688 231.719 293.219 231.13 293.219C230.542 293.219 230.083 293.687 230.083 294.266Z" fill="#FCD590"/>
<mask id="mask8_47_13844" style="mask-type:luminance" maskUnits="userSpaceOnUse" x="186" y="251" width="9" height="60">
<path d="M186.453 251.766H194.453V310.766H186.453V251.766Z" fill="white"/>
</mask>
<g mask="url(#mask8_47_13844)">
<path d="M186.469 256.078V260.307H186.479V302.307H186.469V306.536C186.469 308.87 188.365 310.766 190.698 310.766C193.031 310.766 194.927 308.87 194.927 306.536V256.078C194.927 253.745 193.042 251.844 190.708 251.844C188.375 251.844 186.469 253.745 186.469 256.078Z" fill="#FCD590"/>
</g>
<path d="M188.578 291.865V306.536C188.578 307.125 189.047 307.599 189.641 307.599C190.229 307.599 190.698 307.125 190.698 306.536V302.307H190.688V291.88C190.688 291.286 190.214 290.818 189.625 290.818C189.036 290.818 188.578 291.286 188.578 291.865Z" fill="#FCD590"/>
<mask id="mask9_47_13844" style="mask-type:luminance" maskUnits="userSpaceOnUse" x="164" y="288" width="42" height="41">
<path d="M164.333 288.667H205.667V328.667H164.333V288.667Z" fill="white"/>
</mask>
<g mask="url(#mask9_47_13844)">
<mask id="mask10_47_13844" style="mask-type:luminance" maskUnits="userSpaceOnUse" x="162" y="286" width="45" height="44">
<path d="M201.245 329.224L162.797 292.745L168.302 286.943L206.755 323.417L201.245 329.224Z" fill="white"/>
</mask>
<g mask="url(#mask10_47_13844)">
<mask id="mask11_47_13844" style="mask-type:luminance" maskUnits="userSpaceOnUse" x="162" y="286" width="45" height="44">
<path d="M201.245 329.224L162.797 292.745L168.302 286.943L206.755 323.417L201.245 329.224Z" fill="white"/>
</mask>
<g mask="url(#mask11_47_13844)">
<path d="M165.651 295.432L168.406 298.047L168.411 298.042L195.755 323.979L195.75 323.984L198.5 326.599C200.021 328.042 202.427 327.979 203.87 326.458C205.312 324.938 205.245 322.531 203.729 321.089L170.875 289.927C169.359 288.484 166.958 288.542 165.515 290.057C164.073 291.578 164.13 293.995 165.651 295.432Z" fill="#FCD590"/>
</g>
</g>
</g>
<mask id="mask12_47_13844" style="mask-type:luminance" maskUnits="userSpaceOnUse" x="189" y="314" width="13" height="12">
<path d="M189.667 314H201.667V326H189.667V314Z" fill="white"/>
</mask>
<g mask="url(#mask12_47_13844)">
<mask id="mask13_47_13844" style="mask-type:luminance" maskUnits="userSpaceOnUse" x="162" y="286" width="45" height="44">
<path d="M201.245 329.224L162.797 292.745L168.302 286.943L206.755 323.417L201.245 329.224Z" fill="white"/>
</mask>
<g mask="url(#mask13_47_13844)">
<mask id="mask14_47_13844" style="mask-type:luminance" maskUnits="userSpaceOnUse" x="162" y="286" width="45" height="44">
<path d="M201.245 329.224L162.797 292.745L168.302 286.943L206.755 323.417L201.245 329.224Z" fill="white"/>
</mask>
<g mask="url(#mask14_47_13844)">
<path d="M190.255 316.167L199.802 325.224C200.187 325.589 200.786 325.573 201.151 325.193C201.515 324.807 201.5 324.208 201.114 323.844L198.359 321.234L198.354 321.24L191.562 314.797C191.182 314.432 190.583 314.448 190.219 314.833C189.854 315.219 189.875 315.807 190.255 316.167Z" fill="#FCD590"/>
</g>
</g>
</g>
<mask id="mask15_47_13844" style="mask-type:luminance" maskUnits="userSpaceOnUse" x="157" y="302" width="54" height="19">
<path d="M157.667 302H211V320.667H157.667V302Z" fill="white"/>
</mask>
<g mask="url(#mask15_47_13844)">
<mask id="mask16_47_13844" style="mask-type:luminance" maskUnits="userSpaceOnUse" x="157" y="301" width="55" height="20">
<path d="M211.323 309.38L159.568 320.813L157.844 313L209.594 301.573L211.323 309.38Z" fill="white"/>
</mask>
<g mask="url(#mask16_47_13844)">
<mask id="mask17_47_13844" style="mask-type:luminance" maskUnits="userSpaceOnUse" x="157" y="301" width="55" height="20">
<path d="M211.323 309.38L159.568 320.813L157.844 313L209.594 301.573L211.323 309.38Z" fill="white"/>
</mask>
<g mask="url(#mask17_47_13844)">
<path d="M163.396 319.953L167.104 319.135L167.099 319.125L203.901 310.995L203.906 311.005L207.609 310.188C209.656 309.734 210.953 307.708 210.5 305.661C210.047 303.615 208.021 302.323 205.974 302.771L161.755 312.542C159.713 312.99 158.416 315.01 158.864 317.057C159.317 319.099 161.349 320.406 163.396 319.953Z" fill="#FCD590"/>
</g>
</g>
</g>
<mask id="mask18_47_13844" style="mask-type:luminance" maskUnits="userSpaceOnUse" x="192" y="306" width="17" height="6">
<path d="M192.333 306H208.333V311.333H192.333V306Z" fill="white"/>
</mask>
<g mask="url(#mask18_47_13844)">
<mask id="mask19_47_13844" style="mask-type:luminance" maskUnits="userSpaceOnUse" x="157" y="301" width="55" height="20">
<path d="M211.323 309.38L159.568 320.813L157.844 313L209.594 301.573L211.323 309.38Z" fill="white"/>
</mask>
<g mask="url(#mask19_47_13844)">
<mask id="mask20_47_13844" style="mask-type:luminance" maskUnits="userSpaceOnUse" x="157" y="301" width="55" height="20">
<path d="M211.323 309.38L159.568 320.813L157.844 313L209.594 301.573L211.323 309.38Z" fill="white"/>
</mask>
<g mask="url(#mask20_47_13844)">
<path d="M194.349 311.177L207.203 308.339C207.719 308.224 208.041 307.719 207.927 307.203C207.812 306.688 207.307 306.365 206.791 306.479L203.083 307.297L203.088 307.307L193.948 309.328C193.432 309.443 193.109 309.948 193.224 310.464C193.338 310.979 193.838 311.292 194.349 311.177Z" fill="#FCD590"/>
</g>
</g>
</g>
<mask id="mask21_47_13844" style="mask-type:luminance" maskUnits="userSpaceOnUse" x="215" y="295" width="43" height="41">
<path d="M215 295.333H257.667V335.333H215V295.333Z" fill="white"/>
</mask>
<g mask="url(#mask21_47_13844)">
<mask id="mask22_47_13844" style="mask-type:luminance" maskUnits="userSpaceOnUse" x="214" y="294" width="45" height="43">
<path d="M219.875 294.016L258.328 330.49L252.823 336.292L214.37 299.818L219.875 294.016Z" fill="white"/>
</mask>
<g mask="url(#mask22_47_13844)">
<mask id="mask23_47_13844" style="mask-type:luminance" maskUnits="userSpaceOnUse" x="214" y="293" width="45" height="44">
<path d="M258.24 330.406L219.786 293.927L214.281 299.729L252.729 336.208L258.24 330.406Z" fill="white"/>
</mask>
<g mask="url(#mask23_47_13844)">
<path d="M222.62 296.635L225.375 299.25L225.37 299.255L252.713 325.198L252.719 325.188L255.474 327.802C256.995 329.24 257.057 331.651 255.614 333.167C254.172 334.688 251.766 334.75 250.25 333.307L217.396 302.146C215.88 300.703 215.807 298.302 217.25 296.786C218.687 295.266 221.104 295.193 222.62 296.635Z" fill="#FCD590"/>
</g>
</g>
</g>
<mask id="mask24_47_13844" style="mask-type:luminance" maskUnits="userSpaceOnUse" x="243" y="319" width="12" height="13">
<path d="M243 319.333H255V331.333H243V319.333Z" fill="white"/>
</mask>
<g mask="url(#mask24_47_13844)">
<mask id="mask25_47_13844" style="mask-type:luminance" maskUnits="userSpaceOnUse" x="214" y="294" width="45" height="43">
<path d="M219.875 294.016L258.328 330.49L252.823 336.292L214.37 299.818L219.875 294.016Z" fill="white"/>
</mask>
<g mask="url(#mask25_47_13844)">
<mask id="mask26_47_13844" style="mask-type:luminance" maskUnits="userSpaceOnUse" x="214" y="293" width="45" height="44">
<path d="M258.24 330.406L219.786 293.927L214.281 299.729L252.729 336.208L258.24 330.406Z" fill="white"/>
</mask>
<g mask="url(#mask26_47_13844)">
<path d="M244.62 320.115L254.172 329.172C254.552 329.536 254.568 330.135 254.208 330.521C253.844 330.901 253.245 330.917 252.859 330.557L250.104 327.943L250.114 327.932L243.323 321.495C242.943 321.13 242.927 320.531 243.286 320.146C243.651 319.766 244.245 319.755 244.62 320.115Z" fill="#FCD590"/>
</g>
</g>
</g>
<mask id="mask27_47_13844" style="mask-type:luminance" maskUnits="userSpaceOnUse" x="209" y="302" width="54" height="19">
<path d="M209.667 302H263V320.667H209.667V302Z" fill="white"/>
</mask>
<g mask="url(#mask27_47_13844)">
<mask id="mask28_47_13844" style="mask-type:luminance" maskUnits="userSpaceOnUse" x="209" y="302" width="55" height="20">
<path d="M209.802 313.854L261.557 302.422L263.281 310.234L211.526 321.667L209.802 313.854Z" fill="white"/>
</mask>
<g mask="url(#mask28_47_13844)">
<mask id="mask29_47_13844" style="mask-type:luminance" maskUnits="userSpaceOnUse" x="209" y="302" width="55" height="20">
<path d="M261.432 302.448L209.682 313.88L211.406 321.693L263.161 310.26L261.432 302.448Z" fill="white"/>
</mask>
<g mask="url(#mask29_47_13844)">
<path d="M213.51 313.047L217.219 312.229L217.224 312.24L254.026 304.109L254.021 304.099L257.729 303.281C259.776 302.828 261.802 304.125 262.255 306.172C262.708 308.214 261.411 310.245 259.364 310.698L215.151 320.464C213.104 320.912 211.078 319.63 210.625 317.583C210.177 315.537 211.469 313.5 213.51 313.047Z" fill="#FCD590"/>
</g>
</g>
</g>
<mask id="mask30_47_13844" style="mask-type:luminance" maskUnits="userSpaceOnUse" x="244" y="304" width="17" height="7">
<path d="M244.333 304.667H260.333V310H244.333V304.667Z" fill="white"/>
</mask>
<g mask="url(#mask30_47_13844)">
<mask id="mask31_47_13844" style="mask-type:luminance" maskUnits="userSpaceOnUse" x="209" y="302" width="55" height="20">
<path d="M209.802 313.854L261.557 302.422L263.281 310.234L211.526 321.667L209.802 313.854Z" fill="white"/>
</mask>
<g mask="url(#mask31_47_13844)">
<mask id="mask32_47_13844" style="mask-type:luminance" maskUnits="userSpaceOnUse" x="209" y="302" width="55" height="20">
<path d="M261.433 302.448L209.683 313.88L211.407 321.693L263.162 310.26L261.433 302.448Z" fill="white"/>
</mask>
<g mask="url(#mask32_47_13844)">
<path d="M245.282 307.969L258.136 305.13C258.657 305.016 259.157 305.339 259.271 305.854C259.386 306.37 259.063 306.875 258.547 306.99L254.839 307.807V307.797L245.698 309.818C245.183 309.927 244.677 309.609 244.568 309.094C244.453 308.573 244.776 308.083 245.282 307.969Z" fill="#FCD590"/>
</g>
</g>
</g>
<mask id="mask33_47_13844" style="mask-type:luminance" maskUnits="userSpaceOnUse" x="159" y="0" width="58" height="60">
<path d="M159 0.666626H216.333V59.3333H159V0.666626Z" fill="white"/>
</mask>
<g mask="url(#mask33_47_13844)">
<mask id="mask34_47_13844" style="mask-type:luminance" maskUnits="userSpaceOnUse" x="148" y="-9" width="85" height="85">
<path d="M232.193 42.6353L199.661 75.1614L148.75 24.2499L181.281 -8.27612L232.193 42.6353Z" fill="white"/>
</mask>
<g mask="url(#mask34_47_13844)">
<mask id="mask35_47_13844" style="mask-type:luminance" maskUnits="userSpaceOnUse" x="148" y="-9" width="85" height="85">
<path d="M232.193 42.6353L199.661 75.1614L148.75 24.2499L181.281 -8.27612L232.193 42.6353Z" fill="white"/>
</mask>
<g mask="url(#mask35_47_13844)">
<path d="M184.208 50.302L215.979 58.8489L207.432 27.0781C206.359 22.6614 202.609 13.0676 199.083 9.5416C189.432 -0.109441 174.359 -0.671942 165.412 8.28118C156.458 17.2343 157.021 32.3072 166.667 41.9583C170.193 45.4843 179.792 49.2239 184.208 50.302Z" fill="#604428"/>
</g>
</g>
</g>
<mask id="mask36_47_13844" style="mask-type:luminance" maskUnits="userSpaceOnUse" x="205" y="0" width="60" height="60">
<path d="M205.667 0.666626H264.333V59.3333H205.667V0.666626Z" fill="white"/>
</mask>
<g mask="url(#mask36_47_13844)">
<mask id="mask37_47_13844" style="mask-type:luminance" maskUnits="userSpaceOnUse" x="190" y="-9" width="85" height="85">
<path d="M223.125 75.0625L190.599 42.5365L241.51 -8.375L274.036 24.151L223.125 75.0625Z" fill="white"/>
</mask>
<g mask="url(#mask37_47_13844)">
<mask id="mask38_47_13844" style="mask-type:luminance" maskUnits="userSpaceOnUse" x="190" y="-9" width="85" height="85">
<path d="M190.698 42.6355L223.224 75.1615L274.135 24.25L241.609 -8.276L190.698 42.6355Z" fill="white"/>
</mask>
<g mask="url(#mask38_47_13844)">
<path d="M238.682 50.3021L206.911 58.849L215.453 27.0782C216.531 22.6615 220.281 13.0678 223.807 9.54172C233.453 -0.109318 248.531 -0.67182 257.479 8.28131C266.432 17.2344 265.869 32.3073 256.224 41.9584C252.698 45.4844 243.099 49.224 238.682 50.3021Z" fill="#604428"/>
</g>
</g>
</g>
<mask id="mask39_47_13844" style="mask-type:luminance" maskUnits="userSpaceOnUse" x="123" y="112" width="178" height="177">
<path d="M123.01 112.01H300.01V288.667H123.01V112.01Z" fill="white"/>
</mask>
<g mask="url(#mask39_47_13844)">
<path d="M299.651 200.333C299.651 201.776 299.614 203.224 299.542 204.667C299.474 206.109 299.364 207.552 299.224 208.99C299.083 210.427 298.906 211.865 298.693 213.292C298.479 214.724 298.234 216.146 297.953 217.562C297.672 218.979 297.354 220.391 297 221.792C296.651 223.193 296.265 224.589 295.844 225.969C295.427 227.354 294.974 228.724 294.484 230.089C294 231.448 293.479 232.797 292.927 234.13C292.375 235.469 291.786 236.786 291.167 238.094C290.552 239.401 289.901 240.693 289.219 241.969C288.536 243.24 287.828 244.5 287.083 245.74C286.338 246.979 285.568 248.198 284.765 249.401C283.963 250.604 283.13 251.786 282.265 252.943C281.406 254.104 280.515 255.245 279.599 256.365C278.682 257.479 277.739 258.573 276.771 259.646C275.797 260.714 274.802 261.76 273.781 262.786C272.76 263.807 271.713 264.802 270.64 265.776C269.568 266.745 268.474 267.687 267.359 268.604C266.239 269.521 265.104 270.411 263.943 271.271C262.781 272.135 261.599 272.964 260.396 273.771C259.193 274.573 257.974 275.344 256.734 276.089C255.495 276.828 254.239 277.542 252.963 278.224C251.687 278.906 250.396 279.557 249.088 280.172C247.781 280.792 246.463 281.375 245.125 281.932C243.792 282.484 242.443 283.005 241.083 283.49C239.724 283.979 238.349 284.432 236.969 284.849C235.583 285.271 234.193 285.656 232.786 286.005C231.385 286.359 229.979 286.672 228.557 286.958C227.14 287.24 225.719 287.484 224.286 287.698C222.859 287.911 221.422 288.083 219.984 288.229C218.547 288.37 217.104 288.474 215.661 288.547C214.219 288.62 212.776 288.651 211.328 288.651C209.885 288.651 208.437 288.62 206.995 288.547C205.552 288.474 204.109 288.37 202.672 288.229C201.234 288.089 199.797 287.911 198.37 287.698C196.937 287.484 195.515 287.24 194.099 286.958C192.682 286.672 191.271 286.359 189.87 286.005C188.469 285.656 187.073 285.271 185.693 284.849C184.307 284.432 182.937 283.979 181.573 283.49C180.213 283.005 178.864 282.484 177.531 281.932C176.193 281.375 174.875 280.792 173.568 280.172C172.26 279.557 170.969 278.906 169.693 278.224C168.422 277.542 167.161 276.828 165.922 276.089C164.682 275.344 163.463 274.573 162.26 273.771C161.057 272.964 159.875 272.135 158.719 271.271C157.557 270.411 156.417 269.521 155.297 268.604C154.182 267.687 153.088 266.745 152.015 265.776C150.943 264.802 149.901 263.807 148.875 262.786C147.854 261.76 146.859 260.714 145.885 259.646C144.917 258.573 143.974 257.479 143.057 256.365C142.14 255.245 141.25 254.104 140.39 252.943C139.526 251.786 138.698 250.604 137.89 249.401C137.088 248.198 136.318 246.979 135.573 245.74C134.828 244.5 134.12 243.24 133.437 241.969C132.755 240.693 132.104 239.401 131.489 238.094C130.87 236.786 130.286 235.469 129.729 234.13C129.177 232.797 128.656 231.448 128.172 230.089C127.682 228.724 127.229 227.354 126.812 225.969C126.39 224.589 126.005 223.193 125.656 221.792C125.302 220.391 124.989 218.979 124.703 217.562C124.422 216.146 124.177 214.724 123.963 213.292C123.75 211.865 123.573 210.427 123.432 208.99C123.292 207.552 123.187 206.109 123.114 204.667C123.042 203.224 123.01 201.776 123.01 200.333C123.01 198.885 123.042 197.443 123.114 196C123.187 194.557 123.292 193.115 123.432 191.677C123.573 190.24 123.75 188.802 123.963 187.375C124.177 185.943 124.422 184.521 124.703 183.104C124.989 181.682 125.302 180.276 125.656 178.875C126.005 177.469 126.39 176.078 126.812 174.693C127.229 173.312 127.682 171.937 128.172 170.578C128.656 169.219 129.177 167.87 129.729 166.536C130.286 165.198 130.87 163.875 131.489 162.573C132.104 161.266 132.755 159.974 133.437 158.698C134.12 157.422 134.828 156.167 135.573 154.927C136.318 153.687 137.088 152.469 137.89 151.266C138.698 150.062 139.526 148.88 140.39 147.719C141.25 146.557 142.14 145.422 143.057 144.302C143.974 143.187 144.917 142.094 145.885 141.021C146.859 139.948 147.854 138.901 148.875 137.88C149.901 136.859 150.943 135.865 152.015 134.891C153.088 133.922 154.182 132.979 155.297 132.062C156.417 131.141 157.557 130.255 158.719 129.391C159.875 128.531 161.057 127.698 162.26 126.896C163.463 126.094 164.682 125.323 165.922 124.578C167.161 123.833 168.422 123.125 169.693 122.443C170.969 121.76 172.26 121.109 173.568 120.49C174.875 119.875 176.193 119.286 177.531 118.734C178.864 118.182 180.213 117.661 181.573 117.177C182.937 116.687 184.307 116.234 185.693 115.818C187.073 115.396 188.469 115.01 189.87 114.661C191.271 114.307 192.682 113.99 194.099 113.708C195.515 113.427 196.937 113.182 198.37 112.969C199.797 112.755 201.234 112.578 202.672 112.437C204.109 112.297 205.552 112.187 206.995 112.12C208.437 112.047 209.885 112.01 211.328 112.01C212.776 112.01 214.219 112.047 215.661 112.12C217.104 112.187 218.547 112.297 219.984 112.437C221.422 112.578 222.859 112.755 224.286 112.969C225.719 113.182 227.14 113.427 228.557 113.708C229.979 113.99 231.385 114.307 232.786 114.661C234.193 115.01 235.583 115.396 236.969 115.818C238.349 116.234 239.724 116.687 241.083 117.177C242.443 117.661 243.792 118.182 245.125 118.734C246.463 119.286 247.781 119.875 249.088 120.49C250.396 121.109 251.687 121.76 252.963 122.443C254.239 123.125 255.495 123.833 256.734 124.578C257.974 125.323 259.193 126.094 260.396 126.896C261.599 127.698 262.781 128.531 263.943 129.391C265.104 130.255 266.239 131.141 267.359 132.062C268.474 132.979 269.568 133.922 270.64 134.891C271.713 135.865 272.76 136.859 273.781 137.88C274.802 138.901 275.797 139.948 276.771 141.021C277.739 142.094 278.682 143.187 279.599 144.302C280.515 145.422 281.406 146.557 282.265 147.719C283.13 148.88 283.963 150.062 284.765 151.266C285.568 152.469 286.338 153.687 287.083 154.927C287.828 156.167 288.536 157.422 289.219 158.698C289.901 159.974 290.552 161.266 291.167 162.573C291.786 163.875 292.375 165.198 292.927 166.536C293.479 167.87 294 169.219 294.484 170.578C294.974 171.937 295.427 173.312 295.844 174.693C296.265 176.078 296.651 177.469 297 178.875C297.354 180.276 297.672 181.682 297.953 183.104C298.234 184.521 298.479 185.943 298.693 187.375C298.906 188.802 299.083 190.24 299.224 191.677C299.364 193.115 299.474 194.557 299.542 196C299.614 197.443 299.651 198.885 299.651 200.333Z" fill="#A58168"/>
</g>
<mask id="mask40_47_13844" style="mask-type:luminance" maskUnits="userSpaceOnUse" x="123" y="52" width="178" height="178">
<path d="M123.01 52.4531H300.01V229.453H123.01V52.4531Z" fill="white"/>
</mask>
<g mask="url(#mask40_47_13844)">
<path d="M299.651 140.771C299.651 142.219 299.614 143.661 299.542 145.104C299.474 146.552 299.364 147.99 299.224 149.427C299.083 150.87 298.906 152.302 298.693 153.729C298.479 155.161 298.234 156.583 297.953 158.005C297.672 159.422 297.354 160.828 297 162.234C296.651 163.635 296.265 165.026 295.844 166.411C295.427 167.792 294.974 169.167 294.484 170.526C294 171.885 293.479 173.234 292.927 174.573C292.375 175.906 291.786 177.229 291.167 178.536C290.552 179.839 289.901 181.13 289.219 182.406C288.536 183.682 287.828 184.938 287.083 186.177C286.338 187.417 285.568 188.641 284.765 189.839C283.963 191.042 283.13 192.224 282.265 193.385C281.406 194.547 280.515 195.682 279.599 196.802C278.682 197.922 277.739 199.016 276.771 200.083C275.797 201.156 274.802 202.203 273.781 203.224C272.76 204.245 271.713 205.245 270.64 206.214C269.568 207.182 268.474 208.13 267.359 209.047C266.239 209.964 265.104 210.849 263.943 211.714C262.781 212.573 261.599 213.406 260.396 214.208C259.193 215.01 257.974 215.786 256.734 216.526C255.495 217.271 254.239 217.984 252.963 218.661C251.687 219.344 250.396 219.995 249.088 220.615C247.781 221.229 246.463 221.818 245.125 222.37C243.792 222.922 242.443 223.443 241.083 223.932C239.724 224.417 238.349 224.87 236.969 225.292C235.583 225.708 234.193 226.094 232.786 226.448C231.385 226.797 229.979 227.115 228.557 227.396C227.14 227.677 225.719 227.927 224.286 228.135C222.859 228.349 221.422 228.526 219.984 228.667C218.547 228.807 217.104 228.917 215.661 228.984C214.219 229.057 212.776 229.094 211.328 229.094C209.885 229.094 208.437 229.057 206.995 228.984C205.552 228.917 204.109 228.807 202.672 228.667C201.234 228.526 199.797 228.349 198.37 228.135C196.937 227.927 195.515 227.677 194.099 227.396C192.682 227.115 191.271 226.797 189.87 226.448C188.469 226.094 187.073 225.708 185.693 225.292C184.307 224.87 182.937 224.417 181.573 223.932C180.213 223.443 178.864 222.922 177.531 222.37C176.193 221.818 174.875 221.229 173.568 220.615C172.26 219.995 170.969 219.344 169.693 218.661C168.422 217.984 167.161 217.271 165.922 216.526C164.682 215.786 163.463 215.01 162.26 214.208C161.057 213.406 159.875 212.573 158.719 211.714C157.557 210.849 156.417 209.964 155.297 209.047C154.182 208.13 153.088 207.182 152.015 206.214C150.943 205.245 149.901 204.245 148.875 203.224C147.854 202.203 146.859 201.156 145.885 200.083C144.917 199.016 143.974 197.922 143.057 196.802C142.14 195.682 141.25 194.547 140.39 193.385C139.526 192.224 138.698 191.042 137.89 189.839C137.088 188.641 136.318 187.417 135.573 186.177C134.828 184.938 134.12 183.682 133.437 182.406C132.755 181.13 132.104 179.839 131.489 178.536C130.87 177.229 130.286 175.906 129.729 174.573C129.177 173.234 128.656 171.885 128.172 170.526C127.682 169.167 127.229 167.792 126.812 166.411C126.39 165.026 126.005 163.635 125.656 162.234C125.302 160.828 124.989 159.422 124.703 158.005C124.422 156.583 124.177 155.161 123.963 153.729C123.75 152.302 123.573 150.87 123.432 149.427C123.292 147.99 123.187 146.552 123.114 145.104C123.042 143.661 123.01 142.219 123.01 140.771C123.01 139.328 123.042 137.88 123.114 136.438C123.187 134.995 123.292 133.552 123.432 132.115C123.573 130.677 123.75 129.245 123.963 127.812C124.177 126.385 124.422 124.958 124.703 123.542C124.989 122.125 125.302 120.714 125.656 119.312C126.005 117.911 126.39 116.516 126.812 115.135C127.229 113.75 127.682 112.38 128.172 111.016C128.656 109.656 129.177 108.307 129.729 106.974C130.286 105.641 130.87 104.318 131.489 103.01C132.104 101.703 132.755 100.411 133.437 99.1406C134.12 97.8646 134.828 96.6042 135.573 95.3646C136.318 94.125 137.088 92.9062 137.89 91.7031C138.698 90.5 139.526 89.3229 140.39 88.1615C141.25 87 142.14 85.8594 143.057 84.7448C143.974 83.625 144.917 82.5313 145.885 81.4583C146.859 80.3906 147.854 79.3438 148.875 78.3229C149.901 77.2969 150.943 76.3021 152.015 75.3333C153.088 74.3594 154.182 73.4167 155.297 72.5C156.417 71.5833 157.557 70.6927 158.719 69.8333C159.875 68.974 161.057 68.1406 162.26 67.3385C163.463 66.5313 164.682 65.7604 165.922 65.0156C167.161 64.276 168.422 63.5625 169.693 62.8802C170.969 62.1979 172.26 61.5521 173.568 60.9323C174.875 60.3125 176.193 59.7292 177.531 59.1771C178.864 58.6198 180.213 58.1042 181.573 57.6146C182.937 57.1302 184.307 56.6771 185.693 56.2552C187.073 55.8333 188.469 55.4479 189.87 55.099C191.271 54.75 192.682 54.4323 194.099 54.151C195.515 53.8646 196.937 53.6198 198.37 53.4062C199.797 53.1979 201.234 53.0208 202.672 52.875C204.109 52.7344 205.552 52.6302 206.995 52.5573C208.437 52.4896 209.885 52.4531 211.328 52.4531C212.776 52.4531 214.219 52.4896 215.661 52.5573C217.104 52.6302 218.547 52.7344 219.984 52.875C221.422 53.0208 222.859 53.1979 224.286 53.4062C225.719 53.6198 227.14 53.8646 228.557 54.151C229.979 54.4323 231.385 54.75 232.786 55.099C234.193 55.4479 235.583 55.8333 236.969 56.2552C238.349 56.6771 239.724 57.1302 241.083 57.6146C242.443 58.1042 243.792 58.6198 245.125 59.1771C246.463 59.7292 247.781 60.3125 249.088 60.9323C250.396 61.5521 251.687 62.1979 252.963 62.8802C254.239 63.5625 255.495 64.276 256.734 65.0156C257.974 65.7604 259.193 66.5313 260.396 67.3385C261.599 68.1406 262.781 68.974 263.943 69.8333C265.104 70.6927 266.239 71.5833 267.359 72.5C268.474 73.4167 269.568 74.3594 270.64 75.3333C271.713 76.3021 272.76 77.2969 273.781 78.3229C274.802 79.3438 275.797 80.3906 276.771 81.4583C277.739 82.5313 278.682 83.625 279.599 84.7448C280.515 85.8594 281.406 87 282.265 88.1615C283.13 89.3229 283.963 90.5 284.765 91.7031C285.568 92.9062 286.338 94.125 287.083 95.3646C287.828 96.6042 288.536 97.8646 289.219 99.1406C289.901 100.411 290.552 101.703 291.167 103.01C291.786 104.318 292.375 105.641 292.927 106.974C293.479 108.307 294 109.656 294.484 111.016C294.974 112.38 295.427 113.75 295.844 115.135C296.265 116.516 296.651 117.911 297 119.312C297.354 120.714 297.672 122.125 297.953 123.542C298.234 124.958 298.479 126.385 298.693 127.812C298.906 129.245 299.083 130.677 299.224 132.115C299.364 133.552 299.474 134.995 299.542 136.438C299.614 137.88 299.651 139.328 299.651 140.771Z" fill="#A58168"/>
</g>
<mask id="mask41_47_13844" style="mask-type:luminance" maskUnits="userSpaceOnUse" x="222" y="96" width="64" height="64">
<path d="M222.641 96.9219H285.339V159.615H222.641V96.9219Z" fill="white"/>
</mask>
<g mask="url(#mask41_47_13844)">
<mask id="mask42_47_13844" style="mask-type:luminance" maskUnits="userSpaceOnUse" x="222" y="96" width="64" height="64">
<path d="M253.99 96.9219C236.677 96.9219 222.641 110.953 222.641 128.271C222.641 145.583 236.677 159.615 253.99 159.615C271.302 159.615 285.339 145.583 285.339 128.271C285.339 110.953 271.302 96.9219 253.99 96.9219Z" fill="white"/>
</mask>
<g mask="url(#mask42_47_13844)">
<path d="M222.641 96.9219H285.339V159.615H222.641V96.9219Z" fill="white"/>
</g>
</g>
<mask id="mask43_47_13844" style="mask-type:luminance" maskUnits="userSpaceOnUse" x="137" y="96" width="64" height="64">
<path d="M137.88 96.9219H200.578V159.615H137.88V96.9219Z" fill="white"/>
</mask>
<g mask="url(#mask43_47_13844)">
<mask id="mask44_47_13844" style="mask-type:luminance" maskUnits="userSpaceOnUse" x="137" y="96" width="64" height="64">
<path d="M169.229 96.9219C151.917 96.9219 137.88 110.953 137.88 128.271C137.88 145.583 151.917 159.615 169.229 159.615C186.542 159.615 200.578 145.583 200.578 128.271C200.578 110.953 186.542 96.9219 169.229 96.9219Z" fill="white"/>
</mask>
<g mask="url(#mask44_47_13844)">
<path d="M137.88 96.9219H200.578V159.615H137.88V96.9219Z" fill="white"/>
</g>
</g>
<mask id="mask45_47_13844" style="mask-type:luminance" maskUnits="userSpaceOnUse" x="193" y="150" width="37" height="19">
<path d="M193.083 150.448H229.083V168.448H193.083V150.448Z" fill="white"/>
</mask>
<g mask="url(#mask45_47_13844)">
<path d="M229.568 159.609C229.568 160.214 229.453 160.807 229.219 161.396C228.985 161.984 228.641 162.557 228.182 163.109C227.724 163.667 227.162 164.193 226.495 164.693C225.828 165.188 225.073 165.651 224.224 166.078C223.38 166.5 222.458 166.88 221.464 167.214C220.469 167.547 219.417 167.828 218.307 168.057C217.203 168.286 216.063 168.464 214.886 168.578C213.714 168.698 212.526 168.755 211.328 168.755C210.13 168.755 208.943 168.698 207.771 168.578C206.594 168.464 205.453 168.286 204.349 168.057C203.24 167.828 202.188 167.547 201.193 167.214C200.198 166.88 199.276 166.5 198.427 166.078C197.583 165.651 196.823 165.188 196.162 164.693C195.495 164.193 194.932 163.667 194.474 163.109C194.016 162.557 193.672 161.984 193.438 161.396C193.203 160.807 193.083 160.214 193.083 159.609C193.083 159.01 193.203 158.417 193.438 157.828C193.672 157.24 194.016 156.667 194.474 156.115C194.932 155.557 195.495 155.031 196.162 154.531C196.823 154.031 197.583 153.573 198.427 153.146C199.276 152.724 200.198 152.344 201.193 152.01C202.188 151.677 203.24 151.396 204.349 151.167C205.453 150.932 206.594 150.76 207.771 150.646C208.943 150.526 210.13 150.469 211.328 150.469C212.526 150.469 213.714 150.526 214.886 150.646C216.063 150.76 217.203 150.932 218.307 151.167C219.417 151.396 220.469 151.677 221.464 152.01C222.458 152.344 223.38 152.724 224.224 153.146C225.073 153.573 225.828 154.031 226.495 154.531C227.162 155.031 227.724 155.557 228.182 156.115C228.641 156.667 228.985 157.24 229.219 157.828C229.453 158.417 229.568 159.01 229.568 159.609Z" fill="#FCD590"/>
</g>
<mask id="mask46_47_13844" style="mask-type:luminance" maskUnits="userSpaceOnUse" x="234" y="109" width="39" height="39">
<path d="M234.203 109.229H272.964V147.99H234.203V109.229Z" fill="white"/>
</mask>
<g mask="url(#mask46_47_13844)">
<mask id="mask47_47_13844" style="mask-type:luminance" maskUnits="userSpaceOnUse" x="234" y="109" width="39" height="39">
<path d="M253.583 109.229C242.88 109.229 234.203 117.906 234.203 128.609C234.203 139.312 242.88 147.99 253.583 147.99C264.286 147.99 272.964 139.312 272.964 128.609C272.964 117.906 264.286 109.229 253.583 109.229Z" fill="white"/>
</mask>
<g mask="url(#mask47_47_13844)">
<path d="M234.203 109.229H272.964V147.99H234.203V109.229Z" fill="#604428"/>
</g>
</g>
<mask id="mask48_47_13844" style="mask-type:luminance" maskUnits="userSpaceOnUse" x="151" y="109" width="40" height="39">
<path d="M151.932 109.229H190.698V147.99H151.932V109.229Z" fill="white"/>
</mask>
<g mask="url(#mask48_47_13844)">
<mask id="mask49_47_13844" style="mask-type:luminance" maskUnits="userSpaceOnUse" x="151" y="109" width="40" height="39">
<path d="M171.312 109.229C160.609 109.229 151.932 117.906 151.932 128.609C151.932 139.312 160.609 147.99 171.312 147.99C182.021 147.99 190.698 139.312 190.698 128.609C190.698 117.906 182.021 109.229 171.312 109.229Z" fill="white"/>
</mask>
<g mask="url(#mask49_47_13844)">
<path d="M151.932 109.229H190.698V147.99H151.932V109.229Z" fill="#604428"/>
</g>
</g>
<mask id="mask50_47_13844" style="mask-type:luminance" maskUnits="userSpaceOnUse" x="169" y="110" width="19" height="19">
<path d="M169.229 110.047H187.792V128.609H169.229V110.047Z" fill="white"/>
</mask>
<g mask="url(#mask50_47_13844)">
<mask id="mask51_47_13844" style="mask-type:luminance" maskUnits="userSpaceOnUse" x="169" y="110" width="19" height="19">
<path d="M178.51 110.047C173.385 110.047 169.229 114.203 169.229 119.328C169.229 124.453 173.385 128.609 178.51 128.609C183.635 128.609 187.792 124.453 187.792 119.328C187.792 114.203 183.635 110.047 178.51 110.047Z" fill="white"/>
</mask>
<g mask="url(#mask51_47_13844)">
<path d="M169.229 110.047H187.792V128.609H169.229V110.047Z" fill="white"/>
</g>
</g>
<mask id="mask52_47_13844" style="mask-type:luminance" maskUnits="userSpaceOnUse" x="251" y="109" width="20" height="20">
<path d="M251.49 109.708H270.052V128.271H251.49V109.708Z" fill="white"/>
</mask>
<g mask="url(#mask52_47_13844)">
<mask id="mask53_47_13844" style="mask-type:luminance" maskUnits="userSpaceOnUse" x="251" y="109" width="20" height="20">
<path d="M260.771 109.708C255.646 109.708 251.49 113.859 251.49 118.99C251.49 124.115 255.646 128.271 260.771 128.271C265.896 128.271 270.052 124.115 270.052 118.99C270.052 113.859 265.896 109.708 260.771 109.708Z" fill="white"/>
</mask>
<g mask="url(#mask53_47_13844)">
<path d="M251.49 109.708H270.052V128.271H251.49V109.708Z" fill="white"/>
</g>
</g>
<mask id="mask54_47_13844" style="mask-type:luminance" maskUnits="userSpaceOnUse" x="151" y="192" width="121" height="46">
<path d="M151.312 192.922H271.312V237.922H151.312V192.922Z" fill="white"/>
</mask>
<g mask="url(#mask54_47_13844)">
<path d="M257.385 217.24C241.115 212.839 228.938 216.552 220.943 221.271C231.875 210.151 248.547 206.5 253.885 205.594L257.385 217.24ZM238.151 192.979L242.74 203.938C234.089 206.625 222.786 211.839 215.135 221.458C219.979 204.625 233.219 195.755 238.151 192.979ZM184.443 192.979C189.375 195.755 202.615 204.594 207.453 221.49C199.807 211.87 188.5 206.656 179.854 203.969L184.443 192.979ZM168.703 205.594C174.042 206.5 190.719 210.151 201.646 221.271C193.651 216.552 181.474 212.839 165.208 217.24L168.703 205.594ZM218.323 237.568H204.271C201.177 233.573 187.812 220.74 151.312 235.943L154.464 225.734C190.875 208.063 208.859 232.323 209.609 233.385C209.641 233.417 209.672 233.417 209.703 233.448C209.734 233.51 209.766 233.573 209.828 233.604C209.859 233.635 209.859 233.635 209.859 233.667C209.922 233.729 209.984 233.76 210.078 233.792C210.141 233.823 210.203 233.885 210.266 233.917C210.328 233.948 210.391 234.01 210.484 234.042C210.516 234.042 210.547 234.073 210.547 234.073C210.672 234.135 210.828 234.135 210.984 234.167C211.078 234.167 211.141 234.229 211.234 234.229C211.266 234.229 211.297 234.229 211.328 234.229C211.359 234.229 211.391 234.229 211.422 234.229C211.516 234.229 211.578 234.198 211.672 234.167C211.828 234.135 211.953 234.135 212.109 234.073C212.141 234.073 212.172 234.042 212.172 234.042C212.266 234.01 212.328 233.948 212.391 233.917C212.453 233.885 212.516 233.854 212.578 233.792C212.641 233.729 212.734 233.698 212.797 233.667C212.828 233.635 212.828 233.635 212.828 233.604C212.891 233.542 212.922 233.51 212.953 233.448C212.984 233.417 213.016 233.417 213.047 233.385C213.792 232.323 231.781 208.063 268.188 225.734L271.344 235.943C234.807 220.74 221.411 233.604 218.323 237.568Z" fill="#604428"/>
</g>
</svg>
