<svg width="324" height="295" viewBox="0 0 324 295" fill="none" xmlns="http://www.w3.org/2000/svg">
<mask id="mask0_47_13848" style="mask-type:luminance" maskUnits="userSpaceOnUse" x="170" y="215" width="9" height="60">
<path d="M170.958 215.167H178.958V274.167H170.958V215.167Z" fill="white"/>
</mask>
<g mask="url(#mask0_47_13848)">
<path d="M170.974 219.479V223.708H170.984V265.708H170.974V269.938C170.974 272.271 172.87 274.167 175.203 274.167C177.536 274.167 179.432 272.271 179.432 269.938V219.479C179.432 217.146 177.547 215.245 175.213 215.245C172.88 215.245 170.974 217.146 170.974 219.479Z" fill="#FCD590"/>
</g>
<path d="M173.083 255.266V269.938C173.083 270.526 173.552 271 174.146 271C174.734 271 175.203 270.526 175.203 269.938V265.708H175.193V255.276C175.193 254.688 174.719 254.219 174.13 254.219C173.542 254.219 173.083 254.687 173.083 255.266Z" fill="#FCD590"/>
<mask id="mask1_47_13848" style="mask-type:luminance" maskUnits="userSpaceOnUse" x="129" y="212" width="9" height="60">
<path d="M129.453 212.766H137.453V271.766H129.453V212.766Z" fill="white"/>
</mask>
<g mask="url(#mask1_47_13848)">
<path d="M129.469 217.078V221.307H129.479V263.307H129.469V267.536C129.469 269.87 131.365 271.766 133.698 271.766C136.031 271.766 137.927 269.87 137.927 267.536V217.078C137.927 214.745 136.042 212.844 133.708 212.844C131.375 212.844 129.469 214.745 129.469 217.078Z" fill="#FCD590"/>
</g>
<path d="M131.578 252.865V267.536C131.578 268.125 132.047 268.599 132.641 268.599C133.229 268.599 133.698 268.125 133.698 267.536V263.307H133.688V252.88C133.688 252.286 133.214 251.818 132.625 251.818C132.036 251.818 131.578 252.286 131.578 252.865Z" fill="#FCD590"/>
<mask id="mask2_47_13848" style="mask-type:luminance" maskUnits="userSpaceOnUse" x="108" y="247" width="42" height="40">
<path d="M108.667 247H150V287H108.667V247Z" fill="white"/>
</mask>
<g mask="url(#mask2_47_13848)">
<mask id="mask3_47_13848" style="mask-type:luminance" maskUnits="userSpaceOnUse" x="107" y="246" width="45" height="43">
<path d="M145.917 288.365L107.464 251.885L112.969 246.083L151.422 282.563L145.917 288.365Z" fill="white"/>
</mask>
<g mask="url(#mask3_47_13848)">
<mask id="mask4_47_13848" style="mask-type:luminance" maskUnits="userSpaceOnUse" x="107" y="246" width="45" height="43">
<path d="M145.917 288.365L107.464 251.885L112.969 246.083L151.422 282.563L145.917 288.365Z" fill="white"/>
</mask>
<g mask="url(#mask4_47_13848)">
<path d="M110.318 254.578L113.073 257.188L113.078 257.182L140.422 283.12L140.417 283.13L143.172 285.74C144.688 287.182 147.094 287.12 148.537 285.599C149.979 284.083 149.912 281.677 148.396 280.234L115.542 249.068C114.026 247.625 111.625 247.682 110.182 249.203C108.745 250.719 108.797 253.135 110.318 254.578Z" fill="#FCD590"/>
</g>
</g>
</g>
<mask id="mask5_47_13848" style="mask-type:luminance" maskUnits="userSpaceOnUse" x="134" y="273" width="14" height="13">
<path d="M134 273.667H147.333V285.667H134V273.667Z" fill="white"/>
</mask>
<g mask="url(#mask5_47_13848)">
<mask id="mask6_47_13848" style="mask-type:luminance" maskUnits="userSpaceOnUse" x="107" y="246" width="45" height="43">
<path d="M145.917 288.365L107.464 251.885L112.969 246.083L151.422 282.563L145.917 288.365Z" fill="white"/>
</mask>
<g mask="url(#mask6_47_13848)">
<mask id="mask7_47_13848" style="mask-type:luminance" maskUnits="userSpaceOnUse" x="107" y="246" width="45" height="43">
<path d="M145.917 288.365L107.464 251.885L112.969 246.083L151.422 282.563L145.917 288.365Z" fill="white"/>
</mask>
<g mask="url(#mask7_47_13848)">
<path d="M134.922 275.307L144.474 284.37C144.854 284.734 145.453 284.719 145.818 284.333C146.182 283.948 146.167 283.349 145.781 282.99L143.026 280.375L143.021 280.38L136.229 273.943C135.849 273.578 135.25 273.594 134.886 273.979C134.521 274.359 134.547 274.953 134.922 275.307Z" fill="#FCD590"/>
</g>
</g>
</g>
<mask id="mask8_47_13848" style="mask-type:luminance" maskUnits="userSpaceOnUse" x="103" y="261" width="53" height="20">
<path d="M103.333 261.667H155.333V280.333H103.333V261.667Z" fill="white"/>
</mask>
<g mask="url(#mask8_47_13848)">
<mask id="mask9_47_13848" style="mask-type:luminance" maskUnits="userSpaceOnUse" x="102" y="260" width="54" height="20">
<path d="M155.989 268.526L104.234 279.953L102.51 272.146L154.265 260.714L155.989 268.526Z" fill="white"/>
</mask>
<g mask="url(#mask9_47_13848)">
<mask id="mask10_47_13848" style="mask-type:luminance" maskUnits="userSpaceOnUse" x="102" y="260" width="54" height="20">
<path d="M155.989 268.526L104.234 279.953L102.51 272.146L154.265 260.714L155.989 268.526Z" fill="white"/>
</mask>
<g mask="url(#mask10_47_13848)">
<path d="M108.062 279.099L111.771 278.276L111.766 278.266L148.568 270.141L148.573 270.151L152.281 269.328C154.323 268.88 155.62 266.849 155.167 264.802C154.713 262.76 152.687 261.464 150.641 261.917L106.427 271.682C104.38 272.135 103.083 274.151 103.536 276.198C103.984 278.245 106.016 279.547 108.062 279.099Z" fill="#FCD590"/>
</g>
</g>
</g>
<mask id="mask11_47_13848" style="mask-type:luminance" maskUnits="userSpaceOnUse" x="136" y="264" width="17" height="7">
<path d="M136.667 264.333H152.667V271H136.667V264.333Z" fill="white"/>
</mask>
<g mask="url(#mask11_47_13848)">
<mask id="mask12_47_13848" style="mask-type:luminance" maskUnits="userSpaceOnUse" x="102" y="260" width="54" height="20">
<path d="M155.99 268.526L104.234 279.953L102.51 272.146L154.266 260.714L155.99 268.526Z" fill="white"/>
</mask>
<g mask="url(#mask12_47_13848)">
<mask id="mask13_47_13848" style="mask-type:luminance" maskUnits="userSpaceOnUse" x="102" y="260" width="54" height="20">
<path d="M155.99 268.526L104.234 279.953L102.51 272.146L154.266 260.714L155.99 268.526Z" fill="white"/>
</mask>
<g mask="url(#mask13_47_13848)">
<path d="M139.016 270.323L151.87 267.484C152.386 267.37 152.708 266.865 152.594 266.349C152.479 265.833 151.974 265.51 151.458 265.625L147.755 266.443V266.453L138.615 268.469C138.099 268.583 137.776 269.089 137.891 269.604C138.005 270.12 138.511 270.432 139.016 270.323Z" fill="#FCD590"/>
</g>
</g>
</g>
<mask id="mask14_47_13848" style="mask-type:luminance" maskUnits="userSpaceOnUse" x="156" y="255" width="44" height="40">
<path d="M156.667 255H199.333V295H156.667V255Z" fill="white"/>
</mask>
<g mask="url(#mask14_47_13848)">
<mask id="mask15_47_13848" style="mask-type:luminance" maskUnits="userSpaceOnUse" x="155" y="253" width="45" height="43">
<path d="M161.24 253.661L199.688 290.141L194.182 295.943L155.734 259.469L161.24 253.661Z" fill="white"/>
</mask>
<g mask="url(#mask15_47_13848)">
<mask id="mask16_47_13848" style="mask-type:luminance" maskUnits="userSpaceOnUse" x="155" y="253" width="45" height="43">
<path d="M199.599 290.052L161.146 253.578L155.641 259.38L194.094 295.859L199.599 290.052Z" fill="white"/>
</mask>
<g mask="url(#mask16_47_13848)">
<path d="M163.984 256.286L166.734 258.901L166.729 258.906L194.073 284.844L194.078 284.839L196.833 287.453C198.354 288.891 198.417 291.302 196.974 292.818C195.536 294.339 193.125 294.401 191.609 292.958L158.755 261.797C157.239 260.354 157.167 257.953 158.609 256.438C160.047 254.917 162.463 254.844 163.984 256.286Z" fill="#FCD590"/>
</g>
</g>
</g>
<mask id="mask17_47_13848" style="mask-type:luminance" maskUnits="userSpaceOnUse" x="183" y="279" width="14" height="12">
<path d="M183.333 279H196.667V291H183.333V279Z" fill="white"/>
</mask>
<g mask="url(#mask17_47_13848)">
<mask id="mask18_47_13848" style="mask-type:luminance" maskUnits="userSpaceOnUse" x="155" y="253" width="45" height="43">
<path d="M161.24 253.661L199.688 290.141L194.182 295.943L155.734 259.469L161.24 253.661Z" fill="white"/>
</mask>
<g mask="url(#mask18_47_13848)">
<mask id="mask19_47_13848" style="mask-type:luminance" maskUnits="userSpaceOnUse" x="155" y="253" width="45" height="43">
<path d="M199.599 290.052L161.146 253.578L155.641 259.38L194.094 295.859L199.599 290.052Z" fill="white"/>
</mask>
<g mask="url(#mask19_47_13848)">
<path d="M185.979 279.766L195.531 288.823C195.917 289.188 195.932 289.786 195.568 290.172C195.203 290.552 194.604 290.568 194.219 290.203L191.469 287.594L191.474 287.583L184.682 281.146C184.302 280.781 184.287 280.182 184.651 279.797C185.011 279.417 185.604 279.406 185.979 279.766Z" fill="#FCD590"/>
</g>
</g>
</g>
<mask id="mask20_47_13848" style="mask-type:luminance" maskUnits="userSpaceOnUse" x="151" y="261" width="54" height="20">
<path d="M151.333 261.667H204.667V280.333H151.333V261.667Z" fill="white"/>
</mask>
<g mask="url(#mask20_47_13848)">
<mask id="mask21_47_13848" style="mask-type:luminance" maskUnits="userSpaceOnUse" x="151" y="262" width="54" height="20">
<path d="M151.161 273.505L202.917 262.073L204.641 269.885L152.891 281.318L151.161 273.505Z" fill="white"/>
</mask>
<g mask="url(#mask21_47_13848)">
<mask id="mask22_47_13848" style="mask-type:luminance" maskUnits="userSpaceOnUse" x="151" y="262" width="54" height="20">
<path d="M202.792 262.099L151.042 273.531L152.765 281.344L204.521 269.911L202.792 262.099Z" fill="white"/>
</mask>
<g mask="url(#mask22_47_13848)">
<path d="M154.875 272.698L158.578 271.88L158.583 271.891L195.385 263.76L195.38 263.75L199.088 262.932C201.135 262.479 203.161 263.776 203.614 265.818C204.068 267.865 202.771 269.896 200.729 270.344L156.51 280.115C154.469 280.563 152.437 279.281 151.989 277.234C151.536 275.188 152.828 273.151 154.875 272.698Z" fill="#FCD590"/>
</g>
</g>
</g>
<mask id="mask23_47_13848" style="mask-type:luminance" maskUnits="userSpaceOnUse" x="184" y="264" width="17" height="6">
<path d="M184.667 264.333H200.667V269.667H184.667V264.333Z" fill="white"/>
</mask>
<g mask="url(#mask23_47_13848)">
<mask id="mask24_47_13848" style="mask-type:luminance" maskUnits="userSpaceOnUse" x="151" y="262" width="54" height="20">
<path d="M151.162 273.505L202.917 262.073L204.641 269.885L152.891 281.318L151.162 273.505Z" fill="white"/>
</mask>
<g mask="url(#mask24_47_13848)">
<mask id="mask25_47_13848" style="mask-type:luminance" maskUnits="userSpaceOnUse" x="151" y="262" width="54" height="20">
<path d="M202.792 262.099L151.042 273.531L152.766 281.344L204.521 269.911L202.792 262.099Z" fill="white"/>
</mask>
<g mask="url(#mask25_47_13848)">
<path d="M186.641 267.62L199.5 264.781C200.016 264.667 200.521 264.99 200.63 265.505C200.745 266.021 200.427 266.526 199.906 266.641L196.203 267.458L196.198 267.448L187.063 269.464C186.542 269.578 186.042 269.26 185.927 268.74C185.813 268.224 186.136 267.729 186.641 267.62Z" fill="#FCD590"/>
</g>
</g>
</g>
<mask id="mask26_47_13848" style="mask-type:luminance" maskUnits="userSpaceOnUse" x="66" y="73" width="178" height="177">
<path d="M66.0105 73.0104H243.01V249.667H66.0105V73.0104Z" fill="white"/>
</mask>
<g mask="url(#mask26_47_13848)">
<path d="M242.651 161.333C242.651 162.776 242.615 164.224 242.542 165.667C242.474 167.109 242.365 168.552 242.224 169.99C242.083 171.427 241.906 172.865 241.693 174.292C241.479 175.724 241.234 177.146 240.953 178.563C240.672 179.979 240.354 181.391 240 182.792C239.651 184.193 239.266 185.589 238.844 186.969C238.427 188.354 237.974 189.724 237.484 191.089C237 192.448 236.479 193.797 235.927 195.13C235.375 196.469 234.787 197.786 234.167 199.094C233.552 200.401 232.901 201.693 232.219 202.969C231.537 204.24 230.828 205.5 230.083 206.74C229.339 207.979 228.568 209.198 227.766 210.401C226.964 211.604 226.13 212.786 225.266 213.943C224.406 215.104 223.516 216.245 222.599 217.365C221.682 218.479 220.74 219.573 219.771 220.646C218.797 221.714 217.802 222.76 216.781 223.786C215.76 224.807 214.714 225.802 213.641 226.776C212.568 227.745 211.474 228.688 210.359 229.604C209.24 230.521 208.104 231.411 206.943 232.271C205.781 233.135 204.599 233.964 203.396 234.771C202.193 235.573 200.974 236.344 199.734 237.089C198.495 237.828 197.24 238.542 195.964 239.224C194.688 239.906 193.396 240.557 192.089 241.172C190.781 241.792 189.464 242.375 188.125 242.932C186.792 243.484 185.443 244.005 184.083 244.49C182.724 244.979 181.349 245.432 179.969 245.849C178.583 246.271 177.193 246.656 175.787 247.005C174.385 247.359 172.979 247.672 171.557 247.958C170.141 248.24 168.719 248.484 167.287 248.698C165.859 248.911 164.422 249.083 162.984 249.229C161.547 249.37 160.104 249.474 158.662 249.547C157.219 249.62 155.776 249.651 154.328 249.651C152.885 249.651 151.438 249.62 149.995 249.547C148.552 249.474 147.109 249.37 145.672 249.229C144.234 249.089 142.797 248.911 141.37 248.698C139.938 248.484 138.516 248.24 137.099 247.958C135.682 247.672 134.271 247.359 132.87 247.005C131.469 246.656 130.073 246.271 128.693 245.849C127.307 245.432 125.938 244.979 124.573 244.49C123.214 244.005 121.865 243.484 120.531 242.932C119.193 242.375 117.875 241.792 116.568 241.172C115.26 240.557 113.969 239.906 112.693 239.224C111.422 238.542 110.162 237.828 108.922 237.089C107.682 236.344 106.464 235.573 105.26 234.771C104.057 233.964 102.875 233.135 101.719 232.271C100.557 231.411 99.4167 230.521 98.297 229.604C97.1824 228.688 96.0886 227.745 95.0157 226.776C93.9428 225.802 92.9011 224.807 91.8751 223.786C90.8542 222.76 89.8595 221.714 88.8855 220.646C87.9167 219.573 86.974 218.479 86.0574 217.365C85.1407 216.245 84.2501 215.104 83.3907 213.943C82.5261 212.786 81.698 211.604 80.8907 210.401C80.0886 209.198 79.3178 207.979 78.573 206.74C77.8282 205.5 77.1199 204.24 76.4376 202.969C75.7553 201.693 75.1042 200.401 74.4897 199.094C73.8699 197.786 73.2865 196.469 72.7292 195.13C72.1772 193.797 71.6563 192.448 71.172 191.089C70.6824 189.724 70.2292 188.354 69.8126 186.969C69.3907 185.589 69.0053 184.193 68.6563 182.792C68.3022 181.391 67.9897 179.979 67.7032 178.563C67.422 177.146 67.1772 175.724 66.9636 174.292C66.7501 172.865 66.573 171.427 66.4324 169.99C66.2917 168.552 66.1876 167.109 66.1147 165.667C66.0417 164.224 66.0105 162.776 66.0105 161.333C66.0105 159.885 66.0417 158.443 66.1147 157C66.1876 155.557 66.2917 154.115 66.4324 152.677C66.573 151.24 66.7501 149.802 66.9636 148.375C67.1772 146.943 67.422 145.521 67.7032 144.104C67.9897 142.682 68.3022 141.276 68.6563 139.875C69.0053 138.469 69.3907 137.078 69.8126 135.693C70.2292 134.313 70.6824 132.938 71.172 131.578C71.6563 130.219 72.1772 128.87 72.7292 127.536C73.2865 126.198 73.8699 124.875 74.4897 123.573C75.1042 122.266 75.7553 120.974 76.4376 119.698C77.1199 118.422 77.8282 117.167 78.573 115.927C79.3178 114.688 80.0886 113.469 80.8907 112.266C81.698 111.063 82.5261 109.88 83.3907 108.719C84.2501 107.557 85.1407 106.422 86.0574 105.302C86.974 104.188 87.9167 103.094 88.8855 102.021C89.8595 100.948 90.8542 99.9011 91.8751 98.8802C92.9011 97.8594 93.9428 96.8646 95.0157 95.8906C96.0886 94.9219 97.1824 93.9792 98.297 93.0625C99.4167 92.1406 100.557 91.2552 101.719 90.3906C102.875 89.5313 104.057 88.6979 105.26 87.8959C106.464 87.0938 107.682 86.3229 108.922 85.5781C110.162 84.8334 111.422 84.125 112.693 83.4427C113.969 82.7604 115.26 82.1094 116.568 81.4896C117.875 80.875 119.193 80.2865 120.531 79.7344C121.865 79.1823 123.214 78.6615 124.573 78.1771C125.938 77.6875 127.307 77.2344 128.693 76.8177C130.073 76.3959 131.469 76.0104 132.87 75.6615C134.271 75.3073 135.682 74.9896 137.099 74.7084C138.516 74.4271 139.938 74.1823 141.37 73.9688C142.797 73.7552 144.234 73.5781 145.672 73.4375C147.109 73.2969 148.552 73.1875 149.995 73.1198C151.438 73.0469 152.885 73.0104 154.328 73.0104C155.776 73.0104 157.219 73.0469 158.662 73.1198C160.104 73.1875 161.547 73.2969 162.984 73.4375C164.422 73.5781 165.859 73.7552 167.287 73.9688C168.719 74.1823 170.141 74.4271 171.557 74.7084C172.979 74.9896 174.385 75.3073 175.787 75.6615C177.193 76.0104 178.583 76.3959 179.969 76.8177C181.349 77.2344 182.724 77.6875 184.083 78.1771C185.443 78.6615 186.792 79.1823 188.125 79.7344C189.464 80.2865 190.781 80.875 192.089 81.4896C193.396 82.1094 194.688 82.7604 195.964 83.4427C197.24 84.125 198.495 84.8334 199.734 85.5781C200.974 86.3229 202.193 87.0938 203.396 87.8959C204.599 88.6979 205.781 89.5313 206.943 90.3906C208.104 91.2552 209.24 92.1406 210.359 93.0625C211.474 93.9792 212.568 94.9219 213.641 95.8906C214.714 96.8646 215.76 97.8594 216.781 98.8802C217.802 99.9011 218.797 100.948 219.771 102.021C220.74 103.094 221.682 104.188 222.599 105.302C223.516 106.422 224.406 107.557 225.266 108.719C226.13 109.88 226.964 111.063 227.766 112.266C228.568 113.469 229.339 114.688 230.083 115.927C230.828 117.167 231.537 118.422 232.219 119.698C232.901 120.974 233.552 122.266 234.167 123.573C234.787 124.875 235.375 126.198 235.927 127.536C236.479 128.87 237 130.219 237.484 131.578C237.974 132.938 238.427 134.313 238.844 135.693C239.266 137.078 239.651 138.469 240 139.875C240.354 141.276 240.672 142.682 240.953 144.104C241.234 145.521 241.479 146.943 241.693 148.375C241.906 149.802 242.083 151.24 242.224 152.677C242.365 154.115 242.474 155.557 242.542 157C242.615 158.443 242.651 159.885 242.651 161.333Z" fill="#442F19"/>
</g>
<mask id="mask27_47_13848" style="mask-type:luminance" maskUnits="userSpaceOnUse" x="66" y="13" width="178" height="178">
<path d="M66.0105 13.4531H243.01V190.453H66.0105V13.4531Z" fill="white"/>
</mask>
<g mask="url(#mask27_47_13848)">
<path d="M242.651 101.771C242.651 103.219 242.615 104.661 242.542 106.104C242.474 107.552 242.365 108.99 242.224 110.427C242.083 111.87 241.906 113.302 241.693 114.729C241.479 116.161 241.234 117.583 240.953 119.005C240.672 120.422 240.354 121.828 240 123.234C239.651 124.635 239.266 126.026 238.844 127.411C238.427 128.792 237.974 130.167 237.484 131.526C237 132.885 236.479 134.234 235.927 135.573C235.375 136.906 234.787 138.229 234.167 139.536C233.552 140.839 232.901 142.13 232.219 143.406C231.537 144.682 230.828 145.938 230.083 147.177C229.339 148.417 228.568 149.641 227.766 150.839C226.964 152.042 226.13 153.224 225.266 154.385C224.406 155.547 223.516 156.682 222.599 157.802C221.682 158.922 220.74 160.016 219.771 161.083C218.797 162.156 217.802 163.203 216.781 164.224C215.76 165.245 214.714 166.245 213.641 167.214C212.568 168.182 211.474 169.13 210.359 170.047C209.24 170.964 208.104 171.849 206.943 172.714C205.781 173.573 204.599 174.406 203.396 175.208C202.193 176.01 200.974 176.786 199.734 177.526C198.495 178.271 197.24 178.984 195.964 179.661C194.688 180.344 193.396 180.995 192.089 181.615C190.781 182.229 189.464 182.818 188.125 183.37C186.792 183.922 185.443 184.443 184.083 184.932C182.724 185.417 181.349 185.87 179.969 186.292C178.583 186.708 177.193 187.094 175.787 187.448C174.385 187.797 172.979 188.115 171.557 188.396C170.141 188.677 168.719 188.927 167.287 189.135C165.859 189.349 164.422 189.526 162.984 189.667C161.547 189.807 160.104 189.917 158.662 189.984C157.219 190.057 155.776 190.094 154.328 190.094C152.885 190.094 151.438 190.057 149.995 189.984C148.552 189.917 147.109 189.807 145.672 189.667C144.234 189.526 142.797 189.349 141.37 189.135C139.938 188.927 138.516 188.677 137.099 188.396C135.682 188.115 134.271 187.797 132.87 187.448C131.469 187.094 130.073 186.708 128.693 186.292C127.307 185.87 125.938 185.417 124.573 184.932C123.214 184.443 121.865 183.922 120.531 183.37C119.193 182.818 117.875 182.229 116.568 181.615C115.26 180.995 113.969 180.344 112.693 179.661C111.422 178.984 110.162 178.271 108.922 177.526C107.682 176.786 106.464 176.01 105.26 175.208C104.057 174.406 102.875 173.573 101.719 172.714C100.557 171.849 99.4167 170.964 98.297 170.047C97.1824 169.13 96.0886 168.182 95.0157 167.214C93.9428 166.245 92.9011 165.245 91.8751 164.224C90.8542 163.203 89.8595 162.156 88.8855 161.083C87.9167 160.016 86.974 158.922 86.0574 157.802C85.1407 156.682 84.2501 155.547 83.3907 154.385C82.5261 153.224 81.698 152.042 80.8907 150.839C80.0886 149.641 79.3178 148.417 78.573 147.177C77.8282 145.938 77.1199 144.682 76.4376 143.406C75.7553 142.13 75.1042 140.839 74.4897 139.536C73.8699 138.229 73.2865 136.906 72.7292 135.573C72.1772 134.234 71.6563 132.885 71.172 131.526C70.6824 130.167 70.2292 128.792 69.8126 127.411C69.3907 126.026 69.0053 124.635 68.6563 123.234C68.3022 121.828 67.9897 120.422 67.7032 119.005C67.422 117.583 67.1772 116.161 66.9636 114.729C66.7501 113.302 66.573 111.87 66.4324 110.427C66.2917 108.99 66.1876 107.552 66.1147 106.104C66.0417 104.661 66.0105 103.219 66.0105 101.771C66.0105 100.328 66.0417 98.8802 66.1147 97.4375C66.1876 95.9948 66.2917 94.5521 66.4324 93.1146C66.573 91.6771 66.7501 90.2448 66.9636 88.8125C67.1772 87.3854 67.422 85.9583 67.7032 84.5417C67.9897 83.125 68.3022 81.7135 68.6563 80.3125C69.0053 78.9115 69.3907 77.5156 69.8126 76.1354C70.2292 74.75 70.6824 73.3802 71.172 72.0156C71.6563 70.6563 72.1772 69.3073 72.7292 67.974C73.2865 66.6406 73.8699 65.3177 74.4897 64.0104C75.1042 62.7031 75.7553 61.4115 76.4376 60.1406C77.1199 58.8646 77.8282 57.6042 78.573 56.3646C79.3178 55.125 80.0886 53.9062 80.8907 52.7031C81.698 51.5 82.5261 50.3229 83.3907 49.1615C84.2501 48 85.1407 46.8594 86.0574 45.7448C86.974 44.625 87.9167 43.5313 88.8855 42.4583C89.8595 41.3906 90.8542 40.3438 91.8751 39.3229C92.9011 38.2969 93.9428 37.3021 95.0157 36.3333C96.0886 35.3594 97.1824 34.4167 98.297 33.5C99.4167 32.5833 100.557 31.6927 101.719 30.8333C102.875 29.974 104.057 29.1406 105.26 28.3385C106.464 27.5313 107.682 26.7604 108.922 26.0156C110.162 25.276 111.422 24.5625 112.693 23.8802C113.969 23.1979 115.26 22.5521 116.568 21.9323C117.875 21.3125 119.193 20.7292 120.531 20.1771C121.865 19.6198 123.214 19.1042 124.573 18.6146C125.938 18.1302 127.307 17.6771 128.693 17.2552C130.073 16.8333 131.469 16.4479 132.87 16.099C134.271 15.75 135.682 15.4323 137.099 15.151C138.516 14.8646 139.938 14.6198 141.37 14.4062C142.797 14.1979 144.234 14.0208 145.672 13.875C147.109 13.7344 148.552 13.6302 149.995 13.5573C151.438 13.4896 152.885 13.4531 154.328 13.4531C155.776 13.4531 157.219 13.4896 158.662 13.5573C160.104 13.6302 161.547 13.7344 162.984 13.875C164.422 14.0208 165.859 14.1979 167.287 14.4062C168.719 14.6198 170.141 14.8646 171.557 15.151C172.979 15.4323 174.385 15.75 175.787 16.099C177.193 16.4479 178.583 16.8333 179.969 17.2552C181.349 17.6771 182.724 18.1302 184.083 18.6146C185.443 19.1042 186.792 19.6198 188.125 20.1771C189.464 20.7292 190.781 21.3125 192.089 21.9323C193.396 22.5521 194.688 23.1979 195.964 23.8802C197.24 24.5625 198.495 25.276 199.734 26.0156C200.974 26.7604 202.193 27.5313 203.396 28.3385C204.599 29.1406 205.781 29.974 206.943 30.8333C208.104 31.6927 209.24 32.5833 210.359 33.5C211.474 34.4167 212.568 35.3594 213.641 36.3333C214.714 37.3021 215.76 38.2969 216.781 39.3229C217.802 40.3438 218.797 41.3906 219.771 42.4583C220.74 43.5313 221.682 44.625 222.599 45.7448C223.516 46.8594 224.406 48 225.266 49.1615C226.13 50.3229 226.964 51.5 227.766 52.7031C228.568 53.9062 229.339 55.125 230.083 56.3646C230.828 57.6042 231.537 58.8646 232.219 60.1406C232.901 61.4115 233.552 62.7031 234.167 64.0104C234.787 65.3177 235.375 66.6406 235.927 67.974C236.479 69.3073 237 70.6563 237.484 72.0156C237.974 73.3802 238.427 74.75 238.844 76.1354C239.266 77.5156 239.651 78.9115 240 80.3125C240.354 81.7135 240.672 83.125 240.953 84.5417C241.234 85.9583 241.479 87.3854 241.693 88.8125C241.906 90.2448 242.083 91.6771 242.224 93.1146C242.365 94.5521 242.474 95.9948 242.542 97.4375C242.615 98.8802 242.651 100.328 242.651 101.771Z" fill="#EDE0D2"/>
</g>
<mask id="mask28_47_13848" style="mask-type:luminance" maskUnits="userSpaceOnUse" x="98" y="0" width="71" height="49">
<path d="M98 0.333374H168.667V48.3334H98V0.333374Z" fill="white"/>
</mask>
<g mask="url(#mask28_47_13848)">
<mask id="mask29_47_13848" style="mask-type:luminance" maskUnits="userSpaceOnUse" x="91" y="-14" width="85" height="69">
<path d="M159.557 -13.5833L175.24 29.6668L107.552 54.2084L91.8699 10.9636L159.557 -13.5833Z" fill="white"/>
</mask>
<g mask="url(#mask29_47_13848)">
<mask id="mask30_47_13848" style="mask-type:luminance" maskUnits="userSpaceOnUse" x="91" y="-14" width="85" height="69">
<path d="M159.557 -13.5833L175.24 29.6668L107.552 54.2084L91.8699 10.9636L159.557 -13.5833Z" fill="white"/>
</mask>
<g mask="url(#mask30_47_13848)">
<path d="M146.172 33.1303L167.375 7.97409L134.974 2.25013C130.516 1.3543 120.24 0.682426 115.552 2.38555C102.724 7.03659 95.8283 20.4481 100.141 32.3491C104.458 44.2553 118.349 50.1303 131.177 45.4793C135.87 43.7814 143.323 36.672 146.172 33.1303Z" fill="#442F19"/>
</g>
</g>
</g>
<mask id="mask31_47_13848" style="mask-type:luminance" maskUnits="userSpaceOnUse" x="156" y="7" width="64" height="52">
<path d="M156.667 7H219.333V59H156.667V7Z" fill="white"/>
</mask>
<g mask="url(#mask31_47_13848)">
<mask id="mask32_47_13848" style="mask-type:luminance" maskUnits="userSpaceOnUse" x="143" y="-12" width="86" height="81">
<path d="M143.583 25.4479L171.089 -11.4219L228.797 31.6354L201.287 68.5052L143.583 25.4479Z" fill="white"/>
</mask>
<g mask="url(#mask32_47_13848)">
<mask id="mask33_47_13848" style="mask-type:luminance" maskUnits="userSpaceOnUse" x="143" y="-12" width="86" height="81">
<path d="M171.005 -11.3073L143.5 25.5573L201.203 68.6146L228.714 31.75L171.005 -11.3073Z" fill="white"/>
</mask>
<g mask="url(#mask33_47_13848)">
<path d="M170.323 37.2761L157.297 7.06775L189.964 10.9532C194.49 11.3802 204.521 13.7084 208.521 16.6927C219.459 24.8542 222.183 39.6875 214.615 49.8334C207.042 59.9844 192.042 61.5938 181.11 53.4375C177.11 50.4532 172.026 41.4896 170.323 37.2761Z" fill="#442F19"/>
</g>
</g>
</g>
<mask id="mask34_47_13848" style="mask-type:luminance" maskUnits="userSpaceOnUse" x="165" y="57" width="64" height="64">
<path d="M165.641 57.9219H228.339V120.615H165.641V57.9219Z" fill="white"/>
</mask>
<g mask="url(#mask34_47_13848)">
<mask id="mask35_47_13848" style="mask-type:luminance" maskUnits="userSpaceOnUse" x="165" y="57" width="64" height="64">
<path d="M196.99 57.9219C179.677 57.9219 165.641 71.9531 165.641 89.2708C165.641 106.583 179.677 120.615 196.99 120.615C214.302 120.615 228.339 106.583 228.339 89.2708C228.339 71.9531 214.302 57.9219 196.99 57.9219Z" fill="white"/>
</mask>
<g mask="url(#mask35_47_13848)">
<path d="M165.641 57.9219H228.339V120.615H165.641V57.9219Z" fill="white"/>
</g>
</g>
<mask id="mask36_47_13848" style="mask-type:luminance" maskUnits="userSpaceOnUse" x="130" y="181" width="126" height="58">
<path d="M130 181.667H255.333V239H130V181.667Z" fill="white"/>
</mask>
<g mask="url(#mask36_47_13848)">
<mask id="mask37_47_13848" style="mask-type:luminance" maskUnits="userSpaceOnUse" x="127" y="179" width="131" height="63">
<path d="M134.734 179.198L257.839 200.885L250.729 241.266L127.625 219.578L134.734 179.198Z" fill="white"/>
</mask>
<g mask="url(#mask37_47_13848)">
<mask id="mask38_47_13848" style="mask-type:luminance" maskUnits="userSpaceOnUse" x="127" y="179" width="131" height="63">
<path d="M257.885 200.896L134.781 179.208L127.667 219.589L250.776 241.276L257.885 200.896Z" fill="white"/>
</mask>
<g mask="url(#mask38_47_13848)">
<path d="M147.87 223.042L230.557 237.609C241.625 239.557 252.177 232.167 254.125 221.104C256.073 210.042 248.682 199.484 237.62 197.537L154.932 182.969C143.87 181.021 133.313 188.412 131.365 199.479C129.417 210.542 136.807 221.094 147.87 223.042Z" fill="#604428"/>
<path d="M147.839 223.24L230.526 237.807C241.688 239.771 252.354 232.302 254.323 221.141C256.286 209.979 248.813 199.307 237.651 197.344L154.969 182.776C143.802 180.807 133.135 188.281 131.172 199.443C129.203 210.604 136.677 221.271 147.839 223.24ZM237.583 197.734C248.531 199.662 255.859 210.125 253.932 221.068C252 232.016 241.542 239.344 230.594 237.417L147.906 222.849C136.958 220.922 129.63 210.458 131.563 199.511C133.49 188.568 143.953 181.24 154.896 183.167L237.583 197.734Z" fill="#604428"/>
</g>
</g>
</g>
<mask id="mask39_47_13848" style="mask-type:luminance" maskUnits="userSpaceOnUse" x="140" y="145" width="149" height="68">
<path d="M140.667 145.667H288.667V212.333H140.667V145.667Z" fill="white"/>
</mask>
<g mask="url(#mask39_47_13848)">
<mask id="mask40_47_13848" style="mask-type:luminance" maskUnits="userSpaceOnUse" x="136" y="142" width="156" height="75">
<path d="M145.141 142.12L291.88 167.969L283.375 216.224L136.635 190.375L145.141 142.12Z" fill="white"/>
</mask>
<g mask="url(#mask40_47_13848)">
<mask id="mask41_47_13848" style="mask-type:luminance" maskUnits="userSpaceOnUse" x="136" y="142" width="156" height="75">
<path d="M291.495 167.901L144.755 142.052L136.25 190.307L282.995 216.156L291.495 167.901Z" fill="white"/>
</mask>
<g mask="url(#mask41_47_13848)">
<path d="M160.75 194.219L259.016 211.526C272.167 213.844 284.708 205.063 287.026 191.911C289.339 178.76 280.557 166.219 267.406 163.906L169.141 146.594C155.99 144.276 143.448 153.063 141.136 166.208C138.818 179.359 147.604 191.901 160.75 194.219Z" fill="#604428"/>
</g>
</g>
</g>
<mask id="mask42_47_13848" style="mask-type:luminance" maskUnits="userSpaceOnUse" x="139" y="145" width="150" height="68">
<path d="M139.333 145.667H288.667V212.333H139.333V145.667Z" fill="white"/>
</mask>
<g mask="url(#mask42_47_13848)">
<mask id="mask43_47_13848" style="mask-type:luminance" maskUnits="userSpaceOnUse" x="136" y="142" width="156" height="75">
<path d="M145.14 142.12L291.88 167.969L283.375 216.224L136.635 190.375L145.14 142.12Z" fill="white"/>
</mask>
<g mask="url(#mask43_47_13848)">
<mask id="mask44_47_13848" style="mask-type:luminance" maskUnits="userSpaceOnUse" x="136" y="142" width="156" height="75">
<path d="M291.495 167.901L144.755 142.052L136.25 190.307L282.995 216.156L291.495 167.901Z" fill="white"/>
</mask>
<g mask="url(#mask44_47_13848)">
<path d="M160.708 194.448L258.979 211.76C272.239 214.099 284.922 205.219 287.255 191.953C289.594 178.688 280.713 166.01 267.448 163.672L169.182 146.359C155.916 144.026 143.239 152.906 140.901 166.167C138.562 179.432 147.442 192.115 160.708 194.448ZM267.364 164.135C280.375 166.427 289.083 178.859 286.791 191.87C284.5 204.88 272.068 213.589 259.057 211.297L160.791 193.984C147.781 191.693 139.073 179.26 141.364 166.25C143.656 153.24 156.088 144.531 169.099 146.823L267.364 164.135Z" fill="#604428"/>
</g>
</g>
</g>
<mask id="mask45_47_13848" style="mask-type:luminance" maskUnits="userSpaceOnUse" x="175" y="120" width="149" height="67">
<path d="M175.333 120.333H323.333V187H175.333V120.333Z" fill="white"/>
</mask>
<g mask="url(#mask45_47_13848)">
<mask id="mask46_47_13848" style="mask-type:luminance" maskUnits="userSpaceOnUse" x="171" y="116" width="157" height="75">
<path d="M180.265 116.448L327.005 142.302L318.5 190.557L171.76 164.708L180.265 116.448Z" fill="white"/>
</mask>
<g mask="url(#mask46_47_13848)">
<mask id="mask47_47_13848" style="mask-type:luminance" maskUnits="userSpaceOnUse" x="171" y="116" width="156" height="75">
<path d="M326.62 142.234L179.88 116.38L171.375 164.641L318.12 190.49L326.62 142.234Z" fill="white"/>
</mask>
<g mask="url(#mask47_47_13848)">
<path d="M195.875 168.552L294.14 185.859C307.291 188.177 319.833 179.396 322.151 166.245C324.463 153.094 315.682 140.552 302.531 138.24L204.265 120.927C191.114 118.609 178.573 127.396 176.26 140.542C173.942 153.693 182.724 166.234 195.875 168.552Z" fill="#604428"/>
</g>
</g>
</g>
<mask id="mask48_47_13848" style="mask-type:luminance" maskUnits="userSpaceOnUse" x="175" y="119" width="149" height="68">
<path d="M175.333 119H323.333V187H175.333V119Z" fill="white"/>
</mask>
<g mask="url(#mask48_47_13848)">
<mask id="mask49_47_13848" style="mask-type:luminance" maskUnits="userSpaceOnUse" x="171" y="116" width="157" height="75">
<path d="M180.265 116.448L327.005 142.302L318.5 190.557L171.76 164.708L180.265 116.448Z" fill="white"/>
</mask>
<g mask="url(#mask49_47_13848)">
<mask id="mask50_47_13848" style="mask-type:luminance" maskUnits="userSpaceOnUse" x="171" y="116" width="156" height="75">
<path d="M326.62 142.234L179.88 116.38L171.375 164.641L318.12 190.49L326.62 142.234Z" fill="white"/>
</mask>
<g mask="url(#mask50_47_13848)">
<path d="M195.833 168.781L294.104 186.094C307.364 188.432 320.047 179.552 322.38 166.286C324.719 153.021 315.838 140.344 302.573 138.005L204.307 120.693C191.041 118.359 178.364 127.24 176.026 140.5C173.687 153.766 182.567 166.443 195.833 168.781ZM302.489 138.469C315.5 140.76 324.208 153.193 321.916 166.203C319.625 179.214 307.193 187.922 294.182 185.63L195.916 168.318C182.906 166.026 174.198 153.594 176.489 140.583C178.781 127.573 191.213 118.865 204.224 121.156L302.489 138.469Z" fill="#604428"/>
</g>
</g>
</g>
<mask id="mask51_47_13848" style="mask-type:luminance" maskUnits="userSpaceOnUse" x="80" y="57" width="64" height="64">
<path d="M80.8801 57.9219H143.578V120.615H80.8801V57.9219Z" fill="white"/>
</mask>
<g mask="url(#mask51_47_13848)">
<mask id="mask52_47_13848" style="mask-type:luminance" maskUnits="userSpaceOnUse" x="80" y="57" width="64" height="64">
<path d="M112.229 57.9219C94.9166 57.9219 80.8801 71.9531 80.8801 89.2708C80.8801 106.583 94.9166 120.615 112.229 120.615C129.542 120.615 143.578 106.583 143.578 89.2708C143.578 71.9531 129.542 57.9219 112.229 57.9219Z" fill="white"/>
</mask>
<g mask="url(#mask52_47_13848)">
<path d="M80.8801 57.9219H143.578V120.615H80.8801V57.9219Z" fill="white"/>
</g>
</g>
<mask id="mask53_47_13848" style="mask-type:luminance" maskUnits="userSpaceOnUse" x="64" y="183" width="126" height="55">
<path d="M64.6667 183H190V237.667H64.6667V183Z" fill="white"/>
</mask>
<g mask="url(#mask53_47_13848)">
<mask id="mask54_47_13848" style="mask-type:luminance" maskUnits="userSpaceOnUse" x="62" y="180" width="131" height="60">
<path d="M62.771 198.958L186.469 180.969L192.37 221.542L68.672 239.531L62.771 198.958Z" fill="white"/>
</mask>
<g mask="url(#mask54_47_13848)">
<mask id="mask55_47_13848" style="mask-type:luminance" maskUnits="userSpaceOnUse" x="62" y="180" width="131" height="60">
<path d="M62.771 198.958L186.469 180.969L192.37 221.542L68.672 239.531L62.771 198.958Z" fill="white"/>
</mask>
<g mask="url(#mask55_47_13848)">
<path d="M172.073 224.391L88.9846 236.474C77.87 238.089 67.5419 230.385 65.9273 219.271C64.3075 208.151 72.0106 197.823 83.1304 196.208L166.219 184.125C177.334 182.51 187.662 190.214 189.276 201.328C190.896 212.448 183.188 222.776 172.073 224.391Z" fill="#604428"/>
<path d="M172.099 224.589L89.0158 236.672C77.7971 238.302 67.3596 230.51 65.7294 219.297C64.0992 208.083 71.8856 197.641 83.1044 196.01L166.188 183.927C177.401 182.297 187.844 190.089 189.474 201.302C191.104 212.516 183.318 222.958 172.099 224.589ZM83.1617 196.406C72.1617 198.005 64.5211 208.24 66.12 219.24C67.719 230.24 77.9586 237.875 88.9586 236.276L172.042 224.193C183.042 222.594 190.683 212.359 189.084 201.359C187.479 190.359 177.245 182.724 166.245 184.323L83.1617 196.406Z" fill="#604428"/>
</g>
</g>
</g>
<mask id="mask56_47_13848" style="mask-type:luminance" maskUnits="userSpaceOnUse" x="30" y="147" width="148" height="64">
<path d="M30 147H178V211H30V147Z" fill="white"/>
</mask>
<g mask="url(#mask56_47_13848)">
<mask id="mask57_47_13848" style="mask-type:luminance" maskUnits="userSpaceOnUse" x="26" y="144" width="156" height="70">
<path d="M26.9324 165.443L174.38 144L181.432 192.49L33.9845 213.932L26.9324 165.443Z" fill="white"/>
</mask>
<g mask="url(#mask57_47_13848)">
<mask id="mask58_47_13848" style="mask-type:luminance" maskUnits="userSpaceOnUse" x="26" y="144" width="156" height="70">
<path d="M26.9324 165.443L174.38 144L181.432 192.49L33.9845 213.932L26.9324 165.443Z" fill="white"/>
</mask>
<g mask="url(#mask58_47_13848)">
<path d="M156.828 195.661L58.0886 210.021C44.875 211.943 32.6042 202.786 30.6823 189.573C28.7605 176.359 37.9167 164.089 51.1303 162.167L149.87 147.807C163.083 145.885 175.354 155.042 177.276 168.255C179.198 181.469 170.042 193.74 156.828 195.661Z" fill="#604428"/>
<path d="M156.865 195.896L58.1199 210.255C44.7918 212.193 32.3855 202.938 30.448 189.609C28.5105 176.281 37.7657 163.875 51.0938 161.932L149.839 147.573C163.167 145.635 175.573 154.891 177.511 168.224C179.448 181.552 170.193 193.958 156.865 195.896ZM51.1616 162.401C38.0886 164.302 29.0157 176.469 30.9168 189.542C32.8178 202.615 44.9845 211.688 58.0522 209.786L156.797 195.427C169.87 193.526 178.943 181.359 177.042 168.292C175.141 155.219 162.979 146.141 149.906 148.042L51.1616 162.401Z" fill="#604428"/>
</g>
</g>
</g>
<mask id="mask59_47_13848" style="mask-type:luminance" maskUnits="userSpaceOnUse" x="136" y="111" width="37" height="19">
<path d="M136.083 111.448H172.083V129.448H136.083V111.448Z" fill="white"/>
</mask>
<g mask="url(#mask59_47_13848)">
<path d="M172.568 120.609C172.568 121.214 172.453 121.807 172.219 122.396C171.984 122.984 171.641 123.557 171.182 124.109C170.724 124.667 170.161 125.193 169.495 125.693C168.828 126.188 168.073 126.651 167.224 127.078C166.38 127.5 165.458 127.88 164.463 128.214C163.469 128.547 162.417 128.828 161.307 129.057C160.203 129.286 159.062 129.464 157.885 129.578C156.713 129.698 155.526 129.755 154.328 129.755C153.13 129.755 151.943 129.698 150.771 129.578C149.594 129.464 148.453 129.286 147.349 129.057C146.24 128.828 145.187 128.547 144.193 128.214C143.198 127.88 142.276 127.5 141.427 127.078C140.583 126.651 139.823 126.188 139.161 125.693C138.495 125.193 137.932 124.667 137.474 124.109C137.016 123.557 136.672 122.984 136.437 122.396C136.203 121.807 136.083 121.214 136.083 120.609C136.083 120.01 136.203 119.417 136.437 118.828C136.672 118.24 137.016 117.667 137.474 117.115C137.932 116.557 138.495 116.031 139.161 115.531C139.823 115.031 140.583 114.573 141.427 114.146C142.276 113.724 143.198 113.344 144.193 113.01C145.187 112.677 146.24 112.396 147.349 112.167C148.453 111.932 149.594 111.76 150.771 111.646C151.943 111.526 153.13 111.469 154.328 111.469C155.526 111.469 156.713 111.526 157.885 111.646C159.062 111.76 160.203 111.932 161.307 112.167C162.417 112.396 163.469 112.677 164.463 113.01C165.458 113.344 166.38 113.724 167.224 114.146C168.073 114.573 168.828 115.031 169.495 115.531C170.161 116.031 170.724 116.557 171.182 117.115C171.641 117.667 171.984 118.24 172.219 118.828C172.453 119.417 172.568 120.01 172.568 120.609Z" fill="#FCD590"/>
</g>
<mask id="mask60_47_13848" style="mask-type:luminance" maskUnits="userSpaceOnUse" x="0" y="119" width="149" height="64">
<path d="M0.666748 119H148.667V183H0.666748V119Z" fill="white"/>
</mask>
<g mask="url(#mask60_47_13848)">
<mask id="mask61_47_13848" style="mask-type:luminance" maskUnits="userSpaceOnUse" x="-3" y="116" width="155" height="71">
<path d="M-2.56763 138.031L144.88 116.589L151.932 165.078L4.48446 186.521L-2.56763 138.031Z" fill="white"/>
</mask>
<g mask="url(#mask61_47_13848)">
<mask id="mask62_47_13848" style="mask-type:luminance" maskUnits="userSpaceOnUse" x="-3" y="116" width="155" height="71">
<path d="M-2.56763 138.031L144.88 116.589L151.932 165.078L4.48446 186.521L-2.56763 138.031Z" fill="white"/>
</mask>
<g mask="url(#mask62_47_13848)">
<path d="M127.328 168.25L28.5835 182.609C15.3699 184.531 3.09908 175.375 1.17721 162.161C-0.744669 148.948 8.41158 136.677 21.6251 134.755L120.37 120.396C133.578 118.474 145.854 127.63 147.776 140.844C149.693 154.057 140.537 166.328 127.328 168.25Z" fill="#604428"/>
</g>
</g>
</g>
<mask id="mask63_47_13848" style="mask-type:luminance" maskUnits="userSpaceOnUse" x="0" y="119" width="149" height="66">
<path d="M0.666748 119H148.667V184.333H0.666748V119Z" fill="white"/>
</mask>
<g mask="url(#mask63_47_13848)">
<mask id="mask64_47_13848" style="mask-type:luminance" maskUnits="userSpaceOnUse" x="-3" y="116" width="155" height="71">
<path d="M-2.56763 138.031L144.88 116.589L151.932 165.078L4.48446 186.521L-2.56763 138.031Z" fill="white"/>
</mask>
<g mask="url(#mask64_47_13848)">
<mask id="mask65_47_13848" style="mask-type:luminance" maskUnits="userSpaceOnUse" x="-3" y="116" width="155" height="71">
<path d="M-2.56763 138.031L144.88 116.589L151.932 165.078L4.48446 186.521L-2.56763 138.031Z" fill="white"/>
</mask>
<g mask="url(#mask65_47_13848)">
<path d="M127.36 168.484L28.62 182.844C15.2918 184.781 2.88559 175.526 0.942879 162.198C-0.994621 148.87 8.26059 136.464 21.5939 134.521L120.334 120.162C133.662 118.224 146.068 127.479 148.005 140.813C149.948 154.141 140.688 166.547 127.36 168.484ZM21.6616 134.99C8.58871 136.891 -0.489413 149.057 1.41163 162.13C3.31267 175.203 15.4793 184.276 28.5523 182.375L127.292 168.016C140.365 166.115 149.443 153.953 147.542 140.88C145.641 127.807 133.474 118.729 120.401 120.63L21.6616 134.99Z" fill="#604428"/>
</g>
</g>
</g>
<mask id="mask66_47_13848" style="mask-type:luminance" maskUnits="userSpaceOnUse" x="177" y="70" width="39" height="39">
<path d="M177.203 70.2292H215.964V108.99H177.203V70.2292Z" fill="white"/>
</mask>
<g mask="url(#mask66_47_13848)">
<mask id="mask67_47_13848" style="mask-type:luminance" maskUnits="userSpaceOnUse" x="177" y="70" width="39" height="39">
<path d="M196.583 70.2292C185.88 70.2292 177.203 78.9063 177.203 89.6094C177.203 100.313 185.88 108.99 196.583 108.99C207.286 108.99 215.964 100.313 215.964 89.6094C215.964 78.9063 207.286 70.2292 196.583 70.2292Z" fill="white"/>
</mask>
<g mask="url(#mask67_47_13848)">
<path d="M177.203 70.2292H215.964V108.99H177.203V70.2292Z" fill="black"/>
</g>
</g>
<mask id="mask68_47_13848" style="mask-type:luminance" maskUnits="userSpaceOnUse" x="94" y="70" width="40" height="39">
<path d="M94.9324 70.2292H133.698V108.99H94.9324V70.2292Z" fill="white"/>
</mask>
<g mask="url(#mask68_47_13848)">
<mask id="mask69_47_13848" style="mask-type:luminance" maskUnits="userSpaceOnUse" x="94" y="70" width="40" height="39">
<path d="M114.313 70.2292C103.609 70.2292 94.9324 78.9063 94.9324 89.6094C94.9324 100.313 103.609 108.99 114.313 108.99C125.021 108.99 133.698 100.313 133.698 89.6094C133.698 78.9063 125.021 70.2292 114.313 70.2292Z" fill="white"/>
</mask>
<g mask="url(#mask69_47_13848)">
<path d="M94.9324 70.2292H133.698V108.99H94.9324V70.2292Z" fill="black"/>
</g>
</g>
<mask id="mask70_47_13848" style="mask-type:luminance" maskUnits="userSpaceOnUse" x="112" y="71" width="19" height="19">
<path d="M112.229 71.0469H130.792V89.6094H112.229V71.0469Z" fill="white"/>
</mask>
<g mask="url(#mask70_47_13848)">
<mask id="mask71_47_13848" style="mask-type:luminance" maskUnits="userSpaceOnUse" x="112" y="71" width="19" height="19">
<path d="M121.51 71.0469C116.385 71.0469 112.229 75.2031 112.229 80.3281C112.229 85.4531 116.385 89.6094 121.51 89.6094C126.635 89.6094 130.792 85.4531 130.792 80.3281C130.792 75.2031 126.635 71.0469 121.51 71.0469Z" fill="white"/>
</mask>
<g mask="url(#mask71_47_13848)">
<path d="M112.229 71.0469H130.792V89.6094H112.229V71.0469Z" fill="white"/>
</g>
</g>
<mask id="mask72_47_13848" style="mask-type:luminance" maskUnits="userSpaceOnUse" x="194" y="70" width="20" height="20">
<path d="M194.49 70.7084H213.052V89.2709H194.49V70.7084Z" fill="white"/>
</mask>
<g mask="url(#mask72_47_13848)">
<mask id="mask73_47_13848" style="mask-type:luminance" maskUnits="userSpaceOnUse" x="194" y="70" width="20" height="20">
<path d="M203.771 70.7084C198.646 70.7084 194.49 74.8594 194.49 79.9896C194.49 85.1146 198.646 89.2709 203.771 89.2709C208.896 89.2709 213.052 85.1146 213.052 79.9896C213.052 74.8594 208.896 70.7084 203.771 70.7084Z" fill="white"/>
</mask>
<g mask="url(#mask73_47_13848)">
<path d="M194.49 70.7084H213.052V89.2709H194.49V70.7084Z" fill="white"/>
</g>
</g>
<mask id="mask74_47_13848" style="mask-type:luminance" maskUnits="userSpaceOnUse" x="109" y="156" width="121" height="46">
<path d="M109.036 156.135H229.036V201.135H109.036V156.135Z" fill="white"/>
</mask>
<g mask="url(#mask74_47_13848)">
<path d="M215.109 180.453C198.838 176.047 186.661 179.766 178.667 184.479C189.594 173.365 206.271 169.708 211.609 168.807L215.109 180.453ZM195.875 156.188L200.463 167.151C191.812 169.833 180.51 175.052 172.859 184.667C177.698 167.839 190.937 158.969 195.875 156.188ZM142.167 156.188C147.099 158.969 160.338 167.807 165.177 184.698C157.526 175.083 146.224 169.865 137.573 167.182L142.167 156.188ZM126.427 168.807C131.766 169.708 148.443 173.365 159.37 184.479C151.375 179.766 139.198 176.047 122.927 180.453L126.427 168.807ZM176.042 200.781H161.995C158.901 196.781 145.536 183.948 109.036 199.156L112.187 188.948C148.599 171.271 166.583 195.536 167.333 196.594C167.365 196.625 167.396 196.625 167.427 196.656C167.458 196.719 167.49 196.781 167.552 196.812C167.583 196.844 167.583 196.844 167.583 196.875C167.646 196.938 167.708 196.969 167.802 197C167.865 197.031 167.927 197.094 167.99 197.125C168.052 197.156 168.115 197.219 168.208 197.25C168.24 197.25 168.271 197.281 168.271 197.281C168.396 197.344 168.552 197.344 168.708 197.375C168.802 197.375 168.865 197.438 168.958 197.438C168.99 197.438 169.021 197.438 169.052 197.438C169.083 197.438 169.115 197.438 169.146 197.438C169.24 197.438 169.302 197.406 169.391 197.375C169.547 197.344 169.672 197.344 169.828 197.281C169.859 197.281 169.891 197.25 169.891 197.25C169.984 197.219 170.047 197.156 170.109 197.125C170.172 197.094 170.234 197.062 170.297 197C170.359 196.938 170.453 196.906 170.516 196.875C170.547 196.844 170.547 196.844 170.547 196.812C170.609 196.75 170.641 196.719 170.672 196.656C170.703 196.625 170.734 196.625 170.766 196.594C171.516 195.536 189.5 171.271 225.911 188.948L229.068 199.156C192.531 183.948 179.135 196.812 176.042 200.781Z" fill="#604428"/>
</g>
<mask id="mask75_47_13848" style="mask-type:luminance" maskUnits="userSpaceOnUse" x="95" y="89" width="20" height="19">
<path d="M95.75 89.2709H114.312V107.833H95.75V89.2709Z" fill="white"/>
</mask>
<g mask="url(#mask75_47_13848)">
<mask id="mask76_47_13848" style="mask-type:luminance" maskUnits="userSpaceOnUse" x="95" y="89" width="20" height="19">
<path d="M105.031 89.2709C99.9062 89.2709 95.75 93.4219 95.75 98.5521C95.75 103.677 99.9062 107.833 105.031 107.833C110.161 107.833 114.312 103.677 114.312 98.5521C114.312 93.4219 110.161 89.2709 105.031 89.2709Z" fill="white"/>
</mask>
<g mask="url(#mask76_47_13848)">
<path d="M95.75 89.2709H114.312V107.833H95.75V89.2709Z" fill="white"/>
</g>
</g>
<mask id="mask77_47_13848" style="mask-type:luminance" maskUnits="userSpaceOnUse" x="179" y="89" width="20" height="19">
<path d="M179.443 89.2709H198.005V107.833H179.443V89.2709Z" fill="white"/>
</mask>
<g mask="url(#mask77_47_13848)">
<mask id="mask78_47_13848" style="mask-type:luminance" maskUnits="userSpaceOnUse" x="179" y="89" width="20" height="19">
<path d="M188.724 89.2709C183.599 89.2709 179.443 93.4219 179.443 98.5521C179.443 103.677 183.599 107.833 188.724 107.833C193.849 107.833 198.005 103.677 198.005 98.5521C198.005 93.4219 193.849 89.2709 188.724 89.2709Z" fill="white"/>
</mask>
<g mask="url(#mask78_47_13848)">
<path d="M179.443 89.2709H198.005V107.833H179.443V89.2709Z" fill="white"/>
</g>
</g>
</svg>
