<svg width="317" height="326" viewBox="0 0 317 326" fill="none" xmlns="http://www.w3.org/2000/svg">
<mask id="mask0_47_13849" style="mask-type:luminance" maskUnits="userSpaceOnUse" x="166" y="246" width="9" height="60">
<path d="M166.958 246.167H174.958V305.167H166.958V246.167Z" fill="white"/>
</mask>
<g mask="url(#mask0_47_13849)">
<path d="M166.974 250.479V254.708H166.984V296.708H166.974V300.938C166.974 303.271 168.87 305.167 171.203 305.167C173.536 305.167 175.432 303.271 175.432 300.938V250.479C175.432 248.146 173.547 246.245 171.214 246.245C168.88 246.245 166.974 248.146 166.974 250.479Z" fill="#FCD590"/>
</g>
<path d="M169.083 286.266V300.938C169.083 301.526 169.552 302 170.146 302C170.734 302 171.203 301.526 171.203 300.938V296.708H171.193V286.276C171.193 285.688 170.719 285.219 170.13 285.219C169.542 285.219 169.083 285.687 169.083 286.266Z" fill="#FCD590"/>
<mask id="mask1_47_13849" style="mask-type:luminance" maskUnits="userSpaceOnUse" x="125" y="243" width="9" height="60">
<path d="M125.453 243.766H133.453V302.766H125.453V243.766Z" fill="white"/>
</mask>
<g mask="url(#mask1_47_13849)">
<path d="M125.469 248.078V252.307H125.479V294.307H125.469V298.536C125.469 300.87 127.365 302.766 129.698 302.766C132.031 302.766 133.927 300.87 133.927 298.536V248.078C133.927 245.745 132.042 243.844 129.708 243.844C127.375 243.844 125.469 245.745 125.469 248.078Z" fill="#FCD590"/>
</g>
<path d="M127.578 283.865V298.536C127.578 299.125 128.047 299.599 128.641 299.599C129.229 299.599 129.698 299.125 129.698 298.536V294.307H129.688V283.88C129.688 283.286 129.214 282.818 128.625 282.818C128.036 282.818 127.578 283.286 127.578 283.865Z" fill="#FCD590"/>
<mask id="mask2_47_13849" style="mask-type:luminance" maskUnits="userSpaceOnUse" x="104" y="278" width="42" height="40">
<path d="M104.667 278H146V318H104.667V278Z" fill="white"/>
</mask>
<g mask="url(#mask2_47_13849)">
<mask id="mask3_47_13849" style="mask-type:luminance" maskUnits="userSpaceOnUse" x="103" y="277" width="45" height="43">
<path d="M141.917 319.365L103.464 282.885L108.969 277.083L147.422 313.563L141.917 319.365Z" fill="white"/>
</mask>
<g mask="url(#mask3_47_13849)">
<mask id="mask4_47_13849" style="mask-type:luminance" maskUnits="userSpaceOnUse" x="103" y="277" width="45" height="43">
<path d="M141.917 319.365L103.464 282.885L108.969 277.083L147.422 313.563L141.917 319.365Z" fill="white"/>
</mask>
<g mask="url(#mask4_47_13849)">
<path d="M106.318 285.578L109.073 288.188L109.078 288.182L136.422 314.12L136.417 314.13L139.172 316.74C140.687 318.182 143.094 318.12 144.536 316.599C145.979 315.083 145.911 312.677 144.396 311.234L111.542 280.068C110.026 278.625 107.625 278.682 106.182 280.203C104.745 281.719 104.797 284.135 106.318 285.578Z" fill="#FCD590"/>
</g>
</g>
</g>
<mask id="mask5_47_13849" style="mask-type:luminance" maskUnits="userSpaceOnUse" x="130" y="304" width="14" height="13">
<path d="M130 304.667H143.333V316.667H130V304.667Z" fill="white"/>
</mask>
<g mask="url(#mask5_47_13849)">
<mask id="mask6_47_13849" style="mask-type:luminance" maskUnits="userSpaceOnUse" x="103" y="277" width="45" height="43">
<path d="M141.917 319.365L103.464 282.885L108.969 277.083L147.422 313.563L141.917 319.365Z" fill="white"/>
</mask>
<g mask="url(#mask6_47_13849)">
<mask id="mask7_47_13849" style="mask-type:luminance" maskUnits="userSpaceOnUse" x="103" y="277" width="45" height="43">
<path d="M141.917 319.365L103.464 282.885L108.969 277.083L147.422 313.563L141.917 319.365Z" fill="white"/>
</mask>
<g mask="url(#mask7_47_13849)">
<path d="M130.922 306.307L140.474 315.37C140.854 315.734 141.453 315.719 141.818 315.333C142.182 314.948 142.167 314.349 141.781 313.99L139.026 311.375L139.021 311.38L132.229 304.943C131.849 304.578 131.25 304.594 130.885 304.979C130.521 305.359 130.547 305.953 130.922 306.307Z" fill="#FCD590"/>
</g>
</g>
</g>
<mask id="mask8_47_13849" style="mask-type:luminance" maskUnits="userSpaceOnUse" x="99" y="292" width="53" height="20">
<path d="M99.3334 292.667H151.333V311.333H99.3334V292.667Z" fill="white"/>
</mask>
<g mask="url(#mask8_47_13849)">
<mask id="mask9_47_13849" style="mask-type:luminance" maskUnits="userSpaceOnUse" x="98" y="291" width="54" height="20">
<path d="M151.99 299.526L100.234 310.953L98.5105 303.146L150.266 291.714L151.99 299.526Z" fill="white"/>
</mask>
<g mask="url(#mask9_47_13849)">
<mask id="mask10_47_13849" style="mask-type:luminance" maskUnits="userSpaceOnUse" x="98" y="291" width="54" height="20">
<path d="M151.99 299.526L100.234 310.953L98.5105 303.146L150.266 291.714L151.99 299.526Z" fill="white"/>
</mask>
<g mask="url(#mask10_47_13849)">
<path d="M104.063 310.099L107.771 309.276L107.766 309.266L144.568 301.141L144.573 301.151L148.281 300.328C150.323 299.88 151.62 297.849 151.167 295.802C150.714 293.76 148.688 292.464 146.641 292.917L102.427 302.682C100.38 303.135 99.0835 305.151 99.5366 307.198C99.9845 309.245 102.016 310.547 104.063 310.099Z" fill="#FCD590"/>
</g>
</g>
</g>
<mask id="mask11_47_13849" style="mask-type:luminance" maskUnits="userSpaceOnUse" x="132" y="295" width="17" height="7">
<path d="M132.667 295.333H148.667V302H132.667V295.333Z" fill="white"/>
</mask>
<g mask="url(#mask11_47_13849)">
<mask id="mask12_47_13849" style="mask-type:luminance" maskUnits="userSpaceOnUse" x="98" y="291" width="54" height="20">
<path d="M151.99 299.526L100.234 310.953L98.5104 303.146L150.266 291.714L151.99 299.526Z" fill="white"/>
</mask>
<g mask="url(#mask12_47_13849)">
<mask id="mask13_47_13849" style="mask-type:luminance" maskUnits="userSpaceOnUse" x="98" y="291" width="54" height="20">
<path d="M151.99 299.526L100.234 310.953L98.5104 303.146L150.266 291.714L151.99 299.526Z" fill="white"/>
</mask>
<g mask="url(#mask13_47_13849)">
<path d="M135.016 301.323L147.87 298.485C148.385 298.37 148.708 297.865 148.594 297.349C148.479 296.833 147.974 296.511 147.458 296.625L143.755 297.443V297.453L134.614 299.469C134.099 299.583 133.776 300.089 133.891 300.604C134.005 301.12 134.51 301.432 135.016 301.323Z" fill="#FCD590"/>
</g>
</g>
</g>
<mask id="mask14_47_13849" style="mask-type:luminance" maskUnits="userSpaceOnUse" x="152" y="286" width="44" height="40">
<path d="M152.667 286H195.333V326H152.667V286Z" fill="white"/>
</mask>
<g mask="url(#mask14_47_13849)">
<mask id="mask15_47_13849" style="mask-type:luminance" maskUnits="userSpaceOnUse" x="151" y="284" width="45" height="43">
<path d="M157.24 284.661L195.688 321.141L190.182 326.943L151.734 290.469L157.24 284.661Z" fill="white"/>
</mask>
<g mask="url(#mask15_47_13849)">
<mask id="mask16_47_13849" style="mask-type:luminance" maskUnits="userSpaceOnUse" x="151" y="284" width="45" height="43">
<path d="M195.599 321.052L157.146 284.578L151.641 290.38L190.094 326.859L195.599 321.052Z" fill="white"/>
</mask>
<g mask="url(#mask16_47_13849)">
<path d="M159.984 287.286L162.734 289.901L162.729 289.906L190.073 315.844L190.078 315.839L192.833 318.453C194.354 319.891 194.417 322.302 192.974 323.818C191.536 325.339 189.125 325.401 187.609 323.958L154.755 292.797C153.24 291.354 153.167 288.953 154.609 287.437C156.047 285.917 158.464 285.844 159.984 287.286Z" fill="#FCD590"/>
</g>
</g>
</g>
<mask id="mask17_47_13849" style="mask-type:luminance" maskUnits="userSpaceOnUse" x="179" y="310" width="14" height="12">
<path d="M179.333 310H192.667V322H179.333V310Z" fill="white"/>
</mask>
<g mask="url(#mask17_47_13849)">
<mask id="mask18_47_13849" style="mask-type:luminance" maskUnits="userSpaceOnUse" x="151" y="284" width="45" height="43">
<path d="M157.24 284.661L195.688 321.141L190.182 326.943L151.734 290.469L157.24 284.661Z" fill="white"/>
</mask>
<g mask="url(#mask18_47_13849)">
<mask id="mask19_47_13849" style="mask-type:luminance" maskUnits="userSpaceOnUse" x="151" y="284" width="45" height="43">
<path d="M195.599 321.052L157.146 284.578L151.641 290.38L190.094 326.859L195.599 321.052Z" fill="white"/>
</mask>
<g mask="url(#mask19_47_13849)">
<path d="M181.979 310.766L191.531 319.823C191.917 320.187 191.932 320.786 191.568 321.172C191.203 321.552 190.604 321.568 190.219 321.203L187.469 318.594L187.474 318.583L180.682 312.146C180.302 311.781 180.286 311.182 180.651 310.797C181.01 310.417 181.604 310.406 181.979 310.766Z" fill="#FCD590"/>
</g>
</g>
</g>
<mask id="mask20_47_13849" style="mask-type:luminance" maskUnits="userSpaceOnUse" x="147" y="292" width="54" height="20">
<path d="M147.333 292.667H200.667V311.333H147.333V292.667Z" fill="white"/>
</mask>
<g mask="url(#mask20_47_13849)">
<mask id="mask21_47_13849" style="mask-type:luminance" maskUnits="userSpaceOnUse" x="147" y="293" width="54" height="20">
<path d="M147.161 304.505L198.917 293.073L200.641 300.885L148.891 312.318L147.161 304.505Z" fill="white"/>
</mask>
<g mask="url(#mask21_47_13849)">
<mask id="mask22_47_13849" style="mask-type:luminance" maskUnits="userSpaceOnUse" x="147" y="293" width="54" height="20">
<path d="M198.792 293.099L147.042 304.531L148.766 312.344L200.521 300.911L198.792 293.099Z" fill="white"/>
</mask>
<g mask="url(#mask22_47_13849)">
<path d="M150.875 303.698L154.578 302.88L154.583 302.891L191.386 294.76L191.38 294.75L195.089 293.932C197.136 293.479 199.162 294.776 199.615 296.818C200.068 298.865 198.771 300.896 196.729 301.344L152.511 311.115C150.469 311.563 148.438 310.281 147.99 308.234C147.537 306.188 148.828 304.151 150.875 303.698Z" fill="#FCD590"/>
</g>
</g>
</g>
<mask id="mask23_47_13849" style="mask-type:luminance" maskUnits="userSpaceOnUse" x="180" y="295" width="17" height="6">
<path d="M180.667 295.333H196.667V300.667H180.667V295.333Z" fill="white"/>
</mask>
<g mask="url(#mask23_47_13849)">
<mask id="mask24_47_13849" style="mask-type:luminance" maskUnits="userSpaceOnUse" x="147" y="293" width="54" height="20">
<path d="M147.161 304.505L198.917 293.073L200.641 300.885L148.891 312.318L147.161 304.505Z" fill="white"/>
</mask>
<g mask="url(#mask24_47_13849)">
<mask id="mask25_47_13849" style="mask-type:luminance" maskUnits="userSpaceOnUse" x="147" y="293" width="54" height="20">
<path d="M198.792 293.099L147.042 304.531L148.766 312.344L200.521 300.911L198.792 293.099Z" fill="white"/>
</mask>
<g mask="url(#mask25_47_13849)">
<path d="M182.641 298.62L195.5 295.781C196.016 295.667 196.521 295.99 196.63 296.505C196.745 297.021 196.427 297.526 195.906 297.641L192.203 298.458L192.198 298.448L183.062 300.464C182.542 300.578 182.042 300.26 181.927 299.74C181.812 299.224 182.135 298.729 182.641 298.62Z" fill="#FCD590"/>
</g>
</g>
</g>
<mask id="mask26_47_13849" style="mask-type:luminance" maskUnits="userSpaceOnUse" x="62" y="104" width="178" height="177">
<path d="M62.0104 104.01H239.01V280.667H62.0104V104.01Z" fill="white"/>
</mask>
<g mask="url(#mask26_47_13849)">
<path d="M238.651 192.333C238.651 193.776 238.615 195.224 238.542 196.667C238.474 198.109 238.365 199.552 238.224 200.99C238.083 202.427 237.906 203.865 237.693 205.292C237.479 206.724 237.234 208.146 236.953 209.562C236.672 210.979 236.354 212.391 236 213.792C235.651 215.193 235.266 216.589 234.844 217.969C234.427 219.354 233.974 220.724 233.484 222.089C233 223.448 232.479 224.797 231.927 226.13C231.375 227.469 230.786 228.786 230.167 230.094C229.552 231.401 228.901 232.693 228.219 233.969C227.536 235.24 226.828 236.5 226.083 237.74C225.339 238.979 224.568 240.198 223.766 241.401C222.964 242.604 222.13 243.786 221.266 244.943C220.406 246.104 219.516 247.245 218.599 248.365C217.682 249.479 216.74 250.573 215.771 251.646C214.797 252.714 213.802 253.76 212.781 254.786C211.76 255.807 210.714 256.802 209.641 257.776C208.568 258.745 207.474 259.687 206.359 260.604C205.24 261.521 204.104 262.411 202.943 263.271C201.781 264.135 200.599 264.964 199.396 265.771C198.193 266.573 196.974 267.344 195.734 268.089C194.495 268.828 193.24 269.542 191.964 270.224C190.687 270.906 189.396 271.557 188.089 272.172C186.781 272.792 185.464 273.375 184.125 273.932C182.792 274.484 181.443 275.005 180.083 275.49C178.724 275.979 177.349 276.432 175.969 276.849C174.583 277.271 173.193 277.656 171.786 278.005C170.385 278.359 168.979 278.672 167.557 278.958C166.141 279.24 164.719 279.484 163.286 279.698C161.859 279.911 160.422 280.089 158.984 280.229C157.547 280.37 156.104 280.474 154.661 280.547C153.219 280.62 151.776 280.651 150.328 280.651C148.885 280.651 147.437 280.62 145.995 280.547C144.552 280.474 143.109 280.37 141.672 280.229C140.234 280.089 138.797 279.911 137.37 279.698C135.937 279.484 134.516 279.24 133.099 278.958C131.682 278.672 130.271 278.359 128.87 278.005C127.469 277.656 126.073 277.271 124.693 276.849C123.307 276.432 121.937 275.979 120.573 275.49C119.214 275.005 117.865 274.484 116.531 273.932C115.193 273.375 113.875 272.792 112.568 272.172C111.26 271.557 109.969 270.906 108.693 270.224C107.422 269.542 106.161 268.828 104.922 268.089C103.682 267.344 102.464 266.573 101.26 265.771C100.057 264.964 98.875 264.135 97.7187 263.271C96.5573 262.411 95.4166 261.521 94.2968 260.604C93.1823 259.687 92.0885 258.745 91.0156 257.776C89.9427 256.802 88.901 255.807 87.875 254.786C86.8541 253.76 85.8593 252.714 84.8854 251.646C83.9166 250.573 82.9739 249.479 82.0573 248.365C81.1406 247.245 80.25 246.104 79.3906 244.943C78.526 243.786 77.6979 242.604 76.8906 241.401C76.0885 240.198 75.3177 238.979 74.5729 237.74C73.8281 236.5 73.1198 235.24 72.4375 233.969C71.7552 232.693 71.1041 231.401 70.4895 230.094C69.8698 228.786 69.2864 227.469 68.7291 226.13C68.177 224.797 67.6562 223.448 67.1718 222.089C66.6823 220.724 66.2291 219.354 65.8125 217.969C65.3906 216.589 65.0052 215.193 64.6562 213.792C64.302 212.391 63.9895 210.979 63.7031 209.562C63.4218 208.146 63.177 206.724 62.9635 205.292C62.75 203.865 62.5729 202.427 62.4323 200.99C62.2916 199.552 62.1875 198.109 62.1145 196.667C62.0416 195.224 62.0104 193.776 62.0104 192.333C62.0104 190.885 62.0416 189.443 62.1145 188C62.1875 186.557 62.2916 185.115 62.4323 183.677C62.5729 182.24 62.75 180.802 62.9635 179.375C63.177 177.943 63.4218 176.521 63.7031 175.104C63.9895 173.682 64.302 172.276 64.6562 170.875C65.0052 169.469 65.3906 168.078 65.8125 166.693C66.2291 165.312 66.6823 163.937 67.1718 162.578C67.6562 161.219 68.177 159.87 68.7291 158.536C69.2864 157.198 69.8698 155.875 70.4895 154.573C71.1041 153.266 71.7552 151.974 72.4375 150.698C73.1198 149.422 73.8281 148.167 74.5729 146.927C75.3177 145.687 76.0885 144.469 76.8906 143.266C77.6979 142.062 78.526 140.88 79.3906 139.719C80.25 138.557 81.1406 137.422 82.0573 136.302C82.9739 135.187 83.9166 134.094 84.8854 133.021C85.8593 131.948 86.8541 130.901 87.875 129.88C88.901 128.859 89.9427 127.865 91.0156 126.891C92.0885 125.922 93.1823 124.979 94.2968 124.062C95.4166 123.141 96.5573 122.255 97.7187 121.391C98.875 120.531 100.057 119.698 101.26 118.896C102.464 118.094 103.682 117.323 104.922 116.578C106.161 115.833 107.422 115.125 108.693 114.443C109.969 113.76 111.26 113.109 112.568 112.49C113.875 111.875 115.193 111.286 116.531 110.734C117.865 110.182 119.214 109.661 120.573 109.177C121.937 108.687 123.307 108.234 124.693 107.818C126.073 107.396 127.469 107.01 128.87 106.661C130.271 106.307 131.682 105.99 133.099 105.708C134.516 105.427 135.937 105.182 137.37 104.969C138.797 104.755 140.234 104.578 141.672 104.437C143.109 104.297 144.552 104.187 145.995 104.12C147.437 104.047 148.885 104.01 150.328 104.01C151.776 104.01 153.219 104.047 154.661 104.12C156.104 104.187 157.547 104.297 158.984 104.437C160.422 104.578 161.859 104.755 163.286 104.969C164.719 105.182 166.141 105.427 167.557 105.708C168.979 105.99 170.385 106.307 171.786 106.661C173.193 107.01 174.583 107.396 175.969 107.818C177.349 108.234 178.724 108.687 180.083 109.177C181.443 109.661 182.792 110.182 184.125 110.734C185.464 111.286 186.781 111.875 188.089 112.49C189.396 113.109 190.687 113.76 191.964 114.443C193.24 115.125 194.495 115.833 195.734 116.578C196.974 117.323 198.193 118.094 199.396 118.896C200.599 119.698 201.781 120.531 202.943 121.391C204.104 122.255 205.24 123.141 206.359 124.062C207.474 124.979 208.568 125.922 209.641 126.891C210.714 127.865 211.76 128.859 212.781 129.88C213.802 130.901 214.797 131.948 215.771 133.021C216.74 134.094 217.682 135.187 218.599 136.302C219.516 137.422 220.406 138.557 221.266 139.719C222.13 140.88 222.964 142.062 223.766 143.266C224.568 144.469 225.339 145.687 226.083 146.927C226.828 148.167 227.536 149.422 228.219 150.698C228.901 151.974 229.552 153.266 230.167 154.573C230.786 155.875 231.375 157.198 231.927 158.536C232.479 159.87 233 161.219 233.484 162.578C233.974 163.937 234.427 165.312 234.844 166.693C235.266 168.078 235.651 169.469 236 170.875C236.354 172.276 236.672 173.682 236.953 175.104C237.234 176.521 237.479 177.943 237.693 179.375C237.906 180.802 238.083 182.24 238.224 183.677C238.365 185.115 238.474 186.557 238.542 188C238.615 189.443 238.651 190.885 238.651 192.333Z" fill="#442F19"/>
</g>
<mask id="mask27_47_13849" style="mask-type:luminance" maskUnits="userSpaceOnUse" x="117" y="221" width="84" height="32">
<path d="M117.01 221.099H200.01V252.099H117.01V221.099Z" fill="white"/>
</mask>
<g mask="url(#mask27_47_13849)">
<path d="M190.729 238.005C179.427 234.948 170.964 237.531 165.406 240.807C173 233.078 184.589 230.542 188.302 229.911L190.729 238.005ZM177.365 221.146L180.552 228.76C174.542 230.63 166.687 234.25 161.37 240.938C164.734 229.24 173.932 223.078 177.365 221.146ZM140.036 221.146C143.464 223.078 152.667 229.219 156.031 240.958C150.714 234.276 142.859 230.651 136.844 228.781L140.036 221.146ZM129.099 229.911C132.807 230.542 144.396 233.078 151.995 240.807C146.437 237.531 137.974 234.948 126.667 238.005L129.099 229.911ZM163.583 252.135H153.818C151.667 249.359 142.38 240.438 117.01 251.005L119.203 243.911C144.505 231.625 157.005 248.49 157.526 249.229C157.552 249.25 157.573 249.25 157.594 249.271C157.615 249.313 157.635 249.359 157.682 249.38C157.703 249.401 157.703 249.401 157.703 249.422C157.745 249.464 157.786 249.49 157.854 249.51C157.896 249.531 157.943 249.573 157.984 249.594C158.026 249.62 158.073 249.661 158.135 249.682C158.156 249.682 158.177 249.703 158.177 249.703C158.266 249.75 158.375 249.75 158.484 249.771C158.547 249.771 158.594 249.813 158.656 249.813C158.677 249.813 158.698 249.813 158.724 249.813C158.745 249.813 158.766 249.813 158.786 249.813C158.854 249.813 158.896 249.792 158.958 249.771C159.068 249.75 159.156 249.75 159.266 249.703C159.286 249.703 159.307 249.682 159.307 249.682C159.375 249.661 159.417 249.62 159.458 249.594C159.505 249.573 159.547 249.552 159.589 249.51C159.635 249.464 159.698 249.443 159.74 249.422C159.766 249.401 159.766 249.401 159.766 249.38C159.807 249.333 159.828 249.313 159.849 249.271C159.87 249.25 159.896 249.25 159.917 249.229C160.437 248.49 172.937 231.625 198.24 243.911L200.432 251.005C175.042 240.438 165.729 249.38 163.583 252.135Z" fill="#EDE0D2"/>
</g>
<mask id="mask28_47_13849" style="mask-type:luminance" maskUnits="userSpaceOnUse" x="103" y="0" width="59" height="60">
<path d="M103.333 0.666626H162V59.3333H103.333V0.666626Z" fill="white"/>
</mask>
<g mask="url(#mask28_47_13849)">
<mask id="mask29_47_13849" style="mask-type:luminance" maskUnits="userSpaceOnUse" x="93" y="-9" width="85" height="85">
<path d="M177.021 42.4791L144.49 75.0051L93.5781 24.0937L126.104 -8.43237L177.021 42.4791Z" fill="white"/>
</mask>
<g mask="url(#mask29_47_13849)">
<mask id="mask30_47_13849" style="mask-type:luminance" maskUnits="userSpaceOnUse" x="93" y="-9" width="85" height="85">
<path d="M177.021 42.4791L144.49 75.0051L93.5781 24.0937L126.104 -8.43237L177.021 42.4791Z" fill="white"/>
</mask>
<g mask="url(#mask30_47_13849)">
<path d="M129.036 50.1458L160.807 58.6926L152.26 26.9218C151.182 22.5051 147.437 12.9114 143.911 9.38535C134.26 -0.265691 119.187 -0.828192 110.24 8.12493C101.286 17.0781 101.844 32.151 111.495 41.7968C115.021 45.3281 124.62 49.0676 129.036 50.1458Z" fill="#442F19"/>
</g>
</g>
</g>
<mask id="mask31_47_13849" style="mask-type:luminance" maskUnits="userSpaceOnUse" x="143" y="0" width="57" height="61">
<path d="M143.333 0.666626H199.333V60.6666H143.333V0.666626Z" fill="white"/>
</mask>
<g mask="url(#mask31_47_13849)">
<mask id="mask32_47_13849" style="mask-type:luminance" maskUnits="userSpaceOnUse" x="126" y="-10" width="84" height="85">
<path d="M160.74 74.9062L126.818 43.8385L175.448 -9.25525L209.37 21.8125L160.74 74.9062Z" fill="white"/>
</mask>
<g mask="url(#mask32_47_13849)">
<mask id="mask33_47_13849" style="mask-type:luminance" maskUnits="userSpaceOnUse" x="126" y="-10" width="84" height="86">
<path d="M126.922 43.9323L160.844 75.0052L209.474 21.9062L175.552 -9.1615L126.922 43.9323Z" fill="white"/>
</mask>
<g mask="url(#mask33_47_13849)">
<path d="M175.193 49.4895L143.828 59.4166L150.969 27.302C151.854 22.8437 155.177 13.0937 158.547 9.4166C167.76 -0.645898 182.797 -1.86465 192.13 6.68223C201.469 15.2343 201.568 30.3176 192.354 40.3801C188.984 44.0572 179.557 48.2187 175.193 49.4895Z" fill="#442F19"/>
</g>
</g>
</g>
<mask id="mask34_47_13849" style="mask-type:luminance" maskUnits="userSpaceOnUse" x="62" y="44" width="178" height="178">
<path d="M62.0104 44.4531H239.01V221.453H62.0104V44.4531Z" fill="white"/>
</mask>
<g mask="url(#mask34_47_13849)">
<path d="M238.651 132.771C238.651 134.219 238.615 135.661 238.542 137.104C238.474 138.552 238.365 139.99 238.224 141.427C238.083 142.87 237.906 144.302 237.693 145.729C237.479 147.161 237.234 148.583 236.953 150.005C236.672 151.422 236.354 152.828 236 154.234C235.651 155.635 235.266 157.026 234.844 158.411C234.427 159.792 233.974 161.167 233.484 162.526C233 163.885 232.479 165.234 231.927 166.573C231.375 167.906 230.786 169.229 230.167 170.536C229.552 171.839 228.901 173.13 228.219 174.406C227.536 175.682 226.828 176.938 226.083 178.177C225.339 179.417 224.568 180.641 223.766 181.839C222.964 183.042 222.13 184.224 221.266 185.385C220.406 186.547 219.516 187.682 218.599 188.802C217.682 189.922 216.74 191.016 215.771 192.083C214.797 193.156 213.802 194.203 212.781 195.224C211.76 196.245 210.714 197.245 209.641 198.214C208.568 199.182 207.474 200.13 206.359 201.047C205.24 201.964 204.104 202.849 202.943 203.714C201.781 204.573 200.599 205.406 199.396 206.208C198.193 207.01 196.974 207.786 195.734 208.526C194.495 209.271 193.24 209.984 191.964 210.661C190.687 211.344 189.396 211.995 188.089 212.615C186.781 213.229 185.464 213.818 184.125 214.37C182.792 214.922 181.443 215.443 180.083 215.927C178.724 216.417 177.349 216.87 175.969 217.292C174.583 217.708 173.193 218.094 171.786 218.448C170.385 218.797 168.979 219.115 167.557 219.396C166.141 219.677 164.719 219.927 163.286 220.135C161.859 220.349 160.422 220.526 158.984 220.667C157.547 220.807 156.104 220.917 154.661 220.984C153.219 221.057 151.776 221.094 150.328 221.094C148.885 221.094 147.437 221.057 145.995 220.984C144.552 220.917 143.109 220.807 141.672 220.667C140.234 220.526 138.797 220.349 137.37 220.135C135.937 219.927 134.516 219.677 133.099 219.396C131.682 219.115 130.271 218.797 128.87 218.448C127.469 218.094 126.073 217.708 124.693 217.292C123.307 216.87 121.937 216.417 120.573 215.927C119.214 215.443 117.865 214.922 116.531 214.37C115.193 213.818 113.875 213.229 112.568 212.615C111.26 211.995 109.969 211.344 108.693 210.661C107.422 209.984 106.161 209.271 104.922 208.526C103.682 207.786 102.464 207.01 101.26 206.208C100.057 205.406 98.875 204.573 97.7187 203.714C96.5573 202.849 95.4166 201.964 94.2968 201.047C93.1823 200.13 92.0885 199.182 91.0156 198.214C89.9427 197.245 88.901 196.245 87.875 195.224C86.8541 194.203 85.8593 193.156 84.8854 192.083C83.9166 191.016 82.9739 189.922 82.0573 188.802C81.1406 187.682 80.25 186.547 79.3906 185.385C78.526 184.224 77.6979 183.042 76.8906 181.839C76.0885 180.641 75.3177 179.417 74.5729 178.177C73.8281 176.938 73.1198 175.682 72.4375 174.406C71.7552 173.13 71.1041 171.839 70.4895 170.536C69.8698 169.229 69.2864 167.906 68.7291 166.573C68.177 165.234 67.6562 163.885 67.1718 162.526C66.6823 161.167 66.2291 159.792 65.8125 158.411C65.3906 157.026 65.0052 155.635 64.6562 154.234C64.302 152.828 63.9895 151.422 63.7031 150.005C63.4218 148.583 63.177 147.161 62.9635 145.729C62.75 144.302 62.5729 142.87 62.4323 141.427C62.2916 139.99 62.1875 138.552 62.1145 137.104C62.0416 135.661 62.0104 134.219 62.0104 132.771C62.0104 131.328 62.0416 129.88 62.1145 128.438C62.1875 126.995 62.2916 125.552 62.4323 124.115C62.5729 122.677 62.75 121.245 62.9635 119.812C63.177 118.385 63.4218 116.958 63.7031 115.542C63.9895 114.125 64.302 112.714 64.6562 111.312C65.0052 109.911 65.3906 108.516 65.8125 107.135C66.2291 105.75 66.6823 104.38 67.1718 103.016C67.6562 101.656 68.177 100.307 68.7291 98.974C69.2864 97.6406 69.8698 96.3177 70.4895 95.0104C71.1041 93.7031 71.7552 92.4115 72.4375 91.1406C73.1198 89.8646 73.8281 88.6042 74.5729 87.3646C75.3177 86.125 76.0885 84.9062 76.8906 83.7031C77.6979 82.5 78.526 81.3229 79.3906 80.1615C80.25 79 81.1406 77.8594 82.0573 76.7448C82.9739 75.625 83.9166 74.5313 84.8854 73.4583C85.8593 72.3906 86.8541 71.3438 87.875 70.3229C88.901 69.2969 89.9427 68.3021 91.0156 67.3333C92.0885 66.3594 93.1823 65.4167 94.2968 64.5C95.4166 63.5833 96.5573 62.6927 97.7187 61.8333C98.875 60.974 100.057 60.1406 101.26 59.3385C102.464 58.5313 103.682 57.7604 104.922 57.0156C106.161 56.276 107.422 55.5625 108.693 54.8802C109.969 54.1979 111.26 53.5521 112.568 52.9323C113.875 52.3125 115.193 51.7292 116.531 51.1771C117.865 50.6198 119.214 50.1042 120.573 49.6146C121.937 49.1302 123.307 48.6771 124.693 48.2552C126.073 47.8333 127.469 47.4479 128.87 47.099C130.271 46.75 131.682 46.4323 133.099 46.151C134.516 45.8646 135.937 45.6198 137.37 45.4062C138.797 45.1979 140.234 45.0208 141.672 44.875C143.109 44.7344 144.552 44.6302 145.995 44.5573C147.437 44.4896 148.885 44.4531 150.328 44.4531C151.776 44.4531 153.219 44.4896 154.661 44.5573C156.104 44.6302 157.547 44.7344 158.984 44.875C160.422 45.0208 161.859 45.1979 163.286 45.4062C164.719 45.6198 166.141 45.8646 167.557 46.151C168.979 46.4323 170.385 46.75 171.786 47.099C173.193 47.4479 174.583 47.8333 175.969 48.2552C177.349 48.6771 178.724 49.1302 180.083 49.6146C181.443 50.1042 182.792 50.6198 184.125 51.1771C185.464 51.7292 186.781 52.3125 188.089 52.9323C189.396 53.5521 190.687 54.1979 191.964 54.8802C193.24 55.5625 194.495 56.276 195.734 57.0156C196.974 57.7604 198.193 58.5313 199.396 59.3385C200.599 60.1406 201.781 60.974 202.943 61.8333C204.104 62.6927 205.24 63.5833 206.359 64.5C207.474 65.4167 208.568 66.3594 209.641 67.3333C210.714 68.3021 211.76 69.2969 212.781 70.3229C213.802 71.3438 214.797 72.3906 215.771 73.4583C216.74 74.5313 217.682 75.625 218.599 76.7448C219.516 77.8594 220.406 79 221.266 80.1615C222.13 81.3229 222.964 82.5 223.766 83.7031C224.568 84.9062 225.339 86.125 226.083 87.3646C226.828 88.6042 227.536 89.8646 228.219 91.1406C228.901 92.4115 229.552 93.7031 230.167 95.0104C230.786 96.3177 231.375 97.6406 231.927 98.974C232.479 100.307 233 101.656 233.484 103.016C233.974 104.38 234.427 105.75 234.844 107.135C235.266 108.516 235.651 109.911 236 111.312C236.354 112.714 236.672 114.125 236.953 115.542C237.234 116.958 237.479 118.385 237.693 119.812C237.906 121.245 238.083 122.677 238.224 124.115C238.365 125.552 238.474 126.995 238.542 128.438C238.615 129.88 238.651 131.328 238.651 132.771Z" fill="#EDE0D2"/>
</g>
<mask id="mask35_47_13849" style="mask-type:luminance" maskUnits="userSpaceOnUse" x="161" y="88" width="64" height="64">
<path d="M161.641 88.9219H224.339V151.615H161.641V88.9219Z" fill="white"/>
</mask>
<g mask="url(#mask35_47_13849)">
<mask id="mask36_47_13849" style="mask-type:luminance" maskUnits="userSpaceOnUse" x="161" y="88" width="64" height="64">
<path d="M192.99 88.9219C175.677 88.9219 161.641 102.953 161.641 120.271C161.641 137.583 175.677 151.615 192.99 151.615C210.302 151.615 224.339 137.583 224.339 120.271C224.339 102.953 210.302 88.9219 192.99 88.9219Z" fill="white"/>
</mask>
<g mask="url(#mask36_47_13849)">
<path d="M161.641 88.9219H224.339V151.615H161.641V88.9219Z" fill="white"/>
</g>
</g>
<mask id="mask37_47_13849" style="mask-type:luminance" maskUnits="userSpaceOnUse" x="184" y="195" width="114" height="87">
<path d="M184.667 195.333H298V282H184.667V195.333Z" fill="white"/>
</mask>
<g mask="url(#mask37_47_13849)">
<mask id="mask38_47_13849" style="mask-type:luminance" maskUnits="userSpaceOnUse" x="177" y="187" width="128" height="103">
<path d="M177.099 254.547L282.911 187.995L304.74 222.703L198.927 289.255L177.099 254.547Z" fill="white"/>
</mask>
<g mask="url(#mask38_47_13849)">
<mask id="mask39_47_13849" style="mask-type:luminance" maskUnits="userSpaceOnUse" x="177" y="187" width="128" height="103">
<path d="M282.953 187.974L177.141 254.521L198.969 289.229L304.781 222.677L282.953 187.974Z" fill="white"/>
</mask>
<g mask="url(#mask39_47_13849)">
<path d="M216.266 278.229L287.338 233.531C296.844 227.552 299.708 214.99 293.729 205.479C287.745 195.969 275.182 193.104 265.672 199.089L194.599 243.786C185.094 249.766 182.229 262.328 188.213 271.839C194.193 281.349 206.755 284.214 216.266 278.229Z" fill="#604428"/>
<path d="M216.37 278.401L287.443 233.698C297.036 227.667 299.927 214.964 293.896 205.37C287.859 195.776 275.161 192.885 265.568 198.917L194.495 243.62C184.901 249.651 182.01 262.354 188.042 271.948C194.078 281.542 206.776 284.432 216.37 278.401ZM265.781 199.255C275.187 193.339 287.641 196.172 293.557 205.583C299.474 214.99 296.641 227.443 287.229 233.365L216.156 278.063C206.75 283.979 194.297 281.146 188.38 271.734C182.463 262.328 185.297 249.875 194.708 243.953L265.781 199.255Z" fill="#604428"/>
</g>
</g>
</g>
<mask id="mask40_47_13849" style="mask-type:luminance" maskUnits="userSpaceOnUse" x="168" y="150" width="136" height="103">
<path d="M168.667 150H303.333V252.667H168.667V150Z" fill="white"/>
</mask>
<g mask="url(#mask40_47_13849)">
<mask id="mask41_47_13849" style="mask-type:luminance" maskUnits="userSpaceOnUse" x="159" y="140" width="154" height="122">
<path d="M159.927 220.073L286.052 140.75L312.141 182.229L186.01 261.552L159.927 220.073Z" fill="white"/>
</mask>
<g mask="url(#mask41_47_13849)">
<mask id="mask42_47_13849" style="mask-type:luminance" maskUnits="userSpaceOnUse" x="159" y="140" width="153" height="122">
<path d="M285.724 140.958L159.594 220.281L185.682 261.76L311.812 182.438L285.724 140.958Z" fill="white"/>
</mask>
<g mask="url(#mask42_47_13849)">
<path d="M206.469 248.219L290.932 195.094C302.234 187.984 305.635 173.057 298.526 161.755C291.417 150.453 276.49 147.052 265.187 154.162L180.724 207.281C169.422 214.391 166.021 229.323 173.125 240.625C180.234 251.927 195.167 255.323 206.469 248.219Z" fill="#604428"/>
<path d="M206.594 248.417L291.057 195.297C302.458 188.125 305.896 173.031 298.724 161.63C291.552 150.229 276.463 146.792 265.062 153.964L180.594 207.083C169.193 214.255 165.755 229.349 172.927 240.75C180.099 252.151 195.193 255.589 206.594 248.417ZM265.312 154.359C276.495 147.328 291.292 150.698 298.328 161.88C305.359 173.063 301.989 187.865 290.807 194.896L206.344 248.016C195.161 255.052 180.359 251.677 173.328 240.495C166.292 229.318 169.667 214.516 180.849 207.484L265.312 154.359Z" fill="#604428"/>
</g>
</g>
</g>
<mask id="mask43_47_13849" style="mask-type:luminance" maskUnits="userSpaceOnUse" x="178" y="107" width="134" height="103">
<path d="M178 107.333H311.333V210H178V107.333Z" fill="white"/>
</mask>
<g mask="url(#mask43_47_13849)">
<mask id="mask44_47_13849" style="mask-type:luminance" maskUnits="userSpaceOnUse" x="168" y="98" width="153" height="121">
<path d="M168.734 177.474L294.865 98.1459L320.953 139.625L194.823 218.953L168.734 177.474Z" fill="white"/>
</mask>
<g mask="url(#mask44_47_13849)">
<mask id="mask45_47_13849" style="mask-type:luminance" maskUnits="userSpaceOnUse" x="168" y="98" width="153" height="122">
<path d="M294.531 98.3542L168.406 177.682L194.495 219.162L320.62 139.833L294.531 98.3542Z" fill="white"/>
</mask>
<g mask="url(#mask45_47_13849)">
<path d="M215.276 205.615L299.74 152.495C311.042 145.386 314.443 130.453 307.333 119.151C300.229 107.854 285.297 104.453 273.995 111.557L189.531 164.682C178.229 171.792 174.828 186.719 181.937 198.021C189.047 209.323 203.974 212.724 215.276 205.615Z" fill="#604428"/>
</g>
</g>
</g>
<mask id="mask46_47_13849" style="mask-type:luminance" maskUnits="userSpaceOnUse" x="176" y="107" width="136" height="103">
<path d="M176.667 107.333H311.333V210H176.667V107.333Z" fill="white"/>
</mask>
<g mask="url(#mask46_47_13849)">
<mask id="mask47_47_13849" style="mask-type:luminance" maskUnits="userSpaceOnUse" x="168" y="98" width="153" height="121">
<path d="M168.734 177.474L294.865 98.1459L320.953 139.625L194.823 218.953L168.734 177.474Z" fill="white"/>
</mask>
<g mask="url(#mask47_47_13849)">
<mask id="mask48_47_13849" style="mask-type:luminance" maskUnits="userSpaceOnUse" x="168" y="98" width="153" height="122">
<path d="M294.531 98.3542L168.406 177.682L194.495 219.162L320.62 139.833L294.531 98.3542Z" fill="white"/>
</mask>
<g mask="url(#mask48_47_13849)">
<path d="M215.401 205.818L299.865 152.693C311.266 145.521 314.708 130.427 307.536 119.026C300.365 107.625 285.271 104.188 273.87 111.359L189.406 164.479C178.005 171.651 174.568 186.745 181.74 198.146C188.906 209.547 204 212.984 215.401 205.818ZM274.12 111.761C285.302 104.724 300.104 108.099 307.135 119.281C314.167 130.464 310.797 145.261 299.615 152.292L215.151 205.417C203.969 212.448 189.172 209.078 182.135 197.896C175.104 186.714 178.474 171.912 189.656 164.88L274.12 111.761Z" fill="#604428"/>
</g>
</g>
</g>
<mask id="mask49_47_13849" style="mask-type:luminance" maskUnits="userSpaceOnUse" x="76" y="88" width="64" height="64">
<path d="M76.8802 88.9219H139.578V151.615H76.8802V88.9219Z" fill="white"/>
</mask>
<g mask="url(#mask49_47_13849)">
<mask id="mask50_47_13849" style="mask-type:luminance" maskUnits="userSpaceOnUse" x="76" y="88" width="64" height="64">
<path d="M108.229 88.9219C90.9167 88.9219 76.8802 102.953 76.8802 120.271C76.8802 137.583 90.9167 151.615 108.229 151.615C125.542 151.615 139.578 137.583 139.578 120.271C139.578 102.953 125.542 88.9219 108.229 88.9219Z" fill="white"/>
</mask>
<g mask="url(#mask50_47_13849)">
<path d="M76.8802 88.9219H139.578V151.615H76.8802V88.9219Z" fill="white"/>
</g>
</g>
<mask id="mask51_47_13849" style="mask-type:luminance" maskUnits="userSpaceOnUse" x="36" y="218" width="125" height="64">
<path d="M36.6666 218H160.667V282H36.6666V218Z" fill="white"/>
</mask>
<g mask="url(#mask51_47_13849)">
<mask id="mask52_47_13849" style="mask-type:luminance" maskUnits="userSpaceOnUse" x="32" y="213" width="133" height="73">
<path d="M43.7708 213.49L164.375 246.339L153.604 285.896L32.9948 253.052L43.7708 213.49Z" fill="white"/>
</mask>
<g mask="url(#mask52_47_13849)">
<mask id="mask53_47_13849" style="mask-type:luminance" maskUnits="userSpaceOnUse" x="32" y="213" width="133" height="73">
<path d="M43.7708 213.49L164.375 246.339L153.604 285.896L32.9948 253.052L43.7708 213.49Z" fill="white"/>
</mask>
<g mask="url(#mask53_47_13849)">
<path d="M133.854 280.417L52.8438 258.354C42.0052 255.401 35.6094 244.214 38.5573 233.375C41.5104 222.537 52.6979 216.141 63.5365 219.094L144.547 241.156C155.385 244.109 161.781 255.292 158.828 266.13C155.875 276.969 144.693 283.365 133.854 280.417Z" fill="#604428"/>
<path d="M133.802 280.604L52.7917 258.542C41.8542 255.568 35.3907 244.26 38.3698 233.323C41.3438 222.391 52.6511 215.922 63.5886 218.901L144.599 240.964C155.531 243.943 162 255.25 159.021 266.182C156.042 277.12 144.734 283.583 133.802 280.604ZM63.4844 219.281C52.7604 216.365 41.6719 222.703 38.75 233.427C35.8282 244.151 42.1719 255.24 52.8959 258.161L133.906 280.224C144.63 283.146 155.719 276.802 158.635 266.078C161.557 255.354 155.219 244.266 144.495 241.344L63.4844 219.281Z" fill="#604428"/>
</g>
</g>
</g>
<mask id="mask54_47_13849" style="mask-type:luminance" maskUnits="userSpaceOnUse" x="16" y="174" width="146" height="76">
<path d="M16.6666 174H162V250H16.6666V174Z" fill="white"/>
</mask>
<g mask="url(#mask54_47_13849)">
<mask id="mask55_47_13849" style="mask-type:luminance" maskUnits="userSpaceOnUse" x="11" y="168" width="158" height="87">
<path d="M24.276 168.464L168.036 207.615L155.161 254.891L11.3958 215.74L24.276 168.464Z" fill="white"/>
</mask>
<g mask="url(#mask55_47_13849)">
<mask id="mask56_47_13849" style="mask-type:luminance" maskUnits="userSpaceOnUse" x="11" y="168" width="158" height="87">
<path d="M24.276 168.464L168.036 207.615L155.161 254.891L11.3958 215.74L24.276 168.464Z" fill="white"/>
</mask>
<g mask="url(#mask56_47_13849)">
<path d="M131.333 247.99L35.0573 221.771C22.1771 218.26 14.5781 204.969 18.0833 192.089C21.5937 179.203 34.8854 171.604 47.7656 175.109L144.042 201.333C156.922 204.839 164.526 218.13 161.016 231.016C157.505 243.896 144.214 251.495 131.333 247.99Z" fill="#604428"/>
</g>
</g>
</g>
<mask id="mask57_47_13849" style="mask-type:luminance" maskUnits="userSpaceOnUse" x="16" y="174" width="148" height="76">
<path d="M16.6666 174H163.333V250H16.6666V174Z" fill="white"/>
</mask>
<g mask="url(#mask57_47_13849)">
<mask id="mask58_47_13849" style="mask-type:luminance" maskUnits="userSpaceOnUse" x="11" y="168" width="158" height="87">
<path d="M24.276 168.464L168.036 207.615L155.161 254.891L11.3958 215.74L24.276 168.464Z" fill="white"/>
</mask>
<g mask="url(#mask58_47_13849)">
<mask id="mask59_47_13849" style="mask-type:luminance" maskUnits="userSpaceOnUse" x="11" y="168" width="158" height="87">
<path d="M24.276 168.464L168.036 207.615L155.161 254.891L11.3958 215.74L24.276 168.464Z" fill="white"/>
</mask>
<g mask="url(#mask59_47_13849)">
<path d="M131.271 248.219L34.9999 221.995C21.9999 218.458 14.3176 205.021 17.8541 192.026C21.3957 179.031 34.8332 171.344 47.828 174.886L144.104 201.104C157.099 204.641 164.781 218.078 161.245 231.078C157.703 244.073 144.266 251.755 131.271 248.219ZM47.703 175.339C34.9582 171.87 21.7811 179.401 18.3124 192.151C14.8384 204.896 22.3749 218.068 35.1197 221.542L131.396 247.761C144.141 251.234 157.318 243.698 160.786 230.953C164.26 218.208 156.724 205.031 143.979 201.557L47.703 175.339Z" fill="#604428"/>
</g>
</g>
</g>
<mask id="mask60_47_13849" style="mask-type:luminance" maskUnits="userSpaceOnUse" x="132" y="142" width="37" height="19">
<path d="M132.083 142.448H168.083V160.448H132.083V142.448Z" fill="white"/>
</mask>
<g mask="url(#mask60_47_13849)">
<path d="M168.568 151.609C168.568 152.214 168.453 152.807 168.219 153.396C167.984 153.984 167.641 154.557 167.182 155.109C166.724 155.667 166.161 156.193 165.495 156.693C164.828 157.188 164.073 157.651 163.224 158.078C162.38 158.5 161.458 158.88 160.464 159.214C159.469 159.547 158.417 159.828 157.307 160.057C156.203 160.286 155.063 160.464 153.885 160.578C152.714 160.698 151.526 160.755 150.328 160.755C149.13 160.755 147.943 160.698 146.771 160.578C145.594 160.464 144.453 160.286 143.349 160.057C142.24 159.828 141.188 159.547 140.193 159.214C139.198 158.88 138.276 158.5 137.427 158.078C136.583 157.651 135.823 157.188 135.161 156.693C134.495 156.193 133.932 155.667 133.474 155.109C133.016 154.557 132.672 153.984 132.438 153.396C132.203 152.807 132.083 152.214 132.083 151.609C132.083 151.01 132.203 150.417 132.438 149.828C132.672 149.24 133.016 148.667 133.474 148.115C133.932 147.557 134.495 147.031 135.161 146.531C135.823 146.031 136.583 145.573 137.427 145.146C138.276 144.724 139.198 144.344 140.193 144.01C141.188 143.677 142.24 143.396 143.349 143.167C144.453 142.932 145.594 142.76 146.771 142.646C147.943 142.526 149.13 142.469 150.328 142.469C151.526 142.469 152.714 142.526 153.885 142.646C155.063 142.76 156.203 142.932 157.307 143.167C158.417 143.396 159.469 143.677 160.464 144.01C161.458 144.344 162.38 144.724 163.224 145.146C164.073 145.573 164.828 146.031 165.495 146.531C166.161 147.031 166.724 147.557 167.182 148.115C167.641 148.667 167.984 149.24 168.219 149.828C168.453 150.417 168.568 151.01 168.568 151.609Z" fill="#FFB93E"/>
</g>
<mask id="mask61_47_13849" style="mask-type:luminance" maskUnits="userSpaceOnUse" x="0" y="136" width="146" height="77">
<path d="M0.666626 136.667H146V212.667H0.666626V136.667Z" fill="white"/>
</mask>
<g mask="url(#mask61_47_13849)">
<mask id="mask62_47_13849" style="mask-type:luminance" maskUnits="userSpaceOnUse" x="-5" y="131" width="157" height="87">
<path d="M8.15621 131.557L151.917 170.708L139.042 217.99L-4.724 178.833L8.15621 131.557Z" fill="white"/>
</mask>
<g mask="url(#mask62_47_13849)">
<mask id="mask63_47_13849" style="mask-type:luminance" maskUnits="userSpaceOnUse" x="-5" y="131" width="157" height="87">
<path d="M8.15621 131.557L151.917 170.708L139.042 217.99L-4.724 178.833L8.15621 131.557Z" fill="white"/>
</mask>
<g mask="url(#mask63_47_13849)">
<path d="M115.214 211.083L18.9375 184.865C6.05727 181.354 -1.54689 168.063 1.96352 155.182C5.47394 142.302 18.7656 134.698 31.6458 138.208L127.922 164.427C140.802 167.938 148.406 181.229 144.896 194.109C141.385 206.99 128.094 214.594 115.214 211.083Z" fill="#604428"/>
<path d="M115.151 211.312L18.875 185.094C5.88016 181.552 -1.80213 168.115 1.73432 155.12C5.27599 142.125 18.7135 134.437 31.7083 137.979L127.984 164.198C140.979 167.74 148.661 181.177 145.125 194.172C141.583 207.167 128.146 214.849 115.151 211.312ZM31.5833 138.432C18.8385 134.964 5.66141 142.5 2.19266 155.245C-1.2813 167.99 6.25516 181.167 19 184.635L115.276 210.854C128.021 214.328 141.198 206.792 144.667 194.047C148.141 181.302 140.604 168.125 127.859 164.656L31.5833 138.432Z" fill="#604428"/>
</g>
</g>
</g>
<mask id="mask64_47_13849" style="mask-type:luminance" maskUnits="userSpaceOnUse" x="166" y="93" width="54" height="54">
<path d="M166.672 93.9479H219.307V146.589H166.672V93.9479Z" fill="white"/>
</mask>
<g mask="url(#mask64_47_13849)">
<mask id="mask65_47_13849" style="mask-type:luminance" maskUnits="userSpaceOnUse" x="166" y="93" width="54" height="54">
<path d="M192.99 93.9479C178.453 93.9479 166.672 105.734 166.672 120.271C166.672 134.802 178.453 146.589 192.99 146.589C207.526 146.589 219.307 134.802 219.307 120.271C219.307 105.734 207.526 93.9479 192.99 93.9479Z" fill="white"/>
</mask>
<g mask="url(#mask65_47_13849)">
<path d="M166.672 93.9479H219.307V146.589H166.672V93.9479Z" fill="black"/>
</g>
</g>
<mask id="mask66_47_13849" style="mask-type:luminance" maskUnits="userSpaceOnUse" x="81" y="93" width="54" height="54">
<path d="M81.5677 93.2604H134.896V146.589H81.5677V93.2604Z" fill="white"/>
</mask>
<g mask="url(#mask66_47_13849)">
<mask id="mask67_47_13849" style="mask-type:luminance" maskUnits="userSpaceOnUse" x="81" y="93" width="54" height="54">
<path d="M108.229 93.2604C93.5052 93.2604 81.5677 105.198 81.5677 119.922C81.5677 134.651 93.5052 146.589 108.229 146.589C122.958 146.589 134.896 134.651 134.896 119.922C134.896 105.198 122.958 93.2604 108.229 93.2604Z" fill="white"/>
</mask>
<g mask="url(#mask67_47_13849)">
<path d="M81.5677 93.2604H134.896V146.589H81.5677V93.2604Z" fill="black"/>
</g>
</g>
<mask id="mask68_47_13849" style="mask-type:luminance" maskUnits="userSpaceOnUse" x="105" y="94" width="26" height="26">
<path d="M105.365 94.3854H130.901V119.922H105.365V94.3854Z" fill="white"/>
</mask>
<g mask="url(#mask68_47_13849)">
<mask id="mask69_47_13849" style="mask-type:luminance" maskUnits="userSpaceOnUse" x="105" y="94" width="26" height="26">
<path d="M118.13 94.3854C111.078 94.3854 105.365 100.104 105.365 107.156C105.365 114.208 111.078 119.922 118.13 119.922C125.182 119.922 130.901 114.208 130.901 107.156C130.901 100.104 125.182 94.3854 118.13 94.3854Z" fill="white"/>
</mask>
<g mask="url(#mask69_47_13849)">
<path d="M105.365 94.3854H130.901V119.922H105.365V94.3854Z" fill="white"/>
</g>
</g>
<mask id="mask70_47_13849" style="mask-type:luminance" maskUnits="userSpaceOnUse" x="190" y="94" width="26" height="26">
<path d="M190.146 94.599H215.354V119.807H190.146V94.599Z" fill="white"/>
</mask>
<g mask="url(#mask70_47_13849)">
<mask id="mask71_47_13849" style="mask-type:luminance" maskUnits="userSpaceOnUse" x="190" y="94" width="26" height="26">
<path d="M202.75 94.599C195.792 94.599 190.146 100.245 190.146 107.203C190.146 114.167 195.792 119.807 202.75 119.807C209.714 119.807 215.354 114.167 215.354 107.203C215.354 100.245 209.714 94.599 202.75 94.599Z" fill="white"/>
</mask>
<g mask="url(#mask71_47_13849)">
<path d="M190.146 94.599H215.354V119.807H190.146V94.599Z" fill="white"/>
</g>
</g>
<mask id="mask72_47_13849" style="mask-type:luminance" maskUnits="userSpaceOnUse" x="82" y="119" width="27" height="26">
<path d="M82.6927 119.458H108.229V144.995H82.6927V119.458Z" fill="white"/>
</mask>
<g mask="url(#mask72_47_13849)">
<mask id="mask73_47_13849" style="mask-type:luminance" maskUnits="userSpaceOnUse" x="82" y="119" width="27" height="26">
<path d="M95.4636 119.458C88.4115 119.458 82.6927 125.172 82.6927 132.224C82.6927 139.276 88.4115 144.995 95.4636 144.995C102.516 144.995 108.229 139.276 108.229 132.224C108.229 125.172 102.516 119.458 95.4636 119.458Z" fill="white"/>
</mask>
<g mask="url(#mask73_47_13849)">
<path d="M82.6927 119.458H108.229V144.995H82.6927V119.458Z" fill="white"/>
</g>
</g>
<mask id="mask74_47_13849" style="mask-type:luminance" maskUnits="userSpaceOnUse" x="169" y="119" width="26" height="27">
<path d="M169.714 119.807H194.922V145.016H169.714V119.807Z" fill="white"/>
</mask>
<g mask="url(#mask74_47_13849)">
<mask id="mask75_47_13849" style="mask-type:luminance" maskUnits="userSpaceOnUse" x="169" y="119" width="26" height="27">
<path d="M182.318 119.807C175.359 119.807 169.714 125.448 169.714 132.411C169.714 139.37 175.359 145.016 182.318 145.016C189.281 145.016 194.922 139.37 194.922 132.411C194.922 125.448 189.281 119.807 182.318 119.807Z" fill="white"/>
</mask>
<g mask="url(#mask75_47_13849)">
<path d="M169.714 119.807H194.922V145.016H169.714V119.807Z" fill="white"/>
</g>
</g>
<mask id="mask76_47_13849" style="mask-type:luminance" maskUnits="userSpaceOnUse" x="219" y="11" width="98" height="93">
<path d="M219.333 11.3334H316.667V103.333H219.333V11.3334Z" fill="white"/>
</mask>
<g mask="url(#mask76_47_13849)">
<mask id="mask77_47_13849" style="mask-type:luminance" maskUnits="userSpaceOnUse" x="202" y="-2" width="126" height="117">
<path d="M222.927 -1.276L327.505 21.3646L307.401 114.214L202.828 91.573L222.927 -1.276Z" fill="white"/>
</mask>
<g mask="url(#mask77_47_13849)">
<mask id="mask78_47_13849" style="mask-type:luminance" maskUnits="userSpaceOnUse" x="202" y="-2" width="126" height="117">
<path d="M222.927 -1.276L327.505 21.3646L307.401 114.214L202.828 91.573L222.927 -1.276Z" fill="white"/>
</mask>
<g mask="url(#mask78_47_13849)">
<mask id="mask79_47_13849" style="mask-type:luminance" maskUnits="userSpaceOnUse" x="202" y="-2" width="126" height="117">
<path d="M222.927 -1.276L327.505 21.3646L307.401 114.214L202.828 91.573L222.927 -1.276Z" fill="white"/>
</mask>
<g mask="url(#mask79_47_13849)">
<path d="M316.547 48.5053C317.141 19.7397 283.526 11.9792 269.625 35.9792C266.896 8.38028 233.078 1.54174 221.729 27.9792C211.427 51.9636 255.161 102.787 255.161 102.787C255.161 102.787 316.005 74.6042 316.547 48.5053Z" fill="#C6302C"/>
</g>
</g>
</g>
</g>
<mask id="mask80_47_13849" style="mask-type:luminance" maskUnits="userSpaceOnUse" x="2" y="71" width="55" height="55">
<path d="M2 71.3334H56.6667V126H2V71.3334Z" fill="white"/>
</mask>
<g mask="url(#mask80_47_13849)">
<mask id="mask81_47_13849" style="mask-type:luminance" maskUnits="userSpaceOnUse" x="-8" y="62" width="82" height="79">
<path d="M-7.58337 92.5261L46.7135 62.599L73.2656 110.766L18.9687 140.693L-7.58337 92.5261Z" fill="white"/>
</mask>
<g mask="url(#mask81_47_13849)">
<mask id="mask82_47_13849" style="mask-type:luminance" maskUnits="userSpaceOnUse" x="-8" y="62" width="82" height="79">
<path d="M-7.58337 92.5261L46.7135 62.599L73.2656 110.766L18.9687 140.693L-7.58337 92.5261Z" fill="white"/>
</mask>
<g mask="url(#mask82_47_13849)">
<mask id="mask83_47_13849" style="mask-type:luminance" maskUnits="userSpaceOnUse" x="-8" y="62" width="82" height="79">
<path d="M-7.58337 92.5261L46.7135 62.599L73.2656 110.766L18.9687 140.693L-7.58337 92.5261Z" fill="white"/>
</mask>
<g mask="url(#mask83_47_13849)">
<path d="M52.2552 78.6094C41.5677 65.8281 23.9271 75.2396 26.9948 91.0052C15.2969 80 -2.07812 89.8854 3.02604 105.75C7.65104 120.135 46.099 125.672 46.099 125.672C46.099 125.672 61.9479 90.2083 52.2552 78.6094Z" fill="#C6302C"/>
</g>
</g>
</g>
</g>
</svg>
