<svg width="308" height="336" viewBox="0 0 308 336" fill="none" xmlns="http://www.w3.org/2000/svg">
<mask id="mask0_47_13841" style="mask-type:luminance" maskUnits="userSpaceOnUse" x="191" y="140" width="109" height="92">
<path d="M191.333 140H299.333V232H191.333V140Z" fill="white"/>
</mask>
<g mask="url(#mask0_47_13841)">
<mask id="mask1_47_13841" style="mask-type:luminance" maskUnits="userSpaceOnUse" x="183" y="131" width="125" height="109">
<path d="M183.031 206.708L283 131.667L307.615 164.458L207.646 239.5L183.031 206.708Z" fill="white"/>
</mask>
<g mask="url(#mask1_47_13841)">
<mask id="mask2_47_13841" style="mask-type:luminance" maskUnits="userSpaceOnUse" x="183" y="131" width="125" height="109">
<path d="M283.036 131.641L183.068 206.682L207.682 239.469L307.651 164.427L283.036 131.641Z" fill="white"/>
</mask>
<g mask="url(#mask2_47_13841)">
<path d="M224.016 227.083L291.161 176.682C300.146 169.937 301.963 157.182 295.219 148.198C288.474 139.214 275.719 137.396 266.734 144.141L199.588 194.542C190.604 201.286 188.786 214.042 195.531 223.026C202.276 232.01 215.031 233.828 224.016 227.083Z" fill="#604428"/>
</g>
</g>
</g>
<mask id="mask3_47_13841" style="mask-type:luminance" maskUnits="userSpaceOnUse" x="190" y="138" width="111" height="94">
<path d="M190 138.667H300.667V232H190V138.667Z" fill="white"/>
</mask>
<g mask="url(#mask3_47_13841)">
<mask id="mask4_47_13841" style="mask-type:luminance" maskUnits="userSpaceOnUse" x="183" y="131" width="125" height="109">
<path d="M183.031 206.708L283 131.667L307.615 164.458L207.646 239.5L183.031 206.708Z" fill="white"/>
</mask>
<g mask="url(#mask4_47_13841)">
<mask id="mask5_47_13841" style="mask-type:luminance" maskUnits="userSpaceOnUse" x="183" y="131" width="125" height="109">
<path d="M283.036 131.641L183.068 206.682L207.682 239.469L307.651 164.427L283.036 131.641Z" fill="white"/>
</mask>
<g mask="url(#mask5_47_13841)">
<path d="M224.135 227.245L291.281 176.839C300.344 170.036 302.182 157.141 295.38 148.078C288.573 139.016 275.677 137.177 266.614 143.979L199.469 194.385C190.406 201.188 188.568 214.083 195.37 223.146C202.177 232.214 215.068 234.047 224.135 227.245ZM266.854 144.297C275.745 137.625 288.385 139.427 295.062 148.318C301.734 157.203 299.932 169.849 291.041 176.521L223.896 226.927C215.005 233.599 202.364 231.797 195.687 222.911C189.015 214.021 190.818 201.375 199.708 194.703L266.854 144.297Z" fill="#604428"/>
</g>
</g>
</g>
<mask id="mask6_47_13841" style="mask-type:luminance" maskUnits="userSpaceOnUse" x="172" y="93" width="130" height="111">
<path d="M172.667 93.3334H302V204H172.667V93.3334Z" fill="white"/>
</mask>
<g mask="url(#mask6_47_13841)">
<mask id="mask7_47_13841" style="mask-type:luminance" maskUnits="userSpaceOnUse" x="163" y="84" width="149" height="129">
<path d="M163.078 173.771L282.24 84.3177L311.656 123.51L192.495 212.958L163.078 173.771Z" fill="white"/>
</mask>
<g mask="url(#mask7_47_13841)">
<mask id="mask8_47_13841" style="mask-type:luminance" maskUnits="userSpaceOnUse" x="162" y="84" width="150" height="130">
<path d="M281.927 84.5573L162.766 174.005L192.182 213.193L311.344 123.745L281.927 84.5573Z" fill="white"/>
</mask>
<g mask="url(#mask8_47_13841)">
<path d="M211.776 197.979L291.578 138.078C302.255 130.063 304.417 114.906 296.401 104.229C288.385 93.5521 273.224 91.3906 262.547 99.4063L182.75 159.307C172.068 167.323 169.911 182.484 177.927 193.161C185.943 203.839 201.099 205.995 211.776 197.979Z" fill="#604428"/>
<path d="M211.922 198.172L291.719 138.271C302.489 130.182 304.672 114.859 296.588 104.089C288.5 93.3125 273.177 91.1303 262.406 99.2188L182.604 159.12C171.833 167.203 169.651 182.531 177.739 193.302C185.823 204.073 201.146 206.255 211.922 198.172ZM262.687 99.5938C273.255 91.6667 288.281 93.8073 296.208 104.37C304.141 114.932 302 129.958 291.437 137.891L211.635 197.792C201.073 205.724 186.047 203.583 178.114 193.016C170.182 182.453 172.323 167.427 182.891 159.495L262.687 99.5938Z" fill="#604428"/>
</g>
</g>
</g>
<mask id="mask9_47_13841" style="mask-type:luminance" maskUnits="userSpaceOnUse" x="178" y="50" width="130" height="110">
<path d="M178 50.6667H307.333V160H178V50.6667Z" fill="white"/>
</mask>
<g mask="url(#mask9_47_13841)">
<mask id="mask10_47_13841" style="mask-type:luminance" maskUnits="userSpaceOnUse" x="168" y="41" width="149" height="129">
<path d="M168.344 130.589L287.51 41.1354L316.927 80.3229L197.76 169.776L168.344 130.589Z" fill="white"/>
</mask>
<g mask="url(#mask10_47_13841)">
<mask id="mask11_47_13841" style="mask-type:luminance" maskUnits="userSpaceOnUse" x="168" y="41" width="149" height="130">
<path d="M287.198 41.3698L168.031 130.823L197.448 170.01L316.615 80.5573L287.198 41.3698Z" fill="white"/>
</mask>
<g mask="url(#mask11_47_13841)">
<path d="M217.047 154.797L296.849 94.8958C307.526 86.8802 309.682 71.724 301.667 61.0469C293.656 50.3646 278.495 48.2083 267.818 56.224L188.015 116.125C177.338 124.141 175.182 139.297 183.198 149.979C191.213 160.656 206.37 162.813 217.047 154.797Z" fill="#604428"/>
<path d="M217.187 154.99L296.99 95.0834C307.76 87 309.943 71.6771 301.859 60.9011C293.771 50.1302 278.448 47.9479 267.677 56.0365L187.875 115.938C177.104 124.021 174.922 139.349 183.005 150.12C191.094 160.891 206.417 163.073 217.187 154.99ZM267.958 56.4115C278.521 48.4792 293.552 50.6198 301.479 61.1875C309.411 71.75 307.271 86.7761 296.703 94.7084L216.906 154.609C206.344 162.542 191.312 160.401 183.385 149.833C175.453 139.271 177.594 124.245 188.161 116.313L267.958 56.4115Z" fill="#604428"/>
</g>
</g>
</g>
<mask id="mask12_47_13841" style="mask-type:luminance" maskUnits="userSpaceOnUse" x="180" y="246" width="38" height="53">
<path d="M180.667 246.667H218V298.667H180.667V246.667Z" fill="white"/>
</mask>
<g mask="url(#mask12_47_13841)">
<mask id="mask13_47_13841" style="mask-type:luminance" maskUnits="userSpaceOnUse" x="179" y="246" width="41" height="54">
<path d="M212.479 299.208L179.062 250.583L185.656 246.052L219.073 294.677L212.479 299.208Z" fill="white"/>
</mask>
<g mask="url(#mask13_47_13841)">
<mask id="mask14_47_13841" style="mask-type:luminance" maskUnits="userSpaceOnUse" x="179" y="246" width="41" height="54">
<path d="M212.479 299.208L179.062 250.583L185.656 246.052L219.073 294.677L212.479 299.208Z" fill="white"/>
</mask>
<g mask="url(#mask14_47_13841)">
<path d="M181.516 254.125L183.911 257.609L183.922 257.604L207.708 292.219L207.698 292.224L210.094 295.714C211.417 297.635 214.057 298.125 215.979 296.802C217.901 295.479 218.391 292.844 217.068 290.922L188.49 249.333C187.172 247.406 184.542 246.911 182.62 248.234C180.698 249.557 180.198 252.203 181.516 254.125Z" fill="#FCD590"/>
</g>
</g>
</g>
<mask id="mask15_47_13841" style="mask-type:luminance" maskUnits="userSpaceOnUse" x="203" y="280" width="11" height="16">
<path d="M203.333 280H214V296H203.333V280Z" fill="white"/>
</mask>
<g mask="url(#mask15_47_13841)">
<mask id="mask16_47_13841" style="mask-type:luminance" maskUnits="userSpaceOnUse" x="179" y="246" width="41" height="54">
<path d="M212.479 299.208L179.062 250.583L185.656 246.052L219.073 294.677L212.479 299.208Z" fill="white"/>
</mask>
<g mask="url(#mask16_47_13841)">
<mask id="mask17_47_13841" style="mask-type:luminance" maskUnits="userSpaceOnUse" x="179" y="246" width="41" height="54">
<path d="M212.479 299.208L179.062 250.583L185.656 246.052L219.073 294.677L212.479 299.208Z" fill="white"/>
</mask>
<g mask="url(#mask17_47_13841)">
<path d="M203.526 282.427L211.833 294.516C212.167 295.005 212.823 295.125 213.307 294.792C213.797 294.458 213.917 293.802 213.583 293.318L211.188 289.828L211.177 289.839L205.271 281.24C204.938 280.755 204.281 280.636 203.797 280.969C203.313 281.302 203.198 281.948 203.526 282.427Z" fill="#FCD590"/>
</g>
</g>
</g>
<mask id="mask18_47_13841" style="mask-type:luminance" maskUnits="userSpaceOnUse" x="94" y="266" width="42" height="51">
<path d="M94 266.667H135.333V316H94V266.667Z" fill="white"/>
</mask>
<g mask="url(#mask18_47_13841)">
<mask id="mask19_47_13841" style="mask-type:luminance" maskUnits="userSpaceOnUse" x="93" y="266" width="43" height="52">
<path d="M93.0574 312.271L129.662 266L135.938 270.964L99.3334 317.234L93.0574 312.271Z" fill="white"/>
</mask>
<g mask="url(#mask19_47_13841)">
<mask id="mask20_47_13841" style="mask-type:luminance" maskUnits="userSpaceOnUse" x="93" y="266" width="43" height="52">
<path d="M93.0574 312.271L129.662 266L135.938 270.964L99.3334 317.234L93.0574 312.271Z" fill="white"/>
</mask>
<g mask="url(#mask20_47_13841)">
<path d="M127.005 269.391L124.38 272.708L124.385 272.714L98.3282 305.651L98.323 305.646L95.698 308.964C94.2501 310.792 94.5574 313.458 96.3907 314.906C98.2188 316.354 100.885 316.042 102.333 314.214L133.641 274.641C135.089 272.807 134.787 270.151 132.953 268.703C131.125 267.255 128.453 267.557 127.005 269.391Z" fill="#FCD590"/>
</g>
</g>
</g>
<mask id="mask21_47_13841" style="mask-type:luminance" maskUnits="userSpaceOnUse" x="96" y="297" width="13" height="15">
<path d="M96.6667 297.333H108.667V312H96.6667V297.333Z" fill="white"/>
</mask>
<g mask="url(#mask21_47_13841)">
<mask id="mask22_47_13841" style="mask-type:luminance" maskUnits="userSpaceOnUse" x="93" y="266" width="43" height="52">
<path d="M93.0574 312.271L129.662 266L135.938 270.964L99.3334 317.234L93.0574 312.271Z" fill="white"/>
</mask>
<g mask="url(#mask22_47_13841)">
<mask id="mask23_47_13841" style="mask-type:luminance" maskUnits="userSpaceOnUse" x="93" y="266" width="43" height="52">
<path d="M93.0574 312.271L129.662 266L135.938 270.964L99.3334 317.234L93.0574 312.271Z" fill="white"/>
</mask>
<g mask="url(#mask23_47_13841)">
<path d="M106.453 298.766L97.349 310.271C96.9844 310.734 97.0625 311.396 97.5261 311.76C97.9844 312.125 98.6459 312.052 99.0156 311.589L101.641 308.271L101.63 308.26L108.099 300.083C108.464 299.62 108.391 298.958 107.927 298.594C107.464 298.229 106.813 298.312 106.453 298.766Z" fill="#FCD590"/>
</g>
</g>
</g>
<mask id="mask24_47_13841" style="mask-type:luminance" maskUnits="userSpaceOnUse" x="86" y="282" width="15" height="55">
<path d="M86 282.667H100.667V336H86V282.667Z" fill="white"/>
</mask>
<g mask="url(#mask24_47_13841)">
<mask id="mask25_47_13841" style="mask-type:luminance" maskUnits="userSpaceOnUse" x="85" y="282" width="17" height="54">
<path d="M93.2083 335.922L85.6875 283.458L93.6042 282.323L101.13 334.787L93.2083 335.922Z" fill="white"/>
</mask>
<g mask="url(#mask25_47_13841)">
<mask id="mask26_47_13841" style="mask-type:luminance" maskUnits="userSpaceOnUse" x="85" y="282" width="17" height="54">
<path d="M93.2083 335.922L85.6875 283.458L93.6042 282.323L101.13 334.787L93.2083 335.922Z" fill="white"/>
</mask>
<g mask="url(#mask26_47_13841)">
<path d="M86.2553 287.339L86.797 291.099H86.8074L92.1563 328.406H92.1459L92.6824 332.161C92.9792 334.234 94.9063 335.682 96.9792 335.385C99.0522 335.083 100.495 333.156 100.198 331.089L93.7709 286.26C93.474 284.187 91.5574 282.745 89.4845 283.042C87.4115 283.339 85.9584 285.266 86.2553 287.339Z" fill="#FCD590"/>
</g>
</g>
</g>
<mask id="mask27_47_13841" style="mask-type:luminance" maskUnits="userSpaceOnUse" x="92" y="317" width="5" height="17">
<path d="M92.6667 317.333H96.6667V333.333H92.6667V317.333Z" fill="white"/>
</mask>
<g mask="url(#mask27_47_13841)">
<mask id="mask28_47_13841" style="mask-type:luminance" maskUnits="userSpaceOnUse" x="85" y="282" width="17" height="54">
<path d="M93.2083 335.922L85.6875 283.458L93.6042 282.323L101.13 334.787L93.2083 335.922Z" fill="white"/>
</mask>
<g mask="url(#mask28_47_13841)">
<mask id="mask29_47_13841" style="mask-type:luminance" maskUnits="userSpaceOnUse" x="85" y="282" width="17" height="54">
<path d="M93.2083 335.922L85.6875 283.458L93.6042 282.323L101.13 334.787L93.2083 335.922Z" fill="white"/>
</mask>
<g mask="url(#mask29_47_13841)">
<path d="M92.6876 318.865L94.5574 331.896C94.6355 332.417 95.1095 332.776 95.6355 332.703C96.1563 332.625 96.5157 332.146 96.4428 331.625L95.9011 327.865L95.8907 327.87L94.5626 318.604C94.4897 318.083 94.0105 317.724 93.4845 317.797C92.9636 317.87 92.6147 318.349 92.6876 318.865Z" fill="#FCD590"/>
</g>
</g>
</g>
<mask id="mask30_47_13841" style="mask-type:luminance" maskUnits="userSpaceOnUse" x="66" y="297" width="51" height="29">
<path d="M66 297.333H116.667V325.333H66V297.333Z" fill="white"/>
</mask>
<g mask="url(#mask30_47_13841)">
<mask id="mask31_47_13841" style="mask-type:luminance" maskUnits="userSpaceOnUse" x="65" y="296" width="52" height="31">
<path d="M113.422 326.615L65.7395 303.469L69.2343 296.271L116.911 319.417L113.422 326.615Z" fill="white"/>
</mask>
<g mask="url(#mask31_47_13841)">
<mask id="mask32_47_13841" style="mask-type:luminance" maskUnits="userSpaceOnUse" x="65" y="296" width="52" height="31">
<path d="M113.422 326.615L65.7395 303.469L69.2343 296.271L116.911 319.417L113.422 326.615Z" fill="white"/>
</mask>
<g mask="url(#mask32_47_13841)">
<path d="M69.2761 305.172L72.6875 306.828L72.6927 306.818L106.599 323.276L106.594 323.287L110.01 324.943C111.896 325.859 114.172 325.073 115.083 323.188C116 321.302 115.208 319.026 113.328 318.115L72.5886 298.339C70.7083 297.427 68.4375 298.203 67.5208 300.089C66.6094 301.974 67.3906 304.255 69.2761 305.172Z" fill="#FCD590"/>
</g>
</g>
</g>
<mask id="mask33_47_13841" style="mask-type:luminance" maskUnits="userSpaceOnUse" x="98" y="314" width="15" height="11">
<path d="M98 314.667H112.667V324H98V314.667Z" fill="white"/>
</mask>
<g mask="url(#mask33_47_13841)">
<mask id="mask34_47_13841" style="mask-type:luminance" maskUnits="userSpaceOnUse" x="65" y="296" width="52" height="31">
<path d="M113.422 326.615L65.7395 303.469L69.2343 296.271L116.911 319.417L113.422 326.615Z" fill="white"/>
</mask>
<g mask="url(#mask34_47_13841)">
<mask id="mask35_47_13841" style="mask-type:luminance" maskUnits="userSpaceOnUse" x="65" y="296" width="52" height="31">
<path d="M113.422 326.615L65.7395 303.469L69.2343 296.271L116.911 319.417L113.422 326.615Z" fill="white"/>
</mask>
<g mask="url(#mask35_47_13841)">
<path d="M98.9947 317.495L110.838 323.24C111.312 323.474 111.88 323.276 112.109 322.802C112.338 322.328 112.146 321.76 111.667 321.531L108.255 319.87L108.25 319.88L99.828 315.792C99.354 315.562 98.7863 315.76 98.5572 316.234C98.328 316.708 98.5259 317.266 98.9947 317.495Z" fill="#FCD590"/>
</g>
</g>
</g>
<mask id="mask36_47_13841" style="mask-type:luminance" maskUnits="userSpaceOnUse" x="194" y="288" width="54" height="16">
<path d="M194 288H247.333V304H194V288Z" fill="white"/>
</mask>
<g mask="url(#mask36_47_13841)">
<mask id="mask37_47_13841" style="mask-type:luminance" maskUnits="userSpaceOnUse" x="193" y="287" width="55" height="18">
<path d="M194.974 287.995L247.318 296.281L246.068 304.182L193.719 295.896L194.974 287.995Z" fill="white"/>
</mask>
<g mask="url(#mask37_47_13841)">
<mask id="mask38_47_13841" style="mask-type:luminance" maskUnits="userSpaceOnUse" x="193" y="287" width="55" height="18">
<path d="M247.198 296.266L194.849 287.974L193.599 295.875L245.948 304.167L247.198 296.266Z" fill="white"/>
</mask>
<g mask="url(#mask38_47_13841)">
<path d="M198.719 288.604L202.469 289.198V289.208L239.693 295.099V295.089L243.443 295.682C245.51 296.01 246.927 297.958 246.599 300.026C246.271 302.094 244.323 303.51 242.255 303.182L197.531 296.104C195.463 295.776 194.047 293.839 194.375 291.771C194.703 289.703 196.651 288.276 198.719 288.604Z" fill="#FCD590"/>
</g>
</g>
</g>
<mask id="mask39_47_13841" style="mask-type:luminance" maskUnits="userSpaceOnUse" x="228" y="294" width="17" height="7">
<path d="M228.667 294.667H244.667V300H228.667V294.667Z" fill="white"/>
</mask>
<g mask="url(#mask39_47_13841)">
<mask id="mask40_47_13841" style="mask-type:luminance" maskUnits="userSpaceOnUse" x="193" y="287" width="55" height="18">
<path d="M194.974 287.995L247.318 296.281L246.068 304.182L193.719 295.896L194.974 287.995Z" fill="white"/>
</mask>
<g mask="url(#mask40_47_13841)">
<mask id="mask41_47_13841" style="mask-type:luminance" maskUnits="userSpaceOnUse" x="193" y="287" width="55" height="18">
<path d="M247.198 296.266L194.849 287.974L193.599 295.875L245.948 304.167L247.198 296.266Z" fill="white"/>
</mask>
<g mask="url(#mask41_47_13841)">
<path d="M230.146 295.495L243.151 297.552C243.672 297.635 244.021 298.12 243.937 298.641C243.859 299.162 243.375 299.516 242.849 299.432L239.099 298.839L239.104 298.828L229.859 297.365C229.338 297.281 228.984 296.797 229.068 296.276C229.151 295.755 229.635 295.412 230.146 295.495Z" fill="#FCD590"/>
</g>
</g>
</g>
<mask id="mask42_47_13841" style="mask-type:luminance" maskUnits="userSpaceOnUse" x="199" y="272" width="39" height="43">
<path d="M199.333 272H238V314.667H199.333V272Z" fill="white"/>
</mask>
<g mask="url(#mask42_47_13841)">
<mask id="mask43_47_13841" style="mask-type:luminance" maskUnits="userSpaceOnUse" x="197" y="271" width="43" height="45">
<path d="M197.906 310.052L234.083 271.323L239.932 276.781L203.75 315.516L197.906 310.052Z" fill="white"/>
</mask>
<g mask="url(#mask43_47_13841)">
<mask id="mask44_47_13841" style="mask-type:luminance" maskUnits="userSpaceOnUse" x="197" y="271" width="43" height="45">
<path d="M234 271.411L197.818 310.146L203.667 315.604L239.844 276.875L234 271.411Z" fill="white"/>
</mask>
<g mask="url(#mask44_47_13841)">
<path d="M200.505 307.287L203.099 304.51L203.104 304.521L228.833 276.979L228.828 276.969L231.416 274.198C232.849 272.667 235.255 272.583 236.781 274.016C238.312 275.443 238.396 277.849 236.963 279.38L206.057 312.469C204.625 314 202.229 314.089 200.698 312.662C199.166 311.229 199.078 308.818 200.505 307.287Z" fill="#FCD590"/>
</g>
</g>
</g>
<mask id="mask45_47_13841" style="mask-type:luminance" maskUnits="userSpaceOnUse" x="223" y="274" width="13" height="15">
<path d="M223.333 274.667H235.333V288H223.333V274.667Z" fill="white"/>
</mask>
<g mask="url(#mask45_47_13841)">
<mask id="mask46_47_13841" style="mask-type:luminance" maskUnits="userSpaceOnUse" x="197" y="271" width="43" height="45">
<path d="M197.906 310.052L234.083 271.323L239.932 276.781L203.75 315.516L197.906 310.052Z" fill="white"/>
</mask>
<g mask="url(#mask46_47_13841)">
<mask id="mask47_47_13841" style="mask-type:luminance" maskUnits="userSpaceOnUse" x="197" y="271" width="43" height="45">
<path d="M234 271.411L197.818 310.146L203.667 315.604L239.844 276.875L234 271.411Z" fill="white"/>
</mask>
<g mask="url(#mask47_47_13841)">
<path d="M223.813 285.109L232.802 275.49C233.161 275.104 233.76 275.083 234.146 275.443C234.531 275.802 234.552 276.401 234.193 276.786L231.599 279.563L231.594 279.557L225.203 286.396C224.844 286.781 224.245 286.802 223.859 286.443C223.474 286.078 223.458 285.49 223.813 285.109Z" fill="#FCD590"/>
</g>
</g>
</g>
<mask id="mask48_47_13841" style="mask-type:luminance" maskUnits="userSpaceOnUse" x="86" y="0" width="59" height="59">
<path d="M86 0H144.667V58.6667H86V0Z" fill="white"/>
</mask>
<g mask="url(#mask48_47_13841)">
<mask id="mask49_47_13841" style="mask-type:luminance" maskUnits="userSpaceOnUse" x="76" y="-10" width="85" height="85">
<path d="M160.375 41.5208L127.849 74.0469L76.9375 23.1354L109.464 -9.39062L160.375 41.5208Z" fill="white"/>
</mask>
<g mask="url(#mask49_47_13841)">
<mask id="mask50_47_13841" style="mask-type:luminance" maskUnits="userSpaceOnUse" x="76" y="-10" width="85" height="85">
<path d="M160.375 41.5208L127.849 74.0469L76.9375 23.1354L109.464 -9.39062L160.375 41.5208Z" fill="white"/>
</mask>
<g mask="url(#mask50_47_13841)">
<path d="M112.396 49.1875L144.162 57.7344L135.62 25.9636C134.542 21.5469 130.797 11.9531 127.266 8.4271C117.62 -1.22394 102.547 -1.78644 93.5938 7.16668C84.6407 16.1198 85.2032 31.1927 94.8542 40.8438C98.3803 44.3698 107.979 48.1094 112.396 49.1875Z" fill="#442F19"/>
</g>
</g>
</g>
<mask id="mask51_47_13841" style="mask-type:luminance" maskUnits="userSpaceOnUse" x="150" y="0" width="58" height="59">
<path d="M150 0H207.333V58.6667H150V0Z" fill="white"/>
</mask>
<g mask="url(#mask51_47_13841)">
<mask id="mask52_47_13841" style="mask-type:luminance" maskUnits="userSpaceOnUse" x="133" y="-10" width="85" height="84">
<path d="M166.333 73.9479L133.802 41.4219L184.713 -9.48956L217.245 23.0365L166.333 73.9479Z" fill="white"/>
</mask>
<g mask="url(#mask52_47_13841)">
<mask id="mask53_47_13841" style="mask-type:luminance" maskUnits="userSpaceOnUse" x="133" y="-10" width="85" height="85">
<path d="M133.901 41.5208L166.432 74.0469L217.344 23.1354L184.818 -9.39062L133.901 41.5208Z" fill="white"/>
</mask>
<g mask="url(#mask53_47_13841)">
<path d="M181.885 49.1875L150.115 57.7344L158.661 25.9636C159.74 21.5469 163.484 11.9531 167.01 8.4271C176.661 -1.22394 191.734 -1.78644 200.682 7.16668C209.635 16.1198 209.078 31.1927 199.427 40.8438C195.901 44.3698 186.302 48.1094 181.885 49.1875Z" fill="#442F19"/>
</g>
</g>
</g>
<mask id="mask54_47_13841" style="mask-type:luminance" maskUnits="userSpaceOnUse" x="59" y="110" width="178" height="178">
<path d="M59.2761 110.896H236.276V287.896H59.2761V110.896Z" fill="white"/>
</mask>
<g mask="url(#mask54_47_13841)">
<path d="M235.917 199.219C235.917 200.661 235.885 202.109 235.813 203.552C235.74 204.995 235.635 206.438 235.495 207.875C235.354 209.313 235.177 210.75 234.964 212.177C234.75 213.609 234.505 215.031 234.224 216.448C233.938 217.865 233.625 219.276 233.271 220.677C232.922 222.078 232.537 223.474 232.115 224.854C231.698 226.24 231.245 227.609 230.755 228.974C230.271 230.333 229.75 231.682 229.198 233.016C228.641 234.354 228.057 235.672 227.438 236.979C226.823 238.287 226.172 239.578 225.49 240.854C224.807 242.125 224.099 243.385 223.354 244.625C222.609 245.865 221.839 247.083 221.037 248.286C220.229 249.49 219.401 250.672 218.537 251.828C217.677 252.99 216.787 254.13 215.87 255.25C214.953 256.365 214.01 257.458 213.042 258.531C212.068 259.599 211.073 260.646 210.052 261.672C209.026 262.693 207.984 263.688 206.912 264.661C205.839 265.63 204.745 266.573 203.63 267.49C202.51 268.406 201.37 269.297 200.208 270.156C199.052 271.021 197.87 271.849 196.667 272.656C195.464 273.458 194.245 274.229 193.005 274.974C191.766 275.719 190.505 276.427 189.234 277.109C187.958 277.792 186.667 278.443 185.359 279.057C184.052 279.677 182.734 280.26 181.396 280.818C180.063 281.37 178.714 281.891 177.354 282.375C175.99 282.865 174.62 283.318 173.234 283.734C171.854 284.156 170.458 284.542 169.057 284.891C167.656 285.245 166.245 285.557 164.828 285.844C163.412 286.125 161.99 286.37 160.557 286.583C159.13 286.797 157.693 286.974 156.255 287.115C154.818 287.255 153.375 287.359 151.932 287.432C150.49 287.505 149.042 287.536 147.599 287.536C146.151 287.536 144.708 287.505 143.266 287.432C141.823 287.359 140.38 287.255 138.943 287.115C137.505 286.974 136.068 286.797 134.641 286.583C133.208 286.37 131.787 286.125 130.37 285.844C128.948 285.557 127.542 285.245 126.141 284.891C124.734 284.542 123.344 284.156 121.958 283.734C120.578 283.318 119.203 282.865 117.844 282.375C116.484 281.891 115.135 281.37 113.802 280.818C112.464 280.26 111.146 279.677 109.839 279.057C108.531 278.443 107.24 277.792 105.964 277.109C104.688 276.427 103.432 275.719 102.193 274.974C100.953 274.229 99.7345 273.458 98.5313 272.656C97.3282 271.849 96.1459 271.021 94.9845 270.156C93.823 269.297 92.6876 268.406 91.5678 267.49C90.4532 266.573 89.3595 265.63 88.2865 264.661C87.2136 263.688 86.1667 262.693 85.1459 261.672C84.1251 260.646 83.1303 259.599 82.1563 258.531C81.1876 257.458 80.2449 256.365 79.3282 255.25C78.4115 254.13 77.5209 252.99 76.6615 251.828C75.797 250.672 74.9636 249.49 74.1615 248.286C73.3595 247.083 72.5886 245.865 71.8438 244.625C71.099 243.385 70.3907 242.125 69.7084 240.854C69.0261 239.578 68.3751 238.287 67.7605 236.979C67.1407 235.672 66.5522 234.354 66.0001 233.016C65.448 231.682 64.9272 230.333 64.4428 228.974C63.9532 227.609 63.5001 226.24 63.0834 224.854C62.6615 223.474 62.2761 222.078 61.9272 220.677C61.573 219.276 61.2553 217.865 60.974 216.448C60.6928 215.031 60.448 213.609 60.2345 212.177C60.0209 210.75 59.8438 209.313 59.7032 207.875C59.5626 206.438 59.4532 204.995 59.3855 203.552C59.3126 202.109 59.2761 200.661 59.2761 199.219C59.2761 197.771 59.3126 196.328 59.3855 194.885C59.4532 193.443 59.5626 192 59.7032 190.563C59.8438 189.125 60.0209 187.688 60.2345 186.26C60.448 184.828 60.6928 183.406 60.974 181.99C61.2553 180.568 61.573 179.161 61.9272 177.76C62.2761 176.354 62.6615 174.964 63.0834 173.578C63.5001 172.198 63.9532 170.823 64.4428 169.464C64.9272 168.104 65.448 166.755 66.0001 165.422C66.5522 164.083 67.1407 162.766 67.7605 161.458C68.3751 160.151 69.0261 158.859 69.7084 157.583C70.3907 156.307 71.099 155.052 71.8438 153.813C72.5886 152.573 73.3595 151.354 74.1615 150.151C74.9636 148.948 75.797 147.766 76.6615 146.604C77.5209 145.443 78.4115 144.307 79.3282 143.188C80.2449 142.073 81.1876 140.979 82.1563 139.906C83.1303 138.833 84.1251 137.786 85.1459 136.766C86.1667 135.745 87.2136 134.75 88.2865 133.776C89.3595 132.807 90.4532 131.865 91.5678 130.948C92.6876 130.031 93.823 129.141 94.9845 128.281C96.1459 127.417 97.3282 126.583 98.5313 125.781C99.7345 124.979 100.953 124.208 102.193 123.464C103.432 122.719 104.688 122.01 105.964 121.328C107.24 120.646 108.531 119.995 109.839 119.38C111.146 118.76 112.464 118.172 113.802 117.62C115.135 117.068 116.484 116.547 117.844 116.063C119.203 115.573 120.578 115.12 121.958 114.703C123.344 114.281 124.734 113.896 126.141 113.547C127.542 113.193 128.948 112.875 130.37 112.594C131.787 112.313 133.208 112.068 134.641 111.854C136.068 111.641 137.505 111.464 138.943 111.323C140.38 111.182 141.823 111.073 143.266 111.005C144.708 110.932 146.151 110.896 147.599 110.896C149.042 110.896 150.49 110.932 151.932 111.005C153.375 111.073 154.818 111.182 156.255 111.323C157.693 111.464 159.13 111.641 160.557 111.854C161.99 112.068 163.412 112.313 164.828 112.594C166.245 112.875 167.656 113.193 169.057 113.547C170.458 113.896 171.854 114.281 173.234 114.703C174.62 115.12 175.99 115.573 177.354 116.063C178.714 116.547 180.063 117.068 181.396 117.62C182.734 118.172 184.052 118.76 185.359 119.38C186.667 119.995 187.958 120.646 189.234 121.328C190.505 122.01 191.766 122.719 193.005 123.464C194.245 124.208 195.464 124.979 196.667 125.781C197.87 126.583 199.052 127.417 200.208 128.281C201.37 129.141 202.51 130.031 203.63 130.948C204.745 131.865 205.839 132.807 206.912 133.776C207.984 134.75 209.026 135.745 210.052 136.766C211.073 137.786 212.068 138.833 213.042 139.906C214.01 140.979 214.953 142.073 215.87 143.188C216.787 144.307 217.677 145.443 218.537 146.604C219.401 147.766 220.229 148.948 221.037 150.151C221.839 151.354 222.609 152.573 223.354 153.813C224.099 155.052 224.807 156.307 225.49 157.583C226.172 158.859 226.823 160.151 227.438 161.458C228.057 162.766 228.641 164.083 229.198 165.422C229.75 166.755 230.271 168.104 230.755 169.464C231.245 170.823 231.698 172.198 232.115 173.578C232.537 174.964 232.922 176.354 233.271 177.76C233.625 179.161 233.938 180.568 234.224 181.99C234.505 183.406 234.75 184.828 234.964 186.26C235.177 187.688 235.354 189.125 235.495 190.563C235.635 192 235.74 193.443 235.813 194.885C235.885 196.328 235.917 197.771 235.917 199.219Z" fill="#442F19"/>
</g>
<mask id="mask55_47_13841" style="mask-type:luminance" maskUnits="userSpaceOnUse" x="59" y="51" width="178" height="177">
<path d="M59.2761 51.3386H236.276V228H59.2761V51.3386Z" fill="white"/>
</mask>
<g mask="url(#mask55_47_13841)">
<path d="M235.917 139.656C235.917 141.104 235.885 142.547 235.813 143.99C235.74 145.438 235.635 146.875 235.495 148.313C235.354 149.755 235.177 151.188 234.964 152.62C234.75 154.047 234.505 155.469 234.224 156.891C233.938 158.307 233.625 159.714 233.271 161.12C232.922 162.521 232.537 163.911 232.115 165.297C231.698 166.677 231.245 168.052 230.755 169.411C230.271 170.771 229.75 172.12 229.198 173.458C228.641 174.792 228.057 176.115 227.438 177.422C226.823 178.724 226.172 180.016 225.49 181.292C224.807 182.568 224.099 183.823 223.354 185.063C222.609 186.302 221.839 187.526 221.037 188.724C220.229 189.927 219.401 191.109 218.537 192.271C217.677 193.432 216.787 194.573 215.87 195.688C214.953 196.807 214.01 197.901 213.042 198.969C212.068 200.042 211.073 201.089 210.052 202.109C209.026 203.13 207.984 204.13 206.912 205.099C205.839 206.068 204.745 207.016 203.63 207.932C202.51 208.849 201.37 209.734 200.208 210.599C199.052 211.458 197.87 212.292 196.667 213.094C195.464 213.896 194.245 214.672 193.005 215.411C191.766 216.156 190.505 216.87 189.234 217.547C187.958 218.229 186.667 218.88 185.359 219.5C184.052 220.115 182.734 220.703 181.396 221.255C180.063 221.807 178.714 222.328 177.354 222.818C175.99 223.302 174.62 223.755 173.234 224.177C171.854 224.594 170.458 224.979 169.057 225.333C167.656 225.682 166.245 226 164.828 226.281C163.412 226.563 161.99 226.813 160.557 227.021C159.13 227.234 157.693 227.411 156.255 227.552C154.818 227.693 153.375 227.802 151.932 227.87C150.49 227.943 149.042 227.979 147.599 227.979C146.151 227.979 144.708 227.943 143.266 227.87C141.823 227.802 140.38 227.693 138.943 227.552C137.505 227.411 136.068 227.234 134.641 227.021C133.208 226.813 131.787 226.563 130.37 226.281C128.948 226 127.542 225.682 126.141 225.333C124.734 224.979 123.344 224.594 121.958 224.177C120.578 223.755 119.203 223.302 117.844 222.818C116.484 222.328 115.135 221.807 113.802 221.255C112.464 220.703 111.146 220.115 109.839 219.5C108.531 218.88 107.24 218.229 105.964 217.547C104.688 216.87 103.432 216.156 102.193 215.411C100.953 214.672 99.7345 213.896 98.5313 213.094C97.3282 212.292 96.1459 211.458 94.9845 210.599C93.823 209.734 92.6876 208.849 91.5678 207.932C90.4532 207.016 89.3595 206.068 88.2865 205.099C87.2136 204.13 86.1667 203.13 85.1459 202.109C84.1251 201.089 83.1303 200.042 82.1563 198.969C81.1876 197.901 80.2449 196.807 79.3282 195.688C78.4115 194.573 77.5209 193.432 76.6615 192.271C75.797 191.109 74.9636 189.927 74.1615 188.724C73.3595 187.526 72.5886 186.302 71.8438 185.063C71.099 183.823 70.3907 182.568 69.7084 181.292C69.0261 180.016 68.3751 178.724 67.7605 177.422C67.1407 176.115 66.5522 174.792 66.0001 173.458C65.448 172.12 64.9272 170.771 64.4428 169.411C63.9532 168.052 63.5001 166.677 63.0834 165.297C62.6615 163.911 62.2761 162.521 61.9272 161.12C61.573 159.714 61.2553 158.307 60.974 156.891C60.6928 155.469 60.448 154.047 60.2345 152.62C60.0209 151.188 59.8438 149.755 59.7032 148.313C59.5626 146.875 59.4532 145.438 59.3855 143.99C59.3126 142.547 59.2761 141.104 59.2761 139.656C59.2761 138.214 59.3126 136.766 59.3855 135.323C59.4532 133.88 59.5626 132.438 59.7032 131C59.8438 129.563 60.0209 128.13 60.2345 126.698C60.448 125.271 60.6928 123.844 60.974 122.427C61.2553 121.01 61.573 119.599 61.9272 118.198C62.2761 116.797 62.6615 115.401 63.0834 114.021C63.5001 112.635 63.9532 111.266 64.4428 109.906C64.9272 108.542 65.448 107.193 66.0001 105.859C66.5522 104.526 67.1407 103.203 67.7605 101.896C68.3751 100.589 69.0261 99.2969 69.7084 98.0261C70.3907 96.75 71.099 95.4896 71.8438 94.25C72.5886 93.0104 73.3595 91.7917 74.1615 90.5886C74.9636 89.3854 75.797 88.2084 76.6615 87.0469C77.5209 85.8854 78.4115 84.7448 79.3282 83.6302C80.2449 82.5104 81.1876 81.4167 82.1563 80.3438C83.1303 79.2761 84.1251 78.2292 85.1459 77.2084C86.1667 76.1823 87.2136 75.1875 88.2865 74.2188C89.3595 73.2448 90.4532 72.3021 91.5678 71.3854C92.6876 70.4688 93.823 69.5781 94.9845 68.7188C96.1459 67.8594 97.3282 67.0261 98.5313 66.224C99.7345 65.4167 100.953 64.6459 102.193 63.9011C103.432 63.1615 104.688 62.4479 105.964 61.7656C107.24 61.0834 108.531 60.4375 109.839 59.8177C111.146 59.1979 112.464 58.6146 113.802 58.0625C115.135 57.5052 116.484 56.9896 117.844 56.5C119.203 56.0156 120.578 55.5625 121.958 55.1406C123.344 54.7188 124.734 54.3334 126.141 53.9844C127.542 53.6354 128.948 53.3177 130.37 53.0365C131.787 52.7552 133.208 52.5052 134.641 52.2917C136.068 52.0834 137.505 51.9063 138.943 51.7604C140.38 51.6198 141.823 51.5156 143.266 51.4427C144.708 51.375 146.151 51.3386 147.599 51.3386C149.042 51.3386 150.49 51.375 151.932 51.4427C153.375 51.5156 154.818 51.6198 156.255 51.7604C157.693 51.9063 159.13 52.0834 160.557 52.2917C161.99 52.5052 163.412 52.7552 164.828 53.0365C166.245 53.3177 167.656 53.6354 169.057 53.9844C170.458 54.3334 171.854 54.7188 173.234 55.1406C174.62 55.5625 175.99 56.0156 177.354 56.5C178.714 56.9896 180.063 57.5052 181.396 58.0625C182.734 58.6146 184.052 59.1979 185.359 59.8177C186.667 60.4375 187.958 61.0834 189.234 61.7656C190.505 62.4479 191.766 63.1615 193.005 63.9011C194.245 64.6459 195.464 65.4167 196.667 66.224C197.87 67.0261 199.052 67.8594 200.208 68.7188C201.37 69.5781 202.51 70.4688 203.63 71.3854C204.745 72.3021 205.839 73.2448 206.912 74.2188C207.984 75.1875 209.026 76.1823 210.052 77.2084C211.073 78.2292 212.068 79.2761 213.042 80.3438C214.01 81.4167 214.953 82.5104 215.87 83.6302C216.787 84.7448 217.677 85.8854 218.537 87.0469C219.401 88.2084 220.229 89.3854 221.037 90.5886C221.839 91.7917 222.609 93.0104 223.354 94.25C224.099 95.4896 224.807 96.75 225.49 98.0261C226.172 99.2969 226.823 100.589 227.438 101.896C228.057 103.203 228.641 104.526 229.198 105.859C229.75 107.193 230.271 108.542 230.755 109.906C231.245 111.266 231.698 112.635 232.115 114.021C232.537 115.401 232.922 116.797 233.271 118.198C233.625 119.599 233.938 121.01 234.224 122.427C234.505 123.844 234.75 125.271 234.964 126.698C235.177 128.13 235.354 129.563 235.495 131C235.635 132.438 235.74 133.88 235.813 135.323C235.885 136.766 235.917 138.214 235.917 139.656Z" fill="#EDE0D2"/>
</g>
<mask id="mask56_47_13841" style="mask-type:luminance" maskUnits="userSpaceOnUse" x="153" y="102" width="64" height="64">
<path d="M153.979 102.573H216.677V165.271H153.979V102.573Z" fill="white"/>
</mask>
<g mask="url(#mask56_47_13841)">
<mask id="mask57_47_13841" style="mask-type:luminance" maskUnits="userSpaceOnUse" x="153" y="102" width="64" height="64">
<path d="M185.328 102.573C168.016 102.573 153.979 116.609 153.979 133.922C153.979 151.234 168.016 165.271 185.328 165.271C202.641 165.271 216.677 151.234 216.677 133.922C216.677 116.609 202.641 102.573 185.328 102.573Z" fill="white"/>
</mask>
<g mask="url(#mask57_47_13841)">
<path d="M153.979 102.573H216.677V165.271H153.979V102.573Z" fill="white"/>
</g>
</g>
<mask id="mask58_47_13841" style="mask-type:luminance" maskUnits="userSpaceOnUse" x="74" y="95" width="63" height="64">
<path d="M74.1511 95.8073H136.849V158.5H74.1511V95.8073Z" fill="white"/>
</mask>
<g mask="url(#mask58_47_13841)">
<mask id="mask59_47_13841" style="mask-type:luminance" maskUnits="userSpaceOnUse" x="74" y="95" width="63" height="64">
<path d="M105.5 95.8073C88.1876 95.8073 74.1511 109.844 74.1511 127.156C74.1511 144.469 88.1876 158.5 105.5 158.5C122.813 158.5 136.849 144.469 136.849 127.156C136.849 109.844 122.813 95.8073 105.5 95.8073Z" fill="white"/>
</mask>
<g mask="url(#mask59_47_13841)">
<path d="M74.1511 95.8073H136.849V158.5H74.1511V95.8073Z" fill="white"/>
</g>
</g>
<mask id="mask60_47_13841" style="mask-type:luminance" maskUnits="userSpaceOnUse" x="165" y="114" width="40" height="40">
<path d="M165.948 114.542H204.708V153.302H165.948V114.542Z" fill="white"/>
</mask>
<g mask="url(#mask60_47_13841)">
<mask id="mask61_47_13841" style="mask-type:luminance" maskUnits="userSpaceOnUse" x="165" y="114" width="40" height="40">
<path d="M185.328 114.542C174.625 114.542 165.948 123.219 165.948 133.922C165.948 144.625 174.625 153.302 185.328 153.302C196.031 153.302 204.708 144.625 204.708 133.922C204.708 123.219 196.031 114.542 185.328 114.542Z" fill="white"/>
</mask>
<g mask="url(#mask61_47_13841)">
<path d="M165.948 114.542H204.708V153.302H165.948V114.542Z" fill="black"/>
</g>
</g>
<mask id="mask62_47_13841" style="mask-type:luminance" maskUnits="userSpaceOnUse" x="85" y="105" width="40" height="40">
<path d="M85.4583 105.516H124.224V144.281H85.4583V105.516Z" fill="white"/>
</mask>
<g mask="url(#mask62_47_13841)">
<mask id="mask63_47_13841" style="mask-type:luminance" maskUnits="userSpaceOnUse" x="85" y="105" width="40" height="40">
<path d="M104.844 105.516C94.1405 105.516 85.4583 114.193 85.4583 124.896C85.4583 135.604 94.1405 144.281 104.844 144.281C115.547 144.281 124.224 135.604 124.224 124.896C124.224 114.193 115.547 105.516 104.844 105.516Z" fill="white"/>
</mask>
<g mask="url(#mask63_47_13841)">
<path d="M85.4583 105.516H124.224V144.281H85.4583V105.516Z" fill="black"/>
</g>
</g>
<mask id="mask64_47_13841" style="mask-type:luminance" maskUnits="userSpaceOnUse" x="114" y="232" width="66" height="24">
<path d="M114.901 232H179.901V255.984H114.901V232Z" fill="white"/>
</mask>
<g mask="url(#mask64_47_13841)">
<path d="M172.688 245.24C163.823 242.839 157.193 244.865 152.833 247.432C158.792 241.375 167.875 239.385 170.781 238.891L172.688 245.24ZM162.208 232.021L164.708 237.99C159.995 239.453 153.839 242.297 149.672 247.536C152.307 238.365 159.521 233.536 162.208 232.021ZM132.948 232.021C135.635 233.536 142.849 238.349 145.484 247.552C141.318 242.313 135.162 239.469 130.448 238.01L132.948 232.021ZM124.375 238.891C127.287 239.385 136.37 241.375 142.323 247.432C137.969 244.865 131.333 242.839 122.469 245.24L124.375 238.891ZM151.406 256.313H143.75C142.068 254.135 134.787 247.141 114.901 255.427L116.62 249.865C136.453 240.234 146.25 253.453 146.662 254.031C146.677 254.047 146.693 254.047 146.714 254.068C146.729 254.099 146.745 254.135 146.781 254.151C146.797 254.167 146.797 254.167 146.797 254.188C146.828 254.219 146.865 254.234 146.917 254.255C146.948 254.271 146.984 254.302 147.016 254.323C147.052 254.339 147.083 254.375 147.135 254.391C147.151 254.391 147.172 254.406 147.172 254.406C147.24 254.443 147.323 254.443 147.406 254.458C147.458 254.458 147.495 254.49 147.547 254.49C147.563 254.49 147.578 254.49 147.594 254.49C147.615 254.49 147.63 254.49 147.646 254.49C147.698 254.49 147.734 254.474 147.781 254.458C147.87 254.443 147.938 254.443 148.021 254.406C148.037 254.406 148.057 254.391 148.057 254.391C148.104 254.375 148.141 254.339 148.172 254.323C148.208 254.302 148.245 254.287 148.276 254.255C148.313 254.219 148.359 254.203 148.396 254.188C148.412 254.167 148.412 254.167 148.412 254.151C148.448 254.12 148.464 254.099 148.479 254.068C148.5 254.047 148.516 254.047 148.531 254.031C148.938 253.453 158.74 240.234 178.573 249.865L180.292 255.427C160.391 247.141 153.089 254.151 151.406 256.313Z" fill="#EDE0D2"/>
</g>
<mask id="mask65_47_13841" style="mask-type:luminance" maskUnits="userSpaceOnUse" x="31" y="232" width="121" height="72">
<path d="M31.3333 232H151.333V304H31.3333V232Z" fill="white"/>
</mask>
<g mask="url(#mask65_47_13841)">
<mask id="mask66_47_13841" style="mask-type:luminance" maskUnits="userSpaceOnUse" x="25" y="226" width="133" height="84">
<path d="M40.0416 226.896L157.135 270.646L142.786 309.057L25.6926 265.302L40.0416 226.896Z" fill="white"/>
</mask>
<g mask="url(#mask66_47_13841)">
<mask id="mask67_47_13841" style="mask-type:luminance" maskUnits="userSpaceOnUse" x="25" y="226" width="133" height="84">
<path d="M40.0416 226.896L157.135 270.646L142.786 309.057L25.6926 265.302L40.0416 226.896Z" fill="white"/>
</mask>
<g mask="url(#mask67_47_13841)">
<path d="M123.62 301.786L44.9686 272.401C34.4478 268.469 29.0988 256.745 33.0311 246.219C36.9634 235.698 48.6874 230.349 59.2134 234.281L137.859 263.672C148.385 267.604 153.729 279.328 149.797 289.849C145.864 300.375 134.141 305.719 123.62 301.786Z" fill="#604428"/>
<path d="M123.552 301.974L44.9009 272.583C34.2863 268.62 28.8801 256.766 32.8488 246.151C36.8124 235.531 48.6665 230.13 59.2811 234.099L137.932 263.484C148.547 267.453 153.953 279.302 149.984 289.917C146.015 300.536 134.167 305.937 123.552 301.974ZM59.1405 234.469C48.729 230.578 37.1092 235.875 33.2186 246.292C29.328 256.703 34.6249 268.323 45.0415 272.214L123.687 301.599C134.099 305.49 145.724 300.193 149.614 289.781C153.505 279.37 148.203 267.745 137.792 263.854L59.1405 234.469Z" fill="#604428"/>
</g>
</g>
</g>
<mask id="mask68_47_13841" style="mask-type:luminance" maskUnits="userSpaceOnUse" x="14" y="186" width="144" height="87">
<path d="M14 186.667H158V272H14V186.667Z" fill="white"/>
</mask>
<g mask="url(#mask68_47_13841)">
<mask id="mask69_47_13841" style="mask-type:luminance" maskUnits="userSpaceOnUse" x="7" y="180" width="158" height="99">
<path d="M24.7499 180.271L164.328 232.422L147.177 278.323L7.59888 226.172L24.7499 180.271Z" fill="white"/>
</mask>
<g mask="url(#mask69_47_13841)">
<mask id="mask70_47_13841" style="mask-type:luminance" maskUnits="userSpaceOnUse" x="7" y="180" width="158" height="99">
<path d="M24.7499 180.271L164.328 232.422L147.177 278.323L7.59888 226.172L24.7499 180.271Z" fill="white"/>
</mask>
<g mask="url(#mask70_47_13841)">
<path d="M124.078 269.266L30.6093 234.344C18.1041 229.667 11.7499 215.734 16.4218 203.229C21.0989 190.724 35.0312 184.37 47.5364 189.042L141.005 223.969C153.51 228.641 159.865 242.573 155.193 255.078C150.516 267.589 136.583 273.938 124.078 269.266Z" fill="#604428"/>
<path d="M123.995 269.49L30.5261 234.562C17.9115 229.849 11.4896 215.766 16.2032 203.146C20.9167 190.531 35 184.109 47.6198 188.823L141.089 223.745C153.703 228.464 160.125 242.547 155.411 255.161C150.698 267.781 136.615 274.203 123.995 269.49ZM47.4532 189.266C35.0782 184.641 21.2709 190.938 16.6459 203.313C12.0209 215.688 18.3177 229.495 30.6927 234.12L124.161 269.047C136.536 273.667 150.344 267.37 154.969 255C159.594 242.625 153.297 228.812 140.922 224.188L47.4532 189.266Z" fill="#604428"/>
</g>
</g>
</g>
<mask id="mask71_47_13841" style="mask-type:luminance" maskUnits="userSpaceOnUse" x="2" y="148" width="143" height="86">
<path d="M2 148H144.667V233.333H2V148Z" fill="white"/>
</mask>
<g mask="url(#mask71_47_13841)">
<mask id="mask72_47_13841" style="mask-type:luminance" maskUnits="userSpaceOnUse" x="-6" y="142" width="158" height="99">
<path d="M12.078 142.042L151.651 194.198L134.5 240.099L-5.073 187.943L12.078 142.042Z" fill="white"/>
</mask>
<g mask="url(#mask72_47_13841)">
<mask id="mask73_47_13841" style="mask-type:luminance" maskUnits="userSpaceOnUse" x="-6" y="142" width="158" height="99">
<path d="M12.078 142.042L151.651 194.198L134.5 240.099L-5.073 187.943L12.078 142.042Z" fill="white"/>
</mask>
<g mask="url(#mask73_47_13841)">
<path d="M111.406 231.042L17.9374 196.115C5.43223 191.443 -0.921938 177.51 3.74994 165.005C8.42181 152.495 22.3541 146.146 34.8645 150.818L128.333 185.745C140.838 190.417 147.193 204.349 142.516 216.854C137.844 229.359 123.911 235.714 111.406 231.042Z" fill="#604428"/>
</g>
</g>
</g>
<mask id="mask74_47_13841" style="mask-type:luminance" maskUnits="userSpaceOnUse" x="0" y="148" width="145" height="86">
<path d="M0.666748 148H144.667V233.333H0.666748V148Z" fill="white"/>
</mask>
<g mask="url(#mask74_47_13841)">
<mask id="mask75_47_13841" style="mask-type:luminance" maskUnits="userSpaceOnUse" x="-6" y="142" width="158" height="99">
<path d="M12.0783 142.042L151.651 194.198L134.5 240.099L-5.07275 187.943L12.0783 142.042Z" fill="white"/>
</mask>
<g mask="url(#mask75_47_13841)">
<mask id="mask76_47_13841" style="mask-type:luminance" maskUnits="userSpaceOnUse" x="-6" y="142" width="158" height="99">
<path d="M12.0783 142.042L151.651 194.198L134.5 240.099L-5.07275 187.943L12.0783 142.042Z" fill="white"/>
</mask>
<g mask="url(#mask76_47_13841)">
<path d="M111.323 231.26L17.8542 196.339C5.23963 191.62 -1.18225 177.537 3.53129 164.922C8.24483 152.302 22.3282 145.88 34.9427 150.599L128.411 185.521C141.031 190.234 147.453 204.318 142.74 216.938C138.026 229.552 123.938 235.974 111.323 231.26ZM34.7813 151.036C22.4063 146.417 8.59379 152.714 3.974 165.089C-0.651 177.458 5.64588 191.271 18.0209 195.896L111.49 230.818C123.865 235.443 137.672 229.146 142.297 216.771C146.922 204.396 140.625 190.589 128.25 185.964L34.7813 151.036Z" fill="#604428"/>
</g>
</g>
</g>
<mask id="mask77_47_13841" style="mask-type:luminance" maskUnits="userSpaceOnUse" x="120" y="164" width="36" height="20">
<path d="M120.667 164H155.333V184H120.667V164Z" fill="white"/>
</mask>
<g mask="url(#mask77_47_13841)">
<mask id="mask78_47_13841" style="mask-type:luminance" maskUnits="userSpaceOnUse" x="118" y="160" width="40" height="28">
<path d="M123.615 160.646L157.318 170.089L152.458 187.422L118.755 177.974L123.615 160.646Z" fill="white"/>
</mask>
<g mask="url(#mask78_47_13841)">
<mask id="mask79_47_13841" style="mask-type:luminance" maskUnits="userSpaceOnUse" x="118" y="160" width="40" height="28">
<path d="M123.615 160.646L157.318 170.089L152.458 187.422L118.755 177.974L123.615 160.646Z" fill="white"/>
</mask>
<g mask="url(#mask79_47_13841)">
<path d="M154.86 178.505C154.703 179.057 154.443 179.573 154.078 180.057C153.709 180.537 153.245 180.974 152.677 181.37C152.11 181.761 151.459 182.099 150.714 182.391C149.974 182.677 149.156 182.906 148.266 183.078C147.38 183.25 146.432 183.365 145.427 183.412C144.422 183.464 143.386 183.453 142.302 183.38C141.224 183.302 140.13 183.167 139.016 182.974C137.906 182.776 136.797 182.526 135.693 182.219C134.589 181.906 133.511 181.547 132.459 181.136C131.406 180.724 130.401 180.271 129.443 179.771C128.479 179.276 127.584 178.745 126.755 178.182C125.922 177.615 125.172 177.031 124.5 176.422C123.828 175.807 123.255 175.188 122.771 174.557C122.287 173.927 121.901 173.297 121.625 172.667C121.344 172.037 121.172 171.422 121.11 170.818C121.047 170.214 121.094 169.636 121.25 169.083C121.401 168.531 121.667 168.016 122.031 167.531C122.401 167.047 122.865 166.615 123.432 166.219C123.995 165.828 124.651 165.484 125.391 165.198C126.136 164.912 126.948 164.682 127.839 164.505C128.729 164.333 129.677 164.224 130.682 164.172C131.682 164.125 132.724 164.136 133.802 164.208C134.88 164.281 135.979 164.417 137.089 164.615C138.203 164.807 139.313 165.063 140.417 165.37C141.516 165.682 142.594 166.042 143.646 166.453C144.698 166.865 145.703 167.318 146.667 167.813C147.625 168.313 148.521 168.844 149.354 169.406C150.182 169.969 150.938 170.557 151.604 171.167C152.276 171.776 152.854 172.401 153.339 173.031C153.823 173.662 154.203 174.292 154.485 174.922C154.761 175.552 154.932 176.167 154.995 176.771C155.063 177.375 155.016 177.948 154.86 178.505Z" fill="#FFB93E"/>
</g>
</g>
</g>
<mask id="mask80_47_13841" style="mask-type:luminance" maskUnits="userSpaceOnUse" x="159" y="29" width="41" height="27">
<path d="M159.333 29.3333H199.333V56H159.333V29.3333Z" fill="white"/>
</mask>
<g mask="url(#mask80_47_13841)">
<mask id="mask81_47_13841" style="mask-type:luminance" maskUnits="userSpaceOnUse" x="144" y="21" width="94" height="96">
<path d="M159.974 21.9739L237.432 37.526L221.484 116.943L144.031 101.391L159.974 21.9739Z" fill="white"/>
</mask>
<g mask="url(#mask81_47_13841)">
<mask id="mask82_47_13841" style="mask-type:luminance" maskUnits="userSpaceOnUse" x="144" y="21" width="94" height="96">
<path d="M159.974 21.9739L237.432 37.526L221.484 116.943L144.031 101.391L159.974 21.9739Z" fill="white"/>
</mask>
<g mask="url(#mask82_47_13841)">
<mask id="mask83_47_13841" style="mask-type:luminance" maskUnits="userSpaceOnUse" x="144" y="21" width="94" height="96">
<path d="M159.974 21.9739L237.432 37.526L221.484 116.943L144.031 101.391L159.974 21.9739Z" fill="white"/>
</mask>
<g mask="url(#mask83_47_13841)">
<path d="M161.458 45.4791C160.266 44.0885 160.24 42.0104 161.479 40.5937C162.833 39.0364 165.188 38.8802 166.745 40.2291C173.974 46.5364 179.906 49.0364 183.911 47.4791C189.224 45.3906 191.359 36.2083 191.734 32.8281C191.958 30.7864 193.792 29.3125 195.844 29.5312C197.906 29.7604 199.396 31.6041 199.146 33.6198C199.083 34.3021 197.281 50.2448 186.646 54.4323C179.797 57.0989 171.448 54.2239 161.839 45.8541C161.703 45.7396 161.573 45.6146 161.458 45.4791Z" fill="#FF3E12"/>
</g>
</g>
</g>
</g>
<mask id="mask84_47_13841" style="mask-type:luminance" maskUnits="userSpaceOnUse" x="152" y="52" width="28" height="44">
<path d="M152.667 52H179.333V96H152.667V52Z" fill="white"/>
</mask>
<g mask="url(#mask84_47_13841)">
<mask id="mask85_47_13841" style="mask-type:luminance" maskUnits="userSpaceOnUse" x="144" y="21" width="94" height="96">
<path d="M159.974 21.9739L237.432 37.526L221.484 116.943L144.031 101.391L159.974 21.9739Z" fill="white"/>
</mask>
<g mask="url(#mask85_47_13841)">
<mask id="mask86_47_13841" style="mask-type:luminance" maskUnits="userSpaceOnUse" x="144" y="21" width="94" height="96">
<path d="M159.974 21.9739L237.432 37.526L221.484 116.943L144.031 101.391L159.974 21.9739Z" fill="white"/>
</mask>
<g mask="url(#mask86_47_13841)">
<mask id="mask87_47_13841" style="mask-type:luminance" maskUnits="userSpaceOnUse" x="144" y="21" width="94" height="96">
<path d="M159.974 21.9739L237.432 37.526L221.484 116.943L144.031 101.391L159.974 21.9739Z" fill="white"/>
</mask>
<g mask="url(#mask87_47_13841)">
<path d="M161.219 93.401C159.974 91.9531 160.021 89.7969 161.344 88.3854C168.656 80.724 171.734 74.276 170.229 69.7188C168.01 62.8698 156.307 60.7188 156.172 60.6771C154.135 60.3646 152.786 58.3854 153.141 56.375C153.495 54.3437 155.411 52.9896 157.443 53.3438C158.115 53.4375 173.635 56.349 177.313 67.3646C179.766 74.8333 176.208 83.6198 166.76 93.5469C165.318 95.0208 162.964 95.0833 161.474 93.651C161.385 93.5729 161.297 93.4896 161.219 93.401Z" fill="#FF3E12"/>
</g>
</g>
</g>
</g>
<mask id="mask88_47_13841" style="mask-type:luminance" maskUnits="userSpaceOnUse" x="199" y="38" width="31" height="45">
<path d="M199.333 38.6667H230V82.6667H199.333V38.6667Z" fill="white"/>
</mask>
<g mask="url(#mask88_47_13841)">
<mask id="mask89_47_13841" style="mask-type:luminance" maskUnits="userSpaceOnUse" x="144" y="21" width="94" height="96">
<path d="M159.974 21.974L237.432 37.5261L221.484 116.943L144.031 101.391L159.974 21.974Z" fill="white"/>
</mask>
<g mask="url(#mask89_47_13841)">
<mask id="mask90_47_13841" style="mask-type:luminance" maskUnits="userSpaceOnUse" x="144" y="21" width="94" height="96">
<path d="M159.974 21.974L237.432 37.5261L221.484 116.943L144.031 101.391L159.974 21.974Z" fill="white"/>
</mask>
<g mask="url(#mask90_47_13841)">
<mask id="mask91_47_13841" style="mask-type:luminance" maskUnits="userSpaceOnUse" x="144" y="21" width="94" height="96">
<path d="M159.974 21.974L237.432 37.5261L221.484 116.943L144.031 101.391L159.974 21.974Z" fill="white"/>
</mask>
<g mask="url(#mask91_47_13841)">
<path d="M203.516 71.3802C201.38 68.8958 200.156 66.1458 199.802 63.1094C198.51 51.6979 210.536 41.6406 211.917 40.5313C213.479 39.2656 215.755 39.4688 217.078 41.0052C217.094 41.0261 217.114 41.0469 217.156 41.0938C218.448 42.6927 218.198 45.0261 216.599 46.3177C213.755 48.6458 206.505 56.0156 207.213 62.2761C207.614 65.6198 210.453 68.599 215.562 71.1198L226.422 75.2136C228.364 75.9375 229.318 78.099 228.594 80.0208C227.859 81.9479 225.713 82.9271 223.786 82.1875L212.62 77.9688C208.677 76.0573 205.635 73.8386 203.516 71.3802Z" fill="#FF3E12"/>
</g>
</g>
</g>
</g>
<mask id="mask92_47_13841" style="mask-type:luminance" maskUnits="userSpaceOnUse" x="172" y="80" width="49" height="28">
<path d="M172.667 80H220.667V108H172.667V80Z" fill="white"/>
</mask>
<g mask="url(#mask92_47_13841)">
<mask id="mask93_47_13841" style="mask-type:luminance" maskUnits="userSpaceOnUse" x="144" y="21" width="94" height="96">
<path d="M159.974 21.9739L237.432 37.526L221.484 116.943L144.031 101.391L159.974 21.9739Z" fill="white"/>
</mask>
<g mask="url(#mask93_47_13841)">
<mask id="mask94_47_13841" style="mask-type:luminance" maskUnits="userSpaceOnUse" x="144" y="21" width="94" height="96">
<path d="M159.974 21.9739L237.432 37.526L221.484 116.943L144.031 101.391L159.974 21.9739Z" fill="white"/>
</mask>
<g mask="url(#mask94_47_13841)">
<mask id="mask95_47_13841" style="mask-type:luminance" maskUnits="userSpaceOnUse" x="144" y="21" width="94" height="96">
<path d="M159.974 21.9739L237.432 37.526L221.484 116.943L144.031 101.391L159.974 21.9739Z" fill="white"/>
</mask>
<g mask="url(#mask95_47_13841)">
<path d="M174.344 105.99C173.255 104.724 173.135 102.828 174.13 101.385L185.021 86.0573C187.083 83.026 190.167 81.0833 193.849 80.4739C204.255 78.7916 216.901 88.1094 218.307 89.1771C219.99 90.401 220.266 92.7552 219.01 94.3802C217.776 96.026 215.432 96.3594 213.781 95.1041C210.667 92.7552 201.198 86.8385 195.042 87.8489C193.354 88.125 192.109 88.9166 191.151 90.3333L180.219 105.729C179.021 107.391 176.687 107.786 175.016 106.594C174.76 106.417 174.536 106.214 174.344 105.99Z" fill="#FF3E12"/>
</g>
</g>
</g>
</g>
</svg>
