<svg width="351" height="314" viewBox="0 0 351 314" fill="none" xmlns="http://www.w3.org/2000/svg">
<mask id="mask0_47_13839" style="mask-type:luminance" maskUnits="userSpaceOnUse" x="120" y="155" width="121" height="74">
<path d="M120.333 155H240.333V228.333H120.333V155Z" fill="white"/>
</mask>
<g mask="url(#mask0_47_13839)">
<mask id="mask1_47_13839" style="mask-type:luminance" maskUnits="userSpaceOnUse" x="115" y="148" width="132" height="86">
<path d="M115.24 195.87L231.068 148.88L246.479 186.87L130.651 233.865L115.24 195.87Z" fill="white"/>
</mask>
<g mask="url(#mask1_47_13839)">
<mask id="mask2_47_13839" style="mask-type:luminance" maskUnits="userSpaceOnUse" x="115" y="148" width="132" height="86">
<path d="M115.24 195.87L231.068 148.88L246.479 186.87L130.651 233.865L115.24 195.87Z" fill="white"/>
</mask>
<g mask="url(#mask2_47_13839)">
<path d="M227.453 194.484L149.651 226.047C139.24 230.271 127.37 225.255 123.151 214.844C118.927 204.432 123.943 192.568 134.354 188.344L212.151 156.781C222.563 152.557 234.432 157.573 238.656 167.984C242.88 178.396 237.859 190.26 227.453 194.484Z" fill="#604428"/>
</g>
</g>
</g>
<mask id="mask3_47_13839" style="mask-type:luminance" maskUnits="userSpaceOnUse" x="120" y="155" width="122" height="74">
<path d="M120.333 155H241.667V228.333H120.333V155Z" fill="white"/>
</mask>
<g mask="url(#mask3_47_13839)">
<mask id="mask4_47_13839" style="mask-type:luminance" maskUnits="userSpaceOnUse" x="115" y="148" width="132" height="86">
<path d="M115.24 195.87L231.068 148.88L246.479 186.87L130.651 233.865L115.24 195.87Z" fill="white"/>
</mask>
<g mask="url(#mask4_47_13839)">
<mask id="mask5_47_13839" style="mask-type:luminance" maskUnits="userSpaceOnUse" x="115" y="148" width="132" height="86">
<path d="M115.24 195.87L231.068 148.88L246.479 186.87L130.651 233.865L115.24 195.87Z" fill="white"/>
</mask>
<g mask="url(#mask5_47_13839)">
<path d="M227.526 194.667L149.724 226.234C139.224 230.495 127.224 225.422 122.964 214.917C118.703 204.417 123.776 192.422 134.276 188.161L212.078 156.594C222.584 152.333 234.578 157.406 238.839 167.906C243.099 178.411 238.026 190.406 227.526 194.667ZM134.427 188.526C124.125 192.708 119.156 204.469 123.334 214.771C127.511 225.068 139.276 230.042 149.573 225.865L227.375 194.302C237.677 190.12 242.651 178.359 238.469 168.057C234.292 157.76 222.526 152.786 212.229 156.964L134.427 188.526Z" fill="#604428"/>
</g>
</g>
</g>
<mask id="mask6_47_13839" style="mask-type:luminance" maskUnits="userSpaceOnUse" x="79" y="123" width="143" height="87">
<path d="M79 123H221.667V209.667H79V123Z" fill="white"/>
</mask>
<g mask="url(#mask6_47_13839)">
<mask id="mask7_47_13839" style="mask-type:luminance" maskUnits="userSpaceOnUse" x="72" y="115" width="157" height="103">
<path d="M72.4375 171.88L210.505 115.865L228.927 161.271L90.8594 217.281L72.4375 171.88Z" fill="white"/>
</mask>
<g mask="url(#mask7_47_13839)">
<mask id="mask8_47_13839" style="mask-type:luminance" maskUnits="userSpaceOnUse" x="72" y="115" width="157" height="103">
<path d="M72.4375 171.88L210.505 115.865L228.927 161.271L90.8594 217.281L72.4375 171.88Z" fill="white"/>
</mask>
<g mask="url(#mask8_47_13839)">
<path d="M205.791 170.224L113.333 207.734C100.958 212.755 86.8591 206.792 81.8383 194.422C76.8175 182.047 82.781 167.943 95.1508 162.927L187.614 125.412C199.984 120.396 214.088 126.359 219.109 138.729C224.13 151.099 218.166 165.203 205.791 170.224Z" fill="#604428"/>
</g>
</g>
</g>
<mask id="mask9_47_13839" style="mask-type:luminance" maskUnits="userSpaceOnUse" x="79" y="123" width="143" height="88">
<path d="M79 123H221.667V211H79V123Z" fill="white"/>
</mask>
<g mask="url(#mask9_47_13839)">
<mask id="mask10_47_13839" style="mask-type:luminance" maskUnits="userSpaceOnUse" x="72" y="115" width="157" height="103">
<path d="M72.4375 171.88L210.505 115.865L228.927 161.271L90.8594 217.281L72.4375 171.88Z" fill="white"/>
</mask>
<g mask="url(#mask10_47_13839)">
<mask id="mask11_47_13839" style="mask-type:luminance" maskUnits="userSpaceOnUse" x="72" y="115" width="157" height="103">
<path d="M72.4375 171.88L210.505 115.865L228.927 161.271L90.8594 217.281L72.4375 171.88Z" fill="white"/>
</mask>
<g mask="url(#mask11_47_13839)">
<path d="M205.88 170.443L113.422 207.953C100.937 213.016 86.6821 206.99 81.6196 194.51C76.5571 182.026 82.5832 167.771 95.0624 162.708L187.526 125.193C200.005 120.13 214.265 126.161 219.328 138.641C224.39 151.12 218.364 165.38 205.88 170.443ZM95.2394 163.146C82.9999 168.109 77.0884 182.089 82.0571 194.333C87.0207 206.573 101.005 212.484 113.245 207.516L205.703 170.005C217.943 165.036 223.854 151.057 218.89 138.818C213.922 126.578 199.943 120.667 187.703 125.63L95.2394 163.146Z" fill="#604428"/>
</g>
</g>
</g>
<mask id="mask12_47_13839" style="mask-type:luminance" maskUnits="userSpaceOnUse" x="44" y="103" width="143" height="88">
<path d="M44.3335 103H187V191H44.3335V103Z" fill="white"/>
</mask>
<g mask="url(#mask12_47_13839)">
<mask id="mask13_47_13839" style="mask-type:luminance" maskUnits="userSpaceOnUse" x="37" y="96" width="157" height="102">
<path d="M37.2451 152.302L175.313 96.2865L193.735 141.693L55.667 197.708L37.2451 152.302Z" fill="white"/>
</mask>
<g mask="url(#mask13_47_13839)">
<mask id="mask14_47_13839" style="mask-type:luminance" maskUnits="userSpaceOnUse" x="37" y="96" width="157" height="102">
<path d="M37.2451 152.302L175.313 96.2865L193.735 141.693L55.667 197.708L37.2451 152.302Z" fill="white"/>
</mask>
<g mask="url(#mask14_47_13839)">
<path d="M170.599 150.646L78.1407 188.156C65.7657 193.177 51.6615 187.214 46.6459 174.844C41.6251 162.469 47.5886 148.37 59.9584 143.349L152.422 105.839C164.792 100.818 178.896 106.781 183.917 119.151C188.932 131.521 182.974 145.625 170.599 150.646Z" fill="#604428"/>
<path d="M170.688 150.865L78.2293 188.375C65.745 193.438 51.4898 187.412 46.4273 174.932C41.3648 162.448 47.3908 148.193 59.87 143.13L152.334 105.62C164.813 100.552 179.068 106.583 184.136 119.063C189.198 131.542 183.172 145.802 170.688 150.865ZM60.0471 143.568C47.8075 148.531 41.896 162.516 46.8648 174.755C51.8283 186.995 65.8075 192.906 78.0523 187.938L170.511 150.427C182.75 145.464 188.662 131.479 183.698 119.24C178.729 107 164.75 101.089 152.511 106.057L60.0471 143.568Z" fill="#604428"/>
</g>
</g>
</g>
<mask id="mask15_47_13839" style="mask-type:luminance" maskUnits="userSpaceOnUse" x="247" y="247" width="39" height="51">
<path d="M247 247H285.667V297.667H247V247Z" fill="white"/>
</mask>
<g mask="url(#mask15_47_13839)">
<mask id="mask16_47_13839" style="mask-type:luminance" maskUnits="userSpaceOnUse" x="246" y="245" width="41" height="55">
<path d="M279.875 299.01L246.463 250.38L253.057 245.854L286.469 294.479L279.875 299.01Z" fill="white"/>
</mask>
<g mask="url(#mask16_47_13839)">
<mask id="mask17_47_13839" style="mask-type:luminance" maskUnits="userSpaceOnUse" x="246" y="245" width="41" height="55">
<path d="M279.875 299.01L246.463 250.38L253.057 245.854L286.469 294.479L279.875 299.01Z" fill="white"/>
</mask>
<g mask="url(#mask17_47_13839)">
<path d="M248.917 253.922L251.312 257.412L251.323 257.406L275.109 292.021L275.099 292.026L277.495 295.511C278.818 297.438 281.453 297.922 283.38 296.604C285.302 295.281 285.792 292.646 284.469 290.719L255.891 249.13C254.568 247.208 251.943 246.714 250.021 248.037C248.094 249.354 247.599 252 248.917 253.922Z" fill="#FCD590"/>
</g>
</g>
</g>
<mask id="mask18_47_13839" style="mask-type:luminance" maskUnits="userSpaceOnUse" x="269" y="280" width="13" height="15">
<path d="M269.667 280.333H281.667V295H269.667V280.333Z" fill="white"/>
</mask>
<g mask="url(#mask18_47_13839)">
<mask id="mask19_47_13839" style="mask-type:luminance" maskUnits="userSpaceOnUse" x="246" y="245" width="41" height="55">
<path d="M279.875 299.01L246.463 250.38L253.057 245.854L286.469 294.479L279.875 299.01Z" fill="white"/>
</mask>
<g mask="url(#mask19_47_13839)">
<mask id="mask20_47_13839" style="mask-type:luminance" maskUnits="userSpaceOnUse" x="246" y="245" width="41" height="55">
<path d="M279.875 299.01L246.463 250.38L253.057 245.854L286.469 294.479L279.875 299.01Z" fill="white"/>
</mask>
<g mask="url(#mask20_47_13839)">
<path d="M270.927 282.224L279.234 294.318C279.568 294.802 280.224 294.927 280.708 294.589C281.193 294.255 281.318 293.604 280.984 293.115L278.588 289.63L278.578 289.636L272.672 281.042C272.338 280.557 271.682 280.432 271.198 280.766C270.708 281.099 270.599 281.75 270.927 282.224Z" fill="#FCD590"/>
</g>
</g>
</g>
<mask id="mask21_47_13839" style="mask-type:luminance" maskUnits="userSpaceOnUse" x="119" y="235" width="52" height="38">
<path d="M119 235H171V272.333H119V235Z" fill="white"/>
</mask>
<g mask="url(#mask21_47_13839)">
<mask id="mask22_47_13839" style="mask-type:luminance" maskUnits="userSpaceOnUse" x="117" y="233" width="55" height="40">
<path d="M117.969 265.953L167.562 233.99L171.896 240.719L122.302 272.677L117.969 265.953Z" fill="white"/>
</mask>
<g mask="url(#mask22_47_13839)">
<mask id="mask23_47_13839" style="mask-type:luminance" maskUnits="userSpaceOnUse" x="117" y="233" width="55" height="40">
<path d="M117.969 265.953L167.562 233.99L171.896 240.719L122.302 272.677L117.969 265.953Z" fill="white"/>
</mask>
<g mask="url(#mask23_47_13839)">
<path d="M163.948 236.339L160.391 238.63L160.401 238.641L125.094 261.391L125.089 261.38L121.531 263.672C119.573 264.938 119.005 267.562 120.271 269.521C121.531 271.484 124.156 272.052 126.115 270.786L168.531 243.453C170.495 242.187 171.068 239.578 169.802 237.615C168.542 235.651 165.912 235.078 163.948 236.339Z" fill="#FCD590"/>
</g>
</g>
</g>
<mask id="mask24_47_13839" style="mask-type:luminance" maskUnits="userSpaceOnUse" x="121" y="256" width="17" height="13">
<path d="M121.667 256.333H137.667V268.333H121.667V256.333Z" fill="white"/>
</mask>
<g mask="url(#mask24_47_13839)">
<mask id="mask25_47_13839" style="mask-type:luminance" maskUnits="userSpaceOnUse" x="117" y="233" width="55" height="40">
<path d="M117.969 265.953L167.562 233.99L171.896 240.719L122.302 272.677L117.969 265.953Z" fill="white"/>
</mask>
<g mask="url(#mask25_47_13839)">
<mask id="mask26_47_13839" style="mask-type:luminance" maskUnits="userSpaceOnUse" x="117" y="233" width="55" height="40">
<path d="M117.969 265.953L167.562 233.99L171.896 240.719L122.302 272.677L117.969 265.953Z" fill="white"/>
</mask>
<g mask="url(#mask26_47_13839)">
<path d="M135.01 257.5L122.677 265.448C122.182 265.766 122.042 266.417 122.359 266.911C122.677 267.406 123.328 267.547 123.823 267.229L127.38 264.937L127.375 264.927L136.14 259.281C136.635 258.958 136.776 258.307 136.458 257.812C136.14 257.318 135.495 257.187 135.01 257.5Z" fill="#FCD590"/>
</g>
</g>
</g>
<mask id="mask27_47_13839" style="mask-type:luminance" maskUnits="userSpaceOnUse" x="111" y="236" width="18" height="54">
<path d="M111 236.333H128.333V289.667H111V236.333Z" fill="white"/>
</mask>
<g mask="url(#mask27_47_13839)">
<mask id="mask28_47_13839" style="mask-type:luminance" maskUnits="userSpaceOnUse" x="110" y="236" width="19" height="54">
<path d="M110.469 288.385L120.302 236.307L128.161 237.792L118.328 289.87L110.469 288.385Z" fill="white"/>
</mask>
<g mask="url(#mask28_47_13839)">
<mask id="mask29_47_13839" style="mask-type:luminance" maskUnits="userSpaceOnUse" x="110" y="236" width="19" height="54">
<path d="M110.469 288.385L120.302 236.307L128.161 237.792L118.328 289.87L110.469 288.385Z" fill="white"/>
</mask>
<g mask="url(#mask29_47_13839)">
<path d="M119.589 240.162L118.88 243.891L118.891 243.896L111.901 280.927H111.891L111.188 284.656C110.797 286.714 112.151 288.703 114.214 289.094C116.271 289.479 118.255 288.125 118.646 286.068L127.047 241.568C127.438 239.51 126.089 237.526 124.031 237.135C121.974 236.75 119.974 238.104 119.589 240.162Z" fill="#FCD590"/>
</g>
</g>
</g>
<mask id="mask30_47_13839" style="mask-type:luminance" maskUnits="userSpaceOnUse" x="112" y="271" width="6" height="16">
<path d="M112.333 271H117.667V287H112.333V271Z" fill="white"/>
</mask>
<g mask="url(#mask30_47_13839)">
<mask id="mask31_47_13839" style="mask-type:luminance" maskUnits="userSpaceOnUse" x="110" y="236" width="19" height="54">
<path d="M110.469 288.385L120.302 236.307L128.161 237.792L118.328 289.87L110.469 288.385Z" fill="white"/>
</mask>
<g mask="url(#mask31_47_13839)">
<mask id="mask32_47_13839" style="mask-type:luminance" maskUnits="userSpaceOnUse" x="110" y="236" width="19" height="54">
<path d="M110.469 288.385L120.302 236.307L128.161 237.792L118.328 289.87L110.469 288.385Z" fill="white"/>
</mask>
<g mask="url(#mask32_47_13839)">
<path d="M115.49 272.073L113.047 285.01C112.948 285.526 113.287 286.021 113.802 286.12C114.323 286.219 114.818 285.88 114.917 285.359L115.62 281.63H115.609L117.344 272.432C117.443 271.912 117.109 271.417 116.589 271.323C116.068 271.224 115.583 271.563 115.49 272.073Z" fill="#FCD590"/>
</g>
</g>
</g>
<mask id="mask33_47_13839" style="mask-type:luminance" maskUnits="userSpaceOnUse" x="96" y="244" width="42" height="42">
<path d="M96.3335 244.333H137.667V285.667H96.3335V244.333Z" fill="white"/>
</mask>
<g mask="url(#mask33_47_13839)">
<mask id="mask34_47_13839" style="mask-type:luminance" maskUnits="userSpaceOnUse" x="94" y="243" width="45" height="44">
<path d="M132.599 286.104L94.9585 248.797L100.589 243.115L138.235 280.427L132.599 286.104Z" fill="white"/>
</mask>
<g mask="url(#mask34_47_13839)">
<mask id="mask35_47_13839" style="mask-type:luminance" maskUnits="userSpaceOnUse" x="94" y="243" width="45" height="44">
<path d="M132.599 286.104L94.9585 248.797L100.589 243.115L138.235 280.427L132.599 286.104Z" fill="white"/>
</mask>
<g mask="url(#mask35_47_13839)">
<path d="M97.7554 251.547L100.448 254.219L100.459 254.214L127.224 280.745L127.219 280.75L129.917 283.422C131.401 284.896 133.807 284.885 135.281 283.401C136.755 281.911 136.745 279.505 135.261 278.031L103.099 246.156C101.615 244.682 99.2137 244.682 97.7398 246.172C96.2658 247.656 96.2658 250.073 97.7554 251.547Z" fill="#FCD590"/>
</g>
</g>
</g>
<mask id="mask36_47_13839" style="mask-type:luminance" maskUnits="userSpaceOnUse" x="120" y="271" width="14" height="12">
<path d="M120.333 271H133.667V283H120.333V271Z" fill="white"/>
</mask>
<g mask="url(#mask36_47_13839)">
<mask id="mask37_47_13839" style="mask-type:luminance" maskUnits="userSpaceOnUse" x="94" y="243" width="45" height="44">
<path d="M132.599 286.104L94.9585 248.797L100.589 243.115L138.235 280.427L132.599 286.104Z" fill="white"/>
</mask>
<g mask="url(#mask37_47_13839)">
<mask id="mask38_47_13839" style="mask-type:luminance" maskUnits="userSpaceOnUse" x="94" y="243" width="45" height="44">
<path d="M132.599 286.104L94.9585 248.797L100.589 243.115L138.235 280.427L132.599 286.104Z" fill="white"/>
</mask>
<g mask="url(#mask38_47_13839)">
<path d="M121.896 272.813L131.245 282.078C131.625 282.453 132.219 282.448 132.594 282.073C132.964 281.698 132.964 281.099 132.589 280.729L129.891 278.057L129.886 278.063L123.235 271.474C122.86 271.104 122.261 271.104 121.891 271.479C121.521 271.854 121.526 272.448 121.896 272.813Z" fill="#FCD590"/>
</g>
</g>
</g>
<mask id="mask39_47_13839" style="mask-type:luminance" maskUnits="userSpaceOnUse" x="261" y="288" width="54" height="17">
<path d="M261.667 288.333H315V304.333H261.667V288.333Z" fill="white"/>
</mask>
<g mask="url(#mask39_47_13839)">
<mask id="mask40_47_13839" style="mask-type:luminance" maskUnits="userSpaceOnUse" x="261" y="287" width="54" height="17">
<path d="M262.37 287.797L314.719 296.083L313.469 303.984L261.12 295.698L262.37 287.797Z" fill="white"/>
</mask>
<g mask="url(#mask40_47_13839)">
<mask id="mask41_47_13839" style="mask-type:luminance" maskUnits="userSpaceOnUse" x="261" y="287" width="54" height="17">
<path d="M314.599 296.063L262.25 287.776L261 295.677L313.344 303.964L314.599 296.063Z" fill="white"/>
</mask>
<g mask="url(#mask41_47_13839)">
<path d="M266.12 288.401L269.87 288.995V289.005L307.094 294.901V294.891L310.844 295.484C312.912 295.813 314.328 297.76 314 299.828C313.672 301.896 311.724 303.307 309.656 302.984L264.932 295.901C262.865 295.573 261.448 293.635 261.776 291.568C262.104 289.5 264.052 288.073 266.12 288.401Z" fill="#FCD590"/>
</g>
</g>
</g>
<mask id="mask42_47_13839" style="mask-type:luminance" maskUnits="userSpaceOnUse" x="296" y="295" width="17" height="6">
<path d="M296.333 295H312.333V300.333H296.333V295Z" fill="white"/>
</mask>
<g mask="url(#mask42_47_13839)">
<mask id="mask43_47_13839" style="mask-type:luminance" maskUnits="userSpaceOnUse" x="261" y="287" width="54" height="17">
<path d="M262.37 287.797L314.719 296.083L313.469 303.984L261.12 295.698L262.37 287.797Z" fill="white"/>
</mask>
<g mask="url(#mask43_47_13839)">
<mask id="mask44_47_13839" style="mask-type:luminance" maskUnits="userSpaceOnUse" x="261" y="287" width="54" height="17">
<path d="M314.599 296.063L262.25 287.776L261 295.677L313.344 303.964L314.599 296.063Z" fill="white"/>
</mask>
<g mask="url(#mask44_47_13839)">
<path d="M297.547 295.292L310.547 297.354C311.073 297.438 311.422 297.917 311.339 298.443C311.256 298.964 310.771 299.318 310.251 299.234L306.501 298.641L306.506 298.63L297.261 297.167C296.735 297.083 296.386 296.599 296.469 296.078C296.553 295.552 297.032 295.214 297.547 295.292Z" fill="#FCD590"/>
</g>
</g>
</g>
<mask id="mask45_47_13839" style="mask-type:luminance" maskUnits="userSpaceOnUse" x="265" y="272" width="41" height="42">
<path d="M265.667 272.333H305.667V313.667H265.667V272.333Z" fill="white"/>
</mask>
<g mask="url(#mask45_47_13839)">
<mask id="mask46_47_13839" style="mask-type:luminance" maskUnits="userSpaceOnUse" x="265" y="271" width="43" height="45">
<path d="M265.307 309.854L301.484 271.12L307.328 276.583L271.151 315.313L265.307 309.854Z" fill="white"/>
</mask>
<g mask="url(#mask46_47_13839)">
<mask id="mask47_47_13839" style="mask-type:luminance" maskUnits="userSpaceOnUse" x="265" y="271" width="43" height="45">
<path d="M301.401 271.214L265.219 309.943L271.068 315.406L307.245 276.677L301.401 271.214Z" fill="white"/>
</mask>
<g mask="url(#mask47_47_13839)">
<path d="M267.906 307.089L270.5 304.313L270.505 304.318L296.234 276.776L296.224 276.771L298.818 273.995C300.245 272.469 302.651 272.385 304.182 273.813C305.713 275.245 305.797 277.651 304.364 279.182L273.453 312.271C272.026 313.802 269.625 313.891 268.099 312.458C266.568 311.031 266.479 308.62 267.906 307.089Z" fill="#FCD590"/>
</g>
</g>
</g>
<mask id="mask48_47_13839" style="mask-type:luminance" maskUnits="userSpaceOnUse" x="289" y="273" width="14" height="15">
<path d="M289.667 273.667H303V287H289.667V273.667Z" fill="white"/>
</mask>
<g mask="url(#mask48_47_13839)">
<mask id="mask49_47_13839" style="mask-type:luminance" maskUnits="userSpaceOnUse" x="265" y="271" width="43" height="45">
<path d="M265.307 309.854L301.484 271.12L307.328 276.583L271.151 315.313L265.307 309.854Z" fill="white"/>
</mask>
<g mask="url(#mask49_47_13839)">
<mask id="mask50_47_13839" style="mask-type:luminance" maskUnits="userSpaceOnUse" x="265" y="271" width="43" height="45">
<path d="M301.401 271.214L265.219 309.943L271.068 315.406L307.245 276.677L301.401 271.214Z" fill="white"/>
</mask>
<g mask="url(#mask50_47_13839)">
<path d="M291.213 284.911L300.203 275.292C300.562 274.901 301.161 274.88 301.547 275.245C301.932 275.604 301.953 276.203 301.594 276.589L299 279.365L298.995 279.354L292.604 286.193C292.245 286.583 291.646 286.599 291.26 286.24C290.87 285.88 290.859 285.286 291.213 284.911Z" fill="#FCD590"/>
</g>
</g>
</g>
<mask id="mask51_47_13839" style="mask-type:luminance" maskUnits="userSpaceOnUse" x="161" y="0" width="60" height="58">
<path d="M161.667 0.333374H220.333V57.6667H161.667V0.333374Z" fill="white"/>
</mask>
<g mask="url(#mask51_47_13839)">
<mask id="mask52_47_13839" style="mask-type:luminance" maskUnits="userSpaceOnUse" x="152" y="-10" width="84" height="84">
<path d="M235.859 41.323L203.333 73.849L152.422 22.9375L184.948 -9.5885L235.859 41.323Z" fill="white"/>
</mask>
<g mask="url(#mask52_47_13839)">
<mask id="mask53_47_13839" style="mask-type:luminance" maskUnits="userSpaceOnUse" x="152" y="-10" width="84" height="84">
<path d="M235.859 41.323L203.333 73.849L152.422 22.9375L184.948 -9.5885L235.859 41.323Z" fill="white"/>
</mask>
<g mask="url(#mask53_47_13839)">
<path d="M187.88 48.9896L219.646 57.5313L211.104 25.7604C210.026 21.3438 206.281 11.7552 202.75 8.22398C193.104 -1.42185 178.031 -1.98435 169.078 6.96357C160.125 15.9219 160.687 30.9948 170.338 40.6407C173.864 44.1719 183.463 47.9115 187.88 48.9896Z" fill="#442F19"/>
</g>
</g>
</g>
<mask id="mask54_47_13839" style="mask-type:luminance" maskUnits="userSpaceOnUse" x="216" y="0" width="59" height="58">
<path d="M216.333 0.333374H275V57.6667H216.333V0.333374Z" fill="white"/>
</mask>
<g mask="url(#mask54_47_13839)">
<mask id="mask55_47_13839" style="mask-type:luminance" maskUnits="userSpaceOnUse" x="201" y="-10" width="84" height="84">
<path d="M233.729 73.75L201.203 41.224L252.115 -9.6875L284.641 22.8385L233.729 73.75Z" fill="white"/>
</mask>
<g mask="url(#mask55_47_13839)">
<mask id="mask56_47_13839" style="mask-type:luminance" maskUnits="userSpaceOnUse" x="201" y="-10" width="84" height="84">
<path d="M201.302 41.323L233.828 73.849L284.74 22.9375L252.214 -9.5885L201.302 41.323Z" fill="white"/>
</mask>
<g mask="url(#mask56_47_13839)">
<path d="M249.286 48.9896L217.516 57.5313L226.057 25.7604C227.135 21.3438 230.885 11.7552 234.411 8.22398C244.057 -1.42185 259.135 -1.98435 268.083 6.96357C277.036 15.9219 276.474 30.9948 266.828 40.6407C263.302 44.1719 253.703 47.9115 249.286 48.9896Z" fill="#442F19"/>
</g>
</g>
</g>
<mask id="mask57_47_13839" style="mask-type:luminance" maskUnits="userSpaceOnUse" x="126" y="110" width="178" height="178">
<path d="M126.677 110.698H303.677V287.698H126.677V110.698Z" fill="white"/>
</mask>
<g mask="url(#mask57_47_13839)">
<path d="M303.318 199.021C303.318 200.464 303.281 201.906 303.214 203.354C303.141 204.797 303.037 206.234 302.896 207.677C302.75 209.115 302.573 210.547 302.365 211.979C302.151 213.406 301.906 214.833 301.62 216.25C301.339 217.667 301.021 219.078 300.672 220.479C300.323 221.88 299.938 223.271 299.516 224.656C299.094 226.042 298.641 227.411 298.156 228.771C297.667 230.135 297.151 231.479 296.594 232.818C296.042 234.151 295.458 235.474 294.839 236.781C294.219 238.089 293.573 239.375 292.891 240.651C292.208 241.927 291.495 243.182 290.755 244.422C290.011 245.661 289.24 246.885 288.432 248.089C287.63 249.286 286.797 250.469 285.938 251.63C285.078 252.792 284.188 253.932 283.271 255.047C282.354 256.167 281.412 257.26 280.438 258.328C279.469 259.401 278.474 260.448 277.448 261.469C276.427 262.495 275.38 263.49 274.313 264.458C273.24 265.432 272.146 266.375 271.026 267.292C269.912 268.208 268.771 269.099 267.61 269.958C266.448 270.818 265.271 271.651 264.068 272.453C262.865 273.255 261.646 274.031 260.406 274.771C259.167 275.516 257.906 276.229 256.63 276.911C255.36 277.594 254.068 278.24 252.761 278.859C251.453 279.479 250.13 280.062 248.797 280.615C247.464 281.167 246.115 281.687 244.755 282.177C243.391 282.661 242.021 283.115 240.636 283.536C239.255 283.953 237.86 284.339 236.458 284.693C235.057 285.042 233.646 285.359 232.229 285.641C230.813 285.922 229.386 286.172 227.958 286.38C226.526 286.594 225.094 286.771 223.656 286.911C222.219 287.057 220.776 287.161 219.333 287.234C217.891 287.302 216.443 287.339 215 287.339C213.552 287.339 212.11 287.302 210.667 287.234C209.219 287.161 207.781 287.057 206.344 286.911C204.901 286.771 203.469 286.594 202.042 286.38C200.61 286.172 199.188 285.922 197.766 285.641C196.349 285.359 194.943 285.042 193.537 284.693C192.136 284.339 190.745 283.953 189.36 283.536C187.979 283.115 186.604 282.661 185.245 282.177C183.886 281.687 182.537 281.167 181.198 280.615C179.865 280.062 178.542 279.479 177.235 278.859C175.932 278.24 174.641 277.594 173.365 276.911C172.089 276.229 170.833 275.516 169.594 274.771C168.354 274.031 167.13 273.255 165.932 272.453C164.729 271.651 163.547 270.818 162.386 269.958C161.224 269.099 160.089 268.208 158.969 267.292C157.849 266.375 156.755 265.432 155.688 264.458C154.615 263.49 153.568 262.495 152.547 261.469C151.526 260.448 150.526 259.401 149.557 258.328C148.589 257.26 147.641 256.167 146.724 255.047C145.807 253.932 144.922 252.792 144.057 251.63C143.198 250.469 142.365 249.286 141.563 248.089C140.761 246.885 139.985 245.661 139.245 244.422C138.5 243.182 137.787 241.927 137.11 240.651C136.427 239.375 135.776 238.089 135.156 236.781C134.542 235.474 133.953 234.151 133.401 232.818C132.849 231.479 132.328 230.135 131.844 228.771C131.354 227.411 130.901 226.042 130.479 224.656C130.063 223.271 129.677 221.88 129.323 220.479C128.974 219.078 128.656 217.667 128.375 216.25C128.094 214.833 127.844 213.406 127.636 211.979C127.422 210.547 127.245 209.115 127.104 207.677C126.964 206.234 126.854 204.797 126.787 203.354C126.714 201.906 126.677 200.464 126.677 199.021C126.677 197.573 126.714 196.13 126.787 194.682C126.854 193.24 126.964 191.802 127.104 190.359C127.245 188.922 127.422 187.49 127.636 186.057C127.844 184.63 128.094 183.203 128.375 181.786C128.656 180.37 128.974 178.958 129.323 177.557C129.677 176.156 130.063 174.766 130.479 173.38C130.901 171.995 131.354 170.625 131.844 169.266C132.328 167.901 132.849 166.557 133.401 165.219C133.953 163.885 134.542 162.562 135.156 161.255C135.776 159.948 136.427 158.661 137.11 157.385C137.787 156.109 138.5 154.854 139.245 153.615C139.985 152.375 140.761 151.151 141.563 149.948C142.365 148.75 143.198 147.568 144.057 146.406C144.922 145.245 145.807 144.104 146.724 142.99C147.641 141.87 148.589 140.776 149.557 139.708C150.526 138.635 151.526 137.589 152.547 136.568C153.568 135.547 154.615 134.547 155.688 133.578C156.755 132.604 157.849 131.661 158.969 130.745C160.089 129.828 161.224 128.937 162.386 128.078C163.547 127.219 164.729 126.385 165.932 125.583C167.13 124.781 168.354 124.005 169.594 123.266C170.833 122.521 172.089 121.807 173.365 121.125C174.641 120.448 175.932 119.797 177.235 119.177C178.542 118.557 179.865 117.974 181.198 117.422C182.537 116.87 183.886 116.349 185.245 115.859C186.604 115.375 187.979 114.922 189.36 114.5C190.745 114.083 192.136 113.698 193.537 113.344C194.943 112.995 196.349 112.677 197.766 112.396C199.188 112.115 200.61 111.865 202.042 111.656C203.469 111.443 204.901 111.266 206.344 111.125C207.781 110.979 209.219 110.875 210.667 110.802C212.11 110.734 213.552 110.698 215 110.698C216.443 110.698 217.891 110.734 219.333 110.802C220.776 110.875 222.219 110.979 223.656 111.125C225.094 111.266 226.526 111.443 227.958 111.656C229.386 111.865 230.813 112.115 232.229 112.396C233.646 112.677 235.057 112.995 236.458 113.344C237.86 113.698 239.255 114.083 240.636 114.5C242.021 114.922 243.391 115.375 244.755 115.859C246.115 116.349 247.464 116.87 248.797 117.422C250.13 117.974 251.453 118.557 252.761 119.177C254.068 119.797 255.36 120.448 256.63 121.125C257.906 121.807 259.167 122.521 260.406 123.266C261.646 124.005 262.865 124.781 264.068 125.583C265.271 126.385 266.448 127.219 267.61 128.078C268.771 128.937 269.912 129.828 271.026 130.745C272.146 131.661 273.24 132.604 274.313 133.578C275.38 134.547 276.427 135.547 277.448 136.568C278.474 137.589 279.469 138.635 280.438 139.708C281.412 140.776 282.354 141.87 283.271 142.99C284.188 144.104 285.078 145.245 285.938 146.406C286.797 147.568 287.63 148.75 288.432 149.948C289.24 151.151 290.011 152.375 290.755 153.615C291.495 154.854 292.208 156.109 292.891 157.385C293.573 158.661 294.219 159.948 294.839 161.255C295.458 162.562 296.042 163.885 296.594 165.219C297.151 166.557 297.667 167.901 298.156 169.266C298.641 170.625 299.094 171.995 299.516 173.38C299.938 174.766 300.323 176.156 300.672 177.557C301.021 178.958 301.339 180.37 301.62 181.786C301.906 183.203 302.151 184.63 302.365 186.057C302.573 187.49 302.75 188.922 302.896 190.359C303.037 191.802 303.141 193.24 303.214 194.682C303.281 196.13 303.318 197.573 303.318 199.021Z" fill="#442F19"/>
</g>
<mask id="mask58_47_13839" style="mask-type:luminance" maskUnits="userSpaceOnUse" x="126" y="51" width="178" height="178">
<path d="M126.677 51.1354H303.677V228.135H126.677V51.1354Z" fill="white"/>
</mask>
<g mask="url(#mask58_47_13839)">
<path d="M303.318 139.458C303.318 140.901 303.281 142.349 303.214 143.792C303.141 145.234 303.037 146.677 302.896 148.115C302.75 149.552 302.573 150.99 302.365 152.417C302.151 153.849 301.906 155.271 301.62 156.687C301.339 158.104 301.021 159.516 300.672 160.917C300.323 162.318 299.938 163.714 299.516 165.094C299.094 166.479 298.641 167.849 298.156 169.214C297.667 170.573 297.151 171.922 296.594 173.255C296.042 174.594 295.458 175.911 294.839 177.219C294.219 178.526 293.573 179.818 292.891 181.094C292.208 182.365 291.495 183.625 290.755 184.865C290.011 186.104 289.24 187.323 288.432 188.526C287.63 189.729 286.797 190.911 285.938 192.068C285.078 193.229 284.188 194.37 283.271 195.49C282.354 196.604 281.412 197.698 280.438 198.771C279.469 199.839 278.474 200.885 277.448 201.911C276.427 202.932 275.38 203.927 274.313 204.901C273.24 205.87 272.146 206.812 271.026 207.729C269.912 208.646 268.771 209.536 267.61 210.396C266.448 211.26 265.271 212.089 264.068 212.896C262.865 213.698 261.646 214.469 260.406 215.214C259.167 215.953 257.906 216.667 256.63 217.349C255.36 218.031 254.068 218.682 252.761 219.297C251.453 219.917 250.13 220.5 248.797 221.057C247.464 221.609 246.115 222.13 244.755 222.615C243.391 223.104 242.021 223.557 240.636 223.974C239.255 224.396 237.86 224.781 236.458 225.13C235.057 225.484 233.646 225.797 232.229 226.083C230.813 226.365 229.386 226.609 227.958 226.823C226.526 227.036 225.094 227.214 223.656 227.354C222.219 227.495 220.776 227.599 219.333 227.672C217.891 227.745 216.443 227.776 215 227.776C213.552 227.776 212.11 227.745 210.667 227.672C209.219 227.599 207.781 227.495 206.344 227.354C204.901 227.214 203.469 227.036 202.042 226.823C200.61 226.609 199.188 226.365 197.766 226.083C196.349 225.797 194.943 225.484 193.537 225.13C192.136 224.781 190.745 224.396 189.36 223.974C187.979 223.557 186.604 223.104 185.245 222.615C183.886 222.13 182.537 221.609 181.198 221.057C179.865 220.5 178.542 219.917 177.235 219.297C175.932 218.682 174.641 218.031 173.365 217.349C172.089 216.667 170.833 215.958 169.594 215.214C168.354 214.469 167.13 213.698 165.932 212.896C164.729 212.089 163.547 211.26 162.386 210.396C161.224 209.536 160.089 208.646 158.969 207.729C157.849 206.812 156.755 205.87 155.688 204.901C154.615 203.927 153.568 202.932 152.547 201.911C151.526 200.885 150.526 199.839 149.557 198.771C148.589 197.698 147.641 196.604 146.724 195.49C145.807 194.37 144.922 193.229 144.057 192.068C143.198 190.911 142.365 189.729 141.563 188.526C140.761 187.323 139.985 186.104 139.245 184.865C138.5 183.625 137.787 182.365 137.11 181.094C136.427 179.818 135.776 178.526 135.156 177.219C134.542 175.911 133.953 174.594 133.401 173.255C132.849 171.922 132.328 170.573 131.844 169.214C131.354 167.849 130.901 166.479 130.479 165.094C130.063 163.714 129.677 162.318 129.323 160.917C128.974 159.516 128.656 158.104 128.375 156.687C128.094 155.271 127.844 153.849 127.636 152.417C127.422 150.99 127.245 149.552 127.104 148.115C126.964 146.677 126.854 145.234 126.787 143.792C126.714 142.349 126.677 140.901 126.677 139.458C126.677 138.01 126.714 136.568 126.787 135.125C126.854 133.682 126.964 132.24 127.104 130.802C127.245 129.365 127.422 127.927 127.636 126.5C127.844 125.068 128.094 123.646 128.375 122.229C128.656 120.807 128.974 119.401 129.323 118C129.677 116.594 130.063 115.203 130.479 113.818C130.901 112.437 131.354 111.062 131.844 109.703C132.328 108.344 132.849 106.995 133.401 105.661C133.953 104.323 134.542 103.005 135.156 101.698C135.776 100.391 136.427 99.0989 137.11 97.8229C137.787 96.5468 138.5 95.2916 139.245 94.052C139.985 92.8125 140.761 91.5937 141.563 90.3906C142.365 89.1875 143.198 88.0052 144.057 86.8437C144.922 85.6823 145.807 84.5468 146.724 83.427C147.641 82.3125 148.589 81.2187 149.557 80.1458C150.526 79.0729 151.526 78.026 152.547 77.0052C153.568 75.9843 154.615 74.9895 155.688 74.0156C156.755 73.0468 157.849 72.1041 158.969 71.1875C160.089 70.2708 161.224 69.3802 162.386 68.5208C163.547 67.6562 164.729 66.8229 165.932 66.0208C167.13 65.2187 168.354 64.4479 169.594 63.7031C170.833 62.9583 172.089 62.25 173.365 61.5677C174.641 60.8854 175.932 60.2343 177.235 59.6145C178.542 59 179.865 58.4114 181.198 57.8593C182.537 57.3073 183.886 56.7864 185.245 56.302C186.604 55.8125 187.979 55.3593 189.36 54.9427C190.745 54.5208 192.136 54.1354 193.537 53.7864C194.943 53.4323 196.349 53.1145 197.766 52.8333C199.188 52.552 200.61 52.3073 202.042 52.0937C203.469 51.8802 204.901 51.7031 206.344 51.5625C207.781 51.4218 209.219 51.3125 210.667 51.2448C212.11 51.1718 213.552 51.1354 215 51.1354C216.443 51.1354 217.891 51.1718 219.333 51.2448C220.776 51.3125 222.219 51.4218 223.656 51.5625C225.094 51.7031 226.526 51.8802 227.958 52.0937C229.386 52.3073 230.813 52.552 232.229 52.8333C233.646 53.1145 235.057 53.4323 236.458 53.7864C237.86 54.1354 239.255 54.5208 240.636 54.9427C242.021 55.3593 243.391 55.8125 244.755 56.302C246.115 56.7864 247.464 57.3073 248.797 57.8593C250.13 58.4114 251.453 59 252.761 59.6145C254.068 60.2343 255.36 60.8854 256.63 61.5677C257.906 62.25 259.167 62.9583 260.406 63.7031C261.646 64.4479 262.865 65.2187 264.068 66.0208C265.271 66.8229 266.448 67.6562 267.61 68.5208C268.771 69.3802 269.912 70.2708 271.026 71.1875C272.146 72.1041 273.24 73.0468 274.313 74.0156C275.38 74.9895 276.427 75.9843 277.448 77.0052C278.474 78.026 279.469 79.0729 280.438 80.1458C281.412 81.2187 282.354 82.3125 283.271 83.427C284.188 84.5468 285.078 85.6823 285.938 86.8437C286.797 88.0052 287.63 89.1875 288.432 90.3906C289.24 91.5937 290.011 92.8125 290.755 94.052C291.495 95.2916 292.208 96.5468 292.891 97.8229C293.573 99.0989 294.219 100.391 294.839 101.698C295.458 103.005 296.042 104.323 296.594 105.661C297.151 106.995 297.667 108.344 298.156 109.703C298.641 111.062 299.094 112.437 299.516 113.818C299.938 115.203 300.323 116.594 300.672 118C301.021 119.401 301.339 120.807 301.62 122.229C301.906 123.646 302.151 125.068 302.365 126.5C302.573 127.927 302.75 129.365 302.896 130.802C303.037 132.24 303.141 133.682 303.214 135.125C303.281 136.568 303.318 138.01 303.318 139.458Z" fill="#EDE0D2"/>
</g>
<mask id="mask59_47_13839" style="mask-type:luminance" maskUnits="userSpaceOnUse" x="226" y="95" width="64" height="64">
<path d="M226.312 95.6041H289.005V158.302H226.312V95.6041Z" fill="white"/>
</mask>
<g mask="url(#mask59_47_13839)">
<mask id="mask60_47_13839" style="mask-type:luminance" maskUnits="userSpaceOnUse" x="226" y="95" width="64" height="64">
<path d="M257.661 95.6041C240.349 95.6041 226.312 109.641 226.312 126.953C226.312 144.266 240.349 158.302 257.661 158.302C274.974 158.302 289.005 144.266 289.005 126.953C289.005 109.641 274.974 95.6041 257.661 95.6041Z" fill="white"/>
</mask>
<g mask="url(#mask60_47_13839)">
<path d="M226.312 95.6041H289.005V158.302H226.312V95.6041Z" fill="white"/>
</g>
</g>
<mask id="mask61_47_13839" style="mask-type:luminance" maskUnits="userSpaceOnUse" x="141" y="95" width="64" height="64">
<path d="M141.552 95.6041H204.25V158.302H141.552V95.6041Z" fill="white"/>
</mask>
<g mask="url(#mask61_47_13839)">
<mask id="mask62_47_13839" style="mask-type:luminance" maskUnits="userSpaceOnUse" x="141" y="95" width="64" height="64">
<path d="M172.901 95.6041C155.589 95.6041 141.552 109.641 141.552 126.953C141.552 144.266 155.589 158.302 172.901 158.302C190.214 158.302 204.25 144.266 204.25 126.953C204.25 109.641 190.214 95.6041 172.901 95.6041Z" fill="white"/>
</mask>
<g mask="url(#mask62_47_13839)">
<path d="M141.552 95.6041H204.25V158.302H141.552V95.6041Z" fill="white"/>
</g>
</g>
<mask id="mask63_47_13839" style="mask-type:luminance" maskUnits="userSpaceOnUse" x="232" y="101" width="40" height="40">
<path d="M232.672 101.516H271.432V140.281H232.672V101.516Z" fill="white"/>
</mask>
<g mask="url(#mask63_47_13839)">
<mask id="mask64_47_13839" style="mask-type:luminance" maskUnits="userSpaceOnUse" x="232" y="101" width="40" height="40">
<path d="M252.052 101.516C241.349 101.516 232.672 110.193 232.672 120.901C232.672 131.604 241.349 140.281 252.052 140.281C262.755 140.281 271.432 131.604 271.432 120.901C271.432 110.193 262.755 101.516 252.052 101.516Z" fill="white"/>
</mask>
<g mask="url(#mask64_47_13839)">
<path d="M232.672 101.516H271.432V140.281H232.672V101.516Z" fill="black"/>
</g>
</g>
<mask id="mask65_47_13839" style="mask-type:luminance" maskUnits="userSpaceOnUse" x="147" y="100" width="40" height="40">
<path d="M147.344 100.698H186.104V139.464H147.344V100.698Z" fill="white"/>
</mask>
<g mask="url(#mask65_47_13839)">
<mask id="mask66_47_13839" style="mask-type:luminance" maskUnits="userSpaceOnUse" x="147" y="100" width="40" height="40">
<path d="M166.724 100.698C156.021 100.698 147.344 109.375 147.344 120.078C147.344 130.786 156.021 139.464 166.724 139.464C177.427 139.464 186.104 130.786 186.104 120.078C186.104 109.375 177.427 100.698 166.724 100.698Z" fill="white"/>
</mask>
<g mask="url(#mask66_47_13839)">
<path d="M147.344 100.698H186.104V139.464H147.344V100.698Z" fill="black"/>
</g>
</g>
<mask id="mask67_47_13839" style="mask-type:luminance" maskUnits="userSpaceOnUse" x="164" y="101" width="20" height="20">
<path d="M164.641 101.516H183.203V120.078H164.641V101.516Z" fill="white"/>
</mask>
<g mask="url(#mask67_47_13839)">
<mask id="mask68_47_13839" style="mask-type:luminance" maskUnits="userSpaceOnUse" x="164" y="101" width="20" height="20">
<path d="M173.922 101.516C168.797 101.516 164.641 105.672 164.641 110.797C164.641 115.927 168.797 120.078 173.922 120.078C179.047 120.078 183.203 115.927 183.203 110.797C183.203 105.672 179.047 101.516 173.922 101.516Z" fill="white"/>
</mask>
<g mask="url(#mask68_47_13839)">
<path d="M164.641 101.516H183.203V120.078H164.641V101.516Z" fill="white"/>
</g>
</g>
<mask id="mask69_47_13839" style="mask-type:luminance" maskUnits="userSpaceOnUse" x="249" y="101" width="20" height="20">
<path d="M249.958 101.995H268.521V120.557H249.958V101.995Z" fill="white"/>
</mask>
<g mask="url(#mask69_47_13839)">
<mask id="mask70_47_13839" style="mask-type:luminance" maskUnits="userSpaceOnUse" x="249" y="101" width="20" height="20">
<path d="M259.24 101.995C254.115 101.995 249.958 106.151 249.958 111.276C249.958 116.406 254.115 120.557 259.24 120.557C264.37 120.557 268.521 116.406 268.521 111.276C268.521 106.151 264.37 101.995 259.24 101.995Z" fill="white"/>
</mask>
<g mask="url(#mask70_47_13839)">
<path d="M249.958 101.995H268.521V120.557H249.958V101.995Z" fill="white"/>
</g>
</g>
<mask id="mask71_47_13839" style="mask-type:luminance" maskUnits="userSpaceOnUse" x="182" y="231" width="66" height="25">
<path d="M182.302 231.786H247.302V255.786H182.302V231.786Z" fill="white"/>
</mask>
<g mask="url(#mask71_47_13839)">
<path d="M240.089 245.036C231.224 242.641 224.589 244.661 220.235 247.234C226.188 241.177 235.271 239.188 238.182 238.693L240.089 245.036ZM229.61 231.818L232.11 237.792C227.396 239.255 221.24 242.094 217.073 247.333C219.708 238.167 226.922 233.333 229.61 231.818ZM200.349 231.818C203.037 233.333 210.25 238.146 212.886 247.349C208.719 242.109 202.563 239.271 197.849 237.807L200.349 231.818ZM191.776 238.693C194.682 239.188 203.771 241.177 209.724 247.234C205.37 244.661 198.735 242.641 189.87 245.036L191.776 238.693ZM218.807 256.109H211.151C209.469 253.932 202.188 246.943 182.302 255.229L184.021 249.667C203.854 240.036 213.651 253.255 214.063 253.833C214.078 253.849 214.094 253.849 214.11 253.865C214.13 253.901 214.146 253.932 214.177 253.953C214.198 253.969 214.198 253.969 214.198 253.984C214.229 254.021 214.266 254.037 214.318 254.052C214.349 254.073 214.386 254.104 214.417 254.12C214.453 254.141 214.485 254.172 214.537 254.188C214.552 254.188 214.573 254.208 214.573 254.208C214.641 254.24 214.724 254.24 214.807 254.255C214.86 254.255 214.896 254.292 214.943 254.292C214.964 254.292 214.979 254.292 214.995 254.292C215.011 254.292 215.031 254.292 215.047 254.292C215.099 254.292 215.13 254.276 215.182 254.255C215.266 254.24 215.339 254.24 215.422 254.208C215.438 254.208 215.453 254.188 215.453 254.188C215.505 254.172 215.542 254.141 215.573 254.12C215.61 254.104 215.641 254.089 215.677 254.052C215.708 254.021 215.761 254 215.797 253.984C215.813 253.969 215.813 253.969 215.813 253.953C215.849 253.917 215.865 253.901 215.88 253.865C215.896 253.849 215.917 253.849 215.932 253.833C216.339 253.255 226.141 240.036 245.974 249.667L247.693 255.229C227.787 246.943 220.49 253.953 218.807 256.109Z" fill="#EDE0D2"/>
</g>
<mask id="mask72_47_13839" style="mask-type:luminance" maskUnits="userSpaceOnUse" x="233" y="217" width="110" height="95">
<path d="M233.667 217.667H343V311H233.667V217.667Z" fill="white"/>
</mask>
<g mask="url(#mask72_47_13839)">
<mask id="mask73_47_13839" style="mask-type:luminance" maskUnits="userSpaceOnUse" x="226" y="210" width="126" height="109">
<path d="M226.521 285.469L326.489 210.427L351.104 243.219L251.135 318.26L226.521 285.469Z" fill="white"/>
</mask>
<g mask="url(#mask73_47_13839)">
<mask id="mask74_47_13839" style="mask-type:luminance" maskUnits="userSpaceOnUse" x="226" y="210" width="126" height="109">
<path d="M326.526 210.401L226.557 285.443L251.172 318.229L351.14 243.188L326.526 210.401Z" fill="white"/>
</mask>
<g mask="url(#mask74_47_13839)">
<path d="M267.505 305.844L334.651 255.443C343.635 248.698 345.453 235.943 338.708 226.958C331.963 217.974 319.208 216.156 310.224 222.901L243.078 273.302C234.094 280.047 232.276 292.802 239.021 301.787C245.765 310.771 258.521 312.589 267.505 305.844Z" fill="#604428"/>
<path d="M267.625 306.005L334.771 255.599C343.833 248.797 345.672 235.901 338.87 226.839C332.062 217.771 319.172 215.938 310.104 222.74L242.958 273.146C233.896 279.948 232.057 292.844 238.864 301.906C245.667 310.969 258.562 312.807 267.625 306.005ZM310.344 223.057C319.234 216.386 331.88 218.188 338.552 227.073C345.224 235.964 343.422 248.609 334.531 255.281L267.385 305.688C258.495 312.359 245.854 310.557 239.177 301.667C232.505 292.781 234.307 280.136 243.198 273.464L310.344 223.057Z" fill="#604428"/>
</g>
</g>
</g>
<mask id="mask75_47_13839" style="mask-type:luminance" maskUnits="userSpaceOnUse" x="216" y="172" width="130" height="110">
<path d="M216.333 172.333H345.667V281.667H216.333V172.333Z" fill="white"/>
</mask>
<g mask="url(#mask75_47_13839)">
<mask id="mask76_47_13839" style="mask-type:luminance" maskUnits="userSpaceOnUse" x="206" y="163" width="150" height="129">
<path d="M206.568 252.531L325.729 163.078L355.146 202.266L235.985 291.719L206.568 252.531Z" fill="white"/>
</mask>
<g mask="url(#mask76_47_13839)">
<mask id="mask77_47_13839" style="mask-type:luminance" maskUnits="userSpaceOnUse" x="206" y="163" width="149" height="129">
<path d="M325.417 163.312L206.255 252.766L235.672 291.953L354.833 202.5L325.417 163.312Z" fill="white"/>
</mask>
<g mask="url(#mask77_47_13839)">
<path d="M255.271 276.74L335.068 216.839C345.745 208.823 347.906 193.667 339.891 182.99C331.875 172.307 316.714 170.151 306.037 178.167L226.24 238.068C215.563 246.083 213.401 261.24 221.417 271.922C229.432 282.599 244.589 284.755 255.271 276.74Z" fill="#604428"/>
</g>
</g>
</g>
<mask id="mask78_47_13839" style="mask-type:luminance" maskUnits="userSpaceOnUse" x="216" y="172" width="130" height="111">
<path d="M216.333 172.333H345.667V283H216.333V172.333Z" fill="white"/>
</mask>
<g mask="url(#mask78_47_13839)">
<mask id="mask79_47_13839" style="mask-type:luminance" maskUnits="userSpaceOnUse" x="206" y="163" width="150" height="129">
<path d="M206.568 252.531L325.729 163.078L355.146 202.266L235.985 291.719L206.568 252.531Z" fill="white"/>
</mask>
<g mask="url(#mask79_47_13839)">
<mask id="mask80_47_13839" style="mask-type:luminance" maskUnits="userSpaceOnUse" x="206" y="163" width="149" height="129">
<path d="M325.417 163.312L206.255 252.766L235.672 291.953L354.833 202.5L325.417 163.312Z" fill="white"/>
</mask>
<g mask="url(#mask80_47_13839)">
<path d="M255.412 276.932L335.209 217.026C345.979 208.943 348.162 193.62 340.078 182.844C331.99 172.073 316.667 169.891 305.896 177.979L226.099 237.88C215.323 245.964 213.141 261.292 221.229 272.063C229.313 282.833 244.636 285.016 255.412 276.932ZM306.177 178.354C316.745 170.422 331.771 172.563 339.703 183.13C347.63 193.693 345.49 208.719 334.927 216.651L255.125 276.552C244.563 284.484 229.537 282.344 221.604 271.776C213.677 261.214 215.818 246.188 226.38 238.255L306.177 178.354Z" fill="#604428"/>
</g>
</g>
</g>
<mask id="mask81_47_13839" style="mask-type:luminance" maskUnits="userSpaceOnUse" x="221" y="129" width="130" height="110">
<path d="M221.667 129.667H351V239H221.667V129.667Z" fill="white"/>
</mask>
<g mask="url(#mask81_47_13839)">
<mask id="mask82_47_13839" style="mask-type:luminance" maskUnits="userSpaceOnUse" x="211" y="119" width="150" height="130">
<path d="M211.838 209.349L331 119.896L360.417 159.083L241.255 248.536L211.838 209.349Z" fill="white"/>
</mask>
<g mask="url(#mask82_47_13839)">
<mask id="mask83_47_13839" style="mask-type:luminance" maskUnits="userSpaceOnUse" x="211" y="120" width="150" height="129">
<path d="M330.687 120.13L211.526 209.583L240.943 248.771L360.104 159.318L330.687 120.13Z" fill="white"/>
</mask>
<g mask="url(#mask83_47_13839)">
<path d="M260.536 233.557L340.338 173.656C351.015 165.641 353.172 150.484 345.161 139.802C337.146 129.125 321.984 126.969 311.307 134.984L231.505 194.885C220.828 202.901 218.672 218.057 226.687 228.734C234.703 239.417 249.859 241.573 260.536 233.557Z" fill="#604428"/>
</g>
</g>
</g>
<mask id="mask84_47_13839" style="mask-type:luminance" maskUnits="userSpaceOnUse" x="220" y="129" width="131" height="110">
<path d="M220.333 129.667H351V239H220.333V129.667Z" fill="white"/>
</mask>
<g mask="url(#mask84_47_13839)">
<mask id="mask85_47_13839" style="mask-type:luminance" maskUnits="userSpaceOnUse" x="211" y="119" width="150" height="130">
<path d="M211.839 209.349L331 119.896L360.417 159.083L241.256 248.536L211.839 209.349Z" fill="white"/>
</mask>
<g mask="url(#mask85_47_13839)">
<mask id="mask86_47_13839" style="mask-type:luminance" maskUnits="userSpaceOnUse" x="211" y="120" width="150" height="129">
<path d="M330.688 120.13L211.526 209.583L240.943 248.771L360.104 159.318L330.688 120.13Z" fill="white"/>
</mask>
<g mask="url(#mask86_47_13839)">
<path d="M260.683 233.745L340.479 173.844C351.25 165.76 353.433 150.432 345.349 139.661C337.261 128.891 321.938 126.708 311.167 134.797L231.365 194.698C220.594 202.781 218.412 218.104 226.5 228.88C234.584 239.651 249.906 241.833 260.683 233.745ZM311.448 135.172C322.016 127.24 337.042 129.38 344.969 139.948C352.901 150.51 350.761 165.536 340.198 173.469L260.396 233.37C249.834 241.302 234.808 239.161 226.875 228.594C218.943 218.031 221.084 203.005 231.651 195.073L311.448 135.172Z" fill="#604428"/>
</g>
</g>
</g>
<mask id="mask87_47_13839" style="mask-type:luminance" maskUnits="userSpaceOnUse" x="39" y="47" width="54" height="76">
<path d="M39 47H92.3333V123H39V47Z" fill="white"/>
</mask>
<g mask="url(#mask87_47_13839)">
<mask id="mask88_47_13839" style="mask-type:luminance" maskUnits="userSpaceOnUse" x="-11" y="31" width="114" height="125">
<path d="M-10.7031 46.1927L85.1146 31.099L102.391 140.75L6.57292 155.844L-10.7031 46.1927Z" fill="white"/>
</mask>
<g mask="url(#mask88_47_13839)">
<mask id="mask89_47_13839" style="mask-type:luminance" maskUnits="userSpaceOnUse" x="-11" y="31" width="114" height="125">
<path d="M-10.7031 46.1927L85.1146 31.099L102.391 140.75L6.57292 155.844L-10.7031 46.1927Z" fill="white"/>
</mask>
<g mask="url(#mask89_47_13839)">
<path d="M50.5105 47.4271L52.3282 94.8542C51.724 94.849 51.1095 94.9011 50.4845 95.0209C49.2553 95.2396 48.0313 95.6823 46.8542 96.3334C41.849 99.0834 39.172 104.651 40.7657 109C41.974 112.328 45.4584 114.141 49.422 113.516C49.5053 113.5 49.5886 113.49 49.672 113.474C50.9063 113.25 52.1303 112.807 53.3074 112.156C57.3438 109.938 59.9897 105.787 59.9011 101.792L58.4584 64.3334L82.599 72.6719L83.7761 103.109C83.1876 103.109 82.573 103.167 81.9845 103.276C80.7553 103.495 79.5365 103.938 78.3542 104.583C73.3542 107.339 70.6772 112.901 72.2657 117.26C73.4792 120.583 76.9584 122.396 80.9272 121.771C81.0105 121.76 81.0886 121.745 81.1772 121.729C82.4063 121.505 83.6303 121.063 84.8126 120.411C88.8386 118.198 91.4688 114.068 91.3542 110.12L89.4272 60.0782L50.5105 47.4271Z" fill="#53BCEA"/>
</g>
</g>
</g>
<mask id="mask90_47_13839" style="mask-type:luminance" maskUnits="userSpaceOnUse" x="0" y="77" width="38" height="78">
<path d="M0.333496 77.6666H37.6668V155H0.333496V77.6666Z" fill="white"/>
</mask>
<g mask="url(#mask90_47_13839)">
<mask id="mask91_47_13839" style="mask-type:luminance" maskUnits="userSpaceOnUse" x="-11" y="31" width="114" height="125">
<path d="M-10.7031 46.1926L85.1146 31.0989L102.391 140.75L6.57292 155.844L-10.7031 46.1926Z" fill="white"/>
</mask>
<g mask="url(#mask91_47_13839)">
<mask id="mask92_47_13839" style="mask-type:luminance" maskUnits="userSpaceOnUse" x="-11" y="31" width="114" height="125">
<path d="M-10.7031 46.1926L85.1146 31.0989L102.391 140.75L6.57292 155.844L-10.7031 46.1926Z" fill="white"/>
</mask>
<g mask="url(#mask92_47_13839)">
<path d="M25.0573 90.2551C24.2083 89.7811 23.3021 89.3384 22.2812 88.9009C21.8177 88.703 21.3541 88.5155 20.9062 88.3488C20.3802 88.1561 19.9062 87.9947 19.4635 87.8541C18.9114 87.677 18.3698 87.5155 17.8385 87.3541C16.7135 87.0155 15.6562 86.6978 14.7239 86.3124C13.4948 85.8176 12.5521 85.2082 11.9323 84.5051C11.75 84.302 11.3541 83.7291 11.0312 83.2655L10.5104 82.5259C10.026 81.8332 9.47915 81.052 8.46873 80.0728C7.46352 79.0988 6.10936 78.6666 4.75519 78.8801C4.22394 78.9634 3.71352 79.1405 3.24998 79.4113C3.06769 79.5155 2.89061 79.6301 2.71352 79.7655C0.927063 81.1405 0.229147 83.6353 1.01561 85.8384L17.9896 128.364C16.9791 128.641 15.9791 129.062 15.0104 129.62C13.5729 130.448 12.2448 131.542 11.0573 132.875C6.02602 138.536 5.11456 146.646 8.98956 151.333C11.0364 153.807 14.1406 154.927 17.5 154.396C18.9427 154.172 20.375 153.651 21.7552 152.859C23.1979 152.031 24.5312 150.932 25.7187 149.599C29.776 145.021 31.2448 138.698 29.3646 133.833L14.3958 96.3384C14.8906 96.4322 15.3698 96.5155 15.8489 96.5988C16.3489 96.6926 16.8437 96.7759 17.2812 96.8645L18.4375 97.1145C18.8854 97.2291 19.2291 97.3228 19.5364 97.4113C20.25 97.6249 20.9531 97.8749 21.6406 98.1561C24.6041 99.3645 26.8594 101.161 28.3541 103.521C29.9635 105.995 30.7969 109.385 30.7083 113.099C30.6875 114.516 31.6823 115.729 33.0364 115.927C33.6146 116.005 34.2083 115.896 34.7396 115.594C35.5 115.156 36.0052 114.385 36.125 113.5C36.8073 108.505 36.1302 103.614 34.2187 99.7395C32.3333 95.8593 29.1666 92.5832 25.0573 90.2551Z" fill="#53BCEA"/>
</g>
</g>
</g>
<mask id="mask93_47_13839" style="mask-type:luminance" maskUnits="userSpaceOnUse" x="19" y="39" width="22" height="42">
<path d="M19 39H40.3333V80.3333H19V39Z" fill="white"/>
</mask>
<g mask="url(#mask93_47_13839)">
<mask id="mask94_47_13839" style="mask-type:luminance" maskUnits="userSpaceOnUse" x="-11" y="31" width="114" height="125">
<path d="M-10.7031 46.1927L85.1146 31.099L102.391 140.75L6.57292 155.844L-10.7031 46.1927Z" fill="white"/>
</mask>
<g mask="url(#mask94_47_13839)">
<mask id="mask95_47_13839" style="mask-type:luminance" maskUnits="userSpaceOnUse" x="-11" y="31" width="114" height="125">
<path d="M-10.7031 46.1927L85.1146 31.099L102.391 140.75L6.57292 155.844L-10.7031 46.1927Z" fill="white"/>
</mask>
<g mask="url(#mask95_47_13839)">
<path d="M37.3696 49.0885C37.0311 48.7135 36.6665 48.3489 36.2394 47.9635C36.0467 47.7917 35.854 47.625 35.6613 47.4687C35.4373 47.2864 35.2342 47.1302 35.0415 46.9844C34.8019 46.8125 34.5675 46.6406 34.3331 46.4739C33.8436 46.1198 33.38 45.7917 32.9894 45.4479C32.4738 45 32.1196 44.5521 31.9321 44.1042C31.8748 43.9739 31.7811 43.6302 31.6977 43.3489L31.5675 42.901C31.4477 42.4844 31.3071 42.0104 30.9842 41.3698C30.6561 40.7239 30.0675 40.2917 29.3696 40.1667C29.0988 40.1198 28.8227 40.125 28.5467 40.1771C28.4425 40.1979 28.3384 40.2239 28.229 40.2604C27.13 40.6302 26.3748 41.7344 26.3904 42.9375L27.5884 66.4687C27.0467 66.4375 26.4946 66.4792 25.9269 66.5885C25.0884 66.7552 24.2602 67.0625 23.4634 67.5156C20.0675 69.4375 18.2759 73.2344 19.38 76.1614C19.9686 77.7083 21.2915 78.7708 23.0206 79.0677C23.755 79.1979 24.5415 79.1875 25.3488 79.026C26.1873 78.8646 27.0154 78.5521 27.8175 78.0989C30.5571 76.5469 32.3227 73.7135 32.2186 71.026L31.1613 50.276C31.3852 50.401 31.6092 50.526 31.8279 50.6458C32.0571 50.7708 32.2811 50.8958 32.479 51.0104L32.9998 51.3281C33.2029 51.4583 33.354 51.5573 33.4842 51.651C33.8019 51.875 34.104 52.1146 34.3904 52.3646C35.63 53.4479 36.4321 54.6979 36.7654 56.0989C37.1404 57.5677 36.979 59.3594 36.3175 61.151C36.0727 61.8385 36.3592 62.5989 36.979 62.9167C37.2498 63.0521 37.5571 63.0989 37.8696 63.0364C38.3123 62.9531 38.6873 62.6614 38.8904 62.2448C40.0519 59.9271 40.5363 57.4323 40.255 55.2292C39.979 53.026 38.979 50.9062 37.3696 49.0885Z" fill="#53BCEA"/>
</g>
</g>
</g>
<mask id="mask96_47_13839" style="mask-type:luminance" maskUnits="userSpaceOnUse" x="204" y="159" width="37" height="23">
<path d="M204.333 159H240.333V181.667H204.333V159Z" fill="white"/>
</mask>
<g mask="url(#mask96_47_13839)">
<mask id="mask97_47_13839" style="mask-type:luminance" maskUnits="userSpaceOnUse" x="201" y="154" width="41" height="32">
<path d="M201.859 168.323L235.286 154.958L241.969 171.667L208.542 185.036L201.859 168.323Z" fill="white"/>
</mask>
<g mask="url(#mask97_47_13839)">
<mask id="mask98_47_13839" style="mask-type:luminance" maskUnits="userSpaceOnUse" x="201" y="154" width="41" height="32">
<path d="M201.859 168.323L235.286 154.958L241.969 171.667L208.542 185.036L201.859 168.323Z" fill="white"/>
</mask>
<g mask="url(#mask98_47_13839)">
<path d="M239.135 163.286C239.359 163.844 239.474 164.437 239.474 165.073C239.474 165.703 239.364 166.365 239.146 167.047C238.927 167.734 238.604 168.432 238.167 169.141C237.734 169.854 237.208 170.562 236.578 171.271C235.948 171.979 235.234 172.672 234.432 173.354C233.63 174.031 232.76 174.687 231.818 175.307C230.875 175.932 229.88 176.516 228.833 177.062C227.786 177.609 226.708 178.104 225.594 178.547C224.484 178.995 223.359 179.38 222.224 179.708C221.088 180.031 219.969 180.297 218.854 180.495C217.739 180.693 216.661 180.818 215.609 180.88C214.562 180.937 213.568 180.932 212.625 180.849C211.677 180.771 210.807 180.625 210 180.406C209.198 180.187 208.479 179.911 207.849 179.562C207.219 179.219 206.682 178.818 206.25 178.359C205.812 177.896 205.484 177.391 205.26 176.833C205.036 176.276 204.927 175.677 204.927 175.047C204.922 174.411 205.031 173.75 205.25 173.068C205.469 172.38 205.797 171.682 206.229 170.974C206.661 170.26 207.193 169.552 207.823 168.844C208.453 168.135 209.167 167.443 209.969 166.76C210.765 166.083 211.64 165.432 212.583 164.807C213.526 164.182 214.521 163.599 215.568 163.052C216.614 162.51 217.693 162.016 218.807 161.568C219.917 161.125 221.042 160.74 222.177 160.411C223.307 160.083 224.432 159.823 225.547 159.625C226.656 159.427 227.739 159.297 228.786 159.234C229.833 159.177 230.833 159.187 231.776 159.266C232.719 159.344 233.594 159.495 234.396 159.708C235.198 159.927 235.917 160.208 236.547 160.552C237.182 160.896 237.713 161.297 238.151 161.76C238.583 162.219 238.917 162.729 239.135 163.286Z" fill="#FCD590"/>
</g>
</g>
</g>
<mask id="mask99_47_13839" style="mask-type:luminance" maskUnits="userSpaceOnUse" x="189" y="160" width="37" height="22">
<path d="M189.667 160.333H225.667V181.667H189.667V160.333Z" fill="white"/>
</mask>
<g mask="url(#mask99_47_13839)">
<mask id="mask100_47_13839" style="mask-type:luminance" maskUnits="userSpaceOnUse" x="187" y="156" width="40" height="29">
<path d="M192.917 156.245L227 167.833L221.208 184.875L187.125 173.287L192.917 156.245Z" fill="white"/>
</mask>
<g mask="url(#mask100_47_13839)">
<mask id="mask101_47_13839" style="mask-type:luminance" maskUnits="userSpaceOnUse" x="187" y="156" width="40" height="29">
<path d="M192.917 156.245L227 167.833L221.208 184.875L187.125 173.287L192.917 156.245Z" fill="white"/>
</mask>
<g mask="url(#mask101_47_13839)">
<path d="M224.511 176.667C224.318 177.234 224.016 177.761 223.604 178.24C223.193 178.724 222.683 179.151 222.068 179.531C221.459 179.906 220.755 180.224 219.964 180.484C219.177 180.74 218.313 180.938 217.37 181.068C216.433 181.193 215.438 181.255 214.391 181.25C213.339 181.245 212.25 181.177 211.13 181.037C210.011 180.896 208.875 180.693 207.724 180.427C206.573 180.162 205.433 179.833 204.297 179.448C203.162 179.063 202.058 178.625 200.985 178.136C199.912 177.646 198.886 177.115 197.912 176.542C196.938 175.969 196.031 175.365 195.198 174.729C194.36 174.089 193.61 173.438 192.948 172.761C192.281 172.089 191.714 171.406 191.245 170.719C190.776 170.031 190.412 169.354 190.156 168.682C189.901 168.005 189.761 167.354 189.724 166.724C189.693 166.089 189.776 165.49 189.969 164.922C190.162 164.354 190.464 163.828 190.875 163.344C191.287 162.865 191.797 162.432 192.412 162.052C193.021 161.677 193.724 161.359 194.516 161.099C195.308 160.844 196.172 160.646 197.11 160.521C198.047 160.391 199.042 160.328 200.094 160.333C201.141 160.339 202.229 160.412 203.349 160.547C204.469 160.688 205.61 160.891 206.755 161.156C207.906 161.422 209.047 161.75 210.183 162.136C211.318 162.521 212.422 162.958 213.495 163.448C214.573 163.938 215.594 164.469 216.568 165.042C217.542 165.615 218.448 166.219 219.281 166.859C220.12 167.495 220.87 168.151 221.531 168.823C222.198 169.5 222.766 170.177 223.235 170.865C223.703 171.552 224.068 172.234 224.323 172.906C224.578 173.578 224.724 174.229 224.755 174.865C224.787 175.495 224.703 176.094 224.511 176.667Z" fill="#FCD590"/>
</g>
</g>
</g>
<mask id="mask102_47_13839" style="mask-type:luminance" maskUnits="userSpaceOnUse" x="188" y="163" width="35" height="22">
<path d="M188.333 163H223V184.333H188.333V163Z" fill="white"/>
</mask>
<g mask="url(#mask102_47_13839)">
<mask id="mask103_47_13839" style="mask-type:luminance" maskUnits="userSpaceOnUse" x="185" y="159" width="40" height="29">
<path d="M191.75 159.677L224.891 170.943L219.094 187.984L185.958 176.719L191.75 159.677Z" fill="white"/>
</mask>
<g mask="url(#mask103_47_13839)">
<mask id="mask104_47_13839" style="mask-type:luminance" maskUnits="userSpaceOnUse" x="185" y="159" width="40" height="29">
<path d="M191.75 159.677L224.891 170.943L219.094 187.984L185.958 176.719L191.75 159.677Z" fill="white"/>
</mask>
<g mask="url(#mask104_47_13839)">
<path d="M221.979 179.214C221.792 179.755 221.505 180.26 221.11 180.719C220.719 181.182 220.229 181.594 219.641 181.953C219.057 182.313 218.386 182.62 217.63 182.865C216.87 183.115 216.047 183.297 215.146 183.422C214.25 183.547 213.297 183.604 212.292 183.599C211.287 183.599 210.25 183.526 209.177 183.396C208.104 183.26 207.016 183.068 205.917 182.813C204.818 182.557 203.724 182.245 202.641 181.875C201.552 181.505 200.495 181.089 199.469 180.62C198.443 180.151 197.459 179.646 196.531 179.094C195.599 178.547 194.729 177.969 193.932 177.359C193.13 176.75 192.417 176.125 191.776 175.479C191.141 174.833 190.599 174.182 190.151 173.526C189.703 172.865 189.354 172.219 189.11 171.573C188.865 170.927 188.729 170.307 188.698 169.698C188.667 169.094 188.745 168.521 188.927 167.974C189.115 167.432 189.401 166.927 189.797 166.469C190.188 166.005 190.677 165.594 191.266 165.234C191.849 164.875 192.521 164.568 193.281 164.323C194.037 164.073 194.865 163.891 195.761 163.766C196.656 163.641 197.61 163.583 198.615 163.589C199.62 163.589 200.656 163.661 201.729 163.792C202.807 163.927 203.891 164.12 204.99 164.375C206.094 164.63 207.182 164.943 208.271 165.313C209.354 165.682 210.412 166.099 211.438 166.568C212.469 167.036 213.448 167.542 214.38 168.094C215.313 168.641 216.177 169.219 216.974 169.828C217.776 170.438 218.495 171.063 219.13 171.708C219.766 172.354 220.307 173.005 220.755 173.661C221.209 174.323 221.552 174.969 221.797 175.615C222.042 176.26 222.177 176.88 222.209 177.49C222.24 178.094 222.162 178.667 221.979 179.214Z" fill="#FFB93E"/>
</g>
</g>
</g>
<mask id="mask105_47_13839" style="mask-type:luminance" maskUnits="userSpaceOnUse" x="205" y="161" width="37" height="24">
<path d="M205.667 161.667H241.667V184.333H205.667V161.667Z" fill="white"/>
</mask>
<g mask="url(#mask105_47_13839)">
<mask id="mask106_47_13839" style="mask-type:luminance" maskUnits="userSpaceOnUse" x="203" y="158" width="41" height="31">
<path d="M203.203 171.693L236.63 158.323L243.318 175.036L209.891 188.401L203.203 171.693Z" fill="white"/>
</mask>
<g mask="url(#mask106_47_13839)">
<mask id="mask107_47_13839" style="mask-type:luminance" maskUnits="userSpaceOnUse" x="203" y="158" width="41" height="31">
<path d="M203.203 171.693L236.63 158.323L243.318 175.036L209.891 188.401L203.203 171.693Z" fill="white"/>
</mask>
<g mask="url(#mask107_47_13839)">
<path d="M240.485 166.651C240.708 167.208 240.818 167.807 240.823 168.437C240.823 169.073 240.714 169.734 240.495 170.417C240.276 171.104 239.948 171.802 239.516 172.51C239.083 173.224 238.552 173.932 237.922 174.641C237.297 175.349 236.578 176.042 235.781 176.724C234.979 177.401 234.104 178.052 233.167 178.677C232.224 179.302 231.229 179.885 230.182 180.432C229.136 180.974 228.052 181.469 226.943 181.917C225.828 182.359 224.703 182.745 223.573 183.073C222.438 183.401 221.313 183.661 220.203 183.859C219.089 184.057 218.005 184.187 216.958 184.25C215.912 184.307 214.912 184.297 213.969 184.219C213.026 184.141 212.151 183.99 211.349 183.776C210.547 183.557 209.828 183.276 209.198 182.932C208.563 182.589 208.031 182.187 207.594 181.724C207.162 181.266 206.833 180.755 206.61 180.198C206.386 179.641 206.271 179.047 206.271 178.411C206.271 177.781 206.38 177.12 206.599 176.437C206.818 175.75 207.146 175.052 207.578 174.344C208.011 173.63 208.542 172.922 209.167 172.214C209.797 171.505 210.511 170.807 211.313 170.13C212.115 169.453 212.985 168.797 213.927 168.177C214.87 167.552 215.865 166.969 216.912 166.422C217.958 165.875 219.042 165.38 220.151 164.937C221.266 164.49 222.386 164.104 223.521 163.776C224.656 163.453 225.781 163.187 226.891 162.99C228.005 162.792 229.083 162.667 230.136 162.604C231.182 162.547 232.177 162.552 233.125 162.635C234.068 162.714 234.943 162.859 235.745 163.078C236.547 163.297 237.266 163.573 237.896 163.922C238.526 164.266 239.063 164.667 239.495 165.125C239.932 165.589 240.261 166.094 240.485 166.651Z" fill="#FFB93E"/>
</g>
</g>
</g>
</svg>
