<svg width="347" height="325" viewBox="0 0 347 325" fill="none" xmlns="http://www.w3.org/2000/svg">
<mask id="mask0_47_13837" style="mask-type:luminance" maskUnits="userSpaceOnUse" x="11" y="146" width="112" height="88">
<path d="M11 146H123V234H11V146Z" fill="white"/>
</mask>
<g mask="url(#mask0_47_13837)">
<mask id="mask1_47_13837" style="mask-type:luminance" maskUnits="userSpaceOnUse" x="4" y="138" width="127" height="104">
<path d="M26.9426 138.25L130.708 207.943L107.849 241.979L4.08325 172.286L26.9426 138.25Z" fill="white"/>
</mask>
<g mask="url(#mask1_47_13837)">
<mask id="mask2_47_13837" style="mask-type:luminance" maskUnits="userSpaceOnUse" x="4" y="138" width="127" height="104">
<path d="M26.9426 138.25L130.708 207.943L107.849 241.979L4.08325 172.286L26.9426 138.25Z" fill="white"/>
</mask>
<g mask="url(#mask2_47_13837)">
<path d="M90.8906 230.469L21.1927 183.656C11.8697 177.391 9.38536 164.75 15.6458 155.422C21.9114 146.094 34.552 143.615 43.8801 149.875L113.578 196.688C122.906 202.953 125.391 215.594 119.125 224.922C112.859 234.245 100.219 236.729 90.8906 230.469Z" fill="#604428"/>
</g>
</g>
</g>
<mask id="mask3_47_13837" style="mask-type:luminance" maskUnits="userSpaceOnUse" x="11" y="146" width="112" height="90">
<path d="M11 146H123V235.333H11V146Z" fill="white"/>
</mask>
<g mask="url(#mask3_47_13837)">
<mask id="mask4_47_13837" style="mask-type:luminance" maskUnits="userSpaceOnUse" x="4" y="138" width="127" height="104">
<path d="M26.9426 138.25L130.708 207.943L107.849 241.979L4.08325 172.286L26.9426 138.25Z" fill="white"/>
</mask>
<g mask="url(#mask4_47_13837)">
<mask id="mask5_47_13837" style="mask-type:luminance" maskUnits="userSpaceOnUse" x="4" y="138" width="127" height="104">
<path d="M26.9426 138.25L130.708 207.943L107.849 241.979L4.08325 172.286L26.9426 138.25Z" fill="white"/>
</mask>
<g mask="url(#mask5_47_13837)">
<path d="M90.7812 230.63L21.0833 183.818C11.6718 177.5 9.16139 164.719 15.4843 155.313C21.802 145.901 34.5833 143.391 43.9895 149.714L113.687 196.526C123.099 202.844 125.609 215.625 119.292 225.031C112.969 234.443 100.187 236.953 90.7812 230.63ZM43.7708 150.042C34.5416 143.844 22.0103 146.307 15.8124 155.531C9.61452 164.76 12.0781 177.292 21.302 183.49L91.0051 230.302C100.229 236.5 112.76 234.036 118.958 224.813C125.156 215.583 122.698 203.052 113.469 196.854L43.7708 150.042Z" fill="#604428"/>
</g>
</g>
</g>
<mask id="mask6_47_13837" style="mask-type:luminance" maskUnits="userSpaceOnUse" x="4" y="98" width="134" height="106">
<path d="M4.33325 98H137.667V203.333H4.33325V98Z" fill="white"/>
</mask>
<g mask="url(#mask6_47_13837)">
<mask id="mask7_47_13837" style="mask-type:luminance" maskUnits="userSpaceOnUse" x="-5" y="89" width="152" height="125">
<path d="M22.8697 89.349L146.562 172.422L119.245 213.099L-4.448 130.026L22.8697 89.349Z" fill="white"/>
</mask>
<g mask="url(#mask7_47_13837)">
<mask id="mask8_47_13837" style="mask-type:luminance" maskUnits="userSpaceOnUse" x="-5" y="89" width="152" height="125">
<path d="M22.8697 89.349L146.562 172.422L119.245 213.099L-4.448 130.026L22.8697 89.349Z" fill="white"/>
</mask>
<g mask="url(#mask8_47_13837)">
<path d="M98.8747 198.938L16.0414 143.307C4.95806 135.859 2.00493 120.839 9.45285 109.755C16.8956 98.6667 31.9216 95.7188 43.0049 103.161L125.833 158.797C136.916 166.24 139.87 181.266 132.427 192.349C124.984 203.432 109.958 206.38 98.8747 198.938Z" fill="#604428"/>
<path d="M98.7446 199.135L15.9113 143.5C4.72898 135.99 1.74461 120.802 9.25502 109.62C16.7654 98.4375 31.9529 95.4583 43.1352 102.964L125.969 158.599C137.146 166.109 140.13 181.297 132.62 192.479C125.114 203.661 109.922 206.646 98.7446 199.135ZM42.8696 103.359C31.9061 95.9948 17.0102 98.9167 9.64565 109.885C2.28107 120.849 5.20815 135.745 16.1717 143.109L99.005 198.745C109.969 206.109 124.864 203.182 132.229 192.214C139.594 181.25 136.672 166.354 125.703 158.99L42.8696 103.359Z" fill="#604428"/>
</g>
</g>
</g>
<mask id="mask9_47_13837" style="mask-type:luminance" maskUnits="userSpaceOnUse" x="1" y="58" width="133" height="106">
<path d="M1.66675 58H133.667V163.333H1.66675V58Z" fill="white"/>
</mask>
<g mask="url(#mask9_47_13837)">
<mask id="mask10_47_13837" style="mask-type:luminance" maskUnits="userSpaceOnUse" x="-8" y="49" width="152" height="124">
<path d="M19.4012 49.224L143.094 132.302L115.771 172.979L-7.9165 89.9011L19.4012 49.224Z" fill="white"/>
</mask>
<g mask="url(#mask10_47_13837)">
<mask id="mask11_47_13837" style="mask-type:luminance" maskUnits="userSpaceOnUse" x="-8" y="49" width="152" height="124">
<path d="M19.4012 49.224L143.094 132.302L115.771 172.979L-7.9165 89.9011L19.4012 49.224Z" fill="white"/>
</mask>
<g mask="url(#mask11_47_13837)">
<path d="M95.4013 158.818L12.5732 103.182C1.48986 95.7396 -1.46327 80.7136 5.97944 69.6303C13.4221 58.5469 28.4482 55.5938 39.5315 63.0417L122.365 118.672C133.448 126.115 136.401 141.141 128.953 152.224C121.511 163.307 106.485 166.26 95.4013 158.818Z" fill="#604428"/>
</g>
</g>
</g>
<mask id="mask12_47_13837" style="mask-type:luminance" maskUnits="userSpaceOnUse" x="0" y="58" width="134" height="106">
<path d="M0.333252 58H133.667V163.333H0.333252V58Z" fill="white"/>
</mask>
<g mask="url(#mask12_47_13837)">
<mask id="mask13_47_13837" style="mask-type:luminance" maskUnits="userSpaceOnUse" x="-8" y="49" width="152" height="124">
<path d="M19.401 49.224L143.094 132.302L115.771 172.979L-7.91675 89.9011L19.401 49.224Z" fill="white"/>
</mask>
<g mask="url(#mask13_47_13837)">
<mask id="mask14_47_13837" style="mask-type:luminance" maskUnits="userSpaceOnUse" x="-8" y="49" width="152" height="124">
<path d="M19.401 49.224L143.094 132.302L115.771 172.979L-7.91675 89.9011L19.401 49.224Z" fill="white"/>
</mask>
<g mask="url(#mask14_47_13837)">
<path d="M95.2707 159.01L12.4373 103.38C1.26026 95.8698 -1.72412 80.6823 5.7863 69.5C13.2915 58.3177 28.4842 55.3334 39.6665 62.8438L122.495 118.479C133.677 125.984 136.661 141.177 129.151 152.354C121.64 163.536 106.453 166.521 95.2707 159.01ZM39.4009 63.2344C28.4373 55.8698 13.5415 58.7969 6.17693 69.7604C-1.18766 80.7292 1.73422 95.6198 12.703 102.99L95.5363 158.62C106.5 165.984 121.396 163.057 128.76 152.094C136.125 141.13 133.198 126.234 122.234 118.87L39.4009 63.2344Z" fill="#604428"/>
</g>
</g>
</g>
<mask id="mask15_47_13837" style="mask-type:luminance" maskUnits="userSpaceOnUse" x="232" y="146" width="109" height="94">
<path d="M232.333 146H340.333V239.333H232.333V146Z" fill="white"/>
</mask>
<g mask="url(#mask15_47_13837)">
<mask id="mask16_47_13837" style="mask-type:luminance" maskUnits="userSpaceOnUse" x="224" y="137" width="125" height="110">
<path d="M224.823 214.578L323.25 137.531L348.526 169.812L250.094 246.865L224.823 214.578Z" fill="white"/>
</mask>
<g mask="url(#mask16_47_13837)">
<mask id="mask17_47_13837" style="mask-type:luminance" maskUnits="userSpaceOnUse" x="224" y="137" width="125" height="110">
<path d="M323.286 137.5L224.859 214.552L250.135 246.833L348.562 169.786L323.286 137.5Z" fill="white"/>
</mask>
<g mask="url(#mask17_47_13837)">
<path d="M266.208 234.125L332.323 182.37C341.172 175.443 342.729 162.656 335.802 153.807C328.88 144.964 316.088 143.401 307.239 150.328L241.13 202.083C232.281 209.005 230.724 221.797 237.651 230.641C244.573 239.49 257.364 241.047 266.208 234.125Z" fill="#604428"/>
</g>
</g>
</g>
<mask id="mask18_47_13837" style="mask-type:luminance" maskUnits="userSpaceOnUse" x="232" y="144" width="109" height="96">
<path d="M232.333 144.667H340.333V239.333H232.333V144.667Z" fill="white"/>
</mask>
<g mask="url(#mask18_47_13837)">
<mask id="mask19_47_13837" style="mask-type:luminance" maskUnits="userSpaceOnUse" x="224" y="137" width="125" height="110">
<path d="M224.823 214.578L323.25 137.531L348.526 169.812L250.094 246.865L224.823 214.578Z" fill="white"/>
</mask>
<g mask="url(#mask19_47_13837)">
<mask id="mask20_47_13837" style="mask-type:luminance" maskUnits="userSpaceOnUse" x="224" y="137" width="125" height="110">
<path d="M323.286 137.5L224.859 214.552L250.135 246.833L348.562 169.786L323.286 137.5Z" fill="white"/>
</mask>
<g mask="url(#mask20_47_13837)">
<path d="M266.333 234.281L332.448 182.526C341.37 175.536 342.943 162.609 335.958 153.687C328.974 144.76 316.042 143.187 307.12 150.172L241.005 201.927C232.083 208.911 230.505 221.839 237.495 230.766C244.479 239.687 257.411 241.266 266.333 234.281ZM307.364 150.484C316.114 143.635 328.797 145.177 335.646 153.932C342.5 162.682 340.953 175.359 332.203 182.214L266.088 233.969C257.338 240.818 244.656 239.271 237.807 230.521C230.953 221.771 232.5 209.089 241.25 202.24L307.364 150.484Z" fill="#604428"/>
</g>
</g>
</g>
<mask id="mask21_47_13837" style="mask-type:luminance" maskUnits="userSpaceOnUse" x="213" y="99" width="129" height="113">
<path d="M213.667 99.3334H341.667V211.333H213.667V99.3334Z" fill="white"/>
</mask>
<g mask="url(#mask21_47_13837)">
<mask id="mask22_47_13837" style="mask-type:luminance" maskUnits="userSpaceOnUse" x="204" y="90" width="148" height="131">
<path d="M204.203 182.052L321.531 90.2084L351.734 128.792L234.411 220.635L204.203 182.052Z" fill="white"/>
</mask>
<g mask="url(#mask22_47_13837)">
<mask id="mask23_47_13837" style="mask-type:luminance" maskUnits="userSpaceOnUse" x="203" y="90" width="149" height="131">
<path d="M321.224 90.448L203.896 182.292L234.099 220.875L351.427 129.031L321.224 90.448Z" fill="white"/>
</mask>
<g mask="url(#mask23_47_13837)">
<path d="M253.385 205.271L331.958 143.766C342.469 135.536 344.323 120.339 336.094 109.823C327.864 99.3125 312.661 97.4583 302.151 105.687L223.578 167.193C213.068 175.427 211.213 190.625 219.443 201.135C227.672 211.651 242.875 213.5 253.385 205.271Z" fill="#604428"/>
<path d="M253.531 205.458L332.104 143.953C342.708 135.651 344.578 120.286 336.276 109.677C327.974 99.0729 312.609 97.2031 302.005 105.505L223.432 167.01C212.828 175.313 210.958 190.677 219.26 201.281C227.562 211.891 242.927 213.76 253.531 205.458ZM302.297 105.875C312.698 97.7344 327.766 99.5677 335.906 109.969C344.047 120.37 342.213 135.438 331.812 143.583L253.24 205.089C242.838 213.229 227.771 211.396 219.63 200.99C211.49 190.589 213.323 175.521 223.724 167.38L302.297 105.875Z" fill="#604428"/>
</g>
</g>
</g>
<mask id="mask24_47_13837" style="mask-type:luminance" maskUnits="userSpaceOnUse" x="217" y="56" width="129" height="112">
<path d="M217.667 56.6666H345.667V167.333H217.667V56.6666Z" fill="white"/>
</mask>
<g mask="url(#mask24_47_13837)">
<mask id="mask25_47_13837" style="mask-type:luminance" maskUnits="userSpaceOnUse" x="208" y="46" width="149" height="132">
<path d="M208.599 138.771L325.927 46.927L356.13 85.5103L238.802 177.354L208.599 138.771Z" fill="white"/>
</mask>
<g mask="url(#mask25_47_13837)">
<mask id="mask26_47_13837" style="mask-type:luminance" maskUnits="userSpaceOnUse" x="208" y="47" width="148" height="131">
<path d="M325.62 47.1666L208.292 139.01L238.495 177.599L355.823 85.75L325.62 47.1666Z" fill="white"/>
</mask>
<g mask="url(#mask26_47_13837)">
<path d="M257.781 161.99L336.349 100.484C346.865 92.2552 348.714 77.0573 340.485 66.5416C332.255 56.0312 317.057 54.177 306.542 62.4062L227.974 123.917C217.459 132.146 215.61 147.344 223.839 157.854C232.068 168.37 247.266 170.224 257.781 161.99Z" fill="#604428"/>
</g>
</g>
</g>
<mask id="mask27_47_13837" style="mask-type:luminance" maskUnits="userSpaceOnUse" x="217" y="56" width="130" height="113">
<path d="M217.667 56.6666H347V168.667H217.667V56.6666Z" fill="white"/>
</mask>
<g mask="url(#mask27_47_13837)">
<mask id="mask28_47_13837" style="mask-type:luminance" maskUnits="userSpaceOnUse" x="208" y="46" width="149" height="132">
<path d="M208.599 138.771L325.927 46.927L356.13 85.5103L238.802 177.354L208.599 138.771Z" fill="white"/>
</mask>
<g mask="url(#mask28_47_13837)">
<mask id="mask29_47_13837" style="mask-type:luminance" maskUnits="userSpaceOnUse" x="208" y="47" width="148" height="131">
<path d="M325.62 47.1666L208.292 139.01L238.495 177.599L355.823 85.75L325.62 47.1666Z" fill="white"/>
</mask>
<g mask="url(#mask29_47_13837)">
<path d="M257.927 162.177L336.495 100.672C347.104 92.3698 348.974 77.0052 340.672 66.3959C332.37 55.7917 317.005 53.9219 306.396 62.224L227.828 123.729C217.224 132.031 215.349 147.396 223.651 158C231.953 168.609 247.323 170.479 257.927 162.177ZM306.688 62.5938C317.089 54.4531 332.156 56.2865 340.302 66.6875C348.443 77.0886 346.61 92.1563 336.208 100.302L257.636 161.807C247.235 169.948 232.167 168.115 224.026 157.714C215.88 147.307 217.719 132.245 228.12 124.099L306.688 62.5938Z" fill="#604428"/>
</g>
</g>
</g>
<mask id="mask30_47_13837" style="mask-type:luminance" maskUnits="userSpaceOnUse" x="212" y="247" width="38" height="53">
<path d="M212.333 247.333H249.667V299.333H212.333V247.333Z" fill="white"/>
</mask>
<g mask="url(#mask30_47_13837)">
<mask id="mask31_47_13837" style="mask-type:luminance" maskUnits="userSpaceOnUse" x="210" y="247" width="41" height="54">
<path d="M244.208 300.323L210.792 251.698L217.385 247.167L250.802 295.792L244.208 300.323Z" fill="white"/>
</mask>
<g mask="url(#mask31_47_13837)">
<mask id="mask32_47_13837" style="mask-type:luminance" maskUnits="userSpaceOnUse" x="210" y="247" width="41" height="54">
<path d="M244.208 300.323L210.792 251.698L217.385 247.167L250.802 295.792L244.208 300.323Z" fill="white"/>
</mask>
<g mask="url(#mask32_47_13837)">
<path d="M213.25 255.24L215.646 258.724L215.651 258.719L239.437 293.333L239.432 293.339L241.828 296.828C243.146 298.75 245.786 299.24 247.708 297.917C249.63 296.594 250.12 293.958 248.797 292.037L220.224 250.448C218.901 248.521 216.271 248.026 214.349 249.349C212.427 250.672 211.927 253.313 213.25 255.24Z" fill="#FCD590"/>
</g>
</g>
</g>
<mask id="mask33_47_13837" style="mask-type:luminance" maskUnits="userSpaceOnUse" x="235" y="280" width="11" height="17">
<path d="M235 280.667H245.667V296.667H235V280.667Z" fill="white"/>
</mask>
<g mask="url(#mask33_47_13837)">
<mask id="mask34_47_13837" style="mask-type:luminance" maskUnits="userSpaceOnUse" x="210" y="247" width="41" height="54">
<path d="M244.208 300.323L210.792 251.698L217.385 247.167L250.802 295.792L244.208 300.323Z" fill="white"/>
</mask>
<g mask="url(#mask34_47_13837)">
<mask id="mask35_47_13837" style="mask-type:luminance" maskUnits="userSpaceOnUse" x="210" y="247" width="41" height="54">
<path d="M244.208 300.323L210.792 251.698L217.385 247.167L250.802 295.792L244.208 300.323Z" fill="white"/>
</mask>
<g mask="url(#mask35_47_13837)">
<path d="M235.255 283.542L243.563 295.63C243.896 296.12 244.552 296.24 245.037 295.906C245.526 295.573 245.646 294.917 245.313 294.432L242.917 290.943L242.906 290.948L237 282.354C236.667 281.87 236.011 281.75 235.526 282.083C235.042 282.417 234.927 283.063 235.255 283.542Z" fill="#FCD590"/>
</g>
</g>
</g>
<mask id="mask36_47_13837" style="mask-type:luminance" maskUnits="userSpaceOnUse" x="95" y="256" width="43" height="49">
<path d="M95 256.667H137.667V304.667H95V256.667Z" fill="white"/>
</mask>
<g mask="url(#mask36_47_13837)">
<mask id="mask37_47_13837" style="mask-type:luminance" maskUnits="userSpaceOnUse" x="93" y="255" width="45" height="51">
<path d="M93.3489 300.203L131.786 255.443L137.854 260.651L99.4218 305.417L93.3489 300.203Z" fill="white"/>
</mask>
<g mask="url(#mask37_47_13837)">
<mask id="mask38_47_13837" style="mask-type:luminance" maskUnits="userSpaceOnUse" x="93" y="255" width="45" height="51">
<path d="M93.3489 300.203L131.786 255.443L137.854 260.651L99.4218 305.417L93.3489 300.203Z" fill="white"/>
</mask>
<g mask="url(#mask38_47_13837)">
<path d="M128.989 258.724L126.234 261.932L126.245 261.938L98.8853 293.807L98.8749 293.797L96.1197 297.005C94.5988 298.776 94.802 301.453 96.5728 302.974C98.3436 304.495 101.021 304.292 102.542 302.521L135.411 264.234C136.932 262.464 136.734 259.797 134.963 258.276C133.198 256.755 130.51 256.953 128.989 258.724Z" fill="#FCD590"/>
</g>
</g>
</g>
<mask id="mask39_47_13837" style="mask-type:luminance" maskUnits="userSpaceOnUse" x="96" y="286" width="14" height="15">
<path d="M96.3333 286H109.667V300.667H96.3333V286Z" fill="white"/>
</mask>
<g mask="url(#mask39_47_13837)">
<mask id="mask40_47_13837" style="mask-type:luminance" maskUnits="userSpaceOnUse" x="93" y="255" width="45" height="51">
<path d="M93.3489 300.203L131.786 255.443L137.854 260.651L99.4218 305.417L93.3489 300.203Z" fill="white"/>
</mask>
<g mask="url(#mask40_47_13837)">
<mask id="mask41_47_13837" style="mask-type:luminance" maskUnits="userSpaceOnUse" x="93" y="255" width="45" height="51">
<path d="M93.3489 300.203L131.786 255.443L137.854 260.651L99.4218 305.417L93.3489 300.203Z" fill="white"/>
</mask>
<g mask="url(#mask41_47_13837)">
<path d="M107.276 287.25L97.7186 298.38C97.3384 298.828 97.3853 299.495 97.8332 299.875C98.2811 300.26 98.9478 300.208 99.328 299.766L102.083 296.552L102.078 296.547L108.87 288.635C109.255 288.188 109.203 287.521 108.755 287.135C108.307 286.755 107.656 286.813 107.276 287.25Z" fill="#FCD590"/>
</g>
</g>
</g>
<mask id="mask42_47_13837" style="mask-type:luminance" maskUnits="userSpaceOnUse" x="87" y="270" width="14" height="55">
<path d="M87 270H100.333V324.667H87V270Z" fill="white"/>
</mask>
<g mask="url(#mask42_47_13837)">
<mask id="mask43_47_13837" style="mask-type:luminance" maskUnits="userSpaceOnUse" x="87" y="270" width="14" height="54">
<path d="M92.5521 323.844L87.1406 271.125L95.099 270.307L100.51 323.031L92.5521 323.844Z" fill="white"/>
</mask>
<g mask="url(#mask43_47_13837)">
<mask id="mask44_47_13837" style="mask-type:luminance" maskUnits="userSpaceOnUse" x="87" y="270" width="14" height="54">
<path d="M92.5521 323.844L87.1406 271.125L95.099 270.307L100.51 323.031L92.5521 323.844Z" fill="white"/>
</mask>
<g mask="url(#mask44_47_13837)">
<path d="M87.5572 275.021L87.9427 278.797H87.9531L91.802 316.292H91.7916L92.177 320.068C92.3906 322.151 94.2604 323.672 96.3437 323.458C98.427 323.245 99.9479 321.375 99.7343 319.292L95.1093 274.245C94.8958 272.167 93.0364 270.646 90.9531 270.859C88.8749 271.073 87.3437 272.937 87.5572 275.021Z" fill="#FCD590"/>
</g>
</g>
</g>
<mask id="mask45_47_13837" style="mask-type:luminance" maskUnits="userSpaceOnUse" x="92" y="304" width="5" height="19">
<path d="M92.3333 304.667H96.3333V322H92.3333V304.667Z" fill="white"/>
</mask>
<g mask="url(#mask45_47_13837)">
<mask id="mask46_47_13837" style="mask-type:luminance" maskUnits="userSpaceOnUse" x="87" y="270" width="14" height="54">
<path d="M92.5521 323.844L87.1406 271.125L95.099 270.307L100.51 323.031L92.5521 323.844Z" fill="white"/>
</mask>
<g mask="url(#mask46_47_13837)">
<mask id="mask47_47_13837" style="mask-type:luminance" maskUnits="userSpaceOnUse" x="87" y="270" width="14" height="54">
<path d="M92.5521 323.844L87.1406 271.125L95.099 270.307L100.51 323.031L92.5521 323.844Z" fill="white"/>
</mask>
<g mask="url(#mask47_47_13837)">
<path d="M92.7188 306.776L94.0626 319.875C94.1146 320.401 94.5782 320.776 95.1042 320.724C95.6303 320.672 96.0105 320.208 95.9584 319.682L95.5678 315.906H95.5574L94.6042 306.594C94.5469 306.068 94.0834 305.693 93.5574 305.745C93.0313 305.797 92.6667 306.26 92.7188 306.776Z" fill="#FCD590"/>
</g>
</g>
</g>
<mask id="mask48_47_13837" style="mask-type:luminance" maskUnits="userSpaceOnUse" x="67" y="284" width="50" height="31">
<path d="M67 284.667H116.333V314H67V284.667Z" fill="white"/>
</mask>
<g mask="url(#mask48_47_13837)">
<mask id="mask49_47_13837" style="mask-type:luminance" maskUnits="userSpaceOnUse" x="66" y="283" width="51" height="33">
<path d="M113.12 315.354L66.4114 290.318L70.1874 283.266L116.901 308.307L113.12 315.354Z" fill="white"/>
</mask>
<g mask="url(#mask49_47_13837)">
<mask id="mask50_47_13837" style="mask-type:luminance" maskUnits="userSpaceOnUse" x="66" y="283" width="51" height="33">
<path d="M113.12 315.354L66.4114 290.318L70.1874 283.266L116.901 308.307L113.12 315.354Z" fill="white"/>
</mask>
<g mask="url(#mask50_47_13837)">
<path d="M69.8696 292.156L73.2186 293.948L73.2238 293.943L106.443 311.75L106.437 311.755L109.781 313.552C111.625 314.542 113.932 313.844 114.922 312C115.911 310.151 115.213 307.849 113.37 306.859L73.4581 285.464C71.6144 284.474 69.3123 285.161 68.3227 287.005C67.3331 288.854 68.0258 291.167 69.8696 292.156Z" fill="#FCD590"/>
</g>
</g>
</g>
<mask id="mask51_47_13837" style="mask-type:luminance" maskUnits="userSpaceOnUse" x="97" y="303" width="16" height="10">
<path d="M97.6667 303.333H112.333V312.667H97.6667V303.333Z" fill="white"/>
</mask>
<g mask="url(#mask51_47_13837)">
<mask id="mask52_47_13837" style="mask-type:luminance" maskUnits="userSpaceOnUse" x="66" y="283" width="51" height="33">
<path d="M113.12 315.354L66.4116 290.318L70.1877 283.266L116.901 308.307L113.12 315.354Z" fill="white"/>
</mask>
<g mask="url(#mask52_47_13837)">
<mask id="mask53_47_13837" style="mask-type:luminance" maskUnits="userSpaceOnUse" x="66" y="283" width="51" height="33">
<path d="M113.12 315.354L66.4116 290.318L70.1877 283.266L116.901 308.307L113.12 315.354Z" fill="white"/>
</mask>
<g mask="url(#mask53_47_13837)">
<path d="M99.0731 305.661L110.677 311.88C111.141 312.13 111.714 311.958 111.964 311.495C112.214 311.026 112.042 310.453 111.573 310.203L108.229 308.411L108.224 308.422L99.9742 304C99.5106 303.75 98.9377 303.922 98.6877 304.385C98.4377 304.854 98.6148 305.417 99.0731 305.661Z" fill="#FCD590"/>
</g>
</g>
</g>
<mask id="mask54_47_13837" style="mask-type:luminance" maskUnits="userSpaceOnUse" x="225" y="288" width="54" height="17">
<path d="M225.667 288.667H279V304.667H225.667V288.667Z" fill="white"/>
</mask>
<g mask="url(#mask54_47_13837)">
<mask id="mask55_47_13837" style="mask-type:luminance" maskUnits="userSpaceOnUse" x="225" y="289" width="55" height="17">
<path d="M226.703 289.109L279.052 297.396L277.797 305.297L225.453 297.01L226.703 289.109Z" fill="white"/>
</mask>
<g mask="url(#mask55_47_13837)">
<mask id="mask56_47_13837" style="mask-type:luminance" maskUnits="userSpaceOnUse" x="225" y="289" width="54" height="17">
<path d="M278.927 297.375L226.578 289.089L225.328 296.99L277.677 305.281L278.927 297.375Z" fill="white"/>
</mask>
<g mask="url(#mask56_47_13837)">
<path d="M230.448 289.719L234.198 290.313V290.323L271.422 296.214L271.427 296.203L275.177 296.797C277.245 297.125 278.656 299.073 278.328 301.141C278.005 303.208 276.057 304.625 273.99 304.297L229.26 297.214C227.193 296.891 225.776 294.953 226.104 292.886C226.432 290.813 228.38 289.391 230.448 289.719Z" fill="#FCD590"/>
</g>
</g>
</g>
<mask id="mask57_47_13837" style="mask-type:luminance" maskUnits="userSpaceOnUse" x="260" y="295" width="17" height="6">
<path d="M260.333 295.333H276.333V300.667H260.333V295.333Z" fill="white"/>
</mask>
<g mask="url(#mask57_47_13837)">
<mask id="mask58_47_13837" style="mask-type:luminance" maskUnits="userSpaceOnUse" x="225" y="289" width="55" height="17">
<path d="M226.703 289.109L279.052 297.396L277.797 305.297L225.453 297.01L226.703 289.109Z" fill="white"/>
</mask>
<g mask="url(#mask58_47_13837)">
<mask id="mask59_47_13837" style="mask-type:luminance" maskUnits="userSpaceOnUse" x="225" y="289" width="54" height="17">
<path d="M278.927 297.375L226.578 289.089L225.328 296.99L277.677 305.281L278.927 297.375Z" fill="white"/>
</mask>
<g mask="url(#mask59_47_13837)">
<path d="M261.875 296.609L274.88 298.667C275.401 298.75 275.75 299.234 275.672 299.755C275.588 300.276 275.104 300.63 274.583 300.547L270.833 299.953V299.943L261.588 298.479C261.068 298.396 260.713 297.911 260.797 297.391C260.88 296.87 261.365 296.526 261.875 296.609Z" fill="#FCD590"/>
</g>
</g>
</g>
<mask id="mask60_47_13837" style="mask-type:luminance" maskUnits="userSpaceOnUse" x="231" y="274" width="40" height="42">
<path d="M231 274H271V315.333H231V274Z" fill="white"/>
</mask>
<g mask="url(#mask60_47_13837)">
<mask id="mask61_47_13837" style="mask-type:luminance" maskUnits="userSpaceOnUse" x="229" y="272" width="43" height="45">
<path d="M229.635 311.167L265.813 272.438L271.662 277.896L235.479 316.63L229.635 311.167Z" fill="white"/>
</mask>
<g mask="url(#mask61_47_13837)">
<mask id="mask62_47_13837" style="mask-type:luminance" maskUnits="userSpaceOnUse" x="229" y="272" width="43" height="45">
<path d="M265.729 272.526L229.547 311.26L235.396 316.719L271.573 277.99L265.729 272.526Z" fill="white"/>
</mask>
<g mask="url(#mask62_47_13837)">
<path d="M232.234 308.401L234.828 305.625L234.833 305.636L260.562 278.094L260.557 278.083L263.146 275.313C264.578 273.781 266.984 273.698 268.516 275.13C270.042 276.557 270.125 278.964 268.698 280.495L237.786 313.583C236.354 315.115 233.958 315.203 232.427 313.776C230.896 312.344 230.807 309.932 232.234 308.401Z" fill="#FCD590"/>
</g>
</g>
</g>
<mask id="mask63_47_13837" style="mask-type:luminance" maskUnits="userSpaceOnUse" x="255" y="275" width="12" height="14">
<path d="M255 275.333H267V288.667H255V275.333Z" fill="white"/>
</mask>
<g mask="url(#mask63_47_13837)">
<mask id="mask64_47_13837" style="mask-type:luminance" maskUnits="userSpaceOnUse" x="229" y="272" width="43" height="45">
<path d="M229.635 311.167L265.813 272.438L271.662 277.896L235.479 316.63L229.635 311.167Z" fill="white"/>
</mask>
<g mask="url(#mask64_47_13837)">
<mask id="mask65_47_13837" style="mask-type:luminance" maskUnits="userSpaceOnUse" x="229" y="272" width="43" height="45">
<path d="M265.729 272.526L229.547 311.26L235.396 316.719L271.573 277.99L265.729 272.526Z" fill="white"/>
</mask>
<g mask="url(#mask65_47_13837)">
<path d="M255.542 286.224L264.531 276.604C264.891 276.219 265.49 276.198 265.875 276.557C266.261 276.917 266.281 277.516 265.922 277.901L263.328 280.677L263.323 280.672L256.932 287.51C256.573 287.896 255.974 287.917 255.589 287.557C255.203 287.193 255.188 286.604 255.542 286.224Z" fill="#FCD590"/>
</g>
</g>
</g>
<mask id="mask66_47_13837" style="mask-type:luminance" maskUnits="userSpaceOnUse" x="127" y="0" width="58" height="60">
<path d="M127 0.666687H184.333V59.3334H127V0.666687Z" fill="white"/>
</mask>
<g mask="url(#mask66_47_13837)">
<mask id="mask67_47_13837" style="mask-type:luminance" maskUnits="userSpaceOnUse" x="116" y="-9" width="85" height="85">
<path d="M200.193 42.6355L167.661 75.1615L116.75 24.25L149.281 -8.276L200.193 42.6355Z" fill="white"/>
</mask>
<g mask="url(#mask67_47_13837)">
<mask id="mask68_47_13837" style="mask-type:luminance" maskUnits="userSpaceOnUse" x="116" y="-9" width="85" height="85">
<path d="M200.193 42.6355L167.661 75.1615L116.75 24.25L149.281 -8.276L200.193 42.6355Z" fill="white"/>
</mask>
<g mask="url(#mask68_47_13837)">
<path d="M152.208 50.3021L183.979 58.849L175.432 27.0782C174.359 22.6615 170.609 13.0678 167.083 9.54172C157.432 -0.109318 142.359 -0.67182 133.412 8.28131C124.458 17.2344 125.021 32.3073 134.667 41.9584C138.193 45.4844 147.792 49.224 152.208 50.3021Z" fill="#442F19"/>
</g>
</g>
</g>
<mask id="mask69_47_13837" style="mask-type:luminance" maskUnits="userSpaceOnUse" x="181" y="0" width="58" height="60">
<path d="M181.667 0.666687H239V59.3334H181.667V0.666687Z" fill="white"/>
</mask>
<g mask="url(#mask69_47_13837)">
<mask id="mask70_47_13837" style="mask-type:luminance" maskUnits="userSpaceOnUse" x="165" y="-9" width="84" height="85">
<path d="M198.063 75.0625L165.537 42.5365L216.448 -8.375L248.974 24.151L198.063 75.0625Z" fill="white"/>
</mask>
<g mask="url(#mask70_47_13837)">
<mask id="mask71_47_13837" style="mask-type:luminance" maskUnits="userSpaceOnUse" x="165" y="-9" width="85" height="85">
<path d="M165.635 42.6354L198.162 75.1614L249.073 24.25L216.547 -8.27606L165.635 42.6354Z" fill="white"/>
</mask>
<g mask="url(#mask71_47_13837)">
<path d="M213.615 50.3021L181.849 58.849L190.391 27.0781C191.469 22.6615 195.214 13.0677 198.74 9.54166C208.391 -0.10938 223.464 -0.671881 232.412 8.28125C241.37 17.2344 240.807 32.3073 231.156 41.9583C227.63 45.4844 218.031 49.224 213.615 50.3021Z" fill="#442F19"/>
</g>
</g>
</g>
<mask id="mask72_47_13837" style="mask-type:luminance" maskUnits="userSpaceOnUse" x="91" y="112" width="178" height="177">
<path d="M91.0105 112.01H268.01V288.667H91.0105V112.01Z" fill="white"/>
</mask>
<g mask="url(#mask72_47_13837)">
<path d="M267.651 200.333C267.651 201.776 267.615 203.224 267.542 204.667C267.474 206.109 267.365 207.552 267.224 208.99C267.083 210.427 266.906 211.865 266.693 213.292C266.479 214.724 266.234 216.146 265.953 217.562C265.672 218.979 265.354 220.391 265 221.792C264.651 223.193 264.266 224.589 263.844 225.969C263.427 227.354 262.974 228.724 262.484 230.089C262 231.448 261.479 232.797 260.927 234.13C260.375 235.469 259.787 236.786 259.167 238.094C258.552 239.401 257.901 240.693 257.219 241.969C256.537 243.24 255.828 244.5 255.083 245.74C254.339 246.979 253.568 248.198 252.766 249.401C251.964 250.604 251.13 251.786 250.266 252.943C249.406 254.104 248.516 255.245 247.599 256.365C246.682 257.479 245.74 258.573 244.771 259.646C243.797 260.714 242.802 261.76 241.781 262.786C240.76 263.807 239.714 264.802 238.641 265.776C237.568 266.745 236.474 267.687 235.359 268.604C234.24 269.521 233.104 270.411 231.943 271.271C230.781 272.135 229.599 272.964 228.396 273.771C227.193 274.573 225.974 275.344 224.734 276.089C223.495 276.828 222.24 277.542 220.964 278.224C219.688 278.906 218.396 279.557 217.089 280.172C215.781 280.792 214.464 281.375 213.125 281.932C211.792 282.484 210.443 283.005 209.083 283.49C207.724 283.979 206.349 284.432 204.969 284.849C203.583 285.271 202.193 285.656 200.787 286.005C199.385 286.359 197.979 286.672 196.557 286.958C195.141 287.24 193.719 287.484 192.287 287.698C190.859 287.911 189.422 288.089 187.984 288.229C186.547 288.37 185.104 288.474 183.662 288.547C182.219 288.62 180.776 288.651 179.328 288.651C177.885 288.651 176.438 288.62 174.995 288.547C173.552 288.474 172.109 288.37 170.672 288.229C169.234 288.089 167.797 287.911 166.37 287.698C164.938 287.484 163.516 287.24 162.099 286.958C160.682 286.672 159.271 286.359 157.87 286.005C156.469 285.656 155.073 285.271 153.693 284.849C152.307 284.432 150.938 283.979 149.573 283.49C148.214 283.005 146.865 282.484 145.531 281.932C144.193 281.375 142.875 280.792 141.568 280.172C140.26 279.557 138.969 278.906 137.693 278.224C136.422 277.542 135.162 276.828 133.922 276.089C132.682 275.344 131.464 274.573 130.26 273.771C129.057 272.964 127.875 272.135 126.719 271.271C125.557 270.411 124.417 269.521 123.297 268.604C122.182 267.687 121.089 266.745 120.016 265.776C118.943 264.802 117.901 263.807 116.875 262.786C115.854 261.76 114.859 260.714 113.885 259.646C112.917 258.573 111.974 257.479 111.057 256.365C110.141 255.245 109.25 254.104 108.391 252.943C107.526 251.786 106.698 250.604 105.891 249.401C105.089 248.198 104.318 246.979 103.573 245.74C102.828 244.5 102.12 243.24 101.438 241.969C100.755 240.693 100.104 239.401 99.4897 238.094C98.8699 236.786 98.2865 235.469 97.7292 234.13C97.1772 232.797 96.6563 231.448 96.172 230.089C95.6824 228.724 95.2292 227.354 94.8126 225.969C94.3907 224.589 94.0053 223.193 93.6563 221.792C93.3022 220.391 92.9897 218.979 92.7032 217.562C92.422 216.146 92.1772 214.724 91.9636 213.292C91.7501 211.865 91.573 210.427 91.4324 208.99C91.2917 207.552 91.1876 206.109 91.1147 204.667C91.0417 203.224 91.0105 201.776 91.0105 200.333C91.0105 198.885 91.0417 197.443 91.1147 196C91.1876 194.557 91.2917 193.115 91.4324 191.677C91.573 190.24 91.7501 188.802 91.9636 187.375C92.1772 185.943 92.422 184.521 92.7032 183.104C92.9897 181.682 93.3022 180.276 93.6563 178.875C94.0053 177.469 94.3907 176.078 94.8126 174.693C95.2292 173.312 95.6824 171.937 96.172 170.578C96.6563 169.219 97.1772 167.87 97.7292 166.536C98.2865 165.198 98.8699 163.875 99.4897 162.573C100.104 161.266 100.755 159.974 101.438 158.698C102.12 157.422 102.828 156.167 103.573 154.927C104.318 153.687 105.089 152.469 105.891 151.266C106.698 150.062 107.526 148.88 108.391 147.719C109.25 146.557 110.141 145.422 111.057 144.302C111.974 143.187 112.917 142.094 113.885 141.021C114.859 139.948 115.854 138.901 116.875 137.88C117.901 136.859 118.943 135.865 120.016 134.891C121.089 133.922 122.182 132.979 123.297 132.062C124.417 131.141 125.557 130.255 126.719 129.391C127.875 128.531 129.057 127.698 130.26 126.896C131.464 126.094 132.682 125.323 133.922 124.578C135.162 123.833 136.422 123.125 137.693 122.443C138.969 121.76 140.26 121.109 141.568 120.49C142.875 119.875 144.193 119.286 145.531 118.734C146.865 118.182 148.214 117.661 149.573 117.177C150.938 116.687 152.307 116.234 153.693 115.818C155.073 115.396 156.469 115.01 157.87 114.661C159.271 114.307 160.682 113.99 162.099 113.708C163.516 113.427 164.938 113.182 166.37 112.969C167.797 112.755 169.234 112.578 170.672 112.437C172.109 112.297 173.552 112.187 174.995 112.12C176.438 112.047 177.885 112.01 179.328 112.01C180.776 112.01 182.219 112.047 183.662 112.12C185.104 112.187 186.547 112.297 187.984 112.437C189.422 112.578 190.859 112.755 192.287 112.969C193.719 113.182 195.141 113.427 196.557 113.708C197.979 113.99 199.385 114.307 200.787 114.661C202.193 115.01 203.583 115.396 204.969 115.818C206.349 116.234 207.724 116.687 209.083 117.177C210.443 117.661 211.792 118.182 213.125 118.734C214.464 119.286 215.781 119.875 217.089 120.49C218.396 121.109 219.688 121.76 220.964 122.443C222.24 123.125 223.495 123.833 224.734 124.578C225.974 125.323 227.193 126.094 228.396 126.896C229.599 127.698 230.781 128.531 231.943 129.391C233.104 130.255 234.24 131.141 235.359 132.062C236.474 132.979 237.568 133.922 238.641 134.891C239.714 135.865 240.76 136.859 241.781 137.88C242.802 138.901 243.797 139.948 244.771 141.021C245.74 142.094 246.682 143.187 247.599 144.302C248.516 145.422 249.406 146.557 250.266 147.719C251.13 148.88 251.964 150.062 252.766 151.266C253.568 152.469 254.339 153.687 255.083 154.927C255.828 156.167 256.537 157.422 257.219 158.698C257.901 159.974 258.552 161.266 259.167 162.573C259.787 163.875 260.375 165.198 260.927 166.536C261.479 167.87 262 169.219 262.484 170.578C262.974 171.937 263.427 173.312 263.844 174.693C264.266 176.078 264.651 177.469 265 178.875C265.354 180.276 265.672 181.682 265.953 183.104C266.234 184.521 266.479 185.943 266.693 187.375C266.906 188.802 267.083 190.24 267.224 191.677C267.365 193.115 267.474 194.557 267.542 196C267.615 197.443 267.651 198.885 267.651 200.333Z" fill="#442F19"/>
</g>
<mask id="mask73_47_13837" style="mask-type:luminance" maskUnits="userSpaceOnUse" x="91" y="52" width="178" height="178">
<path d="M91.0105 52.4531H268.01V229.453H91.0105V52.4531Z" fill="white"/>
</mask>
<g mask="url(#mask73_47_13837)">
<path d="M267.651 140.771C267.651 142.219 267.615 143.661 267.542 145.104C267.474 146.552 267.365 147.99 267.224 149.427C267.083 150.87 266.906 152.302 266.693 153.729C266.479 155.161 266.234 156.583 265.953 158.005C265.672 159.422 265.354 160.828 265 162.234C264.651 163.635 264.266 165.026 263.844 166.411C263.427 167.792 262.974 169.167 262.484 170.526C262 171.885 261.479 173.234 260.927 174.573C260.375 175.906 259.787 177.229 259.167 178.536C258.552 179.839 257.901 181.13 257.219 182.406C256.537 183.682 255.828 184.938 255.083 186.177C254.339 187.417 253.568 188.641 252.766 189.839C251.964 191.042 251.13 192.224 250.266 193.385C249.406 194.547 248.516 195.682 247.599 196.802C246.682 197.922 245.74 199.016 244.771 200.083C243.797 201.156 242.802 202.203 241.781 203.224C240.76 204.245 239.714 205.245 238.641 206.214C237.568 207.182 236.474 208.13 235.359 209.047C234.24 209.964 233.104 210.849 231.943 211.714C230.781 212.573 229.599 213.406 228.396 214.208C227.193 215.01 225.974 215.786 224.734 216.526C223.495 217.271 222.24 217.984 220.964 218.661C219.688 219.344 218.396 219.995 217.089 220.615C215.781 221.229 214.464 221.818 213.125 222.37C211.792 222.922 210.443 223.443 209.083 223.927C207.724 224.417 206.349 224.87 204.969 225.292C203.583 225.708 202.193 226.094 200.787 226.448C199.385 226.797 197.979 227.115 196.557 227.396C195.141 227.677 193.719 227.927 192.287 228.135C190.859 228.349 189.422 228.526 187.984 228.667C186.547 228.807 185.104 228.917 183.662 228.984C182.219 229.057 180.776 229.094 179.328 229.094C177.885 229.094 176.438 229.057 174.995 228.984C173.552 228.917 172.109 228.807 170.672 228.667C169.234 228.526 167.797 228.349 166.37 228.135C164.938 227.927 163.516 227.677 162.099 227.396C160.682 227.115 159.271 226.797 157.87 226.448C156.469 226.094 155.073 225.708 153.693 225.292C152.307 224.87 150.938 224.417 149.573 223.927C148.214 223.443 146.865 222.922 145.531 222.37C144.193 221.818 142.875 221.229 141.568 220.615C140.26 219.995 138.969 219.344 137.693 218.661C136.422 217.984 135.162 217.271 133.922 216.526C132.682 215.786 131.464 215.01 130.26 214.208C129.057 213.406 127.875 212.573 126.719 211.714C125.557 210.849 124.417 209.964 123.297 209.047C122.182 208.13 121.089 207.182 120.016 206.214C118.943 205.245 117.901 204.245 116.875 203.224C115.854 202.203 114.859 201.156 113.885 200.083C112.917 199.016 111.974 197.922 111.057 196.802C110.141 195.682 109.25 194.547 108.391 193.385C107.526 192.224 106.698 191.042 105.891 189.839C105.089 188.641 104.318 187.417 103.573 186.177C102.828 184.938 102.12 183.682 101.438 182.406C100.755 181.13 100.104 179.839 99.4897 178.536C98.8699 177.229 98.2865 175.906 97.7292 174.573C97.1772 173.234 96.6563 171.885 96.172 170.526C95.6824 169.167 95.2292 167.792 94.8126 166.411C94.3907 165.026 94.0053 163.635 93.6563 162.234C93.3022 160.828 92.9897 159.422 92.7032 158.005C92.422 156.583 92.1772 155.161 91.9636 153.729C91.7501 152.302 91.573 150.87 91.4324 149.427C91.2917 147.99 91.1876 146.552 91.1147 145.104C91.0417 143.661 91.0105 142.219 91.0105 140.771C91.0105 139.328 91.0417 137.88 91.1147 136.438C91.1876 134.995 91.2917 133.552 91.4324 132.115C91.573 130.677 91.7501 129.245 91.9636 127.812C92.1772 126.385 92.422 124.958 92.7032 123.542C92.9897 122.125 93.3022 120.714 93.6563 119.312C94.0053 117.911 94.3907 116.516 94.8126 115.135C95.2292 113.75 95.6824 112.38 96.172 111.016C96.6563 109.656 97.1772 108.307 97.7292 106.974C98.2865 105.641 98.8699 104.318 99.4897 103.01C100.104 101.703 100.755 100.411 101.438 99.1406C102.12 97.8646 102.828 96.6042 103.573 95.3646C104.318 94.125 105.089 92.9062 105.891 91.7031C106.698 90.5 107.526 89.3229 108.391 88.1615C109.25 87 110.141 85.8594 111.057 84.7448C111.974 83.625 112.917 82.5313 113.885 81.4583C114.859 80.3906 115.854 79.3438 116.875 78.3229C117.901 77.2969 118.943 76.3021 120.016 75.3333C121.089 74.3594 122.182 73.4167 123.297 72.5C124.417 71.5833 125.557 70.6927 126.719 69.8333C127.875 68.974 129.057 68.1406 130.26 67.3385C131.464 66.5313 132.682 65.7604 133.922 65.0156C135.162 64.276 136.422 63.5625 137.693 62.8802C138.969 62.1979 140.26 61.5521 141.568 60.9323C142.875 60.3125 144.193 59.7292 145.531 59.1771C146.865 58.6198 148.214 58.1042 149.573 57.6146C150.938 57.1302 152.307 56.6771 153.693 56.2552C155.073 55.8333 156.469 55.4479 157.87 55.099C159.271 54.75 160.682 54.4323 162.099 54.151C163.516 53.8646 164.938 53.6198 166.37 53.4062C167.797 53.1979 169.234 53.0208 170.672 52.875C172.109 52.7344 173.552 52.6302 174.995 52.5573C176.438 52.4896 177.885 52.4531 179.328 52.4531C180.776 52.4531 182.219 52.4896 183.662 52.5573C185.104 52.6302 186.547 52.7344 187.984 52.875C189.422 53.0208 190.859 53.1979 192.287 53.4062C193.719 53.6198 195.141 53.8646 196.557 54.151C197.979 54.4323 199.385 54.75 200.787 55.099C202.193 55.4479 203.583 55.8333 204.969 56.2552C206.349 56.6771 207.724 57.1302 209.083 57.6146C210.443 58.1042 211.792 58.6198 213.125 59.1771C214.464 59.7292 215.781 60.3125 217.089 60.9323C218.396 61.5521 219.688 62.1979 220.964 62.8802C222.24 63.5625 223.495 64.276 224.734 65.0156C225.974 65.7604 227.193 66.5313 228.396 67.3385C229.599 68.1406 230.781 68.974 231.943 69.8333C233.104 70.6927 234.24 71.5833 235.359 72.5C236.474 73.4167 237.568 74.3594 238.641 75.3333C239.714 76.3021 240.76 77.2969 241.781 78.3229C242.802 79.3438 243.797 80.3906 244.771 81.4583C245.74 82.5313 246.682 83.625 247.599 84.7448C248.516 85.8594 249.406 87 250.266 88.1615C251.13 89.3229 251.964 90.5 252.766 91.7031C253.568 92.9062 254.339 94.125 255.083 95.3646C255.828 96.6042 256.537 97.8646 257.219 99.1406C257.901 100.411 258.552 101.703 259.167 103.01C259.787 104.318 260.375 105.641 260.927 106.974C261.479 108.307 262 109.656 262.484 111.016C262.974 112.38 263.427 113.75 263.844 115.135C264.266 116.516 264.651 117.911 265 119.312C265.354 120.714 265.672 122.125 265.953 123.542C266.234 124.958 266.479 126.385 266.693 127.812C266.906 129.245 267.083 130.677 267.224 132.115C267.365 133.552 267.474 134.995 267.542 136.438C267.615 137.88 267.651 139.328 267.651 140.771Z" fill="#EDE0D2"/>
</g>
<mask id="mask74_47_13837" style="mask-type:luminance" maskUnits="userSpaceOnUse" x="168" y="163" width="37" height="25">
<path d="M168.333 163.333H204.333V187.333H168.333V163.333Z" fill="white"/>
</mask>
<g mask="url(#mask74_47_13837)">
<mask id="mask75_47_13837" style="mask-type:luminance" maskUnits="userSpaceOnUse" x="166" y="160" width="41" height="31">
<path d="M166.443 173.724L199.87 160.354L206.552 177.068L173.125 190.438L166.443 173.724Z" fill="white"/>
</mask>
<g mask="url(#mask75_47_13837)">
<mask id="mask76_47_13837" style="mask-type:luminance" maskUnits="userSpaceOnUse" x="166" y="160" width="41" height="31">
<path d="M166.443 173.724L199.87 160.354L206.552 177.068L173.125 190.438L166.443 173.724Z" fill="white"/>
</mask>
<g mask="url(#mask76_47_13837)">
<path d="M203.719 168.688C203.943 169.245 204.057 169.839 204.057 170.474C204.057 171.104 203.953 171.766 203.729 172.448C203.51 173.135 203.188 173.833 202.755 174.542C202.318 175.255 201.792 175.964 201.161 176.672C200.531 177.38 199.818 178.073 199.016 178.755C198.214 179.432 197.344 180.083 196.401 180.708C195.458 181.333 194.464 181.917 193.417 182.464C192.37 183.01 191.292 183.505 190.177 183.948C189.068 184.391 187.943 184.776 186.807 185.104C185.672 185.432 184.552 185.698 183.438 185.896C182.323 186.089 181.245 186.219 180.198 186.281C179.146 186.339 178.151 186.328 177.208 186.25C176.26 186.172 175.391 186.021 174.583 185.807C173.781 185.589 173.063 185.307 172.432 184.964C171.802 184.62 171.271 184.219 170.833 183.755C170.396 183.297 170.068 182.787 169.844 182.229C169.62 181.672 169.51 181.078 169.51 180.443C169.505 179.813 169.615 179.151 169.833 178.469C170.057 177.781 170.38 177.083 170.813 176.375C171.245 175.662 171.776 174.953 172.406 174.245C173.036 173.537 173.75 172.844 174.552 172.162C175.349 171.484 176.224 170.833 177.167 170.208C178.109 169.583 179.104 169 180.151 168.453C181.198 167.906 182.276 167.412 183.391 166.969C184.5 166.526 185.625 166.135 186.76 165.813C187.891 165.484 189.016 165.219 190.13 165.021C191.24 164.823 192.323 164.698 193.37 164.635C194.422 164.578 195.417 164.589 196.359 164.667C197.302 164.745 198.177 164.896 198.979 165.109C199.786 165.328 200.5 165.609 201.135 165.953C201.766 166.297 202.297 166.698 202.734 167.162C203.167 167.62 203.5 168.13 203.719 168.688Z" fill="#FCD590"/>
</g>
</g>
</g>
<mask id="mask77_47_13837" style="mask-type:luminance" maskUnits="userSpaceOnUse" x="190" y="96" width="64" height="64">
<path d="M190.641 96.9219H253.339V159.615H190.641V96.9219Z" fill="white"/>
</mask>
<g mask="url(#mask77_47_13837)">
<mask id="mask78_47_13837" style="mask-type:luminance" maskUnits="userSpaceOnUse" x="190" y="96" width="64" height="64">
<path d="M221.99 96.9219C204.677 96.9219 190.641 110.953 190.641 128.271C190.641 145.583 204.677 159.615 221.99 159.615C239.302 159.615 253.339 145.583 253.339 128.271C253.339 110.953 239.302 96.9219 221.99 96.9219Z" fill="white"/>
</mask>
<g mask="url(#mask78_47_13837)">
<path d="M190.641 96.9219H253.339V159.615H190.641V96.9219Z" fill="white"/>
</g>
</g>
<mask id="mask79_47_13837" style="mask-type:luminance" maskUnits="userSpaceOnUse" x="105" y="96" width="64" height="64">
<path d="M105.88 96.9219H168.578V159.615H105.88V96.9219Z" fill="white"/>
</mask>
<g mask="url(#mask79_47_13837)">
<mask id="mask80_47_13837" style="mask-type:luminance" maskUnits="userSpaceOnUse" x="105" y="96" width="64" height="64">
<path d="M137.229 96.9219C119.917 96.9219 105.88 110.953 105.88 128.271C105.88 145.583 119.917 159.615 137.229 159.615C154.542 159.615 168.578 145.583 168.578 128.271C168.578 110.953 154.542 96.9219 137.229 96.9219Z" fill="white"/>
</mask>
<g mask="url(#mask80_47_13837)">
<path d="M105.88 96.9219H168.578V159.615H105.88V96.9219Z" fill="white"/>
</g>
</g>
<mask id="mask81_47_13837" style="mask-type:luminance" maskUnits="userSpaceOnUse" x="153" y="164" width="37" height="24">
<path d="M153.667 164.667H189.667V187.333H153.667V164.667Z" fill="white"/>
</mask>
<g mask="url(#mask81_47_13837)">
<mask id="mask82_47_13837" style="mask-type:luminance" maskUnits="userSpaceOnUse" x="151" y="161" width="41" height="30">
<path d="M157.5 161.646L191.589 173.234L185.792 190.276L151.708 178.687L157.5 161.646Z" fill="white"/>
</mask>
<g mask="url(#mask82_47_13837)">
<mask id="mask83_47_13837" style="mask-type:luminance" maskUnits="userSpaceOnUse" x="151" y="161" width="41" height="30">
<path d="M157.5 161.646L191.589 173.234L185.792 190.276L151.708 178.687L157.5 161.646Z" fill="white"/>
</mask>
<g mask="url(#mask83_47_13837)">
<path d="M189.094 182.062C188.901 182.63 188.599 183.156 188.188 183.641C187.776 184.12 187.266 184.552 186.656 184.932C186.042 185.307 185.339 185.625 184.547 185.885C183.76 186.141 182.896 186.338 181.953 186.463C181.016 186.594 180.021 186.656 178.974 186.651C177.922 186.646 176.833 186.573 175.714 186.437C174.594 186.297 173.458 186.094 172.307 185.828C171.156 185.562 170.016 185.234 168.88 184.849C167.745 184.463 166.641 184.026 165.568 183.536C164.495 183.047 163.469 182.516 162.495 181.943C161.521 181.37 160.615 180.766 159.781 180.125C158.948 179.49 158.193 178.833 157.531 178.161C156.865 177.484 156.297 176.807 155.828 176.12C155.359 175.432 154.995 174.75 154.74 174.078C154.484 173.406 154.344 172.755 154.313 172.12C154.276 171.49 154.359 170.891 154.552 170.318C154.745 169.75 155.047 169.224 155.458 168.745C155.87 168.26 156.38 167.833 156.995 167.453C157.604 167.078 158.307 166.76 159.099 166.5C159.891 166.245 160.755 166.047 161.693 165.917C162.63 165.792 163.625 165.729 164.677 165.734C165.724 165.74 166.813 165.807 167.932 165.948C169.057 166.088 170.193 166.292 171.339 166.557C172.49 166.823 173.63 167.151 174.766 167.536C175.901 167.922 177.005 168.359 178.078 168.849C179.156 169.338 180.177 169.87 181.151 170.443C182.125 171.016 183.031 171.62 183.865 172.255C184.703 172.896 185.453 173.547 186.12 174.224C186.781 174.896 187.349 175.578 187.818 176.266C188.287 176.953 188.651 177.63 188.906 178.302C189.162 178.979 189.307 179.63 189.339 180.26C189.37 180.896 189.287 181.495 189.094 182.062Z" fill="#FCD590"/>
</g>
</g>
</g>
<mask id="mask84_47_13837" style="mask-type:luminance" maskUnits="userSpaceOnUse" x="202" y="109" width="39" height="39">
<path d="M202.203 109.229H240.964V147.99H202.203V109.229Z" fill="white"/>
</mask>
<g mask="url(#mask84_47_13837)">
<mask id="mask85_47_13837" style="mask-type:luminance" maskUnits="userSpaceOnUse" x="202" y="109" width="39" height="39">
<path d="M221.583 109.229C210.88 109.229 202.203 117.906 202.203 128.609C202.203 139.312 210.88 147.99 221.583 147.99C232.286 147.99 240.964 139.312 240.964 128.609C240.964 117.906 232.286 109.229 221.583 109.229Z" fill="white"/>
</mask>
<g mask="url(#mask85_47_13837)">
<path d="M202.203 109.229H240.964V147.99H202.203V109.229Z" fill="black"/>
</g>
</g>
<mask id="mask86_47_13837" style="mask-type:luminance" maskUnits="userSpaceOnUse" x="119" y="109" width="40" height="39">
<path d="M119.932 109.229H158.698V147.99H119.932V109.229Z" fill="white"/>
</mask>
<g mask="url(#mask86_47_13837)">
<mask id="mask87_47_13837" style="mask-type:luminance" maskUnits="userSpaceOnUse" x="119" y="109" width="40" height="39">
<path d="M139.313 109.229C128.609 109.229 119.932 117.906 119.932 128.609C119.932 139.312 128.609 147.99 139.313 147.99C150.021 147.99 158.698 139.312 158.698 128.609C158.698 117.906 150.021 109.229 139.313 109.229Z" fill="white"/>
</mask>
<g mask="url(#mask87_47_13837)">
<path d="M119.932 109.229H158.698V147.99H119.932V109.229Z" fill="black"/>
</g>
</g>
<mask id="mask88_47_13837" style="mask-type:luminance" maskUnits="userSpaceOnUse" x="137" y="110" width="19" height="19">
<path d="M137.229 110.047H155.792V128.609H137.229V110.047Z" fill="white"/>
</mask>
<g mask="url(#mask88_47_13837)">
<mask id="mask89_47_13837" style="mask-type:luminance" maskUnits="userSpaceOnUse" x="137" y="110" width="19" height="19">
<path d="M146.51 110.047C141.385 110.047 137.229 114.203 137.229 119.328C137.229 124.453 141.385 128.609 146.51 128.609C151.635 128.609 155.792 124.453 155.792 119.328C155.792 114.203 151.635 110.047 146.51 110.047Z" fill="white"/>
</mask>
<g mask="url(#mask89_47_13837)">
<path d="M137.229 110.047H155.792V128.609H137.229V110.047Z" fill="white"/>
</g>
</g>
<mask id="mask90_47_13837" style="mask-type:luminance" maskUnits="userSpaceOnUse" x="219" y="109" width="20" height="20">
<path d="M219.49 109.708H238.052V128.271H219.49V109.708Z" fill="white"/>
</mask>
<g mask="url(#mask90_47_13837)">
<mask id="mask91_47_13837" style="mask-type:luminance" maskUnits="userSpaceOnUse" x="219" y="109" width="20" height="20">
<path d="M228.771 109.708C223.646 109.708 219.49 113.859 219.49 118.99C219.49 124.115 223.646 128.271 228.771 128.271C233.896 128.271 238.052 124.115 238.052 118.99C238.052 113.859 233.896 109.708 228.771 109.708Z" fill="white"/>
</mask>
<g mask="url(#mask91_47_13837)">
<path d="M219.49 109.708H238.052V128.271H219.49V109.708Z" fill="white"/>
</g>
</g>
<mask id="mask92_47_13837" style="mask-type:luminance" maskUnits="userSpaceOnUse" x="146" y="233" width="66" height="25">
<path d="M146.63 233.099H211.63V257.099H146.63V233.099Z" fill="white"/>
</mask>
<g mask="url(#mask92_47_13837)">
<path d="M204.417 246.354C195.552 243.953 188.922 245.979 184.568 248.547C190.521 242.49 199.604 240.5 202.51 240.005L204.417 246.354ZM193.937 233.135L196.437 239.104C191.729 240.568 185.568 243.412 181.401 248.646C184.036 239.479 191.25 234.646 193.937 233.135ZM164.677 233.135C167.365 234.646 174.578 239.464 177.219 248.667C173.047 243.427 166.891 240.583 162.177 239.12L164.677 233.135ZM156.104 240.005C159.016 240.5 168.099 242.49 174.052 248.547C169.698 245.979 163.062 243.953 154.198 246.354L156.104 240.005ZM183.135 257.427H175.479C173.797 255.25 166.516 248.255 146.63 256.542L148.349 250.979C168.182 241.349 177.984 254.568 178.391 255.146C178.406 255.162 178.422 255.162 178.443 255.182C178.458 255.214 178.474 255.25 178.51 255.266C178.526 255.281 178.526 255.281 178.526 255.302C178.562 255.333 178.594 255.349 178.646 255.37C178.677 255.385 178.713 255.417 178.75 255.438C178.781 255.453 178.818 255.484 178.865 255.505C178.885 255.505 178.901 255.521 178.901 255.521C178.969 255.557 179.052 255.557 179.141 255.573C179.187 255.573 179.224 255.604 179.276 255.604C179.292 255.604 179.307 255.604 179.328 255.604C179.344 255.604 179.359 255.604 179.375 255.604C179.427 255.604 179.463 255.589 179.51 255.573C179.599 255.557 179.667 255.557 179.75 255.521C179.766 255.521 179.786 255.505 179.786 255.505C179.838 255.484 179.87 255.453 179.906 255.438C179.937 255.417 179.974 255.401 180.005 255.37C180.042 255.333 180.094 255.318 180.125 255.302C180.141 255.281 180.141 255.281 180.141 255.266C180.177 255.229 180.193 255.214 180.208 255.182C180.229 255.162 180.245 255.162 180.26 255.146C180.672 254.568 190.469 241.349 210.302 250.979L212.021 256.542C192.12 248.255 184.823 255.266 183.135 257.427Z" fill="#EDE0D2"/>
</g>
<mask id="mask93_47_13837" style="mask-type:luminance" maskUnits="userSpaceOnUse" x="152" y="168" width="35" height="22">
<path d="M152.333 168.667H187V190H152.333V168.667Z" fill="white"/>
</mask>
<g mask="url(#mask93_47_13837)">
<mask id="mask94_47_13837" style="mask-type:luminance" maskUnits="userSpaceOnUse" x="150" y="165" width="40" height="29">
<path d="M156.333 165.078L189.474 176.344L183.677 193.385L150.542 182.12L156.333 165.078Z" fill="white"/>
</mask>
<g mask="url(#mask94_47_13837)">
<mask id="mask95_47_13837" style="mask-type:luminance" maskUnits="userSpaceOnUse" x="150" y="165" width="40" height="29">
<path d="M156.333 165.078L189.474 176.344L183.677 193.385L150.542 182.12L156.333 165.078Z" fill="white"/>
</mask>
<g mask="url(#mask95_47_13837)">
<path d="M186.562 184.609C186.375 185.156 186.088 185.656 185.693 186.12C185.302 186.583 184.812 186.995 184.224 187.354C183.64 187.714 182.969 188.021 182.213 188.266C181.458 188.516 180.63 188.698 179.729 188.823C178.833 188.948 177.88 189.005 176.875 189C175.87 188.995 174.833 188.927 173.76 188.797C172.687 188.661 171.599 188.469 170.5 188.214C169.401 187.958 168.307 187.646 167.224 187.276C166.135 186.906 165.078 186.49 164.052 186.021C163.026 185.552 162.042 185.047 161.114 184.495C160.182 183.948 159.318 183.37 158.515 182.76C157.719 182.151 157 181.521 156.359 180.875C155.724 180.234 155.182 179.583 154.734 178.922C154.286 178.266 153.937 177.615 153.693 176.974C153.448 176.328 153.312 175.703 153.281 175.099C153.25 174.495 153.328 173.922 153.515 173.375C153.698 172.833 153.984 172.328 154.38 171.87C154.771 171.406 155.26 170.995 155.849 170.635C156.432 170.271 157.104 169.969 157.864 169.724C158.62 169.474 159.448 169.286 160.344 169.167C161.239 169.042 162.193 168.984 163.198 168.984C164.203 168.99 165.239 169.057 166.318 169.193C167.39 169.323 168.474 169.521 169.573 169.776C170.677 170.031 171.765 170.344 172.854 170.714C173.937 171.083 174.995 171.5 176.021 171.969C177.052 172.438 178.031 172.943 178.963 173.495C179.896 174.042 180.76 174.62 181.557 175.229C182.359 175.839 183.078 176.464 183.713 177.109C184.349 177.755 184.89 178.406 185.338 179.062C185.792 179.719 186.135 180.37 186.38 181.016C186.625 181.656 186.765 182.281 186.792 182.891C186.823 183.495 186.745 184.068 186.562 184.609Z" fill="#FFB93E"/>
</g>
</g>
</g>
<mask id="mask96_47_13837" style="mask-type:luminance" maskUnits="userSpaceOnUse" x="169" y="167" width="37" height="23">
<path d="M169.667 167.333H205.667V190H169.667V167.333Z" fill="white"/>
</mask>
<g mask="url(#mask96_47_13837)">
<mask id="mask97_47_13837" style="mask-type:luminance" maskUnits="userSpaceOnUse" x="167" y="163" width="41" height="31">
<path d="M167.792 177.089L201.214 163.724L207.901 180.438L174.474 193.802L167.792 177.089Z" fill="white"/>
</mask>
<g mask="url(#mask97_47_13837)">
<mask id="mask98_47_13837" style="mask-type:luminance" maskUnits="userSpaceOnUse" x="167" y="163" width="41" height="31">
<path d="M167.792 177.089L201.214 163.724L207.901 180.438L174.474 193.802L167.792 177.089Z" fill="white"/>
</mask>
<g mask="url(#mask98_47_13837)">
<path d="M205.068 172.052C205.292 172.609 205.401 173.208 205.406 173.839C205.406 174.474 205.297 175.13 205.078 175.818C204.859 176.5 204.531 177.198 204.099 177.911C203.667 178.62 203.135 179.333 202.505 180.042C201.88 180.75 201.162 181.443 200.365 182.12C199.563 182.802 198.693 183.453 197.75 184.078C196.807 184.703 195.813 185.286 194.766 185.833C193.719 186.375 192.635 186.87 191.526 187.318C190.412 187.76 189.292 188.146 188.156 188.474C187.021 188.802 185.896 189.062 184.787 189.26C183.672 189.458 182.589 189.589 181.542 189.646C180.495 189.708 179.495 189.698 178.552 189.62C177.609 189.536 176.734 189.391 175.932 189.172C175.13 188.958 174.412 188.677 173.781 188.333C173.151 187.99 172.615 187.583 172.177 187.125C171.745 186.667 171.417 186.156 171.193 185.599C170.969 185.042 170.854 184.448 170.854 183.812C170.854 183.177 170.964 182.521 171.182 181.833C171.401 181.151 171.729 180.453 172.162 179.74C172.594 179.031 173.125 178.323 173.75 177.615C174.38 176.906 175.094 176.208 175.896 175.531C176.698 174.849 177.568 174.198 178.51 173.573C179.453 172.953 180.448 172.365 181.495 171.823C182.542 171.276 183.625 170.781 184.734 170.339C185.849 169.891 186.969 169.505 188.104 169.177C189.24 168.849 190.365 168.589 191.474 168.391C192.589 168.193 193.667 168.062 194.719 168.005C195.766 167.943 196.76 167.953 197.708 168.031C198.651 168.115 199.526 168.26 200.328 168.479C201.13 168.693 201.849 168.974 202.479 169.318C203.109 169.667 203.646 170.068 204.078 170.526C204.516 170.984 204.844 171.495 205.068 172.052Z" fill="#FFB93E"/>
</g>
</g>
</g>
</svg>
