<svg width="376" height="339" viewBox="0 0 376 339" fill="none" xmlns="http://www.w3.org/2000/svg">
<mask id="mask0_47_13846" style="mask-type:luminance" maskUnits="userSpaceOnUse" x="178" y="183" width="136" height="46">
<path d="M178 183.979H313.365V228.333H178V183.979Z" fill="white"/>
</mask>
<g mask="url(#mask0_47_13846)">
<path d="M200.109 228.302H291.099C303.276 228.302 313.146 218.427 313.146 206.255C313.146 194.078 303.276 184.203 291.099 184.203H200.109C187.938 184.203 178.062 194.078 178.062 206.255C178.062 218.427 187.938 228.302 200.109 228.302Z" fill="#604428"/>
</g>
<mask id="mask1_47_13846" style="mask-type:luminance" maskUnits="userSpaceOnUse" x="177" y="183" width="137" height="46">
<path d="M177.849 183.979H313.365V228.979H177.849V183.979Z" fill="white"/>
</mask>
<g mask="url(#mask1_47_13846)">
<path d="M200.109 228.516H291.099C303.38 228.516 313.365 218.536 313.365 206.255C313.365 193.969 303.38 183.99 291.099 183.99H200.109C187.828 183.99 177.849 193.969 177.849 206.255C177.849 218.536 187.828 228.516 200.109 228.516ZM291.099 184.422C303.146 184.422 312.932 194.208 312.932 206.255C312.932 218.297 303.146 228.089 291.099 228.089H200.109C188.062 228.089 178.276 218.297 178.276 206.255C178.276 194.208 188.062 184.422 200.109 184.422H291.099Z" fill="#604428"/>
</g>
<mask id="mask2_47_13846" style="mask-type:luminance" maskUnits="userSpaceOnUse" x="182" y="142" width="161" height="54">
<path d="M182.026 142.443H342.979V195.443H182.026V142.443Z" fill="white"/>
</mask>
<g mask="url(#mask2_47_13846)">
<path d="M208.438 195.115H316.568C331.036 195.115 342.771 183.38 342.771 168.911C342.771 154.448 331.036 142.714 316.568 142.714H208.438C193.969 142.714 182.234 154.448 182.234 168.911C182.234 183.38 193.969 195.115 208.438 195.115Z" fill="#604428"/>
<path d="M208.438 195.37H316.568C331.162 195.37 343.026 183.51 343.026 168.911C343.026 154.318 331.162 142.458 316.568 142.458H208.438C193.839 142.458 181.979 154.318 181.979 168.911C181.979 183.51 193.839 195.37 208.438 195.37ZM316.568 142.969C330.88 142.969 342.516 154.599 342.516 168.911C342.516 183.229 330.88 194.859 316.568 194.859H208.438C194.12 194.859 182.49 183.229 182.49 168.911C182.49 154.599 194.12 142.969 208.438 142.969H316.568Z" fill="#604428"/>
</g>
<mask id="mask3_47_13846" style="mask-type:luminance" maskUnits="userSpaceOnUse" x="214" y="108" width="162" height="54">
<path d="M214.688 108.448H375.641V161.448H214.688V108.448Z" fill="white"/>
</mask>
<g mask="url(#mask3_47_13846)">
<path d="M241.099 161.115H349.229C363.698 161.115 375.432 149.385 375.432 134.917C375.432 120.448 363.698 108.714 349.229 108.714H241.099C226.63 108.714 214.896 120.448 214.896 134.917C214.896 149.385 226.63 161.115 241.099 161.115Z" fill="#604428"/>
<path d="M241.099 161.37H349.229C363.828 161.37 375.688 149.51 375.688 134.917C375.688 120.318 363.828 108.458 349.229 108.458H241.099C226.5 108.458 214.641 120.318 214.641 134.917C214.641 149.51 226.5 161.37 241.099 161.37ZM349.229 108.969C363.547 108.969 375.177 120.599 375.177 134.917C375.177 149.229 363.547 160.859 349.229 160.859H241.099C226.781 160.859 215.151 149.229 215.151 134.917C215.151 120.599 226.781 108.969 241.099 108.969H349.229Z" fill="#604428"/>
</g>
<mask id="mask4_47_13846" style="mask-type:luminance" maskUnits="userSpaceOnUse" x="104" y="260" width="42" height="50">
<path d="M104.667 260.333H146V309.667H104.667V260.333Z" fill="white"/>
</mask>
<g mask="url(#mask4_47_13846)">
<mask id="mask5_47_13846" style="mask-type:luminance" maskUnits="userSpaceOnUse" x="103" y="259" width="45" height="52">
<path d="M103.609 305.01L141.062 259.417L147.245 264.495L109.792 310.089L103.609 305.01Z" fill="white"/>
</mask>
<g mask="url(#mask5_47_13846)">
<mask id="mask6_47_13846" style="mask-type:luminance" maskUnits="userSpaceOnUse" x="103" y="259" width="45" height="52">
<path d="M103.609 305.01L141.062 259.417L147.245 264.495L109.792 310.089L103.609 305.01Z" fill="white"/>
</mask>
<g mask="url(#mask6_47_13846)">
<path d="M138.339 262.76L135.656 266.026L135.661 266.036L109.005 298.49L108.995 298.479L106.313 301.75C104.828 303.552 105.089 306.224 106.896 307.703C108.698 309.188 111.37 308.922 112.849 307.12L144.875 268.13C146.359 266.328 146.104 263.661 144.302 262.182C142.5 260.703 139.818 260.953 138.339 262.76Z" fill="#FCD590"/>
</g>
</g>
</g>
<mask id="mask7_47_13846" style="mask-type:luminance" maskUnits="userSpaceOnUse" x="107" y="291" width="13" height="15">
<path d="M107.333 291H119.333V305.667H107.333V291Z" fill="white"/>
</mask>
<g mask="url(#mask7_47_13846)">
<mask id="mask8_47_13846" style="mask-type:luminance" maskUnits="userSpaceOnUse" x="103" y="259" width="45" height="52">
<path d="M103.609 305.01L141.062 259.417L147.245 264.495L109.792 310.089L103.609 305.01Z" fill="white"/>
</mask>
<g mask="url(#mask8_47_13846)">
<mask id="mask9_47_13846" style="mask-type:luminance" maskUnits="userSpaceOnUse" x="103" y="259" width="45" height="52">
<path d="M103.609 305.01L141.062 259.417L147.245 264.495L109.792 310.089L103.609 305.01Z" fill="white"/>
</mask>
<g mask="url(#mask9_47_13846)">
<path d="M117.25 291.75L107.937 303.089C107.568 303.547 107.63 304.208 108.088 304.583C108.542 304.958 109.203 304.891 109.578 304.438L112.266 301.167L112.255 301.161L118.875 293.099C119.25 292.646 119.182 291.984 118.729 291.609C118.271 291.234 117.62 291.307 117.25 291.75Z" fill="#FCD590"/>
</g>
</g>
</g>
<mask id="mask10_47_13846" style="mask-type:luminance" maskUnits="userSpaceOnUse" x="74" y="232" width="42" height="50">
<path d="M74 232.333H115.333V281.667H74V232.333Z" fill="white"/>
</mask>
<g mask="url(#mask10_47_13846)">
<mask id="mask11_47_13846" style="mask-type:luminance" maskUnits="userSpaceOnUse" x="73" y="231" width="44" height="51">
<path d="M73.0625 276.807L110.51 231.219L116.693 236.297L79.2448 281.885L73.0625 276.807Z" fill="white"/>
</mask>
<g mask="url(#mask11_47_13846)">
<mask id="mask12_47_13846" style="mask-type:luminance" maskUnits="userSpaceOnUse" x="73" y="231" width="44" height="51">
<path d="M73.0625 276.807L110.51 231.219L116.693 236.297L79.2448 281.885L73.0625 276.807Z" fill="white"/>
</mask>
<g mask="url(#mask12_47_13846)">
<path d="M107.792 234.557L105.104 237.828L105.115 237.833L78.4531 270.292L78.4479 270.281L75.7604 273.552C74.2812 275.354 74.5416 278.026 76.3437 279.505C78.1458 280.99 80.8177 280.724 82.2968 278.922L114.328 239.927C115.807 238.125 115.557 235.464 113.755 233.984C111.948 232.5 109.271 232.755 107.792 234.557Z" fill="#FCD590"/>
</g>
</g>
</g>
<mask id="mask13_47_13846" style="mask-type:luminance" maskUnits="userSpaceOnUse" x="76" y="263" width="13" height="15">
<path d="M76.6667 263H88.6667V277.667H76.6667V263Z" fill="white"/>
</mask>
<g mask="url(#mask13_47_13846)">
<mask id="mask14_47_13846" style="mask-type:luminance" maskUnits="userSpaceOnUse" x="73" y="231" width="44" height="51">
<path d="M73.0625 276.807L110.51 231.219L116.693 236.297L79.2448 281.885L73.0625 276.807Z" fill="white"/>
</mask>
<g mask="url(#mask14_47_13846)">
<mask id="mask15_47_13846" style="mask-type:luminance" maskUnits="userSpaceOnUse" x="73" y="231" width="44" height="51">
<path d="M73.0625 276.807L110.51 231.219L116.693 236.297L79.2448 281.885L73.0625 276.807Z" fill="white"/>
</mask>
<g mask="url(#mask15_47_13846)">
<path d="M86.7032 263.552L77.3907 274.891C77.0157 275.344 77.0834 276.01 77.5366 276.385C77.9949 276.755 78.6564 276.693 79.0314 276.234L81.7136 272.969L81.7084 272.958L88.3282 264.901C88.698 264.448 88.6355 263.781 88.1772 263.406C87.7241 263.036 87.0678 263.109 86.7032 263.552Z" fill="#FCD590"/>
</g>
</g>
</g>
<mask id="mask16_47_13846" style="mask-type:luminance" maskUnits="userSpaceOnUse" x="66" y="247" width="15" height="54">
<path d="M66 247H80.6667V300.333H66V247Z" fill="white"/>
</mask>
<g mask="url(#mask16_47_13846)">
<mask id="mask17_47_13846" style="mask-type:luminance" maskUnits="userSpaceOnUse" x="66" y="246" width="15" height="55">
<path d="M72.7812 300.464L66.2188 247.87L74.1615 246.88L80.7188 299.474L72.7812 300.464Z" fill="white"/>
</mask>
<g mask="url(#mask17_47_13846)">
<mask id="mask18_47_13846" style="mask-type:luminance" maskUnits="userSpaceOnUse" x="66" y="246" width="15" height="55">
<path d="M72.7812 300.464L66.2188 247.87L74.1615 246.88L80.7188 299.474L72.7812 300.464Z" fill="white"/>
</mask>
<g mask="url(#mask18_47_13846)">
<path d="M66.7188 251.76L67.1875 255.526H67.1979L71.8646 292.922L71.8542 292.927L72.3229 296.693C72.5834 298.771 74.4844 300.25 76.5625 299.99C78.6406 299.729 80.1198 297.833 79.8594 295.755L74.2552 250.818C73.9948 248.74 72.1042 247.26 70.0261 247.521C67.9479 247.781 66.4584 249.682 66.7188 251.76Z" fill="#FCD590"/>
</g>
</g>
</g>
<mask id="mask19_47_13846" style="mask-type:luminance" maskUnits="userSpaceOnUse" x="71" y="281" width="6" height="17">
<path d="M71.3333 281.667H76.6666V297.667H71.3333V281.667Z" fill="white"/>
</mask>
<g mask="url(#mask19_47_13846)">
<mask id="mask20_47_13846" style="mask-type:luminance" maskUnits="userSpaceOnUse" x="66" y="246" width="15" height="55">
<path d="M72.7812 300.464L66.2188 247.87L74.1615 246.88L80.7188 299.474L72.7812 300.464Z" fill="white"/>
</mask>
<g mask="url(#mask20_47_13846)">
<mask id="mask21_47_13846" style="mask-type:luminance" maskUnits="userSpaceOnUse" x="66" y="246" width="15" height="55">
<path d="M72.7812 300.464L66.2188 247.87L74.1615 246.88L80.7188 299.474L72.7812 300.464Z" fill="white"/>
</mask>
<g mask="url(#mask21_47_13846)">
<path d="M72.5728 283.396L74.203 296.458C74.2655 296.984 74.7395 297.349 75.2655 297.286C75.7864 297.219 76.1561 296.75 76.0884 296.224L75.6197 292.458H75.6093L74.453 283.172C74.3853 282.646 73.9166 282.276 73.3905 282.344C72.8645 282.411 72.5103 282.88 72.5728 283.396Z" fill="#FCD590"/>
</g>
</g>
</g>
<mask id="mask22_47_13846" style="mask-type:luminance" maskUnits="userSpaceOnUse" x="47" y="261" width="49" height="30">
<path d="M47.3333 261.667H95.3333V291H47.3333V261.667Z" fill="white"/>
</mask>
<g mask="url(#mask22_47_13846)">
<mask id="mask23_47_13846" style="mask-type:luminance" maskUnits="userSpaceOnUse" x="45" y="260" width="52" height="32">
<path d="M93.1562 291.526L45.9114 267.51L49.5364 260.38L96.7812 284.396L93.1562 291.526Z" fill="white"/>
</mask>
<g mask="url(#mask23_47_13846)">
<mask id="mask24_47_13846" style="mask-type:luminance" maskUnits="userSpaceOnUse" x="45" y="260" width="52" height="32">
<path d="M93.1562 291.526L45.9114 267.51L49.5364 260.38L96.7812 284.396L93.1562 291.526Z" fill="white"/>
</mask>
<g mask="url(#mask24_47_13846)">
<path d="M49.4113 269.276L52.7967 270.995L52.8019 270.984L86.4009 288.063L86.3957 288.073L89.7811 289.792C91.6457 290.74 93.9374 289.995 94.8853 288.13C95.8332 286.26 95.0884 283.974 93.2186 283.026L52.854 262.505C50.9894 261.557 48.703 262.292 47.7551 264.161C46.8072 266.026 47.5467 268.323 49.4113 269.276Z" fill="#FCD590"/>
</g>
</g>
</g>
<mask id="mask25_47_13846" style="mask-type:luminance" maskUnits="userSpaceOnUse" x="78" y="280" width="15" height="9">
<path d="M78 280.333H92.6667V288.333H78V280.333Z" fill="white"/>
</mask>
<g mask="url(#mask25_47_13846)">
<mask id="mask26_47_13846" style="mask-type:luminance" maskUnits="userSpaceOnUse" x="45" y="260" width="52" height="32">
<path d="M93.1562 291.526L45.9114 267.51L49.5364 260.38L96.7812 284.396L93.1562 291.526Z" fill="white"/>
</mask>
<g mask="url(#mask26_47_13846)">
<mask id="mask27_47_13846" style="mask-type:luminance" maskUnits="userSpaceOnUse" x="45" y="260" width="52" height="32">
<path d="M93.1562 291.526L45.9114 267.51L49.5364 260.38L96.7812 284.396L93.1562 291.526Z" fill="white"/>
</mask>
<g mask="url(#mask27_47_13846)">
<path d="M78.9009 282.141L90.6353 288.104C91.1092 288.344 91.6769 288.161 91.9165 287.688C92.1561 287.219 91.9738 286.651 91.4998 286.411L88.1144 284.688L88.1092 284.698L79.7655 280.458C79.2967 280.219 78.729 280.401 78.4894 280.875C78.2498 281.344 78.4373 281.906 78.9009 282.141Z" fill="#FCD590"/>
</g>
</g>
</g>
<mask id="mask28_47_13846" style="mask-type:luminance" maskUnits="userSpaceOnUse" x="102" y="284" width="15" height="55">
<path d="M102 284.333H116.667V339H102V284.333Z" fill="white"/>
</mask>
<g mask="url(#mask28_47_13846)">
<mask id="mask29_47_13846" style="mask-type:luminance" maskUnits="userSpaceOnUse" x="101" y="285" width="16" height="54">
<path d="M109.526 285.078L116.083 337.672L108.146 338.661L101.589 286.073L109.526 285.078Z" fill="white"/>
</mask>
<g mask="url(#mask29_47_13846)">
<mask id="mask30_47_13846" style="mask-type:luminance" maskUnits="userSpaceOnUse" x="101" y="284" width="16" height="55">
<path d="M116.068 337.547L109.51 284.958L101.573 285.948L108.13 338.536L116.068 337.547Z" fill="white"/>
</mask>
<g mask="url(#mask30_47_13846)">
<path d="M109.979 288.849L110.453 292.615L110.443 292.62L115.104 330.016H115.115L115.583 333.781C115.844 335.859 114.365 337.76 112.286 338.021C110.208 338.281 108.307 336.802 108.052 334.724L102.448 289.786C102.187 287.714 103.656 285.812 105.734 285.552C107.812 285.292 109.724 286.771 109.979 288.849Z" fill="#FCD590"/>
</g>
</g>
</g>
<mask id="mask31_47_13846" style="mask-type:luminance" maskUnits="userSpaceOnUse" x="110" y="319" width="4" height="18">
<path d="M110 319H114V336.333H110V319Z" fill="white"/>
</mask>
<g mask="url(#mask31_47_13846)">
<mask id="mask32_47_13846" style="mask-type:luminance" maskUnits="userSpaceOnUse" x="101" y="285" width="16" height="54">
<path d="M109.526 285.078L116.083 337.672L108.146 338.661L101.589 286.073L109.526 285.078Z" fill="white"/>
</mask>
<g mask="url(#mask32_47_13846)">
<mask id="mask33_47_13846" style="mask-type:luminance" maskUnits="userSpaceOnUse" x="101" y="284" width="16" height="55">
<path d="M116.068 337.547L109.51 284.958L101.573 285.948L108.13 338.536L116.068 337.547Z" fill="white"/>
</mask>
<g mask="url(#mask33_47_13846)">
<path d="M112.078 320.953L113.709 334.016C113.771 334.542 113.406 335.016 112.88 335.078C112.354 335.146 111.886 334.776 111.818 334.255L111.349 330.484H111.36L110.198 321.198C110.136 320.672 110.5 320.203 111.026 320.135C111.552 320.068 112.016 320.437 112.078 320.953Z" fill="#FCD590"/>
</g>
</g>
</g>
<mask id="mask34_47_13846" style="mask-type:luminance" maskUnits="userSpaceOnUse" x="86" y="295" width="50" height="30">
<path d="M86 295H135.333V324.333H86V295Z" fill="white"/>
</mask>
<g mask="url(#mask34_47_13846)">
<mask id="mask35_47_13846" style="mask-type:luminance" maskUnits="userSpaceOnUse" x="85" y="294" width="52" height="32">
<path d="M89.1458 294.016L136.396 318.031L132.771 325.167L85.5208 301.146L89.1458 294.016Z" fill="white"/>
</mask>
<g mask="url(#mask35_47_13846)">
<mask id="mask36_47_13846" style="mask-type:luminance" maskUnits="userSpaceOnUse" x="85" y="293" width="52" height="33">
<path d="M136.281 317.974L89.0364 293.958L85.4114 301.094L132.656 325.109L136.281 317.974Z" fill="white"/>
</mask>
<g mask="url(#mask36_47_13846)">
<path d="M92.5258 295.75L95.9113 297.469L95.906 297.479L129.5 314.557L129.505 314.547L132.89 316.266C134.76 317.219 135.505 319.505 134.557 321.375C133.604 323.24 131.318 323.984 129.453 323.036L89.0831 302.516C87.2185 301.568 86.4685 299.286 87.4165 297.422C88.3644 295.557 90.656 294.802 92.5258 295.75Z" fill="#FCD590"/>
</g>
</g>
</g>
<mask id="mask37_47_13846" style="mask-type:luminance" maskUnits="userSpaceOnUse" x="118" y="311" width="15" height="10">
<path d="M118 311H132.667V320.333H118V311Z" fill="white"/>
</mask>
<g mask="url(#mask37_47_13846)">
<mask id="mask38_47_13846" style="mask-type:luminance" maskUnits="userSpaceOnUse" x="85" y="294" width="52" height="32">
<path d="M89.1458 294.016L136.396 318.031L132.771 325.167L85.5208 301.146L89.1458 294.016Z" fill="white"/>
</mask>
<g mask="url(#mask38_47_13846)">
<mask id="mask39_47_13846" style="mask-type:luminance" maskUnits="userSpaceOnUse" x="85" y="293" width="52" height="33">
<path d="M136.281 317.974L89.0364 293.958L85.4114 301.094L132.656 325.109L136.281 317.974Z" fill="white"/>
</mask>
<g mask="url(#mask39_47_13846)">
<path d="M120.297 311.99L132.031 317.953C132.505 318.193 132.693 318.766 132.453 319.234C132.214 319.708 131.641 319.891 131.172 319.651L127.786 317.932L127.792 317.922L119.448 313.682C118.979 313.443 118.792 312.875 119.031 312.401C119.271 311.932 119.833 311.755 120.297 311.99Z" fill="#FCD590"/>
</g>
</g>
</g>
<mask id="mask40_47_13846" style="mask-type:luminance" maskUnits="userSpaceOnUse" x="80" y="0" width="58" height="59">
<path d="M80.6667 0.333344H138V59H80.6667V0.333344Z" fill="white"/>
</mask>
<g mask="url(#mask40_47_13846)">
<mask id="mask41_47_13846" style="mask-type:luminance" maskUnits="userSpaceOnUse" x="70" y="-9" width="84" height="84">
<path d="M153.833 42.073L121.307 74.599L70.396 23.6875L102.922 -8.8385L153.833 42.073Z" fill="white"/>
</mask>
<g mask="url(#mask41_47_13846)">
<mask id="mask42_47_13846" style="mask-type:luminance" maskUnits="userSpaceOnUse" x="70" y="-9" width="84" height="84">
<path d="M153.833 42.073L121.307 74.599L70.396 23.6875L102.922 -8.8385L153.833 42.073Z" fill="white"/>
</mask>
<g mask="url(#mask42_47_13846)">
<path d="M105.854 49.7344L137.62 58.2813L129.078 26.5104C128 22.0938 124.25 12.5 120.724 8.97398C111.078 -0.67185 96.0053 -1.23435 87.0521 7.71357C78.099 16.6667 78.6615 31.7396 88.3073 41.3907C91.8386 44.9167 101.438 48.6563 105.854 49.7344Z" fill="#442F19"/>
</g>
</g>
</g>
<mask id="mask43_47_13846" style="mask-type:luminance" maskUnits="userSpaceOnUse" x="127" y="0" width="59" height="59">
<path d="M127.333 0.333344H186V59H127.333V0.333344Z" fill="white"/>
</mask>
<g mask="url(#mask43_47_13846)">
<mask id="mask44_47_13846" style="mask-type:luminance" maskUnits="userSpaceOnUse" x="112" y="-9" width="84" height="84">
<path d="M144.771 74.5L112.24 41.9688L163.151 -8.94269L195.682 23.5886L144.771 74.5Z" fill="white"/>
</mask>
<g mask="url(#mask44_47_13846)">
<mask id="mask45_47_13846" style="mask-type:luminance" maskUnits="userSpaceOnUse" x="112" y="-9" width="84" height="84">
<path d="M112.344 42.073L144.87 74.599L195.781 23.6875L163.255 -8.8385L112.344 42.073Z" fill="white"/>
</mask>
<g mask="url(#mask45_47_13846)">
<path d="M160.323 49.7344L128.552 58.2813L137.099 26.5104C138.177 22.0938 141.922 12.5 145.448 8.97398C155.099 -0.67185 170.172 -1.23435 179.12 7.71357C188.073 16.6667 187.516 31.7396 177.865 41.3907C174.338 44.9167 164.74 48.6563 160.323 49.7344Z" fill="#442F19"/>
</g>
</g>
</g>
<mask id="mask46_47_13846" style="mask-type:luminance" maskUnits="userSpaceOnUse" x="79" y="116" width="178" height="178">
<path d="M79.6926 116.797H256.667V293.667H79.6926V116.797Z" fill="white"/>
</mask>
<g mask="url(#mask46_47_13846)">
<path d="M256.333 205.115C256.333 206.562 256.297 208.005 256.224 209.448C256.156 210.896 256.047 212.333 255.906 213.771C255.766 215.214 255.588 216.646 255.375 218.073C255.161 219.505 254.917 220.927 254.635 222.349C254.354 223.766 254.036 225.172 253.682 226.578C253.333 227.979 252.948 229.37 252.531 230.755C252.109 232.135 251.656 233.51 251.167 234.87C250.682 236.229 250.161 237.578 249.609 238.917C249.057 240.25 248.469 241.573 247.854 242.88C247.234 244.182 246.583 245.474 245.901 246.75C245.224 248.026 244.51 249.281 243.766 250.521C243.021 251.76 242.25 252.984 241.448 254.182C240.646 255.385 239.812 256.568 238.953 257.729C238.088 258.891 237.203 260.026 236.286 261.146C235.365 262.266 234.422 263.359 233.453 264.427C232.484 265.5 231.484 266.547 230.463 267.568C229.443 268.589 228.396 269.589 227.323 270.557C226.255 271.526 225.156 272.474 224.042 273.391C222.922 274.307 221.786 275.193 220.625 276.057C219.463 276.917 218.281 277.75 217.078 278.552C215.88 279.354 214.656 280.13 213.417 280.87C212.177 281.615 210.922 282.328 209.646 283.005C208.37 283.688 207.078 284.339 205.771 284.958C204.469 285.573 203.146 286.161 201.812 286.714C200.474 287.266 199.125 287.786 197.766 288.276C196.406 288.76 195.031 289.214 193.651 289.635C192.266 290.052 190.875 290.438 189.474 290.792C188.068 291.141 186.661 291.458 185.24 291.74C183.823 292.021 182.401 292.271 180.969 292.479C179.542 292.693 178.109 292.87 176.667 293.01C175.229 293.151 173.786 293.26 172.344 293.328C170.901 293.401 169.458 293.438 168.01 293.438C166.568 293.438 165.12 293.401 163.677 293.328C162.234 293.26 160.792 293.151 159.354 293.01C157.917 292.87 156.484 292.693 155.052 292.479C153.62 292.271 152.198 292.021 150.781 291.74C149.365 291.458 147.953 291.141 146.552 290.792C145.151 290.438 143.755 290.052 142.375 289.635C140.99 289.214 139.62 288.76 138.255 288.276C136.896 287.786 135.547 287.266 134.213 286.714C132.875 286.161 131.557 285.573 130.25 284.958C128.943 284.339 127.651 283.688 126.375 283.005C125.104 282.328 123.844 281.615 122.604 280.87C121.365 280.13 120.146 279.354 118.943 278.552C117.74 277.75 116.562 276.917 115.401 276.057C114.24 275.193 113.099 274.307 111.979 273.391C110.865 272.474 109.771 271.526 108.698 270.557C107.63 269.589 106.583 268.589 105.557 267.568C104.536 266.547 103.542 265.5 102.573 264.427C101.599 263.359 100.656 262.266 99.7395 261.146C98.8228 260.026 97.9322 258.891 97.0728 257.729C96.2083 256.568 95.3801 255.385 94.578 254.182C93.7708 252.984 92.9999 251.76 92.2551 250.521C91.5155 249.281 90.802 248.026 90.1197 246.75C89.4374 245.474 88.7864 244.182 88.1718 242.88C87.552 241.573 86.9687 240.25 86.4166 238.917C85.8593 237.578 85.3385 236.229 84.8541 234.87C84.3645 233.51 83.9114 232.135 83.4947 230.755C83.0728 229.37 82.6874 227.979 82.3385 226.578C81.9843 225.172 81.6718 223.766 81.3905 222.349C81.1041 220.927 80.8593 219.505 80.6458 218.073C80.4374 216.646 80.2603 215.214 80.1145 213.771C79.9739 212.333 79.8697 210.896 79.7968 209.448C79.7291 208.005 79.6926 206.562 79.6926 205.115C79.6926 203.672 79.7291 202.224 79.7968 200.781C79.8697 199.339 79.9739 197.896 80.1145 196.458C80.2603 195.021 80.4374 193.589 80.6458 192.156C80.8593 190.729 81.1041 189.302 81.3905 187.885C81.6718 186.469 81.9843 185.057 82.3385 183.656C82.6874 182.255 83.0728 180.859 83.4947 179.479C83.9114 178.094 84.3645 176.724 84.8541 175.359C85.3385 174 85.8593 172.651 86.4166 171.318C86.9687 169.984 87.552 168.661 88.1718 167.354C88.7864 166.047 89.4374 164.755 90.1197 163.484C90.802 162.208 91.5155 160.948 92.2551 159.708C92.9999 158.469 93.7708 157.25 94.578 156.047C95.3801 154.844 96.2083 153.667 97.0728 152.505C97.9322 151.344 98.8228 150.203 99.7395 149.089C100.656 147.969 101.599 146.875 102.573 145.802C103.542 144.734 104.536 143.688 105.557 142.667C106.583 141.641 107.63 140.646 108.698 139.677C109.771 138.703 110.865 137.76 111.979 136.844C113.099 135.927 114.24 135.036 115.401 134.177C116.562 133.318 117.74 132.484 118.943 131.682C120.146 130.875 121.365 130.104 122.604 129.359C123.844 128.62 125.104 127.906 126.375 127.224C127.651 126.542 128.943 125.896 130.25 125.276C131.557 124.656 132.875 124.073 134.213 123.521C135.547 122.964 136.896 122.448 138.255 121.958C139.62 121.474 140.99 121.021 142.375 120.599C143.755 120.177 145.151 119.792 146.552 119.443C147.953 119.094 149.365 118.776 150.781 118.495C152.198 118.208 153.62 117.964 155.052 117.75C156.484 117.542 157.917 117.365 159.354 117.219C160.792 117.078 162.234 116.974 163.677 116.901C165.12 116.833 166.568 116.797 168.01 116.797C169.458 116.797 170.901 116.833 172.344 116.901C173.786 116.974 175.229 117.078 176.667 117.219C178.109 117.365 179.542 117.542 180.969 117.75C182.401 117.964 183.823 118.208 185.24 118.495C186.661 118.776 188.068 119.094 189.474 119.443C190.875 119.792 192.266 120.177 193.651 120.599C195.031 121.021 196.406 121.474 197.766 121.958C199.125 122.448 200.474 122.964 201.812 123.521C203.146 124.073 204.469 124.656 205.771 125.276C207.078 125.896 208.37 126.542 209.646 127.224C210.922 127.906 212.177 128.62 213.417 129.359C214.656 130.104 215.88 130.875 217.078 131.682C218.281 132.484 219.463 133.318 220.625 134.177C221.786 135.036 222.922 135.927 224.042 136.844C225.156 137.76 226.255 138.703 227.323 139.677C228.396 140.646 229.443 141.641 230.463 142.667C231.484 143.688 232.484 144.734 233.453 145.802C234.422 146.875 235.365 147.969 236.286 149.089C237.203 150.203 238.088 151.344 238.953 152.505C239.812 153.667 240.646 154.844 241.448 156.047C242.25 157.25 243.021 158.469 243.766 159.708C244.51 160.948 245.224 162.208 245.901 163.484C246.583 164.755 247.234 166.047 247.854 167.354C248.469 168.661 249.057 169.984 249.609 171.318C250.161 172.651 250.682 174 251.167 175.359C251.656 176.724 252.109 178.094 252.531 179.479C252.948 180.859 253.333 182.255 253.687 183.656C254.036 185.057 254.354 186.469 254.635 187.885C254.917 189.302 255.161 190.729 255.375 192.156C255.588 193.589 255.766 195.021 255.906 196.458C256.047 197.896 256.156 199.339 256.224 200.781C256.297 202.224 256.333 203.672 256.333 205.115Z" fill="#442F19"/>
</g>
<mask id="mask47_47_13846" style="mask-type:luminance" maskUnits="userSpaceOnUse" x="44" y="51" width="178" height="178">
<path d="M44.6511 51.8854H221.651V228.885H44.6511V51.8854Z" fill="white"/>
</mask>
<g mask="url(#mask47_47_13846)">
<path d="M221.292 140.208C221.292 141.651 221.255 143.094 221.182 144.542C221.115 145.984 221.005 147.427 220.865 148.865C220.724 150.302 220.547 151.734 220.333 153.167C220.125 154.594 219.875 156.021 219.594 157.438C219.313 158.854 218.995 160.266 218.646 161.667C218.292 163.068 217.906 164.464 217.49 165.844C217.068 167.229 216.615 168.599 216.13 169.958C215.641 171.323 215.12 172.672 214.568 174.005C214.016 175.339 213.427 176.661 212.813 177.969C212.193 179.276 211.542 180.568 210.865 181.839C210.182 183.115 209.469 184.37 208.724 185.615C207.984 186.854 207.208 188.073 206.406 189.276C205.604 190.474 204.771 191.656 203.912 192.818C203.047 193.979 202.162 195.12 201.245 196.234C200.328 197.354 199.38 198.448 198.412 199.521C197.443 200.589 196.443 201.635 195.422 202.656C194.401 203.682 193.354 204.677 192.281 205.646C191.214 206.62 190.12 207.563 189 208.479C187.885 209.396 186.745 210.286 185.583 211.146C184.422 212.005 183.24 212.839 182.037 213.641C180.839 214.443 179.615 215.219 178.375 215.964C177.135 216.703 175.88 217.417 174.604 218.099C173.328 218.781 172.042 219.427 170.734 220.047C169.427 220.667 168.104 221.25 166.771 221.802C165.432 222.354 164.083 222.875 162.724 223.365C161.365 223.849 159.99 224.302 158.609 224.724C157.224 225.141 155.833 225.526 154.432 225.88C153.031 226.229 151.62 226.547 150.203 226.828C148.781 227.109 147.359 227.359 145.932 227.573C144.5 227.781 143.068 227.958 141.63 228.099C140.188 228.245 138.75 228.349 137.302 228.422C135.859 228.49 134.417 228.526 132.969 228.526C131.526 228.526 130.083 228.49 128.635 228.422C127.193 228.349 125.75 228.245 124.313 228.099C122.875 227.958 121.443 227.781 120.01 227.573C118.583 227.359 117.156 227.109 115.74 226.828C114.323 226.547 112.912 226.229 111.51 225.88C110.109 225.526 108.714 225.141 107.333 224.724C105.948 224.302 104.578 223.849 103.219 223.365C101.854 222.875 100.505 222.354 99.172 221.802C97.8386 221.25 96.5157 220.667 95.2084 220.047C93.9011 219.427 92.6095 218.781 91.3386 218.099C90.0626 217.417 88.8074 216.703 87.5626 215.964C86.323 215.219 85.1042 214.443 83.9011 213.641C82.7032 212.839 81.5209 212.005 80.3595 211.146C79.198 210.286 78.0574 209.396 76.9428 208.479C75.823 207.563 74.7292 206.62 73.6563 205.646C72.5886 204.677 71.5417 203.682 70.5209 202.656C69.4949 201.635 68.5001 200.589 67.5313 199.521C66.5574 198.448 65.6147 197.354 64.698 196.234C63.7813 195.12 62.8907 193.979 62.0313 192.818C61.172 191.656 60.3386 190.474 59.5365 189.276C58.7345 188.073 57.9584 186.854 57.2136 185.615C56.474 184.37 55.7605 183.115 55.0782 181.839C54.3959 180.568 53.7501 179.276 53.1303 177.969C52.5105 176.661 51.9272 175.339 51.3751 174.005C50.8178 172.672 50.3022 171.323 49.8126 169.958C49.3282 168.599 48.8751 167.229 48.4532 165.844C48.0365 164.464 47.6511 163.068 47.297 161.667C46.948 160.266 46.6303 158.854 46.349 157.438C46.0678 156.021 45.8178 154.594 45.6042 153.167C45.3959 151.734 45.2188 150.302 45.0782 148.865C44.9324 147.427 44.8282 145.984 44.7553 144.542C44.6876 143.094 44.6511 141.651 44.6511 140.208C44.6511 138.76 44.6876 137.318 44.7553 135.875C44.8282 134.427 44.9324 132.99 45.0782 131.547C45.2188 130.109 45.3959 128.677 45.6042 127.245C45.8178 125.818 46.0678 124.396 46.349 122.974C46.6303 121.557 46.948 120.146 47.297 118.745C47.6511 117.344 48.0365 115.953 48.4532 114.568C48.8751 113.188 49.3282 111.813 49.8126 110.453C50.3022 109.094 50.8178 107.745 51.3751 106.406C51.9272 105.073 52.5105 103.75 53.1303 102.443C53.7501 101.135 54.3959 99.849 55.0782 98.5729C55.7605 97.2969 56.474 96.0417 57.2136 94.8021C57.9584 93.5625 58.7345 92.3386 59.5365 91.1406C60.3386 89.9375 61.172 88.7552 62.0313 87.5938C62.8907 86.4323 63.7813 85.2917 64.698 84.1771C65.6147 83.0573 66.5574 81.9636 67.5313 80.8959C68.5001 79.8229 69.4949 78.7761 70.5209 77.7552C71.5417 76.7344 72.5886 75.7344 73.6563 74.7656C74.7292 73.7969 75.823 72.849 76.9428 71.9323C78.0574 71.0156 79.198 70.1302 80.3595 69.2656C81.5209 68.4063 82.7032 67.5729 83.9011 66.7709C85.1042 65.9688 86.323 65.1927 87.5626 64.4531C88.8074 63.7084 90.0626 62.9948 91.3386 62.3125C92.6095 61.6354 93.9011 60.9844 95.2084 60.3646C96.5157 59.75 97.8386 59.1615 99.172 58.6094C100.505 58.0573 101.854 57.5365 103.219 57.0469C104.578 56.5625 105.948 56.1094 107.333 55.6875C108.714 55.2709 110.109 54.8854 111.51 54.5313C112.912 54.1823 114.323 53.8646 115.74 53.5834C117.156 53.3021 118.583 53.0521 120.01 52.8438C121.443 52.6302 122.875 52.4531 124.313 52.3125C125.75 52.1719 127.193 52.0625 128.635 51.9948C130.083 51.9219 131.526 51.8854 132.969 51.8854C134.417 51.8854 135.859 51.9219 137.302 51.9948C138.75 52.0625 140.188 52.1719 141.63 52.3125C143.068 52.4531 144.5 52.6302 145.932 52.8438C147.359 53.0521 148.781 53.3021 150.203 53.5834C151.62 53.8646 153.031 54.1823 154.432 54.5313C155.833 54.8854 157.224 55.2709 158.609 55.6875C159.99 56.1094 161.365 56.5625 162.724 57.0469C164.083 57.5365 165.432 58.0573 166.771 58.6094C168.104 59.1615 169.427 59.75 170.734 60.3646C172.042 60.9844 173.328 61.6354 174.604 62.3125C175.88 62.9948 177.135 63.7084 178.375 64.4531C179.615 65.1927 180.839 65.9688 182.037 66.7709C183.24 67.5729 184.422 68.4063 185.583 69.2656C186.745 70.1302 187.885 71.0156 189 71.9323C190.12 72.849 191.214 73.7969 192.281 74.7656C193.354 75.7344 194.401 76.7344 195.422 77.7552C196.443 78.7761 197.443 79.8229 198.412 80.8959C199.38 81.9636 200.328 83.0573 201.245 84.1771C202.162 85.2917 203.047 86.4323 203.912 87.5938C204.771 88.7552 205.604 89.9375 206.406 91.1406C207.208 92.3386 207.984 93.5625 208.724 94.8021C209.469 96.0417 210.182 97.2969 210.865 98.5729C211.542 99.849 212.193 101.135 212.813 102.443C213.427 103.75 214.016 105.073 214.568 106.406C215.12 107.745 215.641 109.094 216.13 110.453C216.615 111.813 217.068 113.188 217.49 114.568C217.906 115.953 218.292 117.344 218.646 118.745C218.995 120.146 219.313 121.557 219.594 122.974C219.875 124.396 220.125 125.818 220.333 127.245C220.547 128.677 220.724 130.109 220.865 131.547C221.005 132.99 221.115 134.427 221.182 135.875C221.255 137.318 221.292 138.76 221.292 140.208Z" fill="#EDE0D2"/>
</g>
<mask id="mask48_47_13846" style="mask-type:luminance" maskUnits="userSpaceOnUse" x="65" y="91" width="64" height="64">
<path d="M65.4426 91.6719H128.135V154.37H65.4426V91.6719Z" fill="white"/>
</mask>
<g mask="url(#mask48_47_13846)">
<mask id="mask49_47_13846" style="mask-type:luminance" maskUnits="userSpaceOnUse" x="65" y="91" width="64" height="64">
<path d="M96.7916 91.6719C79.4739 91.6719 65.4426 105.708 65.4426 123.021C65.4426 140.333 79.4739 154.37 96.7916 154.37C114.104 154.37 128.135 140.333 128.135 123.021C128.135 105.708 114.104 91.6719 96.7916 91.6719Z" fill="white"/>
</mask>
<g mask="url(#mask49_47_13846)">
<path d="M65.4426 91.6719H128.135V154.37H65.4426V91.6719Z" fill="white"/>
</g>
</g>
<mask id="mask50_47_13846" style="mask-type:luminance" maskUnits="userSpaceOnUse" x="0" y="153" width="85" height="43">
<path d="M0.296875 153.516H84.2969V195.516H0.296875V153.516Z" fill="white"/>
</mask>
<g mask="url(#mask50_47_13846)">
<path d="M84.5156 174.672C84.5156 175.359 84.4479 176.052 84.3125 176.74C84.1823 177.427 83.9792 178.109 83.7083 178.786C83.4375 179.464 83.1042 180.135 82.7031 180.797C82.3021 181.458 81.8385 182.109 81.3125 182.745C80.7865 183.385 80.1979 184.01 79.5469 184.62C78.8958 185.229 78.1875 185.818 77.4219 186.396C76.6562 186.969 75.8333 187.526 74.9583 188.057C74.0833 188.594 73.1615 189.104 72.1823 189.594C71.2083 190.083 70.1875 190.547 69.1198 190.984C68.0573 191.422 66.9479 191.833 65.8021 192.219C64.6562 192.604 63.474 192.958 62.2604 193.281C61.0417 193.609 59.7969 193.906 58.5208 194.167C57.25 194.432 55.9531 194.667 54.6302 194.865C53.3125 195.068 51.974 195.234 50.625 195.37C49.2708 195.505 47.9062 195.604 46.5365 195.672C45.1615 195.74 43.7865 195.776 42.4062 195.776C41.0312 195.776 39.651 195.74 38.2812 195.672C36.9062 195.604 35.5469 195.505 34.1927 195.37C32.8385 195.234 31.5052 195.068 30.1823 194.865C28.8646 194.667 27.5677 194.432 26.2917 194.167C25.0208 193.906 23.776 193.609 22.5573 193.281C21.3438 192.958 20.1615 192.604 19.0156 192.219C17.8646 191.833 16.7604 191.422 15.6927 190.984C14.6302 190.547 13.6094 190.083 12.6302 189.594C11.6563 189.104 10.7344 188.594 9.85938 188.057C8.98438 187.526 8.16146 186.969 7.39583 186.396C6.63021 185.818 5.92188 185.229 5.27083 184.62C4.61979 184.01 4.03125 183.385 3.50521 182.745C2.97396 182.109 2.51042 181.458 2.11458 180.797C1.71354 180.135 1.375 179.464 1.10938 178.786C0.838542 178.109 0.635416 177.427 0.5 176.74C0.364584 176.052 0.296875 175.359 0.296875 174.672C0.296875 173.979 0.364584 173.286 0.5 172.599C0.635416 171.911 0.838542 171.229 1.10938 170.552C1.375 169.875 1.71354 169.203 2.11458 168.542C2.51042 167.88 2.97396 167.229 3.50521 166.594C4.03125 165.953 4.61979 165.328 5.27083 164.719C5.92188 164.109 6.63021 163.521 7.39583 162.943C8.16146 162.37 8.98438 161.812 9.85938 161.281C10.7344 160.745 11.6563 160.234 12.6302 159.745C13.6094 159.255 14.6302 158.792 15.6927 158.354C16.7604 157.917 17.8646 157.505 19.0156 157.12C20.1615 156.74 21.3438 156.38 22.5573 156.057C23.776 155.729 25.0208 155.438 26.2917 155.172C27.5677 154.906 28.8646 154.672 30.1823 154.474C31.5052 154.271 32.8385 154.104 34.1927 153.969C35.5469 153.833 36.9062 153.734 38.2812 153.667C39.651 153.599 41.0312 153.562 42.4062 153.562C43.7865 153.562 45.1615 153.599 46.5365 153.667C47.9062 153.734 49.2708 153.833 50.625 153.969C51.974 154.104 53.3125 154.271 54.6302 154.474C55.9531 154.672 57.25 154.906 58.5208 155.172C59.7969 155.438 61.0417 155.729 62.2604 156.057C63.474 156.38 64.6562 156.74 65.8021 157.12C66.9479 157.505 68.0573 157.917 69.1198 158.354C70.1875 158.792 71.2083 159.255 72.1823 159.745C73.1615 160.234 74.0833 160.745 74.9583 161.281C75.8333 161.812 76.6562 162.37 77.4219 162.943C78.1875 163.521 78.8958 164.109 79.5469 164.719C80.1979 165.328 80.7865 165.953 81.3125 166.594C81.8385 167.229 82.3021 167.88 82.7031 168.542C83.1042 169.203 83.4375 169.875 83.7083 170.552C83.9792 171.229 84.1823 171.911 84.3125 172.599C84.4479 173.286 84.5156 173.979 84.5156 174.672Z" fill="#FFB93E"/>
</g>
<mask id="mask51_47_13846" style="mask-type:luminance" maskUnits="userSpaceOnUse" x="77" y="103" width="39" height="40">
<path d="M77 103.979H115.766V142.74H77V103.979Z" fill="white"/>
</mask>
<g mask="url(#mask51_47_13846)">
<mask id="mask52_47_13846" style="mask-type:luminance" maskUnits="userSpaceOnUse" x="77" y="103" width="39" height="40">
<path d="M96.3802 103.979C85.6771 103.979 77 112.656 77 123.359C77 134.063 85.6771 142.74 96.3802 142.74C107.089 142.74 115.766 134.063 115.766 123.359C115.766 112.656 107.089 103.979 96.3802 103.979Z" fill="white"/>
</mask>
<g mask="url(#mask52_47_13846)">
<path d="M77 103.979H115.766V142.74H77V103.979Z" fill="black"/>
</g>
</g>
<mask id="mask53_47_13846" style="mask-type:luminance" maskUnits="userSpaceOnUse" x="94" y="104" width="19" height="20">
<path d="M94.2917 104.458H112.854V123.021H94.2917V104.458Z" fill="white"/>
</mask>
<g mask="url(#mask53_47_13846)">
<mask id="mask54_47_13846" style="mask-type:luminance" maskUnits="userSpaceOnUse" x="94" y="104" width="19" height="20">
<path d="M103.573 104.458C98.448 104.458 94.2917 108.615 94.2917 113.74C94.2917 118.865 98.448 123.021 103.573 123.021C108.698 123.021 112.854 118.865 112.854 113.74C112.854 108.615 108.698 104.458 103.573 104.458Z" fill="white"/>
</mask>
<g mask="url(#mask54_47_13846)">
<path d="M94.2917 104.458H112.854V123.021H94.2917V104.458Z" fill="white"/>
</g>
</g>
<mask id="mask55_47_13846" style="mask-type:luminance" maskUnits="userSpaceOnUse" x="123" y="235" width="94" height="36">
<path d="M123.26 235.885H216.26V270.885H123.26V235.885Z" fill="white"/>
</mask>
<g mask="url(#mask55_47_13846)">
<path d="M205.297 254.693C192.714 251.292 183.297 254.161 177.115 257.807C185.568 249.214 198.464 246.385 202.589 245.688L205.297 254.693ZM190.422 235.932L193.969 244.406C187.281 246.484 178.537 250.516 172.62 257.953C176.365 244.938 186.604 238.078 190.422 235.932ZM148.885 235.932C152.698 238.078 162.938 244.917 166.682 257.979C160.766 250.542 152.021 246.51 145.333 244.432L148.885 235.932ZM136.714 245.688C140.844 246.385 153.74 249.214 162.188 257.807C156.01 254.161 146.589 251.292 134.01 254.693L136.714 245.688ZM175.083 270.417H164.219C161.828 267.323 151.49 257.401 123.26 269.161L125.703 261.26C153.859 247.594 167.771 266.359 168.349 267.177C168.37 267.203 168.396 267.203 168.422 267.229C168.443 267.276 168.469 267.323 168.516 267.349C168.542 267.375 168.542 267.375 168.542 267.396C168.589 267.443 168.635 267.469 168.708 267.495C168.76 267.516 168.807 267.568 168.854 267.589C168.901 267.615 168.953 267.661 169.026 267.688C169.047 267.688 169.073 267.708 169.073 267.708C169.167 267.76 169.292 267.76 169.412 267.781C169.484 267.781 169.531 267.833 169.604 267.833C169.63 267.833 169.651 267.833 169.677 267.833C169.698 267.833 169.724 267.833 169.75 267.833C169.823 267.833 169.87 267.807 169.943 267.781C170.063 267.76 170.162 267.76 170.281 267.708C170.302 267.708 170.328 267.688 170.328 267.688C170.401 267.661 170.448 267.615 170.495 267.589C170.547 267.568 170.594 267.542 170.641 267.495C170.693 267.443 170.76 267.422 170.813 267.396C170.833 267.375 170.833 267.375 170.833 267.349C170.885 267.302 170.906 267.276 170.932 267.229C170.958 267.203 170.979 267.203 171.005 267.177C171.583 266.359 185.495 247.594 213.651 261.26L216.089 269.161C187.839 257.401 177.474 267.349 175.083 270.417Z" fill="#EDE0D2"/>
</g>
</svg>
