<svg width="370" height="344" viewBox="0 0 370 344" fill="none" xmlns="http://www.w3.org/2000/svg">
<mask id="mask0_47_13828" style="mask-type:luminance" maskUnits="userSpaceOnUse" x="11" y="155" width="113" height="89">
<path d="M11.3334 155.333H123.333V243.333H11.3334V155.333Z" fill="white"/>
</mask>
<g mask="url(#mask0_47_13828)">
<mask id="mask1_47_13828" style="mask-type:luminance" maskUnits="userSpaceOnUse" x="4" y="147" width="127" height="105">
<path d="M27.0105 147.651L130.776 217.344L107.917 251.381L4.15112 181.683L27.0105 147.651Z" fill="white"/>
</mask>
<g mask="url(#mask1_47_13828)">
<mask id="mask2_47_13828" style="mask-type:luminance" maskUnits="userSpaceOnUse" x="4" y="147" width="127" height="105">
<path d="M27.0105 147.651L130.776 217.344L107.917 251.381L4.15112 181.683L27.0105 147.651Z" fill="white"/>
</mask>
<g mask="url(#mask2_47_13828)">
<path d="M90.9585 239.87L21.2605 193.058C11.9324 186.792 9.45325 174.152 15.7137 164.823C21.9793 155.495 34.6199 153.016 43.948 159.277L113.646 206.089C122.974 212.355 125.453 224.995 119.193 234.323C112.927 243.646 100.287 246.131 90.9585 239.87Z" fill="#604428"/>
</g>
</g>
</g>
<mask id="mask3_47_13828" style="mask-type:luminance" maskUnits="userSpaceOnUse" x="11" y="155" width="113" height="90">
<path d="M11.3334 155.333H123.333V244.667H11.3334V155.333Z" fill="white"/>
</mask>
<g mask="url(#mask3_47_13828)">
<mask id="mask4_47_13828" style="mask-type:luminance" maskUnits="userSpaceOnUse" x="4" y="147" width="127" height="105">
<path d="M27.0105 147.651L130.776 217.344L107.917 251.381L4.15112 181.683L27.0105 147.651Z" fill="white"/>
</mask>
<g mask="url(#mask4_47_13828)">
<mask id="mask5_47_13828" style="mask-type:luminance" maskUnits="userSpaceOnUse" x="4" y="147" width="127" height="105">
<path d="M27.0105 147.651L130.776 217.344L107.917 251.381L4.15112 181.683L27.0105 147.651Z" fill="white"/>
</mask>
<g mask="url(#mask5_47_13828)">
<path d="M90.8491 240.031L21.1511 193.219C11.7397 186.901 9.22926 174.12 15.5522 164.714C21.8699 155.302 34.6511 152.792 44.0574 159.115L113.755 205.922C123.167 212.245 125.677 225.026 119.354 234.432C113.037 243.839 100.255 246.349 90.8491 240.031ZM43.8386 159.443C34.6095 153.245 22.0782 155.708 15.8803 164.932C9.68239 174.162 12.1459 186.693 21.3699 192.891L91.0678 239.703C100.297 245.901 112.828 243.438 119.026 234.208C125.224 224.984 122.761 212.453 113.537 206.255L43.8386 159.443Z" fill="#604428"/>
</g>
</g>
</g>
<mask id="mask6_47_13828" style="mask-type:luminance" maskUnits="userSpaceOnUse" x="4" y="107" width="133" height="106">
<path d="M4.66663 107.333H136.667V212.667H4.66663V107.333Z" fill="white"/>
</mask>
<g mask="url(#mask6_47_13828)">
<mask id="mask7_47_13828" style="mask-type:luminance" maskUnits="userSpaceOnUse" x="-5" y="98" width="152" height="125">
<path d="M22.9375 98.75L146.63 181.823L119.312 222.5L-4.38025 139.427L22.9375 98.75Z" fill="white"/>
</mask>
<g mask="url(#mask7_47_13828)">
<mask id="mask8_47_13828" style="mask-type:luminance" maskUnits="userSpaceOnUse" x="-5" y="98" width="152" height="125">
<path d="M22.9375 98.75L146.63 181.823L119.312 222.5L-4.38025 139.427L22.9375 98.75Z" fill="white"/>
</mask>
<g mask="url(#mask8_47_13828)">
<path d="M98.9427 208.339L16.1094 152.703C5.02605 145.261 2.07292 130.234 9.52084 119.151C16.9635 108.068 31.9896 105.12 43.0729 112.563L125.901 168.193C136.984 175.641 139.938 190.667 132.495 201.75C125.047 212.833 110.026 215.781 98.9427 208.339Z" fill="#604428"/>
</g>
</g>
</g>
<mask id="mask9_47_13828" style="mask-type:luminance" maskUnits="userSpaceOnUse" x="4" y="107" width="134" height="107">
<path d="M4.66663 107.333H138V214H4.66663V107.333Z" fill="white"/>
</mask>
<g mask="url(#mask9_47_13828)">
<mask id="mask10_47_13828" style="mask-type:luminance" maskUnits="userSpaceOnUse" x="-5" y="98" width="152" height="125">
<path d="M22.9375 98.75L146.63 181.823L119.312 222.5L-4.38025 139.427L22.9375 98.75Z" fill="white"/>
</mask>
<g mask="url(#mask10_47_13828)">
<mask id="mask11_47_13828" style="mask-type:luminance" maskUnits="userSpaceOnUse" x="-5" y="98" width="152" height="125">
<path d="M22.9375 98.75L146.63 181.823L119.312 222.5L-4.38025 139.427L22.9375 98.75Z" fill="white"/>
</mask>
<g mask="url(#mask11_47_13828)">
<path d="M98.8073 208.537L15.9791 152.901C4.79685 145.391 1.81248 130.203 9.3229 119.021C16.8333 107.839 32.0208 104.854 43.2031 112.365L126.036 168C137.214 175.51 140.198 190.698 132.687 201.88C125.177 213.063 109.99 216.042 98.8073 208.537ZM42.9375 112.76C31.9739 105.391 17.0781 108.318 9.71352 119.287C2.34894 130.25 5.27602 145.146 16.2396 152.51L99.0729 208.141C110.036 215.505 124.932 212.583 132.297 201.615C139.661 190.651 136.74 175.755 125.771 168.391L42.9375 112.76Z" fill="#604428"/>
</g>
</g>
</g>
<mask id="mask12_47_13828" style="mask-type:luminance" maskUnits="userSpaceOnUse" x="0" y="67" width="134" height="106">
<path d="M0.666626 67.3335H134V172.667H0.666626V67.3335Z" fill="white"/>
</mask>
<g mask="url(#mask12_47_13828)">
<mask id="mask13_47_13828" style="mask-type:luminance" maskUnits="userSpaceOnUse" x="-8" y="58" width="152" height="125">
<path d="M19.4687 58.625L143.161 141.703L115.838 182.38L-7.85425 99.3021L19.4687 58.625Z" fill="white"/>
</mask>
<g mask="url(#mask13_47_13828)">
<mask id="mask14_47_13828" style="mask-type:luminance" maskUnits="userSpaceOnUse" x="-8" y="58" width="152" height="125">
<path d="M19.4687 58.625L143.161 141.703L115.838 182.38L-7.85425 99.3021L19.4687 58.625Z" fill="white"/>
</mask>
<g mask="url(#mask14_47_13828)">
<path d="M95.4687 168.219L12.6406 112.583C1.55724 105.141 -1.39589 90.1147 6.04682 79.0314C13.4895 67.948 28.5156 64.9949 39.5989 72.4428L122.432 128.073C133.516 135.516 136.469 150.542 129.021 161.625C121.578 172.708 106.552 175.662 95.4687 168.219Z" fill="#604428"/>
<path d="M95.3384 168.412L12.5051 112.781C1.32282 105.271 -1.65635 90.0836 5.85407 78.9013C13.3593 67.719 28.552 64.7346 39.7291 72.245L122.562 127.875C133.745 135.386 136.729 150.578 129.219 161.755C121.708 172.938 106.521 175.922 95.3384 168.412ZM39.4687 72.6356C28.4999 65.2711 13.6093 68.1981 6.2447 79.1617C-1.11989 90.1304 1.80199 105.021 12.7707 112.386L95.6041 168.021C106.568 175.386 121.463 172.459 128.828 161.495C136.193 150.526 133.266 135.636 122.302 128.271L39.4687 72.6356Z" fill="#604428"/>
</g>
</g>
</g>
<mask id="mask15_47_13828" style="mask-type:luminance" maskUnits="userSpaceOnUse" x="190" y="243" width="39" height="53">
<path d="M190 243.333H228.667V295.333H190V243.333Z" fill="white"/>
</mask>
<g mask="url(#mask15_47_13828)">
<mask id="mask16_47_13828" style="mask-type:luminance" maskUnits="userSpaceOnUse" x="189" y="243" width="41" height="54">
<path d="M222.469 296.323L189.057 247.698L195.651 243.167L229.062 291.792L222.469 296.323Z" fill="white"/>
</mask>
<g mask="url(#mask16_47_13828)">
<mask id="mask17_47_13828" style="mask-type:luminance" maskUnits="userSpaceOnUse" x="189" y="243" width="41" height="54">
<path d="M222.469 296.323L189.057 247.698L195.651 243.167L229.062 291.792L222.469 296.323Z" fill="white"/>
</mask>
<g mask="url(#mask17_47_13828)">
<path d="M191.51 251.24L193.906 254.724L193.917 254.719L217.703 289.334L217.693 289.339L220.088 292.828C221.411 294.75 224.047 295.24 225.974 293.917C227.896 292.594 228.385 289.959 227.062 288.037L198.484 246.448C197.161 244.521 194.536 244.026 192.615 245.349C190.687 246.672 190.193 249.313 191.51 251.24Z" fill="#FCD590"/>
</g>
</g>
</g>
<mask id="mask18_47_13828" style="mask-type:luminance" maskUnits="userSpaceOnUse" x="212" y="276" width="13" height="17">
<path d="M212.667 276.667H224.667V292.667H212.667V276.667Z" fill="white"/>
</mask>
<g mask="url(#mask18_47_13828)">
<mask id="mask19_47_13828" style="mask-type:luminance" maskUnits="userSpaceOnUse" x="189" y="243" width="41" height="54">
<path d="M222.469 296.323L189.057 247.698L195.651 243.167L229.062 291.792L222.469 296.323Z" fill="white"/>
</mask>
<g mask="url(#mask19_47_13828)">
<mask id="mask20_47_13828" style="mask-type:luminance" maskUnits="userSpaceOnUse" x="189" y="243" width="41" height="54">
<path d="M222.469 296.323L189.057 247.698L195.651 243.167L229.062 291.792L222.469 296.323Z" fill="white"/>
</mask>
<g mask="url(#mask20_47_13828)">
<path d="M213.521 279.541L221.828 291.63C222.161 292.12 222.818 292.239 223.302 291.906C223.786 291.573 223.911 290.916 223.578 290.432L221.182 286.942L221.172 286.948L215.266 278.354C214.932 277.87 214.276 277.75 213.792 278.083C213.302 278.416 213.193 279.062 213.521 279.541Z" fill="#FCD590"/>
</g>
</g>
</g>
<mask id="mask21_47_13828" style="mask-type:luminance" maskUnits="userSpaceOnUse" x="52" y="242" width="49" height="42">
<path d="M52.6666 242H100.667V283.333H52.6666V242Z" fill="white"/>
</mask>
<g mask="url(#mask21_47_13828)">
<mask id="mask22_47_13828" style="mask-type:luminance" maskUnits="userSpaceOnUse" x="51" y="240" width="51" height="45">
<path d="M51.4062 278.547L96.6875 240.719L101.812 246.854L56.5365 284.682L51.4062 278.547Z" fill="white"/>
</mask>
<g mask="url(#mask22_47_13828)">
<mask id="mask23_47_13828" style="mask-type:luminance" maskUnits="userSpaceOnUse" x="51" y="240" width="51" height="45">
<path d="M51.4062 278.547L96.6875 240.719L101.812 246.854L56.5365 284.682L51.4062 278.547Z" fill="white"/>
</mask>
<g mask="url(#mask23_47_13828)">
<path d="M93.3907 243.495L90.1407 246.203L90.1511 246.214L57.9219 273.141L57.9115 273.136L54.6667 275.849C52.8751 277.344 52.6355 280.016 54.1303 281.808C55.6303 283.594 58.3021 283.834 60.0938 282.339L98.8126 249.985C100.604 248.49 100.854 245.828 99.3542 244.037C97.8594 242.245 95.1823 241.995 93.3907 243.495Z" fill="#FCD590"/>
</g>
</g>
</g>
<mask id="mask24_47_13828" style="mask-type:luminance" maskUnits="userSpaceOnUse" x="55" y="267" width="15" height="14">
<path d="M55.3334 267.333H70V280.667H55.3334V267.333Z" fill="white"/>
</mask>
<g mask="url(#mask24_47_13828)">
<mask id="mask25_47_13828" style="mask-type:luminance" maskUnits="userSpaceOnUse" x="51" y="240" width="51" height="45">
<path d="M51.4062 278.547L96.6875 240.719L101.812 246.854L56.5365 284.682L51.4062 278.547Z" fill="white"/>
</mask>
<g mask="url(#mask25_47_13828)">
<mask id="mask26_47_13828" style="mask-type:luminance" maskUnits="userSpaceOnUse" x="51" y="240" width="51" height="45">
<path d="M51.4062 278.547L96.6875 240.719L101.812 246.854L56.5365 284.682L51.4062 278.547Z" fill="white"/>
</mask>
<g mask="url(#mask26_47_13828)">
<path d="M67.276 268.057L56.0208 277.464C55.5677 277.844 55.5052 278.505 55.8854 278.958C56.2604 279.412 56.9271 279.469 57.3802 279.094L60.625 276.38L60.6198 276.37L68.6198 269.682C69.0729 269.307 69.1302 268.641 68.7552 268.193C68.375 267.74 67.7188 267.688 67.276 268.057Z" fill="#FCD590"/>
</g>
</g>
</g>
<mask id="mask27_47_13828" style="mask-type:luminance" maskUnits="userSpaceOnUse" x="46" y="248" width="12" height="54">
<path d="M46 248.667H58V302H46V248.667Z" fill="white"/>
</mask>
<g mask="url(#mask27_47_13828)">
<mask id="mask28_47_13828" style="mask-type:luminance" maskUnits="userSpaceOnUse" x="46" y="248" width="13" height="55">
<path d="M46.7291 301.734L50.0677 248.838L58.052 249.344L54.7135 302.234L46.7291 301.734Z" fill="white"/>
</mask>
<g mask="url(#mask28_47_13828)">
<mask id="mask29_47_13828" style="mask-type:luminance" maskUnits="userSpaceOnUse" x="46" y="248" width="13" height="55">
<path d="M46.7291 301.734L50.0677 248.838L58.052 249.344L54.7135 302.234L46.7291 301.734Z" fill="white"/>
</mask>
<g mask="url(#mask29_47_13828)">
<path d="M49.8384 252.755L49.5989 256.541H49.6093L47.2343 294.156H47.2239L46.9843 297.942C46.8541 300.036 48.4426 301.838 50.5311 301.974C52.6249 302.104 54.427 300.51 54.5624 298.422L57.4166 253.229C57.5468 251.14 55.9634 249.333 53.8749 249.203C51.7864 249.073 49.9686 250.661 49.8384 252.755Z" fill="#FCD590"/>
</g>
</g>
</g>
<mask id="mask30_47_13828" style="mask-type:luminance" maskUnits="userSpaceOnUse" x="48" y="283" width="5" height="17">
<path d="M48.6666 283.333H52.6666V299.333H48.6666V283.333Z" fill="white"/>
</mask>
<g mask="url(#mask30_47_13828)">
<mask id="mask31_47_13828" style="mask-type:luminance" maskUnits="userSpaceOnUse" x="46" y="248" width="13" height="55">
<path d="M46.7291 301.735L50.0677 248.839L58.052 249.344L54.7135 302.235L46.7291 301.735Z" fill="white"/>
</mask>
<g mask="url(#mask31_47_13828)">
<mask id="mask32_47_13828" style="mask-type:luminance" maskUnits="userSpaceOnUse" x="46" y="248" width="13" height="55">
<path d="M46.7291 301.735L50.0677 248.839L58.052 249.344L54.7135 302.235L46.7291 301.735Z" fill="white"/>
</mask>
<g mask="url(#mask32_47_13828)">
<path d="M49.7031 284.922L48.875 298.063C48.8386 298.594 49.2344 299.042 49.7604 299.073C50.2917 299.11 50.7396 298.714 50.7708 298.183L51.0104 294.396H51L51.5886 285.052C51.625 284.526 51.2292 284.079 50.7031 284.047C50.1719 284.011 49.7344 284.407 49.7031 284.922Z" fill="#FCD590"/>
</g>
</g>
</g>
<mask id="mask33_47_13828" style="mask-type:luminance" maskUnits="userSpaceOnUse" x="27" y="259" width="46" height="37">
<path d="M27.3334 259.333H72.6667V295.333H27.3334V259.333Z" fill="white"/>
</mask>
<g mask="url(#mask33_47_13828)">
<mask id="mask34_47_13828" style="mask-type:luminance" maskUnits="userSpaceOnUse" x="26" y="258" width="48" height="39">
<path d="M68.4167 296.745L26.4636 264.36L31.349 258.026L73.3022 290.412L68.4167 296.745Z" fill="white"/>
</mask>
<g mask="url(#mask34_47_13828)">
<mask id="mask35_47_13828" style="mask-type:luminance" maskUnits="userSpaceOnUse" x="26" y="258" width="48" height="39">
<path d="M68.4167 296.745L26.4636 264.36L31.349 258.026L73.3022 290.412L68.4167 296.745Z" fill="white"/>
</mask>
<g mask="url(#mask35_47_13828)">
<path d="M29.573 266.745L32.5782 269.063L32.5834 269.052L62.4219 292.083L62.4115 292.094L65.4167 294.412C67.0782 295.693 69.4636 295.386 70.7449 293.729C72.0209 292.068 71.7136 289.682 70.0574 288.401L34.2136 260.735C32.5574 259.453 30.1719 259.75 28.8959 261.412C27.6147 263.068 27.9167 265.464 29.573 266.745Z" fill="#FCD590"/>
</g>
</g>
</g>
<mask id="mask36_47_13828" style="mask-type:luminance" maskUnits="userSpaceOnUse" x="55" y="282" width="14" height="12">
<path d="M55.3334 282H68.6667V294H55.3334V282Z" fill="white"/>
</mask>
<g mask="url(#mask36_47_13828)">
<mask id="mask37_47_13828" style="mask-type:luminance" maskUnits="userSpaceOnUse" x="26" y="258" width="48" height="39">
<path d="M68.4167 296.745L26.4636 264.359L31.349 258.026L73.3022 290.411L68.4167 296.745Z" fill="white"/>
</mask>
<g mask="url(#mask37_47_13828)">
<mask id="mask38_47_13828" style="mask-type:luminance" maskUnits="userSpaceOnUse" x="26" y="258" width="48" height="39">
<path d="M68.4167 296.745L26.4636 264.359L31.349 258.026L73.3022 290.411L68.4167 296.745Z" fill="white"/>
</mask>
<g mask="url(#mask38_47_13828)">
<path d="M56.1511 284.87L66.573 292.917C66.9949 293.24 67.5886 293.162 67.9115 292.745C68.2345 292.323 68.1563 291.729 67.7397 291.406L64.7345 289.089L64.7293 289.094L57.3178 283.375C56.9011 283.052 56.3074 283.13 55.9845 283.547C55.6615 283.969 55.7449 284.552 56.1511 284.87Z" fill="#FCD590"/>
</g>
</g>
</g>
<mask id="mask39_47_13828" style="mask-type:luminance" maskUnits="userSpaceOnUse" x="203" y="284" width="54" height="17">
<path d="M203.333 284.667H256.667V300.667H203.333V284.667Z" fill="white"/>
</mask>
<g mask="url(#mask39_47_13828)">
<mask id="mask40_47_13828" style="mask-type:luminance" maskUnits="userSpaceOnUse" x="203" y="285" width="55" height="17">
<path d="M204.964 285.109L257.313 293.396L256.063 301.297L203.714 293.01L204.964 285.109Z" fill="white"/>
</mask>
<g mask="url(#mask40_47_13828)">
<mask id="mask41_47_13828" style="mask-type:luminance" maskUnits="userSpaceOnUse" x="203" y="285" width="55" height="17">
<path d="M257.193 293.375L204.844 285.088L203.594 292.989L255.938 301.281L257.193 293.375Z" fill="white"/>
</mask>
<g mask="url(#mask41_47_13828)">
<path d="M208.714 285.718L212.464 286.312V286.323L249.688 292.213V292.203L253.438 292.797C255.505 293.125 256.922 295.073 256.594 297.14C256.266 299.208 254.318 300.625 252.25 300.297L207.526 293.213C205.458 292.89 204.042 290.953 204.37 288.885C204.698 286.812 206.646 285.39 208.714 285.718Z" fill="#FCD590"/>
</g>
</g>
</g>
<mask id="mask42_47_13828" style="mask-type:luminance" maskUnits="userSpaceOnUse" x="238" y="291" width="16" height="6">
<path d="M238 291.333H254V296.667H238V291.333Z" fill="white"/>
</mask>
<g mask="url(#mask42_47_13828)">
<mask id="mask43_47_13828" style="mask-type:luminance" maskUnits="userSpaceOnUse" x="203" y="285" width="55" height="17">
<path d="M204.964 285.109L257.312 293.396L256.062 301.297L203.714 293.01L204.964 285.109Z" fill="white"/>
</mask>
<g mask="url(#mask43_47_13828)">
<mask id="mask44_47_13828" style="mask-type:luminance" maskUnits="userSpaceOnUse" x="203" y="285" width="55" height="17">
<path d="M257.193 293.375L204.844 285.088L203.594 292.989L255.938 301.281L257.193 293.375Z" fill="white"/>
</mask>
<g mask="url(#mask44_47_13828)">
<path d="M240.141 292.609L253.141 294.666C253.667 294.75 254.016 295.234 253.932 295.755C253.849 296.276 253.365 296.63 252.844 296.547L249.094 295.953L249.099 295.942L239.854 294.479C239.328 294.396 238.979 293.911 239.062 293.39C239.146 292.87 239.625 292.526 240.141 292.609Z" fill="#FCD590"/>
</g>
</g>
</g>
<mask id="mask45_47_13828" style="mask-type:luminance" maskUnits="userSpaceOnUse" x="208" y="270" width="41" height="42">
<path d="M208.667 270H248.667V311.333H208.667V270Z" fill="white"/>
</mask>
<g mask="url(#mask45_47_13828)">
<mask id="mask46_47_13828" style="mask-type:luminance" maskUnits="userSpaceOnUse" x="207" y="268" width="43" height="45">
<path d="M207.896 307.167L244.078 268.438L249.922 273.896L213.745 312.63L207.896 307.167Z" fill="white"/>
</mask>
<g mask="url(#mask46_47_13828)">
<mask id="mask47_47_13828" style="mask-type:luminance" maskUnits="userSpaceOnUse" x="207" y="268" width="43" height="45">
<path d="M243.995 268.526L207.812 307.26L213.661 312.719L249.838 273.989L243.995 268.526Z" fill="white"/>
</mask>
<g mask="url(#mask47_47_13828)">
<path d="M210.5 304.401L213.094 301.625L213.099 301.635L238.828 274.093L238.818 274.083L241.411 271.312C242.838 269.781 245.245 269.698 246.776 271.13C248.307 272.557 248.391 274.963 246.958 276.494L216.047 309.583C214.62 311.114 212.219 311.203 210.693 309.776C209.161 308.343 209.073 305.932 210.5 304.401Z" fill="#FCD590"/>
</g>
</g>
</g>
<mask id="mask48_47_13828" style="mask-type:luminance" maskUnits="userSpaceOnUse" x="232" y="271" width="13" height="14">
<path d="M232.667 271.333H244.667V284.667H232.667V271.333Z" fill="white"/>
</mask>
<g mask="url(#mask48_47_13828)">
<mask id="mask49_47_13828" style="mask-type:luminance" maskUnits="userSpaceOnUse" x="207" y="268" width="43" height="45">
<path d="M207.896 307.167L244.078 268.438L249.922 273.896L213.745 312.63L207.896 307.167Z" fill="white"/>
</mask>
<g mask="url(#mask49_47_13828)">
<mask id="mask50_47_13828" style="mask-type:luminance" maskUnits="userSpaceOnUse" x="207" y="268" width="43" height="45">
<path d="M243.995 268.526L207.812 307.26L213.661 312.719L249.838 273.989L243.995 268.526Z" fill="white"/>
</mask>
<g mask="url(#mask50_47_13828)">
<path d="M233.807 282.224L242.797 272.604C243.156 272.219 243.755 272.198 244.141 272.557C244.526 272.917 244.547 273.516 244.187 273.901L241.594 276.677L241.588 276.672L235.198 283.51C234.838 283.896 234.239 283.917 233.854 283.557C233.463 283.193 233.453 282.604 233.807 282.224Z" fill="#FCD590"/>
</g>
</g>
</g>
<mask id="mask51_47_13828" style="mask-type:luminance" maskUnits="userSpaceOnUse" x="69" y="108" width="177" height="177">
<path d="M69.2709 108.01H246V284.667H69.2709V108.01Z" fill="white"/>
</mask>
<g mask="url(#mask51_47_13828)">
<path d="M245.911 196.333C245.911 197.776 245.875 199.224 245.807 200.667C245.734 202.109 245.63 203.552 245.49 204.989C245.344 206.427 245.167 207.864 244.958 209.292C244.745 210.724 244.5 212.146 244.214 213.562C243.932 214.979 243.615 216.39 243.266 217.792C242.917 219.193 242.531 220.588 242.109 221.969C241.688 223.354 241.234 224.724 240.75 226.088C240.26 227.448 239.745 228.797 239.188 230.13C238.635 231.469 238.052 232.786 237.432 234.094C236.813 235.401 236.167 236.693 235.484 237.969C234.802 239.239 234.089 240.5 233.349 241.739C232.604 242.979 231.833 244.198 231.026 245.401C230.224 246.604 229.391 247.786 228.531 248.943C227.672 250.104 226.781 251.245 225.865 252.364C224.948 253.479 224.005 254.573 223.031 255.646C222.063 256.713 221.068 257.76 220.042 258.786C219.021 259.807 217.974 260.802 216.906 261.776C215.833 262.745 214.74 263.687 213.62 264.604C212.505 265.521 211.365 266.411 210.203 267.271C209.042 268.135 207.865 268.963 206.661 269.771C205.458 270.573 204.24 271.344 203 272.088C201.76 272.828 200.5 273.542 199.224 274.224C197.953 274.906 196.662 275.557 195.354 276.172C194.047 276.792 192.724 277.375 191.391 277.932C190.057 278.484 188.708 279.005 187.349 279.489C185.984 279.979 184.615 280.432 183.229 280.849C181.849 281.271 180.453 281.656 179.052 282.005C177.651 282.359 176.24 282.672 174.823 282.958C173.406 283.239 171.979 283.484 170.552 283.698C169.12 283.911 167.688 284.083 166.25 284.229C164.813 284.37 163.37 284.474 161.927 284.547C160.484 284.62 159.036 284.651 157.594 284.651C156.146 284.651 154.703 284.62 153.26 284.547C151.813 284.474 150.375 284.37 148.938 284.229C147.495 284.088 146.063 283.911 144.635 283.698C143.203 283.484 141.781 283.239 140.359 282.958C138.943 282.672 137.536 282.359 136.13 282.005C134.729 281.656 133.339 281.271 131.953 280.849C130.573 280.432 129.198 279.979 127.839 279.489C126.479 279.005 125.13 278.484 123.792 277.932C122.458 277.375 121.135 276.792 119.828 276.172C118.526 275.557 117.234 274.906 115.958 274.224C114.682 273.542 113.427 272.828 112.188 272.088C110.948 271.344 109.724 270.573 108.526 269.771C107.323 268.963 106.141 268.135 104.979 267.271C103.818 266.411 102.682 265.521 101.563 264.604C100.443 263.687 99.349 262.745 98.2813 261.776C97.2084 260.802 96.1615 259.807 95.1407 258.786C94.1198 257.76 93.1198 256.713 92.1511 255.646C91.1823 254.573 90.2344 253.479 89.3177 252.364C88.4011 251.245 87.5157 250.104 86.6511 248.943C85.7917 247.786 84.9584 246.604 84.1563 245.401C83.3542 244.198 82.5782 242.979 81.8386 241.739C81.0938 240.5 80.3802 239.239 79.7032 237.969C79.0209 236.693 78.3698 235.401 77.75 234.094C77.1355 232.786 76.5469 231.469 75.9948 230.13C75.4427 228.797 74.9219 227.448 74.4323 226.088C73.948 224.724 73.4948 223.354 73.073 221.969C72.6563 220.588 72.2709 219.193 71.9167 217.792C71.5677 216.39 71.25 214.979 70.9688 213.562C70.6875 212.146 70.4375 210.724 70.2292 209.292C70.0157 207.864 69.8386 206.427 69.698 204.989C69.5573 203.552 69.448 202.109 69.3802 200.667C69.3073 199.224 69.2709 197.776 69.2709 196.333C69.2709 194.885 69.3073 193.443 69.3802 192C69.448 190.557 69.5573 189.114 69.698 187.677C69.8386 186.239 70.0157 184.802 70.2292 183.375C70.4375 181.943 70.6875 180.521 70.9688 179.104C71.25 177.682 71.5677 176.276 71.9167 174.875C72.2709 173.469 72.6563 172.078 73.073 170.693C73.4948 169.312 73.948 167.937 74.4323 166.578C74.9219 165.219 75.4427 163.87 75.9948 162.536C76.5469 161.198 77.1355 159.875 77.75 158.573C78.3698 157.265 79.0209 155.974 79.7032 154.698C80.3802 153.422 81.0938 152.167 81.8386 150.927C82.5782 149.687 83.3542 148.469 84.1563 147.265C84.9584 146.062 85.7917 144.88 86.6511 143.719C87.5157 142.557 88.4011 141.422 89.3177 140.302C90.2344 139.187 91.1823 138.094 92.1511 137.021C93.1198 135.948 94.1198 134.901 95.1407 133.88C96.1615 132.859 97.2084 131.864 98.2813 130.89C99.349 129.922 100.443 128.979 101.563 128.062C102.682 127.14 103.818 126.255 104.979 125.39C106.141 124.531 107.323 123.698 108.526 122.896C109.724 122.094 110.948 121.323 112.188 120.578C113.427 119.833 114.682 119.125 115.958 118.443C117.234 117.76 118.526 117.109 119.828 116.489C121.135 115.875 122.458 115.286 123.792 114.734C125.13 114.182 126.479 113.661 127.839 113.177C129.198 112.687 130.573 112.234 131.953 111.818C133.339 111.396 134.729 111.01 136.13 110.661C137.536 110.307 138.943 109.989 140.359 109.708C141.781 109.427 143.203 109.182 144.635 108.969C146.063 108.755 147.495 108.578 148.938 108.437C150.375 108.297 151.813 108.187 153.26 108.12C154.703 108.047 156.146 108.01 157.594 108.01C159.036 108.01 160.484 108.047 161.927 108.12C163.37 108.187 164.813 108.297 166.25 108.437C167.688 108.578 169.12 108.755 170.552 108.969C171.979 109.182 173.406 109.427 174.823 109.708C176.24 109.989 177.651 110.307 179.052 110.661C180.453 111.01 181.849 111.396 183.229 111.818C184.615 112.234 185.984 112.687 187.349 113.177C188.708 113.661 190.057 114.182 191.391 114.734C192.724 115.286 194.047 115.875 195.354 116.489C196.662 117.109 197.953 117.76 199.224 118.443C200.5 119.125 201.76 119.833 203 120.578C204.24 121.323 205.458 122.094 206.661 122.896C207.865 123.698 209.042 124.531 210.203 125.39C211.365 126.255 212.505 127.14 213.62 128.062C214.74 128.979 215.833 129.922 216.906 130.89C217.974 131.864 219.021 132.859 220.042 133.88C221.068 134.901 222.063 135.948 223.031 137.021C224.005 138.094 224.948 139.187 225.865 140.302C226.781 141.422 227.672 142.557 228.531 143.719C229.391 144.88 230.224 146.062 231.026 147.265C231.833 148.469 232.604 149.687 233.349 150.927C234.089 152.167 234.802 153.422 235.484 154.698C236.167 155.974 236.813 157.265 237.432 158.573C238.052 159.875 238.635 161.198 239.188 162.536C239.745 163.87 240.26 165.219 240.75 166.578C241.234 167.937 241.688 169.312 242.109 170.693C242.531 172.078 242.917 173.469 243.266 174.875C243.615 176.276 243.932 177.682 244.214 179.104C244.5 180.521 244.745 181.943 244.958 183.375C245.167 184.802 245.344 186.239 245.49 187.677C245.63 189.114 245.734 190.557 245.807 192C245.875 193.443 245.911 194.885 245.911 196.333Z" fill="#442F19"/>
</g>
<mask id="mask52_47_13828" style="mask-type:luminance" maskUnits="userSpaceOnUse" x="69" y="48" width="177" height="178">
<path d="M69.2709 48.4531H246V225.453H69.2709V48.4531Z" fill="white"/>
</mask>
<g mask="url(#mask52_47_13828)">
<path d="M245.911 136.771C245.911 138.219 245.875 139.661 245.807 141.104C245.734 142.552 245.63 143.99 245.49 145.427C245.344 146.87 245.167 148.302 244.958 149.729C244.745 151.161 244.5 152.583 244.214 154.005C243.932 155.422 243.615 156.828 243.266 158.234C242.917 159.635 242.531 161.026 242.109 162.411C241.688 163.792 241.234 165.167 240.75 166.526C240.26 167.885 239.745 169.234 239.188 170.573C238.635 171.906 238.052 173.229 237.432 174.536C236.813 175.839 236.167 177.13 235.484 178.406C234.802 179.682 234.089 180.938 233.349 182.177C232.604 183.417 231.833 184.641 231.026 185.839C230.224 187.042 229.391 188.224 228.531 189.385C227.672 190.547 226.781 191.682 225.865 192.802C224.948 193.922 224.005 195.016 223.031 196.083C222.063 197.156 221.068 198.203 220.042 199.224C219.021 200.245 217.974 201.245 216.906 202.214C215.833 203.182 214.74 204.13 213.62 205.047C212.505 205.964 211.365 206.849 210.203 207.714C209.042 208.573 207.865 209.406 206.661 210.208C205.458 211.01 204.24 211.786 203 212.526C201.76 213.271 200.5 213.984 199.224 214.661C197.953 215.344 196.662 215.995 195.354 216.615C194.047 217.229 192.724 217.818 191.391 218.37C190.057 218.922 188.708 219.443 187.349 219.932C185.984 220.417 184.615 220.87 183.229 221.292C181.849 221.708 180.453 222.094 179.052 222.448C177.651 222.797 176.24 223.115 174.823 223.396C173.406 223.677 171.979 223.927 170.552 224.135C169.12 224.349 167.688 224.526 166.25 224.667C164.813 224.807 163.37 224.917 161.927 224.984C160.484 225.057 159.036 225.094 157.594 225.094C156.146 225.094 154.703 225.057 153.26 224.984C151.813 224.917 150.375 224.807 148.938 224.667C147.495 224.526 146.063 224.349 144.635 224.135C143.203 223.927 141.781 223.677 140.359 223.396C138.943 223.115 137.536 222.797 136.13 222.448C134.729 222.094 133.339 221.708 131.953 221.292C130.573 220.87 129.198 220.417 127.839 219.932C126.479 219.443 125.13 218.922 123.792 218.37C122.458 217.818 121.135 217.229 119.828 216.615C118.526 215.995 117.234 215.344 115.958 214.661C114.682 213.984 113.427 213.271 112.188 212.526C110.948 211.786 109.724 211.01 108.526 210.208C107.323 209.406 106.141 208.573 104.979 207.714C103.818 206.849 102.682 205.964 101.563 205.047C100.443 204.13 99.349 203.182 98.2813 202.214C97.2084 201.245 96.1615 200.245 95.1407 199.224C94.1198 198.203 93.1198 197.156 92.1511 196.083C91.1823 195.016 90.2344 193.922 89.3177 192.802C88.4011 191.682 87.5157 190.547 86.6511 189.385C85.7917 188.224 84.9584 187.042 84.1563 185.839C83.3542 184.641 82.5782 183.417 81.8386 182.177C81.0938 180.938 80.3802 179.682 79.7032 178.406C79.0209 177.13 78.3698 175.839 77.75 174.536C77.1355 173.229 76.5469 171.906 75.9948 170.573C75.4427 169.234 74.9219 167.885 74.4323 166.526C73.948 165.167 73.4948 163.792 73.073 162.411C72.6563 161.026 72.2709 159.635 71.9167 158.234C71.5677 156.828 71.25 155.422 70.9688 154.005C70.6875 152.583 70.4375 151.161 70.2292 149.729C70.0157 148.302 69.8386 146.87 69.698 145.427C69.5573 143.99 69.448 142.552 69.3802 141.104C69.3073 139.661 69.2709 138.219 69.2709 136.771C69.2709 135.328 69.3073 133.88 69.3802 132.438C69.448 130.995 69.5573 129.552 69.698 128.115C69.8386 126.677 70.0157 125.245 70.2292 123.812C70.4375 122.385 70.6875 120.958 70.9688 119.542C71.25 118.125 71.5677 116.714 71.9167 115.312C72.2709 113.911 72.6563 112.516 73.073 111.135C73.4948 109.75 73.948 108.38 74.4323 107.016C74.9219 105.656 75.4427 104.307 75.9948 102.974C76.5469 101.641 77.1355 100.318 77.75 99.0104C78.3698 97.7031 79.0209 96.4115 79.7032 95.1406C80.3802 93.8646 81.0938 92.6042 81.8386 91.3646C82.5782 90.125 83.3542 88.9062 84.1563 87.7031C84.9584 86.5 85.7917 85.3229 86.6511 84.1615C87.5157 83 88.4011 81.8594 89.3177 80.7448C90.2344 79.625 91.1823 78.5313 92.1511 77.4583C93.1198 76.3906 94.1198 75.3438 95.1407 74.3229C96.1615 73.2969 97.2084 72.3021 98.2813 71.3333C99.349 70.3594 100.443 69.4167 101.563 68.5C102.682 67.5833 103.818 66.6927 104.979 65.8333C106.141 64.974 107.323 64.1406 108.526 63.3385C109.724 62.5313 110.948 61.7604 112.188 61.0156C113.427 60.276 114.682 59.5625 115.958 58.8802C117.234 58.1979 118.526 57.5521 119.828 56.9323C121.135 56.3125 122.458 55.7292 123.792 55.1771C125.13 54.6198 126.479 54.1042 127.839 53.6146C129.198 53.1302 130.573 52.6771 131.953 52.2552C133.339 51.8333 134.729 51.4479 136.13 51.099C137.536 50.75 138.943 50.4323 140.359 50.151C141.781 49.8646 143.203 49.6198 144.635 49.4062C146.063 49.1979 147.495 49.0208 148.938 48.875C150.375 48.7344 151.813 48.6302 153.26 48.5573C154.703 48.4896 156.146 48.4531 157.594 48.4531C159.036 48.4531 160.484 48.4896 161.927 48.5573C163.37 48.6302 164.813 48.7344 166.25 48.875C167.688 49.0208 169.12 49.1979 170.552 49.4062C171.979 49.6198 173.406 49.8646 174.823 50.151C176.24 50.4323 177.651 50.75 179.052 51.099C180.453 51.4479 181.849 51.8333 183.229 52.2552C184.615 52.6771 185.984 53.1302 187.349 53.6146C188.708 54.1042 190.057 54.6198 191.391 55.1771C192.724 55.7292 194.047 56.3125 195.354 56.9323C196.662 57.5521 197.953 58.1979 199.224 58.8802C200.5 59.5625 201.76 60.276 203 61.0156C204.24 61.7604 205.458 62.5313 206.661 63.3385C207.865 64.1406 209.042 64.974 210.203 65.8333C211.365 66.6927 212.505 67.5833 213.62 68.5C214.74 69.4167 215.833 70.3594 216.906 71.3333C217.974 72.3021 219.021 73.2969 220.042 74.3229C221.068 75.3438 222.063 76.3906 223.031 77.4583C224.005 78.5313 224.948 79.625 225.865 80.7448C226.781 81.8594 227.672 83 228.531 84.1615C229.391 85.3229 230.224 86.5 231.026 87.7031C231.833 88.9062 232.604 90.125 233.349 91.3646C234.089 92.6042 234.802 93.8646 235.484 95.1406C236.167 96.4115 236.813 97.7031 237.432 99.0104C238.052 100.318 238.635 101.641 239.188 102.974C239.745 104.307 240.26 105.656 240.75 107.016C241.234 108.38 241.688 109.75 242.109 111.135C242.531 112.516 242.917 113.911 243.266 115.312C243.615 116.714 243.932 118.125 244.214 119.542C244.5 120.958 244.745 122.385 244.958 123.812C245.167 125.245 245.344 126.677 245.49 128.115C245.63 129.552 245.734 130.995 245.807 132.438C245.875 133.88 245.911 135.328 245.911 136.771Z" fill="#EDE0D2"/>
</g>
<mask id="mask53_47_13828" style="mask-type:luminance" maskUnits="userSpaceOnUse" x="168" y="92" width="64" height="64">
<path d="M168.906 92.9219H231.599V155.615H168.906V92.9219Z" fill="white"/>
</mask>
<g mask="url(#mask53_47_13828)">
<mask id="mask54_47_13828" style="mask-type:luminance" maskUnits="userSpaceOnUse" x="168" y="92" width="64" height="64">
<path d="M200.255 92.9219C182.938 92.9219 168.906 106.953 168.906 124.271C168.906 141.583 182.938 155.615 200.255 155.615C217.568 155.615 231.599 141.583 231.599 124.271C231.599 106.953 217.568 92.9219 200.255 92.9219Z" fill="white"/>
</mask>
<g mask="url(#mask54_47_13828)">
<path d="M168.906 92.9219H231.599V155.615H168.906V92.9219Z" fill="white"/>
</g>
</g>
<mask id="mask55_47_13828" style="mask-type:luminance" maskUnits="userSpaceOnUse" x="84" y="92" width="63" height="64">
<path d="M84.1459 92.9219H146.844V155.615H84.1459V92.9219Z" fill="white"/>
</mask>
<g mask="url(#mask55_47_13828)">
<mask id="mask56_47_13828" style="mask-type:luminance" maskUnits="userSpaceOnUse" x="84" y="92" width="63" height="64">
<path d="M115.495 92.9219C98.1823 92.9219 84.1459 106.953 84.1459 124.271C84.1459 141.583 98.1823 155.615 115.495 155.615C132.807 155.615 146.844 141.583 146.844 124.271C146.844 106.953 132.807 92.9219 115.495 92.9219Z" fill="white"/>
</mask>
<g mask="url(#mask56_47_13828)">
<path d="M84.1459 92.9219H146.844V155.615H84.1459V92.9219Z" fill="white"/>
</g>
</g>
<mask id="mask57_47_13828" style="mask-type:luminance" maskUnits="userSpaceOnUse" x="180" y="105" width="40" height="39">
<path d="M180.464 105.229H219.229V143.989H180.464V105.229Z" fill="white"/>
</mask>
<g mask="url(#mask57_47_13828)">
<mask id="mask58_47_13828" style="mask-type:luminance" maskUnits="userSpaceOnUse" x="180" y="105" width="40" height="39">
<path d="M199.849 105.229C189.141 105.229 180.464 113.906 180.464 124.609C180.464 135.312 189.141 143.989 199.849 143.989C210.552 143.989 219.229 135.312 219.229 124.609C219.229 113.906 210.552 105.229 199.849 105.229Z" fill="white"/>
</mask>
<g mask="url(#mask58_47_13828)">
<path d="M180.464 105.229H219.229V143.989H180.464V105.229Z" fill="black"/>
</g>
</g>
<mask id="mask59_47_13828" style="mask-type:luminance" maskUnits="userSpaceOnUse" x="98" y="105" width="39" height="39">
<path d="M98.1979 105.229H136.958V143.989H98.1979V105.229Z" fill="white"/>
</mask>
<g mask="url(#mask59_47_13828)">
<mask id="mask60_47_13828" style="mask-type:luminance" maskUnits="userSpaceOnUse" x="98" y="105" width="39" height="39">
<path d="M117.578 105.229C106.875 105.229 98.1979 113.906 98.1979 124.609C98.1979 135.312 106.875 143.989 117.578 143.989C128.281 143.989 136.958 135.312 136.958 124.609C136.958 113.906 128.281 105.229 117.578 105.229Z" fill="white"/>
</mask>
<g mask="url(#mask60_47_13828)">
<path d="M98.1979 105.229H136.958V143.989H98.1979V105.229Z" fill="black"/>
</g>
</g>
<mask id="mask61_47_13828" style="mask-type:luminance" maskUnits="userSpaceOnUse" x="115" y="106" width="20" height="19">
<path d="M115.495 106.047H134.057V124.609H115.495V106.047Z" fill="white"/>
</mask>
<g mask="url(#mask61_47_13828)">
<mask id="mask62_47_13828" style="mask-type:luminance" maskUnits="userSpaceOnUse" x="115" y="106" width="20" height="19">
<path d="M124.776 106.047C119.651 106.047 115.495 110.203 115.495 115.328C115.495 120.453 119.651 124.609 124.776 124.609C129.901 124.609 134.057 120.453 134.057 115.328C134.057 110.203 129.901 106.047 124.776 106.047Z" fill="white"/>
</mask>
<g mask="url(#mask62_47_13828)">
<path d="M115.495 106.047H134.057V124.609H115.495V106.047Z" fill="white"/>
</g>
</g>
<mask id="mask63_47_13828" style="mask-type:luminance" maskUnits="userSpaceOnUse" x="197" y="105" width="20" height="20">
<path d="M197.755 105.708H216.318V124.271H197.755V105.708Z" fill="white"/>
</mask>
<g mask="url(#mask63_47_13828)">
<mask id="mask64_47_13828" style="mask-type:luminance" maskUnits="userSpaceOnUse" x="197" y="105" width="20" height="20">
<path d="M207.036 105.708C201.911 105.708 197.755 109.86 197.755 114.99C197.755 120.115 201.911 124.271 207.036 124.271C212.161 124.271 216.318 120.115 216.318 114.99C216.318 109.86 212.161 105.708 207.036 105.708Z" fill="white"/>
</mask>
<g mask="url(#mask64_47_13828)">
<path d="M197.755 105.708H216.318V124.271H197.755V105.708Z" fill="white"/>
</g>
</g>
<mask id="mask65_47_13828" style="mask-type:luminance" maskUnits="userSpaceOnUse" x="124" y="229" width="66" height="25">
<path d="M124.896 229.099H189.896V253.099H124.896V229.099Z" fill="white"/>
</mask>
<g mask="url(#mask65_47_13828)">
<path d="M182.682 242.354C173.818 239.953 167.182 241.979 162.828 244.547C168.781 238.49 177.865 236.5 180.776 236.006L182.682 242.354ZM172.203 229.136L174.703 235.104C169.99 236.568 163.833 239.412 159.667 244.646C162.302 235.479 169.516 230.646 172.203 229.136ZM142.943 229.136C145.63 230.646 152.844 235.464 155.479 244.667C151.313 239.427 145.156 236.584 140.443 235.12L142.943 229.136ZM134.37 236.006C137.276 236.5 146.365 238.49 152.318 244.547C147.964 241.979 141.328 239.953 132.464 242.354L134.37 236.006ZM161.401 253.427H153.745C152.063 251.25 144.781 244.256 124.896 252.542L126.615 246.979C146.448 237.349 156.245 250.568 156.656 251.146C156.672 251.162 156.688 251.162 156.703 251.183C156.724 251.214 156.74 251.25 156.771 251.266C156.792 251.282 156.792 251.282 156.792 251.302C156.823 251.334 156.859 251.349 156.911 251.37C156.943 251.386 156.979 251.417 157.01 251.438C157.047 251.453 157.078 251.485 157.13 251.506C157.146 251.506 157.167 251.521 157.167 251.521C157.234 251.558 157.318 251.558 157.401 251.573C157.453 251.573 157.49 251.604 157.536 251.604C157.557 251.604 157.573 251.604 157.589 251.604C157.604 251.604 157.625 251.604 157.641 251.604C157.693 251.604 157.724 251.589 157.776 251.573C157.859 251.558 157.932 251.558 158.016 251.521C158.031 251.521 158.047 251.506 158.047 251.506C158.099 251.485 158.135 251.453 158.167 251.438C158.203 251.417 158.234 251.401 158.271 251.37C158.302 251.334 158.354 251.318 158.391 251.302C158.406 251.282 158.406 251.282 158.406 251.266C158.438 251.229 158.458 251.214 158.474 251.183C158.49 251.162 158.51 251.162 158.526 251.146C158.932 250.568 168.729 237.349 188.568 246.979L190.286 252.542C170.38 244.256 163.083 251.266 161.401 253.427Z" fill="#EDE0D2"/>
</g>
<mask id="mask66_47_13828" style="mask-type:luminance" maskUnits="userSpaceOnUse" x="139" y="250" width="109" height="94">
<path d="M139.333 250H247.333V343.333H139.333V250Z" fill="white"/>
</mask>
<g mask="url(#mask66_47_13828)">
<mask id="mask67_47_13828" style="mask-type:luminance" maskUnits="userSpaceOnUse" x="131" y="241" width="125" height="111">
<path d="M131.604 319.016L230.031 241.969L255.302 274.25L156.875 351.302L131.604 319.016Z" fill="white"/>
</mask>
<g mask="url(#mask67_47_13828)">
<mask id="mask68_47_13828" style="mask-type:luminance" maskUnits="userSpaceOnUse" x="131" y="241" width="125" height="111">
<path d="M230.068 241.938L131.641 318.99L156.912 351.271L255.339 274.224L230.068 241.938Z" fill="white"/>
</mask>
<g mask="url(#mask68_47_13828)">
<path d="M172.99 338.563L239.104 286.808C247.948 279.88 249.505 267.094 242.584 258.245C235.656 249.401 222.87 247.839 214.021 254.766L147.906 306.521C139.063 313.443 137.505 326.235 144.427 335.078C151.354 343.927 164.146 345.485 172.99 338.563Z" fill="#604428"/>
<path d="M173.115 338.719L239.224 286.964C248.151 279.974 249.724 267.047 242.74 258.125C235.75 249.198 222.823 247.625 213.901 254.609L147.787 306.365C138.86 313.349 137.287 326.281 144.271 335.203C151.261 344.125 164.188 345.703 173.115 338.719ZM214.146 254.922C222.896 248.073 235.573 249.615 242.427 258.37C249.276 267.12 247.735 279.797 238.979 286.651L172.87 338.406C164.115 345.255 151.438 343.708 144.583 334.958C137.735 326.208 139.276 313.526 148.031 306.677L214.146 254.922Z" fill="#604428"/>
</g>
</g>
</g>
<mask id="mask69_47_13828" style="mask-type:luminance" maskUnits="userSpaceOnUse" x="120" y="204" width="129" height="112">
<path d="M120.667 204.667H248.667V315.333H120.667V204.667Z" fill="white"/>
</mask>
<g mask="url(#mask69_47_13828)">
<mask id="mask70_47_13828" style="mask-type:luminance" maskUnits="userSpaceOnUse" x="110" y="194" width="149" height="132">
<path d="M110.984 286.489L228.312 194.646L258.516 233.229L141.188 325.073L110.984 286.489Z" fill="white"/>
</mask>
<g mask="url(#mask70_47_13828)">
<mask id="mask71_47_13828" style="mask-type:luminance" maskUnits="userSpaceOnUse" x="110" y="194" width="149" height="132">
<path d="M228.005 194.885L110.677 286.729L140.88 325.312L258.208 233.469L228.005 194.885Z" fill="white"/>
</mask>
<g mask="url(#mask71_47_13828)">
<path d="M160.167 309.708L238.734 248.203C249.25 239.974 251.099 224.776 242.87 214.26C234.641 203.75 219.443 201.896 208.927 210.125L130.359 271.63C119.844 279.864 117.995 295.062 126.224 305.573C134.453 316.088 149.651 317.937 160.167 309.708Z" fill="#604428"/>
<path d="M160.312 309.896L238.88 248.39C249.49 240.088 251.359 224.724 243.057 214.114C234.755 203.51 219.391 201.64 208.781 209.942L130.214 271.448C119.609 279.75 117.734 295.114 126.036 305.719C134.339 316.328 149.708 318.198 160.312 309.896ZM209.073 210.312C219.474 202.172 234.542 204.005 242.687 214.406C250.828 224.807 248.995 239.875 238.589 248.021L160.021 309.526C149.62 317.666 134.552 315.833 126.411 305.427C118.266 295.026 120.104 279.958 130.505 271.817L209.073 210.312Z" fill="#604428"/>
</g>
</g>
</g>
<mask id="mask72_47_13828" style="mask-type:luminance" maskUnits="userSpaceOnUse" x="124" y="160" width="129" height="113">
<path d="M124.667 160.667H252.667V272.667H124.667V160.667Z" fill="white"/>
</mask>
<g mask="url(#mask72_47_13828)">
<mask id="mask73_47_13828" style="mask-type:luminance" maskUnits="userSpaceOnUse" x="115" y="151" width="148" height="131">
<path d="M115.38 243.208L232.703 151.364L262.911 189.948L145.583 281.791L115.38 243.208Z" fill="white"/>
</mask>
<g mask="url(#mask73_47_13828)">
<mask id="mask74_47_13828" style="mask-type:luminance" maskUnits="userSpaceOnUse" x="115" y="151" width="148" height="132">
<path d="M232.396 151.604L115.073 243.448L145.276 282.036L262.599 190.187L232.396 151.604Z" fill="white"/>
</mask>
<g mask="url(#mask74_47_13828)">
<path d="M164.562 266.427L243.13 204.922C253.646 196.692 255.495 181.495 247.266 170.979C239.036 160.468 223.833 158.614 213.323 166.843L134.755 228.354C124.24 236.583 122.391 251.781 130.62 262.291C138.849 272.807 154.047 274.661 164.562 266.427Z" fill="#604428"/>
<path d="M164.708 266.614L243.276 205.109C253.88 196.807 255.755 181.442 247.453 170.833C239.151 160.229 223.781 158.359 213.177 166.661L134.609 228.166C124 236.469 122.13 251.833 130.432 262.437C138.734 273.047 154.099 274.916 164.708 266.614ZM213.469 167.031C223.87 158.89 238.937 160.724 247.078 171.125C255.224 181.526 253.385 196.594 242.984 204.739L164.417 266.245C154.016 274.385 138.948 272.552 130.802 262.151C122.661 251.745 124.495 236.682 134.896 228.536L213.469 167.031Z" fill="#604428"/>
</g>
</g>
</g>
<mask id="mask75_47_13828" style="mask-type:luminance" maskUnits="userSpaceOnUse" x="147" y="159" width="37" height="25">
<path d="M147.333 159.333H183.333V183.333H147.333V159.333Z" fill="white"/>
</mask>
<g mask="url(#mask75_47_13828)">
<mask id="mask76_47_13828" style="mask-type:luminance" maskUnits="userSpaceOnUse" x="144" y="156" width="41" height="31">
<path d="M144.708 169.724L178.13 156.354L184.818 173.068L151.391 186.438L144.708 169.724Z" fill="white"/>
</mask>
<g mask="url(#mask76_47_13828)">
<mask id="mask77_47_13828" style="mask-type:luminance" maskUnits="userSpaceOnUse" x="144" y="156" width="41" height="31">
<path d="M144.708 169.724L178.13 156.354L184.818 173.068L151.391 186.438L144.708 169.724Z" fill="white"/>
</mask>
<g mask="url(#mask77_47_13828)">
<path d="M181.984 164.688C182.208 165.245 182.318 165.839 182.323 166.475C182.323 167.105 182.214 167.766 181.995 168.448C181.776 169.136 181.448 169.834 181.016 170.542C180.583 171.256 180.052 171.964 179.422 172.672C178.797 173.381 178.078 174.073 177.281 174.756C176.479 175.433 175.609 176.084 174.667 176.709C173.724 177.334 172.729 177.917 171.682 178.464C170.635 179.011 169.552 179.506 168.443 179.948C167.328 180.391 166.208 180.777 165.073 181.105C163.938 181.433 162.813 181.698 161.703 181.896C160.589 182.089 159.505 182.219 158.458 182.282C157.411 182.339 156.417 182.329 155.469 182.251C154.526 182.172 153.651 182.021 152.849 181.808C152.047 181.589 151.328 181.308 150.698 180.964C150.068 180.62 149.531 180.219 149.099 179.756C148.661 179.297 148.333 178.787 148.109 178.23C147.885 177.672 147.776 177.079 147.771 176.443C147.771 175.813 147.88 175.152 148.099 174.469C148.318 173.782 148.646 173.084 149.078 172.376C149.51 171.662 150.042 170.954 150.672 170.245C151.297 169.537 152.01 168.844 152.813 168.162C153.615 167.485 154.484 166.834 155.427 166.209C156.37 165.584 157.365 165.001 158.411 164.454C159.458 163.907 160.542 163.412 161.651 162.969C162.766 162.527 163.885 162.136 165.021 161.813C166.156 161.485 167.281 161.219 168.391 161.021C169.505 160.823 170.589 160.698 171.635 160.636C172.682 160.579 173.677 160.589 174.625 160.667C175.568 160.745 176.443 160.896 177.245 161.11C178.047 161.329 178.766 161.61 179.396 161.954C180.026 162.297 180.563 162.698 180.995 163.162C181.432 163.62 181.76 164.131 181.984 164.688Z" fill="#FCD590"/>
</g>
</g>
</g>
<mask id="mask78_47_13828" style="mask-type:luminance" maskUnits="userSpaceOnUse" x="131" y="160" width="38" height="24">
<path d="M131.333 160.667H168.667V183.333H131.333V160.667Z" fill="white"/>
</mask>
<g mask="url(#mask78_47_13828)">
<mask id="mask79_47_13828" style="mask-type:luminance" maskUnits="userSpaceOnUse" x="129" y="157" width="41" height="30">
<path d="M135.766 157.646L169.849 169.234L164.057 186.276L129.974 174.687L135.766 157.646Z" fill="white"/>
</mask>
<g mask="url(#mask79_47_13828)">
<mask id="mask80_47_13828" style="mask-type:luminance" maskUnits="userSpaceOnUse" x="129" y="157" width="41" height="30">
<path d="M135.766 157.646L169.849 169.234L164.057 186.276L129.974 174.687L135.766 157.646Z" fill="white"/>
</mask>
<g mask="url(#mask80_47_13828)">
<path d="M167.359 178.062C167.167 178.63 166.865 179.156 166.453 179.64C166.042 180.12 165.531 180.552 164.917 180.932C164.307 181.307 163.604 181.625 162.813 181.885C162.021 182.14 161.156 182.338 160.219 182.463C159.281 182.594 158.286 182.656 157.234 182.651C156.188 182.646 155.099 182.573 153.979 182.437C152.854 182.297 151.719 182.094 150.568 181.828C149.422 181.562 148.276 181.234 147.146 180.849C146.01 180.463 144.906 180.026 143.833 179.536C142.755 179.047 141.734 178.515 140.76 177.943C139.786 177.37 138.88 176.765 138.047 176.125C137.208 175.489 136.458 174.833 135.792 174.161C135.13 173.484 134.563 172.807 134.094 172.12C133.62 171.432 133.26 170.75 133.005 170.078C132.75 169.406 132.604 168.755 132.573 168.12C132.542 167.489 132.625 166.89 132.818 166.318C133.01 165.75 133.313 165.224 133.724 164.745C134.13 164.26 134.646 163.833 135.255 163.453C135.87 163.078 136.573 162.76 137.359 162.5C138.151 162.245 139.016 162.047 139.953 161.916C140.896 161.791 141.891 161.729 142.938 161.734C143.99 161.739 145.073 161.807 146.198 161.948C147.318 162.088 148.453 162.291 149.604 162.557C150.755 162.823 151.896 163.151 153.031 163.536C154.167 163.922 155.271 164.359 156.344 164.849C157.417 165.338 158.443 165.87 159.417 166.443C160.391 167.015 161.292 167.62 162.13 168.255C162.964 168.896 163.714 169.547 164.38 170.224C165.047 170.896 165.615 171.578 166.083 172.265C166.552 172.953 166.917 173.63 167.172 174.302C167.427 174.979 167.568 175.63 167.599 176.26C167.63 176.896 167.552 177.495 167.359 178.062Z" fill="#FCD590"/>
</g>
</g>
</g>
<mask id="mask81_47_13828" style="mask-type:luminance" maskUnits="userSpaceOnUse" x="131" y="164" width="35" height="22">
<path d="M131.333 164.667H166V186H131.333V164.667Z" fill="white"/>
</mask>
<g mask="url(#mask81_47_13828)">
<mask id="mask82_47_13828" style="mask-type:luminance" maskUnits="userSpaceOnUse" x="128" y="161" width="40" height="29">
<path d="M134.599 161.078L167.734 172.344L161.943 189.385L128.802 178.12L134.599 161.078Z" fill="white"/>
</mask>
<g mask="url(#mask82_47_13828)">
<mask id="mask83_47_13828" style="mask-type:luminance" maskUnits="userSpaceOnUse" x="128" y="161" width="40" height="29">
<path d="M134.599 161.078L167.734 172.344L161.943 189.385L128.802 178.12L134.599 161.078Z" fill="white"/>
</mask>
<g mask="url(#mask83_47_13828)">
<path d="M164.823 180.609C164.641 181.156 164.349 181.656 163.958 182.12C163.568 182.583 163.078 182.995 162.49 183.354C161.906 183.714 161.234 184.021 160.474 184.266C159.719 184.516 158.891 184.698 157.995 184.823C157.099 184.948 156.146 185.005 155.141 185C154.135 184.995 153.094 184.927 152.021 184.797C150.948 184.661 149.865 184.469 148.766 184.214C147.661 183.958 146.568 183.646 145.484 183.276C144.401 182.906 143.344 182.49 142.318 182.021C141.286 181.552 140.307 181.047 139.375 180.495C138.443 179.948 137.578 179.37 136.781 178.76C135.979 178.151 135.26 177.521 134.625 176.875C133.99 176.234 133.448 175.583 132.995 174.922C132.547 174.266 132.203 173.615 131.958 172.974C131.714 172.328 131.573 171.703 131.547 171.099C131.516 170.495 131.594 169.922 131.776 169.375C131.964 168.833 132.25 168.328 132.646 167.87C133.036 167.406 133.526 166.995 134.115 166.635C134.698 166.271 135.37 165.969 136.125 165.724C136.88 165.474 137.708 165.286 138.609 165.167C139.505 165.042 140.458 164.984 141.464 164.984C142.469 164.99 143.505 165.057 144.578 165.193C145.651 165.323 146.74 165.521 147.839 165.776C148.938 166.031 150.031 166.344 151.115 166.714C152.203 167.083 153.26 167.5 154.286 167.969C155.312 168.438 156.297 168.943 157.224 169.495C158.156 170.042 159.021 170.62 159.823 171.229C160.62 171.839 161.339 172.464 161.974 173.109C162.615 173.755 163.156 174.406 163.604 175.062C164.052 175.719 164.401 176.37 164.646 177.016C164.891 177.656 165.026 178.281 165.057 178.891C165.089 179.495 165.01 180.068 164.823 180.609Z" fill="#FFB93E"/>
</g>
</g>
</g>
<mask id="mask84_47_13828" style="mask-type:luminance" maskUnits="userSpaceOnUse" x="148" y="163" width="37" height="23">
<path d="M148.667 163.333H184.667V186H148.667V163.333Z" fill="white"/>
</mask>
<g mask="url(#mask84_47_13828)">
<mask id="mask85_47_13828" style="mask-type:luminance" maskUnits="userSpaceOnUse" x="146" y="159" width="41" height="31">
<path d="M146.052 173.089L179.479 159.724L186.161 176.438L152.734 189.802L146.052 173.089Z" fill="white"/>
</mask>
<g mask="url(#mask85_47_13828)">
<mask id="mask86_47_13828" style="mask-type:luminance" maskUnits="userSpaceOnUse" x="146" y="159" width="41" height="31">
<path d="M146.052 173.089L179.479 159.724L186.161 176.438L152.734 189.802L146.052 173.089Z" fill="white"/>
</mask>
<g mask="url(#mask86_47_13828)">
<path d="M183.333 168.052C183.552 168.61 183.667 169.209 183.667 169.839C183.672 170.474 183.562 171.13 183.344 171.818C183.12 172.5 182.797 173.198 182.364 173.912C181.932 174.62 181.401 175.334 180.771 176.042C180.141 176.75 179.427 177.443 178.625 178.12C177.828 178.802 176.953 179.453 176.01 180.078C175.068 180.703 174.073 181.287 173.026 181.834C171.979 182.375 170.901 182.87 169.786 183.318C168.677 183.761 167.552 184.146 166.417 184.474C165.286 184.802 164.161 185.063 163.047 185.261C161.937 185.459 160.854 185.589 159.807 185.646C158.755 185.709 157.76 185.698 156.818 185.62C155.875 185.537 155 185.391 154.198 185.172C153.391 184.959 152.677 184.677 152.042 184.334C151.411 183.99 150.88 183.584 150.443 183.125C150.005 182.667 149.677 182.156 149.453 181.599C149.234 181.042 149.12 180.448 149.12 179.813C149.114 179.177 149.224 178.521 149.448 177.834C149.667 177.151 149.989 176.453 150.422 175.74C150.854 175.031 151.385 174.323 152.016 173.615C152.646 172.906 153.359 172.209 154.161 171.531C154.963 170.849 155.833 170.198 156.776 169.573C157.719 168.953 158.713 168.365 159.76 167.823C160.807 167.276 161.885 166.781 163 166.339C164.109 165.891 165.234 165.505 166.37 165.177C167.505 164.849 168.625 164.589 169.739 164.391C170.854 164.193 171.932 164.063 172.979 164.005C174.031 163.943 175.026 163.953 175.969 164.031C176.917 164.115 177.786 164.261 178.588 164.479C179.396 164.693 180.109 164.974 180.745 165.318C181.375 165.667 181.906 166.068 182.344 166.526C182.781 166.985 183.109 167.495 183.333 168.052Z" fill="#FFB93E"/>
</g>
</g>
</g>
<mask id="mask87_47_13828" style="mask-type:luminance" maskUnits="userSpaceOnUse" x="60" y="0" width="213" height="92">
<path d="M60.6666 0.666504H272.667V91.3332H60.6666V0.666504Z" fill="white"/>
</mask>
<g mask="url(#mask87_47_13828)">
<mask id="mask88_47_13828" style="mask-type:luminance" maskUnits="userSpaceOnUse" x="57" y="-25" width="226" height="170">
<path d="M92.7135 -24.1982L282.812 37.9528L248.005 144.411L57.9062 82.2601L92.7135 -24.1982Z" fill="white"/>
</mask>
<g mask="url(#mask88_47_13828)">
<mask id="mask89_47_13828" style="mask-type:luminance" maskUnits="userSpaceOnUse" x="57" y="-25" width="226" height="170">
<path d="M92.7135 -24.1982L282.812 37.9528L248.005 144.411L57.9062 82.2601L92.7135 -24.1982Z" fill="white"/>
</mask>
<g mask="url(#mask89_47_13828)">
<path d="M172.344 2.30697C176.448 3.59864 180.182 5.6351 183.667 8.12989C189.24 12.1195 194.656 16.307 199.667 20.9997C201.557 22.7705 203.557 24.4059 205.724 25.8382C213.984 31.307 221.479 37.7861 229.339 43.7913C234.839 47.9945 240.25 52.3382 246.427 55.557C254.203 59.6091 261.453 64.5205 268.943 69.0466C269.521 69.3955 270.005 69.7393 270.75 69.8486C271.901 70.0153 272.068 70.833 271.448 71.8747C268.99 76.0309 265.214 78.2132 260.609 79.1091C257.771 79.6611 254.917 80.1611 252.052 80.5257C244.276 81.5205 236.615 83.3226 228.781 83.8747C224.76 84.1611 220.729 84.4528 216.703 84.5153C210.214 84.6195 203.802 85.3174 197.422 86.4632C189.396 87.9007 181.307 88.7028 173.141 88.8226C169.911 88.8695 166.599 88.4528 163.464 89.6872C158.443 88.9736 153.49 90.1924 148.49 90.2393C135.026 90.3591 121.563 90.5205 108.104 90.7393C99.5105 90.8851 90.9063 90.3226 82.4375 88.5726C77.2188 87.4893 72.0052 86.3955 66.7969 85.2601C65.3855 84.9476 64.0157 84.4684 62.8542 83.5257C61.3125 82.2809 60.5209 80.7497 60.9532 78.7289C61 78.5049 61.1875 78.2236 61.1094 78.0726C59.9896 75.8851 61.7188 75.5153 63.0938 74.9059C64.573 74.2549 65.8646 73.307 67.1667 72.3799C72.9896 68.2236 78.6719 63.8382 84.6823 59.9632C92.2917 55.0518 99.9219 50.1559 107.76 45.5934C120.234 38.3382 132 30.0726 142.906 20.6038C144.516 19.2028 146.125 17.7966 147.828 16.5153C152.099 13.307 156.057 9.74968 159.813 5.95801C161.271 4.48926 162.911 3.25489 164.604 2.08822C166.349 0.895513 168.193 0.504888 170.193 1.58822C170.849 1.93718 171.62 2.0726 172.344 2.30697Z" fill="#433820"/>
</g>
</g>
</g>
<mask id="mask90_47_13828" style="mask-type:luminance" maskUnits="userSpaceOnUse" x="66" y="6" width="192" height="75">
<path d="M66 6H258V80.6667H66V6Z" fill="white"/>
</mask>
<g mask="url(#mask90_47_13828)">
<mask id="mask91_47_13828" style="mask-type:luminance" maskUnits="userSpaceOnUse" x="57" y="-25" width="226" height="170">
<path d="M92.7135 -24.1978L282.812 37.9533L248.005 144.412L57.9062 82.2606L92.7135 -24.1978Z" fill="white"/>
</mask>
<g mask="url(#mask91_47_13828)">
<mask id="mask92_47_13828" style="mask-type:luminance" maskUnits="userSpaceOnUse" x="57" y="-25" width="226" height="170">
<path d="M92.7135 -24.1978L282.812 37.9533L248.005 144.412L57.9062 82.2606L92.7135 -24.1978Z" fill="white"/>
</mask>
<g mask="url(#mask92_47_13828)">
<path d="M140.135 79.3493C139.917 79.2868 139.682 79.1462 139.479 79.1775C133.49 80.0525 127.469 79.4379 121.464 79.4795C115.38 79.5212 109.286 79.4118 103.203 79.4327C95.4792 79.4587 87.8542 78.6045 80.1979 77.9431C76.3281 77.615 72.4688 77.1879 68.6094 76.8077C67.8542 76.7295 67.0833 76.7139 66.4062 76.2712C66.5052 75.542 67.1823 75.3962 67.651 75.0629C72.0677 71.9431 76.5156 68.865 80.9167 65.7243C93.0208 57.0837 105.635 49.2347 118.521 41.8285C125.427 37.8597 131.729 33.0889 137.901 28.115C143.062 23.9587 148.146 19.7035 153.312 15.5525C155.755 13.5941 157.964 11.3858 160.208 9.21912C161.047 8.40662 161.734 8.03683 162.667 9.0212C162.911 9.28683 163.328 9.38578 163.651 9.58891C167.318 11.9118 170.609 11.2243 173.927 7.97433C174.198 7.7087 174.49 7.44308 174.677 7.11495C175.255 6.13058 175.938 6.26078 176.766 6.79203C178.104 7.66183 179.531 8.40141 180.828 9.32849C186.656 13.49 192.354 17.8129 197.615 22.6931C199.177 24.141 200.76 25.6097 202.521 26.7868C211.026 32.4587 218.849 39.016 226.922 45.2452C232.406 49.4795 237.823 53.8233 243.906 57.1931C248.036 59.4743 252.214 61.6722 256.172 64.2504C256.474 64.4483 256.896 64.5212 257.021 65.1358C256.51 65.7452 255.651 65.891 254.906 66.0941C247.271 68.2087 239.651 70.3754 231.688 70.9639C227.13 71.2972 222.615 72.0368 218.089 72.667C210.391 73.74 202.667 74.5681 194.891 74.7556C189.781 74.8806 184.703 75.391 179.667 76.2243C169.182 77.9535 158.583 77.9483 148.01 78.3962C147.333 78.4222 146.641 78.3493 145.964 78.24C145.104 78.0993 144.464 78.3129 144.104 79.1462C142.807 79.8025 141.51 80.3389 140.135 79.3493Z" fill="#EDE0D2"/>
</g>
</g>
</g>
<mask id="mask93_47_13828" style="mask-type:luminance" maskUnits="userSpaceOnUse" x="128" y="66" width="141" height="19">
<path d="M128.667 66H268.667V84.6667H128.667V66Z" fill="white"/>
</mask>
<g mask="url(#mask93_47_13828)">
<mask id="mask94_47_13828" style="mask-type:luminance" maskUnits="userSpaceOnUse" x="57" y="-25" width="226" height="170">
<path d="M92.7135 -24.1978L282.812 37.9533L248.005 144.412L57.9062 82.2606L92.7135 -24.1978Z" fill="white"/>
</mask>
<g mask="url(#mask94_47_13828)">
<mask id="mask95_47_13828" style="mask-type:luminance" maskUnits="userSpaceOnUse" x="57" y="-25" width="226" height="170">
<path d="M92.7135 -24.1978L282.812 37.9533L248.005 144.412L57.9062 82.2606L92.7135 -24.1978Z" fill="white"/>
</mask>
<g mask="url(#mask95_47_13828)">
<path d="M187.495 81.8126C187.453 81.7501 187.37 81.6876 187.37 81.6251C187.167 76.948 186.839 77.9063 190.854 77.6095C195.479 77.2761 200.13 77.2293 204.74 76.7918C206.089 76.6616 206.734 77.9793 207.865 77.7293C208.859 77.5105 209.297 76.3751 210.542 76.2345C217.12 75.5001 223.677 74.6095 230.24 73.7501C231.365 73.5991 232.234 73.5313 232.807 74.8803C233.224 75.8647 234.286 75.7449 234.609 74.672C234.927 73.6251 235.411 73.2032 236.474 73.0834C241.859 72.4636 247.042 70.8699 252.292 69.5991C253.766 69.2449 254.906 69.1043 255.849 70.5053C256.234 71.0834 256.844 71.4376 257.557 71.5574C258.042 71.6407 258.469 71.5418 258.74 71.0991C258.964 70.7397 258.854 70.3751 258.661 70.0261C258.292 69.3595 257.51 69.0209 257.266 68.2657C257.323 68.2032 257.365 68.1355 257.422 68.0886C259.417 66.5678 261.203 67.0522 263.063 68.4636C264.625 69.6459 266.365 70.5938 267.99 71.6199C267.766 72.4688 267.339 72.9897 266.849 73.4741C266.182 74.1303 265.563 74.9532 264.703 73.672C264.49 73.3491 264.073 73.2761 263.682 73.2241C262.313 73.0418 261.844 73.6876 262.359 75.0678C262.432 75.2709 262.484 75.4793 262.547 75.698C261.599 76.3491 260.542 76.5053 259.5 76.672C252.141 77.8595 244.771 79.0105 237.411 80.2084C236.354 80.3803 235.51 80.4011 234.938 79.2605C234.667 78.7136 234.005 78.4636 233.344 78.7241C232.74 78.9584 232.625 79.4584 232.802 80.0418C233.057 80.8751 232.448 80.9116 231.922 80.9636C229.802 81.1668 227.682 81.4116 225.557 81.5157C220.922 81.7345 216.286 81.8647 211.651 82.0626C210.76 82.1043 210.141 82.0209 210.302 80.8803C210.354 80.5261 210.24 80.1251 210.13 79.7657C209.958 79.2084 209.568 78.8334 208.958 78.8699C208.344 78.9063 208 79.3126 207.938 79.9063C207.854 80.7188 208.193 81.7553 207.37 82.2136C206.682 82.5938 205.76 82.5626 204.938 82.6876C201.927 83.1459 198.917 83.5938 195.906 84.047C193.495 81.8386 190.323 82.4688 187.495 81.8126ZM160.208 80.5626C159.297 80.5938 158.385 80.6563 157.479 80.672C153.99 80.7188 150.505 80.7761 147.016 80.7761C145.781 80.7761 144.547 80.6251 144.099 79.1459C142.76 78.8751 141.469 79.547 140.135 79.3491C140.385 81.0626 140.286 81.2813 138.99 81.7657C137.984 82.1407 136.932 82.2241 135.87 82.2188C133.911 82.2084 131.953 82.2345 129.995 82.1668C129.12 82.1407 128.682 82.3699 128.833 83.3022C129.401 84.0053 130.12 84.1824 131.031 84.2293C139.823 84.7188 148.599 84.1043 157.37 83.7188C159.297 83.6355 161.333 83.8126 163.182 82.9168C162.661 80.4897 162.661 80.4897 160.208 80.5626ZM184.849 79.5366C184.875 78.5261 184.375 78.1668 183.411 78.3334C182.891 78.422 182.354 78.4584 181.828 78.5418C176.943 79.323 172.042 79.9324 167.104 80.2449C165.141 80.3751 165.141 80.3959 165.708 82.3647C166.323 83.2918 167.208 83.1251 168.135 83.0522C172.859 82.6876 177.583 82.3647 182.307 82.047C183.208 81.9897 184.135 82.0938 184.844 81.3595C184.844 80.7501 184.839 80.1407 184.849 79.5366Z" fill="#9D743B"/>
</g>
</g>
</g>
<mask id="mask96_47_13828" style="mask-type:luminance" maskUnits="userSpaceOnUse" x="62" y="3" width="135" height="86">
<path d="M62 3.3335H196.667V88.6668H62V3.3335Z" fill="white"/>
</mask>
<g mask="url(#mask96_47_13828)">
<mask id="mask97_47_13828" style="mask-type:luminance" maskUnits="userSpaceOnUse" x="57" y="-25" width="226" height="170">
<path d="M92.7135 -24.1978L282.812 37.9533L248.005 144.412L57.9062 82.2606L92.7135 -24.1978Z" fill="white"/>
</mask>
<g mask="url(#mask97_47_13828)">
<mask id="mask98_47_13828" style="mask-type:luminance" maskUnits="userSpaceOnUse" x="57" y="-25" width="226" height="170">
<path d="M92.7135 -24.1978L282.812 37.9533L248.005 144.412L57.9062 82.2606L92.7135 -24.1978Z" fill="white"/>
</mask>
<g mask="url(#mask98_47_13828)">
<path d="M187.495 81.8126C189.052 81.5001 190.609 81.6147 192.187 81.6824C193.589 81.7449 194.661 82.1095 195.266 83.4689C195.375 83.7085 195.687 83.8543 195.911 84.047C188.87 85.3126 181.776 86.047 174.62 86.1772C171.885 86.2293 169.089 86.7241 166.432 86.297C163.818 85.8803 161.526 86.9272 159.057 86.9741C156.474 87.0157 153.896 87.2605 151.318 87.4428C144.182 87.9376 137.036 87.6824 129.891 87.7241C122.594 87.771 115.302 88.0678 108.005 88.2241C106.333 88.2553 104.562 88.4897 103.021 88.0262C101.5 87.5678 100.167 87.0157 98.6614 87.8491C90.9948 87.4012 83.375 86.646 75.9948 84.3439C75.8489 84.297 75.7135 84.2241 75.5729 84.1668L75.5833 84.198C76.1666 83.7137 76.2604 83.0887 76.25 82.3595C76.2396 81.7657 76.4635 81.1668 76.5989 80.4949C77.276 80.1668 78.0156 80.3335 78.75 80.3907C84.875 80.8751 90.9687 81.7762 97.1198 81.9324C98.0104 81.9532 98.375 82.2293 98.3698 83.0887C98.3698 83.3907 98.4323 83.7032 98.5416 83.9793C98.7552 84.5314 99.1979 84.8178 99.7864 84.797C100.49 84.771 100.578 84.2241 100.677 83.6824C100.984 81.9428 100.99 81.8595 102.729 81.9272C110.099 82.2032 117.469 82.0053 124.839 82.0835C126.464 82.0991 126.484 82.146 126.411 83.8074C126.38 84.4116 126.203 85.0262 126.281 85.6147C126.37 86.2866 126.63 87.0418 127.531 86.9428C128.276 86.8647 128.76 86.4532 128.708 85.5626C128.672 84.8126 128.786 84.0574 128.833 83.3022C137.255 84.2293 145.672 83.5678 154.094 83.297C157.125 83.2032 160.135 82.547 163.182 82.922C164.958 83.6928 164.958 83.6928 165.708 82.3647C171.656 82.4532 177.552 81.5574 183.484 81.3491C183.937 81.3335 184.391 81.2085 184.839 81.3595C184.87 81.4272 184.922 81.4949 184.932 81.5678C185.089 82.4012 184.76 83.5678 186.052 83.7085C187.411 83.8491 187.146 82.5522 187.495 81.8126ZM75.5833 84.198C74.2916 83.9272 73.4635 83.3178 73.8906 81.8282C74.2187 80.698 73.7604 80.0366 72.6562 79.8595C69.9687 79.4376 67.276 78.9949 64.5729 78.698C63.3229 78.5574 62.8333 79.5418 63.5208 80.6564C64.0989 81.5939 65.0156 82.1199 66.0312 82.5053C68.0364 83.2657 70.1614 83.5157 72.25 83.7866C73.3489 83.9324 74.401 84.6616 75.5729 84.1668L75.5833 84.198ZM172.323 5.92199C172.573 5.51574 172.755 5.07303 172.214 4.75011C170.635 3.81261 168.76 5.1147 167.156 4.07824C166.687 3.77615 166.125 4.22928 165.724 4.56261C165.005 5.17199 163.635 5.44803 163.766 6.51574C163.896 7.59386 165.276 7.58345 166.052 7.97407C168.385 8.76574 171.12 7.84907 172.323 5.92199ZM122.854 64.9949C124.734 65.7084 126.724 65.7709 128.687 65.9116C133.151 66.2397 137.615 66.9324 142.104 66.2397C144.365 65.8907 146.635 65.7553 148.927 65.7709C151.37 65.7866 153.792 65.5314 156.13 64.7501C156.964 64.4689 157.859 64.2137 158.099 63.1668C157.104 62.3803 156.021 62.448 154.969 62.5522C152.245 62.8126 149.5 63.0105 146.807 63.4637C141.745 64.323 136.687 64.4012 131.578 64.0366C128.339 63.8074 125.073 63.6668 121.677 64.0053C121.937 64.8699 122.464 64.8491 122.854 64.9949ZM142.604 46.1095C141.24 46.0678 139.87 46.073 138.505 45.9897C132.057 45.6095 125.615 46.5157 119.161 46.1095C118.578 46.0782 117.849 46.0834 117.708 46.8855C117.578 47.6095 118.109 47.9584 118.698 48.2241C119.984 48.8022 121.344 48.9272 122.719 48.8543C126.969 48.6199 131.224 48.7657 135.479 48.7762C137.302 48.7814 139.125 48.672 140.932 48.3699C142.219 48.1564 143.354 47.6772 144.437 46.7657C143.786 46.2605 143.214 46.1251 142.604 46.1095ZM125.312 54.8439C120.87 54.3074 116.453 53.6251 112.026 52.9897C110.88 52.8282 109.818 52.4324 108.698 52.2501C108.234 52.1772 107.776 52.2918 107.547 52.7762C107.307 53.2657 107.589 53.6355 107.901 53.9845C108.38 54.5209 109.031 54.7397 109.672 54.9741C111.823 55.7605 114.036 56.2553 116.297 56.6147C120.583 57.297 124.88 57.6199 129.214 57.3334C130.01 57.2762 130.88 57.2866 131.573 56.3439C129.391 55.8022 127.38 55.0887 125.312 54.8439ZM114.161 62.6355C112.234 61.9012 110.286 61.3647 108.219 61.0887C105.437 60.7189 102.698 60.047 99.9479 59.4897C99.3177 59.3595 98.6562 59.3178 98.2864 59.8907C97.8646 60.547 98.4479 61.0157 98.8541 61.4376C99.1666 61.7605 99.526 62.0834 99.9323 62.2709C104.641 64.4116 109.552 64.9845 114.641 64.0626C114.839 64.0262 115.01 63.8334 115.26 63.6668C115.016 62.9793 114.589 62.797 114.161 62.6355ZM97.375 67.8282C94.4687 67.3387 91.526 67.0782 88.5937 66.7293C88.2187 66.6824 87.8177 66.5939 87.5625 66.9845C87.2604 67.4428 87.4635 67.8647 87.7448 68.2293C88.1146 68.7189 88.6041 69.0626 89.1198 69.4012C92.4166 71.5835 96.0729 71.797 99.8437 71.4168C100.51 71.3491 101.161 71.1303 101.594 70.3074C100.312 69.2449 99.026 68.1095 97.375 67.8282ZM128.01 71.6147C121.536 71.1564 115.062 70.9324 108.458 71.0835C108.823 72.1147 109.573 72.1407 110.203 72.2605C112.135 72.6407 114.073 73.0001 116.016 73.3022C119.557 73.8439 123.104 74.1199 126.672 73.5314C127.568 73.3803 128.49 73.297 129.182 72.5105C128.906 71.8178 128.448 71.646 128.01 71.6147ZM147.318 58.1824C148.203 58.0678 149.427 57.8855 149.354 56.7918C149.286 55.6824 148.135 55.4116 147.094 55.3855C146.865 55.3803 146.641 55.3543 146.411 55.3595C143.615 55.4793 140.818 55.5887 138.021 55.7293C137.495 55.7553 136.932 55.7762 136.505 56.1355C136.01 56.5574 135.911 57.0209 136.547 57.4064C136.802 57.5626 137.104 57.6459 137.766 57.9168C140.687 58.172 143.99 58.5991 147.318 58.1824ZM148.896 70.9532C145.203 71.2085 141.51 71.4741 137.818 71.7397C137.12 71.7866 136.354 71.698 135.901 72.6251C136.312 72.7605 136.589 72.922 136.875 72.9324C141.255 73.1147 145.63 73.1043 149.99 72.6251C150.99 72.5157 152.12 72.3178 152.802 70.9741C151.385 70.2657 150.141 70.8647 148.896 70.9532ZM150.609 44.9272C149.896 45.1772 149.542 45.7657 149.635 46.5262C149.74 47.3334 150.37 47.7657 151.062 47.7345C153.099 47.6407 155 47.1407 156.443 45.3126C154.401 44.1251 152.51 44.2657 150.609 44.9272ZM155.099 55.2084C154.698 55.3855 154.224 55.6095 154.417 56.1928C154.547 56.5887 154.922 56.7709 155.312 56.7553C157.943 56.6355 160.5 56.2449 162.776 54.6512C160.141 54.0105 157.578 54.1199 155.099 55.2084Z" fill="#604428"/>
</g>
</g>
</g>
<mask id="mask99_47_13828" style="mask-type:luminance" maskUnits="userSpaceOnUse" x="258" y="74" width="112" height="135">
<path d="M258 74H370V208.667H258V74Z" fill="white"/>
</mask>
<g mask="url(#mask99_47_13828)">
<mask id="mask100_47_13828" style="mask-type:luminance" maskUnits="userSpaceOnUse" x="238" y="48" width="178" height="185">
<path d="M318.437 232.26L238.557 114.859L336.115 48.479L415.995 165.88L318.437 232.26Z" fill="white"/>
</mask>
<g mask="url(#mask100_47_13828)">
<mask id="mask101_47_13828" style="mask-type:luminance" maskUnits="userSpaceOnUse" x="238" y="48" width="178" height="185">
<path d="M318.437 232.26L238.557 114.859L336.115 48.479L415.995 165.88L318.437 232.26Z" fill="white"/>
</mask>
<g mask="url(#mask101_47_13828)">
<mask id="mask102_47_13828" style="mask-type:luminance" maskUnits="userSpaceOnUse" x="238" y="48" width="178" height="185">
<path d="M318.437 232.26L238.557 114.859L336.115 48.479L415.995 165.88L318.437 232.26Z" fill="white"/>
</mask>
<g mask="url(#mask102_47_13828)">
<path d="M293.229 193.443C292.807 193.917 292.833 194.609 293.307 195.031C293.609 195.313 294.078 195.401 294.464 195.255C301.688 192.729 315.719 189.083 328.661 193.266C337.656 196.182 345.88 201.156 352.646 207.755C353.094 208.193 353.802 208.198 354.245 207.75C354.547 207.427 354.63 207 354.505 206.599C352 199.193 348.432 185.792 351.146 175.917C353.286 168.115 363.427 155.573 368.521 149.646C368.901 149.162 368.859 148.443 368.38 148.063C368.094 147.807 367.667 147.724 367.307 147.859C359.781 150.438 343.609 154.87 332.318 150.271C322.219 146.167 314.042 139.516 309.708 135.557C309.234 135.135 308.536 135.198 308.109 135.677C307.859 135.958 307.76 136.365 307.891 136.719C310.083 143.557 313.495 156.729 310.766 164.932C306.536 177.667 298.099 188.115 293.229 193.443ZM313.474 110.635C313.219 110.917 313.25 111.344 313.531 111.599C313.724 111.771 313.979 111.818 314.219 111.729C318.641 110.177 327.229 107.958 335.13 110.531C340.63 112.318 345.646 115.365 349.786 119.417C350.042 119.688 350.49 119.688 350.74 119.401C350.911 119.214 350.984 118.938 350.896 118.698C349.38 114.167 347.156 105.974 348.833 99.9428C350.135 95.1719 356.354 87.5053 359.464 83.8594C359.719 83.573 359.672 83.1199 359.406 82.8907C359.214 82.724 358.974 82.698 358.719 82.7605C354.115 84.323 344.234 87.0521 337.328 84.2449C331.146 81.7292 326.146 77.6667 323.495 75.2501C323.214 74.9949 322.786 75.0261 322.531 75.3074C322.359 75.5001 322.313 75.7553 322.385 75.9688C323.719 80.1771 325.818 88.1928 324.135 93.224C321.625 100.979 316.464 107.365 313.474 110.635ZM258.182 120.958C258.016 121.146 258.026 121.438 258.219 121.609C258.328 121.719 258.5 121.75 258.688 121.698C261.635 120.662 267.307 119.193 272.573 120.912C276.214 122.094 279.563 124.109 282.318 126.792C282.505 126.958 282.771 126.969 282.958 126.802C283.094 126.672 283.125 126.5 283.047 126.333C282.042 123.318 280.583 117.891 281.677 113.859C282.542 110.693 286.682 105.599 288.734 103.198C288.901 103.005 288.865 102.734 288.677 102.563C288.563 102.453 288.391 102.422 288.25 102.479C285.188 103.516 278.63 105.328 274.036 103.448C269.932 101.802 266.63 99.0834 264.849 97.4532C264.661 97.2865 264.37 97.2969 264.203 97.4844C264.094 97.599 264.057 97.7709 264.094 97.9324C264.99 100.719 266.375 106.047 265.255 109.385C263.573 114.526 260.172 118.781 258.182 120.958Z" fill="#FADB5E"/>
</g>
</g>
</g>
</g>
</svg>
