<svg width="317" height="336" viewBox="0 0 317 336" fill="none" xmlns="http://www.w3.org/2000/svg">
<mask id="mask0_47_13825" style="mask-type:luminance" maskUnits="userSpaceOnUse" x="166" y="256" width="9" height="60">
<path d="M166.958 256.167H174.958V315.167H166.958V256.167Z" fill="white"/>
</mask>
<g mask="url(#mask0_47_13825)">
<path d="M166.974 260.479V264.708H166.984V306.708H166.974V310.937C166.974 313.271 168.87 315.167 171.203 315.167C173.536 315.167 175.432 313.271 175.432 310.937V260.479C175.432 258.146 173.547 256.245 171.213 256.245C168.88 256.245 166.974 258.146 166.974 260.479Z" fill="#FCD590"/>
</g>
<path d="M169.083 296.266V310.938C169.083 311.526 169.552 312 170.146 312C170.734 312 171.203 311.526 171.203 310.938V306.708H171.193V296.276C171.193 295.688 170.719 295.219 170.13 295.219C169.542 295.219 169.083 295.687 169.083 296.266Z" fill="#FCD590"/>
<mask id="mask1_47_13825" style="mask-type:luminance" maskUnits="userSpaceOnUse" x="125" y="253" width="9" height="60">
<path d="M125.453 253.766H133.453V312.766H125.453V253.766Z" fill="white"/>
</mask>
<g mask="url(#mask1_47_13825)">
<path d="M125.469 258.078V262.307H125.479V304.307H125.469V308.536C125.469 310.87 127.365 312.766 129.698 312.766C132.031 312.766 133.927 310.87 133.927 308.536V258.078C133.927 255.745 132.042 253.844 129.708 253.844C127.375 253.844 125.469 255.745 125.469 258.078Z" fill="#FCD590"/>
</g>
<path d="M127.578 293.865V308.537C127.578 309.125 128.047 309.599 128.641 309.599C129.229 309.599 129.698 309.125 129.698 308.537V304.307H129.688V293.88C129.688 293.287 129.214 292.818 128.625 292.818C128.036 292.818 127.578 293.287 127.578 293.865Z" fill="#FCD590"/>
<mask id="mask2_47_13825" style="mask-type:luminance" maskUnits="userSpaceOnUse" x="104" y="288" width="42" height="40">
<path d="M104.667 288H146V328H104.667V288Z" fill="white"/>
</mask>
<g mask="url(#mask2_47_13825)">
<mask id="mask3_47_13825" style="mask-type:luminance" maskUnits="userSpaceOnUse" x="103" y="287" width="45" height="43">
<path d="M141.917 329.365L103.464 292.886L108.969 287.083L147.422 323.563L141.917 329.365Z" fill="white"/>
</mask>
<g mask="url(#mask3_47_13825)">
<mask id="mask4_47_13825" style="mask-type:luminance" maskUnits="userSpaceOnUse" x="103" y="287" width="45" height="43">
<path d="M141.917 329.365L103.464 292.886L108.969 287.083L147.422 323.563L141.917 329.365Z" fill="white"/>
</mask>
<g mask="url(#mask4_47_13825)">
<path d="M106.318 295.578L109.073 298.188L109.078 298.182L136.422 324.12L136.417 324.13L139.172 326.74C140.688 328.182 143.094 328.12 144.537 326.599C145.979 325.083 145.912 322.677 144.396 321.234L111.542 290.068C110.026 288.625 107.625 288.682 106.182 290.203C104.745 291.719 104.797 294.135 106.318 295.578Z" fill="#FCD590"/>
</g>
</g>
</g>
<mask id="mask5_47_13825" style="mask-type:luminance" maskUnits="userSpaceOnUse" x="130" y="314" width="14" height="13">
<path d="M130 314.667H143.333V326.667H130V314.667Z" fill="white"/>
</mask>
<g mask="url(#mask5_47_13825)">
<mask id="mask6_47_13825" style="mask-type:luminance" maskUnits="userSpaceOnUse" x="103" y="287" width="45" height="43">
<path d="M141.917 329.364L103.464 292.885L108.969 287.083L147.422 323.562L141.917 329.364Z" fill="white"/>
</mask>
<g mask="url(#mask6_47_13825)">
<mask id="mask7_47_13825" style="mask-type:luminance" maskUnits="userSpaceOnUse" x="103" y="287" width="45" height="43">
<path d="M141.917 329.364L103.464 292.885L108.969 287.083L147.422 323.562L141.917 329.364Z" fill="white"/>
</mask>
<g mask="url(#mask7_47_13825)">
<path d="M130.922 316.307L140.474 325.37C140.854 325.734 141.453 325.719 141.818 325.333C142.182 324.948 142.167 324.354 141.781 323.989L139.026 321.375L139.021 321.38L132.229 314.943C131.849 314.578 131.25 314.594 130.886 314.979C130.521 315.359 130.547 315.953 130.922 316.307Z" fill="#FCD590"/>
</g>
</g>
</g>
<mask id="mask8_47_13825" style="mask-type:luminance" maskUnits="userSpaceOnUse" x="99" y="302" width="53" height="20">
<path d="M99.3333 302.667H151.333V321.333H99.3333V302.667Z" fill="white"/>
</mask>
<g mask="url(#mask8_47_13825)">
<mask id="mask9_47_13825" style="mask-type:luminance" maskUnits="userSpaceOnUse" x="98" y="301" width="54" height="20">
<path d="M151.989 309.526L100.234 320.953L98.5103 313.146L150.265 301.713L151.989 309.526Z" fill="white"/>
</mask>
<g mask="url(#mask9_47_13825)">
<mask id="mask10_47_13825" style="mask-type:luminance" maskUnits="userSpaceOnUse" x="98" y="301" width="54" height="20">
<path d="M151.989 309.526L100.234 320.953L98.5103 313.146L150.265 301.713L151.989 309.526Z" fill="white"/>
</mask>
<g mask="url(#mask10_47_13825)">
<path d="M104.062 320.099L107.771 319.276L107.766 319.265L144.568 311.14L144.573 311.151L148.281 310.328C150.323 309.88 151.62 307.849 151.167 305.802C150.713 303.76 148.687 302.463 146.641 302.916L102.427 312.682C100.38 313.135 99.0832 315.151 99.5363 317.198C99.9843 319.245 102.016 320.547 104.062 320.099Z" fill="#FCD590"/>
</g>
</g>
</g>
<mask id="mask11_47_13825" style="mask-type:luminance" maskUnits="userSpaceOnUse" x="132" y="305" width="17" height="7">
<path d="M132.667 305.333H148.667V312H132.667V305.333Z" fill="white"/>
</mask>
<g mask="url(#mask11_47_13825)">
<mask id="mask12_47_13825" style="mask-type:luminance" maskUnits="userSpaceOnUse" x="98" y="301" width="54" height="20">
<path d="M151.99 309.526L100.234 320.953L98.5105 313.146L150.266 301.714L151.99 309.526Z" fill="white"/>
</mask>
<g mask="url(#mask12_47_13825)">
<mask id="mask13_47_13825" style="mask-type:luminance" maskUnits="userSpaceOnUse" x="98" y="301" width="54" height="20">
<path d="M151.99 309.526L100.234 320.953L98.5105 313.146L150.266 301.714L151.99 309.526Z" fill="white"/>
</mask>
<g mask="url(#mask13_47_13825)">
<path d="M135.016 311.323L147.87 308.485C148.386 308.37 148.708 307.865 148.594 307.349C148.479 306.833 147.974 306.511 147.458 306.625L143.755 307.443V307.453L134.615 309.469C134.099 309.583 133.776 310.089 133.891 310.604C134.005 311.12 134.511 311.432 135.016 311.323Z" fill="#FCD590"/>
</g>
</g>
</g>
<mask id="mask14_47_13825" style="mask-type:luminance" maskUnits="userSpaceOnUse" x="152" y="296" width="44" height="40">
<path d="M152.667 296H195.333V336H152.667V296Z" fill="white"/>
</mask>
<g mask="url(#mask14_47_13825)">
<mask id="mask15_47_13825" style="mask-type:luminance" maskUnits="userSpaceOnUse" x="151" y="294" width="45" height="43">
<path d="M157.24 294.662L195.688 331.141L190.182 336.943L151.734 300.469L157.24 294.662Z" fill="white"/>
</mask>
<g mask="url(#mask15_47_13825)">
<mask id="mask16_47_13825" style="mask-type:luminance" maskUnits="userSpaceOnUse" x="151" y="294" width="45" height="43">
<path d="M195.599 331.052L157.146 294.578L151.641 300.38L190.094 336.859L195.599 331.052Z" fill="white"/>
</mask>
<g mask="url(#mask16_47_13825)">
<path d="M159.984 297.286L162.734 299.901L162.729 299.906L190.073 325.844L190.078 325.839L192.833 328.453C194.354 329.891 194.417 332.302 192.974 333.818C191.536 335.339 189.125 335.401 187.609 333.958L154.755 302.797C153.239 301.354 153.167 298.953 154.609 297.437C156.047 295.917 158.463 295.844 159.984 297.286Z" fill="#FCD590"/>
</g>
</g>
</g>
<mask id="mask17_47_13825" style="mask-type:luminance" maskUnits="userSpaceOnUse" x="179" y="320" width="14" height="12">
<path d="M179.333 320H192.667V332H179.333V320Z" fill="white"/>
</mask>
<g mask="url(#mask17_47_13825)">
<mask id="mask18_47_13825" style="mask-type:luminance" maskUnits="userSpaceOnUse" x="151" y="294" width="45" height="43">
<path d="M157.24 294.662L195.688 331.141L190.182 336.943L151.734 300.469L157.24 294.662Z" fill="white"/>
</mask>
<g mask="url(#mask18_47_13825)">
<mask id="mask19_47_13825" style="mask-type:luminance" maskUnits="userSpaceOnUse" x="151" y="294" width="45" height="43">
<path d="M195.599 331.052L157.146 294.578L151.641 300.38L190.094 336.859L195.599 331.052Z" fill="white"/>
</mask>
<g mask="url(#mask19_47_13825)">
<path d="M181.979 320.766L191.531 329.823C191.917 330.188 191.932 330.787 191.568 331.172C191.203 331.552 190.604 331.568 190.219 331.209L187.469 328.594L187.474 328.584L180.682 322.146C180.302 321.781 180.287 321.183 180.651 320.797C181.011 320.417 181.604 320.406 181.979 320.766Z" fill="#FCD590"/>
</g>
</g>
</g>
<mask id="mask20_47_13825" style="mask-type:luminance" maskUnits="userSpaceOnUse" x="147" y="302" width="54" height="20">
<path d="M147.333 302.667H200.667V321.333H147.333V302.667Z" fill="white"/>
</mask>
<g mask="url(#mask20_47_13825)">
<mask id="mask21_47_13825" style="mask-type:luminance" maskUnits="userSpaceOnUse" x="147" y="303" width="54" height="20">
<path d="M147.161 314.505L198.917 303.073L200.641 310.885L148.891 322.318L147.161 314.505Z" fill="white"/>
</mask>
<g mask="url(#mask21_47_13825)">
<mask id="mask22_47_13825" style="mask-type:luminance" maskUnits="userSpaceOnUse" x="147" y="303" width="54" height="20">
<path d="M198.792 303.099L147.042 314.531L148.765 322.343L200.521 310.911L198.792 303.099Z" fill="white"/>
</mask>
<g mask="url(#mask22_47_13825)">
<path d="M150.875 313.698L154.578 312.88L154.583 312.89L191.385 304.76L191.38 304.75L195.088 303.932C197.135 303.479 199.161 304.776 199.614 306.818C200.068 308.864 198.771 310.896 196.729 311.344L152.51 321.114C150.469 321.562 148.437 320.281 147.989 318.234C147.536 316.187 148.828 314.151 150.875 313.698Z" fill="#FCD590"/>
</g>
</g>
</g>
<mask id="mask23_47_13825" style="mask-type:luminance" maskUnits="userSpaceOnUse" x="180" y="305" width="17" height="6">
<path d="M180.667 305.333H196.667V310.667H180.667V305.333Z" fill="white"/>
</mask>
<g mask="url(#mask23_47_13825)">
<mask id="mask24_47_13825" style="mask-type:luminance" maskUnits="userSpaceOnUse" x="147" y="303" width="54" height="20">
<path d="M147.162 314.506L198.917 303.073L200.641 310.886L148.891 322.318L147.162 314.506Z" fill="white"/>
</mask>
<g mask="url(#mask24_47_13825)">
<mask id="mask25_47_13825" style="mask-type:luminance" maskUnits="userSpaceOnUse" x="147" y="303" width="54" height="20">
<path d="M198.792 303.099L147.042 314.531L148.766 322.344L200.521 310.912L198.792 303.099Z" fill="white"/>
</mask>
<g mask="url(#mask25_47_13825)">
<path d="M182.641 308.62L195.5 305.781C196.016 305.667 196.521 305.99 196.63 306.505C196.745 307.021 196.427 307.526 195.906 307.641L192.203 308.458L192.198 308.448L183.063 310.464C182.542 310.578 182.042 310.261 181.927 309.74C181.813 309.224 182.136 308.729 182.641 308.62Z" fill="#FCD590"/>
</g>
</g>
</g>
<mask id="mask26_47_13825" style="mask-type:luminance" maskUnits="userSpaceOnUse" x="62" y="114" width="178" height="177">
<path d="M62.0105 114.01H239.01V290.667H62.0105V114.01Z" fill="white"/>
</mask>
<g mask="url(#mask26_47_13825)">
<path d="M238.651 202.333C238.651 203.776 238.615 205.224 238.542 206.667C238.474 208.109 238.365 209.552 238.224 210.989C238.083 212.427 237.906 213.864 237.693 215.292C237.479 216.724 237.234 218.146 236.953 219.562C236.672 220.979 236.354 222.39 236 223.792C235.651 225.193 235.266 226.588 234.844 227.969C234.427 229.354 233.974 230.724 233.484 232.088C233 233.448 232.479 234.797 231.927 236.13C231.375 237.469 230.787 238.786 230.167 240.094C229.552 241.401 228.901 242.693 228.219 243.969C227.537 245.239 226.828 246.5 226.083 247.739C225.339 248.979 224.568 250.198 223.766 251.401C222.964 252.604 222.13 253.786 221.266 254.943C220.406 256.104 219.516 257.245 218.599 258.364C217.682 259.479 216.74 260.573 215.771 261.646C214.797 262.713 213.802 263.76 212.781 264.786C211.76 265.807 210.714 266.802 209.641 267.776C208.568 268.745 207.474 269.687 206.359 270.604C205.24 271.521 204.104 272.411 202.943 273.271C201.781 274.135 200.599 274.963 199.396 275.771C198.193 276.573 196.974 277.344 195.734 278.088C194.495 278.828 193.24 279.542 191.964 280.224C190.688 280.906 189.396 281.557 188.089 282.172C186.781 282.792 185.464 283.375 184.125 283.932C182.792 284.484 181.443 285.005 180.083 285.489C178.724 285.979 177.349 286.432 175.969 286.849C174.583 287.271 173.193 287.656 171.787 288.005C170.385 288.359 168.979 288.672 167.557 288.958C166.141 289.239 164.719 289.484 163.287 289.698C161.859 289.911 160.422 290.088 158.984 290.229C157.547 290.37 156.104 290.474 154.662 290.547C153.219 290.62 151.776 290.651 150.328 290.651C148.885 290.651 147.438 290.62 145.995 290.547C144.552 290.474 143.109 290.37 141.672 290.229C140.234 290.088 138.797 289.911 137.37 289.698C135.938 289.484 134.516 289.239 133.099 288.958C131.682 288.672 130.271 288.359 128.87 288.005C127.469 287.656 126.073 287.271 124.693 286.849C123.307 286.432 121.938 285.979 120.573 285.489C119.214 285.005 117.865 284.484 116.531 283.932C115.193 283.375 113.875 282.792 112.568 282.172C111.26 281.557 109.969 280.906 108.693 280.224C107.422 279.542 106.162 278.828 104.922 278.088C103.682 277.344 102.464 276.573 101.26 275.771C100.057 274.963 98.8751 274.135 97.7188 273.271C96.5574 272.411 95.4167 271.521 94.297 270.604C93.1824 269.687 92.0886 268.745 91.0157 267.776C89.9428 266.802 88.9011 265.807 87.8751 264.786C86.8542 263.76 85.8595 262.713 84.8855 261.646C83.9167 260.573 82.974 259.479 82.0574 258.364C81.1407 257.245 80.2501 256.104 79.3907 254.943C78.5261 253.786 77.698 252.604 76.8907 251.401C76.0886 250.198 75.3178 248.979 74.573 247.739C73.8282 246.5 73.1199 245.239 72.4376 243.969C71.7553 242.693 71.1042 241.401 70.4897 240.094C69.8699 238.786 69.2865 237.469 68.7292 236.13C68.1772 234.797 67.6563 233.448 67.172 232.088C66.6824 230.724 66.2292 229.354 65.8126 227.969C65.3907 226.588 65.0053 225.193 64.6563 223.792C64.3022 222.39 63.9897 220.979 63.7032 219.562C63.422 218.146 63.1772 216.724 62.9636 215.292C62.7501 213.864 62.573 212.427 62.4324 210.989C62.2917 209.552 62.1876 208.109 62.1147 206.667C62.0417 205.224 62.0105 203.776 62.0105 202.333C62.0105 200.885 62.0417 199.443 62.1147 198C62.1876 196.557 62.2917 195.114 62.4324 193.677C62.573 192.239 62.7501 190.802 62.9636 189.375C63.1772 187.943 63.422 186.521 63.7032 185.104C63.9897 183.682 64.3022 182.276 64.6563 180.875C65.0053 179.469 65.3907 178.078 65.8126 176.693C66.2292 175.312 66.6824 173.937 67.172 172.578C67.6563 171.219 68.1772 169.87 68.7292 168.536C69.2865 167.198 69.8699 165.875 70.4897 164.573C71.1042 163.265 71.7553 161.974 72.4376 160.698C73.1199 159.422 73.8282 158.167 74.573 156.927C75.3178 155.687 76.0886 154.469 76.8907 153.265C77.698 152.062 78.5261 150.88 79.3907 149.719C80.2501 148.557 81.1407 147.422 82.0574 146.302C82.974 145.187 83.9167 144.094 84.8855 143.021C85.8595 141.948 86.8542 140.901 87.8751 139.88C88.9011 138.859 89.9428 137.864 91.0157 136.89C92.0886 135.922 93.1824 134.979 94.297 134.062C95.4167 133.14 96.5574 132.255 97.7188 131.39C98.8751 130.531 100.057 129.698 101.26 128.896C102.464 128.094 103.682 127.323 104.922 126.578C106.162 125.833 107.422 125.125 108.693 124.443C109.969 123.76 111.26 123.109 112.568 122.489C113.875 121.875 115.193 121.286 116.531 120.734C117.865 120.182 119.214 119.661 120.573 119.177C121.938 118.687 123.307 118.234 124.693 117.818C126.073 117.396 127.469 117.01 128.87 116.661C130.271 116.307 131.682 115.989 133.099 115.708C134.516 115.427 135.938 115.182 137.37 114.969C138.797 114.755 140.234 114.578 141.672 114.437C143.109 114.297 144.552 114.187 145.995 114.12C147.438 114.047 148.885 114.01 150.328 114.01C151.776 114.01 153.219 114.047 154.662 114.12C156.104 114.187 157.547 114.297 158.984 114.437C160.422 114.578 161.859 114.755 163.287 114.969C164.719 115.182 166.141 115.427 167.557 115.708C168.979 115.989 170.385 116.307 171.787 116.661C173.193 117.01 174.583 117.396 175.969 117.818C177.349 118.234 178.724 118.687 180.083 119.177C181.443 119.661 182.792 120.182 184.125 120.734C185.464 121.286 186.781 121.875 188.089 122.489C189.396 123.109 190.688 123.76 191.964 124.443C193.24 125.125 194.495 125.833 195.734 126.578C196.974 127.323 198.193 128.094 199.396 128.896C200.599 129.698 201.781 130.531 202.943 131.39C204.104 132.255 205.24 133.14 206.359 134.062C207.474 134.979 208.568 135.922 209.641 136.89C210.714 137.864 211.76 138.859 212.781 139.88C213.802 140.901 214.797 141.948 215.771 143.021C216.74 144.094 217.682 145.187 218.599 146.302C219.516 147.422 220.406 148.557 221.266 149.719C222.13 150.88 222.964 152.062 223.766 153.265C224.568 154.469 225.339 155.687 226.083 156.927C226.828 158.167 227.537 159.422 228.219 160.698C228.901 161.974 229.552 163.265 230.167 164.573C230.787 165.875 231.375 167.198 231.927 168.536C232.479 169.87 233 171.219 233.484 172.578C233.974 173.937 234.427 175.312 234.844 176.693C235.266 178.078 235.651 179.469 236 180.875C236.354 182.276 236.672 183.682 236.953 185.104C237.234 186.521 237.479 187.943 237.693 189.375C237.906 190.802 238.083 192.239 238.224 193.677C238.365 195.114 238.474 196.557 238.542 198C238.615 199.443 238.651 200.885 238.651 202.333Z" fill="#442F19"/>
</g>
<mask id="mask27_47_13825" style="mask-type:luminance" maskUnits="userSpaceOnUse" x="117" y="231" width="84" height="32">
<path d="M117.01 231.099H200.01V262.099H117.01V231.099Z" fill="white"/>
</mask>
<g mask="url(#mask27_47_13825)">
<path d="M190.729 248.005C179.427 244.948 170.964 247.531 165.406 250.807C173 243.078 184.589 240.542 188.302 239.912L190.729 248.005ZM177.365 231.146L180.552 238.761C174.542 240.63 166.688 244.25 161.37 250.938C164.734 239.24 173.932 233.078 177.365 231.146ZM140.037 231.146C143.464 233.078 152.667 239.219 156.031 250.958C150.714 244.276 142.859 240.651 136.844 238.781L140.037 231.146ZM129.099 239.912C132.807 240.542 144.396 243.078 151.995 250.807C146.438 247.531 137.974 244.948 126.667 248.005L129.099 239.912ZM163.583 262.136H153.818C151.667 259.36 142.38 250.438 117.01 261.005L119.203 253.912C144.505 241.625 157.005 258.49 157.526 259.229C157.552 259.25 157.573 259.25 157.594 259.271C157.615 259.313 157.635 259.36 157.682 259.38C157.703 259.401 157.703 259.401 157.703 259.422C157.745 259.464 157.787 259.49 157.854 259.511C157.896 259.531 157.943 259.573 157.984 259.594C158.026 259.62 158.073 259.662 158.135 259.682C158.156 259.682 158.177 259.703 158.177 259.703C158.266 259.75 158.375 259.75 158.484 259.771C158.547 259.771 158.594 259.813 158.656 259.813C158.677 259.813 158.698 259.813 158.724 259.813C158.745 259.813 158.766 259.813 158.787 259.813C158.854 259.813 158.896 259.792 158.958 259.771C159.068 259.75 159.156 259.75 159.266 259.703C159.287 259.703 159.307 259.682 159.307 259.682C159.375 259.662 159.417 259.62 159.458 259.594C159.505 259.573 159.547 259.552 159.589 259.511C159.635 259.464 159.698 259.443 159.74 259.422C159.766 259.401 159.766 259.401 159.766 259.38C159.807 259.333 159.828 259.313 159.849 259.271C159.87 259.25 159.896 259.25 159.917 259.229C160.438 258.49 172.938 241.625 198.24 253.912L200.432 261.005C175.042 250.438 165.729 259.38 163.583 262.136Z" fill="#EDE0D2"/>
</g>
<mask id="mask28_47_13825" style="mask-type:luminance" maskUnits="userSpaceOnUse" x="62" y="54" width="178" height="178">
<path d="M62.0105 54.4531H239.01V231.453H62.0105V54.4531Z" fill="white"/>
</mask>
<g mask="url(#mask28_47_13825)">
<path d="M238.651 142.771C238.651 144.219 238.615 145.661 238.542 147.104C238.474 148.552 238.365 149.99 238.224 151.427C238.083 152.87 237.906 154.302 237.693 155.729C237.479 157.161 237.234 158.583 236.953 160.005C236.672 161.422 236.354 162.828 236 164.234C235.651 165.635 235.266 167.026 234.844 168.411C234.427 169.792 233.974 171.167 233.484 172.526C233 173.885 232.479 175.234 231.927 176.573C231.375 177.906 230.787 179.229 230.167 180.536C229.552 181.839 228.901 183.13 228.219 184.406C227.537 185.682 226.828 186.938 226.083 188.177C225.339 189.417 224.568 190.641 223.766 191.839C222.964 193.042 222.13 194.224 221.266 195.385C220.406 196.547 219.516 197.682 218.599 198.802C217.682 199.922 216.74 201.016 215.771 202.083C214.797 203.156 213.802 204.203 212.781 205.224C211.76 206.245 210.714 207.245 209.641 208.214C208.568 209.182 207.474 210.13 206.359 211.047C205.24 211.964 204.104 212.849 202.943 213.714C201.781 214.573 200.599 215.406 199.396 216.208C198.193 217.01 196.974 217.786 195.734 218.526C194.495 219.271 193.24 219.984 191.964 220.661C190.688 221.344 189.396 221.995 188.089 222.615C186.781 223.229 185.464 223.818 184.125 224.37C182.792 224.922 181.443 225.443 180.083 225.932C178.724 226.417 177.349 226.87 175.969 227.292C174.583 227.708 173.193 228.094 171.787 228.448C170.385 228.797 168.979 229.115 167.557 229.396C166.141 229.677 164.719 229.927 163.287 230.135C161.859 230.349 160.422 230.526 158.984 230.667C157.547 230.807 156.104 230.917 154.662 230.984C153.219 231.057 151.776 231.094 150.328 231.094C148.885 231.094 147.438 231.057 145.995 230.984C144.552 230.917 143.109 230.807 141.672 230.667C140.234 230.526 138.797 230.349 137.37 230.135C135.938 229.927 134.516 229.677 133.099 229.396C131.682 229.115 130.271 228.797 128.87 228.448C127.469 228.094 126.073 227.708 124.693 227.292C123.307 226.87 121.938 226.417 120.573 225.932C119.214 225.443 117.865 224.922 116.531 224.37C115.193 223.818 113.875 223.229 112.568 222.615C111.26 221.995 109.969 221.344 108.693 220.661C107.422 219.984 106.162 219.271 104.922 218.526C103.682 217.786 102.464 217.01 101.26 216.208C100.057 215.406 98.8751 214.573 97.7188 213.714C96.5574 212.849 95.4167 211.964 94.297 211.047C93.1824 210.13 92.0886 209.182 91.0157 208.214C89.9428 207.245 88.9011 206.245 87.8751 205.224C86.8542 204.203 85.8595 203.156 84.8855 202.083C83.9167 201.016 82.974 199.922 82.0574 198.802C81.1407 197.682 80.2501 196.547 79.3907 195.385C78.5261 194.224 77.698 193.042 76.8907 191.839C76.0886 190.641 75.3178 189.417 74.573 188.177C73.8282 186.938 73.1199 185.682 72.4376 184.406C71.7553 183.13 71.1042 181.839 70.4897 180.536C69.8699 179.229 69.2865 177.906 68.7292 176.573C68.1772 175.234 67.6563 173.885 67.172 172.526C66.6824 171.167 66.2292 169.792 65.8126 168.411C65.3907 167.026 65.0053 165.635 64.6563 164.234C64.3022 162.828 63.9897 161.422 63.7032 160.005C63.422 158.583 63.1772 157.161 62.9636 155.729C62.7501 154.302 62.573 152.87 62.4324 151.427C62.2917 149.99 62.1876 148.552 62.1147 147.104C62.0417 145.661 62.0105 144.219 62.0105 142.771C62.0105 141.328 62.0417 139.88 62.1147 138.438C62.1876 136.995 62.2917 135.552 62.4324 134.115C62.573 132.677 62.7501 131.245 62.9636 129.812C63.1772 128.385 63.422 126.958 63.7032 125.542C63.9897 124.125 64.3022 122.714 64.6563 121.312C65.0053 119.911 65.3907 118.516 65.8126 117.135C66.2292 115.75 66.6824 114.38 67.172 113.016C67.6563 111.656 68.1772 110.307 68.7292 108.974C69.2865 107.641 69.8699 106.318 70.4897 105.01C71.1042 103.703 71.7553 102.411 72.4376 101.141C73.1199 99.8646 73.8282 98.6042 74.573 97.3646C75.3178 96.125 76.0886 94.9062 76.8907 93.7031C77.698 92.5 78.5261 91.3229 79.3907 90.1615C80.2501 89 81.1407 87.8594 82.0574 86.7448C82.974 85.625 83.9167 84.5313 84.8855 83.4583C85.8595 82.3906 86.8542 81.3438 87.8751 80.3229C88.9011 79.2969 89.9428 78.3021 91.0157 77.3333C92.0886 76.3594 93.1824 75.4167 94.297 74.5C95.4167 73.5833 96.5574 72.6927 97.7188 71.8333C98.8751 70.974 100.057 70.1406 101.26 69.3385C102.464 68.5313 103.682 67.7604 104.922 67.0156C106.162 66.276 107.422 65.5625 108.693 64.8802C109.969 64.1979 111.26 63.5521 112.568 62.9323C113.875 62.3125 115.193 61.7292 116.531 61.1771C117.865 60.6198 119.214 60.1042 120.573 59.6146C121.938 59.1302 123.307 58.6771 124.693 58.2552C126.073 57.8333 127.469 57.4479 128.87 57.099C130.271 56.75 131.682 56.4323 133.099 56.151C134.516 55.8646 135.938 55.6198 137.37 55.4062C138.797 55.1979 140.234 55.0208 141.672 54.875C143.109 54.7344 144.552 54.6302 145.995 54.5573C147.438 54.4896 148.885 54.4531 150.328 54.4531C151.776 54.4531 153.219 54.4896 154.662 54.5573C156.104 54.6302 157.547 54.7344 158.984 54.875C160.422 55.0208 161.859 55.1979 163.287 55.4062C164.719 55.6198 166.141 55.8646 167.557 56.151C168.979 56.4323 170.385 56.75 171.787 57.099C173.193 57.4479 174.583 57.8333 175.969 58.2552C177.349 58.6771 178.724 59.1302 180.083 59.6146C181.443 60.1042 182.792 60.6198 184.125 61.1771C185.464 61.7292 186.781 62.3125 188.089 62.9323C189.396 63.5521 190.688 64.1979 191.964 64.8802C193.24 65.5625 194.495 66.276 195.734 67.0156C196.974 67.7604 198.193 68.5313 199.396 69.3385C200.599 70.1406 201.781 70.974 202.943 71.8333C204.104 72.6927 205.24 73.5833 206.359 74.5C207.474 75.4167 208.568 76.3594 209.641 77.3333C210.714 78.3021 211.76 79.2969 212.781 80.3229C213.802 81.3438 214.797 82.3906 215.771 83.4583C216.74 84.5313 217.682 85.625 218.599 86.7448C219.516 87.8594 220.406 89 221.266 90.1615C222.13 91.3229 222.964 92.5 223.766 93.7031C224.568 94.9062 225.339 96.125 226.083 97.3646C226.828 98.6042 227.537 99.8646 228.219 101.141C228.901 102.411 229.552 103.703 230.167 105.01C230.787 106.318 231.375 107.641 231.927 108.974C232.479 110.307 233 111.656 233.484 113.016C233.974 114.38 234.427 115.75 234.844 117.135C235.266 118.516 235.651 119.911 236 121.312C236.354 122.714 236.672 124.125 236.953 125.542C237.234 126.958 237.479 128.385 237.693 129.812C237.906 131.245 238.083 132.677 238.224 134.115C238.365 135.552 238.474 136.995 238.542 138.438C238.615 139.88 238.651 141.328 238.651 142.771Z" fill="#EDE0D2"/>
</g>
<mask id="mask29_47_13825" style="mask-type:luminance" maskUnits="userSpaceOnUse" x="161" y="98" width="64" height="64">
<path d="M161.641 98.9219H224.339V161.615H161.641V98.9219Z" fill="white"/>
</mask>
<g mask="url(#mask29_47_13825)">
<mask id="mask30_47_13825" style="mask-type:luminance" maskUnits="userSpaceOnUse" x="161" y="98" width="64" height="64">
<path d="M192.99 98.9219C175.677 98.9219 161.641 112.953 161.641 130.271C161.641 147.583 175.677 161.615 192.99 161.615C210.302 161.615 224.339 147.583 224.339 130.271C224.339 112.953 210.302 98.9219 192.99 98.9219Z" fill="white"/>
</mask>
<g mask="url(#mask30_47_13825)">
<path d="M161.641 98.9219H224.339V161.615H161.641V98.9219Z" fill="white"/>
</g>
</g>
<mask id="mask31_47_13825" style="mask-type:luminance" maskUnits="userSpaceOnUse" x="184" y="205" width="115" height="87">
<path d="M184.667 205.333H298V292H184.667V205.333Z" fill="white"/>
</mask>
<g mask="url(#mask31_47_13825)">
<mask id="mask32_47_13825" style="mask-type:luminance" maskUnits="userSpaceOnUse" x="177" y="197" width="128" height="103">
<path d="M177.099 264.547L282.912 197.995L304.74 232.703L198.927 299.256L177.099 264.547Z" fill="white"/>
</mask>
<g mask="url(#mask32_47_13825)">
<mask id="mask33_47_13825" style="mask-type:luminance" maskUnits="userSpaceOnUse" x="177" y="197" width="128" height="103">
<path d="M282.953 197.974L177.141 264.521L198.969 299.229L304.781 232.677L282.953 197.974Z" fill="white"/>
</mask>
<g mask="url(#mask33_47_13825)">
<path d="M216.266 288.229L287.339 243.532C296.844 237.552 299.709 224.99 293.73 215.479C287.745 205.969 275.183 203.104 265.672 209.089L194.599 253.787C185.094 259.766 182.23 272.328 188.214 281.839C194.193 291.349 206.756 294.214 216.266 288.229Z" fill="#604428"/>
<path d="M216.37 288.401L287.443 243.698C297.037 237.667 299.927 224.964 293.896 215.37C287.86 205.776 275.162 202.886 265.568 208.917L194.495 253.62C184.901 259.651 182.011 272.355 188.042 281.948C194.078 291.542 206.776 294.433 216.37 288.401ZM265.782 209.256C275.188 203.339 287.641 206.172 293.558 215.584C299.474 224.995 296.641 237.443 287.23 243.365L216.157 288.063C206.75 293.98 194.297 291.146 188.381 281.735C182.464 272.328 185.297 259.875 194.709 253.953L265.782 209.256Z" fill="#604428"/>
</g>
</g>
</g>
<mask id="mask34_47_13825" style="mask-type:luminance" maskUnits="userSpaceOnUse" x="168" y="160" width="136" height="103">
<path d="M168.667 160H303.333V262.667H168.667V160Z" fill="white"/>
</mask>
<g mask="url(#mask34_47_13825)">
<mask id="mask35_47_13825" style="mask-type:luminance" maskUnits="userSpaceOnUse" x="159" y="150" width="154" height="122">
<path d="M159.927 230.073L286.052 150.75L312.141 192.229L186.011 271.552L159.927 230.073Z" fill="white"/>
</mask>
<g mask="url(#mask35_47_13825)">
<mask id="mask36_47_13825" style="mask-type:luminance" maskUnits="userSpaceOnUse" x="159" y="150" width="153" height="122">
<path d="M285.724 150.958L159.594 230.281L185.683 271.761L311.813 192.438L285.724 150.958Z" fill="white"/>
</mask>
<g mask="url(#mask36_47_13825)">
<path d="M206.469 258.219L290.933 205.094C302.235 197.984 305.636 183.057 298.526 171.755C291.417 160.453 276.49 157.052 265.188 164.161L180.724 217.281C169.422 224.39 166.021 239.323 173.125 250.625C180.235 261.927 195.167 265.328 206.469 258.219Z" fill="#604428"/>
<path d="M206.594 258.417L291.057 205.297C302.458 198.125 305.896 183.031 298.724 171.63C291.552 160.229 276.464 156.792 265.063 163.964L180.594 217.083C169.193 224.255 165.755 239.349 172.927 250.75C180.099 262.151 195.193 265.589 206.594 258.417ZM265.313 164.359C276.495 157.328 291.292 160.698 298.328 171.88C305.36 183.063 301.99 197.865 290.807 204.896L206.344 258.016C195.162 265.052 180.36 261.677 173.328 250.495C166.292 239.318 169.667 224.516 180.849 217.484L265.313 164.359Z" fill="#604428"/>
</g>
</g>
</g>
<mask id="mask37_47_13825" style="mask-type:luminance" maskUnits="userSpaceOnUse" x="178" y="117" width="134" height="103">
<path d="M178 117.333H311.333V220H178V117.333Z" fill="white"/>
</mask>
<g mask="url(#mask37_47_13825)">
<mask id="mask38_47_13825" style="mask-type:luminance" maskUnits="userSpaceOnUse" x="168" y="108" width="153" height="121">
<path d="M168.734 187.474L294.865 108.146L320.953 149.625L194.823 228.953L168.734 187.474Z" fill="white"/>
</mask>
<g mask="url(#mask38_47_13825)">
<mask id="mask39_47_13825" style="mask-type:luminance" maskUnits="userSpaceOnUse" x="168" y="108" width="153" height="122">
<path d="M294.531 108.354L168.406 187.683L194.495 229.162L320.62 149.834L294.531 108.354Z" fill="white"/>
</mask>
<g mask="url(#mask39_47_13825)">
<path d="M215.276 215.615L299.74 162.495C311.042 155.386 314.443 140.453 307.333 129.151C300.229 117.855 285.297 114.453 273.995 121.558L189.531 174.683C178.229 181.792 174.828 196.719 181.937 208.021C189.047 219.323 203.974 222.724 215.276 215.615Z" fill="#604428"/>
</g>
</g>
</g>
<mask id="mask40_47_13825" style="mask-type:luminance" maskUnits="userSpaceOnUse" x="176" y="117" width="136" height="103">
<path d="M176.667 117.333H311.333V220H176.667V117.333Z" fill="white"/>
</mask>
<g mask="url(#mask40_47_13825)">
<mask id="mask41_47_13825" style="mask-type:luminance" maskUnits="userSpaceOnUse" x="168" y="108" width="153" height="121">
<path d="M168.734 187.474L294.865 108.146L320.953 149.625L194.823 228.953L168.734 187.474Z" fill="white"/>
</mask>
<g mask="url(#mask41_47_13825)">
<mask id="mask42_47_13825" style="mask-type:luminance" maskUnits="userSpaceOnUse" x="168" y="108" width="153" height="122">
<path d="M294.531 108.354L168.406 187.683L194.495 229.162L320.62 149.834L294.531 108.354Z" fill="white"/>
</mask>
<g mask="url(#mask42_47_13825)">
<path d="M215.401 215.818L299.864 162.693C311.266 155.521 314.708 140.427 307.536 129.026C300.364 117.625 285.271 114.188 273.87 121.36L189.406 174.479C178.005 181.651 174.568 196.745 181.739 208.146C188.906 219.547 204 222.985 215.401 215.818ZM274.12 121.761C285.302 114.724 300.104 118.099 307.135 129.281C314.167 140.464 310.797 155.261 299.614 162.292L215.151 215.417C203.969 222.448 189.172 219.078 182.135 207.896C175.104 196.714 178.474 181.912 189.656 174.88L274.12 121.761Z" fill="#604428"/>
</g>
</g>
</g>
<mask id="mask43_47_13825" style="mask-type:luminance" maskUnits="userSpaceOnUse" x="76" y="98" width="64" height="64">
<path d="M76.8801 98.9219H139.578V161.615H76.8801V98.9219Z" fill="white"/>
</mask>
<g mask="url(#mask43_47_13825)">
<mask id="mask44_47_13825" style="mask-type:luminance" maskUnits="userSpaceOnUse" x="76" y="98" width="64" height="64">
<path d="M108.229 98.9219C90.9166 98.9219 76.8801 112.953 76.8801 130.271C76.8801 147.583 90.9166 161.615 108.229 161.615C125.542 161.615 139.578 147.583 139.578 130.271C139.578 112.953 125.542 98.9219 108.229 98.9219Z" fill="white"/>
</mask>
<g mask="url(#mask44_47_13825)">
<path d="M76.8801 98.9219H139.578V161.615H76.8801V98.9219Z" fill="white"/>
</g>
</g>
<mask id="mask45_47_13825" style="mask-type:luminance" maskUnits="userSpaceOnUse" x="36" y="228" width="125" height="64">
<path d="M36.6667 228H160.667V292H36.6667V228Z" fill="white"/>
</mask>
<g mask="url(#mask45_47_13825)">
<mask id="mask46_47_13825" style="mask-type:luminance" maskUnits="userSpaceOnUse" x="32" y="223" width="133" height="73">
<path d="M43.7709 223.49L164.375 256.339L153.604 295.896L32.9949 263.052L43.7709 223.49Z" fill="white"/>
</mask>
<g mask="url(#mask46_47_13825)">
<mask id="mask47_47_13825" style="mask-type:luminance" maskUnits="userSpaceOnUse" x="32" y="223" width="133" height="73">
<path d="M43.7709 223.49L164.375 256.339L153.604 295.896L32.9949 263.052L43.7709 223.49Z" fill="white"/>
</mask>
<g mask="url(#mask47_47_13825)">
<path d="M133.854 290.417L52.8439 268.354C42.0054 265.401 35.6095 254.214 38.5574 243.375C41.5106 232.537 52.6981 226.141 63.5366 229.094L144.547 251.156C155.386 254.109 161.781 265.292 158.828 276.13C155.875 286.969 144.693 293.365 133.854 290.417Z" fill="#604428"/>
<path d="M133.802 290.604L52.7917 268.542C41.8542 265.568 35.3907 254.261 38.3698 243.323C41.3438 232.391 52.6511 225.922 63.5886 228.901L144.599 250.964C155.531 253.943 162 265.25 159.021 276.182C156.042 287.12 144.734 293.583 133.802 290.604ZM63.4844 229.281C52.7604 226.365 41.6719 232.703 38.75 243.427C35.8282 254.151 42.1719 265.24 52.8959 268.162L133.906 290.224C144.63 293.146 155.719 286.802 158.635 276.078C161.557 265.354 155.219 254.266 144.495 251.344L63.4844 229.281Z" fill="#604428"/>
</g>
</g>
</g>
<mask id="mask48_47_13825" style="mask-type:luminance" maskUnits="userSpaceOnUse" x="16" y="184" width="146" height="76">
<path d="M16.6667 184H162V260H16.6667V184Z" fill="white"/>
</mask>
<g mask="url(#mask48_47_13825)">
<mask id="mask49_47_13825" style="mask-type:luminance" maskUnits="userSpaceOnUse" x="11" y="178" width="158" height="87">
<path d="M24.2762 178.463L168.037 217.614L155.162 264.89L11.396 225.739L24.2762 178.463Z" fill="white"/>
</mask>
<g mask="url(#mask49_47_13825)">
<mask id="mask50_47_13825" style="mask-type:luminance" maskUnits="userSpaceOnUse" x="11" y="178" width="158" height="87">
<path d="M24.2762 178.463L168.037 217.614L155.162 264.89L11.396 225.739L24.2762 178.463Z" fill="white"/>
</mask>
<g mask="url(#mask50_47_13825)">
<path d="M131.334 257.989L35.0575 231.771C22.1773 228.26 14.5783 214.969 18.0836 202.088C21.594 189.203 34.8856 181.604 47.7658 185.109L144.042 211.333C156.922 214.838 164.526 228.13 161.016 241.015C157.505 253.896 144.214 261.495 131.334 257.989Z" fill="#604428"/>
</g>
</g>
</g>
<mask id="mask51_47_13825" style="mask-type:luminance" maskUnits="userSpaceOnUse" x="16" y="184" width="148" height="76">
<path d="M16.6667 184H163.333V260H16.6667V184Z" fill="white"/>
</mask>
<g mask="url(#mask51_47_13825)">
<mask id="mask52_47_13825" style="mask-type:luminance" maskUnits="userSpaceOnUse" x="11" y="178" width="158" height="87">
<path d="M24.2762 178.463L168.037 217.614L155.162 264.89L11.396 225.739L24.2762 178.463Z" fill="white"/>
</mask>
<g mask="url(#mask52_47_13825)">
<mask id="mask53_47_13825" style="mask-type:luminance" maskUnits="userSpaceOnUse" x="11" y="178" width="158" height="87">
<path d="M24.2762 178.463L168.037 217.614L155.162 264.89L11.396 225.739L24.2762 178.463Z" fill="white"/>
</mask>
<g mask="url(#mask53_47_13825)">
<path d="M131.271 258.218L35.0003 231.994C22.0003 228.458 14.318 215.02 17.8544 202.026C21.3961 189.031 34.8336 181.343 47.8284 184.885L144.104 211.104C157.099 214.64 164.782 228.078 161.245 241.078C157.703 254.073 144.266 261.755 131.271 258.218ZM47.7034 185.338C34.9586 181.869 21.7815 189.401 18.3128 202.151C14.8388 214.895 22.3753 228.067 35.12 231.541L131.396 257.76C144.141 261.234 157.318 253.698 160.787 240.953C164.261 228.208 156.724 215.031 143.979 211.557L47.7034 185.338Z" fill="#604428"/>
</g>
</g>
</g>
<mask id="mask54_47_13825" style="mask-type:luminance" maskUnits="userSpaceOnUse" x="132" y="152" width="37" height="19">
<path d="M132.083 152.448H168.083V170.448H132.083V152.448Z" fill="white"/>
</mask>
<g mask="url(#mask54_47_13825)">
<path d="M168.568 161.609C168.568 162.214 168.453 162.807 168.219 163.396C167.984 163.984 167.641 164.557 167.182 165.109C166.724 165.667 166.161 166.193 165.495 166.693C164.828 167.188 164.073 167.651 163.224 168.078C162.38 168.5 161.458 168.88 160.463 169.214C159.469 169.547 158.417 169.828 157.307 170.057C156.203 170.286 155.062 170.464 153.885 170.578C152.713 170.698 151.526 170.755 150.328 170.755C149.13 170.755 147.943 170.698 146.771 170.578C145.594 170.464 144.453 170.286 143.349 170.057C142.24 169.828 141.187 169.547 140.193 169.214C139.198 168.88 138.276 168.5 137.427 168.078C136.583 167.651 135.823 167.188 135.161 166.693C134.495 166.193 133.932 165.667 133.474 165.109C133.016 164.557 132.672 163.984 132.437 163.396C132.203 162.807 132.083 162.214 132.083 161.609C132.083 161.01 132.203 160.417 132.437 159.828C132.672 159.24 133.016 158.667 133.474 158.115C133.932 157.557 134.495 157.031 135.161 156.531C135.823 156.031 136.583 155.573 137.427 155.146C138.276 154.724 139.198 154.344 140.193 154.01C141.187 153.677 142.24 153.396 143.349 153.167C144.453 152.932 145.594 152.76 146.771 152.646C147.943 152.526 149.13 152.469 150.328 152.469C151.526 152.469 152.713 152.526 153.885 152.646C155.062 152.76 156.203 152.932 157.307 153.167C158.417 153.396 159.469 153.677 160.463 154.01C161.458 154.344 162.38 154.724 163.224 155.146C164.073 155.573 164.828 156.031 165.495 156.531C166.161 157.031 166.724 157.557 167.182 158.115C167.641 158.667 167.984 159.24 168.219 159.828C168.453 160.417 168.568 161.01 168.568 161.609Z" fill="#FFB93E"/>
</g>
<mask id="mask55_47_13825" style="mask-type:luminance" maskUnits="userSpaceOnUse" x="0" y="146" width="146" height="77">
<path d="M0.666748 146.667H146V222.667H0.666748V146.667Z" fill="white"/>
</mask>
<g mask="url(#mask55_47_13825)">
<mask id="mask56_47_13825" style="mask-type:luminance" maskUnits="userSpaceOnUse" x="-5" y="141" width="157" height="87">
<path d="M8.15633 141.557L151.917 180.708L139.042 227.989L-4.72388 188.833L8.15633 141.557Z" fill="white"/>
</mask>
<g mask="url(#mask56_47_13825)">
<mask id="mask57_47_13825" style="mask-type:luminance" maskUnits="userSpaceOnUse" x="-5" y="141" width="157" height="87">
<path d="M8.15633 141.557L151.917 180.708L139.042 227.989L-4.72388 188.833L8.15633 141.557Z" fill="white"/>
</mask>
<g mask="url(#mask57_47_13825)">
<path d="M115.214 221.083L18.9377 194.864C6.05752 191.354 -1.54665 178.062 1.96377 165.182C5.47418 152.302 18.7659 144.698 31.6461 148.208L127.922 174.427C140.802 177.937 148.406 191.229 144.896 204.109C141.386 216.989 128.094 224.594 115.214 221.083Z" fill="#604428"/>
<path d="M115.151 221.312L18.8752 195.093C5.8804 191.552 -1.80189 178.114 1.73457 165.119C5.27623 152.125 18.7137 144.437 31.7085 147.979L127.985 174.198C140.979 177.739 148.662 191.177 145.125 204.172C141.584 217.166 128.146 224.849 115.151 221.312ZM31.5835 148.432C18.8387 144.963 5.66165 152.5 2.1929 165.244C-1.28106 177.989 6.2554 191.166 19.0002 194.635L115.276 220.854C128.021 224.328 141.198 216.791 144.667 204.047C148.141 191.302 140.604 178.125 127.86 174.656L31.5835 148.432Z" fill="#604428"/>
</g>
</g>
</g>
<mask id="mask58_47_13825" style="mask-type:luminance" maskUnits="userSpaceOnUse" x="166" y="103" width="54" height="54">
<path d="M166.672 103.948H219.307V156.588H166.672V103.948Z" fill="white"/>
</mask>
<g mask="url(#mask58_47_13825)">
<mask id="mask59_47_13825" style="mask-type:luminance" maskUnits="userSpaceOnUse" x="166" y="103" width="54" height="54">
<path d="M192.99 103.948C178.453 103.948 166.672 115.734 166.672 130.271C166.672 144.802 178.453 156.588 192.99 156.588C207.526 156.588 219.307 144.802 219.307 130.271C219.307 115.734 207.526 103.948 192.99 103.948Z" fill="white"/>
</mask>
<g mask="url(#mask59_47_13825)">
<path d="M166.672 103.948H219.307V156.588H166.672V103.948Z" fill="black"/>
</g>
</g>
<mask id="mask60_47_13825" style="mask-type:luminance" maskUnits="userSpaceOnUse" x="81" y="103" width="54" height="54">
<path d="M81.5676 103.26H134.896V156.588H81.5676V103.26Z" fill="white"/>
</mask>
<g mask="url(#mask60_47_13825)">
<mask id="mask61_47_13825" style="mask-type:luminance" maskUnits="userSpaceOnUse" x="81" y="103" width="54" height="54">
<path d="M108.229 103.26C93.5051 103.26 81.5676 115.198 81.5676 129.922C81.5676 144.651 93.5051 156.588 108.229 156.588C122.958 156.588 134.896 144.651 134.896 129.922C134.896 115.198 122.958 103.26 108.229 103.26Z" fill="white"/>
</mask>
<g mask="url(#mask61_47_13825)">
<path d="M81.5676 103.26H134.896V156.588H81.5676V103.26Z" fill="black"/>
</g>
</g>
<mask id="mask62_47_13825" style="mask-type:luminance" maskUnits="userSpaceOnUse" x="105" y="104" width="26" height="26">
<path d="M105.365 104.385H130.901V129.922H105.365V104.385Z" fill="white"/>
</mask>
<g mask="url(#mask62_47_13825)">
<mask id="mask63_47_13825" style="mask-type:luminance" maskUnits="userSpaceOnUse" x="105" y="104" width="26" height="26">
<path d="M118.13 104.385C111.078 104.385 105.365 110.104 105.365 117.156C105.365 124.208 111.078 129.922 118.13 129.922C125.182 129.922 130.901 124.208 130.901 117.156C130.901 110.104 125.182 104.385 118.13 104.385Z" fill="white"/>
</mask>
<g mask="url(#mask63_47_13825)">
<path d="M105.365 104.385H130.901V129.922H105.365V104.385Z" fill="white"/>
</g>
</g>
<mask id="mask64_47_13825" style="mask-type:luminance" maskUnits="userSpaceOnUse" x="190" y="104" width="26" height="26">
<path d="M190.146 104.599H215.354V129.807H190.146V104.599Z" fill="white"/>
</mask>
<g mask="url(#mask64_47_13825)">
<mask id="mask65_47_13825" style="mask-type:luminance" maskUnits="userSpaceOnUse" x="190" y="104" width="26" height="26">
<path d="M202.75 104.599C195.792 104.599 190.146 110.245 190.146 117.203C190.146 124.167 195.792 129.807 202.75 129.807C209.713 129.807 215.354 124.167 215.354 117.203C215.354 110.245 209.713 104.599 202.75 104.599Z" fill="white"/>
</mask>
<g mask="url(#mask65_47_13825)">
<path d="M190.146 104.599H215.354V129.807H190.146V104.599Z" fill="white"/>
</g>
</g>
<mask id="mask66_47_13825" style="mask-type:luminance" maskUnits="userSpaceOnUse" x="82" y="129" width="27" height="26">
<path d="M82.6926 129.458H108.229V154.995H82.6926V129.458Z" fill="white"/>
</mask>
<g mask="url(#mask66_47_13825)">
<mask id="mask67_47_13825" style="mask-type:luminance" maskUnits="userSpaceOnUse" x="82" y="129" width="27" height="26">
<path d="M95.4635 129.458C88.4114 129.458 82.6926 135.172 82.6926 142.224C82.6926 149.276 88.4114 154.995 95.4635 154.995C102.516 154.995 108.229 149.276 108.229 142.224C108.229 135.172 102.516 129.458 95.4635 129.458Z" fill="white"/>
</mask>
<g mask="url(#mask67_47_13825)">
<path d="M82.6926 129.458H108.229V154.995H82.6926V129.458Z" fill="white"/>
</g>
</g>
<mask id="mask68_47_13825" style="mask-type:luminance" maskUnits="userSpaceOnUse" x="169" y="129" width="26" height="27">
<path d="M169.714 129.807H194.922V155.015H169.714V129.807Z" fill="white"/>
</mask>
<g mask="url(#mask68_47_13825)">
<mask id="mask69_47_13825" style="mask-type:luminance" maskUnits="userSpaceOnUse" x="169" y="129" width="26" height="27">
<path d="M182.318 129.807C175.359 129.807 169.714 135.448 169.714 142.411C169.714 149.37 175.359 155.015 182.318 155.015C189.281 155.015 194.922 149.37 194.922 142.411C194.922 135.448 189.281 129.807 182.318 129.807Z" fill="white"/>
</mask>
<g mask="url(#mask69_47_13825)">
<path d="M169.714 129.807H194.922V155.015H169.714V129.807Z" fill="white"/>
</g>
</g>
<mask id="mask70_47_13825" style="mask-type:luminance" maskUnits="userSpaceOnUse" x="219" y="21" width="98" height="93">
<path d="M219.333 21.3335H316.667V113.333H219.333V21.3335Z" fill="white"/>
</mask>
<g mask="url(#mask70_47_13825)">
<mask id="mask71_47_13825" style="mask-type:luminance" maskUnits="userSpaceOnUse" x="202" y="8" width="126" height="117">
<path d="M222.927 8.72412L327.505 31.3647L307.401 124.214L202.828 101.573L222.927 8.72412Z" fill="white"/>
</mask>
<g mask="url(#mask71_47_13825)">
<mask id="mask72_47_13825" style="mask-type:luminance" maskUnits="userSpaceOnUse" x="202" y="8" width="126" height="117">
<path d="M222.927 8.72412L327.505 31.3647L307.401 124.214L202.828 101.573L222.927 8.72412Z" fill="white"/>
</mask>
<g mask="url(#mask72_47_13825)">
<mask id="mask73_47_13825" style="mask-type:luminance" maskUnits="userSpaceOnUse" x="202" y="8" width="126" height="117">
<path d="M222.927 8.72412L327.505 31.3647L307.401 124.214L202.828 101.573L222.927 8.72412Z" fill="white"/>
</mask>
<g mask="url(#mask73_47_13825)">
<path d="M316.547 58.5052C317.141 29.7395 283.526 21.9791 269.625 45.9791C266.896 18.3802 233.078 11.5416 221.729 37.9791C211.427 61.9635 255.161 112.786 255.161 112.786C255.161 112.786 316.005 84.6041 316.547 58.5052Z" fill="#C6302C"/>
</g>
</g>
</g>
</g>
<mask id="mask74_47_13825" style="mask-type:luminance" maskUnits="userSpaceOnUse" x="2" y="81" width="55" height="55">
<path d="M2 81.3335H56.6667V136H2V81.3335Z" fill="white"/>
</mask>
<g mask="url(#mask74_47_13825)">
<mask id="mask75_47_13825" style="mask-type:luminance" maskUnits="userSpaceOnUse" x="-8" y="72" width="82" height="79">
<path d="M-7.58325 102.526L46.7136 72.5991L73.2657 120.766L18.9688 150.693L-7.58325 102.526Z" fill="white"/>
</mask>
<g mask="url(#mask75_47_13825)">
<mask id="mask76_47_13825" style="mask-type:luminance" maskUnits="userSpaceOnUse" x="-8" y="72" width="82" height="79">
<path d="M-7.58325 102.526L46.7136 72.5991L73.2657 120.766L18.9688 150.693L-7.58325 102.526Z" fill="white"/>
</mask>
<g mask="url(#mask76_47_13825)">
<mask id="mask77_47_13825" style="mask-type:luminance" maskUnits="userSpaceOnUse" x="-8" y="72" width="82" height="79">
<path d="M-7.58325 102.526L46.7136 72.5991L73.2657 120.766L18.9688 150.693L-7.58325 102.526Z" fill="white"/>
</mask>
<g mask="url(#mask77_47_13825)">
<path d="M52.2553 88.6094C41.5678 75.8281 23.9272 85.2396 26.9949 101.005C15.297 90 -2.078 99.8854 3.02617 115.75C7.65117 130.135 46.0991 135.672 46.0991 135.672C46.0991 135.672 61.948 100.208 52.2553 88.6094Z" fill="#C6302C"/>
</g>
</g>
</g>
</g>
<mask id="mask78_47_13825" style="mask-type:luminance" maskUnits="userSpaceOnUse" x="48" y="0" width="213" height="92">
<path d="M48.6667 0H260.667V92H48.6667V0Z" fill="white"/>
</mask>
<g mask="url(#mask78_47_13825)">
<mask id="mask79_47_13825" style="mask-type:luminance" maskUnits="userSpaceOnUse" x="46" y="-24" width="226" height="169">
<path d="M81.12 -23.8853L271.219 38.2658L236.412 144.719L46.3179 82.5679L81.12 -23.8853Z" fill="white"/>
</mask>
<g mask="url(#mask79_47_13825)">
<mask id="mask80_47_13825" style="mask-type:luminance" maskUnits="userSpaceOnUse" x="46" y="-24" width="226" height="169">
<path d="M81.12 -23.8853L271.219 38.2658L236.412 144.719L46.3179 82.5679L81.12 -23.8853Z" fill="white"/>
</mask>
<g mask="url(#mask80_47_13825)">
<path d="M160.75 2.61994C164.859 3.9064 168.589 5.94286 172.078 8.43765C177.651 12.4324 183.068 16.6147 188.073 21.3074C189.964 23.0783 191.969 24.7137 194.13 26.146C202.396 31.6147 209.891 38.0939 217.745 44.0991C223.245 48.3074 228.662 52.6512 234.833 55.8647C242.609 59.9168 249.865 64.8335 257.354 69.3595C257.927 69.7085 258.417 70.0522 259.156 70.1564C260.313 70.3231 260.474 71.1408 259.859 72.1877C257.401 76.3387 253.625 78.5262 249.016 79.4168C246.182 79.9689 243.323 80.4689 240.458 80.8387C232.682 81.8283 225.021 83.6304 217.188 84.1877C213.167 84.4689 209.141 84.7658 205.109 84.8283C198.62 84.9272 192.214 85.6252 185.833 86.771C177.802 88.2137 169.714 89.0106 161.547 89.1304C158.318 89.1824 155.01 88.7658 151.87 90.0002C146.849 89.2814 141.896 90.5002 136.896 90.547C123.438 90.6668 109.974 90.8283 96.5105 91.0522C87.922 91.1929 79.3126 90.6304 70.8438 88.8804C65.6251 87.8022 60.4115 86.7085 55.2032 85.5679C53.797 85.2606 52.4272 84.7762 51.2657 83.8387C49.724 82.5887 48.9324 81.0574 49.3647 79.0366C49.4115 78.8127 49.5938 78.5366 49.5209 78.3856C48.4011 76.1981 50.1251 75.8231 51.5053 75.2189C52.9793 74.5679 54.2709 73.6147 55.573 72.6877C61.4011 68.5314 67.0782 64.146 73.0886 60.271C80.7032 55.3647 88.3334 50.4637 96.172 45.9064C108.641 38.646 120.412 30.3856 131.313 20.9116C132.922 19.5158 134.531 18.1043 136.234 16.8283C140.51 13.6199 144.464 10.0574 148.224 6.27098C149.677 4.79702 151.323 3.56265 153.016 2.40119C154.755 1.20327 156.599 0.812648 158.599 1.89598C159.255 2.25015 160.031 2.38556 160.75 2.61994Z" fill="#433820"/>
</g>
</g>
</g>
<mask id="mask81_47_13825" style="mask-type:luminance" maskUnits="userSpaceOnUse" x="54" y="6" width="192" height="76">
<path d="M54 6.6665H246V81.3332H54V6.6665Z" fill="white"/>
</mask>
<g mask="url(#mask81_47_13825)">
<mask id="mask82_47_13825" style="mask-type:luminance" maskUnits="userSpaceOnUse" x="46" y="-24" width="226" height="169">
<path d="M81.1197 -23.8857L271.219 38.2653L236.411 144.718L46.3176 82.5674L81.1197 -23.8857Z" fill="white"/>
</mask>
<g mask="url(#mask82_47_13825)">
<mask id="mask83_47_13825" style="mask-type:luminance" maskUnits="userSpaceOnUse" x="46" y="-24" width="226" height="169">
<path d="M81.1197 -23.8857L271.219 38.2653L236.411 144.718L46.3176 82.5674L81.1197 -23.8857Z" fill="white"/>
</mask>
<g mask="url(#mask83_47_13825)">
<path d="M128.542 79.661C128.323 79.5985 128.094 79.4526 127.885 79.4839C121.896 80.3589 115.875 79.7443 109.875 79.7912C103.786 79.8328 97.6927 79.7183 91.6094 79.7391C83.8906 79.7651 76.2604 78.911 68.6042 78.2547C64.7396 77.9214 60.8802 77.4995 57.0156 77.1141C56.2604 77.0412 55.4896 77.0203 54.8125 76.5828C54.9115 75.8485 55.5885 75.7026 56.0573 75.3745C60.474 72.2547 64.9219 69.1714 69.3281 66.0308C81.4323 57.3901 94.0417 49.5412 106.932 42.1401C113.839 38.1714 120.135 33.3953 126.312 28.4266C131.474 24.2703 136.552 20.0151 141.724 15.8641C144.167 13.9006 146.37 11.6922 148.615 9.52555C149.458 8.71305 150.141 8.34847 151.073 9.33284C151.323 9.59326 151.74 9.69222 152.057 9.89534C155.724 12.2183 159.016 11.536 162.333 8.28597C162.604 8.02034 162.896 7.74951 163.083 7.42659C163.667 6.44222 164.344 6.56722 165.172 7.10368C166.51 7.96826 167.943 8.70784 169.24 9.63493C175.068 13.7964 180.766 18.1245 186.026 22.9995C187.583 24.4474 189.167 25.9162 190.932 27.0933C199.432 32.7651 207.26 39.3224 215.333 45.5568C220.818 49.7912 226.229 54.1349 232.312 57.4995C236.443 59.786 240.62 61.9839 244.583 64.5568C244.885 64.7547 245.302 64.8276 245.432 65.4422C244.917 66.0516 244.057 66.1974 243.312 66.4058C235.677 68.5151 228.057 70.6818 220.094 71.2703C215.536 71.6089 211.021 72.3433 206.495 72.9735C198.797 74.0516 191.078 74.8797 183.297 75.0672C178.188 75.187 173.109 75.7026 168.073 76.5308C157.589 78.2651 146.99 78.2547 136.422 78.7026C135.74 78.7339 135.047 78.6558 134.375 78.5464C133.51 78.4058 132.875 78.6193 132.51 79.4526C131.219 80.1141 129.922 80.6506 128.542 79.661Z" fill="#EDE0D2"/>
</g>
</g>
</g>
<mask id="mask84_47_13825" style="mask-type:luminance" maskUnits="userSpaceOnUse" x="116" y="66" width="141" height="20">
<path d="M116.667 66.6665H256.667V85.3332H116.667V66.6665Z" fill="white"/>
</mask>
<g mask="url(#mask84_47_13825)">
<mask id="mask85_47_13825" style="mask-type:luminance" maskUnits="userSpaceOnUse" x="46" y="-24" width="226" height="169">
<path d="M81.12 -23.8857L271.219 38.2653L236.412 144.718L46.3179 82.5674L81.12 -23.8857Z" fill="white"/>
</mask>
<g mask="url(#mask85_47_13825)">
<mask id="mask86_47_13825" style="mask-type:luminance" maskUnits="userSpaceOnUse" x="46" y="-24" width="226" height="169">
<path d="M81.12 -23.8857L271.219 38.2653L236.412 144.718L46.3179 82.5674L81.12 -23.8857Z" fill="white"/>
</mask>
<g mask="url(#mask86_47_13825)">
<path d="M175.901 82.1193C175.86 82.0568 175.782 81.9943 175.776 81.9318C175.573 77.2547 175.25 78.2131 179.261 77.9214C183.886 77.5829 188.537 77.5412 193.151 77.1037C194.5 76.9735 195.141 78.2912 196.276 78.0412C197.266 77.8224 197.703 76.6818 198.948 76.5464C205.526 75.812 212.089 74.9214 218.651 74.0568C219.771 73.911 220.641 73.8433 221.214 75.1922C221.63 76.1714 222.693 76.0516 223.016 74.9839C223.334 73.9318 223.823 73.5099 224.88 73.3901C230.266 72.7704 235.453 71.1766 240.698 69.9058C242.172 69.5516 243.318 69.4162 244.255 70.8172C244.641 71.3901 245.25 71.7443 245.964 71.8693C246.453 71.9526 246.88 71.8537 247.151 71.411C247.37 71.0464 247.261 70.6818 247.068 70.3329C246.703 69.6714 245.922 69.3329 245.672 68.5724C245.729 68.5099 245.776 68.4422 245.834 68.3954C247.823 66.8797 249.61 67.3641 251.474 68.7704C253.032 69.9526 254.771 70.9006 256.396 71.9318C256.172 72.7756 255.745 73.3016 255.255 73.786C254.594 74.437 253.969 75.2599 253.11 73.9787C252.896 73.661 252.479 73.5829 252.094 73.5308C250.719 73.3485 250.25 73.9943 250.766 75.3797C250.844 75.5776 250.891 75.786 250.959 76.0099C250.005 76.6558 248.948 76.8172 247.907 76.9839C240.547 78.1662 233.177 79.3224 225.818 80.5151C224.766 80.687 223.922 80.7079 223.349 79.5672C223.073 79.0204 222.412 78.7704 221.755 79.0308C221.146 79.2704 221.032 79.7651 221.209 80.3485C221.464 81.187 220.86 81.2235 220.328 81.2704C218.209 81.4735 216.094 81.7235 213.969 81.8224C209.334 82.0464 204.698 82.1714 200.063 82.3745C199.167 82.411 198.552 82.3276 198.714 81.1922C198.761 80.8329 198.646 80.4318 198.537 80.0724C198.37 79.5151 197.979 79.1454 197.37 79.1766C196.755 79.2131 196.407 79.6193 196.344 80.2183C196.261 81.0256 196.599 82.0672 195.776 82.5204C195.089 82.9058 194.167 82.8693 193.344 82.9943C190.334 83.4579 187.323 83.9058 184.313 84.3589C181.901 82.1454 178.729 82.7756 175.901 82.1193ZM148.615 80.8745C147.703 80.9006 146.797 80.9683 145.886 80.9787C142.401 81.0256 138.912 81.0881 135.427 81.0881C134.188 81.0881 132.959 80.9318 132.511 79.4526C131.172 79.1818 129.875 79.8537 128.542 79.6558C128.792 81.3693 128.693 81.5881 127.396 82.0724C126.391 82.4474 125.344 82.5308 124.282 82.5256C122.323 82.5151 120.36 82.5464 118.401 82.4787C117.526 82.4474 117.089 82.6766 117.24 83.6089C117.808 84.312 118.532 84.4891 119.438 84.536C128.235 85.0256 137.005 84.411 145.782 84.0308C147.703 83.9422 149.745 84.1193 151.589 83.2287C151.068 80.8016 151.068 80.7964 148.615 80.8745ZM173.261 79.8433C173.287 78.8329 172.787 78.4787 171.823 78.6401C171.297 78.7287 170.766 78.7704 170.24 78.8537C165.354 79.6297 160.448 80.2391 155.511 80.5568C153.552 80.6818 153.552 80.7026 154.115 82.6714C154.729 83.5985 155.62 83.4318 156.547 83.3589C161.266 82.9995 165.99 82.6714 170.719 82.3589C171.62 82.2964 172.542 82.4006 173.25 81.6662C173.25 81.0568 173.245 80.4526 173.261 79.8433Z" fill="#9D743B"/>
</g>
</g>
</g>
<mask id="mask87_47_13825" style="mask-type:luminance" maskUnits="userSpaceOnUse" x="51" y="4" width="134" height="86">
<path d="M51.3333 4H184.667V89.3333H51.3333V4Z" fill="white"/>
</mask>
<g mask="url(#mask87_47_13825)">
<mask id="mask88_47_13825" style="mask-type:luminance" maskUnits="userSpaceOnUse" x="46" y="-24" width="226" height="169">
<path d="M81.1197 -23.8853L271.219 38.2658L236.411 144.719L46.3176 82.5679L81.1197 -23.8853Z" fill="white"/>
</mask>
<g mask="url(#mask88_47_13825)">
<mask id="mask89_47_13825" style="mask-type:luminance" maskUnits="userSpaceOnUse" x="46" y="-24" width="226" height="169">
<path d="M81.1197 -23.8853L271.219 38.2658L236.411 144.719L46.3176 82.5679L81.1197 -23.8853Z" fill="white"/>
</mask>
<g mask="url(#mask89_47_13825)">
<path d="M175.901 82.1202C177.458 81.8129 179.021 81.9222 180.594 81.9952C182 82.0577 183.068 82.4222 183.672 83.7764C183.781 84.0212 184.099 84.167 184.318 84.3597C177.276 85.6202 170.182 86.3545 163.031 86.49C160.297 86.5368 157.495 87.0316 154.844 86.6097C152.224 86.1879 149.932 87.24 147.463 87.2816C144.885 87.3285 142.302 87.5681 139.724 87.7504C132.588 88.2504 125.443 87.99 118.302 88.0368C111.005 88.0837 103.708 88.3806 96.4113 88.5316C94.7446 88.5681 92.9738 88.8025 91.4269 88.3337C89.9061 87.8754 88.5727 87.3285 87.0727 88.1566C79.4008 87.7139 71.7863 86.9587 64.4008 84.6514C64.2602 84.6097 64.1196 84.5368 63.979 84.4795L63.9946 84.5056C64.5727 84.0212 64.6665 83.3962 64.6561 82.667C64.6456 82.0733 64.8696 81.4743 65.005 80.8077C65.6821 80.4743 66.4217 80.641 67.1613 80.6983C73.2863 81.1827 79.38 82.0837 85.5311 82.24C86.4217 82.266 86.7811 82.5368 86.7811 83.4014C86.7811 83.6983 86.8383 84.0108 86.9477 84.292C87.1613 84.8441 87.604 85.1306 88.1925 85.1097C88.8956 85.0837 88.9894 84.5368 89.0831 83.99C89.3904 82.2504 89.4008 82.167 91.1352 82.2347C98.505 82.5108 105.88 82.3129 113.25 82.391C114.87 82.4118 114.89 82.4535 114.818 84.115C114.791 84.7191 114.609 85.3389 114.693 85.9275C114.781 86.5941 115.041 87.3545 115.943 87.2556C116.682 87.1722 117.166 86.766 117.12 85.8754C117.078 85.1254 117.193 84.3702 117.239 83.615C125.661 84.5368 134.083 83.8806 142.505 83.6097C145.536 83.5108 148.541 82.8597 151.588 83.2295C153.364 84.0004 153.364 84.0004 154.114 82.6775C160.068 82.7608 165.958 81.865 171.89 81.6566C172.344 81.641 172.797 81.516 173.25 81.667C173.281 81.74 173.328 81.8025 173.344 81.8754C173.495 82.7087 173.172 83.8754 174.458 84.016C175.823 84.1618 175.557 82.8597 175.901 82.1202ZM63.9894 84.5056C62.6977 84.2347 61.8696 83.6254 62.3019 82.1358C62.6248 81.0108 62.1665 80.3441 61.0675 80.1722C58.3748 79.7452 55.6873 79.3077 52.979 79.0056C51.7342 78.865 51.2394 79.8545 51.9269 80.9691C52.505 81.9066 53.4217 82.4327 54.4425 82.8181C56.4477 83.5785 58.5675 83.8233 60.6613 84.0993C61.755 84.24 62.8123 84.9691 63.979 84.4795C63.979 84.4743 63.9894 84.5056 63.9894 84.5056ZM160.729 6.22954C160.984 5.82329 161.161 5.38579 160.625 5.06287C159.047 4.12537 157.172 5.42225 155.562 4.38579C155.099 4.08371 154.531 4.53683 154.135 4.87537C153.411 5.48475 152.041 5.75558 152.172 6.8285C152.302 7.90662 153.687 7.891 154.458 8.28683C156.791 9.0785 159.531 8.15662 160.729 6.22954ZM111.265 65.3077C113.14 66.016 115.135 66.0785 117.099 66.2243C121.562 66.5472 126.021 67.24 130.51 66.5472C132.771 66.1983 135.047 66.0629 137.333 66.0785C139.776 66.0941 142.203 65.8441 144.536 65.0577C145.375 64.7764 146.265 64.5212 146.505 63.4795C145.515 62.6879 144.427 62.7556 143.375 62.8597C140.651 63.1254 137.911 63.3181 135.213 63.7764C130.151 64.6358 125.094 64.7087 119.984 64.3441C116.75 64.115 113.484 63.9795 110.083 64.3129C110.344 65.1827 110.87 65.1566 111.265 65.3077ZM131.015 46.417C129.646 46.3754 128.281 46.3806 126.916 46.3025C120.463 45.9222 114.021 46.8233 107.568 46.4222C106.984 46.3858 106.255 46.3962 106.114 47.1931C105.989 47.917 106.515 48.2712 107.104 48.5368C108.39 49.1097 109.75 49.24 111.125 49.1618C115.38 48.9327 119.635 49.0733 123.885 49.0889C125.708 49.0941 127.536 48.9795 129.338 48.6827C130.625 48.4691 131.765 47.9847 132.844 47.0733C132.198 46.5733 131.62 46.4379 131.015 46.417ZM113.724 55.1514C109.276 54.6202 104.859 53.9327 100.432 53.2972C99.2915 53.1358 98.229 52.7452 97.1092 52.5629C96.6404 52.4847 96.1873 52.6045 95.9529 53.0837C95.7186 53.5785 95.9946 53.9431 96.3071 54.2972C96.7863 54.8337 97.4425 55.0525 98.0831 55.2868C100.229 56.0681 102.443 56.5629 104.703 56.9222C108.989 57.6097 113.291 57.9327 117.62 57.641C118.416 57.5889 119.291 57.5941 119.979 56.6514C117.797 56.1097 115.786 55.4014 113.724 55.1514ZM102.568 62.9431C100.646 62.2139 98.6925 61.6722 96.6248 61.4014C93.8488 61.0264 91.1092 60.3545 88.354 59.7972C87.7238 59.6722 87.0623 59.6254 86.6977 60.1983C86.2758 60.8545 86.854 61.3285 87.2654 61.7504C87.5779 62.0733 87.9373 62.3962 88.3383 62.5785C93.0519 64.7243 97.9633 65.2972 103.047 64.3702C103.245 64.3337 103.416 64.141 103.666 63.9743C103.422 63.2868 102.995 63.1097 102.568 62.9431ZM85.7863 68.141C82.88 67.6462 79.9321 67.391 76.9998 67.0368C76.63 66.9952 76.229 66.9066 75.9738 67.292C75.6717 67.7504 75.8696 68.1722 76.1508 68.542C76.5206 69.0264 77.0154 69.3702 77.5258 69.7087C80.8227 71.891 84.4842 72.1045 88.2498 71.7295C88.9165 71.6566 89.5727 71.4379 89.9998 70.615C88.7238 69.5525 87.4373 68.417 85.7863 68.141ZM116.416 71.9275C109.948 71.4691 103.469 71.2452 96.8644 71.391C97.229 72.4222 97.979 72.4483 98.6092 72.5733C100.547 72.9483 102.479 73.3129 104.427 73.6097C107.963 74.1514 111.515 74.4327 115.078 73.8389C115.974 73.6879 116.896 73.6045 117.588 72.8181C117.318 72.1306 116.859 71.9587 116.416 71.9275ZM135.729 58.49C136.609 58.3806 137.833 58.1983 137.765 57.1045C137.698 55.99 136.547 55.7243 135.5 55.6931C135.276 55.6879 135.047 55.6618 134.823 55.6722C132.021 55.7868 129.224 55.8962 126.427 56.0368C125.906 56.0629 125.344 56.0889 124.916 56.4483C124.422 56.865 124.318 57.3285 124.958 57.7191C125.213 57.8702 125.51 57.9535 126.177 58.2243C129.094 58.4847 132.401 58.9066 135.729 58.49ZM137.307 71.2608C133.614 71.5212 129.916 71.7868 126.224 72.0472C125.531 72.0993 124.76 72.0056 124.307 72.9379C124.724 73.0733 125 73.2347 125.281 73.2452C129.661 73.4222 134.041 73.417 138.396 72.9327C139.401 72.8233 140.531 72.6254 141.208 71.2816C139.797 70.5733 138.547 71.1722 137.307 71.2608ZM139.021 45.24C138.307 45.4847 137.948 46.0733 138.047 46.8389C138.151 47.641 138.781 48.0733 139.469 48.042C141.51 47.9483 143.406 47.4483 144.854 45.6202C142.812 44.4379 140.922 44.5733 139.021 45.24ZM143.51 55.5212C143.109 55.6983 142.635 55.917 142.828 56.5004C142.953 56.8962 143.333 57.0785 143.724 57.0629C146.349 56.9483 148.906 56.5525 151.187 54.9639C148.547 54.3181 145.984 54.4275 143.51 55.5212Z" fill="#604428"/>
</g>
</g>
</g>
</svg>
