<svg width="500" height="500" viewBox="0 0 500 500" fill="none" xmlns="http://www.w3.org/2000/svg">
<mask id="mask0_47_13822" style="mask-type:luminance" maskUnits="userSpaceOnUse" x="266" y="242" width="137" height="45">
<path d="M266.667 242.156H402.005V286.667H266.667V242.156Z" fill="white"/>
</mask>
<g mask="url(#mask0_47_13822)">
<path d="M288.75 286.479H379.74C391.917 286.479 401.792 276.604 401.792 264.432C401.792 252.255 391.917 242.385 379.74 242.385H288.75C276.578 242.385 266.703 252.255 266.703 264.432C266.703 276.604 276.578 286.479 288.75 286.479Z" fill="#604428"/>
</g>
<mask id="mask1_47_13822" style="mask-type:luminance" maskUnits="userSpaceOnUse" x="266" y="242" width="137" height="46">
<path d="M266.49 242.156H402.005V287.156H266.49V242.156Z" fill="white"/>
</mask>
<g mask="url(#mask1_47_13822)">
<path d="M288.75 286.693H379.74C392.026 286.693 402.005 276.713 402.005 264.432C402.005 252.151 392.026 242.167 379.74 242.167H288.75C276.469 242.167 266.49 252.151 266.49 264.432C266.49 276.713 276.469 286.693 288.75 286.693ZM379.74 242.599C391.786 242.599 401.573 252.385 401.573 264.432C401.573 276.479 391.786 286.265 379.74 286.265H288.75C276.708 286.265 266.917 276.479 266.917 264.432C266.917 252.385 276.708 242.599 288.75 242.599H379.74Z" fill="#604428"/>
</g>
<mask id="mask2_47_13822" style="mask-type:luminance" maskUnits="userSpaceOnUse" x="270" y="200" width="162" height="54">
<path d="M270.667 200.625H431.62V253.333H270.667V200.625Z" fill="white"/>
</mask>
<g mask="url(#mask2_47_13822)">
<path d="M297.078 253.292H405.208C419.677 253.292 431.411 241.563 431.411 227.094C431.411 212.625 419.677 200.891 405.208 200.891H297.078C282.609 200.891 270.875 212.625 270.875 227.094C270.875 241.563 282.609 253.292 297.078 253.292Z" fill="#604428"/>
</g>
<mask id="mask3_47_13822" style="mask-type:luminance" maskUnits="userSpaceOnUse" x="270" y="200" width="162" height="54">
<path d="M270.667 200.625H431.62V253.625H270.667V200.625Z" fill="white"/>
</mask>
<g mask="url(#mask3_47_13822)">
<path d="M297.078 253.552H405.208C419.807 253.552 431.667 241.687 431.667 227.094C431.667 212.495 419.807 200.635 405.208 200.635H297.078C282.479 200.635 270.62 212.495 270.62 227.094C270.62 241.687 282.479 253.552 297.078 253.552ZM405.208 201.146C419.526 201.146 431.156 212.776 431.156 227.094C431.156 241.406 419.526 253.036 405.208 253.036H297.078C282.76 253.036 271.13 241.406 271.13 227.094C271.13 212.776 282.76 201.146 297.078 201.146H405.208Z" fill="#604428"/>
</g>
<mask id="mask4_47_13822" style="mask-type:luminance" maskUnits="userSpaceOnUse" x="303" y="166" width="162" height="54">
<path d="M303.328 166.667H464.281V219.625H303.328V166.667Z" fill="white"/>
</mask>
<g mask="url(#mask4_47_13822)">
<path d="M329.74 219.297H437.87C452.338 219.297 464.073 207.563 464.073 193.094C464.073 178.625 452.338 166.891 437.87 166.891H329.74C315.271 166.891 303.536 178.625 303.536 193.094C303.536 207.563 315.271 219.297 329.74 219.297Z" fill="#604428"/>
</g>
<mask id="mask5_47_13822" style="mask-type:luminance" maskUnits="userSpaceOnUse" x="303" y="166" width="162" height="54">
<path d="M303.328 166.625H464.281V219.625H303.328V166.625Z" fill="white"/>
</mask>
<g mask="url(#mask5_47_13822)">
<path d="M329.74 219.552H437.87C452.469 219.552 464.328 207.687 464.328 193.094C464.328 178.495 452.469 166.635 437.87 166.635H329.74C315.146 166.635 303.281 178.495 303.281 193.094C303.281 207.687 315.146 219.552 329.74 219.552ZM437.87 167.146C452.188 167.146 463.818 178.776 463.818 193.094C463.818 207.406 452.188 219.036 437.87 219.036H329.74C315.427 219.036 303.792 207.406 303.792 193.094C303.792 178.776 315.427 167.146 329.74 167.146H437.87Z" fill="#604428"/>
</g>
<mask id="mask6_47_13822" style="mask-type:luminance" maskUnits="userSpaceOnUse" x="258" y="338" width="18" height="61">
<path d="M258.667 338.667H276V398.667H258.667V338.667Z" fill="white"/>
</mask>
<g mask="url(#mask6_47_13822)">
<mask id="mask7_47_13822" style="mask-type:luminance" maskUnits="userSpaceOnUse" x="258" y="338" width="18" height="61">
<path d="M258.594 397.193L267.62 338.891L275.526 340.115L266.5 398.417L258.594 397.193Z" fill="white"/>
</mask>
<g mask="url(#mask7_47_13822)">
<mask id="mask8_47_13822" style="mask-type:luminance" maskUnits="userSpaceOnUse" x="258" y="338" width="18" height="61">
<path d="M258.594 397.193L267.62 338.891L275.526 340.115L266.5 398.417L258.594 397.193Z" fill="white"/>
</mask>
<g mask="url(#mask8_47_13822)">
<path d="M266.979 343.151L266.328 347.333H266.344L259.917 388.838L259.906 388.833L259.255 393.016C258.901 395.323 260.484 397.49 262.792 397.844C265.094 398.203 267.26 396.615 267.62 394.312L275.338 344.443C275.698 342.141 274.125 339.974 271.818 339.62C269.51 339.26 267.333 340.844 266.979 343.151Z" fill="#FCD590"/>
</g>
</g>
</g>
<mask id="mask9_47_13822" style="mask-type:luminance" maskUnits="userSpaceOnUse" x="260" y="377" width="7" height="18">
<path d="M260 377.333H266.667V394.667H260V377.333Z" fill="white"/>
</mask>
<g mask="url(#mask9_47_13822)">
<mask id="mask10_47_13822" style="mask-type:luminance" maskUnits="userSpaceOnUse" x="258" y="338" width="18" height="61">
<path d="M258.594 397.193L267.62 338.891L275.526 340.115L266.5 398.417L258.594 397.193Z" fill="white"/>
</mask>
<g mask="url(#mask10_47_13822)">
<mask id="mask11_47_13822" style="mask-type:luminance" maskUnits="userSpaceOnUse" x="258" y="338" width="18" height="61">
<path d="M258.594 397.193L267.62 338.891L275.526 340.115L266.5 398.417L258.594 397.193Z" fill="white"/>
</mask>
<g mask="url(#mask11_47_13822)">
<path d="M263.589 378.839L261.344 393.339C261.25 393.922 261.646 394.458 262.229 394.552C262.807 394.641 263.349 394.245 263.438 393.661L264.083 389.484L264.073 389.479L265.667 379.177C265.76 378.594 265.365 378.057 264.781 377.964C264.203 377.875 263.677 378.271 263.589 378.839Z" fill="#FCD590"/>
</g>
</g>
</g>
<mask id="mask12_47_13822" style="mask-type:luminance" maskUnits="userSpaceOnUse" x="217" y="330" width="19" height="60">
<path d="M217.333 330.667H236V389.333H217.333V330.667Z" fill="white"/>
</mask>
<g mask="url(#mask12_47_13822)">
<mask id="mask13_47_13822" style="mask-type:luminance" maskUnits="userSpaceOnUse" x="217" y="330" width="18" height="60">
<path d="M217.943 388.474L226.969 330.167L234.875 331.39L225.849 389.698L217.943 388.474Z" fill="white"/>
</mask>
<g mask="url(#mask13_47_13822)">
<mask id="mask14_47_13822" style="mask-type:luminance" maskUnits="userSpaceOnUse" x="217" y="330" width="18" height="60">
<path d="M217.943 388.474L226.969 330.167L234.875 331.39L225.849 389.698L217.943 388.474Z" fill="white"/>
</mask>
<g mask="url(#mask14_47_13822)">
<path d="M226.328 334.427L225.682 338.609H225.693L219.265 380.114H219.255L218.609 384.291C218.25 386.599 219.833 388.765 222.14 389.12C224.448 389.479 226.614 387.896 226.969 385.588L234.687 335.724C235.047 333.416 233.474 331.255 231.167 330.896C228.864 330.536 226.687 332.12 226.328 334.427Z" fill="#FCD590"/>
</g>
</g>
</g>
<mask id="mask15_47_13822" style="mask-type:luminance" maskUnits="userSpaceOnUse" x="220" y="368" width="6" height="19">
<path d="M220 368H225.333V386.667H220V368Z" fill="white"/>
</mask>
<g mask="url(#mask15_47_13822)">
<mask id="mask16_47_13822" style="mask-type:luminance" maskUnits="userSpaceOnUse" x="217" y="330" width="18" height="60">
<path d="M217.943 388.474L226.969 330.167L234.875 331.39L225.849 389.698L217.943 388.474Z" fill="white"/>
</mask>
<g mask="url(#mask16_47_13822)">
<mask id="mask17_47_13822" style="mask-type:luminance" maskUnits="userSpaceOnUse" x="217" y="330" width="18" height="60">
<path d="M217.943 388.474L226.969 330.167L234.875 331.39L225.849 389.698L217.943 388.474Z" fill="white"/>
</mask>
<g mask="url(#mask17_47_13822)">
<path d="M222.937 370.12L220.693 384.615C220.604 385.198 220.995 385.74 221.578 385.828C222.161 385.917 222.698 385.526 222.786 384.943L223.437 380.76H223.422L225.021 370.453C225.109 369.87 224.719 369.333 224.135 369.245C223.552 369.151 223.026 369.547 222.937 370.12Z" fill="#FCD590"/>
</g>
</g>
</g>
<mask id="mask18_47_13822" style="mask-type:luminance" maskUnits="userSpaceOnUse" x="198" y="364" width="37" height="44">
<path d="M198.667 364H234.667V408H198.667V364Z" fill="white"/>
</mask>
<g mask="url(#mask18_47_13822)">
<mask id="mask19_47_13822" style="mask-type:luminance" maskUnits="userSpaceOnUse" x="197" y="362" width="40" height="47">
<path d="M229.74 408.974L197.323 367.042L203.651 362.151L236.068 404.078L229.74 408.974Z" fill="white"/>
</mask>
<g mask="url(#mask19_47_13822)">
<mask id="mask20_47_13822" style="mask-type:luminance" maskUnits="userSpaceOnUse" x="197" y="362" width="40" height="47">
<path d="M229.74 408.974L197.323 367.042L203.651 362.151L236.068 404.078L229.74 408.974Z" fill="white"/>
</mask>
<g mask="url(#mask20_47_13822)">
<path d="M199.734 370.135L202.057 373.14L202.063 373.135L225.115 402.953L225.109 402.958L227.427 405.963C228.708 407.62 231.099 407.922 232.755 406.64C234.411 405.364 234.719 402.974 233.438 401.318L205.74 365.495C204.458 363.838 202.078 363.526 200.422 364.807C198.766 366.083 198.453 368.479 199.734 370.135Z" fill="#FCD590"/>
</g>
</g>
</g>
<mask id="mask21_47_13822" style="mask-type:luminance" maskUnits="userSpaceOnUse" x="220" y="392" width="11" height="14">
<path d="M220 392H230.667V405.333H220V392Z" fill="white"/>
</mask>
<g mask="url(#mask21_47_13822)">
<mask id="mask22_47_13822" style="mask-type:luminance" maskUnits="userSpaceOnUse" x="197" y="362" width="40" height="47">
<path d="M229.74 408.974L197.323 367.042L203.651 362.151L236.068 404.078L229.74 408.974Z" fill="white"/>
</mask>
<g mask="url(#mask22_47_13822)">
<mask id="mask23_47_13822" style="mask-type:luminance" maskUnits="userSpaceOnUse" x="197" y="362" width="40" height="47">
<path d="M229.74 408.974L197.323 367.042L203.651 362.151L236.068 404.078L229.74 408.974Z" fill="white"/>
</mask>
<g mask="url(#mask23_47_13822)">
<path d="M220.875 394.385L228.927 404.802C229.25 405.224 229.844 405.297 230.26 404.974C230.682 404.651 230.755 404.057 230.432 403.64L228.109 400.635L228.104 400.64L222.38 393.239C222.057 392.818 221.464 392.745 221.042 393.068C220.625 393.39 220.557 393.979 220.875 394.385Z" fill="#FCD590"/>
</g>
</g>
</g>
<mask id="mask24_47_13822" style="mask-type:luminance" maskUnits="userSpaceOnUse" x="189" y="382" width="54" height="13">
<path d="M189.333 382.667H242.667V394.667H189.333V382.667Z" fill="white"/>
</mask>
<g mask="url(#mask24_47_13822)">
<mask id="mask25_47_13822" style="mask-type:luminance" maskUnits="userSpaceOnUse" x="189" y="382" width="54" height="13">
<path d="M242.734 390.906L189.839 394.286L189.328 386.302L242.224 382.927L242.734 390.906Z" fill="white"/>
</mask>
<g mask="url(#mask25_47_13822)">
<mask id="mask26_47_13822" style="mask-type:luminance" maskUnits="userSpaceOnUse" x="189" y="382" width="54" height="13">
<path d="M242.734 390.906L189.839 394.286L189.328 386.302L242.224 382.927L242.734 390.906Z" fill="white"/>
</mask>
<g mask="url(#mask26_47_13822)">
<path d="M193.755 394.02L197.542 393.781V393.77L235.151 391.369L235.156 391.38L238.943 391.135C241.031 391.005 242.625 389.197 242.489 387.104C242.354 385.015 240.547 383.427 238.458 383.557L193.271 386.442C191.177 386.578 189.588 388.374 189.719 390.463C189.854 392.552 191.661 394.156 193.75 394.02H193.755Z" fill="#FCD590"/>
</g>
</g>
</g>
<mask id="mask27_47_13822" style="mask-type:luminance" maskUnits="userSpaceOnUse" x="224" y="386" width="16" height="5">
<path d="M224 386.667H240V390.667H224V386.667Z" fill="white"/>
</mask>
<g mask="url(#mask27_47_13822)">
<mask id="mask28_47_13822" style="mask-type:luminance" maskUnits="userSpaceOnUse" x="189" y="382" width="54" height="13">
<path d="M242.734 390.906L189.839 394.286L189.328 386.302L242.224 382.927L242.734 390.906Z" fill="white"/>
</mask>
<g mask="url(#mask28_47_13822)">
<mask id="mask29_47_13822" style="mask-type:luminance" maskUnits="userSpaceOnUse" x="189" y="382" width="54" height="13">
<path d="M242.734 390.906L189.839 394.286L189.328 386.302L242.224 382.927L242.734 390.906Z" fill="white"/>
</mask>
<g mask="url(#mask29_47_13822)">
<path d="M225.682 390.088L238.823 389.25C239.349 389.213 239.745 388.765 239.714 388.239C239.677 387.708 239.229 387.312 238.703 387.349L234.912 387.588V387.599L225.573 388.197C225.047 388.229 224.651 388.677 224.682 389.208C224.719 389.734 225.167 390.119 225.682 390.088Z" fill="#FCD590"/>
</g>
</g>
</g>
<mask id="mask30_47_13822" style="mask-type:luminance" maskUnits="userSpaceOnUse" x="248" y="377" width="38" height="46">
<path d="M248 377.333H285.333V422.667H248V377.333Z" fill="white"/>
</mask>
<g mask="url(#mask30_47_13822)">
<mask id="mask31_47_13822" style="mask-type:luminance" maskUnits="userSpaceOnUse" x="247" y="377" width="39" height="47">
<path d="M253.542 377.031L285.958 418.958L279.625 423.854L247.208 381.922L253.542 377.031Z" fill="white"/>
</mask>
<g mask="url(#mask31_47_13822)">
<mask id="mask32_47_13822" style="mask-type:luminance" maskUnits="userSpaceOnUse" x="247" y="376" width="39" height="48">
<path d="M285.88 418.859L253.463 376.932L247.135 381.823L279.552 423.755L285.88 418.859Z" fill="white"/>
</mask>
<g mask="url(#mask32_47_13822)">
<path d="M255.849 380.041L258.172 383.047L258.166 383.052L281.219 412.869L281.224 412.864L283.547 415.864C284.828 417.521 284.521 419.911 282.864 421.192C281.208 422.474 278.818 422.166 277.541 420.51L249.844 384.687C248.562 383.031 248.859 380.646 250.515 379.364C252.172 378.083 254.568 378.385 255.849 380.041Z" fill="#FCD590"/>
</g>
</g>
</g>
<mask id="mask33_47_13822" style="mask-type:luminance" maskUnits="userSpaceOnUse" x="272" y="405" width="11" height="14">
<path d="M272 405.333H282.667V418.667H272V405.333Z" fill="white"/>
</mask>
<g mask="url(#mask33_47_13822)">
<mask id="mask34_47_13822" style="mask-type:luminance" maskUnits="userSpaceOnUse" x="247" y="377" width="39" height="47">
<path d="M253.542 377.031L285.958 418.958L279.625 423.854L247.208 381.922L253.542 377.031Z" fill="white"/>
</mask>
<g mask="url(#mask34_47_13822)">
<mask id="mask35_47_13822" style="mask-type:luminance" maskUnits="userSpaceOnUse" x="247" y="376" width="39" height="48">
<path d="M285.88 418.859L253.463 376.932L247.135 381.823L279.552 423.755L285.88 418.859Z" fill="white"/>
</mask>
<g mask="url(#mask35_47_13822)">
<path d="M273.995 406.609L282.047 417.026C282.375 417.443 282.297 418.036 281.88 418.359C281.458 418.682 280.864 418.604 280.541 418.187L278.218 415.182L278.229 415.177L272.505 407.776C272.182 407.354 272.26 406.76 272.677 406.437C273.093 406.115 273.677 406.198 273.995 406.609Z" fill="#FCD590"/>
</g>
</g>
</g>
<mask id="mask36_47_13822" style="mask-type:luminance" maskUnits="userSpaceOnUse" x="240" y="390" width="55" height="13">
<path d="M240 390.667H294.667V402.667H240V390.667Z" fill="white"/>
</mask>
<g mask="url(#mask36_47_13822)">
<mask id="mask37_47_13822" style="mask-type:luminance" maskUnits="userSpaceOnUse" x="240" y="391" width="54" height="13">
<path d="M240.547 395.094L293.438 391.719L293.948 399.698L241.057 403.078L240.547 395.094Z" fill="white"/>
</mask>
<g mask="url(#mask37_47_13822)">
<mask id="mask38_47_13822" style="mask-type:luminance" maskUnits="userSpaceOnUse" x="240" y="391" width="54" height="13">
<path d="M293.318 391.724L240.422 395.104L240.932 403.083L293.823 399.708L293.318 391.724Z" fill="white"/>
</mask>
<g mask="url(#mask38_47_13822)">
<path d="M244.339 394.865L248.125 394.625V394.635L285.74 392.234V392.224L289.526 391.979C291.615 391.849 293.427 393.437 293.557 395.526C293.693 397.615 292.099 399.422 290.01 399.557L244.823 402.443C242.729 402.578 240.927 400.995 240.792 398.906C240.656 396.818 242.25 395 244.339 394.865Z" fill="#FCD590"/>
</g>
</g>
</g>
<mask id="mask39_47_13822" style="mask-type:luminance" maskUnits="userSpaceOnUse" x="274" y="393" width="17" height="5">
<path d="M274.667 393.333H290.667V397.333H274.667V393.333Z" fill="white"/>
</mask>
<g mask="url(#mask39_47_13822)">
<mask id="mask40_47_13822" style="mask-type:luminance" maskUnits="userSpaceOnUse" x="240" y="391" width="54" height="13">
<path d="M240.547 395.094L293.438 391.719L293.948 399.698L241.057 403.078L240.547 395.094Z" fill="white"/>
</mask>
<g mask="url(#mask40_47_13822)">
<mask id="mask41_47_13822" style="mask-type:luminance" maskUnits="userSpaceOnUse" x="240" y="391" width="54" height="13">
<path d="M293.318 391.724L240.422 395.104L240.932 403.083L293.823 399.708L293.318 391.724Z" fill="white"/>
</mask>
<g mask="url(#mask41_47_13822)">
<path d="M276.51 394.709L289.646 393.87C290.177 393.834 290.625 394.229 290.656 394.761C290.693 395.287 290.297 395.735 289.771 395.771L285.979 396.011V396L276.641 396.599C276.115 396.63 275.662 396.235 275.63 395.709C275.594 395.183 275.99 394.74 276.51 394.709Z" fill="#FCD590"/>
</g>
</g>
</g>
<mask id="mask42_47_13822" style="mask-type:luminance" maskUnits="userSpaceOnUse" x="168" y="174" width="178" height="178">
<path d="M168.333 174.974H345.333V351.974H168.333V174.974Z" fill="white"/>
</mask>
<g mask="url(#mask42_47_13822)">
<path d="M344.974 263.292C344.974 264.74 344.937 266.182 344.865 267.63C344.797 269.073 344.687 270.511 344.547 271.953C344.406 273.391 344.229 274.823 344.016 276.255C343.807 277.682 343.557 279.11 343.276 280.526C342.995 281.943 342.677 283.354 342.328 284.755C341.974 286.156 341.588 287.547 341.172 288.932C340.75 290.318 340.297 291.688 339.812 293.047C339.323 294.412 338.802 295.755 338.25 297.094C337.698 298.427 337.109 299.75 336.495 301.057C335.875 302.365 335.224 303.651 334.547 304.927C333.865 306.203 333.151 307.458 332.406 308.698C331.667 309.938 330.891 311.162 330.088 312.365C329.286 313.563 328.453 314.745 327.594 315.906C326.729 317.068 325.844 318.208 324.927 319.323C324.01 320.443 323.062 321.537 322.094 322.604C321.125 323.677 320.125 324.724 319.104 325.745C318.083 326.766 317.036 327.766 315.963 328.735C314.896 329.708 313.802 330.651 312.682 331.568C311.568 332.485 310.427 333.375 309.266 334.235C308.104 335.094 306.922 335.927 305.724 336.729C304.521 337.531 303.297 338.307 302.057 339.047C300.818 339.792 299.562 340.505 298.286 341.188C297.01 341.865 295.724 342.516 294.417 343.136C293.109 343.755 291.786 344.339 290.453 344.891C289.115 345.443 287.771 345.964 286.406 346.453C285.047 346.938 283.672 347.391 282.292 347.813C280.906 348.229 279.516 348.615 278.115 348.969C276.713 349.318 275.302 349.636 273.885 349.917C272.463 350.198 271.042 350.448 269.615 350.656C268.182 350.87 266.75 351.047 265.312 351.188C263.87 351.333 262.432 351.438 260.984 351.511C259.542 351.578 258.099 351.615 256.651 351.615C255.208 351.615 253.766 351.578 252.318 351.511C250.875 351.438 249.432 351.333 247.995 351.188C246.557 351.047 245.125 350.87 243.693 350.656C242.266 350.448 240.838 350.198 239.422 349.917C238.005 349.636 236.594 349.318 235.193 348.969C233.792 348.615 232.396 348.229 231.016 347.813C229.63 347.391 228.26 346.938 226.901 346.453C225.536 345.964 224.187 345.443 222.854 344.891C221.521 344.339 220.198 343.755 218.891 343.136C217.583 342.516 216.292 341.865 215.021 341.188C213.745 340.505 212.49 339.792 211.25 339.047C210.005 338.307 208.786 337.531 207.583 336.729C206.385 335.927 205.203 335.094 204.042 334.235C202.88 333.375 201.74 332.485 200.625 331.568C199.505 330.651 198.411 329.708 197.338 328.735C196.271 327.766 195.224 326.766 194.203 325.745C193.177 324.724 192.182 323.677 191.213 322.604C190.24 321.537 189.297 320.443 188.38 319.323C187.463 318.208 186.573 317.068 185.713 315.906C184.854 314.745 184.021 313.563 183.219 312.365C182.417 311.162 181.641 309.938 180.896 308.698C180.156 307.458 179.443 306.203 178.76 304.927C178.078 303.651 177.432 302.365 176.812 301.057C176.193 299.75 175.609 298.427 175.057 297.094C174.505 295.755 173.984 294.412 173.495 293.047C173.01 291.688 172.557 290.318 172.135 288.932C171.719 287.547 171.333 286.156 170.979 284.755C170.63 283.354 170.312 281.943 170.031 280.526C169.75 279.11 169.5 277.682 169.286 276.255C169.078 274.823 168.901 273.391 168.76 271.953C168.615 270.511 168.51 269.073 168.437 267.63C168.37 266.182 168.333 264.74 168.333 263.292C168.333 261.849 168.37 260.406 168.437 258.958C168.51 257.516 168.615 256.078 168.76 254.636C168.901 253.198 169.078 251.766 169.286 250.333C169.5 248.906 169.75 247.479 170.031 246.063C170.312 244.646 170.63 243.235 170.979 241.833C171.333 240.432 171.719 239.042 172.135 237.656C172.557 236.271 173.01 234.901 173.495 233.542C173.984 232.177 174.505 230.833 175.057 229.495C175.609 228.162 176.193 226.839 176.812 225.531C177.432 224.224 178.078 222.938 178.76 221.662C179.443 220.386 180.156 219.13 180.896 217.891C181.641 216.651 182.417 215.427 183.219 214.224C184.021 213.026 184.854 211.844 185.713 210.682C186.573 209.521 187.463 208.38 188.38 207.266C189.297 206.146 190.24 205.052 191.213 203.985C192.182 202.912 193.177 201.865 194.203 200.844C195.224 199.818 196.271 198.823 197.338 197.854C198.411 196.88 199.505 195.938 200.625 195.021C201.74 194.104 202.88 193.214 204.042 192.354C205.203 191.495 206.385 190.662 207.583 189.86C208.786 189.057 210.005 188.281 211.25 187.542C212.49 186.797 213.745 186.083 215.021 185.401C216.292 184.719 217.583 184.073 218.891 183.453C220.198 182.833 221.521 182.25 222.854 181.698C224.187 181.146 225.536 180.625 226.901 180.136C228.26 179.651 229.63 179.198 231.016 178.776C232.396 178.36 233.792 177.974 235.193 177.62C236.594 177.271 238.005 176.953 239.422 176.672C240.838 176.391 242.266 176.141 243.693 175.932C245.125 175.719 246.557 175.542 247.995 175.401C249.432 175.255 250.875 175.151 252.318 175.078C253.766 175.011 255.208 174.974 256.651 174.974C258.099 174.974 259.542 175.011 260.984 175.078C262.432 175.151 263.87 175.255 265.312 175.401C266.75 175.542 268.182 175.719 269.615 175.932C271.042 176.141 272.463 176.391 273.885 176.672C275.302 176.953 276.713 177.271 278.115 177.62C279.516 177.974 280.906 178.36 282.292 178.776C283.672 179.198 285.047 179.651 286.406 180.136C287.771 180.625 289.115 181.146 290.453 181.698C291.786 182.25 293.109 182.833 294.417 183.453C295.724 184.073 297.01 184.719 298.286 185.401C299.562 186.083 300.818 186.797 302.057 187.542C303.297 188.281 304.521 189.057 305.724 189.86C306.922 190.662 308.104 191.495 309.266 192.354C310.427 193.214 311.568 194.104 312.682 195.021C313.802 195.938 314.896 196.88 315.963 197.854C317.036 198.823 318.083 199.818 319.104 200.844C320.125 201.865 321.125 202.912 322.094 203.985C323.062 205.052 324.01 206.146 324.927 207.266C325.844 208.38 326.729 209.521 327.594 210.682C328.453 211.844 329.286 213.026 330.088 214.224C330.891 215.427 331.667 216.651 332.406 217.891C333.151 219.13 333.865 220.386 334.547 221.662C335.224 222.938 335.875 224.224 336.495 225.531C337.109 226.839 337.698 228.162 338.25 229.495C338.802 230.833 339.323 232.177 339.812 233.542C340.297 234.901 340.75 236.271 341.172 237.656C341.588 239.042 341.974 240.432 342.328 241.833C342.677 243.235 342.995 244.646 343.276 246.063C343.557 247.479 343.807 248.906 344.016 250.333C344.229 251.766 344.406 253.198 344.547 254.636C344.687 256.078 344.797 257.516 344.865 258.958C344.937 260.406 344.974 261.849 344.974 263.292Z" fill="#442F19"/>
</g>
<mask id="mask43_47_13822" style="mask-type:luminance" maskUnits="userSpaceOnUse" x="217" y="174" width="131" height="77">
<path d="M217.333 174.667H348V250.667H217.333V174.667Z" fill="white"/>
</mask>
<g mask="url(#mask43_47_13822)">
<mask id="mask44_47_13822" style="mask-type:luminance" maskUnits="userSpaceOnUse" x="210" y="168" width="145" height="90">
<path d="M210.87 214.88L338.734 168.557L354.062 210.87L226.193 257.187L210.87 214.88Z" fill="white"/>
</mask>
<g mask="url(#mask44_47_13822)">
<mask id="mask45_47_13822" style="mask-type:luminance" maskUnits="userSpaceOnUse" x="210" y="168" width="144" height="90">
<path d="M338.281 168.724L210.411 215.047L225.74 257.354L353.609 211.031L338.281 168.724Z" fill="white"/>
</mask>
<g mask="url(#mask45_47_13822)">
<path d="M246.896 248.969L332.443 217.979C343.891 213.833 349.812 201.187 345.667 189.739C341.521 178.291 328.875 172.37 317.427 176.521L231.875 207.51C220.432 211.656 214.51 224.302 218.656 235.75C222.802 247.193 235.448 253.114 246.896 248.969Z" fill="#604428"/>
</g>
</g>
</g>
<mask id="mask46_47_13822" style="mask-type:luminance" maskUnits="userSpaceOnUse" x="216" y="174" width="132" height="77">
<path d="M216 174.667H348V250.667H216V174.667Z" fill="white"/>
</mask>
<g mask="url(#mask46_47_13822)">
<mask id="mask47_47_13822" style="mask-type:luminance" maskUnits="userSpaceOnUse" x="210" y="168" width="145" height="90">
<path d="M210.87 214.88L338.734 168.557L354.063 210.87L226.193 257.187L210.87 214.88Z" fill="white"/>
</mask>
<g mask="url(#mask47_47_13822)">
<mask id="mask48_47_13822" style="mask-type:luminance" maskUnits="userSpaceOnUse" x="210" y="168" width="144" height="90">
<path d="M338.281 168.724L210.412 215.047L225.74 257.354L353.61 211.031L338.281 168.724Z" fill="white"/>
</mask>
<g mask="url(#mask48_47_13822)">
<path d="M246.969 249.172L332.521 218.182C344.068 213.995 350.052 201.213 345.87 189.666C341.683 178.12 328.901 172.13 317.354 176.318L231.802 207.307C220.255 211.489 214.271 224.271 218.453 235.823C222.636 247.37 235.422 253.354 246.969 249.172ZM317.5 176.719C328.823 172.62 341.36 178.484 345.464 189.812C349.568 201.135 343.698 213.672 332.37 217.776L246.823 248.765C235.495 252.87 222.964 247 218.86 235.677C214.755 224.349 220.625 211.812 231.948 207.708L317.5 176.719Z" fill="#604428"/>
</g>
</g>
</g>
<mask id="mask49_47_13822" style="mask-type:luminance" maskUnits="userSpaceOnUse" x="208" y="126" width="155" height="92">
<path d="M208 126.667H362.667V217.333H208V126.667Z" fill="white"/>
</mask>
<g mask="url(#mask49_47_13822)">
<mask id="mask50_47_13822" style="mask-type:luminance" maskUnits="userSpaceOnUse" x="200" y="119" width="171" height="106">
<path d="M200.604 174.422L351.979 119.583L370.031 169.416L218.656 224.25L200.604 174.422Z" fill="white"/>
</mask>
<g mask="url(#mask50_47_13822)">
<mask id="mask51_47_13822" style="mask-type:luminance" maskUnits="userSpaceOnUse" x="200" y="119" width="171" height="106">
<path d="M352.026 119.567L200.651 174.406L218.703 224.234L370.078 169.401L352.026 119.567Z" fill="white"/>
</mask>
<g mask="url(#mask51_47_13822)">
<path d="M243.422 214.932L345.089 178.104C358.693 173.172 365.729 158.146 360.797 144.541C355.87 130.937 340.844 123.901 327.24 128.833L225.573 165.661C211.969 170.588 204.932 185.614 209.859 199.219C214.792 212.823 229.818 219.859 243.422 214.932Z" fill="#604428"/>
<path d="M243.511 215.172L345.177 178.343C358.901 173.369 366.011 158.177 361.042 144.453C356.068 130.729 340.875 123.619 327.151 128.588L225.484 165.422C211.761 170.39 204.651 185.583 209.62 199.307C214.594 213.031 229.787 220.14 243.511 215.172ZM327.328 129.073C340.787 124.198 355.682 131.172 360.557 144.63C365.432 158.088 358.458 172.984 345 177.859L243.333 214.692C229.875 219.567 214.979 212.593 210.104 199.13C205.224 185.672 212.198 170.776 225.662 165.901L327.328 129.073Z" fill="#604428"/>
</g>
</g>
</g>
<mask id="mask52_47_13822" style="mask-type:luminance" maskUnits="userSpaceOnUse" x="226" y="84" width="157" height="91">
<path d="M226.667 84H382.667V174.667H226.667V84Z" fill="white"/>
</mask>
<g mask="url(#mask52_47_13822)">
<mask id="mask53_47_13822" style="mask-type:luminance" maskUnits="userSpaceOnUse" x="219" y="76" width="171" height="106">
<path d="M219.734 131.328L371.109 76.4946L389.161 126.323L237.786 181.161L219.734 131.328Z" fill="white"/>
</mask>
<g mask="url(#mask53_47_13822)">
<mask id="mask54_47_13822" style="mask-type:luminance" maskUnits="userSpaceOnUse" x="219" y="76" width="171" height="106">
<path d="M371.156 76.479L219.781 131.312L237.833 181.146L389.208 126.307L371.156 76.479Z" fill="white"/>
</mask>
<g mask="url(#mask54_47_13822)">
<path d="M262.552 171.839L364.219 135.01C377.823 130.083 384.859 115.052 379.927 101.453C375 87.849 359.974 80.8125 346.37 85.7396L244.703 122.568C231.099 127.495 224.063 142.526 228.99 156.13C233.922 169.729 248.948 176.766 262.552 171.839Z" fill="#604428"/>
</g>
</g>
</g>
<mask id="mask55_47_13822" style="mask-type:luminance" maskUnits="userSpaceOnUse" x="226" y="82" width="157" height="93">
<path d="M226.667 82.6665H382.667V174.667H226.667V82.6665Z" fill="white"/>
</mask>
<g mask="url(#mask55_47_13822)">
<mask id="mask56_47_13822" style="mask-type:luminance" maskUnits="userSpaceOnUse" x="219" y="76" width="171" height="106">
<path d="M219.734 131.328L371.109 76.4946L389.161 126.323L237.786 181.161L219.734 131.328Z" fill="white"/>
</mask>
<g mask="url(#mask56_47_13822)">
<mask id="mask57_47_13822" style="mask-type:luminance" maskUnits="userSpaceOnUse" x="219" y="76" width="171" height="106">
<path d="M371.156 76.479L219.781 131.312L237.833 181.146L389.208 126.307L371.156 76.479Z" fill="white"/>
</mask>
<g mask="url(#mask57_47_13822)">
<path d="M262.641 172.078L364.307 135.25C378.031 130.281 385.141 115.088 380.172 101.364C375.198 87.6405 360.005 80.526 346.281 85.4999L244.615 122.328C230.891 127.297 223.781 142.489 228.75 156.213C233.724 169.937 248.917 177.052 262.641 172.078ZM346.458 85.9791C359.917 81.1041 374.813 88.078 379.688 101.536C384.563 114.995 377.589 129.896 364.13 134.771L262.464 171.599C249.005 176.474 234.109 169.5 229.234 156.042C224.354 142.583 231.328 127.682 244.792 122.807L346.458 85.9791Z" fill="#604428"/>
</g>
</g>
</g>
<mask id="mask58_47_13822" style="mask-type:luminance" maskUnits="userSpaceOnUse" x="80" y="134" width="178" height="178">
<path d="M80.0105 134.854H257.01V311.854H80.0105V134.854Z" fill="white"/>
</mask>
<g mask="url(#mask58_47_13822)">
<path d="M256.651 223.172C256.651 224.62 256.615 226.062 256.542 227.51C256.474 228.953 256.365 230.39 256.224 231.833C256.083 233.271 255.906 234.703 255.693 236.135C255.479 237.562 255.234 238.989 254.953 240.406C254.672 241.823 254.354 243.234 254 244.635C253.651 246.036 253.266 247.427 252.844 248.812C252.427 250.198 251.974 251.568 251.484 252.927C251 254.292 250.479 255.635 249.927 256.974C249.375 258.307 248.787 259.63 248.172 260.937C247.552 262.245 246.901 263.531 246.219 264.807C245.542 266.083 244.828 267.338 244.083 268.578C243.339 269.818 242.568 271.042 241.766 272.245C240.964 273.443 240.13 274.625 239.271 275.786C238.406 276.948 237.521 278.088 236.599 279.203C235.682 280.323 234.74 281.417 233.771 282.484C232.797 283.557 231.802 284.604 230.781 285.625C229.76 286.646 228.714 287.646 227.641 288.614C226.568 289.583 225.474 290.531 224.359 291.448C223.24 292.364 222.104 293.255 220.943 294.114C219.781 294.974 218.599 295.807 217.396 296.609C216.193 297.411 214.974 298.187 213.734 298.927C212.495 299.672 211.24 300.385 209.964 301.068C208.688 301.745 207.396 302.396 206.089 303.015C204.787 303.63 203.464 304.219 202.13 304.771C200.792 305.323 199.443 305.844 198.083 306.333C196.724 306.818 195.349 307.271 193.969 307.693C192.583 308.109 191.193 308.495 189.787 308.849C188.385 309.198 186.979 309.515 185.557 309.797C184.141 310.078 182.719 310.328 181.287 310.536C179.859 310.75 178.422 310.927 176.984 311.068C175.547 311.208 174.104 311.318 172.662 311.39C171.219 311.458 169.776 311.495 168.328 311.495C166.885 311.495 165.438 311.458 163.995 311.39C162.552 311.318 161.109 311.208 159.672 311.068C158.234 310.927 156.797 310.75 155.37 310.536C153.938 310.328 152.516 310.078 151.099 309.797C149.682 309.515 148.271 309.198 146.87 308.849C145.469 308.495 144.073 308.109 142.693 307.693C141.307 307.271 139.938 306.818 138.573 306.333C137.214 305.844 135.865 305.323 134.531 304.771C133.193 304.219 131.875 303.63 130.568 303.015C129.26 302.396 127.969 301.745 126.693 301.068C125.422 300.385 124.162 299.672 122.922 298.927C121.682 298.187 120.464 297.411 119.26 296.609C118.057 295.807 116.875 294.974 115.719 294.114C114.557 293.255 113.417 292.364 112.297 291.448C111.182 290.531 110.089 289.583 109.016 288.614C107.948 287.646 106.901 286.646 105.875 285.625C104.854 284.604 103.859 283.557 102.885 282.484C101.917 281.417 100.974 280.323 100.057 279.203C99.1407 278.088 98.2501 276.948 97.3907 275.786C96.5261 274.625 95.698 273.443 94.8959 272.245C94.0886 271.042 93.3178 269.818 92.573 268.578C91.8334 267.338 91.1199 266.083 90.4376 264.807C89.7553 263.531 89.1042 262.245 88.4897 260.937C87.8699 259.63 87.2865 258.307 86.7292 256.974C86.1772 255.635 85.6563 254.292 85.172 252.927C84.6824 251.568 84.2292 250.198 83.8126 248.812C83.3907 247.427 83.0053 246.036 82.6563 244.635C82.3022 243.234 81.9897 241.823 81.7032 240.406C81.422 238.984 81.1772 237.562 80.9636 236.135C80.7501 234.703 80.5782 233.271 80.4324 231.833C80.2917 230.39 80.1876 228.953 80.1147 227.51C80.0417 226.062 80.0105 224.62 80.0105 223.172C80.0105 221.729 80.0417 220.286 80.1147 218.838C80.1876 217.396 80.2917 215.958 80.4324 214.515C80.5782 213.078 80.7501 211.646 80.9636 210.213C81.1772 208.786 81.422 207.359 81.7032 205.943C81.9897 204.526 82.3022 203.114 82.6563 201.713C83.0053 200.312 83.3907 198.922 83.8126 197.536C84.2292 196.151 84.6824 194.781 85.172 193.422C85.6563 192.057 86.1772 190.708 86.7292 189.375C87.2865 188.042 87.8699 186.719 88.4897 185.411C89.1042 184.104 89.7553 182.812 90.4376 181.542C91.1199 180.265 91.8334 179.01 92.573 177.771C93.3178 176.531 94.0886 175.307 94.8959 174.104C95.698 172.906 96.5261 171.724 97.3907 170.562C98.2501 169.401 99.1407 168.26 100.057 167.146C100.974 166.026 101.917 164.932 102.885 163.859C103.859 162.792 104.854 161.745 105.875 160.724C106.901 159.698 107.948 158.703 109.016 157.734C110.089 156.76 111.182 155.818 112.297 154.901C113.417 153.984 114.557 153.094 115.719 152.234C116.875 151.375 118.057 150.542 119.26 149.739C120.464 148.937 121.682 148.161 122.922 147.422C124.162 146.677 125.422 145.963 126.693 145.281C127.969 144.599 129.26 143.953 130.568 143.333C131.875 142.713 133.193 142.13 134.531 141.578C135.865 141.026 137.214 140.505 138.573 140.015C139.938 139.531 141.307 139.078 142.693 138.656C144.073 138.239 145.469 137.854 146.87 137.5C148.271 137.151 149.682 136.833 151.099 136.552C152.516 136.271 153.938 136.021 155.37 135.807C156.797 135.599 158.234 135.422 159.672 135.281C161.109 135.135 162.552 135.031 163.995 134.958C165.438 134.89 166.885 134.854 168.328 134.854C169.776 134.854 171.219 134.89 172.662 134.958C174.104 135.031 175.547 135.135 176.984 135.281C178.422 135.422 179.859 135.599 181.287 135.807C182.719 136.021 184.141 136.271 185.557 136.552C186.979 136.833 188.385 137.151 189.787 137.5C191.193 137.854 192.583 138.239 193.969 138.656C195.349 139.078 196.724 139.531 198.083 140.015C199.443 140.505 200.792 141.026 202.13 141.578C203.464 142.13 204.787 142.713 206.089 143.333C207.396 143.953 208.688 144.599 209.964 145.281C211.24 145.963 212.495 146.677 213.734 147.422C214.974 148.161 216.193 148.937 217.396 149.739C218.599 150.542 219.781 151.375 220.943 152.234C222.104 153.094 223.24 153.984 224.359 154.901C225.474 155.818 226.568 156.76 227.641 157.734C228.714 158.703 229.76 159.698 230.781 160.724C231.802 161.745 232.797 162.792 233.771 163.859C234.74 164.932 235.682 166.026 236.599 167.146C237.521 168.26 238.406 169.401 239.271 170.562C240.13 171.724 240.964 172.906 241.766 174.104C242.568 175.307 243.339 176.531 244.083 177.771C244.828 179.01 245.542 180.265 246.219 181.542C246.901 182.812 247.552 184.104 248.172 185.411C248.787 186.719 249.375 188.042 249.927 189.375C250.479 190.708 251 192.057 251.484 193.422C251.974 194.781 252.427 196.151 252.844 197.536C253.266 198.922 253.651 200.312 254 201.713C254.354 203.114 254.672 204.526 254.953 205.943C255.234 207.359 255.479 208.786 255.693 210.213C255.906 211.646 256.083 213.078 256.224 214.515C256.365 215.958 256.474 217.396 256.542 218.838C256.615 220.286 256.651 221.729 256.651 223.172Z" fill="#EDE0D2"/>
</g>
<mask id="mask59_47_13822" style="mask-type:luminance" maskUnits="userSpaceOnUse" x="100" y="174" width="64" height="64">
<path d="M100.802 174.641H163.495V237.333H100.802V174.641Z" fill="white"/>
</mask>
<g mask="url(#mask59_47_13822)">
<mask id="mask60_47_13822" style="mask-type:luminance" maskUnits="userSpaceOnUse" x="100" y="174" width="64" height="64">
<path d="M132.146 174.641C114.833 174.641 100.802 188.672 100.802 205.99C100.802 223.302 114.833 237.333 132.146 237.333C149.458 237.333 163.495 223.302 163.495 205.99C163.495 188.672 149.458 174.641 132.146 174.641Z" fill="white"/>
</mask>
<g mask="url(#mask60_47_13822)">
<path d="M100.802 174.641H163.495V237.333H100.802V174.641Z" fill="white"/>
</g>
</g>
<mask id="mask61_47_13822" style="mask-type:luminance" maskUnits="userSpaceOnUse" x="35" y="236" width="85" height="43">
<path d="M35.6562 236.479H119.656V278.479H35.6562V236.479Z" fill="white"/>
</mask>
<g mask="url(#mask61_47_13822)">
<path d="M119.875 257.635C119.875 258.328 119.807 259.016 119.672 259.708C119.536 260.396 119.333 261.078 119.068 261.755C118.797 262.432 118.464 263.104 118.062 263.766C117.661 264.427 117.198 265.073 116.672 265.714C116.141 266.354 115.552 266.979 114.906 267.589C114.255 268.198 113.547 268.786 112.781 269.365C112.01 269.938 111.193 270.49 110.318 271.026C109.443 271.562 108.516 272.073 107.542 272.562C106.568 273.052 105.547 273.516 104.479 273.953C103.417 274.391 102.307 274.802 101.161 275.188C100.016 275.568 98.8333 275.927 97.6146 276.25C96.401 276.578 95.1563 276.87 93.8802 277.135C92.6094 277.401 91.3125 277.635 89.9896 277.833C88.6719 278.036 87.3333 278.203 85.9792 278.339C84.6302 278.474 83.2656 278.573 81.8958 278.641C80.5208 278.708 79.1458 278.745 77.7656 278.745C76.3854 278.745 75.0104 278.708 73.6406 278.641C72.2656 278.573 70.9063 278.474 69.5521 278.339C68.1979 278.203 66.8646 278.036 65.5417 277.833C64.224 277.635 62.9271 277.401 61.651 277.135C60.3802 276.87 59.1302 276.578 57.9167 276.25C56.6979 275.927 55.5208 275.568 54.3698 275.188C53.224 274.802 52.1198 274.391 51.0521 273.953C49.9844 273.516 48.9635 273.052 47.9896 272.562C47.0156 272.073 46.0885 271.562 45.2135 271.026C44.3385 270.49 43.5208 269.938 42.7552 269.365C41.9896 268.786 41.2813 268.198 40.6302 267.589C39.9792 266.979 39.3906 266.354 38.8646 265.714C38.3333 265.073 37.8698 264.427 37.4688 263.766C37.0677 263.104 36.7344 262.432 36.4688 261.755C36.1979 261.078 35.9948 260.396 35.8594 259.708C35.724 259.016 35.6562 258.328 35.6562 257.635C35.6562 256.948 35.724 256.255 35.8594 255.568C35.9948 254.88 36.1979 254.198 36.4688 253.521C36.7344 252.844 37.0677 252.172 37.4688 251.51C37.8698 250.849 38.3333 250.198 38.8646 249.562C39.3906 248.922 39.9792 248.297 40.6302 247.688C41.2813 247.078 41.9896 246.484 42.7552 245.911C43.5208 245.339 44.3385 244.781 45.2135 244.25C46.0885 243.714 47.0156 243.203 47.9896 242.714C48.9635 242.224 49.9844 241.76 51.0521 241.323C52.1198 240.885 53.224 240.474 54.3698 240.089C55.5208 239.703 56.6979 239.349 57.9167 239.026C59.1302 238.698 60.3802 238.401 61.651 238.141C62.9271 237.875 64.224 237.641 65.5417 237.443C66.8646 237.24 68.1979 237.073 69.5521 236.938C70.9063 236.802 72.2656 236.703 73.6406 236.635C75.0104 236.568 76.3854 236.531 77.7656 236.531C79.1458 236.531 80.5208 236.568 81.8958 236.635C83.2656 236.703 84.6302 236.802 85.9792 236.938C87.3333 237.073 88.6719 237.24 89.9896 237.443C91.3125 237.641 92.6094 237.875 93.8802 238.141C95.1563 238.401 96.401 238.698 97.6146 239.026C98.8333 239.349 100.016 239.703 101.161 240.089C102.307 240.474 103.417 240.885 104.479 241.323C105.547 241.76 106.568 242.224 107.542 242.714C108.516 243.203 109.443 243.714 110.318 244.25C111.193 244.781 112.01 245.339 112.781 245.911C113.547 246.484 114.255 247.078 114.906 247.688C115.552 248.297 116.141 248.922 116.672 249.562C117.198 250.198 117.661 250.849 118.062 251.51C118.464 252.172 118.797 252.844 119.068 253.521C119.333 254.198 119.536 254.88 119.672 255.568C119.807 256.255 119.875 256.948 119.875 257.635Z" fill="#FFB93E"/>
</g>
<mask id="mask62_47_13822" style="mask-type:luminance" maskUnits="userSpaceOnUse" x="112" y="186" width="40" height="40">
<path d="M112.359 186.948H151.12V225.708H112.359V186.948Z" fill="white"/>
</mask>
<g mask="url(#mask62_47_13822)">
<mask id="mask63_47_13822" style="mask-type:luminance" maskUnits="userSpaceOnUse" x="112" y="186" width="40" height="40">
<path d="M131.74 186.948C121.036 186.948 112.359 195.625 112.359 206.328C112.359 217.031 121.036 225.708 131.74 225.708C142.443 225.708 151.12 217.031 151.12 206.328C151.12 195.625 142.443 186.948 131.74 186.948Z" fill="white"/>
</mask>
<g mask="url(#mask63_47_13822)">
<path d="M112.359 186.948H151.12V225.708H112.359V186.948Z" fill="black"/>
</g>
</g>
<mask id="mask64_47_13822" style="mask-type:luminance" maskUnits="userSpaceOnUse" x="129" y="187" width="20" height="19">
<path d="M129.651 187.427H148.214V205.99H129.651V187.427Z" fill="white"/>
</mask>
<g mask="url(#mask64_47_13822)">
<mask id="mask65_47_13822" style="mask-type:luminance" maskUnits="userSpaceOnUse" x="129" y="187" width="20" height="19">
<path d="M138.932 187.427C133.802 187.427 129.651 191.578 129.651 196.708C129.651 201.833 133.802 205.99 138.932 205.99C144.057 205.99 148.214 201.833 148.214 196.708C148.214 191.578 144.057 187.427 138.932 187.427Z" fill="white"/>
</mask>
<g mask="url(#mask65_47_13822)">
<path d="M129.651 187.427H148.214V205.99H129.651V187.427Z" fill="white"/>
</g>
</g>
<mask id="mask66_47_13822" style="mask-type:luminance" maskUnits="userSpaceOnUse" x="211" y="294" width="94" height="36">
<path d="M211.906 294.062H304.906V329.062H211.906V294.062Z" fill="white"/>
</mask>
<g mask="url(#mask66_47_13822)">
<path d="M293.938 312.875C281.354 309.469 271.938 312.344 265.755 315.99C274.208 307.391 287.104 304.568 291.234 303.865L293.938 312.875ZM279.062 294.109L282.609 302.583C275.922 304.661 267.182 308.693 261.266 316.13C265.005 303.115 275.245 296.26 279.062 294.109ZM237.526 294.109C241.344 296.26 251.578 303.094 255.323 316.156C249.406 308.719 240.667 304.688 233.974 302.609L237.526 294.109ZM225.354 303.865C229.484 304.568 242.38 307.391 250.833 315.99C244.651 312.344 235.229 309.469 222.651 312.875L225.354 303.865ZM263.729 328.594H252.859C250.469 325.5 240.135 315.578 211.906 327.339L214.344 319.443C242.5 305.771 256.411 324.536 256.99 325.359C257.016 325.38 257.036 325.38 257.062 325.406C257.089 325.453 257.109 325.5 257.156 325.526C257.182 325.552 257.182 325.552 257.182 325.573C257.229 325.625 257.281 325.646 257.354 325.672C257.401 325.698 257.448 325.745 257.495 325.766C257.547 325.792 257.594 325.839 257.667 325.865C257.693 325.865 257.714 325.891 257.714 325.891C257.812 325.938 257.932 325.938 258.052 325.964C258.125 325.964 258.172 326.01 258.245 326.01C258.271 326.01 258.292 326.01 258.318 326.01C258.344 326.01 258.365 326.01 258.391 326.01C258.464 326.01 258.51 325.984 258.583 325.964C258.703 325.938 258.802 325.938 258.922 325.891C258.948 325.891 258.969 325.865 258.969 325.865C259.042 325.839 259.089 325.792 259.141 325.766C259.188 325.745 259.234 325.719 259.286 325.672C259.333 325.625 259.406 325.599 259.453 325.573C259.479 325.552 259.479 325.552 259.479 325.526C259.526 325.479 259.552 325.453 259.573 325.406C259.599 325.38 259.62 325.38 259.646 325.359C260.224 324.536 274.135 305.771 302.292 319.443L304.734 327.339C276.479 315.578 266.12 325.526 263.729 328.594Z" fill="#EDE0D2"/>
</g>
<mask id="mask67_47_13822" style="mask-type:luminance" maskUnits="userSpaceOnUse" x="58" y="74" width="213" height="92">
<path d="M58.6667 74.6665H270.667V165.333H58.6667V74.6665Z" fill="white"/>
</mask>
<g mask="url(#mask67_47_13822)">
<mask id="mask68_47_13822" style="mask-type:luminance" maskUnits="userSpaceOnUse" x="55" y="50" width="226" height="169">
<path d="M90.724 50L280.823 112.151L246.021 218.604L55.9219 156.453L90.724 50Z" fill="white"/>
</mask>
<g mask="url(#mask68_47_13822)">
<mask id="mask69_47_13822" style="mask-type:luminance" maskUnits="userSpaceOnUse" x="55" y="50" width="226" height="169">
<path d="M90.724 50L280.823 112.151L246.021 218.604L55.9219 156.453L90.724 50Z" fill="white"/>
</mask>
<g mask="url(#mask69_47_13822)">
<path d="M170.354 76.5051C174.463 77.7915 178.193 79.828 181.682 82.328C187.255 86.3176 192.672 90.5051 197.677 95.1926C199.568 96.9686 201.573 98.5988 203.734 100.031C212 105.505 219.495 111.984 227.349 117.984C232.849 122.193 238.266 126.536 244.437 129.75C252.213 133.802 259.469 138.719 266.958 143.245C267.531 143.594 268.021 143.937 268.76 144.042C269.917 144.208 270.078 145.026 269.463 146.073C267.005 150.224 263.229 152.411 258.625 153.307C255.786 153.854 252.932 154.359 250.062 154.724C242.286 155.719 234.63 157.515 226.792 158.073C222.771 158.354 218.745 158.651 214.713 158.713C208.229 158.812 201.818 159.51 195.437 160.656C187.406 162.099 179.318 162.896 171.151 163.021C167.922 163.068 164.615 162.651 161.474 163.885C156.453 163.167 151.5 164.39 146.505 164.432C133.042 164.552 119.578 164.713 106.115 164.937C97.526 165.078 88.9166 164.521 80.453 162.765C75.2343 161.687 70.0155 160.594 64.8124 159.453C63.401 159.146 62.0312 158.661 60.8697 157.724C59.328 156.474 58.5364 154.948 58.9687 152.922C59.0155 152.703 59.1978 152.422 59.1249 152.271C58.0051 150.083 59.7291 149.708 61.1093 149.104C62.5833 148.453 63.8749 147.505 65.177 146.573C71.0051 142.417 76.6874 138.036 82.6926 134.161C90.3072 129.25 97.9374 124.354 105.776 119.792C118.245 112.536 130.016 104.271 140.917 94.7967C142.526 93.4009 144.135 91.9947 145.838 90.7134C150.115 87.5051 154.068 83.9426 157.828 80.1561C159.281 78.6874 160.927 77.4478 162.62 76.2863C164.359 75.0884 166.203 74.6978 168.203 75.7863C168.859 76.1353 169.635 76.2707 170.354 76.5051Z" fill="#433820"/>
</g>
</g>
</g>
<mask id="mask70_47_13822" style="mask-type:luminance" maskUnits="userSpaceOnUse" x="64" y="80" width="192" height="75">
<path d="M64 80H256V154.667H64V80Z" fill="white"/>
</mask>
<g mask="url(#mask70_47_13822)">
<mask id="mask71_47_13822" style="mask-type:luminance" maskUnits="userSpaceOnUse" x="55" y="50" width="226" height="169">
<path d="M90.724 50L280.823 112.151L246.021 218.604L55.9219 156.453L90.724 50Z" fill="white"/>
</mask>
<g mask="url(#mask71_47_13822)">
<mask id="mask72_47_13822" style="mask-type:luminance" maskUnits="userSpaceOnUse" x="55" y="50" width="226" height="169">
<path d="M90.724 50L280.823 112.151L246.021 218.604L55.9219 156.453L90.724 50Z" fill="white"/>
</mask>
<g mask="url(#mask72_47_13822)">
<path d="M138.146 153.547C137.927 153.484 137.698 153.338 137.49 153.37C131.5 154.25 125.479 153.635 119.479 153.677C113.396 153.719 107.297 153.609 101.214 153.625C93.4949 153.651 85.8647 152.797 78.2084 152.14C74.3438 151.807 70.4845 151.385 66.6199 151.005C65.8647 150.927 65.0938 150.906 64.4167 150.469C64.5157 149.739 65.198 149.588 65.6615 149.26C70.0782 146.14 74.5261 143.057 78.9324 139.917C91.0365 131.281 103.651 123.427 116.537 116.026C123.443 112.057 129.74 107.281 135.917 102.312C141.078 98.1561 146.156 93.9009 151.328 89.7498C153.771 87.7863 155.974 85.578 158.219 83.4113C159.063 82.604 159.745 82.2342 160.677 83.2186C160.927 83.479 161.344 83.578 161.662 83.7811C165.333 86.104 168.62 85.4217 171.938 82.1717C172.208 81.9061 172.5 81.6353 172.693 81.3123C173.271 80.328 173.948 80.453 174.776 80.9894C176.12 81.8592 177.547 82.5936 178.844 83.5207C184.672 87.6821 190.37 92.0103 195.63 96.8905C197.188 98.3384 198.771 99.8071 200.537 100.979C209.037 106.656 216.865 113.208 224.938 119.443C230.422 123.677 235.833 128.021 241.917 131.385C246.047 133.672 250.224 135.87 254.188 138.443C254.49 138.64 254.906 138.719 255.037 139.328C254.521 139.937 253.662 140.083 252.917 140.292C245.287 142.406 237.662 144.568 229.698 145.156C225.141 145.495 220.625 146.229 216.099 146.864C208.401 147.937 200.682 148.765 192.901 148.953C187.792 149.078 182.714 149.588 177.677 150.417C167.193 152.151 156.594 152.146 146.026 152.594C145.344 152.62 144.651 152.547 143.979 152.432C143.115 152.297 142.479 152.505 142.115 153.338C140.823 154 139.526 154.536 138.146 153.547Z" fill="#EDE0D2"/>
</g>
</g>
</g>
<mask id="mask73_47_13822" style="mask-type:luminance" maskUnits="userSpaceOnUse" x="126" y="141" width="141" height="18">
<path d="M126.667 141.333H266.667V158.667H126.667V141.333Z" fill="white"/>
</mask>
<g mask="url(#mask73_47_13822)">
<mask id="mask74_47_13822" style="mask-type:luminance" maskUnits="userSpaceOnUse" x="55" y="50" width="226" height="169">
<path d="M90.724 50L280.823 112.151L246.021 218.604L55.9219 156.453L90.724 50Z" fill="white"/>
</mask>
<g mask="url(#mask74_47_13822)">
<mask id="mask75_47_13822" style="mask-type:luminance" maskUnits="userSpaceOnUse" x="55" y="50" width="226" height="169">
<path d="M90.724 50L280.823 112.151L246.021 218.604L55.9219 156.453L90.724 50Z" fill="white"/>
</mask>
<g mask="url(#mask75_47_13822)">
<path d="M185.505 156.005C185.464 155.943 185.386 155.885 185.38 155.818C185.177 151.146 184.854 152.099 188.865 151.807C193.49 151.469 198.141 151.427 202.755 150.989C204.104 150.859 204.745 152.177 205.88 151.927C206.875 151.708 207.307 150.568 208.552 150.432C215.13 149.698 221.693 148.807 228.255 147.943C229.375 147.797 230.245 147.729 230.818 149.078C231.234 150.057 232.297 149.937 232.62 148.87C232.938 147.818 233.427 147.401 234.484 147.276C239.875 146.661 245.057 145.062 250.302 143.797C251.776 143.437 252.922 143.302 253.859 144.703C254.245 145.276 254.859 145.635 255.568 145.755C256.057 145.838 256.484 145.739 256.755 145.297C256.974 144.932 256.87 144.568 256.672 144.224C256.307 143.557 255.526 143.219 255.276 142.463C255.333 142.396 255.38 142.328 255.438 142.286C257.427 140.765 259.219 141.25 261.078 142.656C262.641 143.844 264.375 144.786 266 145.818C265.776 146.667 265.354 147.187 264.859 147.672C264.198 148.323 263.573 149.146 262.714 147.864C262.5 147.547 262.083 147.469 261.698 147.417C260.323 147.234 259.854 147.885 260.375 149.265C260.448 149.463 260.495 149.672 260.563 149.896C259.609 150.542 258.552 150.703 257.511 150.87C250.151 152.057 242.787 153.208 235.427 154.401C234.37 154.573 233.526 154.594 232.953 153.453C232.677 152.906 232.016 152.661 231.359 152.917C230.75 153.156 230.636 153.656 230.813 154.234C231.068 155.073 230.464 155.109 229.932 155.161C227.818 155.359 225.698 155.609 223.573 155.713C218.938 155.932 214.302 156.062 209.667 156.26C208.771 156.297 208.156 156.219 208.318 155.078C208.365 154.719 208.25 154.318 208.141 153.958C207.974 153.401 207.583 153.031 206.974 153.068C206.359 153.099 206.011 153.505 205.948 154.104C205.865 154.911 206.203 155.953 205.38 156.406C204.693 156.792 203.771 156.76 202.948 156.885C199.938 157.344 196.932 157.792 193.917 158.245C191.505 156.031 188.333 156.661 185.505 156.005ZM158.219 154.76C157.307 154.792 156.401 154.854 155.49 154.87C152.005 154.917 148.516 154.974 145.031 154.974C143.792 154.974 142.563 154.823 142.115 153.344C140.776 153.068 139.484 153.739 138.146 153.547C138.396 155.255 138.297 155.474 137 155.958C136 156.333 134.948 156.417 133.886 156.411C131.927 156.406 129.964 156.432 128.005 156.364C127.13 156.333 126.693 156.568 126.844 157.495C127.412 158.198 128.136 158.375 129.042 158.427C137.839 158.911 146.609 158.302 155.386 157.917C157.307 157.833 159.349 158.01 161.193 157.114C160.672 154.687 160.672 154.682 158.219 154.76ZM182.865 153.729C182.891 152.719 182.391 152.364 181.427 152.526C180.901 152.62 180.37 152.656 179.844 152.739C174.958 153.521 170.052 154.125 165.115 154.443C163.156 154.568 163.156 154.588 163.719 156.557C164.333 157.484 165.224 157.318 166.151 157.25C170.87 156.885 175.594 156.562 180.323 156.245C181.224 156.182 182.146 156.286 182.854 155.552C182.859 154.948 182.849 154.338 182.865 153.729Z" fill="#9D743B"/>
</g>
</g>
</g>
<mask id="mask76_47_13822" style="mask-type:luminance" maskUnits="userSpaceOnUse" x="60" y="77" width="135" height="86">
<path d="M60 77.3335H194.667V162.667H60V77.3335Z" fill="white"/>
</mask>
<g mask="url(#mask76_47_13822)">
<mask id="mask77_47_13822" style="mask-type:luminance" maskUnits="userSpaceOnUse" x="55" y="50" width="226" height="169">
<path d="M90.724 50L280.823 112.151L246.021 218.604L55.9219 156.453L90.724 50Z" fill="white"/>
</mask>
<g mask="url(#mask77_47_13822)">
<mask id="mask78_47_13822" style="mask-type:luminance" maskUnits="userSpaceOnUse" x="55" y="50" width="226" height="169">
<path d="M90.724 50L280.823 112.151L246.021 218.604L55.9219 156.453L90.724 50Z" fill="white"/>
</mask>
<g mask="url(#mask78_47_13822)">
<path d="M185.505 156.005C187.068 155.698 188.625 155.813 190.198 155.88C191.604 155.943 192.677 156.308 193.276 157.662C193.385 157.906 193.703 158.052 193.922 158.245C186.885 159.511 179.786 160.24 172.635 160.375C169.901 160.427 167.099 160.917 164.448 160.495C161.828 160.078 159.542 161.125 157.068 161.167C154.489 161.214 151.911 161.459 149.333 161.636C142.193 162.136 135.047 161.875 127.906 161.922C120.609 161.969 113.312 162.266 106.016 162.417C104.349 162.453 102.578 162.688 101.031 162.219C99.5103 161.761 98.177 161.214 96.677 162.042C89.0103 161.599 81.3905 160.844 74.0103 158.537C73.8645 158.495 73.7238 158.422 73.5884 158.365L73.5988 158.396C74.177 157.906 74.2707 157.287 74.2603 156.552C74.2499 155.959 74.4738 155.365 74.6093 154.693C75.2863 154.36 76.0259 154.531 76.7655 154.589C82.8905 155.068 88.9843 155.969 95.1353 156.13C96.0259 156.151 96.3853 156.422 96.3853 157.287C96.3853 157.584 96.4426 157.901 96.552 158.177C96.7655 158.729 97.2082 159.016 97.7968 158.995C98.4999 158.969 98.5936 158.422 98.6874 157.875C98.9947 156.136 99.0051 156.058 100.739 156.12C108.109 156.401 115.484 156.198 122.854 156.281C124.474 156.297 124.5 156.344 124.422 158C124.396 158.604 124.213 159.224 124.297 159.813C124.385 160.485 124.646 161.24 125.547 161.141C126.286 161.058 126.771 160.651 126.724 159.761C126.682 159.011 126.797 158.255 126.844 157.5C135.271 158.422 143.687 157.766 152.109 157.495C155.141 157.396 158.146 156.745 161.193 157.12C162.969 157.886 162.969 157.886 163.724 156.563C169.672 156.651 175.562 155.75 181.495 155.547C181.948 155.526 182.401 155.406 182.854 155.558C182.885 155.625 182.932 155.688 182.948 155.761C183.104 156.594 182.776 157.761 184.062 157.901C185.427 158.047 185.161 156.75 185.505 156.005ZM73.5936 158.391C72.3072 158.12 71.4738 157.516 71.9061 156.021C72.2291 154.896 71.7707 154.229 70.6718 154.058C67.9791 153.63 65.2916 153.193 62.5832 152.891C61.3384 152.75 60.8436 153.74 61.5311 154.854C62.1093 155.792 63.0259 156.318 64.0468 156.703C66.052 157.464 68.1718 157.714 70.2655 157.985C71.3593 158.125 72.4166 158.86 73.5832 158.365L73.5936 158.391ZM170.333 80.1148C170.588 79.7085 170.766 79.271 170.229 78.9481C168.651 78.0106 166.776 79.3127 165.167 78.271C164.703 77.969 164.135 78.4221 163.739 78.7606C163.016 79.37 161.646 79.646 161.776 80.7138C161.906 81.7919 163.292 81.7815 164.062 82.1721C166.396 82.9638 169.135 82.0419 170.333 80.1148ZM120.87 139.193C122.745 139.906 124.739 139.964 126.703 140.11C131.167 140.438 135.625 141.125 140.114 140.438C142.375 140.089 144.651 139.948 146.937 139.964C149.38 139.979 151.807 139.729 154.141 138.943C154.979 138.662 155.87 138.412 156.109 137.365C155.12 136.573 154.031 136.646 152.979 136.745C150.255 137.011 147.516 137.203 144.818 137.662C139.755 138.521 134.698 138.599 129.588 138.235C126.354 138 123.088 137.865 119.693 138.198C119.948 139.068 120.474 139.042 120.87 139.193ZM140.62 120.302C139.25 120.261 137.885 120.266 136.521 120.188C130.068 119.808 123.625 120.709 117.172 120.308C116.594 120.271 115.859 120.281 115.719 121.078C115.594 121.802 116.125 122.156 116.713 122.422C117.995 123 119.354 123.125 120.729 123.047C124.984 122.818 129.239 122.964 133.489 122.974C135.312 122.979 137.141 122.865 138.943 122.568C140.229 122.354 141.37 121.875 142.453 120.959C141.802 120.459 141.229 120.323 140.62 120.302ZM123.328 129.037C118.885 128.505 114.463 127.818 110.036 127.188C108.896 127.021 107.833 126.63 106.713 126.448C106.245 126.37 105.792 126.49 105.557 126.969C105.323 127.464 105.599 127.828 105.917 128.183C106.396 128.719 107.047 128.938 107.687 129.172C109.833 129.959 112.052 130.448 114.312 130.813C118.594 131.495 122.896 131.818 127.224 131.526C128.021 131.474 128.896 131.479 129.588 130.537C127.401 130 125.391 129.287 123.328 129.037ZM112.172 136.828C110.25 136.099 108.297 135.563 106.229 135.287C103.453 134.912 100.713 134.24 97.9582 133.683C97.328 133.558 96.6666 133.511 96.302 134.084C95.8801 134.74 96.4582 135.214 96.8697 135.636C97.1822 135.959 97.5416 136.281 97.9426 136.464C102.656 138.61 107.568 139.183 112.651 138.255C112.849 138.219 113.021 138.026 113.271 137.86C113.031 137.172 112.599 136.995 112.172 136.828ZM95.3905 142.026C92.4843 141.531 89.5363 141.276 86.6041 140.922C86.2343 140.88 85.8332 140.792 85.578 141.177C85.2759 141.636 85.4738 142.058 85.7551 142.427C86.1249 142.912 86.6197 143.261 87.1301 143.599C90.427 145.776 94.0884 145.995 97.8541 145.615C98.5207 145.547 99.177 145.323 99.6093 144.505C98.328 143.438 97.0416 142.308 95.3905 142.026ZM126.021 145.813C119.552 145.354 113.073 145.13 106.469 145.276C106.833 146.308 107.583 146.334 108.219 146.459C110.151 146.839 112.083 147.198 114.031 147.495C117.568 148.042 121.12 148.318 124.682 147.724C125.578 147.578 126.5 147.49 127.193 146.709C126.922 146.016 126.463 145.844 126.021 145.813ZM145.333 132.375C146.213 132.266 147.437 132.084 147.37 130.99C147.302 129.875 146.151 129.61 145.109 129.584C144.88 129.578 144.651 129.547 144.427 129.558C141.625 129.672 138.828 129.781 136.031 129.922C135.51 129.948 134.948 129.974 134.521 130.334C134.026 130.75 133.922 131.219 134.562 131.604C134.818 131.761 135.12 131.839 135.781 132.115C138.703 132.37 142.005 132.792 145.333 132.375ZM146.911 145.146C143.219 145.406 139.521 145.672 135.828 145.933C135.135 145.985 134.37 145.896 133.911 146.823C134.328 146.959 134.604 147.12 134.891 147.13C139.266 147.313 143.646 147.302 148.005 146.823C149.005 146.709 150.135 146.511 150.812 145.167C149.401 144.464 148.151 145.058 146.911 145.146ZM148.625 119.125C147.911 119.375 147.552 119.964 147.651 120.724C147.755 121.526 148.385 121.964 149.073 121.927C151.114 121.834 153.016 121.334 154.458 119.505C152.417 118.323 150.526 118.459 148.625 119.125ZM153.114 129.406C152.713 129.584 152.239 129.802 152.432 130.386C152.562 130.781 152.937 130.964 153.328 130.948C155.953 130.834 158.516 130.443 160.792 128.849C158.151 128.209 155.594 128.313 153.114 129.406Z" fill="#604428"/>
</g>
</g>
</g>
</svg>
