<svg width="426" height="344" viewBox="0 0 426 344" fill="none" xmlns="http://www.w3.org/2000/svg">
<mask id="mask0_47_13835" style="mask-type:luminance" maskUnits="userSpaceOnUse" x="56" y="201" width="126" height="42">
<path d="M56.4739 201.26H181.474V242.26H56.4739V201.26Z" fill="white"/>
</mask>
<g mask="url(#mask0_47_13835)">
<path d="M160.974 242.156H77.0156C65.7812 242.156 56.6719 233.046 56.6719 221.812C56.6719 210.578 65.7812 201.468 77.0156 201.468H160.974C172.208 201.468 181.318 210.578 181.318 221.812C181.318 233.046 172.208 242.156 160.974 242.156Z" fill="#604428"/>
<path d="M160.974 242.354H77.0155C65.6822 242.354 56.4739 233.146 56.4739 221.812C56.4739 210.479 65.6822 201.271 77.0155 201.271H160.974C172.307 201.271 181.521 210.479 181.521 221.812C181.521 233.146 172.307 242.354 160.974 242.354ZM77.0155 201.666C65.901 201.666 56.8697 210.698 56.8697 221.812C56.8697 232.927 65.901 241.958 77.0155 241.958H160.974C172.088 241.958 181.12 232.927 181.12 221.812C181.12 210.698 172.088 201.666 160.974 201.666H77.0155Z" fill="#604428"/>
</g>
<mask id="mask1_47_13835" style="mask-type:luminance" maskUnits="userSpaceOnUse" x="25" y="162" width="150" height="50">
<path d="M25.8281 162.932H174.828V211.932H25.8281V162.932Z" fill="white"/>
</mask>
<g mask="url(#mask1_47_13835)">
<path d="M150.026 211.531H50.2447C36.8905 211.531 26.0676 200.708 26.0676 187.354C26.0676 174.005 36.8905 163.177 50.2447 163.177H150.026C163.375 163.177 174.203 174.005 174.203 187.354C174.203 200.708 163.375 211.531 150.026 211.531Z" fill="#604428"/>
<path d="M150.026 211.771H50.2448C36.776 211.771 25.8281 200.823 25.8281 187.354C25.8281 173.885 36.776 162.942 50.2448 162.942H150.026C163.495 162.942 174.438 173.885 174.438 187.354C174.438 200.823 163.495 211.771 150.026 211.771ZM50.2448 163.411C37.0365 163.411 26.3021 174.146 26.3021 187.354C26.3021 200.562 37.0365 211.297 50.2448 211.297H150.026C163.234 211.297 173.969 200.562 173.969 187.354C173.969 174.146 163.234 163.411 150.026 163.411H50.2448Z" fill="#604428"/>
</g>
<mask id="mask2_47_13835" style="mask-type:luminance" maskUnits="userSpaceOnUse" x="0" y="131" width="150" height="50">
<path d="M0.578125 131.562H149.578V180.562H0.578125V131.562Z" fill="white"/>
</mask>
<g mask="url(#mask2_47_13835)">
<path d="M124.776 180.162H24.9948C11.6406 180.162 0.8125 169.334 0.8125 155.985C0.8125 142.631 11.6406 131.808 24.9948 131.808H124.776C138.125 131.808 148.953 142.631 148.953 155.985C148.953 169.334 138.125 180.162 124.776 180.162Z" fill="#604428"/>
<path d="M124.776 180.396H24.9948C11.526 180.396 0.578125 169.453 0.578125 155.985C0.578125 142.516 11.526 131.568 24.9948 131.568H124.776C138.245 131.568 149.188 142.516 149.188 155.985C149.188 169.453 138.245 180.396 124.776 180.396ZM24.9948 132.042C11.7812 132.042 1.05208 142.776 1.05208 155.985C1.05208 169.193 11.7812 179.927 24.9948 179.927H124.776C137.984 179.927 148.719 169.193 148.719 155.985C148.719 142.776 137.984 132.042 124.776 132.042H24.9948Z" fill="#604428"/>
</g>
<mask id="mask3_47_13835" style="mask-type:luminance" maskUnits="userSpaceOnUse" x="243" y="201" width="125" height="42">
<path d="M243 201.26H367.859V242.26H243V201.26Z" fill="white"/>
</mask>
<g mask="url(#mask3_47_13835)">
<path d="M263.401 242.156H347.365C358.599 242.156 367.708 233.047 367.708 221.812C367.708 210.578 358.599 201.469 347.365 201.469H263.401C252.167 201.469 243.057 210.578 243.057 221.812C243.057 233.047 252.167 242.156 263.401 242.156Z" fill="#604428"/>
</g>
<mask id="mask4_47_13835" style="mask-type:luminance" maskUnits="userSpaceOnUse" x="242" y="201" width="126" height="42">
<path d="M242.906 201.26H367.859V242.26H242.906V201.26Z" fill="white"/>
</mask>
<g mask="url(#mask4_47_13835)">
<path d="M263.401 242.354H347.365C358.698 242.354 367.906 233.146 367.906 221.812C367.906 210.479 358.698 201.271 347.365 201.271H263.401C252.068 201.271 242.859 210.479 242.859 221.812C242.859 233.146 252.068 242.354 263.401 242.354ZM347.365 201.666C358.479 201.666 367.51 210.698 367.51 221.812C367.51 232.927 358.479 241.958 347.365 241.958H263.401C252.286 241.958 243.255 232.927 243.255 221.812C243.255 210.698 252.286 201.666 263.401 201.666H347.365Z" fill="#604428"/>
</g>
<mask id="mask5_47_13835" style="mask-type:luminance" maskUnits="userSpaceOnUse" x="246" y="162" width="150" height="50">
<path d="M246.672 162.932H395.281V211.932H246.672V162.932Z" fill="white"/>
</mask>
<g mask="url(#mask5_47_13835)">
<path d="M271.083 211.531H370.865C384.219 211.531 395.042 200.708 395.042 187.354C395.042 174.005 384.219 163.177 370.865 163.177H271.083C257.734 163.177 246.906 174.005 246.906 187.354C246.906 200.708 257.734 211.531 271.083 211.531Z" fill="#604428"/>
<path d="M271.083 211.771H370.865C384.333 211.771 395.281 200.823 395.281 187.354C395.281 173.885 384.333 162.942 370.865 162.942H271.083C257.615 162.942 246.672 173.885 246.672 187.354C246.672 200.823 257.615 211.771 271.083 211.771ZM370.865 163.411C384.073 163.411 394.807 174.146 394.807 187.354C394.807 200.562 384.073 211.297 370.865 211.297H271.083C257.875 211.297 247.141 200.562 247.141 187.354C247.141 174.146 257.875 163.411 271.083 163.411H370.865Z" fill="#604428"/>
</g>
<mask id="mask6_47_13835" style="mask-type:luminance" maskUnits="userSpaceOnUse" x="276" y="131" width="150" height="50">
<path d="M276.807 131.562H425.417V180.562H276.807V131.562Z" fill="white"/>
</mask>
<g mask="url(#mask6_47_13835)">
<path d="M301.224 180.162H401.005C414.354 180.162 425.182 169.334 425.182 155.985C425.182 142.631 414.354 131.808 401.005 131.808H301.224C287.87 131.808 277.047 142.631 277.047 155.985C277.047 169.334 287.87 180.162 301.224 180.162Z" fill="#604428"/>
<path d="M301.224 180.396H401.005C414.474 180.396 425.417 169.453 425.417 155.985C425.417 142.516 414.474 131.568 401.005 131.568H301.224C287.755 131.568 276.807 142.516 276.807 155.985C276.807 169.453 287.755 180.396 301.224 180.396ZM401.005 132.042C414.214 132.042 424.948 142.776 424.948 155.985C424.948 169.193 414.214 179.927 401.005 179.927H301.224C288.016 179.927 277.281 169.193 277.281 155.985C277.281 142.776 288.016 132.042 301.224 132.042H401.005Z" fill="#604428"/>
</g>
<mask id="mask7_47_13835" style="mask-type:luminance" maskUnits="userSpaceOnUse" x="227" y="262" width="9" height="60">
<path d="M227.958 262.167H235.958V321.167H227.958V262.167Z" fill="white"/>
</mask>
<g mask="url(#mask7_47_13835)">
<path d="M227.974 266.479V270.708H227.984V312.708H227.974V316.937C227.974 319.271 229.87 321.167 232.203 321.167C234.536 321.167 236.432 319.271 236.432 316.937V266.479C236.432 264.146 234.547 262.245 232.213 262.245C229.88 262.245 227.974 264.146 227.974 266.479Z" fill="#FCD590"/>
</g>
<path d="M230.083 302.266V316.938C230.083 317.526 230.552 318 231.146 318C231.734 318 232.203 317.526 232.203 316.938V312.708H232.193V302.276C232.193 301.688 231.719 301.219 231.13 301.219C230.542 301.219 230.083 301.687 230.083 302.266Z" fill="#FCD590"/>
<mask id="mask8_47_13835" style="mask-type:luminance" maskUnits="userSpaceOnUse" x="186" y="259" width="9" height="60">
<path d="M186.453 259.766H194.453V318.766H186.453V259.766Z" fill="white"/>
</mask>
<g mask="url(#mask8_47_13835)">
<path d="M186.469 264.078V268.307H186.479V310.307H186.469V314.536C186.469 316.87 188.365 318.766 190.698 318.766C193.031 318.766 194.927 316.87 194.927 314.536V264.078C194.927 261.745 193.042 259.844 190.708 259.844C188.375 259.844 186.469 261.745 186.469 264.078Z" fill="#FCD590"/>
</g>
<path d="M188.578 299.865V314.537C188.578 315.125 189.047 315.599 189.641 315.599C190.229 315.599 190.698 315.125 190.698 314.537V310.307H190.688V299.88C190.688 299.287 190.214 298.818 189.625 298.818C189.036 298.818 188.578 299.287 188.578 299.865Z" fill="#FCD590"/>
<mask id="mask9_47_13835" style="mask-type:luminance" maskUnits="userSpaceOnUse" x="164" y="296" width="42" height="41">
<path d="M164.333 296.667H205.667V336.667H164.333V296.667Z" fill="white"/>
</mask>
<g mask="url(#mask9_47_13835)">
<mask id="mask10_47_13835" style="mask-type:luminance" maskUnits="userSpaceOnUse" x="162" y="294" width="45" height="44">
<path d="M201.245 337.224L162.797 300.744L168.302 294.942L206.755 331.416L201.245 337.224Z" fill="white"/>
</mask>
<g mask="url(#mask10_47_13835)">
<mask id="mask11_47_13835" style="mask-type:luminance" maskUnits="userSpaceOnUse" x="162" y="294" width="45" height="44">
<path d="M201.245 337.224L162.797 300.744L168.302 294.942L206.755 331.416L201.245 337.224Z" fill="white"/>
</mask>
<g mask="url(#mask11_47_13835)">
<path d="M165.651 303.432L168.406 306.047L168.411 306.041L195.755 331.979L195.75 331.984L198.5 334.599C200.021 336.041 202.427 335.979 203.87 334.458C205.312 332.937 205.245 330.531 203.729 329.088L170.875 297.927C169.359 296.484 166.958 296.541 165.515 298.057C164.073 299.578 164.13 301.994 165.651 303.432Z" fill="#FCD590"/>
</g>
</g>
</g>
<mask id="mask12_47_13835" style="mask-type:luminance" maskUnits="userSpaceOnUse" x="189" y="322" width="13" height="12">
<path d="M189.667 322H201.667V334H189.667V322Z" fill="white"/>
</mask>
<g mask="url(#mask12_47_13835)">
<mask id="mask13_47_13835" style="mask-type:luminance" maskUnits="userSpaceOnUse" x="162" y="294" width="45" height="44">
<path d="M201.245 337.224L162.797 300.745L168.302 294.943L206.755 331.417L201.245 337.224Z" fill="white"/>
</mask>
<g mask="url(#mask13_47_13835)">
<mask id="mask14_47_13835" style="mask-type:luminance" maskUnits="userSpaceOnUse" x="162" y="294" width="45" height="44">
<path d="M201.245 337.224L162.797 300.745L168.302 294.943L206.755 331.417L201.245 337.224Z" fill="white"/>
</mask>
<g mask="url(#mask14_47_13835)">
<path d="M190.255 324.167L199.802 333.224C200.188 333.589 200.786 333.573 201.151 333.193C201.516 332.807 201.5 332.209 201.115 331.844L198.359 329.235L198.354 329.24L191.563 322.797C191.182 322.432 190.583 322.448 190.219 322.834C189.854 323.219 189.875 323.807 190.255 324.167Z" fill="#FCD590"/>
</g>
</g>
</g>
<mask id="mask15_47_13835" style="mask-type:luminance" maskUnits="userSpaceOnUse" x="157" y="310" width="54" height="19">
<path d="M157.667 310H211V328.667H157.667V310Z" fill="white"/>
</mask>
<g mask="url(#mask15_47_13835)">
<mask id="mask16_47_13835" style="mask-type:luminance" maskUnits="userSpaceOnUse" x="157" y="309" width="55" height="20">
<path d="M211.323 317.38L159.568 328.812L157.844 321L209.594 309.573L211.323 317.38Z" fill="white"/>
</mask>
<g mask="url(#mask16_47_13835)">
<mask id="mask17_47_13835" style="mask-type:luminance" maskUnits="userSpaceOnUse" x="157" y="309" width="55" height="20">
<path d="M211.323 317.38L159.568 328.812L157.844 321L209.594 309.573L211.323 317.38Z" fill="white"/>
</mask>
<g mask="url(#mask17_47_13835)">
<path d="M163.396 327.953L167.104 327.135L167.099 327.125L203.901 318.995L203.906 319.005L207.609 318.188C209.656 317.734 210.953 315.708 210.5 313.661C210.047 311.615 208.021 310.323 205.974 310.771L161.755 320.542C159.714 320.99 158.417 323.01 158.865 325.057C159.318 327.099 161.349 328.406 163.396 327.953Z" fill="#FCD590"/>
</g>
</g>
</g>
<mask id="mask18_47_13835" style="mask-type:luminance" maskUnits="userSpaceOnUse" x="192" y="314" width="17" height="6">
<path d="M192.333 314H208.333V319.333H192.333V314Z" fill="white"/>
</mask>
<g mask="url(#mask18_47_13835)">
<mask id="mask19_47_13835" style="mask-type:luminance" maskUnits="userSpaceOnUse" x="157" y="309" width="55" height="20">
<path d="M211.323 317.38L159.568 328.812L157.844 321L209.594 309.573L211.323 317.38Z" fill="white"/>
</mask>
<g mask="url(#mask19_47_13835)">
<mask id="mask20_47_13835" style="mask-type:luminance" maskUnits="userSpaceOnUse" x="157" y="309" width="55" height="20">
<path d="M211.323 317.38L159.568 328.812L157.844 321L209.594 309.573L211.323 317.38Z" fill="white"/>
</mask>
<g mask="url(#mask20_47_13835)">
<path d="M194.349 319.177L207.203 316.339C207.719 316.224 208.042 315.719 207.927 315.203C207.813 314.687 207.307 314.365 206.792 314.479L203.083 315.297L203.089 315.307L193.948 317.328C193.432 317.443 193.109 317.948 193.224 318.464C193.339 318.979 193.839 319.292 194.349 319.177Z" fill="#FCD590"/>
</g>
</g>
</g>
<mask id="mask21_47_13835" style="mask-type:luminance" maskUnits="userSpaceOnUse" x="215" y="303" width="43" height="41">
<path d="M215 303.333H257.667V343.333H215V303.333Z" fill="white"/>
</mask>
<g mask="url(#mask21_47_13835)">
<mask id="mask22_47_13835" style="mask-type:luminance" maskUnits="userSpaceOnUse" x="214" y="302" width="45" height="43">
<path d="M219.875 302.016L258.328 338.49L252.823 344.292L214.37 307.818L219.875 302.016Z" fill="white"/>
</mask>
<g mask="url(#mask22_47_13835)">
<mask id="mask23_47_13835" style="mask-type:luminance" maskUnits="userSpaceOnUse" x="214" y="301" width="45" height="44">
<path d="M258.24 338.406L219.786 301.927L214.281 307.729L252.729 344.208L258.24 338.406Z" fill="white"/>
</mask>
<g mask="url(#mask23_47_13835)">
<path d="M222.62 304.636L225.375 307.25L225.37 307.255L252.713 333.198L252.719 333.188L255.474 335.802C256.995 337.24 257.057 339.651 255.614 341.167C254.172 342.688 251.766 342.75 250.25 341.307L217.396 310.146C215.88 308.703 215.807 306.302 217.25 304.787C218.687 303.266 221.104 303.193 222.62 304.636Z" fill="#FCD590"/>
</g>
</g>
</g>
<mask id="mask24_47_13835" style="mask-type:luminance" maskUnits="userSpaceOnUse" x="243" y="327" width="12" height="13">
<path d="M243 327.333H255V339.333H243V327.333Z" fill="white"/>
</mask>
<g mask="url(#mask24_47_13835)">
<mask id="mask25_47_13835" style="mask-type:luminance" maskUnits="userSpaceOnUse" x="214" y="302" width="45" height="43">
<path d="M219.875 302.016L258.328 338.49L252.823 344.292L214.37 307.818L219.875 302.016Z" fill="white"/>
</mask>
<g mask="url(#mask25_47_13835)">
<mask id="mask26_47_13835" style="mask-type:luminance" maskUnits="userSpaceOnUse" x="214" y="301" width="45" height="44">
<path d="M258.24 338.406L219.786 301.927L214.281 307.729L252.729 344.208L258.24 338.406Z" fill="white"/>
</mask>
<g mask="url(#mask26_47_13835)">
<path d="M244.62 328.115L254.172 337.172C254.552 337.537 254.568 338.136 254.208 338.521C253.844 338.901 253.245 338.917 252.859 338.558L250.104 335.943L250.115 335.933L243.323 329.495C242.943 329.131 242.927 328.532 243.287 328.146C243.651 327.766 244.245 327.756 244.62 328.115Z" fill="#FCD590"/>
</g>
</g>
</g>
<mask id="mask27_47_13835" style="mask-type:luminance" maskUnits="userSpaceOnUse" x="209" y="310" width="54" height="19">
<path d="M209.667 310H263V328.667H209.667V310Z" fill="white"/>
</mask>
<g mask="url(#mask27_47_13835)">
<mask id="mask28_47_13835" style="mask-type:luminance" maskUnits="userSpaceOnUse" x="209" y="310" width="55" height="20">
<path d="M209.802 321.854L261.557 310.422L263.281 318.234L211.526 329.667L209.802 321.854Z" fill="white"/>
</mask>
<g mask="url(#mask28_47_13835)">
<mask id="mask29_47_13835" style="mask-type:luminance" maskUnits="userSpaceOnUse" x="209" y="310" width="55" height="20">
<path d="M261.432 310.448L209.682 321.88L211.406 329.693L263.162 318.26L261.432 310.448Z" fill="white"/>
</mask>
<g mask="url(#mask29_47_13835)">
<path d="M213.511 321.047L217.219 320.229L217.224 320.24L254.026 312.109L254.021 312.099L257.729 311.281C259.776 310.828 261.802 312.125 262.255 314.172C262.708 316.214 261.412 318.245 259.365 318.698L215.151 328.464C213.104 328.911 211.078 327.63 210.625 325.583C210.177 323.536 211.469 321.5 213.511 321.047Z" fill="#FCD590"/>
</g>
</g>
</g>
<mask id="mask30_47_13835" style="mask-type:luminance" maskUnits="userSpaceOnUse" x="244" y="312" width="17" height="6">
<path d="M244.333 312.667H260.333V318H244.333V312.667Z" fill="white"/>
</mask>
<g mask="url(#mask30_47_13835)">
<mask id="mask31_47_13835" style="mask-type:luminance" maskUnits="userSpaceOnUse" x="209" y="310" width="55" height="20">
<path d="M209.802 321.854L261.557 310.422L263.281 318.234L211.526 329.667L209.802 321.854Z" fill="white"/>
</mask>
<g mask="url(#mask31_47_13835)">
<mask id="mask32_47_13835" style="mask-type:luminance" maskUnits="userSpaceOnUse" x="209" y="310" width="55" height="20">
<path d="M261.432 310.448L209.682 321.88L211.406 329.693L263.161 318.26L261.432 310.448Z" fill="white"/>
</mask>
<g mask="url(#mask32_47_13835)">
<path d="M245.281 315.969L258.135 313.13C258.656 313.015 259.156 313.338 259.271 313.854C259.385 314.37 259.062 314.875 258.547 314.989L254.838 315.807V315.797L245.698 317.818C245.182 317.927 244.677 317.609 244.568 317.094C244.453 316.573 244.776 316.083 245.281 315.969Z" fill="#FCD590"/>
</g>
</g>
</g>
<mask id="mask33_47_13835" style="mask-type:luminance" maskUnits="userSpaceOnUse" x="123" y="120" width="178" height="177">
<path d="M123.01 120.01H300.01V296.667H123.01V120.01Z" fill="white"/>
</mask>
<g mask="url(#mask33_47_13835)">
<path d="M299.651 208.333C299.651 209.776 299.615 211.224 299.542 212.667C299.474 214.109 299.365 215.552 299.224 216.989C299.083 218.427 298.906 219.864 298.693 221.292C298.479 222.724 298.234 224.146 297.953 225.562C297.672 226.979 297.354 228.39 297 229.792C296.651 231.193 296.266 232.588 295.844 233.969C295.427 235.354 294.974 236.724 294.484 238.088C294 239.448 293.479 240.797 292.927 242.13C292.375 243.469 291.787 244.786 291.167 246.094C290.552 247.401 289.901 248.693 289.219 249.969C288.537 251.239 287.828 252.5 287.083 253.739C286.339 254.979 285.568 256.198 284.766 257.401C283.964 258.604 283.13 259.786 282.266 260.943C281.406 262.104 280.516 263.245 279.599 264.364C278.682 265.479 277.74 266.573 276.771 267.646C275.797 268.713 274.802 269.76 273.781 270.786C272.76 271.807 271.714 272.802 270.641 273.776C269.568 274.745 268.474 275.687 267.359 276.604C266.24 277.521 265.104 278.411 263.943 279.271C262.781 280.135 261.599 280.963 260.396 281.771C259.193 282.573 257.974 283.344 256.734 284.088C255.495 284.828 254.24 285.542 252.964 286.224C251.688 286.906 250.396 287.557 249.089 288.172C247.781 288.792 246.464 289.375 245.125 289.932C243.792 290.484 242.443 291.005 241.083 291.489C239.724 291.979 238.349 292.432 236.969 292.849C235.583 293.271 234.193 293.656 232.787 294.005C231.385 294.359 229.979 294.672 228.557 294.958C227.141 295.239 225.719 295.484 224.287 295.698C222.859 295.911 221.422 296.083 219.984 296.229C218.547 296.37 217.104 296.474 215.662 296.547C214.219 296.62 212.776 296.651 211.328 296.651C209.885 296.651 208.438 296.62 206.995 296.547C205.552 296.474 204.109 296.37 202.672 296.229C201.234 296.088 199.797 295.911 198.37 295.698C196.938 295.484 195.516 295.239 194.099 294.958C192.682 294.672 191.271 294.359 189.87 294.005C188.469 293.656 187.073 293.271 185.693 292.849C184.307 292.432 182.938 291.979 181.573 291.489C180.214 291.005 178.865 290.484 177.531 289.932C176.193 289.375 174.875 288.792 173.568 288.172C172.26 287.557 170.969 286.906 169.693 286.224C168.422 285.542 167.162 284.828 165.922 284.088C164.682 283.344 163.464 282.573 162.26 281.771C161.057 280.963 159.875 280.135 158.719 279.271C157.557 278.411 156.417 277.521 155.297 276.604C154.182 275.687 153.089 274.745 152.016 273.776C150.943 272.802 149.901 271.807 148.875 270.786C147.854 269.76 146.859 268.713 145.885 267.646C144.917 266.573 143.974 265.479 143.057 264.364C142.141 263.245 141.25 262.104 140.391 260.943C139.526 259.786 138.698 258.604 137.891 257.401C137.089 256.198 136.318 254.979 135.573 253.739C134.828 252.5 134.12 251.239 133.438 249.969C132.755 248.693 132.104 247.401 131.49 246.094C130.87 244.786 130.287 243.469 129.729 242.13C129.177 240.797 128.656 239.448 128.172 238.088C127.682 236.724 127.229 235.354 126.813 233.969C126.391 232.588 126.005 231.193 125.656 229.792C125.302 228.39 124.99 226.979 124.703 225.562C124.422 224.146 124.177 222.724 123.964 221.292C123.75 219.864 123.573 218.427 123.432 216.989C123.292 215.552 123.188 214.109 123.115 212.667C123.042 211.224 123.01 209.776 123.01 208.333C123.01 206.885 123.042 205.443 123.115 204C123.188 202.557 123.292 201.114 123.432 199.677C123.573 198.239 123.75 196.802 123.964 195.375C124.177 193.943 124.422 192.521 124.703 191.104C124.99 189.682 125.302 188.276 125.656 186.875C126.005 185.469 126.391 184.078 126.813 182.693C127.229 181.312 127.682 179.937 128.172 178.578C128.656 177.219 129.177 175.87 129.729 174.536C130.287 173.198 130.87 171.875 131.49 170.573C132.104 169.265 132.755 167.974 133.438 166.698C134.12 165.422 134.828 164.167 135.573 162.927C136.318 161.687 137.089 160.469 137.891 159.265C138.698 158.062 139.526 156.88 140.391 155.719C141.25 154.557 142.141 153.422 143.057 152.302C143.974 151.187 144.917 150.094 145.885 149.021C146.859 147.948 147.854 146.901 148.875 145.88C149.901 144.859 150.943 143.864 152.016 142.89C153.089 141.922 154.182 140.979 155.297 140.062C156.417 139.14 157.557 138.255 158.719 137.39C159.875 136.531 161.057 135.698 162.26 134.896C163.464 134.094 164.682 133.323 165.922 132.578C167.162 131.833 168.422 131.125 169.693 130.443C170.969 129.76 172.26 129.109 173.568 128.489C174.875 127.875 176.193 127.286 177.531 126.734C178.865 126.182 180.214 125.661 181.573 125.177C182.938 124.687 184.307 124.234 185.693 123.818C187.073 123.396 188.469 123.01 189.87 122.661C191.271 122.307 192.682 121.989 194.099 121.708C195.516 121.427 196.938 121.182 198.37 120.969C199.797 120.755 201.234 120.578 202.672 120.437C204.109 120.297 205.552 120.187 206.995 120.12C208.438 120.047 209.885 120.01 211.328 120.01C212.776 120.01 214.219 120.047 215.662 120.12C217.104 120.187 218.547 120.297 219.984 120.437C221.422 120.578 222.859 120.755 224.287 120.969C225.719 121.182 227.141 121.427 228.557 121.708C229.979 121.989 231.385 122.307 232.787 122.661C234.193 123.01 235.583 123.396 236.969 123.818C238.349 124.234 239.724 124.687 241.083 125.177C242.443 125.661 243.792 126.182 245.125 126.734C246.464 127.286 247.781 127.875 249.089 128.489C250.396 129.109 251.688 129.76 252.964 130.443C254.24 131.125 255.495 131.833 256.734 132.578C257.974 133.323 259.193 134.094 260.396 134.896C261.599 135.698 262.781 136.531 263.943 137.39C265.104 138.255 266.24 139.14 267.359 140.062C268.474 140.979 269.568 141.922 270.641 142.89C271.714 143.864 272.76 144.859 273.781 145.88C274.802 146.901 275.797 147.948 276.771 149.021C277.74 150.094 278.682 151.187 279.599 152.302C280.516 153.422 281.406 154.557 282.266 155.719C283.13 156.88 283.964 158.062 284.766 159.265C285.568 160.469 286.339 161.687 287.083 162.927C287.828 164.167 288.537 165.422 289.219 166.698C289.901 167.974 290.552 169.265 291.167 170.573C291.787 171.875 292.375 173.198 292.927 174.536C293.479 175.87 294 177.219 294.484 178.578C294.974 179.937 295.427 181.312 295.844 182.693C296.266 184.078 296.651 185.469 297 186.875C297.354 188.276 297.672 189.682 297.953 191.104C298.234 192.521 298.479 193.943 298.693 195.375C298.906 196.802 299.083 198.239 299.224 199.677C299.365 201.114 299.474 202.557 299.542 204C299.615 205.443 299.651 206.885 299.651 208.333Z" fill="#A58168"/>
</g>
<mask id="mask34_47_13835" style="mask-type:luminance" maskUnits="userSpaceOnUse" x="123" y="60" width="178" height="178">
<path d="M123.01 60.4531H300.01V237.453H123.01V60.4531Z" fill="white"/>
</mask>
<g mask="url(#mask34_47_13835)">
<path d="M299.651 148.771C299.651 150.219 299.615 151.661 299.542 153.104C299.474 154.552 299.365 155.99 299.224 157.427C299.083 158.87 298.906 160.302 298.693 161.729C298.479 163.161 298.234 164.583 297.953 166.005C297.672 167.422 297.354 168.828 297 170.234C296.651 171.635 296.266 173.026 295.844 174.411C295.427 175.792 294.974 177.167 294.484 178.526C294 179.885 293.479 181.234 292.927 182.573C292.375 183.906 291.787 185.229 291.167 186.536C290.552 187.839 289.901 189.13 289.219 190.406C288.537 191.682 287.828 192.938 287.083 194.177C286.339 195.417 285.568 196.641 284.766 197.839C283.964 199.042 283.13 200.224 282.266 201.385C281.406 202.547 280.516 203.682 279.599 204.802C278.682 205.922 277.74 207.016 276.771 208.083C275.797 209.156 274.802 210.203 273.781 211.224C272.76 212.245 271.714 213.245 270.641 214.214C269.568 215.182 268.474 216.13 267.359 217.047C266.24 217.964 265.104 218.849 263.943 219.714C262.781 220.573 261.599 221.406 260.396 222.208C259.193 223.01 257.974 223.786 256.734 224.526C255.495 225.271 254.24 225.984 252.964 226.661C251.688 227.344 250.396 227.995 249.089 228.615C247.781 229.229 246.464 229.818 245.125 230.37C243.792 230.922 242.443 231.443 241.083 231.932C239.724 232.417 238.349 232.87 236.969 233.292C235.583 233.708 234.193 234.094 232.787 234.448C231.385 234.797 229.979 235.115 228.557 235.396C227.141 235.677 225.719 235.927 224.287 236.135C222.859 236.349 221.422 236.526 219.984 236.667C218.547 236.807 217.104 236.917 215.662 236.984C214.219 237.057 212.776 237.094 211.328 237.094C209.885 237.094 208.438 237.057 206.995 236.984C205.552 236.917 204.109 236.807 202.672 236.667C201.234 236.526 199.797 236.349 198.37 236.135C196.938 235.927 195.516 235.677 194.099 235.396C192.682 235.115 191.271 234.797 189.87 234.448C188.469 234.094 187.073 233.708 185.693 233.292C184.307 232.87 182.938 232.417 181.573 231.932C180.214 231.443 178.865 230.922 177.531 230.37C176.193 229.818 174.875 229.229 173.568 228.615C172.26 227.995 170.969 227.344 169.693 226.661C168.422 225.984 167.162 225.271 165.922 224.526C164.682 223.786 163.464 223.01 162.26 222.208C161.057 221.406 159.875 220.573 158.719 219.714C157.557 218.849 156.417 217.964 155.297 217.047C154.182 216.13 153.089 215.182 152.016 214.214C150.943 213.245 149.901 212.245 148.875 211.224C147.854 210.203 146.859 209.156 145.885 208.083C144.917 207.016 143.974 205.922 143.057 204.802C142.141 203.682 141.25 202.547 140.391 201.385C139.526 200.224 138.698 199.042 137.891 197.839C137.089 196.641 136.318 195.417 135.573 194.177C134.828 192.938 134.12 191.682 133.438 190.406C132.755 189.13 132.104 187.839 131.49 186.536C130.87 185.229 130.287 183.906 129.729 182.573C129.177 181.234 128.656 179.885 128.172 178.526C127.682 177.167 127.229 175.792 126.813 174.411C126.391 173.026 126.005 171.635 125.656 170.234C125.302 168.828 124.99 167.422 124.703 166.005C124.422 164.583 124.177 163.161 123.964 161.729C123.75 160.302 123.573 158.87 123.432 157.427C123.292 155.99 123.188 154.552 123.115 153.104C123.042 151.661 123.01 150.219 123.01 148.771C123.01 147.328 123.042 145.88 123.115 144.438C123.188 142.995 123.292 141.552 123.432 140.115C123.573 138.677 123.75 137.245 123.964 135.812C124.177 134.385 124.422 132.958 124.703 131.542C124.99 130.125 125.302 128.714 125.656 127.312C126.005 125.911 126.391 124.516 126.813 123.135C127.229 121.75 127.682 120.38 128.172 119.016C128.656 117.656 129.177 116.307 129.729 114.974C130.287 113.641 130.87 112.318 131.49 111.01C132.104 109.703 132.755 108.411 133.438 107.141C134.12 105.865 134.828 104.604 135.573 103.365C136.318 102.125 137.089 100.906 137.891 99.7031C138.698 98.5 139.526 97.3229 140.391 96.1615C141.25 95 142.141 93.8594 143.057 92.7448C143.974 91.625 144.917 90.5313 145.885 89.4583C146.859 88.3906 147.854 87.3438 148.875 86.3229C149.901 85.2969 150.943 84.3021 152.016 83.3333C153.089 82.3594 154.182 81.4167 155.297 80.5C156.417 79.5833 157.557 78.6927 158.719 77.8333C159.875 76.974 161.057 76.1406 162.26 75.3385C163.464 74.5313 164.682 73.7604 165.922 73.0156C167.162 72.276 168.422 71.5625 169.693 70.8802C170.969 70.1979 172.26 69.5521 173.568 68.9323C174.875 68.3125 176.193 67.7292 177.531 67.1771C178.865 66.6198 180.214 66.1042 181.573 65.6146C182.938 65.1302 184.307 64.6771 185.693 64.2552C187.073 63.8333 188.469 63.4479 189.87 63.099C191.271 62.75 192.682 62.4323 194.099 62.151C195.516 61.8646 196.938 61.6198 198.37 61.4062C199.797 61.1979 201.234 61.0208 202.672 60.875C204.109 60.7344 205.552 60.6302 206.995 60.5573C208.438 60.4896 209.885 60.4531 211.328 60.4531C212.776 60.4531 214.219 60.4896 215.662 60.5573C217.104 60.6302 218.547 60.7344 219.984 60.875C221.422 61.0208 222.859 61.1979 224.287 61.4062C225.719 61.6198 227.141 61.8646 228.557 62.151C229.979 62.4323 231.385 62.75 232.787 63.099C234.193 63.4479 235.583 63.8333 236.969 64.2552C238.349 64.6771 239.724 65.1302 241.083 65.6146C242.443 66.1042 243.792 66.6198 245.125 67.1771C246.464 67.7292 247.781 68.3125 249.089 68.9323C250.396 69.5521 251.688 70.1979 252.964 70.8802C254.24 71.5625 255.495 72.276 256.734 73.0156C257.974 73.7604 259.193 74.5313 260.396 75.3385C261.599 76.1406 262.781 76.974 263.943 77.8333C265.104 78.6927 266.24 79.5833 267.359 80.5C268.474 81.4167 269.568 82.3594 270.641 83.3333C271.714 84.3021 272.76 85.2969 273.781 86.3229C274.802 87.3438 275.797 88.3906 276.771 89.4583C277.74 90.5313 278.682 91.625 279.599 92.7448C280.516 93.8594 281.406 95 282.266 96.1615C283.13 97.3229 283.964 98.5 284.766 99.7031C285.568 100.906 286.339 102.125 287.083 103.365C287.828 104.604 288.537 105.865 289.219 107.141C289.901 108.411 290.552 109.703 291.167 111.01C291.787 112.318 292.375 113.641 292.927 114.974C293.479 116.307 294 117.656 294.484 119.016C294.974 120.38 295.427 121.75 295.844 123.135C296.266 124.516 296.651 125.911 297 127.312C297.354 128.714 297.672 130.125 297.953 131.542C298.234 132.958 298.479 134.385 298.693 135.812C298.906 137.245 299.083 138.677 299.224 140.115C299.365 141.552 299.474 142.995 299.542 144.438C299.615 145.88 299.651 147.328 299.651 148.771Z" fill="#A58168"/>
</g>
<mask id="mask35_47_13835" style="mask-type:luminance" maskUnits="userSpaceOnUse" x="222" y="104" width="64" height="64">
<path d="M222.641 104.922H285.339V167.615H222.641V104.922Z" fill="white"/>
</mask>
<g mask="url(#mask35_47_13835)">
<mask id="mask36_47_13835" style="mask-type:luminance" maskUnits="userSpaceOnUse" x="222" y="104" width="64" height="64">
<path d="M253.99 104.922C236.677 104.922 222.641 118.953 222.641 136.271C222.641 153.583 236.677 167.615 253.99 167.615C271.302 167.615 285.339 153.583 285.339 136.271C285.339 118.953 271.302 104.922 253.99 104.922Z" fill="white"/>
</mask>
<g mask="url(#mask36_47_13835)">
<path d="M222.641 104.922H285.339V167.615H222.641V104.922Z" fill="white"/>
</g>
</g>
<mask id="mask37_47_13835" style="mask-type:luminance" maskUnits="userSpaceOnUse" x="137" y="104" width="64" height="64">
<path d="M137.88 104.922H200.578V167.615H137.88V104.922Z" fill="white"/>
</mask>
<g mask="url(#mask37_47_13835)">
<mask id="mask38_47_13835" style="mask-type:luminance" maskUnits="userSpaceOnUse" x="137" y="104" width="64" height="64">
<path d="M169.229 104.922C151.917 104.922 137.88 118.953 137.88 136.271C137.88 153.583 151.917 167.615 169.229 167.615C186.542 167.615 200.578 153.583 200.578 136.271C200.578 118.953 186.542 104.922 169.229 104.922Z" fill="white"/>
</mask>
<g mask="url(#mask38_47_13835)">
<path d="M137.88 104.922H200.578V167.615H137.88V104.922Z" fill="white"/>
</g>
</g>
<mask id="mask39_47_13835" style="mask-type:luminance" maskUnits="userSpaceOnUse" x="193" y="158" width="37" height="19">
<path d="M193.083 158.448H229.083V176.448H193.083V158.448Z" fill="white"/>
</mask>
<g mask="url(#mask39_47_13835)">
<path d="M229.568 167.609C229.568 168.214 229.453 168.807 229.219 169.396C228.984 169.984 228.641 170.557 228.182 171.109C227.724 171.667 227.161 172.193 226.495 172.693C225.828 173.188 225.073 173.651 224.224 174.078C223.38 174.5 222.458 174.88 221.463 175.214C220.469 175.547 219.417 175.828 218.307 176.057C217.203 176.286 216.062 176.464 214.885 176.578C213.713 176.698 212.526 176.755 211.328 176.755C210.13 176.755 208.943 176.698 207.771 176.578C206.594 176.464 205.453 176.286 204.349 176.057C203.24 175.828 202.187 175.547 201.193 175.214C200.198 174.88 199.276 174.5 198.427 174.078C197.583 173.651 196.823 173.188 196.161 172.693C195.495 172.193 194.932 171.667 194.474 171.109C194.016 170.557 193.672 169.984 193.437 169.396C193.203 168.807 193.083 168.214 193.083 167.609C193.083 167.01 193.203 166.417 193.437 165.828C193.672 165.24 194.016 164.667 194.474 164.115C194.932 163.557 195.495 163.031 196.161 162.531C196.823 162.031 197.583 161.573 198.427 161.146C199.276 160.724 200.198 160.344 201.193 160.01C202.187 159.677 203.24 159.396 204.349 159.167C205.453 158.932 206.594 158.76 207.771 158.646C208.943 158.526 210.13 158.469 211.328 158.469C212.526 158.469 213.713 158.526 214.885 158.646C216.062 158.76 217.203 158.932 218.307 159.167C219.417 159.396 220.469 159.677 221.463 160.01C222.458 160.344 223.38 160.724 224.224 161.146C225.073 161.573 225.828 162.031 226.495 162.531C227.161 163.031 227.724 163.557 228.182 164.115C228.641 164.667 228.984 165.24 229.219 165.828C229.453 166.417 229.568 167.01 229.568 167.609Z" fill="#FCD590"/>
</g>
<mask id="mask40_47_13835" style="mask-type:luminance" maskUnits="userSpaceOnUse" x="234" y="117" width="39" height="39">
<path d="M234.203 117.229H272.964V155.989H234.203V117.229Z" fill="white"/>
</mask>
<g mask="url(#mask40_47_13835)">
<mask id="mask41_47_13835" style="mask-type:luminance" maskUnits="userSpaceOnUse" x="234" y="117" width="39" height="39">
<path d="M253.583 117.229C242.88 117.229 234.203 125.906 234.203 136.609C234.203 147.312 242.88 155.989 253.583 155.989C264.286 155.989 272.964 147.312 272.964 136.609C272.964 125.906 264.286 117.229 253.583 117.229Z" fill="white"/>
</mask>
<g mask="url(#mask41_47_13835)">
<path d="M234.203 117.229H272.964V155.989H234.203V117.229Z" fill="#604428"/>
</g>
</g>
<mask id="mask42_47_13835" style="mask-type:luminance" maskUnits="userSpaceOnUse" x="151" y="117" width="40" height="39">
<path d="M151.932 117.229H190.698V155.989H151.932V117.229Z" fill="white"/>
</mask>
<g mask="url(#mask42_47_13835)">
<mask id="mask43_47_13835" style="mask-type:luminance" maskUnits="userSpaceOnUse" x="151" y="117" width="40" height="39">
<path d="M171.313 117.229C160.609 117.229 151.932 125.906 151.932 136.609C151.932 147.312 160.609 155.989 171.313 155.989C182.021 155.989 190.698 147.312 190.698 136.609C190.698 125.906 182.021 117.229 171.313 117.229Z" fill="white"/>
</mask>
<g mask="url(#mask43_47_13835)">
<path d="M151.932 117.229H190.698V155.989H151.932V117.229Z" fill="#604428"/>
</g>
</g>
<mask id="mask44_47_13835" style="mask-type:luminance" maskUnits="userSpaceOnUse" x="169" y="118" width="19" height="19">
<path d="M169.229 118.047H187.792V136.609H169.229V118.047Z" fill="white"/>
</mask>
<g mask="url(#mask44_47_13835)">
<mask id="mask45_47_13835" style="mask-type:luminance" maskUnits="userSpaceOnUse" x="169" y="118" width="19" height="19">
<path d="M178.51 118.047C173.385 118.047 169.229 122.203 169.229 127.328C169.229 132.453 173.385 136.609 178.51 136.609C183.635 136.609 187.792 132.453 187.792 127.328C187.792 122.203 183.635 118.047 178.51 118.047Z" fill="white"/>
</mask>
<g mask="url(#mask45_47_13835)">
<path d="M169.229 118.047H187.792V136.609H169.229V118.047Z" fill="white"/>
</g>
</g>
<mask id="mask46_47_13835" style="mask-type:luminance" maskUnits="userSpaceOnUse" x="251" y="117" width="20" height="20">
<path d="M251.49 117.708H270.052V136.271H251.49V117.708Z" fill="white"/>
</mask>
<g mask="url(#mask46_47_13835)">
<mask id="mask47_47_13835" style="mask-type:luminance" maskUnits="userSpaceOnUse" x="251" y="117" width="20" height="20">
<path d="M260.771 117.708C255.646 117.708 251.49 121.86 251.49 126.99C251.49 132.115 255.646 136.271 260.771 136.271C265.896 136.271 270.052 132.115 270.052 126.99C270.052 121.86 265.896 117.708 260.771 117.708Z" fill="white"/>
</mask>
<g mask="url(#mask47_47_13835)">
<path d="M251.49 117.708H270.052V136.271H251.49V117.708Z" fill="white"/>
</g>
</g>
<mask id="mask48_47_13835" style="mask-type:luminance" maskUnits="userSpaceOnUse" x="151" y="200" width="121" height="46">
<path d="M151.312 200.922H271.312V245.922H151.312V200.922Z" fill="white"/>
</mask>
<g mask="url(#mask48_47_13835)">
<path d="M257.385 225.239C241.115 220.838 228.938 224.552 220.943 229.271C231.875 218.151 248.547 214.5 253.885 213.594L257.385 225.239ZM238.151 200.979L242.74 211.937C234.089 214.625 222.786 219.838 215.135 229.458C219.979 212.625 233.219 203.755 238.151 200.979ZM184.443 200.979C189.375 203.755 202.615 212.594 207.453 229.489C199.807 219.87 188.5 214.656 179.854 211.969L184.443 200.979ZM168.703 213.594C174.042 214.5 190.719 218.151 201.646 229.271C193.651 224.552 181.474 220.838 165.208 225.239L168.703 213.594ZM218.323 245.568H204.271C201.177 241.573 187.812 228.739 151.312 243.943L154.464 233.734C190.875 216.062 208.859 240.323 209.609 241.385C209.641 241.417 209.672 241.417 209.703 241.448C209.734 241.51 209.766 241.573 209.828 241.604C209.859 241.635 209.859 241.635 209.859 241.667C209.922 241.729 209.984 241.76 210.078 241.792C210.141 241.823 210.203 241.885 210.266 241.917C210.328 241.948 210.391 242.01 210.484 242.042C210.516 242.042 210.547 242.073 210.547 242.073C210.672 242.135 210.828 242.135 210.984 242.167C211.078 242.167 211.141 242.229 211.234 242.229C211.266 242.229 211.297 242.229 211.328 242.229C211.359 242.229 211.391 242.229 211.422 242.229C211.516 242.229 211.578 242.198 211.672 242.167C211.828 242.135 211.953 242.135 212.109 242.073C212.141 242.073 212.172 242.042 212.172 242.042C212.266 242.01 212.328 241.948 212.391 241.917C212.453 241.885 212.516 241.854 212.578 241.792C212.641 241.729 212.734 241.698 212.797 241.667C212.828 241.635 212.828 241.635 212.828 241.604C212.891 241.542 212.922 241.51 212.953 241.448C212.984 241.417 213.016 241.417 213.047 241.385C213.792 240.323 231.781 216.062 268.188 233.734L271.344 243.943C234.807 228.739 221.411 241.604 218.323 245.568Z" fill="#604428"/>
</g>
<mask id="mask49_47_13835" style="mask-type:luminance" maskUnits="userSpaceOnUse" x="104" y="0" width="213" height="92">
<path d="M104.333 0.666504H316.333V91.3332H104.333V0.666504Z" fill="white"/>
</mask>
<g mask="url(#mask49_47_13835)">
<mask id="mask50_47_13835" style="mask-type:luminance" maskUnits="userSpaceOnUse" x="102" y="-24" width="226" height="169">
<path d="M137.031 -23.9688L327.13 38.1823L292.323 144.635L102.229 82.4844L137.031 -23.9688Z" fill="white"/>
</mask>
<g mask="url(#mask50_47_13835)">
<mask id="mask51_47_13835" style="mask-type:luminance" maskUnits="userSpaceOnUse" x="102" y="-24" width="226" height="169">
<path d="M137.031 -23.9688L327.13 38.1823L292.323 144.635L102.229 82.4844L137.031 -23.9688Z" fill="white"/>
</mask>
<g mask="url(#mask51_47_13835)">
<path d="M216.661 2.53644C220.771 3.8229 224.5 5.85936 227.989 8.35936C233.562 12.3489 238.974 16.5312 243.984 21.2239C245.875 22.9948 247.88 24.6302 250.041 26.0625C258.307 31.5312 265.802 38.0104 273.656 44.0156C279.156 48.2239 284.573 52.5677 290.745 55.7812C298.521 59.8333 305.776 64.75 313.265 69.276C313.838 69.625 314.328 69.9687 315.067 70.0729C316.224 70.2396 316.385 71.0573 315.771 72.1042C313.312 76.2552 309.531 78.4427 304.927 79.3333C302.094 79.8854 299.234 80.3854 296.37 80.7552C288.594 81.7448 280.932 83.5469 273.099 84.1042C269.078 84.3854 265.052 84.6823 261.021 84.7448C254.531 84.8437 248.125 85.5417 241.745 86.6875C233.713 88.1302 225.625 88.9271 217.458 89.0469C214.229 89.099 210.922 88.6823 207.781 89.9167C202.76 89.1979 197.807 90.4167 192.807 90.4635C179.349 90.5833 165.885 90.7448 152.422 90.9687C143.833 91.1094 135.224 90.5469 126.755 88.7969C121.536 87.7187 116.323 86.625 111.114 85.4844C109.708 85.1771 108.338 84.6927 107.177 83.7552C105.635 82.5052 104.844 80.9739 105.276 78.9531C105.323 78.7292 105.505 78.4531 105.432 78.3021C104.312 76.1146 106.036 75.7396 107.416 75.1354C108.89 74.4844 110.182 73.5312 111.484 72.6042C117.312 68.4479 122.989 64.0625 129 60.1875C136.614 55.2812 144.245 50.3802 152.083 45.8229C164.552 38.5625 176.323 30.3021 187.224 20.8281C188.833 19.4323 190.442 18.0208 192.146 16.7448C196.422 13.5364 200.375 9.97394 204.135 6.18749C205.588 4.71874 207.234 3.47915 208.927 2.31769C210.666 1.11978 212.51 0.729152 214.51 1.81249C215.166 2.16665 215.942 2.30207 216.661 2.53644Z" fill="#433820"/>
</g>
</g>
</g>
<mask id="mask52_47_13835" style="mask-type:luminance" maskUnits="userSpaceOnUse" x="109" y="6" width="193" height="75">
<path d="M109.667 6H301.667V80.6667H109.667V6Z" fill="white"/>
</mask>
<g mask="url(#mask52_47_13835)">
<mask id="mask53_47_13835" style="mask-type:luminance" maskUnits="userSpaceOnUse" x="102" y="-24" width="226" height="169">
<path d="M137.031 -23.9688L327.13 38.1823L292.323 144.635L102.229 82.4844L137.031 -23.9688Z" fill="white"/>
</mask>
<g mask="url(#mask53_47_13835)">
<mask id="mask54_47_13835" style="mask-type:luminance" maskUnits="userSpaceOnUse" x="102" y="-24" width="226" height="169">
<path d="M137.031 -23.9688L327.13 38.1823L292.323 144.635L102.229 82.4844L137.031 -23.9688Z" fill="white"/>
</mask>
<g mask="url(#mask54_47_13835)">
<path d="M184.453 79.578C184.235 79.5155 184.005 79.3696 183.797 79.4009C177.807 80.2759 171.787 79.6613 165.787 79.7082C159.698 79.7498 153.604 79.6353 147.521 79.6561C139.802 79.6821 132.172 78.828 124.516 78.1717C120.651 77.8384 116.792 77.4165 112.927 77.0311C112.172 76.9582 111.401 76.9373 110.724 76.4998C110.823 75.7655 111.5 75.6196 111.969 75.2915C116.386 72.1717 120.833 69.0884 125.24 65.9478C137.344 57.3071 149.953 49.4582 162.844 42.0571C169.75 38.0884 176.047 33.3123 182.224 28.3436C187.386 24.1873 192.464 19.9321 197.636 15.7811C200.078 13.8175 202.281 11.6092 204.526 9.44254C205.37 8.63004 206.052 8.26546 206.985 9.24984C207.235 9.51025 207.651 9.60921 207.969 9.81234C211.636 12.1353 214.927 11.453 218.245 8.20296C218.516 7.93733 218.807 7.6665 218.995 7.34359C219.578 6.35921 220.255 6.48421 221.083 7.02067C222.422 7.88525 223.854 8.62484 225.151 9.55192C230.979 13.7134 236.677 18.0415 241.932 22.9165C243.495 24.3644 245.078 25.8332 246.844 27.0103C255.344 32.6821 263.172 39.2394 271.245 45.4738C276.729 49.7082 282.141 54.0519 288.224 57.4165C292.354 59.703 296.531 61.9009 300.495 64.4738C300.797 64.6717 301.214 64.7446 301.344 65.3592C300.828 65.9686 299.969 66.1144 299.224 66.3228C291.589 68.4321 283.969 70.5988 276.005 71.1873C271.448 71.5259 266.932 72.2603 262.406 72.8905C254.708 73.9686 246.99 74.7967 239.208 74.9842C234.099 75.104 229.021 75.6196 223.985 76.4478C213.5 78.1821 202.901 78.1717 192.333 78.6196C191.651 78.6509 190.958 78.5728 190.287 78.4634C189.422 78.3228 188.787 78.5363 188.422 79.3696C187.13 80.0311 185.828 80.5676 184.453 79.578Z" fill="#EDE0D2"/>
</g>
</g>
</g>
<mask id="mask55_47_13835" style="mask-type:luminance" maskUnits="userSpaceOnUse" x="172" y="67" width="141" height="18">
<path d="M172.333 67.3335H312.333V84.6668H172.333V67.3335Z" fill="white"/>
</mask>
<g mask="url(#mask55_47_13835)">
<mask id="mask56_47_13835" style="mask-type:luminance" maskUnits="userSpaceOnUse" x="102" y="-24" width="226" height="169">
<path d="M137.031 -23.9688L327.13 38.1823L292.323 144.635L102.229 82.4844L137.031 -23.9688Z" fill="white"/>
</mask>
<g mask="url(#mask56_47_13835)">
<mask id="mask57_47_13835" style="mask-type:luminance" maskUnits="userSpaceOnUse" x="102" y="-24" width="226" height="169">
<path d="M137.031 -23.9688L327.13 38.1823L292.323 144.635L102.229 82.4844L137.031 -23.9688Z" fill="white"/>
</mask>
<g mask="url(#mask57_47_13835)">
<path d="M231.812 82.0363C231.771 81.9738 231.693 81.9113 231.687 81.8488C231.484 77.1717 231.161 78.1301 235.172 77.8384C239.797 77.4998 244.448 77.4582 249.062 77.0207C250.411 76.8905 251.052 78.2082 252.187 77.9582C253.177 77.7394 253.615 76.5988 254.859 76.4634C261.437 75.729 268 74.8384 274.562 73.9738C275.682 73.828 276.552 73.7603 277.125 75.1092C277.542 76.0884 278.604 75.9686 278.927 74.9009C279.245 73.8488 279.734 73.4269 280.792 73.3071C286.177 72.6873 291.365 71.0936 296.609 69.828C298.083 69.4686 299.229 69.3332 300.167 70.7342C300.552 71.3071 301.161 71.6613 301.875 71.7863C302.365 71.8696 302.792 71.7707 303.062 71.328C303.281 70.9634 303.172 70.5988 302.979 70.2498C302.615 69.5884 301.833 69.2498 301.583 68.4894C301.641 68.4269 301.687 68.3592 301.745 68.3123C303.734 66.7967 305.521 67.2811 307.385 68.6873C308.943 69.8696 310.682 70.8176 312.307 71.8488C312.083 72.6978 311.656 73.2186 311.167 73.703C310.505 74.354 309.88 75.1769 309.021 73.8957C308.807 73.578 308.391 73.4998 308.005 73.4478C306.63 73.2655 306.161 73.9113 306.677 75.2967C306.755 75.4946 306.802 75.703 306.87 75.9269C305.917 76.5728 304.859 76.7342 303.818 76.9009C296.458 78.0832 289.088 79.2394 281.729 80.4321C280.677 80.604 279.833 80.6248 279.26 79.4842C278.984 78.9373 278.323 78.6926 277.667 78.9478C277.057 79.1873 276.943 79.6821 277.12 80.2655C277.375 81.104 276.771 81.1405 276.24 81.1926C274.12 81.3905 272.005 81.6405 269.88 81.7394C265.245 81.9634 260.609 82.0936 255.969 82.2915C255.078 82.328 254.463 82.2446 254.62 81.1092C254.672 80.7498 254.557 80.3488 254.448 79.9894C254.281 79.4321 253.891 79.0623 253.281 79.0988C252.661 79.1301 252.318 79.5363 252.255 80.1353C252.172 80.9426 252.51 81.9842 251.687 82.4373C251 82.8228 250.078 82.7863 249.255 82.9113C246.245 83.3748 243.234 83.8228 240.224 84.2759C237.812 82.0623 234.641 82.6926 231.812 82.0363ZM204.526 80.7915C203.615 80.8176 202.708 80.8853 201.797 80.8957C198.312 80.9426 194.823 81.0051 191.338 81.0051C190.099 81.0051 188.865 80.8488 188.422 79.3696C187.083 79.0988 185.786 79.7707 184.453 79.5728C184.703 81.2863 184.604 81.5051 183.307 81.9894C182.302 82.3644 181.255 82.4478 180.193 82.4426C178.229 82.4321 176.271 82.4634 174.312 82.3957C173.437 82.3644 173 82.5936 173.151 83.5259C173.719 84.229 174.443 84.4061 175.349 84.453C184.146 84.9426 192.917 84.3332 201.693 83.9478C203.615 83.8592 205.656 84.0363 207.5 83.1457C206.979 80.7186 206.979 80.7134 204.526 80.7915ZM229.172 79.7603C229.193 78.7498 228.693 78.3957 227.734 78.5571C227.208 78.6457 226.677 78.6873 226.151 78.7707C221.266 79.5467 216.359 80.1561 211.422 80.4738C209.463 80.5988 209.463 80.6196 210.026 82.5884C210.641 83.5155 211.531 83.3488 212.458 83.2759C217.177 82.9165 221.901 82.5884 226.63 82.2759C227.531 82.2134 228.453 82.3176 229.161 81.5832C229.161 80.9738 229.156 80.3696 229.172 79.7603Z" fill="#9D743B"/>
</g>
</g>
</g>
<mask id="mask58_47_13835" style="mask-type:luminance" maskUnits="userSpaceOnUse" x="107" y="3" width="134" height="86">
<path d="M107 3.3335H240.333V88.6668H107V3.3335Z" fill="white"/>
</mask>
<g mask="url(#mask58_47_13835)">
<mask id="mask59_47_13835" style="mask-type:luminance" maskUnits="userSpaceOnUse" x="102" y="-24" width="226" height="169">
<path d="M137.031 -23.9688L327.13 38.1823L292.323 144.635L102.229 82.4844L137.031 -23.9688Z" fill="white"/>
</mask>
<g mask="url(#mask59_47_13835)">
<mask id="mask60_47_13835" style="mask-type:luminance" maskUnits="userSpaceOnUse" x="102" y="-24" width="226" height="169">
<path d="M137.031 -23.9688L327.13 38.1823L292.323 144.635L102.229 82.4844L137.031 -23.9688Z" fill="white"/>
</mask>
<g mask="url(#mask60_47_13835)">
<path d="M231.813 82.0367C233.37 81.7294 234.933 81.8388 236.505 81.9117C237.912 81.9742 238.979 82.3388 239.584 83.6929C239.693 83.9377 240.011 84.0835 240.229 84.2763C233.188 85.5419 226.094 86.271 218.943 86.4065C216.209 86.4533 213.406 86.9481 210.75 86.5263C208.136 86.1044 205.844 87.1565 203.375 87.1981C200.797 87.245 198.214 87.4846 195.636 87.6669C188.5 88.1669 181.354 87.9065 174.214 87.9533C166.917 88.0002 159.62 88.2971 152.323 88.4481C150.656 88.4846 148.886 88.719 147.339 88.2502C145.818 87.7919 144.485 87.245 142.985 88.0731C135.313 87.6304 127.698 86.8752 120.313 84.5679C120.172 84.5263 120.031 84.4533 119.891 84.396L119.906 84.4221C120.485 83.9377 120.578 83.3127 120.568 82.5835C120.558 81.9898 120.781 81.3908 120.917 80.7242C121.594 80.3908 122.334 80.5575 123.073 80.6148C129.198 81.0992 135.292 82.0002 141.443 82.1565C142.334 82.1825 142.693 82.4533 142.693 83.3179C142.693 83.6148 142.75 83.9273 142.86 84.2085C143.073 84.7606 143.516 85.0471 144.104 85.0263C144.808 85.0002 144.901 84.4533 144.995 83.9065C145.302 82.1669 145.313 82.0888 147.047 82.1513C154.417 82.4325 161.792 82.2294 169.162 82.3075C170.781 82.3283 170.802 82.3752 170.729 84.0315C170.703 84.6356 170.521 85.2554 170.599 85.844C170.693 86.5106 170.953 87.271 171.854 87.1721C172.594 87.0888 173.078 86.6825 173.031 85.7919C172.99 85.0419 173.104 84.2867 173.151 83.5315C181.573 84.4533 189.995 83.7971 198.417 83.5263C201.448 83.4273 204.453 82.7763 207.5 83.146C209.276 83.9169 209.276 83.9169 210.026 82.594C215.979 82.6773 221.87 81.7815 227.802 81.5731C228.255 81.5575 228.709 81.4325 229.162 81.5888C229.193 81.6565 229.24 81.719 229.255 81.7919C229.406 82.6252 229.084 83.7919 230.37 83.9325C231.735 84.0783 231.469 82.7763 231.813 82.0367ZM119.901 84.4221C118.61 84.1513 117.781 83.5419 118.214 82.0523C118.537 80.9273 118.078 80.2606 116.979 80.0888C114.287 79.6617 111.599 79.2242 108.891 78.9221C107.646 78.7815 107.151 79.771 107.839 80.8856C108.417 81.8231 109.334 82.3492 110.354 82.7346C112.36 83.495 114.479 83.7398 116.573 84.0158C117.667 84.1565 118.724 84.8856 119.891 84.396C119.891 84.3908 119.901 84.4221 119.901 84.4221ZM216.641 6.14604C216.896 5.73979 217.073 5.30229 216.537 4.97938C214.959 4.04188 213.084 5.34396 211.474 4.30229C211.011 4.00021 210.443 4.45334 210.047 4.79188C209.323 5.40125 207.953 5.67209 208.084 6.745C208.214 7.82313 209.599 7.8075 210.37 8.20334C212.703 8.995 215.443 8.07313 216.641 6.14604ZM167.172 65.2242C169.052 65.9325 171.047 65.995 173.011 66.1408C177.474 66.4638 181.933 67.1565 186.422 66.4638C188.683 66.1148 190.959 65.9794 193.245 65.995C195.688 66.0106 198.115 65.7606 200.448 64.9742C201.287 64.6929 202.177 64.4429 202.417 63.396C201.427 62.6044 200.339 62.6721 199.287 62.7763C196.563 63.0419 193.823 63.2346 191.125 63.6929C186.063 64.5523 181.005 64.6304 175.896 64.2606C172.662 64.0315 169.396 63.896 165.995 64.2294C166.255 65.0992 166.781 65.0731 167.172 65.2242ZM186.927 46.3335C185.558 46.2919 184.193 46.2971 182.828 46.219C176.375 45.8388 169.933 46.7398 163.479 46.3388C162.896 46.3023 162.167 46.3127 162.026 47.1096C161.901 47.8335 162.427 48.1877 163.016 48.4533C164.302 49.0263 165.662 49.1565 167.037 49.0783C171.292 48.8492 175.547 48.995 179.797 49.0054C181.62 49.0106 183.448 48.896 185.25 48.5992C186.537 48.3856 187.677 47.9012 188.755 46.9898C188.11 46.4898 187.531 46.3544 186.927 46.3335ZM169.636 55.0679C165.188 54.5367 160.771 53.8492 156.344 53.219C155.203 53.0523 154.141 52.6617 153.021 52.4794C152.552 52.4013 152.099 52.521 151.865 53.0002C151.63 53.495 151.906 53.8596 152.219 54.2138C152.698 54.7502 153.349 54.969 153.995 55.2033C156.141 55.9846 158.354 56.4794 160.615 56.8388C164.901 57.5263 169.203 57.8492 173.531 57.5575C174.328 57.5054 175.203 57.5106 175.891 56.5679C173.709 56.0315 171.698 55.3179 169.636 55.0679ZM158.479 62.8596C156.558 62.1304 154.604 61.5888 152.537 61.3179C149.761 60.9429 147.021 60.271 144.266 59.7138C143.636 59.5888 142.974 59.5419 142.61 60.1148C142.188 60.771 142.766 61.245 143.177 61.6669C143.49 61.9898 143.849 62.3127 144.25 62.495C148.964 64.6408 153.875 65.2138 158.959 64.2867C159.156 64.2502 159.328 64.0575 159.578 63.8908C159.334 63.2033 158.906 63.0263 158.479 62.8596ZM141.698 68.0575C138.792 67.5627 135.844 67.3075 132.912 66.9533C132.542 66.9117 132.141 66.8231 131.886 67.2085C131.584 67.6669 131.781 68.0888 132.063 68.4585C132.433 68.9429 132.927 69.2867 133.438 69.6304C136.735 71.8075 140.396 72.021 144.162 71.646C144.828 71.5783 145.485 71.3544 145.912 70.5315C144.636 69.469 143.349 68.3335 141.698 68.0575ZM172.328 71.844C165.86 71.3856 159.38 71.1617 152.776 71.3075C153.141 72.3388 153.891 72.3648 154.521 72.4898C156.453 72.8648 158.391 73.2294 160.339 73.5263C163.875 74.0679 167.427 74.3492 170.99 73.7554C171.886 73.6044 172.808 73.521 173.5 72.7398C173.229 72.0471 172.771 71.8752 172.328 71.844ZM191.641 58.4065C192.521 58.2971 193.745 58.1148 193.677 57.021C193.61 55.9065 192.459 55.6408 191.412 55.6096C191.188 55.6044 190.959 55.5783 190.735 55.5888C187.933 55.7033 185.136 55.8127 182.339 55.9533C181.818 55.9794 181.255 56.0054 180.828 56.3648C180.334 56.7815 180.229 57.245 180.87 57.6356C181.125 57.7867 181.422 57.87 182.089 58.1408C185.005 58.4013 188.313 58.8231 191.641 58.4065ZM193.219 71.1773C189.526 71.4377 185.828 71.7033 182.136 71.9638C181.438 72.0158 180.672 71.9221 180.219 72.8544C180.63 72.9898 180.912 73.1513 181.193 73.1617C185.573 73.3388 189.953 73.3335 194.308 72.8492C195.313 72.7398 196.443 72.5419 197.12 71.1981C195.709 70.4898 194.459 71.0888 193.219 71.1773ZM194.933 45.1565C194.219 45.4065 193.86 45.9898 193.959 46.7554C194.063 47.5575 194.693 47.9898 195.38 47.9585C197.422 47.8648 199.318 47.3648 200.766 45.5367C198.724 44.3544 196.834 44.4898 194.933 45.1565ZM199.422 55.4377C199.021 55.6148 198.547 55.8335 198.74 56.4169C198.865 56.8127 199.245 56.995 199.636 56.9794C202.261 56.8648 204.818 56.469 207.099 54.8804C204.459 54.2346 201.896 54.344 199.422 55.4377Z" fill="#604428"/>
</g>
</g>
</g>
</svg>
