<svg width="308" height="339" viewBox="0 0 308 339" fill="none" xmlns="http://www.w3.org/2000/svg">
<mask id="mask0_47_13832" style="mask-type:luminance" maskUnits="userSpaceOnUse" x="191" y="143" width="109" height="92">
<path d="M191.333 143H299.333V235H191.333V143Z" fill="white"/>
</mask>
<g mask="url(#mask0_47_13832)">
<mask id="mask1_47_13832" style="mask-type:luminance" maskUnits="userSpaceOnUse" x="183" y="134" width="125" height="109">
<path d="M183.031 209.708L283 134.667L307.615 167.458L207.646 242.5L183.031 209.708Z" fill="white"/>
</mask>
<g mask="url(#mask1_47_13832)">
<mask id="mask2_47_13832" style="mask-type:luminance" maskUnits="userSpaceOnUse" x="183" y="134" width="125" height="109">
<path d="M283.036 134.641L183.068 209.682L207.682 242.469L307.651 167.427L283.036 134.641Z" fill="white"/>
</mask>
<g mask="url(#mask2_47_13832)">
<path d="M224.016 230.084L291.162 179.682C300.146 172.938 301.964 160.182 295.219 151.198C288.474 142.214 275.719 140.396 266.734 147.141L199.589 197.542C190.604 204.287 188.787 217.042 195.531 226.026C202.276 235.011 215.031 236.828 224.016 230.084Z" fill="#604428"/>
</g>
</g>
</g>
<mask id="mask3_47_13832" style="mask-type:luminance" maskUnits="userSpaceOnUse" x="190" y="141" width="111" height="94">
<path d="M190 141.667H300.667V235H190V141.667Z" fill="white"/>
</mask>
<g mask="url(#mask3_47_13832)">
<mask id="mask4_47_13832" style="mask-type:luminance" maskUnits="userSpaceOnUse" x="183" y="134" width="125" height="109">
<path d="M183.031 209.708L283 134.667L307.615 167.458L207.646 242.5L183.031 209.708Z" fill="white"/>
</mask>
<g mask="url(#mask4_47_13832)">
<mask id="mask5_47_13832" style="mask-type:luminance" maskUnits="userSpaceOnUse" x="183" y="134" width="125" height="109">
<path d="M283.036 134.641L183.068 209.682L207.682 242.469L307.651 167.427L283.036 134.641Z" fill="white"/>
</mask>
<g mask="url(#mask5_47_13832)">
<path d="M224.135 230.245L291.281 179.838C300.344 173.036 302.182 160.14 295.38 151.078C288.573 142.015 275.677 140.177 266.615 146.979L199.469 197.385C190.406 204.187 188.568 217.083 195.37 226.146C202.177 235.213 215.068 237.047 224.135 230.245ZM266.854 147.297C275.745 140.625 288.385 142.427 295.063 151.318C301.734 160.203 299.932 172.849 291.042 179.521L223.896 229.927C215.005 236.599 202.365 234.797 195.688 225.911C189.016 217.021 190.818 204.375 199.708 197.703L266.854 147.297Z" fill="#604428"/>
</g>
</g>
</g>
<mask id="mask6_47_13832" style="mask-type:luminance" maskUnits="userSpaceOnUse" x="172" y="96" width="130" height="111">
<path d="M172.667 96.3335H302V207H172.667V96.3335Z" fill="white"/>
</mask>
<g mask="url(#mask6_47_13832)">
<mask id="mask7_47_13832" style="mask-type:luminance" maskUnits="userSpaceOnUse" x="163" y="87" width="149" height="129">
<path d="M163.078 176.771L282.24 87.3179L311.656 126.511L192.495 215.958L163.078 176.771Z" fill="white"/>
</mask>
<g mask="url(#mask7_47_13832)">
<mask id="mask8_47_13832" style="mask-type:luminance" maskUnits="userSpaceOnUse" x="162" y="87" width="150" height="130">
<path d="M281.927 87.5522L162.766 177.005L192.182 216.193L311.344 126.745L281.927 87.5522Z" fill="white"/>
</mask>
<g mask="url(#mask8_47_13832)">
<path d="M211.776 200.979L291.578 141.078C302.255 133.063 304.417 117.907 296.401 107.229C288.385 96.5524 273.224 94.3909 262.547 102.407L182.75 162.308C172.068 170.323 169.912 185.485 177.927 196.162C185.943 206.839 201.099 208.995 211.776 200.979Z" fill="#604428"/>
<path d="M211.922 201.172L291.719 141.266C302.49 133.183 304.672 117.86 296.589 107.089C288.5 96.3129 273.177 94.1306 262.406 102.219L182.604 162.12C171.833 170.203 169.651 185.532 177.74 196.302C185.823 207.073 201.146 209.256 211.922 201.172ZM262.688 102.594C273.255 94.667 288.281 96.8076 296.208 107.37C304.141 117.933 302 132.959 291.438 140.891L211.635 200.792C201.073 208.724 186.047 206.584 178.115 196.016C170.182 185.453 172.323 170.427 182.891 162.495L262.688 102.594Z" fill="#604428"/>
</g>
</g>
</g>
<mask id="mask9_47_13832" style="mask-type:luminance" maskUnits="userSpaceOnUse" x="178" y="53" width="130" height="110">
<path d="M178 53.6665H307.333V163H178V53.6665Z" fill="white"/>
</mask>
<g mask="url(#mask9_47_13832)">
<mask id="mask10_47_13832" style="mask-type:luminance" maskUnits="userSpaceOnUse" x="168" y="44" width="149" height="129">
<path d="M168.344 133.588L287.51 44.1353L316.927 83.3228L197.76 172.776L168.344 133.588Z" fill="white"/>
</mask>
<g mask="url(#mask10_47_13832)">
<mask id="mask11_47_13832" style="mask-type:luminance" maskUnits="userSpaceOnUse" x="168" y="44" width="149" height="130">
<path d="M287.198 44.3696L168.031 133.823L197.448 173.01L316.615 83.5571L287.198 44.3696Z" fill="white"/>
</mask>
<g mask="url(#mask11_47_13832)">
<path d="M217.047 157.797L296.849 97.8959C307.526 89.8803 309.682 74.724 301.667 64.0469C293.656 53.3646 278.495 51.2084 267.818 59.224L188.016 119.125C177.339 127.141 175.182 142.297 183.198 152.979C191.214 163.656 206.37 165.813 217.047 157.797Z" fill="#604428"/>
<path d="M217.188 157.989L296.99 98.0832C307.76 89.9999 309.943 74.677 301.859 63.9009C293.771 53.1301 278.448 50.9478 267.677 59.0364L187.875 118.937C177.104 127.021 174.922 142.349 183.005 153.12C191.094 163.891 206.417 166.073 217.188 157.989ZM267.958 59.4114C278.521 51.4791 293.552 53.6197 301.479 64.1874C309.411 74.7499 307.271 89.7759 296.703 97.7082L216.906 157.609C206.344 165.542 191.313 163.401 183.385 152.833C175.453 142.271 177.594 127.245 188.161 119.312L267.958 59.4114Z" fill="#604428"/>
</g>
</g>
</g>
<mask id="mask12_47_13832" style="mask-type:luminance" maskUnits="userSpaceOnUse" x="180" y="249" width="38" height="53">
<path d="M180.667 249.667H218V301.667H180.667V249.667Z" fill="white"/>
</mask>
<g mask="url(#mask12_47_13832)">
<mask id="mask13_47_13832" style="mask-type:luminance" maskUnits="userSpaceOnUse" x="179" y="249" width="41" height="54">
<path d="M212.479 302.208L179.062 253.583L185.656 249.052L219.073 297.677L212.479 302.208Z" fill="white"/>
</mask>
<g mask="url(#mask13_47_13832)">
<mask id="mask14_47_13832" style="mask-type:luminance" maskUnits="userSpaceOnUse" x="179" y="249" width="41" height="54">
<path d="M212.479 302.208L179.062 253.583L185.656 249.052L219.073 297.677L212.479 302.208Z" fill="white"/>
</mask>
<g mask="url(#mask14_47_13832)">
<path d="M181.516 257.125L183.912 260.609L183.922 260.604L207.708 295.218L207.698 295.224L210.094 298.713C211.417 300.635 214.057 301.125 215.979 299.802C217.901 298.479 218.391 295.843 217.068 293.922L188.49 252.333C187.172 250.406 184.542 249.911 182.62 251.234C180.698 252.557 180.198 255.203 181.516 257.125Z" fill="#FCD590"/>
</g>
</g>
</g>
<mask id="mask15_47_13832" style="mask-type:luminance" maskUnits="userSpaceOnUse" x="203" y="283" width="11" height="16">
<path d="M203.333 283H214V299H203.333V283Z" fill="white"/>
</mask>
<g mask="url(#mask15_47_13832)">
<mask id="mask16_47_13832" style="mask-type:luminance" maskUnits="userSpaceOnUse" x="179" y="249" width="41" height="54">
<path d="M212.479 302.208L179.062 253.583L185.656 249.052L219.073 297.677L212.479 302.208Z" fill="white"/>
</mask>
<g mask="url(#mask16_47_13832)">
<mask id="mask17_47_13832" style="mask-type:luminance" maskUnits="userSpaceOnUse" x="179" y="249" width="41" height="54">
<path d="M212.479 302.208L179.062 253.583L185.656 249.052L219.073 297.677L212.479 302.208Z" fill="white"/>
</mask>
<g mask="url(#mask17_47_13832)">
<path d="M203.526 285.427L211.833 297.516C212.167 298.005 212.823 298.125 213.307 297.792C213.797 297.458 213.917 296.802 213.583 296.318L211.187 292.828L211.177 292.839L205.271 284.24C204.937 283.755 204.281 283.636 203.797 283.969C203.312 284.302 203.198 284.948 203.526 285.427Z" fill="#FCD590"/>
</g>
</g>
</g>
<mask id="mask18_47_13832" style="mask-type:luminance" maskUnits="userSpaceOnUse" x="94" y="269" width="42" height="50">
<path d="M94 269.667H135.333V319H94V269.667Z" fill="white"/>
</mask>
<g mask="url(#mask18_47_13832)">
<mask id="mask19_47_13832" style="mask-type:luminance" maskUnits="userSpaceOnUse" x="93" y="269" width="43" height="52">
<path d="M93.0573 315.271L129.661 269L135.937 273.964L99.3333 320.234L93.0573 315.271Z" fill="white"/>
</mask>
<g mask="url(#mask19_47_13832)">
<mask id="mask20_47_13832" style="mask-type:luminance" maskUnits="userSpaceOnUse" x="93" y="269" width="43" height="52">
<path d="M93.0573 315.271L129.661 269L135.937 273.964L99.3333 320.234L93.0573 315.271Z" fill="white"/>
</mask>
<g mask="url(#mask20_47_13832)">
<path d="M127.005 272.391L124.38 275.708L124.385 275.714L98.3281 308.651L98.3229 308.646L95.6979 311.964C94.2499 313.792 94.5572 316.458 96.3906 317.906C98.2187 319.354 100.885 319.042 102.333 317.214L133.641 277.641C135.088 275.807 134.786 273.151 132.953 271.703C131.125 270.255 128.453 270.557 127.005 272.391Z" fill="#FCD590"/>
</g>
</g>
</g>
<mask id="mask21_47_13832" style="mask-type:luminance" maskUnits="userSpaceOnUse" x="96" y="300" width="13" height="15">
<path d="M96.6666 300.333H108.667V315H96.6666V300.333Z" fill="white"/>
</mask>
<g mask="url(#mask21_47_13832)">
<mask id="mask22_47_13832" style="mask-type:luminance" maskUnits="userSpaceOnUse" x="93" y="269" width="43" height="52">
<path d="M93.0573 315.271L129.661 269L135.937 273.964L99.3333 320.234L93.0573 315.271Z" fill="white"/>
</mask>
<g mask="url(#mask22_47_13832)">
<mask id="mask23_47_13832" style="mask-type:luminance" maskUnits="userSpaceOnUse" x="93" y="269" width="43" height="52">
<path d="M93.0573 315.271L129.661 269L135.937 273.964L99.3333 320.234L93.0573 315.271Z" fill="white"/>
</mask>
<g mask="url(#mask23_47_13832)">
<path d="M106.453 301.766L97.349 313.271C96.9844 313.734 97.0625 314.396 97.5261 314.761C97.9844 315.125 98.6459 315.052 99.0156 314.589L101.641 311.271L101.63 311.261L108.099 303.083C108.464 302.62 108.391 301.958 107.927 301.594C107.464 301.229 106.813 301.313 106.453 301.766Z" fill="#FCD590"/>
</g>
</g>
</g>
<mask id="mask24_47_13832" style="mask-type:luminance" maskUnits="userSpaceOnUse" x="86" y="285" width="15" height="54">
<path d="M86 285.667H100.667V339H86V285.667Z" fill="white"/>
</mask>
<g mask="url(#mask24_47_13832)">
<mask id="mask25_47_13832" style="mask-type:luminance" maskUnits="userSpaceOnUse" x="85" y="285" width="17" height="54">
<path d="M93.2083 338.922L85.6875 286.458L93.6042 285.323L101.13 337.786L93.2083 338.922Z" fill="white"/>
</mask>
<g mask="url(#mask25_47_13832)">
<mask id="mask26_47_13832" style="mask-type:luminance" maskUnits="userSpaceOnUse" x="85" y="285" width="17" height="54">
<path d="M93.2083 338.922L85.6875 286.458L93.6042 285.323L101.13 337.786L93.2083 338.922Z" fill="white"/>
</mask>
<g mask="url(#mask26_47_13832)">
<path d="M86.2552 290.339L86.7968 294.099H86.8072L92.1562 331.406H92.1458L92.6823 335.161C92.9791 337.234 94.9062 338.682 96.9791 338.385C99.052 338.083 100.495 336.156 100.198 334.089L93.7708 289.26C93.4739 287.187 91.5573 285.745 89.4843 286.042C87.4114 286.339 85.9583 288.266 86.2552 290.339Z" fill="#FCD590"/>
</g>
</g>
</g>
<mask id="mask27_47_13832" style="mask-type:luminance" maskUnits="userSpaceOnUse" x="92" y="320" width="5" height="17">
<path d="M92.6666 320.333H96.6666V336.333H92.6666V320.333Z" fill="white"/>
</mask>
<g mask="url(#mask27_47_13832)">
<mask id="mask28_47_13832" style="mask-type:luminance" maskUnits="userSpaceOnUse" x="85" y="285" width="17" height="54">
<path d="M93.2083 338.922L85.6875 286.459L93.6042 285.323L101.13 337.787L93.2083 338.922Z" fill="white"/>
</mask>
<g mask="url(#mask28_47_13832)">
<mask id="mask29_47_13832" style="mask-type:luminance" maskUnits="userSpaceOnUse" x="85" y="285" width="17" height="54">
<path d="M93.2083 338.922L85.6875 286.459L93.6042 285.323L101.13 337.787L93.2083 338.922Z" fill="white"/>
</mask>
<g mask="url(#mask29_47_13832)">
<path d="M92.6875 321.865L94.5573 334.896C94.6354 335.417 95.1094 335.776 95.6354 335.703C96.1562 335.625 96.5156 335.146 96.4427 334.625L95.901 330.865L95.8906 330.87L94.5625 321.604C94.4896 321.083 94.0104 320.724 93.4844 320.797C92.9635 320.87 92.6146 321.349 92.6875 321.865Z" fill="#FCD590"/>
</g>
</g>
</g>
<mask id="mask30_47_13832" style="mask-type:luminance" maskUnits="userSpaceOnUse" x="66" y="300" width="51" height="29">
<path d="M66 300.333H116.667V328.333H66V300.333Z" fill="white"/>
</mask>
<g mask="url(#mask30_47_13832)">
<mask id="mask31_47_13832" style="mask-type:luminance" maskUnits="userSpaceOnUse" x="65" y="299" width="52" height="31">
<path d="M113.422 329.615L65.7396 306.469L69.2344 299.271L116.911 322.417L113.422 329.615Z" fill="white"/>
</mask>
<g mask="url(#mask31_47_13832)">
<mask id="mask32_47_13832" style="mask-type:luminance" maskUnits="userSpaceOnUse" x="65" y="299" width="52" height="31">
<path d="M113.422 329.615L65.7396 306.469L69.2344 299.271L116.911 322.417L113.422 329.615Z" fill="white"/>
</mask>
<g mask="url(#mask32_47_13832)">
<path d="M69.2761 308.172L72.6875 309.828L72.6927 309.818L106.599 326.276L106.594 326.286L110.01 327.943C111.896 328.859 114.172 328.073 115.083 326.187C116 324.302 115.208 322.026 113.328 321.115L72.5886 301.339C70.7083 300.427 68.4375 301.203 67.5208 303.089C66.6094 304.969 67.3906 307.255 69.2761 308.172Z" fill="#FCD590"/>
</g>
</g>
</g>
<mask id="mask33_47_13832" style="mask-type:luminance" maskUnits="userSpaceOnUse" x="98" y="317" width="15" height="10">
<path d="M98 317.667H112.667V327H98V317.667Z" fill="white"/>
</mask>
<g mask="url(#mask33_47_13832)">
<mask id="mask34_47_13832" style="mask-type:luminance" maskUnits="userSpaceOnUse" x="65" y="299" width="52" height="31">
<path d="M113.422 329.614L65.7396 306.468L69.2344 299.271L116.911 322.416L113.422 329.614Z" fill="white"/>
</mask>
<g mask="url(#mask34_47_13832)">
<mask id="mask35_47_13832" style="mask-type:luminance" maskUnits="userSpaceOnUse" x="65" y="299" width="52" height="31">
<path d="M113.422 329.614L65.7396 306.468L69.2344 299.271L116.911 322.416L113.422 329.614Z" fill="white"/>
</mask>
<g mask="url(#mask35_47_13832)">
<path d="M98.9948 320.494L110.839 326.239C111.312 326.473 111.88 326.276 112.109 325.802C112.339 325.322 112.146 324.76 111.667 324.531L108.255 322.869L108.25 322.88L99.8281 318.791C99.3542 318.562 98.7864 318.76 98.5573 319.234C98.3281 319.708 98.526 320.265 98.9948 320.494Z" fill="#FCD590"/>
</g>
</g>
</g>
<mask id="mask36_47_13832" style="mask-type:luminance" maskUnits="userSpaceOnUse" x="194" y="291" width="54" height="16">
<path d="M194 291H247.333V307H194V291Z" fill="white"/>
</mask>
<g mask="url(#mask36_47_13832)">
<mask id="mask37_47_13832" style="mask-type:luminance" maskUnits="userSpaceOnUse" x="193" y="290" width="55" height="18">
<path d="M194.974 290.995L247.318 299.281L246.068 307.182L193.719 298.896L194.974 290.995Z" fill="white"/>
</mask>
<g mask="url(#mask37_47_13832)">
<mask id="mask38_47_13832" style="mask-type:luminance" maskUnits="userSpaceOnUse" x="193" y="290" width="55" height="18">
<path d="M247.198 299.265L194.849 290.974L193.599 298.875L245.948 307.166L247.198 299.265Z" fill="white"/>
</mask>
<g mask="url(#mask38_47_13832)">
<path d="M198.719 291.604L202.469 292.197V292.208L239.693 298.098V298.088L243.443 298.682C245.51 299.01 246.927 300.958 246.599 303.025C246.271 305.093 244.323 306.51 242.255 306.182L197.531 299.104C195.464 298.775 194.047 296.838 194.375 294.77C194.703 292.703 196.651 291.275 198.719 291.604Z" fill="#FCD590"/>
</g>
</g>
</g>
<mask id="mask39_47_13832" style="mask-type:luminance" maskUnits="userSpaceOnUse" x="228" y="297" width="17" height="6">
<path d="M228.667 297.667H244.667V303H228.667V297.667Z" fill="white"/>
</mask>
<g mask="url(#mask39_47_13832)">
<mask id="mask40_47_13832" style="mask-type:luminance" maskUnits="userSpaceOnUse" x="193" y="290" width="55" height="18">
<path d="M194.974 290.995L247.318 299.281L246.068 307.182L193.719 298.896L194.974 290.995Z" fill="white"/>
</mask>
<g mask="url(#mask40_47_13832)">
<mask id="mask41_47_13832" style="mask-type:luminance" maskUnits="userSpaceOnUse" x="193" y="290" width="55" height="18">
<path d="M247.198 299.265L194.849 290.974L193.599 298.875L245.948 307.166L247.198 299.265Z" fill="white"/>
</mask>
<g mask="url(#mask41_47_13832)">
<path d="M230.146 298.494L243.151 300.552C243.672 300.635 244.021 301.119 243.938 301.64C243.859 302.161 243.375 302.515 242.849 302.432L239.099 301.838L239.104 301.828L229.859 300.364C229.339 300.281 228.984 299.796 229.068 299.276C229.151 298.755 229.636 298.411 230.146 298.494Z" fill="#FCD590"/>
</g>
</g>
</g>
<mask id="mask42_47_13832" style="mask-type:luminance" maskUnits="userSpaceOnUse" x="199" y="275" width="39" height="43">
<path d="M199.333 275H238V317.667H199.333V275Z" fill="white"/>
</mask>
<g mask="url(#mask42_47_13832)">
<mask id="mask43_47_13832" style="mask-type:luminance" maskUnits="userSpaceOnUse" x="197" y="274" width="43" height="45">
<path d="M197.906 313.052L234.083 274.323L239.932 279.781L203.75 318.515L197.906 313.052Z" fill="white"/>
</mask>
<g mask="url(#mask43_47_13832)">
<mask id="mask44_47_13832" style="mask-type:luminance" maskUnits="userSpaceOnUse" x="197" y="274" width="43" height="45">
<path d="M234 274.411L197.818 313.146L203.667 318.604L239.844 279.875L234 274.411Z" fill="white"/>
</mask>
<g mask="url(#mask44_47_13832)">
<path d="M200.505 310.286L203.099 307.51L203.104 307.52L228.833 279.979L228.828 279.968L231.417 277.197C232.849 275.666 235.255 275.583 236.781 277.015C238.313 278.442 238.396 280.848 236.964 282.38L206.057 315.468C204.625 316.999 202.229 317.088 200.698 315.661C199.167 314.229 199.078 311.817 200.505 310.286Z" fill="#FCD590"/>
</g>
</g>
</g>
<mask id="mask45_47_13832" style="mask-type:luminance" maskUnits="userSpaceOnUse" x="223" y="277" width="13" height="14">
<path d="M223.333 277.667H235.333V291H223.333V277.667Z" fill="white"/>
</mask>
<g mask="url(#mask45_47_13832)">
<mask id="mask46_47_13832" style="mask-type:luminance" maskUnits="userSpaceOnUse" x="197" y="274" width="43" height="45">
<path d="M197.906 313.052L234.083 274.323L239.932 279.781L203.75 318.515L197.906 313.052Z" fill="white"/>
</mask>
<g mask="url(#mask46_47_13832)">
<mask id="mask47_47_13832" style="mask-type:luminance" maskUnits="userSpaceOnUse" x="197" y="274" width="43" height="45">
<path d="M234 274.411L197.818 313.146L203.667 318.604L239.844 279.875L234 274.411Z" fill="white"/>
</mask>
<g mask="url(#mask47_47_13832)">
<path d="M223.813 288.109L232.802 278.489C233.161 278.104 233.76 278.083 234.146 278.442C234.531 278.802 234.552 279.401 234.193 279.786L231.599 282.562L231.594 282.557L225.203 289.396C224.844 289.781 224.245 289.802 223.859 289.442C223.474 289.078 223.458 288.489 223.813 288.109Z" fill="#FCD590"/>
</g>
</g>
</g>
<mask id="mask48_47_13832" style="mask-type:luminance" maskUnits="userSpaceOnUse" x="59" y="113" width="178" height="178">
<path d="M59.276 113.896H236.276V290.896H59.276V113.896Z" fill="white"/>
</mask>
<g mask="url(#mask48_47_13832)">
<path d="M235.917 202.219C235.917 203.662 235.885 205.11 235.812 206.552C235.74 207.995 235.635 209.438 235.495 210.875C235.354 212.313 235.177 213.75 234.964 215.177C234.75 216.61 234.505 218.031 234.224 219.448C233.937 220.865 233.625 222.276 233.271 223.677C232.922 225.078 232.536 226.474 232.115 227.854C231.698 229.24 231.245 230.61 230.755 231.974C230.271 233.333 229.75 234.682 229.198 236.016C228.641 237.354 228.057 238.672 227.437 239.979C226.823 241.287 226.172 242.578 225.49 243.854C224.807 245.125 224.099 246.386 223.354 247.625C222.609 248.865 221.839 250.083 221.036 251.287C220.229 252.49 219.401 253.672 218.536 254.828C217.677 255.99 216.786 257.13 215.87 258.25C214.953 259.365 214.01 260.458 213.042 261.531C212.068 262.599 211.073 263.646 210.052 264.672C209.026 265.693 207.984 266.688 206.911 267.662C205.839 268.63 204.745 269.573 203.63 270.49C202.51 271.406 201.37 272.297 200.208 273.156C199.052 274.021 197.87 274.849 196.667 275.656C195.464 276.458 194.245 277.229 193.005 277.974C191.766 278.719 190.505 279.427 189.234 280.11C187.958 280.792 186.667 281.443 185.359 282.057C184.052 282.677 182.734 283.261 181.396 283.818C180.062 284.37 178.714 284.891 177.354 285.375C175.99 285.865 174.62 286.318 173.234 286.735C171.854 287.156 170.458 287.542 169.057 287.891C167.656 288.245 166.245 288.557 164.828 288.844C163.411 289.125 161.99 289.37 160.557 289.583C159.13 289.797 157.693 289.974 156.255 290.115C154.818 290.255 153.375 290.36 151.932 290.432C150.49 290.505 149.042 290.537 147.599 290.537C146.151 290.537 144.708 290.505 143.266 290.432C141.823 290.36 140.38 290.255 138.943 290.115C137.505 289.974 136.068 289.797 134.641 289.583C133.208 289.37 131.786 289.125 130.37 288.844C128.948 288.557 127.542 288.245 126.141 287.891C124.734 287.542 123.344 287.156 121.958 286.735C120.578 286.318 119.203 285.865 117.844 285.375C116.484 284.891 115.135 284.37 113.802 283.818C112.464 283.261 111.146 282.677 109.839 282.057C108.531 281.443 107.24 280.792 105.964 280.11C104.687 279.427 103.432 278.719 102.193 277.974C100.953 277.229 99.7343 276.458 98.5312 275.656C97.3281 274.849 96.1458 274.021 94.9843 273.156C93.8229 272.297 92.6875 271.406 91.5677 270.49C90.4531 269.573 89.3593 268.63 88.2864 267.662C87.2135 266.688 86.1666 265.693 85.1458 264.672C84.125 263.646 83.1302 262.599 82.1562 261.531C81.1875 260.458 80.2448 259.365 79.3281 258.25C78.4114 257.13 77.5208 255.99 76.6614 254.828C75.7968 253.672 74.9635 252.49 74.1614 251.287C73.3593 250.083 72.5885 248.865 71.8437 247.625C71.0989 246.386 70.3906 245.125 69.7083 243.854C69.026 242.578 68.375 241.287 67.7604 239.979C67.1406 238.672 66.552 237.354 66 236.016C65.4479 234.682 64.927 233.333 64.4427 231.974C63.9531 230.61 63.5 229.24 63.0833 227.854C62.6614 226.474 62.276 225.078 61.927 223.677C61.5729 222.276 61.2552 220.865 60.9739 219.448C60.6927 218.031 60.4479 216.61 60.2343 215.177C60.0208 213.75 59.8437 212.313 59.7031 210.875C59.5625 209.438 59.4531 207.995 59.3854 206.552C59.3125 205.11 59.276 203.662 59.276 202.219C59.276 200.771 59.3125 199.328 59.3854 197.886C59.4531 196.443 59.5625 195 59.7031 193.563C59.8437 192.125 60.0208 190.688 60.2343 189.261C60.4479 187.828 60.6927 186.406 60.9739 184.99C61.2552 183.568 61.5729 182.162 61.927 180.761C62.276 179.354 62.6614 177.964 63.0833 176.578C63.5 175.198 63.9531 173.823 64.4427 172.464C64.927 171.104 65.4479 169.755 66 168.422C66.552 167.083 67.1406 165.766 67.7604 164.458C68.375 163.151 69.026 161.86 69.7083 160.583C70.3906 159.307 71.0989 158.052 71.8437 156.813C72.5885 155.573 73.3593 154.354 74.1614 153.151C74.9635 151.948 75.7968 150.766 76.6614 149.604C77.5208 148.443 78.4114 147.307 79.3281 146.188C80.2448 145.073 81.1875 143.979 82.1562 142.906C83.1302 141.833 84.125 140.787 85.1458 139.766C86.1666 138.745 87.2135 137.75 88.2864 136.776C89.3593 135.807 90.4531 134.865 91.5677 133.948C92.6875 133.031 93.8229 132.141 94.9843 131.281C96.1458 130.417 97.3281 129.583 98.5312 128.781C99.7343 127.979 100.953 127.208 102.193 126.464C103.432 125.719 104.687 125.011 105.964 124.328C107.24 123.646 108.531 122.995 109.839 122.38C111.146 121.761 112.464 121.172 113.802 120.62C115.135 120.068 116.484 119.547 117.844 119.063C119.203 118.573 120.578 118.12 121.958 117.703C123.344 117.281 124.734 116.896 126.141 116.547C127.542 116.193 128.948 115.875 130.37 115.594C131.786 115.313 133.208 115.068 134.641 114.854C136.068 114.641 137.505 114.464 138.943 114.323C140.38 114.182 141.823 114.073 143.266 114.005C144.708 113.932 146.151 113.896 147.599 113.896C149.042 113.896 150.49 113.932 151.932 114.005C153.375 114.073 154.818 114.182 156.255 114.323C157.693 114.464 159.13 114.641 160.557 114.854C161.99 115.068 163.411 115.313 164.828 115.594C166.245 115.875 167.656 116.193 169.057 116.547C170.458 116.896 171.854 117.281 173.234 117.703C174.62 118.12 175.99 118.573 177.354 119.063C178.714 119.547 180.062 120.068 181.396 120.62C182.734 121.172 184.052 121.761 185.359 122.38C186.667 122.995 187.958 123.646 189.234 124.328C190.505 125.011 191.766 125.719 193.005 126.464C194.245 127.208 195.464 127.979 196.667 128.781C197.87 129.583 199.052 130.417 200.208 131.281C201.37 132.141 202.51 133.031 203.63 133.948C204.745 134.865 205.839 135.807 206.911 136.776C207.984 137.75 209.026 138.745 210.052 139.766C211.073 140.787 212.068 141.833 213.042 142.906C214.01 143.979 214.953 145.073 215.87 146.188C216.786 147.307 217.677 148.443 218.536 149.604C219.401 150.766 220.229 151.948 221.036 153.151C221.839 154.354 222.609 155.573 223.354 156.813C224.099 158.052 224.807 159.307 225.49 160.583C226.172 161.86 226.823 163.151 227.437 164.458C228.057 165.766 228.641 167.083 229.198 168.422C229.75 169.755 230.271 171.104 230.755 172.464C231.245 173.823 231.698 175.198 232.115 176.578C232.536 177.964 232.922 179.354 233.271 180.761C233.625 182.162 233.937 183.568 234.224 184.99C234.505 186.406 234.75 187.828 234.964 189.261C235.177 190.688 235.354 192.125 235.495 193.563C235.635 195 235.74 196.443 235.812 197.886C235.885 199.328 235.917 200.771 235.917 202.219Z" fill="#442F19"/>
</g>
<mask id="mask49_47_13832" style="mask-type:luminance" maskUnits="userSpaceOnUse" x="59" y="54" width="178" height="177">
<path d="M59.276 54.3384H236.276V231H59.276V54.3384Z" fill="white"/>
</mask>
<g mask="url(#mask49_47_13832)">
<path d="M235.917 142.656C235.917 144.104 235.885 145.547 235.812 146.989C235.74 148.437 235.635 149.875 235.495 151.312C235.354 152.755 235.177 154.187 234.964 155.62C234.75 157.047 234.505 158.469 234.224 159.89C233.937 161.307 233.625 162.713 233.271 164.12C232.922 165.521 232.536 166.911 232.115 168.297C231.698 169.677 231.245 171.052 230.755 172.411C230.271 173.771 229.75 175.12 229.198 176.458C228.641 177.792 228.057 179.114 227.437 180.422C226.823 181.724 226.172 183.015 225.49 184.292C224.807 185.568 224.099 186.823 223.354 188.062C222.609 189.302 221.839 190.526 221.036 191.724C220.229 192.927 219.401 194.109 218.536 195.271C217.677 196.432 216.786 197.573 215.87 198.687C214.953 199.807 214.01 200.901 213.042 201.969C212.068 203.042 211.073 204.088 210.052 205.109C209.026 206.13 207.984 207.13 206.911 208.099C205.839 209.068 204.745 210.015 203.63 210.932C202.51 211.849 201.37 212.734 200.208 213.599C199.052 214.458 197.87 215.292 196.667 216.094C195.464 216.896 194.245 217.672 193.005 218.411C191.766 219.156 190.505 219.87 189.234 220.552C187.958 221.229 186.667 221.88 185.359 222.5C184.052 223.114 182.734 223.703 181.396 224.255C180.062 224.807 178.714 225.328 177.354 225.818C175.99 226.302 174.62 226.755 173.234 227.177C171.854 227.594 170.458 227.979 169.057 228.333C167.656 228.682 166.245 229 164.828 229.281C163.411 229.562 161.99 229.812 160.557 230.021C159.13 230.234 157.693 230.411 156.255 230.552C154.818 230.693 153.375 230.802 151.932 230.87C150.49 230.943 149.042 230.979 147.599 230.979C146.151 230.979 144.708 230.943 143.266 230.87C141.823 230.802 140.38 230.693 138.943 230.552C137.505 230.411 136.068 230.234 134.641 230.021C133.208 229.812 131.786 229.562 130.37 229.281C128.948 229 127.542 228.682 126.141 228.333C124.734 227.979 123.344 227.594 121.958 227.177C120.578 226.755 119.203 226.302 117.844 225.818C116.484 225.328 115.135 224.807 113.802 224.255C112.464 223.703 111.146 223.114 109.839 222.5C108.531 221.88 107.24 221.229 105.964 220.552C104.687 219.87 103.432 219.156 102.193 218.411C100.953 217.672 99.7343 216.896 98.5312 216.094C97.3281 215.292 96.1458 214.458 94.9843 213.599C93.8229 212.734 92.6875 211.849 91.5677 210.932C90.4531 210.015 89.3593 209.068 88.2864 208.099C87.2135 207.13 86.1666 206.13 85.1458 205.109C84.125 204.088 83.1302 203.042 82.1562 201.969C81.1875 200.901 80.2448 199.807 79.3281 198.687C78.4114 197.573 77.5208 196.432 76.6614 195.271C75.7968 194.109 74.9635 192.927 74.1614 191.724C73.3593 190.526 72.5885 189.302 71.8437 188.062C71.0989 186.823 70.3906 185.568 69.7083 184.292C69.026 183.015 68.375 181.724 67.7604 180.422C67.1406 179.114 66.552 177.792 66 176.458C65.4479 175.12 64.927 173.771 64.4427 172.411C63.9531 171.052 63.5 169.677 63.0833 168.297C62.6614 166.911 62.276 165.521 61.927 164.12C61.5729 162.713 61.2552 161.307 60.9739 159.89C60.6927 158.469 60.4479 157.047 60.2343 155.62C60.0208 154.187 59.8437 152.755 59.7031 151.312C59.5625 149.875 59.4531 148.437 59.3854 146.989C59.3125 145.547 59.276 144.104 59.276 142.656C59.276 141.213 59.3125 139.765 59.3854 138.323C59.4531 136.88 59.5625 135.437 59.7031 134C59.8437 132.562 60.0208 131.13 60.2343 129.698C60.4479 128.271 60.6927 126.844 60.9739 125.427C61.2552 124.01 61.5729 122.599 61.927 121.198C62.276 119.797 62.6614 118.401 63.0833 117.021C63.5 115.635 63.9531 114.265 64.4427 112.906C64.927 111.542 65.4479 110.193 66 108.859C66.552 107.526 67.1406 106.203 67.7604 104.896C68.375 103.588 69.026 102.297 69.7083 101.026C70.3906 99.7498 71.0989 98.4894 71.8437 97.2498C72.5885 96.0103 73.3593 94.7915 74.1614 93.5884C74.9635 92.3853 75.7968 91.2082 76.6614 90.0467C77.5208 88.8853 78.4114 87.7446 79.3281 86.63C80.2448 85.5103 81.1875 84.4165 82.1562 83.3436C83.1302 82.2759 84.125 81.229 85.1458 80.2082C86.1666 79.1821 87.2135 78.1873 88.2864 77.2186C89.3593 76.2446 90.4531 75.3019 91.5677 74.3853C92.6875 73.4686 93.8229 72.578 94.9843 71.7186C96.1458 70.8592 97.3281 70.0259 98.5312 69.2238C99.7343 68.4165 100.953 67.6457 102.193 66.9009C103.432 66.1613 104.687 65.4478 105.964 64.7655C107.24 64.0832 108.531 63.4373 109.839 62.8175C111.146 62.1978 112.464 61.6144 113.802 61.0623C115.135 60.505 116.484 59.9894 117.844 59.4998C119.203 59.0155 120.578 58.5623 121.958 58.1405C123.344 57.7186 124.734 57.3332 126.141 56.9842C127.542 56.6353 128.948 56.3175 130.37 56.0363C131.786 55.755 133.208 55.505 134.641 55.2915C136.068 55.0832 137.505 54.9061 138.943 54.7603C140.38 54.6196 141.823 54.5155 143.266 54.4425C144.708 54.3748 146.151 54.3384 147.599 54.3384C149.042 54.3384 150.49 54.3748 151.932 54.4425C153.375 54.5155 154.818 54.6196 156.255 54.7603C157.693 54.9061 159.13 55.0832 160.557 55.2915C161.99 55.505 163.411 55.755 164.828 56.0363C166.245 56.3175 167.656 56.6353 169.057 56.9842C170.458 57.3332 171.854 57.7186 173.234 58.1405C174.62 58.5623 175.99 59.0155 177.354 59.4998C178.714 59.9894 180.062 60.505 181.396 61.0623C182.734 61.6144 184.052 62.1978 185.359 62.8175C186.667 63.4373 187.958 64.0832 189.234 64.7655C190.505 65.4478 191.766 66.1613 193.005 66.9009C194.245 67.6457 195.464 68.4165 196.667 69.2238C197.87 70.0259 199.052 70.8592 200.208 71.7186C201.37 72.578 202.51 73.4686 203.63 74.3853C204.745 75.3019 205.839 76.2446 206.911 77.2186C207.984 78.1873 209.026 79.1821 210.052 80.2082C211.073 81.229 212.068 82.2759 213.042 83.3436C214.01 84.4165 214.953 85.5103 215.87 86.63C216.786 87.7446 217.677 88.8853 218.536 90.0467C219.401 91.2082 220.229 92.3853 221.036 93.5884C221.839 94.7915 222.609 96.0103 223.354 97.2498C224.099 98.4894 224.807 99.7498 225.49 101.026C226.172 102.297 226.823 103.588 227.437 104.896C228.057 106.203 228.641 107.526 229.198 108.859C229.75 110.193 230.271 111.542 230.755 112.906C231.245 114.265 231.698 115.635 232.115 117.021C232.536 118.401 232.922 119.797 233.271 121.198C233.625 122.599 233.937 124.01 234.224 125.427C234.505 126.844 234.75 128.271 234.964 129.698C235.177 131.13 235.354 132.562 235.495 134C235.635 135.437 235.74 136.88 235.812 138.323C235.885 139.765 235.917 141.213 235.917 142.656Z" fill="#EDE0D2"/>
</g>
<mask id="mask50_47_13832" style="mask-type:luminance" maskUnits="userSpaceOnUse" x="153" y="105" width="64" height="64">
<path d="M153.979 105.573H216.677V168.271H153.979V105.573Z" fill="white"/>
</mask>
<g mask="url(#mask50_47_13832)">
<mask id="mask51_47_13832" style="mask-type:luminance" maskUnits="userSpaceOnUse" x="153" y="105" width="64" height="64">
<path d="M185.328 105.573C168.016 105.573 153.979 119.609 153.979 136.922C153.979 154.234 168.016 168.271 185.328 168.271C202.641 168.271 216.677 154.234 216.677 136.922C216.677 119.609 202.641 105.573 185.328 105.573Z" fill="white"/>
</mask>
<g mask="url(#mask51_47_13832)">
<path d="M153.979 105.573H216.677V168.271H153.979V105.573Z" fill="white"/>
</g>
</g>
<mask id="mask52_47_13832" style="mask-type:luminance" maskUnits="userSpaceOnUse" x="74" y="98" width="63" height="64">
<path d="M74.151 98.8071H136.849V161.5H74.151V98.8071Z" fill="white"/>
</mask>
<g mask="url(#mask52_47_13832)">
<mask id="mask53_47_13832" style="mask-type:luminance" maskUnits="userSpaceOnUse" x="74" y="98" width="63" height="64">
<path d="M105.5 98.8071C88.1875 98.8071 74.151 112.844 74.151 130.156C74.151 147.469 88.1875 161.5 105.5 161.5C122.812 161.5 136.849 147.469 136.849 130.156C136.849 112.844 122.812 98.8071 105.5 98.8071Z" fill="white"/>
</mask>
<g mask="url(#mask53_47_13832)">
<path d="M74.151 98.8071H136.849V161.5H74.151V98.8071Z" fill="white"/>
</g>
</g>
<mask id="mask54_47_13832" style="mask-type:luminance" maskUnits="userSpaceOnUse" x="165" y="117" width="40" height="40">
<path d="M165.948 117.542H204.708V156.302H165.948V117.542Z" fill="white"/>
</mask>
<g mask="url(#mask54_47_13832)">
<mask id="mask55_47_13832" style="mask-type:luminance" maskUnits="userSpaceOnUse" x="165" y="117" width="40" height="40">
<path d="M185.328 117.542C174.625 117.542 165.948 126.219 165.948 136.922C165.948 147.625 174.625 156.302 185.328 156.302C196.031 156.302 204.708 147.625 204.708 136.922C204.708 126.219 196.031 117.542 185.328 117.542Z" fill="white"/>
</mask>
<g mask="url(#mask55_47_13832)">
<path d="M165.948 117.542H204.708V156.302H165.948V117.542Z" fill="black"/>
</g>
</g>
<mask id="mask56_47_13832" style="mask-type:luminance" maskUnits="userSpaceOnUse" x="85" y="108" width="40" height="40">
<path d="M85.4584 108.516H124.224V147.281H85.4584V108.516Z" fill="white"/>
</mask>
<g mask="url(#mask56_47_13832)">
<mask id="mask57_47_13832" style="mask-type:luminance" maskUnits="userSpaceOnUse" x="85" y="108" width="40" height="40">
<path d="M104.844 108.516C94.1407 108.516 85.4584 117.193 85.4584 127.896C85.4584 138.604 94.1407 147.281 104.844 147.281C115.547 147.281 124.224 138.604 124.224 127.896C124.224 117.193 115.547 108.516 104.844 108.516Z" fill="white"/>
</mask>
<g mask="url(#mask57_47_13832)">
<path d="M85.4584 108.516H124.224V147.281H85.4584V108.516Z" fill="black"/>
</g>
</g>
<mask id="mask58_47_13832" style="mask-type:luminance" maskUnits="userSpaceOnUse" x="114" y="235" width="66" height="24">
<path d="M114.901 235H179.901V258.984H114.901V235Z" fill="white"/>
</mask>
<g mask="url(#mask58_47_13832)">
<path d="M172.687 248.24C163.823 245.839 157.193 247.865 152.833 250.432C158.792 244.375 167.875 242.386 170.781 241.891L172.687 248.24ZM162.208 235.021L164.708 240.99C159.995 242.453 153.839 245.297 149.672 250.537C152.307 241.365 159.521 236.537 162.208 235.021ZM132.948 235.021C135.635 236.537 142.849 241.349 145.484 250.552C141.318 245.313 135.161 242.469 130.448 241.011L132.948 235.021ZM124.375 241.891C127.286 242.386 136.37 244.375 142.323 250.432C137.969 247.865 131.333 245.839 122.469 248.24L124.375 241.891ZM151.406 259.313H143.75C142.068 257.136 134.786 250.141 114.901 258.427L116.62 252.865C136.453 243.235 146.25 256.453 146.661 257.031C146.677 257.047 146.693 257.047 146.714 257.068C146.729 257.099 146.745 257.136 146.781 257.151C146.797 257.167 146.797 257.167 146.797 257.188C146.828 257.219 146.865 257.235 146.917 257.255C146.948 257.271 146.984 257.302 147.016 257.323C147.052 257.339 147.083 257.375 147.135 257.391C147.151 257.391 147.172 257.406 147.172 257.406C147.24 257.443 147.323 257.443 147.406 257.458C147.458 257.458 147.495 257.49 147.547 257.49C147.562 257.49 147.578 257.49 147.594 257.49C147.615 257.49 147.63 257.49 147.646 257.49C147.698 257.49 147.734 257.474 147.781 257.458C147.87 257.443 147.937 257.443 148.021 257.406C148.036 257.406 148.057 257.391 148.057 257.391C148.104 257.375 148.141 257.339 148.172 257.323C148.208 257.302 148.245 257.287 148.276 257.255C148.312 257.219 148.359 257.203 148.396 257.188C148.411 257.167 148.411 257.167 148.411 257.151C148.448 257.12 148.464 257.099 148.479 257.068C148.5 257.047 148.516 257.047 148.531 257.031C148.937 256.453 158.74 243.235 178.573 252.865L180.292 258.427C160.391 250.141 153.089 257.151 151.406 259.313Z" fill="#EDE0D2"/>
</g>
<mask id="mask59_47_13832" style="mask-type:luminance" maskUnits="userSpaceOnUse" x="31" y="235" width="121" height="72">
<path d="M31.3334 235H151.333V307H31.3334V235Z" fill="white"/>
</mask>
<g mask="url(#mask59_47_13832)">
<mask id="mask60_47_13832" style="mask-type:luminance" maskUnits="userSpaceOnUse" x="25" y="229" width="133" height="84">
<path d="M40.0417 229.896L157.135 273.646L142.787 312.052L25.6927 268.302L40.0417 229.896Z" fill="white"/>
</mask>
<g mask="url(#mask60_47_13832)">
<mask id="mask61_47_13832" style="mask-type:luminance" maskUnits="userSpaceOnUse" x="25" y="229" width="133" height="84">
<path d="M40.0417 229.896L157.135 273.646L142.787 312.052L25.6927 268.302L40.0417 229.896Z" fill="white"/>
</mask>
<g mask="url(#mask61_47_13832)">
<path d="M123.62 304.787L44.9689 275.401C34.448 271.469 29.0991 259.745 33.0314 249.219C36.9637 238.698 48.6876 233.349 59.2137 237.281L137.86 266.672C148.386 270.604 153.729 282.328 149.797 292.849C145.865 303.375 134.141 308.719 123.62 304.787Z" fill="#604428"/>
<path d="M123.552 304.974L44.9011 275.584C34.2866 271.62 28.8803 259.766 32.8491 249.151C36.8126 238.531 48.6668 233.13 59.2814 237.099L137.932 266.485C148.547 270.453 153.953 282.302 149.984 292.917C146.016 303.537 134.167 308.938 123.552 304.974ZM59.1407 237.469C48.7293 233.578 37.1095 238.875 33.2189 249.292C29.3282 259.703 34.6251 271.323 45.0418 275.214L123.688 304.599C134.099 308.49 145.724 303.193 149.615 292.781C153.505 282.37 148.203 270.745 137.792 266.854L59.1407 237.469Z" fill="#604428"/>
</g>
</g>
</g>
<mask id="mask62_47_13832" style="mask-type:luminance" maskUnits="userSpaceOnUse" x="14" y="189" width="144" height="86">
<path d="M14 189.667H158V275H14V189.667Z" fill="white"/>
</mask>
<g mask="url(#mask62_47_13832)">
<mask id="mask63_47_13832" style="mask-type:luminance" maskUnits="userSpaceOnUse" x="7" y="183" width="158" height="99">
<path d="M24.75 183.271L164.328 235.422L147.177 281.323L7.599 229.172L24.75 183.271Z" fill="white"/>
</mask>
<g mask="url(#mask63_47_13832)">
<mask id="mask64_47_13832" style="mask-type:luminance" maskUnits="userSpaceOnUse" x="7" y="183" width="158" height="99">
<path d="M24.75 183.271L164.328 235.422L147.177 281.323L7.599 229.172L24.75 183.271Z" fill="white"/>
</mask>
<g mask="url(#mask64_47_13832)">
<path d="M124.078 272.265L30.6094 237.344C18.1042 232.666 11.7501 218.734 16.4219 206.229C21.099 193.724 35.0313 187.37 47.5365 192.041L141.005 226.969C153.51 231.64 159.865 245.573 155.193 258.078C150.516 270.588 136.583 276.937 124.078 272.265Z" fill="#604428"/>
<path d="M123.995 272.489L30.5261 237.562C17.9115 232.849 11.4896 218.766 16.2032 206.146C20.9167 193.531 35 187.109 47.6198 191.823L141.089 226.745C153.703 231.463 160.125 245.547 155.411 258.161C150.698 270.781 136.615 277.203 123.995 272.489ZM47.4532 192.266C35.0782 187.641 21.2709 193.937 16.6459 206.312C12.0209 218.687 18.3177 232.495 30.6927 237.12L124.161 272.047C136.536 276.667 150.344 270.37 154.969 258C159.594 245.625 153.297 231.812 140.922 227.187L47.4532 192.266Z" fill="#604428"/>
</g>
</g>
</g>
<mask id="mask65_47_13832" style="mask-type:luminance" maskUnits="userSpaceOnUse" x="2" y="151" width="143" height="86">
<path d="M2 151H144.667V236.333H2V151Z" fill="white"/>
</mask>
<g mask="url(#mask65_47_13832)">
<mask id="mask66_47_13832" style="mask-type:luminance" maskUnits="userSpaceOnUse" x="-6" y="145" width="158" height="99">
<path d="M12.0782 145.042L151.651 197.198L134.5 243.099L-5.07288 190.943L12.0782 145.042Z" fill="white"/>
</mask>
<g mask="url(#mask66_47_13832)">
<mask id="mask67_47_13832" style="mask-type:luminance" maskUnits="userSpaceOnUse" x="-6" y="145" width="158" height="99">
<path d="M12.0782 145.042L151.651 197.198L134.5 243.099L-5.07288 190.943L12.0782 145.042Z" fill="white"/>
</mask>
<g mask="url(#mask67_47_13832)">
<path d="M111.406 234.041L17.9376 199.114C5.43235 194.442 -0.921816 180.51 3.75006 168.005C8.42193 155.495 22.3542 149.146 34.8646 153.817L128.333 188.745C140.839 193.416 147.193 207.349 142.516 219.854C137.844 232.359 123.912 238.713 111.406 234.041Z" fill="#604428"/>
</g>
</g>
</g>
<mask id="mask68_47_13832" style="mask-type:luminance" maskUnits="userSpaceOnUse" x="0" y="151" width="145" height="86">
<path d="M0.666626 151H144.667V236.333H0.666626V151Z" fill="white"/>
</mask>
<g mask="url(#mask68_47_13832)">
<mask id="mask69_47_13832" style="mask-type:luminance" maskUnits="userSpaceOnUse" x="-6" y="145" width="158" height="99">
<path d="M12.078 145.042L151.651 197.198L134.5 243.099L-5.073 190.943L12.078 145.042Z" fill="white"/>
</mask>
<g mask="url(#mask69_47_13832)">
<mask id="mask70_47_13832" style="mask-type:luminance" maskUnits="userSpaceOnUse" x="-6" y="145" width="158" height="99">
<path d="M12.078 145.042L151.651 197.198L134.5 243.099L-5.073 190.943L12.078 145.042Z" fill="white"/>
</mask>
<g mask="url(#mask70_47_13832)">
<path d="M111.323 234.26L17.8541 199.339C5.2395 194.62 -1.18237 180.536 3.53117 167.922C8.24471 155.302 22.328 148.88 34.9426 153.599L128.411 188.521C141.031 193.234 147.453 207.318 142.74 219.937C138.026 232.552 123.937 238.974 111.323 234.26ZM34.7812 154.036C22.4062 149.417 8.59367 155.714 3.97388 168.089C-0.651122 180.458 5.64575 194.271 18.0208 198.896L111.49 233.818C123.865 238.443 137.672 232.146 142.297 219.771C146.922 207.396 140.625 193.589 128.25 188.964L34.7812 154.036Z" fill="#604428"/>
</g>
</g>
</g>
<mask id="mask71_47_13832" style="mask-type:luminance" maskUnits="userSpaceOnUse" x="120" y="167" width="36" height="20">
<path d="M120.667 167H155.333V187H120.667V167Z" fill="white"/>
</mask>
<g mask="url(#mask71_47_13832)">
<mask id="mask72_47_13832" style="mask-type:luminance" maskUnits="userSpaceOnUse" x="118" y="163" width="40" height="28">
<path d="M123.615 163.646L157.318 173.089L152.458 190.422L118.755 180.974L123.615 163.646Z" fill="white"/>
</mask>
<g mask="url(#mask72_47_13832)">
<mask id="mask73_47_13832" style="mask-type:luminance" maskUnits="userSpaceOnUse" x="118" y="163" width="40" height="28">
<path d="M123.615 163.646L157.318 173.089L152.458 190.422L118.755 180.974L123.615 163.646Z" fill="white"/>
</mask>
<g mask="url(#mask73_47_13832)">
<path d="M154.859 181.505C154.703 182.057 154.443 182.573 154.078 183.057C153.708 183.537 153.245 183.974 152.677 184.37C152.109 184.761 151.458 185.099 150.713 185.391C149.974 185.677 149.156 185.906 148.266 186.078C147.38 186.25 146.432 186.365 145.427 186.412C144.422 186.464 143.385 186.453 142.302 186.38C141.224 186.302 140.13 186.167 139.016 185.974C137.906 185.776 136.797 185.526 135.693 185.219C134.588 184.906 133.51 184.547 132.458 184.136C131.406 183.724 130.401 183.271 129.443 182.771C128.479 182.276 127.583 181.745 126.755 181.182C125.922 180.615 125.172 180.031 124.5 179.422C123.828 178.807 123.255 178.188 122.771 177.557C122.286 176.927 121.901 176.297 121.625 175.667C121.344 175.037 121.172 174.422 121.109 173.818C121.047 173.214 121.094 172.636 121.25 172.083C121.401 171.531 121.667 171.016 122.031 170.531C122.401 170.047 122.865 169.609 123.432 169.219C123.995 168.828 124.651 168.484 125.391 168.198C126.135 167.912 126.948 167.682 127.838 167.505C128.729 167.333 129.677 167.224 130.682 167.172C131.682 167.125 132.724 167.136 133.802 167.208C134.88 167.281 135.979 167.417 137.088 167.615C138.203 167.807 139.312 168.063 140.417 168.37C141.516 168.682 142.594 169.042 143.646 169.453C144.698 169.865 145.703 170.318 146.667 170.813C147.625 171.313 148.521 171.844 149.354 172.406C150.182 172.969 150.937 173.557 151.604 174.167C152.276 174.776 152.854 175.401 153.338 176.031C153.823 176.662 154.203 177.292 154.484 177.922C154.76 178.552 154.932 179.167 154.995 179.771C155.062 180.375 155.016 180.948 154.859 181.505Z" fill="#FFB93E"/>
</g>
</g>
</g>
<mask id="mask74_47_13832" style="mask-type:luminance" maskUnits="userSpaceOnUse" x="47" y="0" width="213" height="93">
<path d="M47.3334 0.333496H259.333V92.3335H47.3334V0.333496Z" fill="white"/>
</mask>
<g mask="url(#mask74_47_13832)">
<mask id="mask75_47_13832" style="mask-type:luminance" maskUnits="userSpaceOnUse" x="45" y="-24" width="226" height="169">
<path d="M80.2292 -23.8384L270.328 38.3127L235.521 144.766L45.4271 82.6147L80.2292 -23.8384Z" fill="white"/>
</mask>
<g mask="url(#mask75_47_13832)">
<mask id="mask76_47_13832" style="mask-type:luminance" maskUnits="userSpaceOnUse" x="45" y="-24" width="226" height="169">
<path d="M80.2292 -23.8384L270.328 38.3127L235.521 144.766L45.4271 82.6147L80.2292 -23.8384Z" fill="white"/>
</mask>
<g mask="url(#mask76_47_13832)">
<path d="M159.859 2.66669C163.969 3.95315 167.698 5.98961 171.188 8.48961C176.76 12.4792 182.177 16.6667 187.182 21.3542C189.073 23.1302 191.078 24.7604 193.24 26.1927C201.505 31.6667 209 38.1459 216.854 44.1459C222.354 48.3542 227.771 52.6979 233.943 55.9115C241.719 59.9636 248.974 64.8802 256.464 69.4063C257.037 69.7552 257.526 70.099 258.266 70.2032C259.422 70.3698 259.583 71.1875 258.969 72.2344C256.51 76.3854 252.734 78.5729 248.125 79.4688C245.292 80.0157 242.432 80.5209 239.568 80.8854C231.792 81.8802 224.13 83.6771 216.297 84.2344C212.276 84.5209 208.25 84.8125 204.219 84.875C197.729 84.974 191.323 85.6719 184.943 86.8177C176.912 88.2605 168.823 89.0573 160.656 89.1823C157.427 89.2292 154.12 88.8125 150.979 90.0469C145.958 89.3282 141.005 90.5521 136.005 90.5938C122.547 90.7136 109.083 90.875 95.6199 91.099C87.0313 91.2396 78.422 90.6823 69.9532 88.9271C64.7345 87.849 59.5209 86.7552 54.3126 85.6146C52.9063 85.3073 51.5365 84.8229 50.3751 83.8854C48.8334 82.6354 48.0418 81.1094 48.474 79.0834C48.5209 78.8646 48.7032 78.5834 48.6303 78.4323C47.5105 76.2448 49.2345 75.8698 50.6147 75.2657C52.0886 74.6146 53.3803 73.6667 54.6824 72.7344C60.5105 68.5782 66.1876 64.1979 72.198 60.3229C79.8126 55.4115 87.4428 50.5157 95.2813 45.9532C107.75 38.6979 119.521 30.4323 130.422 20.9584C132.031 19.5625 133.641 18.1563 135.344 16.875C139.62 13.6667 143.573 10.1042 147.333 6.31774C148.787 4.84899 150.432 3.6094 152.125 2.44794C153.865 1.25003 155.708 0.859402 157.708 1.94794C158.365 2.2969 159.141 2.43232 159.859 2.66669Z" fill="#433820"/>
</g>
</g>
</g>
<mask id="mask77_47_13832" style="mask-type:luminance" maskUnits="userSpaceOnUse" x="52" y="5" width="193" height="76">
<path d="M52.6666 5.6665H244.667V80.3332H52.6666V5.6665Z" fill="white"/>
</mask>
<g mask="url(#mask77_47_13832)">
<mask id="mask78_47_13832" style="mask-type:luminance" maskUnits="userSpaceOnUse" x="45" y="-24" width="226" height="169">
<path d="M80.2291 -23.8389L270.328 38.3122L235.521 144.765L45.427 82.6143L80.2291 -23.8389Z" fill="white"/>
</mask>
<g mask="url(#mask78_47_13832)">
<mask id="mask79_47_13832" style="mask-type:luminance" maskUnits="userSpaceOnUse" x="45" y="-24" width="226" height="169">
<path d="M80.2291 -23.8389L270.328 38.3122L235.521 144.765L45.427 82.6143L80.2291 -23.8389Z" fill="white"/>
</mask>
<g mask="url(#mask79_47_13832)">
<path d="M127.651 79.7078C127.432 79.6453 127.203 79.4995 126.995 79.5308C121.005 80.411 114.984 79.7964 108.984 79.8381C102.896 79.8797 96.802 79.7703 90.7186 79.786C82.9999 79.812 75.3697 78.9578 67.7134 78.3016C63.8488 77.9683 59.9895 77.5464 56.1249 77.1662C55.3697 77.0881 54.5988 77.0672 53.9218 76.6297C54.0207 75.9006 54.6978 75.7547 55.1665 75.4214C59.5832 72.3016 64.0311 69.2183 68.4374 66.0776C80.5415 57.4422 93.1509 49.5881 106.042 42.187C112.948 38.2183 119.245 33.4422 125.422 28.4735C130.583 24.3172 135.661 20.062 140.833 15.911C143.276 13.9474 145.479 11.7391 147.724 9.57243C148.568 8.76513 149.25 8.39534 150.182 9.37972C150.432 9.64013 150.849 9.73909 151.167 9.94222C154.833 12.2651 158.125 11.5828 161.443 8.33284C161.713 8.06722 162.005 7.79638 162.193 7.47347C162.776 6.48909 163.453 6.61409 164.281 7.15055C165.62 8.02034 167.052 8.75472 168.349 9.6818C174.177 13.8433 179.875 18.1714 185.135 23.0516C186.693 24.4995 188.276 25.9683 190.042 27.1401C198.542 32.8172 206.37 39.3693 214.443 45.6037C219.927 49.8381 225.338 54.1818 231.422 57.5464C235.552 59.8328 239.729 62.0308 243.693 64.6037C243.995 64.8016 244.411 64.8797 244.542 65.4891C244.026 66.1037 243.167 66.2443 242.422 66.4526C234.786 68.5672 227.167 70.7287 219.203 71.3172C214.646 71.6558 210.13 72.3901 205.604 73.0256C197.906 74.0985 190.187 74.9266 182.406 75.1141C177.297 75.2391 172.219 75.7495 167.182 76.5828C156.698 78.312 146.099 78.3068 135.531 78.7547C134.849 78.7808 134.156 78.7078 133.484 78.5933C132.62 78.4578 131.984 78.6662 131.62 79.4995C130.328 80.161 129.031 80.6974 127.651 79.7078Z" fill="#EDE0D2"/>
</g>
</g>
</g>
<mask id="mask80_47_13832" style="mask-type:luminance" maskUnits="userSpaceOnUse" x="115" y="67" width="142" height="19">
<path d="M115.333 67H256.667V85.6667H115.333V67Z" fill="white"/>
</mask>
<g mask="url(#mask80_47_13832)">
<mask id="mask81_47_13832" style="mask-type:luminance" maskUnits="userSpaceOnUse" x="45" y="-24" width="226" height="169">
<path d="M80.2292 -23.8384L270.328 38.3127L235.521 144.766L45.4271 82.6147L80.2292 -23.8384Z" fill="white"/>
</mask>
<g mask="url(#mask81_47_13832)">
<mask id="mask82_47_13832" style="mask-type:luminance" maskUnits="userSpaceOnUse" x="45" y="-24" width="226" height="169">
<path d="M80.2292 -23.8384L270.328 38.3127L235.521 144.766L45.4271 82.6147L80.2292 -23.8384Z" fill="white"/>
</mask>
<g mask="url(#mask82_47_13832)">
<path d="M175.01 82.1667C174.969 82.1042 174.891 82.0469 174.885 81.9792C174.682 77.3073 174.359 78.2604 178.37 77.9688C182.995 77.6302 187.646 77.5886 192.26 77.1511C193.609 77.0208 194.25 78.3386 195.385 78.0886C196.375 77.8698 196.813 76.7292 198.057 76.5938C204.635 75.8594 211.198 74.9688 217.76 74.1042C218.88 73.9583 219.75 73.8906 220.323 75.2396C220.74 76.2188 221.802 76.099 222.125 75.0313C222.443 73.9792 222.932 73.5625 223.99 73.4375C229.375 72.8229 234.563 71.224 239.807 69.9583C241.281 69.599 242.427 69.4636 243.365 70.8646C243.75 71.4375 244.359 71.7969 245.073 71.9167C245.563 72 245.99 71.9011 246.26 71.4583C246.479 71.0938 246.37 70.7292 246.177 70.3854C245.813 69.7188 245.031 69.3802 244.781 68.625C244.839 68.5573 244.885 68.4896 244.943 68.4479C246.932 66.9271 248.719 67.4115 250.583 68.8177C252.141 70.0052 253.88 70.9479 255.505 71.9792C255.281 72.8281 254.854 73.349 254.365 73.8333C253.703 74.4844 253.078 75.3073 252.219 74.0261C252.005 73.7083 251.589 73.6302 251.203 73.5781C249.828 73.3958 249.359 74.0469 249.875 75.4271C249.953 75.625 250 75.8333 250.068 76.0573C249.115 76.7031 248.057 76.8646 247.016 77.0313C239.656 78.2188 232.286 79.3698 224.927 80.5625C223.875 80.7344 223.031 80.7552 222.458 79.6146C222.182 79.0677 221.521 78.8229 220.865 79.0781C220.255 79.3177 220.141 79.8177 220.318 80.3958C220.573 81.2344 219.969 81.2708 219.438 81.3229C217.318 81.5208 215.203 81.7708 213.078 81.875C208.443 82.0938 203.807 82.224 199.172 82.4219C198.276 82.4583 197.661 82.3802 197.823 81.2396C197.87 80.8802 197.755 80.4792 197.646 80.1198C197.479 79.5625 197.089 79.1927 196.479 79.2292C195.865 79.2604 195.516 79.6667 195.453 80.2656C195.37 81.0729 195.708 82.1146 194.885 82.5677C194.198 82.9531 193.276 82.9219 192.453 83.0469C189.443 83.5052 186.432 83.9531 183.422 84.4063C181.01 82.1927 177.839 82.8229 175.01 82.1667ZM147.724 80.9219C146.813 80.9531 145.906 81.0156 144.995 81.0313C141.51 81.0781 138.021 81.1354 134.536 81.1354C133.297 81.1354 132.068 80.9844 131.62 79.5052C130.281 79.2292 128.984 79.9011 127.651 79.7083C127.901 81.4167 127.802 81.6354 126.505 82.1198C125.5 82.4948 124.453 82.5781 123.391 82.5729C121.432 82.5677 119.469 82.5938 117.51 82.5261C116.635 82.4948 116.198 82.7292 116.349 83.6563C116.917 84.3594 117.641 84.5365 118.547 84.5886C127.344 85.0729 136.115 84.4636 144.891 84.0781C146.813 83.9948 148.854 84.1719 150.698 83.2761C150.177 80.849 150.177 80.8438 147.724 80.9219ZM172.37 79.8906C172.391 78.8802 171.891 78.5261 170.932 78.6875C170.406 78.7813 169.875 78.8177 169.349 78.9011C164.464 79.6823 159.557 80.2865 154.62 80.6042C152.661 80.7292 152.661 80.75 153.224 82.7188C153.839 83.6458 154.729 83.4792 155.656 83.4115C160.375 83.0469 165.099 82.724 169.828 82.4063C170.729 82.3438 171.651 82.4479 172.359 81.7136C172.359 81.1094 172.354 80.5 172.37 79.8906Z" fill="#9D743B"/>
</g>
</g>
</g>
<mask id="mask83_47_13832" style="mask-type:luminance" maskUnits="userSpaceOnUse" x="50" y="4" width="135" height="86">
<path d="M50 4.3335H184.667V89.6668H50V4.3335Z" fill="white"/>
</mask>
<g mask="url(#mask83_47_13832)">
<mask id="mask84_47_13832" style="mask-type:luminance" maskUnits="userSpaceOnUse" x="45" y="-24" width="226" height="169">
<path d="M80.2292 -23.8384L270.328 38.3127L235.521 144.766L45.4271 82.6147L80.2292 -23.8384Z" fill="white"/>
</mask>
<g mask="url(#mask84_47_13832)">
<mask id="mask85_47_13832" style="mask-type:luminance" maskUnits="userSpaceOnUse" x="45" y="-24" width="226" height="169">
<path d="M80.2292 -23.8384L270.328 38.3127L235.521 144.766L45.4271 82.6147L80.2292 -23.8384Z" fill="white"/>
</mask>
<g mask="url(#mask85_47_13832)">
<path d="M175.01 82.167C176.568 81.8598 178.13 81.9743 179.703 82.042C181.109 82.1045 182.177 82.4691 182.781 83.8233C182.891 84.0681 183.208 84.2139 183.427 84.4066C176.385 85.6723 169.292 86.4014 162.141 86.5368C159.406 86.5889 156.604 87.0785 153.953 86.6566C151.333 86.24 149.042 87.2868 146.573 87.3285C143.995 87.3754 141.412 87.6202 138.833 87.7973C131.698 88.2973 124.552 88.0368 117.412 88.0837C110.115 88.1306 102.818 88.4275 95.5209 88.5785C93.8542 88.615 92.0834 88.8493 90.5365 88.3806C89.0157 87.9223 87.6823 87.3754 86.1823 88.2035C78.5105 87.7608 70.8959 87.0056 63.5105 84.6983C63.3698 84.6566 63.2292 84.5837 63.0886 84.5264L63.1042 84.5577C63.6823 84.0681 63.7761 83.4483 63.7657 82.7139C63.7553 82.1202 63.9792 81.5264 64.1146 80.8545C64.7917 80.5212 65.5313 80.6931 66.2709 80.7504C72.3959 81.2295 78.4896 82.1306 84.6407 82.292C85.5313 82.3129 85.8907 82.5837 85.8907 83.4483C85.8907 83.7452 85.948 84.0629 86.0573 84.3389C86.2709 84.891 86.7136 85.1775 87.3021 85.1566C88.0053 85.1306 88.099 84.5837 88.1928 84.0368C88.5 82.2973 88.5105 82.2191 90.2448 82.2816C97.6146 82.5629 104.99 82.3598 112.359 82.4431C113.979 82.4587 114 82.5056 113.927 84.1618C113.901 84.766 113.719 85.3858 113.802 85.9743C113.891 86.6462 114.151 87.4014 115.052 87.3025C115.792 87.2191 116.276 86.8129 116.229 85.9223C116.188 85.1723 116.302 84.417 116.349 83.6618C124.771 84.5837 133.193 83.9275 141.615 83.6566C144.646 83.5577 147.651 82.9066 150.698 83.2816C152.474 84.0473 152.474 84.0473 153.224 82.7243C159.177 82.8129 165.068 81.9118 171 81.7087C171.453 81.6879 171.906 81.5681 172.359 81.7191C172.391 81.7868 172.438 81.8493 172.453 81.9223C172.604 82.7556 172.281 83.9223 173.568 84.0629C174.932 84.2087 174.667 82.9118 175.01 82.167ZM63.099 84.5577C61.8073 84.2816 60.9792 83.6775 61.4115 82.1827C61.7344 81.0577 61.2761 80.391 60.1771 80.2191C57.4844 79.792 54.7969 79.3545 52.0886 79.0525C50.8438 78.9118 50.349 79.9014 51.0365 81.016C51.6146 81.9535 52.5313 82.4795 53.5521 82.865C55.5573 83.6254 57.6771 83.8754 59.7709 84.1462C60.8646 84.2868 61.9219 85.0212 63.0886 84.5264L63.099 84.5577ZM159.839 6.27642C160.094 5.87017 160.271 5.43267 159.734 5.10975C158.156 4.17225 156.281 5.47433 154.672 4.43267C154.208 4.13058 153.641 4.58371 153.245 4.92225C152.521 5.53163 151.151 5.80767 151.281 6.87537C151.412 7.9535 152.797 7.94308 153.568 8.33371C155.901 9.12537 158.641 8.2035 159.839 6.27642ZM110.375 65.3545C112.25 66.0681 114.245 66.1254 116.208 66.2712C120.672 66.5993 125.13 67.2868 129.62 66.5993C131.88 66.2504 134.156 66.1098 136.443 66.1254C138.885 66.141 141.313 65.891 143.646 65.1045C144.484 64.8233 145.375 64.5733 145.615 63.5264C144.625 62.7348 143.537 62.8077 142.484 62.9066C139.76 63.1723 137.021 63.365 134.323 63.8233C129.26 64.6827 124.203 64.7608 119.094 64.3962C115.859 64.1618 112.594 64.0264 109.193 64.3598C109.453 65.2295 109.979 65.2035 110.375 65.3545ZM130.125 46.4639C128.755 46.4222 127.391 46.4275 126.026 46.3493C119.573 45.9691 113.13 46.8702 106.677 46.4691C106.094 46.4327 105.365 46.4431 105.224 47.24C105.099 47.9639 105.625 48.3181 106.214 48.5837C107.5 49.1618 108.859 49.2868 110.234 49.2087C114.49 48.9795 118.745 49.1254 122.995 49.1358C124.818 49.141 126.646 49.0264 128.448 48.7295C129.734 48.516 130.875 48.0368 131.953 47.1202C131.307 46.6202 130.729 46.4847 130.125 46.4639ZM112.833 55.1983C108.385 54.667 103.969 53.9795 99.5417 53.3493C98.4011 53.1827 97.3386 52.792 96.2188 52.6098C95.7501 52.5316 95.2969 52.6514 95.0626 53.1306C94.8282 53.6254 95.1042 53.99 95.4167 54.3441C95.8959 54.8806 96.5521 55.0993 97.1928 55.3337C99.3386 56.1202 101.552 56.6098 103.813 56.9743C108.099 57.6566 112.401 57.9795 116.729 57.6879C117.526 57.6358 118.401 57.641 119.089 56.6983C116.906 56.1618 114.896 55.4483 112.833 55.1983ZM101.677 62.99C99.7553 62.2608 97.8021 61.7243 95.7344 61.4483C92.9584 61.0733 90.2188 60.4014 87.4636 59.8441C86.8334 59.7191 86.1719 59.6723 85.8073 60.2452C85.3855 60.9014 85.9636 61.3754 86.375 61.7973C86.6875 62.1202 87.0469 62.4431 87.448 62.6254C92.1615 64.7712 97.073 65.3441 102.156 64.417C102.354 64.3806 102.526 64.1879 102.776 64.0212C102.531 63.3337 102.104 63.1566 101.677 62.99ZM84.8959 68.1879C81.9896 67.6931 79.0417 67.4379 76.1094 67.0837C75.7396 67.042 75.3386 66.9535 75.0834 67.3389C74.7813 67.7973 74.9792 68.2191 75.2605 68.5889C75.6303 69.0733 76.125 69.4223 76.6355 69.7608C79.9323 71.9379 83.5938 72.1566 87.3594 71.7764C88.0261 71.7087 88.6823 71.4848 89.1094 70.667C87.8334 69.5993 86.5469 68.4691 84.8959 68.1879ZM115.526 71.9743C109.057 71.516 102.578 71.292 95.974 71.4379C96.3386 72.4691 97.0886 72.4952 97.7188 72.6202C99.6563 73.0004 101.589 73.3597 103.537 73.6566C107.073 74.2035 110.625 74.4795 114.188 73.8858C115.083 73.74 116.005 73.6514 116.698 72.8702C116.427 72.1775 115.969 72.0056 115.526 71.9743ZM134.839 58.5368C135.719 58.4275 136.943 58.2452 136.875 57.1514C136.807 56.0368 135.656 55.7712 134.609 55.7452C134.385 55.74 134.156 55.7087 133.932 55.7191C131.13 55.8337 128.333 55.9483 125.537 56.0837C125.016 56.1098 124.453 56.1358 124.026 56.4952C123.531 56.9118 123.427 57.3806 124.068 57.766C124.323 57.9223 124.62 58.0004 125.287 58.2764C128.203 58.5316 131.51 58.9535 134.839 58.5368ZM136.417 71.3077C132.724 71.5681 129.026 71.8337 125.333 72.0941C124.641 72.1462 123.87 72.0577 123.417 72.9848C123.833 73.1202 124.109 73.2816 124.391 73.292C128.771 73.4743 133.151 73.4639 137.505 72.9848C138.51 72.8702 139.641 72.6723 140.318 71.3285C138.906 70.6254 137.656 71.2191 136.417 71.3077ZM138.13 45.2868C137.417 45.5368 137.057 46.1254 137.156 46.8858C137.26 47.6879 137.891 48.1254 138.578 48.0889C140.62 47.9952 142.516 47.4952 143.964 45.667C141.922 44.4847 140.031 44.6202 138.13 45.2868ZM142.62 55.5681C142.219 55.7452 141.745 55.9639 141.938 56.5473C142.063 56.9431 142.443 57.1306 142.833 57.1098C145.458 56.9952 148.016 56.6045 150.297 55.0108C147.656 54.3702 145.094 54.4743 142.62 55.5681Z" fill="#604428"/>
</g>
</g>
</g>
<mask id="mask86_47_13832" style="mask-type:luminance" maskUnits="userSpaceOnUse" x="159" y="32" width="41" height="27">
<path d="M159.333 32.3335H199.333V59.0002H159.333V32.3335Z" fill="white"/>
</mask>
<g mask="url(#mask86_47_13832)">
<mask id="mask87_47_13832" style="mask-type:luminance" maskUnits="userSpaceOnUse" x="144" y="24" width="94" height="96">
<path d="M159.974 24.9741L237.432 40.5262L221.484 119.943L144.031 104.391L159.974 24.9741Z" fill="white"/>
</mask>
<g mask="url(#mask87_47_13832)">
<mask id="mask88_47_13832" style="mask-type:luminance" maskUnits="userSpaceOnUse" x="144" y="24" width="94" height="96">
<path d="M159.974 24.9741L237.432 40.5262L221.484 119.943L144.031 104.391L159.974 24.9741Z" fill="white"/>
</mask>
<g mask="url(#mask88_47_13832)">
<mask id="mask89_47_13832" style="mask-type:luminance" maskUnits="userSpaceOnUse" x="144" y="24" width="94" height="96">
<path d="M159.974 24.9741L237.432 40.5262L221.484 119.943L144.031 104.391L159.974 24.9741Z" fill="white"/>
</mask>
<g mask="url(#mask89_47_13832)">
<path d="M161.458 48.4792C160.266 47.0886 160.24 45.0104 161.479 43.5938C162.833 42.0365 165.188 41.8802 166.745 43.2292C173.974 49.5417 179.906 52.0365 183.911 50.4792C189.224 48.3907 191.359 39.2084 191.734 35.8282C191.958 33.7865 193.792 32.3125 195.844 32.5313C197.906 32.7604 199.396 34.6042 199.146 36.6198C199.083 37.3021 197.281 53.2448 186.646 57.4323C179.797 60.099 171.448 57.224 161.839 48.8542C161.703 48.7396 161.573 48.6146 161.458 48.4792Z" fill="#FF3E12"/>
</g>
</g>
</g>
</g>
<mask id="mask90_47_13832" style="mask-type:luminance" maskUnits="userSpaceOnUse" x="152" y="55" width="28" height="44">
<path d="M152.667 55H179.333V99H152.667V55Z" fill="white"/>
</mask>
<g mask="url(#mask90_47_13832)">
<mask id="mask91_47_13832" style="mask-type:luminance" maskUnits="userSpaceOnUse" x="144" y="24" width="94" height="96">
<path d="M159.974 24.9741L237.432 40.5262L221.484 119.943L144.031 104.391L159.974 24.9741Z" fill="white"/>
</mask>
<g mask="url(#mask91_47_13832)">
<mask id="mask92_47_13832" style="mask-type:luminance" maskUnits="userSpaceOnUse" x="144" y="24" width="94" height="96">
<path d="M159.974 24.9741L237.432 40.5262L221.484 119.943L144.031 104.391L159.974 24.9741Z" fill="white"/>
</mask>
<g mask="url(#mask92_47_13832)">
<mask id="mask93_47_13832" style="mask-type:luminance" maskUnits="userSpaceOnUse" x="144" y="24" width="94" height="96">
<path d="M159.974 24.9741L237.432 40.5262L221.484 119.943L144.031 104.391L159.974 24.9741Z" fill="white"/>
</mask>
<g mask="url(#mask93_47_13832)">
<path d="M161.219 96.4012C159.974 94.9532 160.021 92.797 161.344 91.3855C168.656 83.7241 171.734 77.2762 170.229 72.7189C168.01 65.8699 156.307 63.7189 156.172 63.6772C154.135 63.3647 152.786 61.3855 153.141 59.3751C153.495 57.3439 155.411 55.9897 157.443 56.3439C158.115 56.4376 173.635 59.3491 177.313 70.3647C179.766 77.8335 176.208 86.6199 166.76 96.547C165.318 98.021 162.964 98.0835 161.474 96.6512C161.385 96.573 161.297 96.4897 161.219 96.4012Z" fill="#FF3E12"/>
</g>
</g>
</g>
</g>
<mask id="mask94_47_13832" style="mask-type:luminance" maskUnits="userSpaceOnUse" x="199" y="41" width="31" height="45">
<path d="M199.333 41.6665H230V85.6665H199.333V41.6665Z" fill="white"/>
</mask>
<g mask="url(#mask94_47_13832)">
<mask id="mask95_47_13832" style="mask-type:luminance" maskUnits="userSpaceOnUse" x="144" y="24" width="94" height="96">
<path d="M159.974 24.9736L237.432 40.5257L221.484 119.942L144.031 104.39L159.974 24.9736Z" fill="white"/>
</mask>
<g mask="url(#mask95_47_13832)">
<mask id="mask96_47_13832" style="mask-type:luminance" maskUnits="userSpaceOnUse" x="144" y="24" width="94" height="96">
<path d="M159.974 24.9736L237.432 40.5257L221.484 119.942L144.031 104.39L159.974 24.9736Z" fill="white"/>
</mask>
<g mask="url(#mask96_47_13832)">
<mask id="mask97_47_13832" style="mask-type:luminance" maskUnits="userSpaceOnUse" x="144" y="24" width="94" height="96">
<path d="M159.974 24.9736L237.432 40.5257L221.484 119.942L144.031 104.39L159.974 24.9736Z" fill="white"/>
</mask>
<g mask="url(#mask97_47_13832)">
<path d="M203.516 74.3797C201.38 71.8954 200.156 69.1454 199.802 66.1089C198.51 54.6974 210.536 44.6401 211.917 43.5308C213.479 42.2651 215.755 42.4683 217.078 44.0047C217.094 44.0256 217.115 44.0464 217.156 44.0933C218.448 45.6922 218.198 48.0256 216.599 49.3172C213.755 51.6454 206.505 59.0151 207.214 65.2756C207.615 68.6193 210.453 71.5985 215.563 74.1193L226.422 78.2131C228.365 78.937 229.318 81.0985 228.594 83.0204C227.859 84.9474 225.714 85.9266 223.786 85.187L212.62 80.9683C208.677 79.0568 205.635 76.8381 203.516 74.3797Z" fill="#FF3E12"/>
</g>
</g>
</g>
</g>
<mask id="mask98_47_13832" style="mask-type:luminance" maskUnits="userSpaceOnUse" x="172" y="83" width="49" height="28">
<path d="M172.667 83H220.667V111H172.667V83Z" fill="white"/>
</mask>
<g mask="url(#mask98_47_13832)">
<mask id="mask99_47_13832" style="mask-type:luminance" maskUnits="userSpaceOnUse" x="144" y="24" width="94" height="96">
<path d="M159.974 24.9741L237.432 40.5262L221.484 119.943L144.031 104.391L159.974 24.9741Z" fill="white"/>
</mask>
<g mask="url(#mask99_47_13832)">
<mask id="mask100_47_13832" style="mask-type:luminance" maskUnits="userSpaceOnUse" x="144" y="24" width="94" height="96">
<path d="M159.974 24.9741L237.432 40.5262L221.484 119.943L144.031 104.391L159.974 24.9741Z" fill="white"/>
</mask>
<g mask="url(#mask100_47_13832)">
<mask id="mask101_47_13832" style="mask-type:luminance" maskUnits="userSpaceOnUse" x="144" y="24" width="94" height="96">
<path d="M159.974 24.9741L237.432 40.5262L221.484 119.943L144.031 104.391L159.974 24.9741Z" fill="white"/>
</mask>
<g mask="url(#mask101_47_13832)">
<path d="M174.344 108.99C173.255 107.724 173.135 105.828 174.13 104.386L185.021 89.0574C187.083 86.0261 190.167 84.0834 193.849 83.4741C204.255 81.7918 216.901 91.1095 218.307 92.1772C219.99 93.4011 220.266 95.7553 219.01 97.3803C217.776 99.0261 215.432 99.3595 213.781 98.1043C210.667 95.7553 201.198 89.8386 195.042 90.8491C193.354 91.1251 192.109 91.9168 191.151 93.3334L180.219 108.729C179.021 110.391 176.687 110.787 175.016 109.594C174.76 109.417 174.536 109.214 174.344 108.99Z" fill="#FF3E12"/>
</g>
</g>
</g>
</g>
</svg>
