<svg width="376" height="343" viewBox="0 0 376 343" fill="none" xmlns="http://www.w3.org/2000/svg">
<mask id="mask0_47_13820" style="mask-type:luminance" maskUnits="userSpaceOnUse" x="178" y="187" width="136" height="46">
<path d="M178 187.979H313.365V232.333H178V187.979Z" fill="white"/>
</mask>
<g mask="url(#mask0_47_13820)">
<path d="M200.109 232.302H291.099C303.276 232.302 313.146 222.427 313.146 210.255C313.146 198.078 303.276 188.203 291.099 188.203H200.109C187.938 188.203 178.062 198.078 178.062 210.255C178.062 222.427 187.938 232.302 200.109 232.302Z" fill="#604428"/>
</g>
<mask id="mask1_47_13820" style="mask-type:luminance" maskUnits="userSpaceOnUse" x="177" y="187" width="137" height="46">
<path d="M177.849 187.979H313.365V232.979H177.849V187.979Z" fill="white"/>
</mask>
<g mask="url(#mask1_47_13820)">
<path d="M200.109 232.515H291.099C303.38 232.515 313.365 222.536 313.365 210.255C313.365 197.968 303.38 187.989 291.099 187.989H200.109C187.828 187.989 177.849 197.968 177.849 210.255C177.849 222.536 187.828 232.515 200.109 232.515ZM291.099 188.422C303.146 188.422 312.932 198.208 312.932 210.255C312.932 222.297 303.146 232.088 291.099 232.088H200.109C188.062 232.088 178.276 222.297 178.276 210.255C178.276 198.208 188.062 188.422 200.109 188.422H291.099Z" fill="#604428"/>
</g>
<mask id="mask2_47_13820" style="mask-type:luminance" maskUnits="userSpaceOnUse" x="182" y="146" width="161" height="54">
<path d="M182.026 146.443H342.979V199.443H182.026V146.443Z" fill="white"/>
</mask>
<g mask="url(#mask2_47_13820)">
<path d="M208.438 199.115H316.568C331.036 199.115 342.771 187.381 342.771 172.912C342.771 158.448 331.036 146.714 316.568 146.714H208.438C193.969 146.714 182.234 158.448 182.234 172.912C182.234 187.381 193.969 199.115 208.438 199.115Z" fill="#604428"/>
<path d="M208.438 199.37H316.568C331.162 199.37 343.026 187.511 343.026 172.912C343.026 158.318 331.162 146.458 316.568 146.458H208.438C193.839 146.458 181.979 158.318 181.979 172.912C181.979 187.511 193.839 199.37 208.438 199.37ZM316.568 146.969C330.88 146.969 342.516 158.599 342.516 172.912C342.516 187.229 330.88 198.86 316.568 198.86H208.438C194.12 198.86 182.49 187.229 182.49 172.912C182.49 158.599 194.12 146.969 208.438 146.969H316.568Z" fill="#604428"/>
</g>
<mask id="mask3_47_13820" style="mask-type:luminance" maskUnits="userSpaceOnUse" x="214" y="112" width="162" height="54">
<path d="M214.688 112.448H375.641V165.448H214.688V112.448Z" fill="white"/>
</mask>
<g mask="url(#mask3_47_13820)">
<path d="M241.099 165.114H349.229C363.698 165.114 375.432 153.385 375.432 138.917C375.432 124.448 363.698 112.713 349.229 112.713H241.099C226.63 112.713 214.896 124.448 214.896 138.917C214.896 153.385 226.63 165.114 241.099 165.114Z" fill="#604428"/>
<path d="M241.099 165.369H349.229C363.828 165.369 375.688 153.51 375.688 138.916C375.688 124.317 363.828 112.458 349.229 112.458H241.099C226.5 112.458 214.641 124.317 214.641 138.916C214.641 153.51 226.5 165.369 241.099 165.369ZM349.229 112.968C363.547 112.968 375.177 124.599 375.177 138.916C375.177 153.229 363.547 164.859 349.229 164.859H241.099C226.781 164.859 215.151 153.229 215.151 138.916C215.151 124.599 226.781 112.968 241.099 112.968H349.229Z" fill="#604428"/>
</g>
<mask id="mask4_47_13820" style="mask-type:luminance" maskUnits="userSpaceOnUse" x="104" y="264" width="42" height="50">
<path d="M104.667 264.333H146V313.667H104.667V264.333Z" fill="white"/>
</mask>
<g mask="url(#mask4_47_13820)">
<mask id="mask5_47_13820" style="mask-type:luminance" maskUnits="userSpaceOnUse" x="103" y="263" width="45" height="52">
<path d="M103.609 309.011L141.062 263.417L147.245 268.495L109.792 314.089L103.609 309.011Z" fill="white"/>
</mask>
<g mask="url(#mask5_47_13820)">
<mask id="mask6_47_13820" style="mask-type:luminance" maskUnits="userSpaceOnUse" x="103" y="263" width="45" height="52">
<path d="M103.609 309.011L141.062 263.417L147.245 268.495L109.792 314.089L103.609 309.011Z" fill="white"/>
</mask>
<g mask="url(#mask6_47_13820)">
<path d="M138.339 266.761L135.656 270.026L135.661 270.037L109.005 302.49L108.995 302.479L106.313 305.75C104.828 307.552 105.089 310.224 106.896 311.703C108.698 313.188 111.37 312.922 112.849 311.12L144.875 272.131C146.359 270.328 146.104 267.662 144.302 266.183C142.5 264.703 139.818 264.953 138.339 266.761Z" fill="#FCD590"/>
</g>
</g>
</g>
<mask id="mask7_47_13820" style="mask-type:luminance" maskUnits="userSpaceOnUse" x="107" y="295" width="13" height="15">
<path d="M107.333 295H119.333V309.667H107.333V295Z" fill="white"/>
</mask>
<g mask="url(#mask7_47_13820)">
<mask id="mask8_47_13820" style="mask-type:luminance" maskUnits="userSpaceOnUse" x="103" y="263" width="45" height="52">
<path d="M103.609 309.01L141.062 263.417L147.245 268.495L109.792 314.088L103.609 309.01Z" fill="white"/>
</mask>
<g mask="url(#mask8_47_13820)">
<mask id="mask9_47_13820" style="mask-type:luminance" maskUnits="userSpaceOnUse" x="103" y="263" width="45" height="52">
<path d="M103.609 309.01L141.062 263.417L147.245 268.495L109.792 314.088L103.609 309.01Z" fill="white"/>
</mask>
<g mask="url(#mask9_47_13820)">
<path d="M117.25 295.75L107.937 307.088C107.568 307.547 107.63 308.208 108.088 308.583C108.542 308.958 109.203 308.89 109.578 308.437L112.266 305.167L112.255 305.161L118.875 297.099C119.25 296.646 119.182 295.984 118.729 295.609C118.271 295.234 117.62 295.307 117.25 295.75Z" fill="#FCD590"/>
</g>
</g>
</g>
<mask id="mask10_47_13820" style="mask-type:luminance" maskUnits="userSpaceOnUse" x="74" y="236" width="42" height="50">
<path d="M74 236.333H115.333V285.667H74V236.333Z" fill="white"/>
</mask>
<g mask="url(#mask10_47_13820)">
<mask id="mask11_47_13820" style="mask-type:luminance" maskUnits="userSpaceOnUse" x="73" y="235" width="44" height="51">
<path d="M73.0625 280.807L110.51 235.219L116.693 240.297L79.2448 285.885L73.0625 280.807Z" fill="white"/>
</mask>
<g mask="url(#mask11_47_13820)">
<mask id="mask12_47_13820" style="mask-type:luminance" maskUnits="userSpaceOnUse" x="73" y="235" width="44" height="51">
<path d="M73.0625 280.807L110.51 235.219L116.693 240.297L79.2448 285.885L73.0625 280.807Z" fill="white"/>
</mask>
<g mask="url(#mask12_47_13820)">
<path d="M107.792 238.557L105.104 241.828L105.115 241.833L78.4531 274.292L78.4479 274.281L75.7604 277.552C74.2812 279.354 74.5416 282.026 76.3437 283.505C78.1458 284.99 80.8177 284.724 82.2968 282.922L114.328 243.927C115.807 242.125 115.557 239.464 113.755 237.985C111.948 236.5 109.271 236.755 107.792 238.557Z" fill="#FCD590"/>
</g>
</g>
</g>
<mask id="mask13_47_13820" style="mask-type:luminance" maskUnits="userSpaceOnUse" x="76" y="267" width="13" height="15">
<path d="M76.6667 267H88.6667V281.667H76.6667V267Z" fill="white"/>
</mask>
<g mask="url(#mask13_47_13820)">
<mask id="mask14_47_13820" style="mask-type:luminance" maskUnits="userSpaceOnUse" x="73" y="235" width="44" height="51">
<path d="M73.0625 280.807L110.51 235.219L116.693 240.297L79.2448 285.885L73.0625 280.807Z" fill="white"/>
</mask>
<g mask="url(#mask14_47_13820)">
<mask id="mask15_47_13820" style="mask-type:luminance" maskUnits="userSpaceOnUse" x="73" y="235" width="44" height="51">
<path d="M73.0625 280.807L110.51 235.219L116.693 240.297L79.2448 285.885L73.0625 280.807Z" fill="white"/>
</mask>
<g mask="url(#mask15_47_13820)">
<path d="M86.7032 267.552L77.3907 278.891C77.0157 279.344 77.0834 280.01 77.5366 280.385C77.9949 280.755 78.6564 280.693 79.0314 280.234L81.7136 276.969L81.7084 276.958L88.3282 268.901C88.698 268.448 88.6355 267.781 88.1772 267.406C87.7241 267.036 87.0678 267.109 86.7032 267.552Z" fill="#FCD590"/>
</g>
</g>
</g>
<mask id="mask16_47_13820" style="mask-type:luminance" maskUnits="userSpaceOnUse" x="66" y="251" width="15" height="54">
<path d="M66 251H80.6667V304.333H66V251Z" fill="white"/>
</mask>
<g mask="url(#mask16_47_13820)">
<mask id="mask17_47_13820" style="mask-type:luminance" maskUnits="userSpaceOnUse" x="66" y="250" width="15" height="55">
<path d="M72.7812 304.464L66.2188 251.87L74.1615 250.88L80.7188 303.474L72.7812 304.464Z" fill="white"/>
</mask>
<g mask="url(#mask17_47_13820)">
<mask id="mask18_47_13820" style="mask-type:luminance" maskUnits="userSpaceOnUse" x="66" y="250" width="15" height="55">
<path d="M72.7812 304.464L66.2188 251.87L74.1615 250.88L80.7188 303.474L72.7812 304.464Z" fill="white"/>
</mask>
<g mask="url(#mask18_47_13820)">
<path d="M66.7188 255.761L67.1875 259.526H67.1979L71.8646 296.922L71.8542 296.927L72.3229 300.693C72.5834 302.771 74.4844 304.25 76.5625 303.99C78.6406 303.729 80.1198 301.833 79.8594 299.755L74.2552 254.818C73.9948 252.74 72.1042 251.261 70.0261 251.521C67.9479 251.781 66.4584 253.682 66.7188 255.761Z" fill="#FCD590"/>
</g>
</g>
</g>
<mask id="mask19_47_13820" style="mask-type:luminance" maskUnits="userSpaceOnUse" x="71" y="285" width="6" height="17">
<path d="M71.3333 285.667H76.6666V301.667H71.3333V285.667Z" fill="white"/>
</mask>
<g mask="url(#mask19_47_13820)">
<mask id="mask20_47_13820" style="mask-type:luminance" maskUnits="userSpaceOnUse" x="66" y="250" width="15" height="55">
<path d="M72.7812 304.463L66.2188 251.869L74.1615 250.88L80.7188 303.474L72.7812 304.463Z" fill="white"/>
</mask>
<g mask="url(#mask20_47_13820)">
<mask id="mask21_47_13820" style="mask-type:luminance" maskUnits="userSpaceOnUse" x="66" y="250" width="15" height="55">
<path d="M72.7812 304.463L66.2188 251.869L74.1615 250.88L80.7188 303.474L72.7812 304.463Z" fill="white"/>
</mask>
<g mask="url(#mask21_47_13820)">
<path d="M72.5728 287.396L74.203 300.458C74.2655 300.984 74.7395 301.349 75.2655 301.286C75.7864 301.218 76.1561 300.75 76.0884 300.224L75.6197 296.458H75.6093L74.453 287.172C74.3853 286.646 73.9166 286.276 73.3905 286.343C72.8645 286.411 72.5103 286.88 72.5728 287.396Z" fill="#FCD590"/>
</g>
</g>
</g>
<mask id="mask22_47_13820" style="mask-type:luminance" maskUnits="userSpaceOnUse" x="47" y="265" width="49" height="30">
<path d="M47.3333 265.667H95.3333V295H47.3333V265.667Z" fill="white"/>
</mask>
<g mask="url(#mask22_47_13820)">
<mask id="mask23_47_13820" style="mask-type:luminance" maskUnits="userSpaceOnUse" x="45" y="264" width="52" height="32">
<path d="M93.1562 295.526L45.9114 271.51L49.5364 264.38L96.7812 288.396L93.1562 295.526Z" fill="white"/>
</mask>
<g mask="url(#mask23_47_13820)">
<mask id="mask24_47_13820" style="mask-type:luminance" maskUnits="userSpaceOnUse" x="45" y="264" width="52" height="32">
<path d="M93.1562 295.526L45.9114 271.51L49.5364 264.38L96.7812 288.396L93.1562 295.526Z" fill="white"/>
</mask>
<g mask="url(#mask24_47_13820)">
<path d="M49.4113 273.276L52.7967 274.995L52.8019 274.984L86.4009 292.062L86.3957 292.073L89.7811 293.792C91.6457 294.739 93.9374 293.995 94.8853 292.13C95.8332 290.26 95.0884 287.974 93.2186 287.026L52.854 266.505C50.9894 265.557 48.703 266.292 47.7551 268.161C46.8072 270.026 47.5467 272.323 49.4113 273.276Z" fill="#FCD590"/>
</g>
</g>
</g>
<mask id="mask25_47_13820" style="mask-type:luminance" maskUnits="userSpaceOnUse" x="78" y="284" width="15" height="9">
<path d="M78 284.333H92.6667V292.333H78V284.333Z" fill="white"/>
</mask>
<g mask="url(#mask25_47_13820)">
<mask id="mask26_47_13820" style="mask-type:luminance" maskUnits="userSpaceOnUse" x="45" y="264" width="52" height="32">
<path d="M93.1562 295.526L45.9114 271.511L49.5364 264.38L96.7812 288.396L93.1562 295.526Z" fill="white"/>
</mask>
<g mask="url(#mask26_47_13820)">
<mask id="mask27_47_13820" style="mask-type:luminance" maskUnits="userSpaceOnUse" x="45" y="264" width="52" height="32">
<path d="M93.1562 295.526L45.9114 271.511L49.5364 264.38L96.7812 288.396L93.1562 295.526Z" fill="white"/>
</mask>
<g mask="url(#mask27_47_13820)">
<path d="M78.9009 286.141L90.6353 292.105C91.1092 292.344 91.6769 292.162 91.9165 291.688C92.1561 291.219 91.9738 290.651 91.4998 290.412L88.1144 288.688L88.1092 288.698L79.7655 284.459C79.2967 284.219 78.729 284.401 78.4894 284.875C78.2498 285.344 78.4373 285.907 78.9009 286.141Z" fill="#FCD590"/>
</g>
</g>
</g>
<mask id="mask28_47_13820" style="mask-type:luminance" maskUnits="userSpaceOnUse" x="102" y="288" width="15" height="55">
<path d="M102 288.333H116.667V343H102V288.333Z" fill="white"/>
</mask>
<g mask="url(#mask28_47_13820)">
<mask id="mask29_47_13820" style="mask-type:luminance" maskUnits="userSpaceOnUse" x="101" y="289" width="16" height="54">
<path d="M109.526 289.078L116.083 341.672L108.146 342.661L101.589 290.073L109.526 289.078Z" fill="white"/>
</mask>
<g mask="url(#mask29_47_13820)">
<mask id="mask30_47_13820" style="mask-type:luminance" maskUnits="userSpaceOnUse" x="101" y="288" width="16" height="55">
<path d="M116.068 341.547L109.51 288.958L101.573 289.948L108.13 342.537L116.068 341.547Z" fill="white"/>
</mask>
<g mask="url(#mask30_47_13820)">
<path d="M109.979 292.849L110.453 296.615L110.443 296.62L115.104 334.016H115.115L115.583 337.781C115.844 339.859 114.365 341.761 112.286 342.021C110.208 342.281 108.307 340.802 108.052 338.724L102.448 293.787C102.187 291.714 103.656 289.813 105.734 289.552C107.812 289.292 109.724 290.771 109.979 292.849Z" fill="#FCD590"/>
</g>
</g>
</g>
<mask id="mask31_47_13820" style="mask-type:luminance" maskUnits="userSpaceOnUse" x="110" y="323" width="4" height="18">
<path d="M110 323H114V340.333H110V323Z" fill="white"/>
</mask>
<g mask="url(#mask31_47_13820)">
<mask id="mask32_47_13820" style="mask-type:luminance" maskUnits="userSpaceOnUse" x="101" y="289" width="16" height="54">
<path d="M109.526 289.078L116.083 341.672L108.146 342.661L101.589 290.073L109.526 289.078Z" fill="white"/>
</mask>
<g mask="url(#mask32_47_13820)">
<mask id="mask33_47_13820" style="mask-type:luminance" maskUnits="userSpaceOnUse" x="101" y="288" width="16" height="55">
<path d="M116.068 341.547L109.51 288.958L101.573 289.948L108.13 342.537L116.068 341.547Z" fill="white"/>
</mask>
<g mask="url(#mask33_47_13820)">
<path d="M112.078 324.953L113.709 338.016C113.771 338.542 113.406 339.016 112.88 339.078C112.354 339.146 111.886 338.776 111.818 338.255L111.349 334.484H111.36L110.198 325.198C110.136 324.672 110.5 324.203 111.026 324.135C111.552 324.068 112.016 324.438 112.078 324.953Z" fill="#FCD590"/>
</g>
</g>
</g>
<mask id="mask34_47_13820" style="mask-type:luminance" maskUnits="userSpaceOnUse" x="86" y="299" width="50" height="30">
<path d="M86 299H135.333V328.333H86V299Z" fill="white"/>
</mask>
<g mask="url(#mask34_47_13820)">
<mask id="mask35_47_13820" style="mask-type:luminance" maskUnits="userSpaceOnUse" x="85" y="298" width="52" height="32">
<path d="M89.1458 298.016L136.396 322.031L132.771 329.167L85.5208 305.146L89.1458 298.016Z" fill="white"/>
</mask>
<g mask="url(#mask35_47_13820)">
<mask id="mask36_47_13820" style="mask-type:luminance" maskUnits="userSpaceOnUse" x="85" y="297" width="52" height="33">
<path d="M136.281 321.974L89.0364 297.958L85.4114 305.094L132.656 329.11L136.281 321.974Z" fill="white"/>
</mask>
<g mask="url(#mask36_47_13820)">
<path d="M92.5258 299.75L95.9113 301.469L95.906 301.48L129.5 318.558L129.505 318.547L132.89 320.266C134.76 321.219 135.505 323.506 134.557 325.375C133.604 327.24 131.318 327.985 129.453 327.037L89.0831 306.516C87.2185 305.568 86.4685 303.287 87.4165 301.422C88.3644 299.558 90.656 298.802 92.5258 299.75Z" fill="#FCD590"/>
</g>
</g>
</g>
<mask id="mask37_47_13820" style="mask-type:luminance" maskUnits="userSpaceOnUse" x="118" y="315" width="15" height="10">
<path d="M118 315H132.667V324.333H118V315Z" fill="white"/>
</mask>
<g mask="url(#mask37_47_13820)">
<mask id="mask38_47_13820" style="mask-type:luminance" maskUnits="userSpaceOnUse" x="85" y="298" width="52" height="32">
<path d="M89.1458 298.016L136.396 322.031L132.771 329.167L85.5208 305.146L89.1458 298.016Z" fill="white"/>
</mask>
<g mask="url(#mask38_47_13820)">
<mask id="mask39_47_13820" style="mask-type:luminance" maskUnits="userSpaceOnUse" x="85" y="297" width="52" height="33">
<path d="M136.281 321.974L89.0364 297.958L85.4114 305.094L132.656 329.11L136.281 321.974Z" fill="white"/>
</mask>
<g mask="url(#mask39_47_13820)">
<path d="M120.297 315.99L132.031 321.953C132.505 322.193 132.693 322.766 132.453 323.235C132.214 323.709 131.641 323.891 131.172 323.651L127.786 321.933L127.792 321.922L119.448 317.683C118.979 317.443 118.792 316.875 119.031 316.401C119.271 315.933 119.833 315.755 120.297 315.99Z" fill="#FCD590"/>
</g>
</g>
</g>
<mask id="mask40_47_13820" style="mask-type:luminance" maskUnits="userSpaceOnUse" x="79" y="120" width="178" height="178">
<path d="M79.6926 120.797H256.667V297.667H79.6926V120.797Z" fill="white"/>
</mask>
<g mask="url(#mask40_47_13820)">
<path d="M256.333 209.115C256.333 210.562 256.297 212.005 256.224 213.448C256.156 214.896 256.047 216.333 255.906 217.771C255.766 219.214 255.588 220.646 255.375 222.073C255.161 223.505 254.917 224.927 254.635 226.349C254.354 227.766 254.036 229.172 253.682 230.578C253.333 231.979 252.948 233.37 252.531 234.755C252.109 236.135 251.656 237.51 251.167 238.87C250.682 240.229 250.161 241.578 249.609 242.917C249.057 244.25 248.469 245.573 247.854 246.88C247.234 248.182 246.583 249.474 245.901 250.75C245.224 252.026 244.51 253.281 243.766 254.521C243.021 255.76 242.25 256.984 241.448 258.182C240.646 259.385 239.812 260.568 238.953 261.729C238.088 262.891 237.203 264.026 236.286 265.146C235.365 266.266 234.422 267.359 233.453 268.427C232.484 269.5 231.484 270.547 230.463 271.568C229.443 272.589 228.396 273.589 227.323 274.557C226.255 275.526 225.156 276.474 224.042 277.391C222.922 278.307 221.786 279.193 220.625 280.057C219.463 280.917 218.281 281.75 217.078 282.552C215.88 283.354 214.656 284.13 213.417 284.87C212.177 285.615 210.922 286.328 209.646 287.005C208.37 287.688 207.078 288.339 205.771 288.958C204.469 289.573 203.146 290.161 201.812 290.714C200.474 291.266 199.125 291.786 197.766 292.276C196.406 292.76 195.031 293.214 193.651 293.635C192.266 294.052 190.875 294.438 189.474 294.792C188.068 295.141 186.661 295.458 185.24 295.74C183.823 296.021 182.401 296.271 180.969 296.479C179.542 296.693 178.109 296.87 176.667 297.01C175.229 297.151 173.786 297.26 172.344 297.328C170.901 297.401 169.458 297.438 168.01 297.438C166.568 297.438 165.12 297.401 163.677 297.328C162.234 297.26 160.792 297.151 159.354 297.01C157.917 296.87 156.484 296.693 155.052 296.479C153.62 296.271 152.198 296.021 150.781 295.74C149.365 295.458 147.953 295.141 146.552 294.792C145.151 294.438 143.755 294.052 142.375 293.635C140.99 293.214 139.62 292.76 138.255 292.276C136.896 291.786 135.547 291.266 134.213 290.714C132.875 290.161 131.557 289.573 130.25 288.958C128.943 288.339 127.651 287.688 126.375 287.005C125.104 286.328 123.844 285.615 122.604 284.87C121.365 284.13 120.146 283.354 118.943 282.552C117.74 281.75 116.562 280.917 115.401 280.057C114.24 279.193 113.099 278.307 111.979 277.391C110.865 276.474 109.771 275.526 108.698 274.557C107.63 273.589 106.583 272.589 105.557 271.568C104.536 270.547 103.542 269.5 102.573 268.427C101.599 267.359 100.656 266.266 99.7395 265.146C98.8228 264.026 97.9322 262.891 97.0728 261.729C96.2083 260.568 95.3801 259.385 94.578 258.182C93.7708 256.984 92.9999 255.76 92.2551 254.521C91.5155 253.281 90.802 252.026 90.1197 250.75C89.4374 249.474 88.7864 248.182 88.1718 246.88C87.552 245.573 86.9687 244.25 86.4166 242.917C85.8593 241.578 85.3385 240.229 84.8541 238.87C84.3645 237.51 83.9114 236.135 83.4947 234.755C83.0728 233.37 82.6874 231.979 82.3385 230.578C81.9843 229.172 81.6718 227.766 81.3905 226.349C81.1041 224.927 80.8593 223.505 80.6458 222.073C80.4374 220.646 80.2603 219.214 80.1145 217.771C79.9739 216.333 79.8697 214.896 79.7968 213.448C79.7291 212.005 79.6926 210.562 79.6926 209.115C79.6926 207.672 79.7291 206.224 79.7968 204.781C79.8697 203.339 79.9739 201.896 80.1145 200.458C80.2603 199.021 80.4374 197.589 80.6458 196.156C80.8593 194.729 81.1041 193.302 81.3905 191.885C81.6718 190.469 81.9843 189.057 82.3385 187.656C82.6874 186.255 83.0728 184.859 83.4947 183.479C83.9114 182.094 84.3645 180.724 84.8541 179.359C85.3385 178 85.8593 176.651 86.4166 175.318C86.9687 173.984 87.552 172.661 88.1718 171.354C88.7864 170.047 89.4374 168.755 90.1197 167.484C90.802 166.208 91.5155 164.948 92.2551 163.708C92.9999 162.469 93.7708 161.25 94.578 160.047C95.3801 158.844 96.2083 157.667 97.0728 156.505C97.9322 155.344 98.8228 154.203 99.7395 153.089C100.656 151.969 101.599 150.875 102.573 149.802C103.542 148.734 104.536 147.688 105.557 146.667C106.583 145.641 107.63 144.646 108.698 143.677C109.771 142.703 110.865 141.76 111.979 140.844C113.099 139.927 114.24 139.036 115.401 138.177C116.562 137.318 117.74 136.484 118.943 135.682C120.146 134.875 121.365 134.104 122.604 133.359C123.844 132.62 125.104 131.906 126.375 131.224C127.651 130.542 128.943 129.896 130.25 129.276C131.557 128.656 132.875 128.073 134.213 127.521C135.547 126.964 136.896 126.448 138.255 125.958C139.62 125.474 140.99 125.021 142.375 124.599C143.755 124.177 145.151 123.792 146.552 123.443C147.953 123.094 149.365 122.776 150.781 122.495C152.198 122.208 153.62 121.964 155.052 121.75C156.484 121.542 157.917 121.365 159.354 121.219C160.792 121.078 162.234 120.974 163.677 120.901C165.12 120.833 166.568 120.797 168.01 120.797C169.458 120.797 170.901 120.833 172.344 120.901C173.786 120.974 175.229 121.078 176.667 121.219C178.109 121.365 179.542 121.542 180.969 121.75C182.401 121.964 183.823 122.208 185.24 122.495C186.661 122.776 188.068 123.094 189.474 123.443C190.875 123.792 192.266 124.177 193.651 124.599C195.031 125.021 196.406 125.474 197.766 125.958C199.125 126.448 200.474 126.964 201.812 127.521C203.146 128.073 204.469 128.656 205.771 129.276C207.078 129.896 208.37 130.542 209.646 131.224C210.922 131.906 212.177 132.62 213.417 133.359C214.656 134.104 215.88 134.875 217.078 135.682C218.281 136.484 219.463 137.318 220.625 138.177C221.786 139.036 222.922 139.927 224.042 140.844C225.156 141.76 226.255 142.703 227.323 143.677C228.396 144.646 229.443 145.641 230.463 146.667C231.484 147.688 232.484 148.734 233.453 149.802C234.422 150.875 235.365 151.969 236.286 153.089C237.203 154.203 238.088 155.344 238.953 156.505C239.812 157.667 240.646 158.844 241.448 160.047C242.25 161.25 243.021 162.469 243.766 163.708C244.51 164.948 245.224 166.208 245.901 167.484C246.583 168.755 247.234 170.047 247.854 171.354C248.469 172.661 249.057 173.984 249.609 175.318C250.161 176.651 250.682 178 251.167 179.359C251.656 180.724 252.109 182.094 252.531 183.479C252.948 184.859 253.333 186.255 253.687 187.656C254.036 189.057 254.354 190.469 254.635 191.885C254.917 193.302 255.161 194.729 255.375 196.156C255.588 197.589 255.766 199.021 255.906 200.458C256.047 201.896 256.156 203.339 256.224 204.781C256.297 206.224 256.333 207.672 256.333 209.115Z" fill="#442F19"/>
</g>
<mask id="mask41_47_13820" style="mask-type:luminance" maskUnits="userSpaceOnUse" x="44" y="55" width="178" height="178">
<path d="M44.6511 55.8853H221.651V232.885H44.6511V55.8853Z" fill="white"/>
</mask>
<g mask="url(#mask41_47_13820)">
<path d="M221.292 144.208C221.292 145.651 221.255 147.094 221.182 148.542C221.115 149.984 221.005 151.427 220.865 152.864C220.724 154.302 220.547 155.734 220.333 157.167C220.125 158.594 219.875 160.021 219.594 161.437C219.313 162.854 218.995 164.265 218.646 165.667C218.292 167.068 217.906 168.463 217.49 169.844C217.068 171.229 216.615 172.599 216.13 173.958C215.641 175.323 215.12 176.672 214.568 178.005C214.016 179.338 213.427 180.661 212.813 181.969C212.193 183.276 211.542 184.568 210.865 185.838C210.182 187.114 209.469 188.37 208.724 189.614C207.984 190.854 207.208 192.073 206.406 193.276C205.604 194.474 204.771 195.656 203.912 196.818C203.047 197.979 202.162 199.12 201.245 200.234C200.328 201.354 199.38 202.448 198.412 203.521C197.443 204.588 196.443 205.635 195.422 206.656C194.401 207.682 193.354 208.677 192.281 209.646C191.214 210.62 190.12 211.562 189 212.479C187.885 213.396 186.745 214.286 185.583 215.146C184.422 216.005 183.24 216.838 182.037 217.64C180.839 218.443 179.615 219.219 178.375 219.963C177.135 220.703 175.88 221.417 174.604 222.099C173.328 222.781 172.042 223.427 170.734 224.047C169.427 224.667 168.104 225.25 166.771 225.802C165.432 226.354 164.083 226.875 162.724 227.364C161.365 227.849 159.99 228.302 158.609 228.724C157.224 229.14 155.833 229.526 154.432 229.88C153.031 230.229 151.62 230.547 150.203 230.828C148.781 231.109 147.359 231.359 145.932 231.573C144.5 231.781 143.068 231.958 141.63 232.099C140.188 232.245 138.75 232.349 137.302 232.422C135.859 232.489 134.417 232.526 132.969 232.526C131.526 232.526 130.083 232.489 128.635 232.422C127.193 232.349 125.75 232.245 124.313 232.099C122.875 231.958 121.443 231.781 120.01 231.573C118.583 231.359 117.156 231.109 115.74 230.828C114.323 230.547 112.912 230.229 111.51 229.88C110.109 229.526 108.714 229.14 107.333 228.724C105.948 228.302 104.578 227.849 103.219 227.364C101.854 226.875 100.505 226.354 99.172 225.802C97.8386 225.25 96.5157 224.667 95.2084 224.047C93.9011 223.427 92.6095 222.781 91.3386 222.099C90.0626 221.417 88.8074 220.703 87.5626 219.963C86.323 219.219 85.1042 218.443 83.9011 217.64C82.7032 216.838 81.5209 216.005 80.3595 215.146C79.198 214.286 78.0574 213.396 76.9428 212.479C75.823 211.562 74.7292 210.62 73.6563 209.646C72.5886 208.677 71.5417 207.682 70.5209 206.656C69.4949 205.635 68.5001 204.588 67.5313 203.521C66.5574 202.448 65.6147 201.354 64.698 200.234C63.7813 199.12 62.8907 197.979 62.0313 196.818C61.172 195.656 60.3386 194.474 59.5365 193.276C58.7345 192.073 57.9584 190.854 57.2136 189.614C56.474 188.37 55.7605 187.114 55.0782 185.838C54.3959 184.568 53.7501 183.276 53.1303 181.969C52.5105 180.661 51.9272 179.338 51.3751 178.005C50.8178 176.672 50.3022 175.323 49.8126 173.958C49.3282 172.599 48.8751 171.229 48.4532 169.844C48.0365 168.463 47.6511 167.068 47.297 165.667C46.948 164.265 46.6303 162.854 46.349 161.437C46.0678 160.021 45.8178 158.594 45.6042 157.167C45.3959 155.734 45.2188 154.302 45.0782 152.864C44.9324 151.427 44.8282 149.984 44.7553 148.542C44.6876 147.094 44.6511 145.651 44.6511 144.208C44.6511 142.76 44.6876 141.318 44.7553 139.875C44.8282 138.427 44.9324 136.989 45.0782 135.547C45.2188 134.109 45.3959 132.677 45.6042 131.245C45.8178 129.818 46.0678 128.396 46.349 126.974C46.6303 125.557 46.948 124.146 47.297 122.745C47.6511 121.344 48.0365 119.953 48.4532 118.568C48.8751 117.187 49.3282 115.812 49.8126 114.453C50.3022 113.094 50.8178 111.745 51.3751 110.406C51.9272 109.073 52.5105 107.75 53.1303 106.443C53.7501 105.135 54.3959 103.849 55.0782 102.573C55.7605 101.297 56.474 100.042 57.2136 98.8019C57.9584 97.5623 58.7345 96.3384 59.5365 95.1405C60.3386 93.9373 61.172 92.755 62.0313 91.5936C62.8907 90.4321 63.7813 89.2915 64.698 88.1769C65.6147 87.0571 66.5574 85.9634 67.5313 84.8957C68.5001 83.8228 69.4949 82.7759 70.5209 81.755C71.5417 80.7342 72.5886 79.7342 73.6563 78.7655C74.7292 77.7967 75.823 76.8488 76.9428 75.9321C78.0574 75.0155 79.198 74.13 80.3595 73.2655C81.5209 72.4061 82.7032 71.5728 83.9011 70.7707C85.1042 69.9686 86.323 69.1925 87.5626 68.453C88.8074 67.7082 90.0626 66.9946 91.3386 66.3123C92.6095 65.6353 93.9011 64.9842 95.2084 64.3644C96.5157 63.7498 97.8386 63.1613 99.172 62.6092C100.505 62.0571 101.854 61.5363 103.219 61.0467C104.578 60.5623 105.948 60.1092 107.333 59.6873C108.714 59.2707 110.109 58.8853 111.51 58.5311C112.912 58.1821 114.323 57.8644 115.74 57.5832C117.156 57.3019 118.583 57.0519 120.01 56.8436C121.443 56.63 122.875 56.453 124.313 56.3123C125.75 56.1717 127.193 56.0623 128.635 55.9946C130.083 55.9217 131.526 55.8853 132.969 55.8853C134.417 55.8853 135.859 55.9217 137.302 55.9946C138.75 56.0623 140.188 56.1717 141.63 56.3123C143.068 56.453 144.5 56.63 145.932 56.8436C147.359 57.0519 148.781 57.3019 150.203 57.5832C151.62 57.8644 153.031 58.1821 154.432 58.5311C155.833 58.8853 157.224 59.2707 158.609 59.6873C159.99 60.1092 161.365 60.5623 162.724 61.0467C164.083 61.5363 165.432 62.0571 166.771 62.6092C168.104 63.1613 169.427 63.7498 170.734 64.3644C172.042 64.9842 173.328 65.6353 174.604 66.3123C175.88 66.9946 177.135 67.7082 178.375 68.453C179.615 69.1925 180.839 69.9686 182.037 70.7707C183.24 71.5728 184.422 72.4061 185.583 73.2655C186.745 74.13 187.885 75.0155 189 75.9321C190.12 76.8488 191.214 77.7967 192.281 78.7655C193.354 79.7342 194.401 80.7342 195.422 81.755C196.443 82.7759 197.443 83.8228 198.412 84.8957C199.38 85.9634 200.328 87.0571 201.245 88.1769C202.162 89.2915 203.047 90.4321 203.912 91.5936C204.771 92.755 205.604 93.9373 206.406 95.1405C207.208 96.3384 207.984 97.5623 208.724 98.8019C209.469 100.042 210.182 101.297 210.865 102.573C211.542 103.849 212.193 105.135 212.813 106.443C213.427 107.75 214.016 109.073 214.568 110.406C215.12 111.745 215.641 113.094 216.13 114.453C216.615 115.812 217.068 117.187 217.49 118.568C217.906 119.953 218.292 121.344 218.646 122.745C218.995 124.146 219.313 125.557 219.594 126.974C219.875 128.396 220.125 129.818 220.333 131.245C220.547 132.677 220.724 134.109 220.865 135.547C221.005 136.989 221.115 138.427 221.182 139.875C221.255 141.318 221.292 142.76 221.292 144.208Z" fill="#EDE0D2"/>
</g>
<mask id="mask42_47_13820" style="mask-type:luminance" maskUnits="userSpaceOnUse" x="65" y="95" width="64" height="64">
<path d="M65.4426 95.6719H128.135V158.37H65.4426V95.6719Z" fill="white"/>
</mask>
<g mask="url(#mask42_47_13820)">
<mask id="mask43_47_13820" style="mask-type:luminance" maskUnits="userSpaceOnUse" x="65" y="95" width="64" height="64">
<path d="M96.7916 95.6719C79.4739 95.6719 65.4426 109.708 65.4426 127.021C65.4426 144.333 79.4739 158.37 96.7916 158.37C114.104 158.37 128.135 144.333 128.135 127.021C128.135 109.708 114.104 95.6719 96.7916 95.6719Z" fill="white"/>
</mask>
<g mask="url(#mask43_47_13820)">
<path d="M65.4426 95.6719H128.135V158.37H65.4426V95.6719Z" fill="white"/>
</g>
</g>
<mask id="mask44_47_13820" style="mask-type:luminance" maskUnits="userSpaceOnUse" x="0" y="157" width="85" height="43">
<path d="M0.296875 157.516H84.2969V199.516H0.296875V157.516Z" fill="white"/>
</mask>
<g mask="url(#mask44_47_13820)">
<path d="M84.5156 178.672C84.5156 179.359 84.4479 180.052 84.3125 180.74C84.1823 181.427 83.9792 182.109 83.7083 182.786C83.4375 183.464 83.1042 184.135 82.7031 184.797C82.3021 185.458 81.8385 186.109 81.3125 186.745C80.7865 187.385 80.1979 188.01 79.5469 188.62C78.8958 189.229 78.1875 189.818 77.4219 190.396C76.6562 190.969 75.8333 191.526 74.9583 192.057C74.0833 192.594 73.1615 193.104 72.1823 193.594C71.2083 194.083 70.1875 194.547 69.1198 194.984C68.0573 195.422 66.9479 195.833 65.8021 196.219C64.6562 196.604 63.474 196.958 62.2604 197.281C61.0417 197.609 59.7969 197.906 58.5208 198.167C57.25 198.432 55.9531 198.667 54.6302 198.865C53.3125 199.068 51.974 199.234 50.625 199.37C49.2708 199.505 47.9062 199.604 46.5365 199.672C45.1615 199.74 43.7865 199.776 42.4062 199.776C41.0312 199.776 39.651 199.74 38.2812 199.672C36.9062 199.604 35.5469 199.505 34.1927 199.37C32.8385 199.234 31.5052 199.068 30.1823 198.865C28.8646 198.667 27.5677 198.432 26.2917 198.167C25.0208 197.906 23.776 197.609 22.5573 197.281C21.3438 196.958 20.1615 196.604 19.0156 196.219C17.8646 195.833 16.7604 195.422 15.6927 194.984C14.6302 194.547 13.6094 194.083 12.6302 193.594C11.6563 193.104 10.7344 192.594 9.85938 192.057C8.98438 191.526 8.16146 190.969 7.39583 190.396C6.63021 189.818 5.92188 189.229 5.27083 188.62C4.61979 188.01 4.03125 187.385 3.50521 186.745C2.97396 186.109 2.51042 185.458 2.11458 184.797C1.71354 184.135 1.375 183.464 1.10938 182.786C0.838542 182.109 0.635416 181.427 0.5 180.74C0.364584 180.052 0.296875 179.359 0.296875 178.672C0.296875 177.979 0.364584 177.286 0.5 176.599C0.635416 175.911 0.838542 175.229 1.10938 174.552C1.375 173.875 1.71354 173.203 2.11458 172.542C2.51042 171.88 2.97396 171.229 3.50521 170.594C4.03125 169.953 4.61979 169.328 5.27083 168.719C5.92188 168.109 6.63021 167.521 7.39583 166.943C8.16146 166.37 8.98438 165.812 9.85938 165.281C10.7344 164.745 11.6563 164.234 12.6302 163.745C13.6094 163.255 14.6302 162.792 15.6927 162.354C16.7604 161.917 17.8646 161.505 19.0156 161.12C20.1615 160.74 21.3438 160.38 22.5573 160.057C23.776 159.729 25.0208 159.438 26.2917 159.172C27.5677 158.906 28.8646 158.672 30.1823 158.474C31.5052 158.271 32.8385 158.104 34.1927 157.969C35.5469 157.833 36.9062 157.734 38.2812 157.667C39.651 157.599 41.0312 157.562 42.4062 157.562C43.7865 157.562 45.1615 157.599 46.5365 157.667C47.9062 157.734 49.2708 157.833 50.625 157.969C51.974 158.104 53.3125 158.271 54.6302 158.474C55.9531 158.672 57.25 158.906 58.5208 159.172C59.7969 159.438 61.0417 159.729 62.2604 160.057C63.474 160.38 64.6562 160.74 65.8021 161.12C66.9479 161.505 68.0573 161.917 69.1198 162.354C70.1875 162.792 71.2083 163.255 72.1823 163.745C73.1615 164.234 74.0833 164.745 74.9583 165.281C75.8333 165.812 76.6562 166.37 77.4219 166.943C78.1875 167.521 78.8958 168.109 79.5469 168.719C80.1979 169.328 80.7865 169.953 81.3125 170.594C81.8385 171.229 82.3021 171.88 82.7031 172.542C83.1042 173.203 83.4375 173.875 83.7083 174.552C83.9792 175.229 84.1823 175.911 84.3125 176.599C84.4479 177.286 84.5156 177.979 84.5156 178.672Z" fill="#FFB93E"/>
</g>
<mask id="mask45_47_13820" style="mask-type:luminance" maskUnits="userSpaceOnUse" x="77" y="107" width="39" height="40">
<path d="M77 107.979H115.766V146.739H77V107.979Z" fill="white"/>
</mask>
<g mask="url(#mask45_47_13820)">
<mask id="mask46_47_13820" style="mask-type:luminance" maskUnits="userSpaceOnUse" x="77" y="107" width="39" height="40">
<path d="M96.3802 107.979C85.6771 107.979 77 116.656 77 127.359C77 138.062 85.6771 146.739 96.3802 146.739C107.089 146.739 115.766 138.062 115.766 127.359C115.766 116.656 107.089 107.979 96.3802 107.979Z" fill="white"/>
</mask>
<g mask="url(#mask46_47_13820)">
<path d="M77 107.979H115.766V146.739H77V107.979Z" fill="black"/>
</g>
</g>
<mask id="mask47_47_13820" style="mask-type:luminance" maskUnits="userSpaceOnUse" x="94" y="108" width="19" height="20">
<path d="M94.2917 108.458H112.854V127.021H94.2917V108.458Z" fill="white"/>
</mask>
<g mask="url(#mask47_47_13820)">
<mask id="mask48_47_13820" style="mask-type:luminance" maskUnits="userSpaceOnUse" x="94" y="108" width="19" height="20">
<path d="M103.573 108.458C98.448 108.458 94.2917 112.615 94.2917 117.74C94.2917 122.865 98.448 127.021 103.573 127.021C108.698 127.021 112.854 122.865 112.854 117.74C112.854 112.615 108.698 108.458 103.573 108.458Z" fill="white"/>
</mask>
<g mask="url(#mask48_47_13820)">
<path d="M94.2917 108.458H112.854V127.021H94.2917V108.458Z" fill="white"/>
</g>
</g>
<mask id="mask49_47_13820" style="mask-type:luminance" maskUnits="userSpaceOnUse" x="123" y="239" width="94" height="36">
<path d="M123.26 239.885H216.26V274.885H123.26V239.885Z" fill="white"/>
</mask>
<g mask="url(#mask49_47_13820)">
<path d="M205.297 258.693C192.714 255.292 183.297 258.161 177.115 261.807C185.568 253.213 198.464 250.385 202.589 249.687L205.297 258.693ZM190.422 239.932L193.969 248.406C187.281 250.484 178.537 254.515 172.62 261.953C176.365 248.937 186.604 242.078 190.422 239.932ZM148.885 239.932C152.698 242.078 162.938 248.917 166.682 261.979C160.766 254.542 152.021 250.51 145.333 248.432L148.885 239.932ZM136.714 249.687C140.844 250.385 153.74 253.213 162.188 261.807C156.01 258.161 146.589 255.292 134.01 258.693L136.714 249.687ZM175.083 274.417H164.219C161.828 271.323 151.49 261.401 123.26 273.161L125.703 265.26C153.859 251.594 167.771 270.359 168.349 271.177C168.37 271.203 168.396 271.203 168.422 271.229C168.443 271.276 168.469 271.323 168.516 271.349C168.542 271.375 168.542 271.375 168.542 271.396C168.589 271.443 168.635 271.469 168.708 271.495C168.76 271.515 168.807 271.568 168.854 271.588C168.901 271.614 168.953 271.661 169.026 271.687C169.047 271.687 169.073 271.708 169.073 271.708C169.167 271.76 169.292 271.76 169.412 271.781C169.484 271.781 169.531 271.833 169.604 271.833C169.63 271.833 169.651 271.833 169.677 271.833C169.698 271.833 169.724 271.833 169.75 271.833C169.823 271.833 169.87 271.807 169.943 271.781C170.063 271.76 170.162 271.76 170.281 271.708C170.302 271.708 170.328 271.687 170.328 271.687C170.401 271.661 170.448 271.614 170.495 271.588C170.547 271.568 170.594 271.542 170.641 271.495C170.693 271.443 170.76 271.422 170.813 271.396C170.833 271.375 170.833 271.375 170.833 271.349C170.885 271.302 170.906 271.276 170.932 271.229C170.958 271.203 170.979 271.203 171.005 271.177C171.583 270.359 185.495 251.594 213.651 265.26L216.089 273.161C187.839 261.401 177.474 271.349 175.083 274.417Z" fill="#EDE0D2"/>
</g>
<mask id="mask50_47_13820" style="mask-type:luminance" maskUnits="userSpaceOnUse" x="23" y="0" width="213" height="91">
<path d="M23.3333 0.333496H235.333V91.0002H23.3333V0.333496Z" fill="white"/>
</mask>
<g mask="url(#mask50_47_13820)">
<mask id="mask51_47_13820" style="mask-type:luminance" maskUnits="userSpaceOnUse" x="20" y="-25" width="226" height="170">
<path d="M55.3646 -24.3955L245.464 37.7555L210.661 144.209L20.5625 82.0576L55.3646 -24.3955Z" fill="white"/>
</mask>
<g mask="url(#mask51_47_13820)">
<mask id="mask52_47_13820" style="mask-type:luminance" maskUnits="userSpaceOnUse" x="20" y="-25" width="226" height="170">
<path d="M55.3646 -24.3955L245.464 37.7555L210.661 144.209L20.5625 82.0576L55.3646 -24.3955Z" fill="white"/>
</mask>
<g mask="url(#mask52_47_13820)">
<path d="M135 2.10969C139.104 3.39615 142.839 5.4326 146.323 7.92739C151.896 11.917 157.313 16.1045 162.318 20.7972C164.208 22.568 166.214 24.2034 168.38 25.6357C176.641 31.1045 184.135 37.5836 191.99 43.5889C197.495 47.792 202.906 52.1409 209.078 55.3545C216.859 59.4066 224.109 64.318 231.599 68.8441C232.177 69.1982 232.661 69.542 233.401 69.6461C234.557 69.8128 234.719 70.6305 234.104 71.6722C231.646 75.8284 227.87 78.0159 223.266 78.9066C220.427 79.4586 217.573 79.9586 214.703 80.3232C206.932 81.318 199.271 83.1201 191.438 83.6722C187.417 83.9586 183.385 84.2503 179.359 84.3128C172.87 84.417 166.458 85.1149 160.078 86.2607C152.052 87.7034 143.958 88.5003 135.792 88.6201C132.563 88.6722 129.255 88.2503 126.12 89.4847C121.094 88.7711 116.146 89.9899 111.146 90.0368C97.6823 90.1566 84.2188 90.318 70.7552 90.5368C62.1667 90.6826 53.5573 90.1201 45.0938 88.3701C39.875 87.292 34.6563 86.1982 29.4532 85.0576C28.0417 84.7451 26.6719 84.2659 25.5105 83.3232C23.9688 82.0784 23.1771 80.5472 23.6094 78.5264C23.6563 78.3024 23.8438 78.0264 23.7657 77.8753C22.6459 75.6878 24.375 75.3128 25.75 74.7034C27.224 74.0576 28.5157 73.1045 29.8177 72.1774C35.6459 68.0211 41.3282 63.6357 47.3334 59.7607C54.948 54.8545 62.5782 49.9534 70.4167 45.3961C82.8907 38.1357 94.6563 29.8701 105.557 20.4014C107.172 19.0055 108.776 17.5941 110.479 16.318C114.755 13.1097 118.708 9.54719 122.469 5.75552C123.927 4.28677 125.568 3.05239 127.26 1.89094C129 0.693019 130.849 0.302395 132.844 1.38573C133.5 1.7399 134.276 1.8701 135 2.10969Z" fill="#433820"/>
</g>
</g>
</g>
<mask id="mask53_47_13820" style="mask-type:luminance" maskUnits="userSpaceOnUse" x="28" y="5" width="193" height="76">
<path d="M28.6667 5.6665H220.667V80.3332H28.6667V5.6665Z" fill="white"/>
</mask>
<g mask="url(#mask53_47_13820)">
<mask id="mask54_47_13820" style="mask-type:luminance" maskUnits="userSpaceOnUse" x="20" y="-25" width="226" height="170">
<path d="M55.3646 -24.396L245.464 37.755L210.661 144.208L20.5625 82.0571L55.3646 -24.396Z" fill="white"/>
</mask>
<g mask="url(#mask54_47_13820)">
<mask id="mask55_47_13820" style="mask-type:luminance" maskUnits="userSpaceOnUse" x="20" y="-25" width="226" height="170">
<path d="M55.3646 -24.396L245.464 37.755L210.661 144.208L20.5625 82.0571L55.3646 -24.396Z" fill="white"/>
</mask>
<g mask="url(#mask55_47_13820)">
<path d="M102.792 79.1459C102.568 79.0886 102.339 78.9427 102.135 78.974C96.1459 79.849 90.1251 79.2344 84.1199 79.2761C78.0365 79.3229 71.9376 79.2084 65.8595 79.2292C58.1355 79.2552 50.5053 78.4011 42.849 77.7396C38.9845 77.4115 35.1251 76.9896 31.2605 76.6042C30.5053 76.5313 29.7397 76.5104 29.0574 76.0677C29.1615 75.3386 29.8386 75.1927 30.3022 74.8646C34.724 71.7396 39.172 68.6615 43.573 65.5209C55.6772 56.8802 68.2918 49.0313 81.1772 41.625C88.0834 37.6615 94.3855 32.8854 100.557 27.9115C105.719 23.7604 110.802 19.5 115.969 15.349C118.412 13.3907 120.62 11.1823 122.865 9.01565C123.703 8.20315 124.391 7.83857 125.318 8.82294C125.568 9.08336 125.984 9.18232 126.302 9.38544C129.974 11.7084 133.266 11.0261 136.583 7.77607C136.854 7.51044 137.141 7.23961 137.333 6.91669C137.912 5.92711 138.594 6.05732 139.417 6.59378C140.76 7.45836 142.188 8.19794 143.484 9.12503C149.313 13.2865 155.01 17.6094 160.271 22.4896C161.828 23.9375 163.412 25.4063 165.177 26.5834C173.677 32.2552 181.505 38.8125 189.578 45.0469C195.063 49.2761 200.479 53.6198 206.563 56.9896C210.693 59.2709 214.865 61.474 218.828 64.0469C219.13 64.2448 219.552 64.3177 219.677 64.9323C219.167 65.5417 218.302 65.6875 217.557 65.8907C209.927 68.0052 202.302 70.1719 194.344 70.7604C189.781 71.099 185.266 71.8334 180.74 72.4636C173.042 73.5417 165.323 74.3698 157.547 74.5573C152.432 74.6771 147.359 75.1875 142.318 76.0209C131.833 77.7552 121.234 77.7448 110.667 78.1927C109.99 78.224 109.297 78.1459 108.62 78.0365C107.76 77.8959 107.12 78.1094 106.755 78.9427C105.464 79.599 104.167 80.1407 102.792 79.1459Z" fill="#EDE0D2"/>
</g>
</g>
</g>
<mask id="mask56_47_13820" style="mask-type:luminance" maskUnits="userSpaceOnUse" x="91" y="65" width="141" height="20">
<path d="M91.3333 65.6665H231.333V84.3332H91.3333V65.6665Z" fill="white"/>
</mask>
<g mask="url(#mask56_47_13820)">
<mask id="mask57_47_13820" style="mask-type:luminance" maskUnits="userSpaceOnUse" x="20" y="-25" width="226" height="170">
<path d="M55.3646 -24.396L245.464 37.755L210.661 144.208L20.5625 82.0571L55.3646 -24.396Z" fill="white"/>
</mask>
<g mask="url(#mask57_47_13820)">
<mask id="mask58_47_13820" style="mask-type:luminance" maskUnits="userSpaceOnUse" x="20" y="-25" width="226" height="170">
<path d="M55.3646 -24.396L245.464 37.755L210.661 144.208L20.5625 82.0571L55.3646 -24.396Z" fill="white"/>
</mask>
<g mask="url(#mask58_47_13820)">
<path d="M150.151 81.6092C150.104 81.5467 150.026 81.4842 150.021 81.4217C149.818 76.7447 149.495 77.703 153.505 77.4113C158.13 77.0728 162.781 77.0259 167.396 76.5884C168.745 76.4634 169.385 77.7759 170.521 77.5259C171.516 77.3072 171.948 76.1717 173.193 76.0311C179.771 75.3019 186.333 74.4113 192.896 73.5467C194.016 73.4009 194.891 73.3332 195.464 74.6769C195.88 75.6613 196.943 75.5415 197.266 74.4686C197.578 73.4217 198.068 72.9999 199.125 72.8801C204.516 72.2603 209.698 70.6665 214.943 69.3957C216.417 69.0415 217.563 68.9061 218.5 70.3019C218.891 70.8801 219.5 71.2342 220.208 71.354C220.698 71.4426 221.125 71.3384 221.396 70.9009C221.62 70.5363 221.51 70.1717 221.318 69.8228C220.948 69.1613 220.167 68.8176 219.922 68.0624C219.979 67.9999 220.021 67.9322 220.078 67.8853C222.068 66.3697 223.859 66.8488 225.719 68.2603C227.281 69.4426 229.021 70.3905 230.646 71.4165C230.422 72.2655 229.995 72.7863 229.5 73.2707C228.839 73.9269 228.219 74.7499 227.354 73.4686C227.141 73.1509 226.729 73.0728 226.339 73.0207C224.964 72.8384 224.5 73.4842 225.016 74.8644C225.089 75.0676 225.135 75.2759 225.203 75.4946C224.255 76.1457 223.193 76.3019 222.156 76.4738C214.792 77.6561 207.427 78.8072 200.068 80.0051C199.01 80.1769 198.167 80.1978 197.594 79.0572C197.318 78.5103 196.661 78.2603 196 78.5207C195.396 78.7603 195.276 79.2551 195.458 79.8384C195.714 80.6769 195.104 80.7134 194.578 80.7603C192.458 80.9634 190.339 81.2134 188.214 81.3124C183.578 81.5363 178.943 81.6613 174.307 81.8592C173.417 81.9009 172.797 81.8176 172.958 80.6822C173.01 80.3228 172.891 79.9217 172.781 79.5624C172.615 79.0051 172.224 78.6353 171.615 78.6665C171 78.703 170.651 79.1092 170.594 79.703C170.51 80.5155 170.844 81.5519 170.026 82.0103C169.339 82.3905 168.411 82.3592 167.589 82.4842C164.583 82.9478 161.573 83.3957 158.563 83.8488C156.151 81.6353 152.979 82.2655 150.151 81.6092ZM122.859 80.3644C121.953 80.3905 121.042 80.4582 120.13 80.4686C116.646 80.5155 113.156 80.5728 109.672 80.578C108.438 80.578 107.203 80.4217 106.755 78.9426C105.417 78.6717 104.125 79.3436 102.792 79.1457C103.036 80.8592 102.943 81.078 101.646 81.5624C100.641 81.9374 99.5886 82.0207 98.5261 82.0155C96.5677 82.0051 94.6042 82.0311 92.6459 81.9686C91.7709 81.9374 91.3386 82.1665 91.4896 83.0988C92.0573 83.8019 92.7761 83.979 93.6823 84.0259C102.479 84.5155 111.255 83.9009 120.026 83.5155C121.948 83.4322 123.99 83.6092 125.833 82.7134C125.318 80.2915 125.318 80.2863 122.859 80.3644ZM147.505 79.3332C147.531 78.3228 147.031 77.9686 146.068 78.1301C145.542 78.2186 145.01 78.2603 144.484 78.3436C139.599 79.1197 134.698 79.729 129.755 80.0467C127.797 80.1717 127.797 80.1926 128.365 82.1613C128.974 83.0884 129.865 82.9217 130.792 82.8488C135.51 82.4894 140.24 82.1613 144.964 81.8488C145.865 81.7863 146.786 81.8905 147.495 81.1561C147.5 80.5467 147.49 79.9374 147.505 79.3332Z" fill="#9D743B"/>
</g>
</g>
</g>
<mask id="mask59_47_13820" style="mask-type:luminance" maskUnits="userSpaceOnUse" x="24" y="3" width="136" height="86">
<path d="M24.6667 3H159.333V88.3333H24.6667V3Z" fill="white"/>
</mask>
<g mask="url(#mask59_47_13820)">
<mask id="mask60_47_13820" style="mask-type:luminance" maskUnits="userSpaceOnUse" x="20" y="-25" width="226" height="170">
<path d="M55.3646 -24.396L245.464 37.755L210.661 144.208L20.5625 82.0571L55.3646 -24.396Z" fill="white"/>
</mask>
<g mask="url(#mask60_47_13820)">
<mask id="mask61_47_13820" style="mask-type:luminance" maskUnits="userSpaceOnUse" x="20" y="-25" width="226" height="170">
<path d="M55.3646 -24.396L245.464 37.755L210.661 144.208L20.5625 82.0571L55.3646 -24.396Z" fill="white"/>
</mask>
<g mask="url(#mask61_47_13820)">
<path d="M150.151 81.6094C151.708 81.3021 153.266 81.4115 154.839 81.4844C156.245 81.5469 157.318 81.9063 157.922 83.2657C158.026 83.5053 158.344 83.6563 158.562 83.8438C151.526 85.1094 144.432 85.8438 137.276 85.974C134.542 86.0261 131.745 86.5209 129.089 86.0938C126.474 85.6771 124.182 86.724 121.708 86.7709C119.13 86.8178 116.552 87.0573 113.974 87.2396C106.833 87.7396 99.6875 87.4792 92.5469 87.5261C85.25 87.573 77.9531 87.8646 70.6614 88.0209C68.9896 88.0573 67.2187 88.2865 65.6771 87.823C64.151 87.3646 62.8177 86.8178 61.3177 87.6459C53.651 87.2032 46.0312 86.4428 38.651 84.1407C38.5052 84.0938 38.3698 84.0261 38.2291 83.9688L38.2396 83.9948C38.8177 83.5105 38.9114 82.8855 38.901 82.1563C38.8958 81.5625 39.1198 80.9636 39.25 80.2917C39.9271 79.9636 40.6666 80.1303 41.4062 80.1875C47.5312 80.6719 53.625 81.573 59.776 81.7292C60.6666 81.7553 61.0312 82.0261 61.026 82.8907C61.026 83.1875 61.0885 83.5 61.1927 83.7761C61.4062 84.3282 61.8541 84.6146 62.4375 84.5938C63.1406 84.5678 63.2344 84.0209 63.3281 83.4792C63.6406 81.7396 63.6458 81.6563 65.3802 81.724C72.75 82 80.125 81.8021 87.4948 81.8803C89.1198 81.8959 89.1406 81.9428 89.0625 83.6042C89.0364 84.2084 88.8594 84.8282 88.9375 85.4115C89.026 86.0834 89.2864 86.8438 90.1875 86.7448C90.9271 86.6615 91.4114 86.2553 91.3646 85.3594C91.3229 84.6146 91.4427 83.8542 91.4896 83.099C99.9114 84.0261 108.328 83.3698 116.75 83.0938C119.781 83 122.786 82.3438 125.833 82.7188C127.609 83.4896 127.609 83.4896 128.365 82.1667C134.312 82.25 140.203 81.3542 146.135 81.1459C146.594 81.1303 147.042 81.0053 147.495 81.1563C147.526 81.224 147.573 81.2917 147.589 81.3646C147.745 82.198 147.417 83.3646 148.708 83.5053C150.068 83.6459 149.802 82.349 150.151 81.6094ZM38.2396 83.9948C36.9479 83.724 36.1198 83.1146 36.5469 81.625C36.875 80.4948 36.4166 79.8334 35.3125 79.6563C32.625 79.2344 29.9323 78.7969 27.2291 78.4948C25.9791 78.3542 25.4844 79.3438 26.1719 80.4584C26.75 81.3907 27.6666 81.9219 28.6875 82.3073C30.6927 83.0678 32.8125 83.3125 34.9062 83.5886C36 83.7292 37.0573 84.4584 38.2239 83.9688C38.2291 83.9636 38.2396 83.9948 38.2396 83.9948ZM134.974 5.7188C135.229 5.31255 135.411 4.86984 134.87 4.55213C133.292 3.60942 131.417 4.91151 129.812 3.87505C129.344 3.57297 128.781 4.02609 128.38 4.36463C127.661 4.9688 126.286 5.24484 126.417 6.31776C126.547 7.39067 127.932 7.38026 128.703 7.77609C131.036 8.56776 133.776 7.64588 134.974 5.7188ZM85.5104 64.7969C87.3854 65.5053 89.3802 65.5678 91.3437 65.7136C95.8073 66.0365 100.266 66.7292 104.76 66.0365C107.021 65.6875 109.292 65.5521 111.578 65.5678C114.026 65.5834 116.448 65.3282 118.781 64.5469C119.62 64.2657 120.51 64.0105 120.75 62.9636C119.76 62.1771 118.677 62.2448 117.625 62.349C114.896 62.6094 112.156 62.8073 109.458 63.2657C104.401 64.1198 99.3385 64.198 94.2291 63.8334C90.9948 63.6042 87.7291 63.4688 84.3333 63.8021C84.5885 64.6719 85.1146 64.6459 85.5104 64.7969ZM105.26 45.9063C103.896 45.8646 102.526 45.8698 101.161 45.7865C94.7083 45.4115 88.2656 46.3125 81.8125 45.9115C81.2344 45.875 80.5 45.8803 80.3594 46.6823C80.2344 47.4063 80.7656 47.7605 81.3541 48.0209C82.6354 48.599 83.9948 48.724 85.375 48.6511C89.625 48.4219 93.8802 48.5625 98.1354 48.573C99.9583 48.5782 101.781 48.4688 103.589 48.1719C104.875 47.9584 106.01 47.474 107.094 46.5625C106.443 46.0573 105.87 45.9219 105.26 45.9063ZM87.9687 54.6407C83.526 54.1094 79.1041 53.4219 74.6771 52.7865C73.5364 52.625 72.4739 52.2292 71.3541 52.0469C70.8854 51.974 70.4323 52.0938 70.2031 52.573C69.9635 53.0625 70.2396 53.4323 70.5573 53.7865C71.0364 54.323 71.6875 54.5417 72.3281 54.7761C74.4791 55.5573 76.6927 56.0521 78.9531 56.4115C83.2344 57.0938 87.5364 57.4219 91.8698 57.1303C92.6614 57.0782 93.5364 57.0834 94.2291 56.1407C92.0469 55.599 90.0312 54.8855 87.9687 54.6407ZM76.8125 62.4323C74.8906 61.698 72.9375 61.1615 70.875 60.8855C68.0937 60.5157 65.3541 59.8438 62.6041 59.2865C61.9739 59.1563 61.3125 59.1146 60.9427 59.6875C60.5208 60.3438 61.0989 60.8178 61.5104 61.2396C61.8229 61.5625 62.1823 61.8855 62.5885 62.0678C67.2969 64.2084 72.2083 64.7865 77.2916 63.8594C77.4948 63.823 77.6614 63.6303 77.9166 63.4636C77.6719 62.7761 77.2396 62.5938 76.8125 62.4323ZM60.0312 67.625C57.125 67.1355 54.1771 66.875 51.25 66.5261C50.875 66.4792 50.4739 66.3907 50.2187 66.7813C49.9166 67.2396 50.1146 67.6615 50.3958 68.0313C50.7708 68.5157 51.2604 68.8594 51.7708 69.198C55.0677 71.3803 58.7291 71.5938 62.4948 71.2136C63.1666 71.1459 63.8177 70.9271 64.25 70.1042C62.9687 69.0417 61.6823 67.9063 60.0312 67.625ZM90.6666 71.4167C84.1927 70.9532 77.7187 70.7292 71.1094 70.8803C71.4739 71.9115 72.2239 71.9375 72.8594 72.0625C74.7916 72.4375 76.7291 72.8021 78.6719 73.099C82.2083 73.6407 85.7604 73.9167 89.3281 73.3282C90.2239 73.1771 91.1458 73.0938 91.8385 72.3073C91.5625 71.6198 91.1041 71.448 90.6666 71.4167ZM109.974 57.9792C110.854 57.8698 112.078 57.6875 112.01 56.5886C111.943 55.4792 110.792 55.2136 109.75 55.1823C109.521 55.1771 109.292 55.1511 109.068 55.1615C106.271 55.2761 103.469 55.3855 100.677 55.5261C100.151 55.5521 99.5885 55.5782 99.1614 55.9375C98.6666 56.3542 98.5677 56.8178 99.2031 57.2032C99.4583 57.3594 99.7604 57.4428 100.422 57.7136C103.344 57.974 106.646 58.3959 109.974 57.9792ZM111.552 70.75C107.859 71.0105 104.167 71.2761 100.469 71.5365C99.776 71.5886 99.0104 71.4948 98.5573 72.4271C98.9687 72.5573 99.2448 72.724 99.5312 72.7344C103.906 72.9115 108.286 72.9011 112.646 72.4219C113.646 72.3125 114.776 72.1146 115.458 70.7709C114.042 70.0625 112.792 70.6615 111.552 70.75ZM113.266 44.7292C112.552 44.974 112.193 45.5625 112.292 46.3282C112.396 47.1303 113.026 47.5625 113.719 47.5313C115.755 47.4375 117.656 46.9375 119.099 45.1094C117.057 43.9271 115.167 44.0625 113.266 44.7292ZM117.755 55.0053C117.354 55.1875 116.88 55.4063 117.073 55.9896C117.203 56.3855 117.578 56.5678 117.969 56.5521C120.594 56.4323 123.156 56.0417 125.432 54.4532C122.797 53.8073 120.234 53.9167 117.755 55.0053Z" fill="#604428"/>
</g>
</g>
</g>
</svg>
