<svg width="324" height="335" viewBox="0 0 324 335" fill="none" xmlns="http://www.w3.org/2000/svg">
<mask id="mask0_47_13824" style="mask-type:luminance" maskUnits="userSpaceOnUse" x="170" y="255" width="9" height="60">
<path d="M170.958 255.167H178.958V314.167H170.958V255.167Z" fill="white"/>
</mask>
<g mask="url(#mask0_47_13824)">
<path d="M170.974 259.479V263.708H170.984V305.708H170.974V309.937C170.974 312.271 172.87 314.167 175.203 314.167C177.536 314.167 179.432 312.271 179.432 309.937V259.479C179.432 257.146 177.547 255.245 175.213 255.245C172.88 255.245 170.974 257.146 170.974 259.479Z" fill="#FCD590"/>
</g>
<path d="M173.083 295.266V309.938C173.083 310.526 173.552 311 174.146 311C174.734 311 175.203 310.526 175.203 309.938V305.708H175.193V295.276C175.193 294.688 174.719 294.219 174.13 294.219C173.542 294.219 173.083 294.687 173.083 295.266Z" fill="#FCD590"/>
<mask id="mask1_47_13824" style="mask-type:luminance" maskUnits="userSpaceOnUse" x="129" y="252" width="9" height="60">
<path d="M129.453 252.766H137.453V311.766H129.453V252.766Z" fill="white"/>
</mask>
<g mask="url(#mask1_47_13824)">
<path d="M129.469 257.078V261.307H129.479V303.307H129.469V307.536C129.469 309.87 131.365 311.766 133.698 311.766C136.031 311.766 137.927 309.87 137.927 307.536V257.078C137.927 254.745 136.042 252.844 133.708 252.844C131.375 252.844 129.469 254.745 129.469 257.078Z" fill="#FCD590"/>
</g>
<path d="M131.578 292.865V307.537C131.578 308.125 132.047 308.599 132.641 308.599C133.229 308.599 133.698 308.125 133.698 307.537V303.307H133.688V292.88C133.688 292.287 133.214 291.818 132.625 291.818C132.036 291.818 131.578 292.287 131.578 292.865Z" fill="#FCD590"/>
<mask id="mask2_47_13824" style="mask-type:luminance" maskUnits="userSpaceOnUse" x="108" y="287" width="42" height="40">
<path d="M108.667 287H150V327H108.667V287Z" fill="white"/>
</mask>
<g mask="url(#mask2_47_13824)">
<mask id="mask3_47_13824" style="mask-type:luminance" maskUnits="userSpaceOnUse" x="107" y="286" width="45" height="43">
<path d="M145.917 328.365L107.464 291.886L112.969 286.083L151.422 322.563L145.917 328.365Z" fill="white"/>
</mask>
<g mask="url(#mask3_47_13824)">
<mask id="mask4_47_13824" style="mask-type:luminance" maskUnits="userSpaceOnUse" x="107" y="286" width="45" height="43">
<path d="M145.917 328.365L107.464 291.886L112.969 286.083L151.422 322.563L145.917 328.365Z" fill="white"/>
</mask>
<g mask="url(#mask4_47_13824)">
<path d="M110.318 294.578L113.073 297.188L113.078 297.182L140.422 323.12L140.417 323.13L143.172 325.74C144.688 327.182 147.094 327.12 148.537 325.599C149.979 324.083 149.912 321.677 148.396 320.234L115.542 289.068C114.026 287.625 111.625 287.682 110.182 289.203C108.745 290.719 108.797 293.135 110.318 294.578Z" fill="#FCD590"/>
</g>
</g>
</g>
<mask id="mask5_47_13824" style="mask-type:luminance" maskUnits="userSpaceOnUse" x="134" y="313" width="14" height="13">
<path d="M134 313.667H147.333V325.667H134V313.667Z" fill="white"/>
</mask>
<g mask="url(#mask5_47_13824)">
<mask id="mask6_47_13824" style="mask-type:luminance" maskUnits="userSpaceOnUse" x="107" y="286" width="45" height="43">
<path d="M145.917 328.364L107.464 291.885L112.969 286.083L151.422 322.562L145.917 328.364Z" fill="white"/>
</mask>
<g mask="url(#mask6_47_13824)">
<mask id="mask7_47_13824" style="mask-type:luminance" maskUnits="userSpaceOnUse" x="107" y="286" width="45" height="43">
<path d="M145.917 328.364L107.464 291.885L112.969 286.083L151.422 322.562L145.917 328.364Z" fill="white"/>
</mask>
<g mask="url(#mask7_47_13824)">
<path d="M134.922 315.307L144.474 324.37C144.854 324.734 145.453 324.719 145.818 324.333C146.182 323.948 146.167 323.349 145.781 322.989L143.026 320.375L143.021 320.38L136.229 313.943C135.849 313.578 135.25 313.594 134.886 313.979C134.521 314.359 134.547 314.953 134.922 315.307Z" fill="#FCD590"/>
</g>
</g>
</g>
<mask id="mask8_47_13824" style="mask-type:luminance" maskUnits="userSpaceOnUse" x="103" y="301" width="53" height="20">
<path d="M103.333 301.667H155.333V320.333H103.333V301.667Z" fill="white"/>
</mask>
<g mask="url(#mask8_47_13824)">
<mask id="mask9_47_13824" style="mask-type:luminance" maskUnits="userSpaceOnUse" x="102" y="300" width="54" height="20">
<path d="M155.989 308.526L104.234 319.953L102.51 312.146L154.265 300.713L155.989 308.526Z" fill="white"/>
</mask>
<g mask="url(#mask9_47_13824)">
<mask id="mask10_47_13824" style="mask-type:luminance" maskUnits="userSpaceOnUse" x="102" y="300" width="54" height="20">
<path d="M155.989 308.526L104.234 319.953L102.51 312.146L154.265 300.713L155.989 308.526Z" fill="white"/>
</mask>
<g mask="url(#mask10_47_13824)">
<path d="M108.062 319.099L111.771 318.276L111.766 318.265L148.568 310.14L148.573 310.151L152.281 309.328C154.323 308.88 155.62 306.849 155.167 304.802C154.713 302.76 152.687 301.463 150.641 301.916L106.427 311.682C104.38 312.135 103.083 314.151 103.536 316.198C103.984 318.245 106.016 319.547 108.062 319.099Z" fill="#FCD590"/>
</g>
</g>
</g>
<mask id="mask11_47_13824" style="mask-type:luminance" maskUnits="userSpaceOnUse" x="136" y="304" width="17" height="7">
<path d="M136.667 304.333H152.667V311H136.667V304.333Z" fill="white"/>
</mask>
<g mask="url(#mask11_47_13824)">
<mask id="mask12_47_13824" style="mask-type:luminance" maskUnits="userSpaceOnUse" x="102" y="300" width="54" height="20">
<path d="M155.99 308.526L104.234 319.953L102.51 312.146L154.266 300.714L155.99 308.526Z" fill="white"/>
</mask>
<g mask="url(#mask12_47_13824)">
<mask id="mask13_47_13824" style="mask-type:luminance" maskUnits="userSpaceOnUse" x="102" y="300" width="54" height="20">
<path d="M155.99 308.526L104.234 319.953L102.51 312.146L154.266 300.714L155.99 308.526Z" fill="white"/>
</mask>
<g mask="url(#mask13_47_13824)">
<path d="M139.016 310.323L151.87 307.485C152.386 307.37 152.708 306.865 152.594 306.349C152.479 305.833 151.974 305.511 151.458 305.625L147.755 306.443V306.453L138.615 308.469C138.099 308.583 137.776 309.089 137.891 309.604C138.005 310.12 138.511 310.432 139.016 310.323Z" fill="#FCD590"/>
</g>
</g>
</g>
<mask id="mask14_47_13824" style="mask-type:luminance" maskUnits="userSpaceOnUse" x="156" y="295" width="44" height="40">
<path d="M156.667 295H199.333V335H156.667V295Z" fill="white"/>
</mask>
<g mask="url(#mask14_47_13824)">
<mask id="mask15_47_13824" style="mask-type:luminance" maskUnits="userSpaceOnUse" x="155" y="293" width="45" height="43">
<path d="M161.24 293.662L199.688 330.141L194.182 335.943L155.734 299.469L161.24 293.662Z" fill="white"/>
</mask>
<g mask="url(#mask15_47_13824)">
<mask id="mask16_47_13824" style="mask-type:luminance" maskUnits="userSpaceOnUse" x="155" y="293" width="45" height="43">
<path d="M199.599 330.052L161.146 293.578L155.641 299.38L194.094 335.859L199.599 330.052Z" fill="white"/>
</mask>
<g mask="url(#mask16_47_13824)">
<path d="M163.984 296.286L166.734 298.901L166.729 298.906L194.073 324.844L194.078 324.839L196.833 327.453C198.354 328.891 198.417 331.302 196.974 332.818C195.536 334.339 193.125 334.401 191.609 332.958L158.755 301.797C157.239 300.354 157.167 297.953 158.609 296.437C160.047 294.917 162.463 294.844 163.984 296.286Z" fill="#FCD590"/>
</g>
</g>
</g>
<mask id="mask17_47_13824" style="mask-type:luminance" maskUnits="userSpaceOnUse" x="183" y="319" width="14" height="12">
<path d="M183.333 319H196.667V331H183.333V319Z" fill="white"/>
</mask>
<g mask="url(#mask17_47_13824)">
<mask id="mask18_47_13824" style="mask-type:luminance" maskUnits="userSpaceOnUse" x="155" y="293" width="45" height="43">
<path d="M161.24 293.662L199.688 330.141L194.182 335.943L155.734 299.469L161.24 293.662Z" fill="white"/>
</mask>
<g mask="url(#mask18_47_13824)">
<mask id="mask19_47_13824" style="mask-type:luminance" maskUnits="userSpaceOnUse" x="155" y="293" width="45" height="43">
<path d="M199.599 330.052L161.146 293.578L155.641 299.38L194.094 335.859L199.599 330.052Z" fill="white"/>
</mask>
<g mask="url(#mask19_47_13824)">
<path d="M185.979 319.766L195.531 328.823C195.917 329.188 195.932 329.787 195.568 330.172C195.203 330.552 194.604 330.568 194.219 330.203L191.469 327.594L191.474 327.584L184.682 321.146C184.302 320.781 184.287 320.183 184.651 319.797C185.011 319.417 185.604 319.406 185.979 319.766Z" fill="#FCD590"/>
</g>
</g>
</g>
<mask id="mask20_47_13824" style="mask-type:luminance" maskUnits="userSpaceOnUse" x="151" y="301" width="54" height="20">
<path d="M151.333 301.667H204.667V320.333H151.333V301.667Z" fill="white"/>
</mask>
<g mask="url(#mask20_47_13824)">
<mask id="mask21_47_13824" style="mask-type:luminance" maskUnits="userSpaceOnUse" x="151" y="302" width="54" height="20">
<path d="M151.161 313.505L202.917 302.073L204.641 309.885L152.891 321.318L151.161 313.505Z" fill="white"/>
</mask>
<g mask="url(#mask21_47_13824)">
<mask id="mask22_47_13824" style="mask-type:luminance" maskUnits="userSpaceOnUse" x="151" y="302" width="54" height="20">
<path d="M202.792 302.099L151.042 313.531L152.765 321.343L204.521 309.911L202.792 302.099Z" fill="white"/>
</mask>
<g mask="url(#mask22_47_13824)">
<path d="M154.875 312.698L158.578 311.88L158.583 311.89L195.385 303.76L195.38 303.75L199.088 302.932C201.135 302.479 203.161 303.776 203.614 305.818C204.068 307.864 202.771 309.896 200.729 310.344L156.51 320.114C154.469 320.562 152.437 319.281 151.989 317.234C151.536 315.187 152.828 313.151 154.875 312.698Z" fill="#FCD590"/>
</g>
</g>
</g>
<mask id="mask23_47_13824" style="mask-type:luminance" maskUnits="userSpaceOnUse" x="184" y="304" width="17" height="6">
<path d="M184.667 304.333H200.667V309.667H184.667V304.333Z" fill="white"/>
</mask>
<g mask="url(#mask23_47_13824)">
<mask id="mask24_47_13824" style="mask-type:luminance" maskUnits="userSpaceOnUse" x="151" y="302" width="54" height="20">
<path d="M151.162 313.506L202.917 302.073L204.641 309.886L152.891 321.318L151.162 313.506Z" fill="white"/>
</mask>
<g mask="url(#mask24_47_13824)">
<mask id="mask25_47_13824" style="mask-type:luminance" maskUnits="userSpaceOnUse" x="151" y="302" width="54" height="20">
<path d="M202.792 302.099L151.042 313.531L152.766 321.344L204.521 309.912L202.792 302.099Z" fill="white"/>
</mask>
<g mask="url(#mask25_47_13824)">
<path d="M186.641 307.62L199.5 304.781C200.016 304.667 200.521 304.99 200.63 305.505C200.745 306.021 200.427 306.526 199.906 306.641L196.203 307.458L196.198 307.448L187.063 309.464C186.542 309.578 186.042 309.261 185.927 308.74C185.813 308.224 186.136 307.729 186.641 307.62Z" fill="#FCD590"/>
</g>
</g>
</g>
<mask id="mask26_47_13824" style="mask-type:luminance" maskUnits="userSpaceOnUse" x="66" y="113" width="178" height="177">
<path d="M66.0105 113.01H243.01V289.667H66.0105V113.01Z" fill="white"/>
</mask>
<g mask="url(#mask26_47_13824)">
<path d="M242.651 201.333C242.651 202.776 242.615 204.224 242.542 205.667C242.474 207.109 242.365 208.552 242.224 209.989C242.083 211.427 241.906 212.864 241.693 214.292C241.479 215.724 241.234 217.146 240.953 218.562C240.672 219.979 240.354 221.39 240 222.792C239.651 224.193 239.266 225.588 238.844 226.969C238.427 228.354 237.974 229.724 237.484 231.088C237 232.448 236.479 233.797 235.927 235.13C235.375 236.469 234.787 237.786 234.167 239.094C233.552 240.401 232.901 241.693 232.219 242.969C231.537 244.239 230.828 245.5 230.083 246.739C229.339 247.979 228.568 249.198 227.766 250.401C226.964 251.604 226.13 252.786 225.266 253.943C224.406 255.104 223.516 256.245 222.599 257.364C221.682 258.479 220.74 259.573 219.771 260.646C218.797 261.713 217.802 262.76 216.781 263.786C215.76 264.807 214.714 265.802 213.641 266.776C212.568 267.745 211.474 268.687 210.359 269.604C209.24 270.521 208.104 271.411 206.943 272.271C205.781 273.135 204.599 273.963 203.396 274.771C202.193 275.573 200.974 276.344 199.734 277.088C198.495 277.828 197.24 278.542 195.964 279.224C194.688 279.906 193.396 280.557 192.089 281.172C190.781 281.792 189.464 282.375 188.125 282.932C186.792 283.484 185.443 284.005 184.083 284.489C182.724 284.979 181.349 285.432 179.969 285.849C178.583 286.271 177.193 286.656 175.787 287.005C174.385 287.359 172.979 287.672 171.557 287.958C170.141 288.239 168.719 288.484 167.287 288.698C165.859 288.911 164.422 289.083 162.984 289.229C161.547 289.37 160.104 289.474 158.662 289.547C157.219 289.62 155.776 289.651 154.328 289.651C152.885 289.651 151.438 289.62 149.995 289.547C148.552 289.474 147.109 289.37 145.672 289.229C144.234 289.088 142.797 288.911 141.37 288.698C139.938 288.484 138.516 288.239 137.099 287.958C135.682 287.672 134.271 287.359 132.87 287.005C131.469 286.656 130.073 286.271 128.693 285.849C127.307 285.432 125.938 284.979 124.573 284.489C123.214 284.005 121.865 283.484 120.531 282.932C119.193 282.375 117.875 281.792 116.568 281.172C115.26 280.557 113.969 279.906 112.693 279.224C111.422 278.542 110.162 277.828 108.922 277.088C107.682 276.344 106.464 275.573 105.26 274.771C104.057 273.963 102.875 273.135 101.719 272.271C100.557 271.411 99.4167 270.521 98.297 269.604C97.1824 268.687 96.0886 267.745 95.0157 266.776C93.9428 265.802 92.9011 264.807 91.8751 263.786C90.8542 262.76 89.8595 261.713 88.8855 260.646C87.9167 259.573 86.974 258.479 86.0574 257.364C85.1407 256.245 84.2501 255.104 83.3907 253.943C82.5261 252.786 81.698 251.604 80.8907 250.401C80.0886 249.198 79.3178 247.979 78.573 246.739C77.8282 245.5 77.1199 244.239 76.4376 242.969C75.7553 241.693 75.1042 240.401 74.4897 239.094C73.8699 237.786 73.2865 236.469 72.7292 235.13C72.1772 233.797 71.6563 232.448 71.172 231.088C70.6824 229.724 70.2292 228.354 69.8126 226.969C69.3907 225.588 69.0053 224.193 68.6563 222.792C68.3022 221.39 67.9897 219.979 67.7032 218.562C67.422 217.146 67.1772 215.724 66.9636 214.292C66.7501 212.864 66.573 211.427 66.4324 209.989C66.2917 208.552 66.1876 207.109 66.1147 205.667C66.0417 204.224 66.0105 202.776 66.0105 201.333C66.0105 199.885 66.0417 198.443 66.1147 197C66.1876 195.557 66.2917 194.114 66.4324 192.677C66.573 191.239 66.7501 189.802 66.9636 188.375C67.1772 186.943 67.422 185.521 67.7032 184.104C67.9897 182.682 68.3022 181.276 68.6563 179.875C69.0053 178.469 69.3907 177.078 69.8126 175.693C70.2292 174.312 70.6824 172.937 71.172 171.578C71.6563 170.219 72.1772 168.87 72.7292 167.536C73.2865 166.198 73.8699 164.875 74.4897 163.573C75.1042 162.265 75.7553 160.974 76.4376 159.698C77.1199 158.422 77.8282 157.167 78.573 155.927C79.3178 154.687 80.0886 153.469 80.8907 152.265C81.698 151.062 82.5261 149.88 83.3907 148.719C84.2501 147.557 85.1407 146.422 86.0574 145.302C86.974 144.187 87.9167 143.094 88.8855 142.021C89.8595 140.948 90.8542 139.901 91.8751 138.88C92.9011 137.859 93.9428 136.864 95.0157 135.89C96.0886 134.922 97.1824 133.979 98.297 133.062C99.4167 132.14 100.557 131.255 101.719 130.39C102.875 129.531 104.057 128.698 105.26 127.896C106.464 127.094 107.682 126.323 108.922 125.578C110.162 124.833 111.422 124.125 112.693 123.443C113.969 122.76 115.26 122.109 116.568 121.489C117.875 120.875 119.193 120.286 120.531 119.734C121.865 119.182 123.214 118.661 124.573 118.177C125.938 117.687 127.307 117.234 128.693 116.818C130.073 116.396 131.469 116.01 132.87 115.661C134.271 115.307 135.682 114.989 137.099 114.708C138.516 114.427 139.938 114.182 141.37 113.969C142.797 113.755 144.234 113.578 145.672 113.437C147.109 113.297 148.552 113.187 149.995 113.12C151.438 113.047 152.885 113.01 154.328 113.01C155.776 113.01 157.219 113.047 158.662 113.12C160.104 113.187 161.547 113.297 162.984 113.437C164.422 113.578 165.859 113.755 167.287 113.969C168.719 114.182 170.141 114.427 171.557 114.708C172.979 114.989 174.385 115.307 175.787 115.661C177.193 116.01 178.583 116.396 179.969 116.818C181.349 117.234 182.724 117.687 184.083 118.177C185.443 118.661 186.792 119.182 188.125 119.734C189.464 120.286 190.781 120.875 192.089 121.489C193.396 122.109 194.688 122.76 195.964 123.443C197.24 124.125 198.495 124.833 199.734 125.578C200.974 126.323 202.193 127.094 203.396 127.896C204.599 128.698 205.781 129.531 206.943 130.39C208.104 131.255 209.24 132.14 210.359 133.062C211.474 133.979 212.568 134.922 213.641 135.89C214.714 136.864 215.76 137.859 216.781 138.88C217.802 139.901 218.797 140.948 219.771 142.021C220.74 143.094 221.682 144.187 222.599 145.302C223.516 146.422 224.406 147.557 225.266 148.719C226.13 149.88 226.964 151.062 227.766 152.265C228.568 153.469 229.339 154.687 230.083 155.927C230.828 157.167 231.537 158.422 232.219 159.698C232.901 160.974 233.552 162.265 234.167 163.573C234.787 164.875 235.375 166.198 235.927 167.536C236.479 168.87 237 170.219 237.484 171.578C237.974 172.937 238.427 174.312 238.844 175.693C239.266 177.078 239.651 178.469 240 179.875C240.354 181.276 240.672 182.682 240.953 184.104C241.234 185.521 241.479 186.943 241.693 188.375C241.906 189.802 242.083 191.239 242.224 192.677C242.365 194.114 242.474 195.557 242.542 197C242.615 198.443 242.651 199.885 242.651 201.333Z" fill="#442F19"/>
</g>
<mask id="mask27_47_13824" style="mask-type:luminance" maskUnits="userSpaceOnUse" x="66" y="53" width="178" height="178">
<path d="M66.0105 53.4531H243.01V230.453H66.0105V53.4531Z" fill="white"/>
</mask>
<g mask="url(#mask27_47_13824)">
<path d="M242.651 141.771C242.651 143.219 242.615 144.661 242.542 146.104C242.474 147.552 242.365 148.99 242.224 150.427C242.083 151.87 241.906 153.302 241.693 154.729C241.479 156.161 241.234 157.583 240.953 159.005C240.672 160.422 240.354 161.828 240 163.234C239.651 164.635 239.266 166.026 238.844 167.411C238.427 168.792 237.974 170.167 237.484 171.526C237 172.885 236.479 174.234 235.927 175.573C235.375 176.906 234.787 178.229 234.167 179.536C233.552 180.839 232.901 182.13 232.219 183.406C231.537 184.682 230.828 185.938 230.083 187.177C229.339 188.417 228.568 189.641 227.766 190.839C226.964 192.042 226.13 193.224 225.266 194.385C224.406 195.547 223.516 196.682 222.599 197.802C221.682 198.922 220.74 200.016 219.771 201.083C218.797 202.156 217.802 203.203 216.781 204.224C215.76 205.245 214.714 206.245 213.641 207.214C212.568 208.182 211.474 209.13 210.359 210.047C209.24 210.964 208.104 211.849 206.943 212.714C205.781 213.573 204.599 214.406 203.396 215.208C202.193 216.01 200.974 216.786 199.734 217.526C198.495 218.271 197.24 218.984 195.964 219.661C194.688 220.344 193.396 220.995 192.089 221.615C190.781 222.229 189.464 222.818 188.125 223.37C186.792 223.922 185.443 224.443 184.083 224.932C182.724 225.417 181.349 225.87 179.969 226.292C178.583 226.708 177.193 227.094 175.787 227.448C174.385 227.797 172.979 228.115 171.557 228.396C170.141 228.677 168.719 228.927 167.287 229.135C165.859 229.349 164.422 229.526 162.984 229.667C161.547 229.807 160.104 229.917 158.662 229.984C157.219 230.057 155.776 230.094 154.328 230.094C152.885 230.094 151.438 230.057 149.995 229.984C148.552 229.917 147.109 229.807 145.672 229.667C144.234 229.526 142.797 229.349 141.37 229.135C139.938 228.927 138.516 228.677 137.099 228.396C135.682 228.115 134.271 227.797 132.87 227.448C131.469 227.094 130.073 226.708 128.693 226.292C127.307 225.87 125.938 225.417 124.573 224.932C123.214 224.443 121.865 223.922 120.531 223.37C119.193 222.818 117.875 222.229 116.568 221.615C115.26 220.995 113.969 220.344 112.693 219.661C111.422 218.984 110.162 218.271 108.922 217.526C107.682 216.786 106.464 216.01 105.26 215.208C104.057 214.406 102.875 213.573 101.719 212.714C100.557 211.849 99.4167 210.964 98.297 210.047C97.1824 209.13 96.0886 208.182 95.0157 207.214C93.9428 206.245 92.9011 205.245 91.8751 204.224C90.8542 203.203 89.8595 202.156 88.8855 201.083C87.9167 200.016 86.974 198.922 86.0574 197.802C85.1407 196.682 84.2501 195.547 83.3907 194.385C82.5261 193.224 81.698 192.042 80.8907 190.839C80.0886 189.641 79.3178 188.417 78.573 187.177C77.8282 185.938 77.1199 184.682 76.4376 183.406C75.7553 182.13 75.1042 180.839 74.4897 179.536C73.8699 178.229 73.2865 176.906 72.7292 175.573C72.1772 174.234 71.6563 172.885 71.172 171.526C70.6824 170.167 70.2292 168.792 69.8126 167.411C69.3907 166.026 69.0053 164.635 68.6563 163.234C68.3022 161.828 67.9897 160.422 67.7032 159.005C67.422 157.583 67.1772 156.161 66.9636 154.729C66.7501 153.302 66.573 151.87 66.4324 150.427C66.2917 148.99 66.1876 147.552 66.1147 146.104C66.0417 144.661 66.0105 143.219 66.0105 141.771C66.0105 140.328 66.0417 138.88 66.1147 137.438C66.1876 135.995 66.2917 134.552 66.4324 133.115C66.573 131.677 66.7501 130.245 66.9636 128.812C67.1772 127.385 67.422 125.958 67.7032 124.542C67.9897 123.125 68.3022 121.714 68.6563 120.312C69.0053 118.911 69.3907 117.516 69.8126 116.135C70.2292 114.75 70.6824 113.38 71.172 112.016C71.6563 110.656 72.1772 109.307 72.7292 107.974C73.2865 106.641 73.8699 105.318 74.4897 104.01C75.1042 102.703 75.7553 101.411 76.4376 100.141C77.1199 98.8646 77.8282 97.6042 78.573 96.3646C79.3178 95.125 80.0886 93.9062 80.8907 92.7031C81.698 91.5 82.5261 90.3229 83.3907 89.1615C84.2501 88 85.1407 86.8594 86.0574 85.7448C86.974 84.625 87.9167 83.5313 88.8855 82.4583C89.8595 81.3906 90.8542 80.3438 91.8751 79.3229C92.9011 78.2969 93.9428 77.3021 95.0157 76.3333C96.0886 75.3594 97.1824 74.4167 98.297 73.5C99.4167 72.5833 100.557 71.6927 101.719 70.8333C102.875 69.974 104.057 69.1406 105.26 68.3385C106.464 67.5313 107.682 66.7604 108.922 66.0156C110.162 65.276 111.422 64.5625 112.693 63.8802C113.969 63.1979 115.26 62.5521 116.568 61.9323C117.875 61.3125 119.193 60.7292 120.531 60.1771C121.865 59.6198 123.214 59.1042 124.573 58.6146C125.938 58.1302 127.307 57.6771 128.693 57.2552C130.073 56.8333 131.469 56.4479 132.87 56.099C134.271 55.75 135.682 55.4323 137.099 55.151C138.516 54.8646 139.938 54.6198 141.37 54.4062C142.797 54.1979 144.234 54.0208 145.672 53.875C147.109 53.7344 148.552 53.6302 149.995 53.5573C151.438 53.4896 152.885 53.4531 154.328 53.4531C155.776 53.4531 157.219 53.4896 158.662 53.5573C160.104 53.6302 161.547 53.7344 162.984 53.875C164.422 54.0208 165.859 54.1979 167.287 54.4062C168.719 54.6198 170.141 54.8646 171.557 55.151C172.979 55.4323 174.385 55.75 175.787 56.099C177.193 56.4479 178.583 56.8333 179.969 57.2552C181.349 57.6771 182.724 58.1302 184.083 58.6146C185.443 59.1042 186.792 59.6198 188.125 60.1771C189.464 60.7292 190.781 61.3125 192.089 61.9323C193.396 62.5521 194.688 63.1979 195.964 63.8802C197.24 64.5625 198.495 65.276 199.734 66.0156C200.974 66.7604 202.193 67.5313 203.396 68.3385C204.599 69.1406 205.781 69.974 206.943 70.8333C208.104 71.6927 209.24 72.5833 210.359 73.5C211.474 74.4167 212.568 75.3594 213.641 76.3333C214.714 77.3021 215.76 78.2969 216.781 79.3229C217.802 80.3438 218.797 81.3906 219.771 82.4583C220.74 83.5313 221.682 84.625 222.599 85.7448C223.516 86.8594 224.406 88 225.266 89.1615C226.13 90.3229 226.964 91.5 227.766 92.7031C228.568 93.9062 229.339 95.125 230.083 96.3646C230.828 97.6042 231.537 98.8646 232.219 100.141C232.901 101.411 233.552 102.703 234.167 104.01C234.787 105.318 235.375 106.641 235.927 107.974C236.479 109.307 237 110.656 237.484 112.016C237.974 113.38 238.427 114.75 238.844 116.135C239.266 117.516 239.651 118.911 240 120.312C240.354 121.714 240.672 123.125 240.953 124.542C241.234 125.958 241.479 127.385 241.693 128.812C241.906 130.245 242.083 131.677 242.224 133.115C242.365 134.552 242.474 135.995 242.542 137.438C242.615 138.88 242.651 140.328 242.651 141.771Z" fill="#EDE0D2"/>
</g>
<mask id="mask28_47_13824" style="mask-type:luminance" maskUnits="userSpaceOnUse" x="165" y="97" width="64" height="64">
<path d="M165.641 97.9219H228.339V160.615H165.641V97.9219Z" fill="white"/>
</mask>
<g mask="url(#mask28_47_13824)">
<mask id="mask29_47_13824" style="mask-type:luminance" maskUnits="userSpaceOnUse" x="165" y="97" width="64" height="64">
<path d="M196.99 97.9219C179.677 97.9219 165.641 111.953 165.641 129.271C165.641 146.583 179.677 160.615 196.99 160.615C214.302 160.615 228.339 146.583 228.339 129.271C228.339 111.953 214.302 97.9219 196.99 97.9219Z" fill="white"/>
</mask>
<g mask="url(#mask29_47_13824)">
<path d="M165.641 97.9219H228.339V160.615H165.641V97.9219Z" fill="white"/>
</g>
</g>
<mask id="mask30_47_13824" style="mask-type:luminance" maskUnits="userSpaceOnUse" x="130" y="221" width="126" height="58">
<path d="M130 221.667H255.333V279H130V221.667Z" fill="white"/>
</mask>
<g mask="url(#mask30_47_13824)">
<mask id="mask31_47_13824" style="mask-type:luminance" maskUnits="userSpaceOnUse" x="127" y="219" width="131" height="63">
<path d="M134.734 219.198L257.839 240.885L250.729 281.265L127.625 259.578L134.734 219.198Z" fill="white"/>
</mask>
<g mask="url(#mask31_47_13824)">
<mask id="mask32_47_13824" style="mask-type:luminance" maskUnits="userSpaceOnUse" x="127" y="219" width="131" height="63">
<path d="M257.885 240.896L134.781 219.208L127.667 259.588L250.776 281.276L257.885 240.896Z" fill="white"/>
</mask>
<g mask="url(#mask32_47_13824)">
<path d="M147.87 263.041L230.557 277.609C241.625 279.557 252.177 272.166 254.125 261.104C256.073 250.041 248.682 239.484 237.62 237.536L154.932 222.968C143.87 221.02 133.313 228.411 131.365 239.479C129.417 250.541 136.807 261.093 147.87 263.041Z" fill="#604428"/>
<path d="M147.839 263.239L230.526 277.807C241.688 279.77 252.354 272.302 254.323 261.14C256.286 249.979 248.813 239.307 237.651 237.343L154.969 222.776C143.802 220.807 133.135 228.281 131.172 239.442C129.203 250.604 136.677 261.27 147.839 263.239ZM237.583 237.734C248.531 239.661 255.859 250.125 253.932 261.067C252 272.015 241.542 279.343 230.594 277.416L147.906 262.849C136.958 260.921 129.63 250.458 131.563 239.51C133.49 228.567 143.953 221.239 154.896 223.166L237.583 237.734Z" fill="#604428"/>
</g>
</g>
</g>
<mask id="mask33_47_13824" style="mask-type:luminance" maskUnits="userSpaceOnUse" x="140" y="185" width="149" height="68">
<path d="M140.667 185.667H288.667V252.333H140.667V185.667Z" fill="white"/>
</mask>
<g mask="url(#mask33_47_13824)">
<mask id="mask34_47_13824" style="mask-type:luminance" maskUnits="userSpaceOnUse" x="136" y="182" width="156" height="75">
<path d="M145.141 182.12L291.88 207.969L283.375 256.224L136.635 230.375L145.141 182.12Z" fill="white"/>
</mask>
<g mask="url(#mask34_47_13824)">
<mask id="mask35_47_13824" style="mask-type:luminance" maskUnits="userSpaceOnUse" x="136" y="182" width="156" height="75">
<path d="M291.495 207.901L144.755 182.052L136.25 230.307L282.995 256.156L291.495 207.901Z" fill="white"/>
</mask>
<g mask="url(#mask35_47_13824)">
<path d="M160.75 234.219L259.016 251.526C272.167 253.844 284.708 245.062 287.026 231.911C289.339 218.76 280.557 206.219 267.406 203.906L169.141 186.594C155.99 184.276 143.448 193.062 141.136 206.208C138.818 219.359 147.604 231.901 160.75 234.219Z" fill="#604428"/>
</g>
</g>
</g>
<mask id="mask36_47_13824" style="mask-type:luminance" maskUnits="userSpaceOnUse" x="139" y="185" width="150" height="68">
<path d="M139.333 185.667H288.667V252.333H139.333V185.667Z" fill="white"/>
</mask>
<g mask="url(#mask36_47_13824)">
<mask id="mask37_47_13824" style="mask-type:luminance" maskUnits="userSpaceOnUse" x="136" y="182" width="156" height="75">
<path d="M145.14 182.12L291.88 207.969L283.375 256.224L136.635 230.375L145.14 182.12Z" fill="white"/>
</mask>
<g mask="url(#mask37_47_13824)">
<mask id="mask38_47_13824" style="mask-type:luminance" maskUnits="userSpaceOnUse" x="136" y="182" width="156" height="75">
<path d="M291.495 207.901L144.755 182.052L136.25 230.307L282.995 256.156L291.495 207.901Z" fill="white"/>
</mask>
<g mask="url(#mask38_47_13824)">
<path d="M160.708 234.448L258.979 251.76C272.239 254.099 284.922 245.218 287.255 231.953C289.594 218.687 280.713 206.01 267.448 203.672L169.182 186.359C155.916 184.026 143.239 192.906 140.901 206.166C138.562 219.432 147.442 232.114 160.708 234.448ZM267.364 204.135C280.375 206.427 289.083 218.859 286.791 231.869C284.5 244.88 272.068 253.588 259.057 251.297L160.791 233.984C147.781 231.692 139.073 219.26 141.364 206.25C143.656 193.239 156.088 184.531 169.099 186.823L267.364 204.135Z" fill="#604428"/>
</g>
</g>
</g>
<mask id="mask39_47_13824" style="mask-type:luminance" maskUnits="userSpaceOnUse" x="175" y="160" width="149" height="67">
<path d="M175.333 160.333H323.333V227H175.333V160.333Z" fill="white"/>
</mask>
<g mask="url(#mask39_47_13824)">
<mask id="mask40_47_13824" style="mask-type:luminance" maskUnits="userSpaceOnUse" x="171" y="156" width="157" height="75">
<path d="M180.265 156.448L327.005 182.302L318.5 230.558L171.76 204.709L180.265 156.448Z" fill="white"/>
</mask>
<g mask="url(#mask40_47_13824)">
<mask id="mask41_47_13824" style="mask-type:luminance" maskUnits="userSpaceOnUse" x="171" y="156" width="156" height="75">
<path d="M326.62 182.235L179.88 156.38L171.375 204.641L318.12 230.49L326.62 182.235Z" fill="white"/>
</mask>
<g mask="url(#mask41_47_13824)">
<path d="M195.875 208.552L294.14 225.859C307.291 228.177 319.833 219.396 322.151 206.245C324.463 193.094 315.682 180.552 302.531 178.24L204.265 160.927C191.114 158.609 178.573 167.396 176.26 180.542C173.942 193.693 182.724 206.234 195.875 208.552Z" fill="#604428"/>
</g>
</g>
</g>
<mask id="mask42_47_13824" style="mask-type:luminance" maskUnits="userSpaceOnUse" x="175" y="159" width="149" height="68">
<path d="M175.333 159H323.333V227H175.333V159Z" fill="white"/>
</mask>
<g mask="url(#mask42_47_13824)">
<mask id="mask43_47_13824" style="mask-type:luminance" maskUnits="userSpaceOnUse" x="171" y="156" width="157" height="75">
<path d="M180.265 156.448L327.005 182.302L318.5 230.557L171.76 204.708L180.265 156.448Z" fill="white"/>
</mask>
<g mask="url(#mask43_47_13824)">
<mask id="mask44_47_13824" style="mask-type:luminance" maskUnits="userSpaceOnUse" x="171" y="156" width="156" height="75">
<path d="M326.62 182.234L179.88 156.38L171.375 204.64L318.12 230.489L326.62 182.234Z" fill="white"/>
</mask>
<g mask="url(#mask44_47_13824)">
<path d="M195.833 208.781L294.104 226.094C307.364 228.432 320.047 219.552 322.38 206.286C324.719 193.021 315.838 180.344 302.573 178.005L204.307 160.693C191.041 158.359 178.364 167.239 176.026 180.5C173.687 193.765 182.567 206.443 195.833 208.781ZM302.489 178.469C315.5 180.76 324.208 193.193 321.916 206.203C319.625 219.213 307.193 227.922 294.182 225.63L195.916 208.318C182.906 206.026 174.198 193.594 176.489 180.583C178.781 167.573 191.213 158.864 204.224 161.156L302.489 178.469Z" fill="#604428"/>
</g>
</g>
</g>
<mask id="mask45_47_13824" style="mask-type:luminance" maskUnits="userSpaceOnUse" x="80" y="97" width="64" height="64">
<path d="M80.8801 97.9219H143.578V160.615H80.8801V97.9219Z" fill="white"/>
</mask>
<g mask="url(#mask45_47_13824)">
<mask id="mask46_47_13824" style="mask-type:luminance" maskUnits="userSpaceOnUse" x="80" y="97" width="64" height="64">
<path d="M112.229 97.9219C94.9166 97.9219 80.8801 111.953 80.8801 129.271C80.8801 146.583 94.9166 160.615 112.229 160.615C129.542 160.615 143.578 146.583 143.578 129.271C143.578 111.953 129.542 97.9219 112.229 97.9219Z" fill="white"/>
</mask>
<g mask="url(#mask46_47_13824)">
<path d="M80.8801 97.9219H143.578V160.615H80.8801V97.9219Z" fill="white"/>
</g>
</g>
<mask id="mask47_47_13824" style="mask-type:luminance" maskUnits="userSpaceOnUse" x="64" y="223" width="126" height="55">
<path d="M64.6667 223H190V277.667H64.6667V223Z" fill="white"/>
</mask>
<g mask="url(#mask47_47_13824)">
<mask id="mask48_47_13824" style="mask-type:luminance" maskUnits="userSpaceOnUse" x="62" y="220" width="131" height="60">
<path d="M62.771 238.958L186.469 220.969L192.37 261.542L68.672 279.531L62.771 238.958Z" fill="white"/>
</mask>
<g mask="url(#mask48_47_13824)">
<mask id="mask49_47_13824" style="mask-type:luminance" maskUnits="userSpaceOnUse" x="62" y="220" width="131" height="60">
<path d="M62.771 238.958L186.469 220.969L192.37 261.542L68.672 279.531L62.771 238.958Z" fill="white"/>
</mask>
<g mask="url(#mask49_47_13824)">
<path d="M172.073 264.391L88.9846 276.474C77.87 278.089 67.5419 270.385 65.9273 259.271C64.3075 248.151 72.0106 237.823 83.1304 236.208L166.219 224.125C177.334 222.51 187.662 230.214 189.276 241.328C190.896 252.448 183.188 262.776 172.073 264.391Z" fill="#604428"/>
<path d="M172.099 264.588L89.0158 276.672C77.7971 278.302 67.3596 270.51 65.7294 259.297C64.0992 248.083 71.8856 237.641 83.1044 236.01L166.188 223.927C177.401 222.297 187.844 230.088 189.474 241.302C191.104 252.516 183.318 262.958 172.099 264.588ZM83.1617 236.406C72.1617 238.005 64.5211 248.24 66.12 259.24C67.719 270.24 77.9586 277.875 88.9586 276.276L172.042 264.193C183.042 262.594 190.683 252.359 189.084 241.359C187.479 230.359 177.245 222.724 166.245 224.323L83.1617 236.406Z" fill="#604428"/>
</g>
</g>
</g>
<mask id="mask50_47_13824" style="mask-type:luminance" maskUnits="userSpaceOnUse" x="30" y="187" width="148" height="64">
<path d="M30 187H178V251H30V187Z" fill="white"/>
</mask>
<g mask="url(#mask50_47_13824)">
<mask id="mask51_47_13824" style="mask-type:luminance" maskUnits="userSpaceOnUse" x="26" y="184" width="156" height="70">
<path d="M26.9324 205.443L174.38 184L181.432 232.49L33.9845 253.932L26.9324 205.443Z" fill="white"/>
</mask>
<g mask="url(#mask51_47_13824)">
<mask id="mask52_47_13824" style="mask-type:luminance" maskUnits="userSpaceOnUse" x="26" y="184" width="156" height="70">
<path d="M26.9324 205.443L174.38 184L181.432 232.49L33.9845 253.932L26.9324 205.443Z" fill="white"/>
</mask>
<g mask="url(#mask52_47_13824)">
<path d="M156.828 235.661L58.0886 250.021C44.875 251.943 32.6042 242.786 30.6823 229.573C28.7605 216.359 37.9167 204.088 51.1303 202.166L149.87 187.807C163.083 185.885 175.354 195.041 177.276 208.255C179.198 221.469 170.042 233.739 156.828 235.661Z" fill="#604428"/>
<path d="M156.865 235.896L58.1199 250.255C44.7918 252.193 32.3855 242.937 30.448 229.609C28.5105 216.281 37.7657 203.875 51.0938 201.932L149.839 187.573C163.167 185.635 175.573 194.89 177.511 208.224C179.448 221.552 170.193 233.958 156.865 235.896ZM51.1616 202.401C38.0886 204.302 29.0157 216.469 30.9168 229.542C32.8178 242.614 44.9845 251.687 58.0522 249.786L156.797 235.427C169.87 233.526 178.943 221.359 177.042 208.292C175.141 195.219 162.979 186.14 149.906 188.042L51.1616 202.401Z" fill="#604428"/>
</g>
</g>
</g>
<mask id="mask53_47_13824" style="mask-type:luminance" maskUnits="userSpaceOnUse" x="136" y="151" width="37" height="19">
<path d="M136.083 151.448H172.083V169.448H136.083V151.448Z" fill="white"/>
</mask>
<g mask="url(#mask53_47_13824)">
<path d="M172.568 160.609C172.568 161.214 172.453 161.807 172.219 162.396C171.984 162.984 171.641 163.557 171.182 164.109C170.724 164.667 170.161 165.193 169.495 165.693C168.828 166.188 168.073 166.651 167.224 167.078C166.38 167.5 165.458 167.88 164.463 168.214C163.469 168.547 162.417 168.828 161.307 169.057C160.203 169.286 159.062 169.464 157.885 169.578C156.713 169.698 155.526 169.755 154.328 169.755C153.13 169.755 151.943 169.698 150.771 169.578C149.594 169.464 148.453 169.286 147.349 169.057C146.24 168.828 145.187 168.547 144.193 168.214C143.198 167.88 142.276 167.5 141.427 167.078C140.583 166.651 139.823 166.188 139.161 165.693C138.495 165.193 137.932 164.667 137.474 164.109C137.016 163.557 136.672 162.984 136.437 162.396C136.203 161.807 136.083 161.214 136.083 160.609C136.083 160.01 136.203 159.417 136.437 158.828C136.672 158.24 137.016 157.667 137.474 157.115C137.932 156.557 138.495 156.031 139.161 155.531C139.823 155.031 140.583 154.573 141.427 154.146C142.276 153.724 143.198 153.344 144.193 153.01C145.187 152.677 146.24 152.396 147.349 152.167C148.453 151.932 149.594 151.76 150.771 151.646C151.943 151.526 153.13 151.469 154.328 151.469C155.526 151.469 156.713 151.526 157.885 151.646C159.062 151.76 160.203 151.932 161.307 152.167C162.417 152.396 163.469 152.677 164.463 153.01C165.458 153.344 166.38 153.724 167.224 154.146C168.073 154.573 168.828 155.031 169.495 155.531C170.161 156.031 170.724 156.557 171.182 157.115C171.641 157.667 171.984 158.24 172.219 158.828C172.453 159.417 172.568 160.01 172.568 160.609Z" fill="#FCD590"/>
</g>
<mask id="mask54_47_13824" style="mask-type:luminance" maskUnits="userSpaceOnUse" x="0" y="159" width="149" height="64">
<path d="M0.666748 159H148.667V223H0.666748V159Z" fill="white"/>
</mask>
<g mask="url(#mask54_47_13824)">
<mask id="mask55_47_13824" style="mask-type:luminance" maskUnits="userSpaceOnUse" x="-3" y="156" width="155" height="71">
<path d="M-2.56763 178.031L144.88 156.588L151.932 205.078L4.48446 226.521L-2.56763 178.031Z" fill="white"/>
</mask>
<g mask="url(#mask55_47_13824)">
<mask id="mask56_47_13824" style="mask-type:luminance" maskUnits="userSpaceOnUse" x="-3" y="156" width="155" height="71">
<path d="M-2.56763 178.031L144.88 156.588L151.932 205.078L4.48446 226.521L-2.56763 178.031Z" fill="white"/>
</mask>
<g mask="url(#mask56_47_13824)">
<path d="M127.328 208.25L28.5835 222.609C15.3699 224.531 3.09908 215.375 1.17721 202.161C-0.744669 188.948 8.41158 176.677 21.6251 174.755L120.37 160.395C133.578 158.474 145.854 167.63 147.776 180.843C149.693 194.057 140.537 206.328 127.328 208.25Z" fill="#604428"/>
</g>
</g>
</g>
<mask id="mask57_47_13824" style="mask-type:luminance" maskUnits="userSpaceOnUse" x="0" y="159" width="149" height="66">
<path d="M0.666748 159H148.667V224.333H0.666748V159Z" fill="white"/>
</mask>
<g mask="url(#mask57_47_13824)">
<mask id="mask58_47_13824" style="mask-type:luminance" maskUnits="userSpaceOnUse" x="-3" y="156" width="155" height="71">
<path d="M-2.56763 178.031L144.88 156.588L151.932 205.078L4.48446 226.521L-2.56763 178.031Z" fill="white"/>
</mask>
<g mask="url(#mask58_47_13824)">
<mask id="mask59_47_13824" style="mask-type:luminance" maskUnits="userSpaceOnUse" x="-3" y="156" width="155" height="71">
<path d="M-2.56763 178.031L144.88 156.588L151.932 205.078L4.48446 226.521L-2.56763 178.031Z" fill="white"/>
</mask>
<g mask="url(#mask59_47_13824)">
<path d="M127.36 208.484L28.62 222.843C15.2918 224.781 2.88559 215.526 0.942879 202.198C-0.994621 188.869 8.26059 176.463 21.5939 174.521L120.334 160.161C133.662 158.224 146.068 167.479 148.005 180.812C149.948 194.14 140.688 206.547 127.36 208.484ZM21.6616 174.989C8.58871 176.89 -0.489413 189.057 1.41163 202.13C3.31267 215.203 15.4793 224.276 28.5523 222.375L127.292 208.015C140.365 206.114 149.443 193.953 147.542 180.88C145.641 167.807 133.474 158.729 120.401 160.63L21.6616 174.989Z" fill="#604428"/>
</g>
</g>
</g>
<mask id="mask60_47_13824" style="mask-type:luminance" maskUnits="userSpaceOnUse" x="177" y="110" width="39" height="39">
<path d="M177.203 110.229H215.964V148.989H177.203V110.229Z" fill="white"/>
</mask>
<g mask="url(#mask60_47_13824)">
<mask id="mask61_47_13824" style="mask-type:luminance" maskUnits="userSpaceOnUse" x="177" y="110" width="39" height="39">
<path d="M196.583 110.229C185.88 110.229 177.203 118.906 177.203 129.609C177.203 140.312 185.88 148.989 196.583 148.989C207.286 148.989 215.964 140.312 215.964 129.609C215.964 118.906 207.286 110.229 196.583 110.229Z" fill="white"/>
</mask>
<g mask="url(#mask61_47_13824)">
<path d="M177.203 110.229H215.964V148.989H177.203V110.229Z" fill="black"/>
</g>
</g>
<mask id="mask62_47_13824" style="mask-type:luminance" maskUnits="userSpaceOnUse" x="94" y="110" width="40" height="39">
<path d="M94.9324 110.229H133.698V148.989H94.9324V110.229Z" fill="white"/>
</mask>
<g mask="url(#mask62_47_13824)">
<mask id="mask63_47_13824" style="mask-type:luminance" maskUnits="userSpaceOnUse" x="94" y="110" width="40" height="39">
<path d="M114.313 110.229C103.609 110.229 94.9324 118.906 94.9324 129.609C94.9324 140.312 103.609 148.989 114.313 148.989C125.021 148.989 133.698 140.312 133.698 129.609C133.698 118.906 125.021 110.229 114.313 110.229Z" fill="white"/>
</mask>
<g mask="url(#mask63_47_13824)">
<path d="M94.9324 110.229H133.698V148.989H94.9324V110.229Z" fill="black"/>
</g>
</g>
<mask id="mask64_47_13824" style="mask-type:luminance" maskUnits="userSpaceOnUse" x="112" y="111" width="19" height="19">
<path d="M112.229 111.047H130.792V129.609H112.229V111.047Z" fill="white"/>
</mask>
<g mask="url(#mask64_47_13824)">
<mask id="mask65_47_13824" style="mask-type:luminance" maskUnits="userSpaceOnUse" x="112" y="111" width="19" height="19">
<path d="M121.51 111.047C116.385 111.047 112.229 115.203 112.229 120.328C112.229 125.453 116.385 129.609 121.51 129.609C126.635 129.609 130.792 125.453 130.792 120.328C130.792 115.203 126.635 111.047 121.51 111.047Z" fill="white"/>
</mask>
<g mask="url(#mask65_47_13824)">
<path d="M112.229 111.047H130.792V129.609H112.229V111.047Z" fill="white"/>
</g>
</g>
<mask id="mask66_47_13824" style="mask-type:luminance" maskUnits="userSpaceOnUse" x="194" y="110" width="20" height="20">
<path d="M194.49 110.708H213.052V129.271H194.49V110.708Z" fill="white"/>
</mask>
<g mask="url(#mask66_47_13824)">
<mask id="mask67_47_13824" style="mask-type:luminance" maskUnits="userSpaceOnUse" x="194" y="110" width="20" height="20">
<path d="M203.771 110.708C198.646 110.708 194.49 114.86 194.49 119.99C194.49 125.115 198.646 129.271 203.771 129.271C208.896 129.271 213.052 125.115 213.052 119.99C213.052 114.86 208.896 110.708 203.771 110.708Z" fill="white"/>
</mask>
<g mask="url(#mask67_47_13824)">
<path d="M194.49 110.708H213.052V129.271H194.49V110.708Z" fill="white"/>
</g>
</g>
<mask id="mask68_47_13824" style="mask-type:luminance" maskUnits="userSpaceOnUse" x="109" y="196" width="121" height="46">
<path d="M109.036 196.135H229.036V241.135H109.036V196.135Z" fill="white"/>
</mask>
<g mask="url(#mask68_47_13824)">
<path d="M215.109 220.453C198.838 216.047 186.661 219.766 178.667 224.479C189.594 213.365 206.271 209.708 211.609 208.807L215.109 220.453ZM195.875 196.188L200.463 207.151C191.812 209.833 180.51 215.052 172.859 224.667C177.698 207.839 190.937 198.969 195.875 196.188ZM142.167 196.188C147.099 198.969 160.338 207.807 165.177 224.698C157.526 215.083 146.224 209.865 137.573 207.182L142.167 196.188ZM126.427 208.807C131.766 209.708 148.443 213.365 159.37 224.479C151.375 219.766 139.198 216.047 122.927 220.453L126.427 208.807ZM176.042 240.781H161.995C158.901 236.781 145.536 223.948 109.036 239.156L112.187 228.948C148.599 211.271 166.583 235.536 167.333 236.594C167.365 236.625 167.396 236.625 167.427 236.656C167.458 236.719 167.49 236.781 167.552 236.812C167.583 236.844 167.583 236.844 167.583 236.875C167.646 236.938 167.708 236.969 167.802 237C167.865 237.031 167.927 237.094 167.99 237.125C168.052 237.156 168.115 237.219 168.208 237.25C168.24 237.25 168.271 237.281 168.271 237.281C168.396 237.344 168.552 237.344 168.708 237.375C168.802 237.375 168.865 237.438 168.958 237.438C168.99 237.438 169.021 237.438 169.052 237.438C169.083 237.438 169.115 237.438 169.146 237.438C169.24 237.438 169.302 237.406 169.391 237.375C169.547 237.344 169.672 237.344 169.828 237.281C169.859 237.281 169.891 237.25 169.891 237.25C169.984 237.219 170.047 237.156 170.109 237.125C170.172 237.094 170.234 237.062 170.297 237C170.359 236.938 170.453 236.906 170.516 236.875C170.547 236.844 170.547 236.844 170.547 236.812C170.609 236.75 170.641 236.719 170.672 236.656C170.703 236.625 170.734 236.625 170.766 236.594C171.516 235.536 189.5 211.271 225.911 228.948L229.068 239.156C192.531 223.948 179.135 236.812 176.042 240.781Z" fill="#604428"/>
</g>
<mask id="mask69_47_13824" style="mask-type:luminance" maskUnits="userSpaceOnUse" x="95" y="129" width="20" height="19">
<path d="M95.75 129.271H114.312V147.833H95.75V129.271Z" fill="white"/>
</mask>
<g mask="url(#mask69_47_13824)">
<mask id="mask70_47_13824" style="mask-type:luminance" maskUnits="userSpaceOnUse" x="95" y="129" width="20" height="19">
<path d="M105.031 129.271C99.9062 129.271 95.75 133.422 95.75 138.552C95.75 143.677 99.9062 147.833 105.031 147.833C110.161 147.833 114.312 143.677 114.312 138.552C114.312 133.422 110.161 129.271 105.031 129.271Z" fill="white"/>
</mask>
<g mask="url(#mask70_47_13824)">
<path d="M95.75 129.271H114.312V147.833H95.75V129.271Z" fill="white"/>
</g>
</g>
<mask id="mask71_47_13824" style="mask-type:luminance" maskUnits="userSpaceOnUse" x="179" y="129" width="20" height="19">
<path d="M179.443 129.271H198.005V147.833H179.443V129.271Z" fill="white"/>
</mask>
<g mask="url(#mask71_47_13824)">
<mask id="mask72_47_13824" style="mask-type:luminance" maskUnits="userSpaceOnUse" x="179" y="129" width="20" height="19">
<path d="M188.724 129.271C183.599 129.271 179.443 133.422 179.443 138.552C179.443 143.677 183.599 147.833 188.724 147.833C193.849 147.833 198.005 143.677 198.005 138.552C198.005 133.422 193.849 129.271 188.724 129.271Z" fill="white"/>
</mask>
<g mask="url(#mask72_47_13824)">
<path d="M179.443 129.271H198.005V147.833H179.443V129.271Z" fill="white"/>
</g>
</g>
<mask id="mask73_47_13824" style="mask-type:luminance" maskUnits="userSpaceOnUse" x="46" y="0" width="212" height="91">
<path d="M46 0.333496H258V91.0002H46V0.333496Z" fill="white"/>
</mask>
<g mask="url(#mask73_47_13824)">
<mask id="mask74_47_13824" style="mask-type:luminance" maskUnits="userSpaceOnUse" x="43" y="-25" width="226" height="170">
<path d="M78.3907 -24.3955L268.49 37.7555L233.688 144.209L43.5886 82.0576L78.3907 -24.3955Z" fill="white"/>
</mask>
<g mask="url(#mask74_47_13824)">
<mask id="mask75_47_13824" style="mask-type:luminance" maskUnits="userSpaceOnUse" x="43" y="-25" width="226" height="170">
<path d="M78.3907 -24.3955L268.49 37.7555L233.688 144.209L43.5886 82.0576L78.3907 -24.3955Z" fill="white"/>
</mask>
<g mask="url(#mask75_47_13824)">
<path d="M158.021 2.10969C162.13 3.39615 165.859 5.4326 169.349 7.9326C174.922 11.9222 180.339 16.1097 185.344 20.7972C187.234 22.5732 189.24 24.2034 191.401 25.6357C199.667 31.1045 207.161 37.5889 215.016 43.5889C220.521 47.7972 225.932 52.1409 232.104 55.3545C239.885 59.4066 247.135 64.3232 254.625 68.8493C255.203 69.1982 255.688 69.542 256.427 69.6461C257.583 69.8128 257.745 70.6305 257.13 71.6774C254.672 75.8284 250.896 78.0159 246.292 78.9066C243.453 79.4586 240.599 79.9639 237.729 80.3284C229.953 81.318 222.297 83.1201 214.464 83.6774C210.438 83.9586 206.411 84.2555 202.385 84.318C195.896 84.417 189.484 85.1149 183.104 86.2607C175.073 87.7034 166.984 88.5003 158.818 88.6253C155.589 88.6722 152.281 88.2555 149.141 89.4899C144.12 88.7711 139.167 89.9899 134.172 90.0368C120.708 90.1566 107.245 90.318 93.7813 90.542C85.1927 90.6826 76.5833 90.1253 68.1198 88.3701C62.901 87.292 57.6823 86.1982 52.4792 85.0576C51.0677 84.7503 49.6979 84.2659 48.5365 83.3284C46.9948 82.0784 46.2031 80.5524 46.6354 78.5264C46.6823 78.3024 46.8646 78.0264 46.7917 77.8753C45.6719 75.6878 47.3958 75.3128 48.776 74.7086C50.25 74.0576 51.5417 73.1045 52.8438 72.1774C58.6719 68.0211 64.3542 63.6409 70.3594 59.7659C77.974 54.8545 85.6042 49.9586 93.4427 45.3961C105.911 38.1409 117.682 29.8753 128.583 20.4014C130.193 19.0055 131.802 17.5941 133.505 16.318C137.781 13.1097 141.734 9.54719 145.495 5.76073C146.953 4.29198 148.594 3.05239 150.286 1.89094C152.026 0.693019 153.87 0.302395 155.87 1.38573C156.526 1.7399 157.302 1.87531 158.021 2.10969Z" fill="#433820"/>
</g>
</g>
</g>
<mask id="mask76_47_13824" style="mask-type:luminance" maskUnits="userSpaceOnUse" x="51" y="5" width="193" height="76">
<path d="M51.3333 5.6665H243.333V80.3332H51.3333V5.6665Z" fill="white"/>
</mask>
<g mask="url(#mask76_47_13824)">
<mask id="mask77_47_13824" style="mask-type:luminance" maskUnits="userSpaceOnUse" x="43" y="-25" width="226" height="170">
<path d="M78.3905 -24.396L268.489 37.755L233.687 144.208L43.5884 82.0571L78.3905 -24.396Z" fill="white"/>
</mask>
<g mask="url(#mask77_47_13824)">
<mask id="mask78_47_13824" style="mask-type:luminance" maskUnits="userSpaceOnUse" x="43" y="-25" width="226" height="170">
<path d="M78.3905 -24.396L268.489 37.755L233.687 144.208L43.5884 82.0571L78.3905 -24.396Z" fill="white"/>
</mask>
<g mask="url(#mask78_47_13824)">
<path d="M125.812 79.1507C125.594 79.0882 125.365 78.9424 125.156 78.9736C119.167 79.8538 113.146 79.2393 107.146 79.2809C101.062 79.3226 94.9635 79.2132 88.8801 79.2288C81.1614 79.2549 73.5312 78.4007 65.8749 77.7445C62.0103 77.4111 58.151 76.9893 54.2864 76.609C53.5312 76.5309 52.7655 76.5101 52.0833 76.0726C52.1874 75.3382 52.8645 75.1924 53.328 74.8643C57.7447 71.7445 62.1926 68.6611 66.5989 65.5205C78.703 56.8799 91.3176 49.0309 104.203 41.6299C111.109 37.6611 117.406 32.8851 123.583 27.9163C128.745 23.7601 133.828 19.5049 138.995 15.3538C141.437 13.3903 143.641 11.182 145.885 9.0153C146.729 8.208 147.417 7.83821 148.344 8.82259C148.594 9.083 149.01 9.18196 149.328 9.38509C153 11.708 156.286 11.0257 159.604 7.77571C159.88 7.51009 160.167 7.23926 160.359 6.91634C160.937 5.93196 161.62 6.05696 162.443 6.59342C163.786 7.46321 165.213 8.19759 166.51 9.12467C172.338 13.2861 178.036 17.6143 183.297 22.4945C184.854 23.9424 186.437 25.4059 188.203 26.583C196.703 32.2601 204.531 38.8122 212.604 45.0465C218.088 49.2809 223.5 53.6247 229.588 56.9893C233.713 59.2757 237.891 61.4736 241.854 64.0465C242.156 64.2445 242.573 64.3226 242.703 64.932C242.187 65.5413 241.328 65.6872 240.583 65.8955C232.953 68.0101 225.328 70.1715 217.37 70.7601C212.807 71.0986 208.292 71.833 203.766 72.4684C196.068 73.5413 188.349 74.3695 180.573 74.557C175.458 74.682 170.38 75.1924 165.344 76.0205C154.859 77.7549 144.26 77.7497 133.693 78.1924C133.01 78.2236 132.318 78.1455 131.646 78.0361C130.781 77.9007 130.146 78.109 129.781 78.9424C128.49 79.6038 127.193 80.1403 125.812 79.1507Z" fill="#EDE0D2"/>
</g>
</g>
</g>
<mask id="mask79_47_13824" style="mask-type:luminance" maskUnits="userSpaceOnUse" x="114" y="65" width="140" height="20">
<path d="M114 65.6665H254V84.3332H114V65.6665Z" fill="white"/>
</mask>
<g mask="url(#mask79_47_13824)">
<mask id="mask80_47_13824" style="mask-type:luminance" maskUnits="userSpaceOnUse" x="43" y="-25" width="226" height="170">
<path d="M78.3907 -24.396L268.49 37.755L233.688 144.208L43.5886 82.0571L78.3907 -24.396Z" fill="white"/>
</mask>
<g mask="url(#mask80_47_13824)">
<mask id="mask81_47_13824" style="mask-type:luminance" maskUnits="userSpaceOnUse" x="43" y="-25" width="226" height="170">
<path d="M78.3907 -24.396L268.49 37.755L233.688 144.208L43.5886 82.0571L78.3907 -24.396Z" fill="white"/>
</mask>
<g mask="url(#mask81_47_13824)">
<path d="M173.172 81.6091C173.13 81.5466 173.052 81.4893 173.047 81.4216C172.844 76.7497 172.521 77.7028 176.531 77.4111C181.156 77.0726 185.807 77.0309 190.422 76.5934C191.771 76.4632 192.412 77.7809 193.547 77.5309C194.542 77.3122 194.974 76.1716 196.219 76.0361C202.797 75.3018 209.359 74.4111 215.922 73.5466C217.042 73.4007 217.912 73.333 218.484 74.682C218.901 75.6611 219.964 75.5414 220.287 74.4736C220.604 73.4216 221.094 73.0049 222.151 72.8799C227.542 72.2601 232.724 70.6664 237.969 69.4007C239.443 69.0414 240.589 68.9059 241.526 70.307C241.912 70.8799 242.526 71.2393 243.234 71.3591C243.724 71.4424 244.151 71.3434 244.422 70.9007C244.646 70.5361 244.537 70.1716 244.339 69.8226C243.974 69.1611 243.193 68.8226 242.943 68.0674C243.005 67.9997 243.047 67.932 243.104 67.8903C245.094 66.3695 246.886 66.8539 248.745 68.2601C250.307 69.4476 252.047 70.3903 253.667 71.4216C253.448 72.2705 253.021 72.7914 252.526 73.2757C251.865 73.9268 251.24 74.7497 250.38 73.4684C250.167 73.1507 249.75 73.0726 249.365 73.0205C247.99 72.8382 247.521 73.4841 248.042 74.8695C248.115 75.0674 248.162 75.2757 248.229 75.4997C247.276 76.1455 246.219 76.307 245.177 76.4736C237.818 77.6559 230.453 78.8122 223.094 80.0049C222.037 80.1768 221.193 80.1976 220.62 79.057C220.344 78.5101 219.688 78.2653 219.026 78.5205C218.417 78.7601 218.302 79.2601 218.479 79.8382C218.734 80.6768 218.13 80.7132 217.604 80.7653C215.484 80.9632 213.365 81.2132 211.24 81.3174C206.604 81.5361 201.969 81.6664 197.333 81.8643C196.443 81.9007 195.823 81.8226 195.984 80.682C196.031 80.3226 195.917 79.9216 195.807 79.5622C195.641 79.0049 195.25 78.6351 194.641 78.6716C194.026 78.7028 193.677 79.1091 193.615 79.708C193.531 80.5153 193.87 81.557 193.047 82.0101C192.365 82.3955 191.438 82.3591 190.615 82.4893C187.609 82.9476 184.599 83.3955 181.589 83.8486C179.172 81.6351 176 82.2653 173.172 81.6091ZM145.886 80.3643C144.974 80.3903 144.068 80.458 143.156 80.4684C139.672 80.5205 136.182 80.5778 132.698 80.5778C131.458 80.5778 130.229 80.4268 129.781 78.9476C128.443 78.6716 127.151 79.3434 125.813 79.1507C126.063 80.8591 125.969 81.0778 124.672 81.5622C123.667 81.9372 122.615 82.0205 121.552 82.0153C119.594 82.0101 117.63 82.0361 115.672 81.9684C114.797 81.9372 114.365 82.1716 114.511 83.0986C115.078 83.8018 115.802 83.9789 116.708 84.0309C125.505 84.5153 134.276 83.9059 143.052 83.5205C144.974 83.4372 147.016 83.6091 148.859 82.7184C148.344 80.2914 148.339 80.2861 145.886 80.3643ZM170.531 79.333C170.557 78.3226 170.057 77.9684 169.094 78.1299C168.568 78.2236 168.037 78.2601 167.511 78.3434C162.625 79.1195 157.719 79.7289 152.781 80.0466C150.823 80.1716 150.823 80.1924 151.391 82.1611C152 83.0882 152.891 82.9216 153.818 82.8539C158.537 82.4893 163.261 82.1611 167.99 81.8486C168.891 81.7861 169.813 81.8903 170.521 81.1559C170.526 80.5466 170.516 79.9424 170.531 79.333Z" fill="#9D743B"/>
</g>
</g>
</g>
<mask id="mask82_47_13824" style="mask-type:luminance" maskUnits="userSpaceOnUse" x="48" y="3" width="134" height="86">
<path d="M48.6667 3H182V88.3333H48.6667V3Z" fill="white"/>
</mask>
<g mask="url(#mask82_47_13824)">
<mask id="mask83_47_13824" style="mask-type:luminance" maskUnits="userSpaceOnUse" x="43" y="-25" width="226" height="170">
<path d="M78.3907 -24.396L268.49 37.755L233.688 144.208L43.5886 82.0571L78.3907 -24.396Z" fill="white"/>
</mask>
<g mask="url(#mask83_47_13824)">
<mask id="mask84_47_13824" style="mask-type:luminance" maskUnits="userSpaceOnUse" x="43" y="-25" width="226" height="170">
<path d="M78.3907 -24.396L268.49 37.755L233.688 144.208L43.5886 82.0571L78.3907 -24.396Z" fill="white"/>
</mask>
<g mask="url(#mask84_47_13824)">
<path d="M173.172 81.6094C174.735 81.3021 176.292 81.4115 177.865 81.4844C179.271 81.5469 180.344 81.9115 180.948 83.2657C181.052 83.5105 181.37 83.6563 181.589 83.849C174.552 85.1146 167.459 85.8438 160.302 85.9792C157.568 86.0261 154.766 86.5209 152.115 86.099C149.495 85.6771 147.209 86.7292 144.735 86.7709C142.156 86.8178 139.578 87.0625 137 87.2396C129.86 87.7396 122.714 87.4792 115.573 87.5261C108.276 87.573 100.979 87.8698 93.6877 88.0209C92.0158 88.0573 90.245 88.2917 88.7033 87.823C87.1773 87.3646 85.844 86.8178 84.344 87.6459C76.6773 87.2032 69.0575 86.448 61.6773 84.1407C61.5315 84.099 61.396 84.0261 61.2554 83.9688L61.2658 84C61.844 83.5105 61.9377 82.8907 61.9273 82.1563C61.9169 81.5625 62.1408 80.9688 62.2763 80.2969C62.9533 79.9636 63.6929 80.1303 64.4325 80.1928C70.5575 80.6719 76.6513 81.573 82.8023 81.7344C83.6929 81.7553 84.0523 82.0261 84.0523 82.8907C84.0523 83.1875 84.1148 83.5 84.219 83.7813C84.4325 84.3334 84.8752 84.6198 85.4638 84.599C86.1669 84.573 86.2606 84.0261 86.3544 83.4792C86.6617 81.7396 86.6721 81.6615 88.4065 81.724C95.7763 82.0053 103.151 81.8021 110.521 81.8803C112.141 81.9011 112.167 81.948 112.089 83.6042C112.063 84.2084 111.886 84.8282 111.964 85.4167C112.052 86.0886 112.313 86.8438 113.214 86.7448C113.953 86.6615 114.438 86.2553 114.391 85.3646C114.349 84.6146 114.464 83.8594 114.511 83.1042C122.938 84.0261 131.354 83.3698 139.776 83.099C142.808 83 145.813 82.349 148.86 82.724C150.636 83.4896 150.636 83.4896 151.391 82.1667C157.339 82.2553 163.229 81.3542 169.162 81.1459C169.615 81.1303 170.068 81.0105 170.521 81.1615C170.552 81.2292 170.599 81.2917 170.615 81.3646C170.771 82.198 170.443 83.3646 171.729 83.5053C173.094 83.6511 172.828 82.349 173.172 81.6094ZM61.2658 83.9948C59.9742 83.724 59.1408 83.1198 59.5731 81.625C59.9013 80.5 59.4377 79.8334 58.3388 79.6615C55.646 79.2344 52.9585 78.7969 50.2502 78.4948C49.0054 78.3542 48.5106 79.3438 49.1981 80.4584C49.7763 81.3959 50.6929 81.9219 51.7138 82.3073C53.719 83.0678 55.8388 83.3178 57.9325 83.5886C59.0263 83.7292 60.0835 84.4636 61.2502 83.9688L61.2658 83.9948ZM158 5.7188C158.255 5.31255 158.438 4.87505 157.896 4.55213C156.318 3.61463 154.443 4.91671 152.834 3.87505C152.37 3.57297 151.808 4.02609 151.406 4.36463C150.683 4.97401 149.313 5.25005 149.443 6.31776C149.573 7.39588 150.959 7.38026 151.729 7.77609C154.063 8.56776 156.802 7.64588 158 5.7188ZM108.537 64.7969C110.412 65.5105 112.406 65.5678 114.37 65.7136C118.834 66.0365 123.292 66.7292 127.781 66.0365C130.042 65.6875 132.318 65.5521 134.604 65.5678C137.052 65.5834 139.474 65.3334 141.808 64.5469C142.646 64.2657 143.537 64.0157 143.776 62.9688C142.787 62.1771 141.698 62.25 140.651 62.349C137.922 62.6146 135.183 62.8073 132.485 63.2657C127.422 64.125 122.365 64.2032 117.255 63.8334C114.021 63.6042 110.755 63.4688 107.36 63.8021C107.615 64.6719 108.141 64.6459 108.537 64.7969ZM128.287 45.9063C126.917 45.8646 125.552 45.8698 124.188 45.7917C117.735 45.4115 111.292 46.3125 104.839 45.9115C104.261 45.875 103.526 45.8855 103.386 46.6823C103.261 47.4063 103.792 47.7605 104.38 48.0261C105.662 48.6042 107.021 48.7292 108.396 48.6511C112.651 48.4219 116.906 48.5678 121.162 48.5782C122.985 48.5834 124.808 48.4688 126.615 48.1719C127.901 47.9584 129.037 47.474 130.12 46.5625C129.469 46.0625 128.896 45.9271 128.287 45.9063ZM110.995 54.6407C106.552 54.1094 102.13 53.4219 97.7033 52.7917C96.5627 52.625 95.5002 52.2344 94.3804 52.0521C93.9117 51.974 93.4585 52.0938 93.2294 52.573C92.9898 53.0678 93.2658 53.4323 93.5835 53.7865C94.0627 54.323 94.7138 54.5417 95.3544 54.7761C97.5002 55.5625 99.719 56.0521 101.979 56.4167C106.261 57.099 110.563 57.4219 114.896 57.1303C115.688 57.0782 116.563 57.0834 117.255 56.1407C115.068 55.6042 113.058 54.8907 110.995 54.6407ZM99.8388 62.4323C97.9169 61.7032 95.9638 61.1667 93.9013 60.8907C91.12 60.5157 88.3804 59.8438 85.6304 59.2865C84.995 59.1615 84.3388 59.1146 83.969 59.6875C83.5471 60.3438 84.1252 60.8178 84.5367 61.2396C84.8492 61.5625 85.2085 61.8855 85.6096 62.0678C90.3231 64.2136 95.2346 64.7865 100.318 63.8594C100.516 63.823 100.688 63.6303 100.943 63.4636C100.698 62.7761 100.266 62.599 99.8388 62.4323ZM83.0575 67.6303C80.1513 67.1355 77.2033 66.8803 74.271 66.5261C73.9013 66.4844 73.5002 66.3959 73.245 66.7813C72.9429 67.2396 73.1408 67.6615 73.4221 68.0313C73.7919 68.5157 74.2867 68.8646 74.7971 69.2032C78.094 71.3803 81.7554 71.599 85.521 71.2188C86.1929 71.1511 86.844 70.9271 87.2763 70.1042C85.995 69.0417 84.7085 67.9115 83.0575 67.6303ZM113.688 71.4167C107.219 70.9584 100.74 70.7344 94.1356 70.8803C94.5002 71.9115 95.2502 71.9375 95.8856 72.0625C97.8179 72.4428 99.7554 72.8021 101.698 73.099C105.235 73.6459 108.787 73.9219 112.349 73.3282C113.25 73.1823 114.167 73.0938 114.86 72.3125C114.589 71.6198 114.13 71.448 113.688 71.4167ZM133 57.9792C133.88 57.8698 135.104 57.6875 135.037 56.5938C134.969 55.4792 133.818 55.2136 132.776 55.1875C132.547 55.1823 132.318 55.1511 132.094 55.1615C129.297 55.2761 126.495 55.3855 123.698 55.5261C123.177 55.5521 122.615 55.5782 122.188 55.9375C121.693 56.3542 121.589 56.823 122.229 57.2084C122.485 57.3646 122.787 57.4428 123.448 57.7188C126.37 57.974 129.672 58.3959 133 57.9792ZM134.578 70.75C130.886 71.0105 127.188 71.2761 123.495 71.5365C122.802 71.5886 122.037 71.5 121.578 72.4271C121.995 72.5625 122.271 72.724 122.558 72.7344C126.933 72.9167 131.313 72.9063 135.672 72.4271C136.672 72.3125 137.802 72.1146 138.479 70.7709C137.068 70.0678 135.818 70.6615 134.578 70.75ZM136.292 44.7292C135.578 44.9792 135.219 45.5678 135.318 46.3282C135.422 47.1303 136.052 47.5678 136.74 47.5313C138.781 47.4375 140.683 46.9375 142.125 45.1094C140.084 43.9271 138.193 44.0625 136.292 44.7292ZM140.781 55.0105C140.38 55.1875 139.906 55.4063 140.099 55.9896C140.229 56.3855 140.604 56.5678 140.995 56.5521C143.62 56.4375 146.183 56.0469 148.459 54.4532C145.818 53.8125 143.261 53.9167 140.781 55.0105Z" fill="#604428"/>
</g>
</g>
</g>
</svg>
