<svg width="361" height="321" viewBox="0 0 361 321" fill="none" xmlns="http://www.w3.org/2000/svg">
<mask id="mask0_47_13831" style="mask-type:luminance" maskUnits="userSpaceOnUse" x="101" y="171" width="121" height="75">
<path d="M101.667 171.333H221.667V246H101.667V171.333Z" fill="white"/>
</mask>
<g mask="url(#mask0_47_13831)">
<mask id="mask1_47_13831" style="mask-type:luminance" maskUnits="userSpaceOnUse" x="96" y="166" width="132" height="86">
<path d="M96.1406 213.094L211.969 166.104L227.38 204.094L111.552 251.089L96.1406 213.094Z" fill="white"/>
</mask>
<g mask="url(#mask1_47_13831)">
<mask id="mask2_47_13831" style="mask-type:luminance" maskUnits="userSpaceOnUse" x="96" y="166" width="132" height="86">
<path d="M96.1406 213.094L211.969 166.104L227.38 204.094L111.552 251.089L96.1406 213.094Z" fill="white"/>
</mask>
<g mask="url(#mask2_47_13831)">
<path d="M208.354 211.709L130.552 243.271C120.141 247.495 108.271 242.48 104.052 232.068C99.828 221.657 104.844 209.792 115.255 205.568L193.057 174C203.463 169.776 215.333 174.797 219.557 185.209C223.781 195.615 218.76 207.485 208.354 211.709Z" fill="#604428"/>
<path d="M208.427 211.891L130.625 243.454C120.125 247.714 108.125 242.646 103.865 232.141C99.6041 221.641 104.677 209.641 115.177 205.381L192.979 173.818C203.484 169.558 215.479 174.631 219.74 185.131C224 195.636 218.927 207.631 208.427 211.891ZM115.328 205.751C105.026 209.928 100.057 221.693 104.234 231.995C108.411 242.292 120.177 247.266 130.474 243.089L208.276 211.521C218.578 207.344 223.552 195.579 219.37 185.282C215.193 174.98 203.427 170.006 193.13 174.188L115.328 205.751Z" fill="#604428"/>
</g>
</g>
</g>
<mask id="mask3_47_13831" style="mask-type:luminance" maskUnits="userSpaceOnUse" x="60" y="140" width="143" height="88">
<path d="M60.3334 140.667H203V227.333H60.3334V140.667Z" fill="white"/>
</mask>
<g mask="url(#mask3_47_13831)">
<mask id="mask4_47_13831" style="mask-type:luminance" maskUnits="userSpaceOnUse" x="53" y="133" width="157" height="102">
<path d="M53.3386 189.099L191.412 133.083L209.828 178.489L71.7605 234.505L53.3386 189.099Z" fill="white"/>
</mask>
<g mask="url(#mask4_47_13831)">
<mask id="mask5_47_13831" style="mask-type:luminance" maskUnits="userSpaceOnUse" x="53" y="133" width="157" height="102">
<path d="M53.3386 189.099L191.412 133.083L209.828 178.489L71.7605 234.505L53.3386 189.099Z" fill="white"/>
</mask>
<g mask="url(#mask5_47_13831)">
<path d="M186.693 187.448L94.2345 224.958C81.8595 229.979 67.7605 224.015 62.7397 211.64C57.7188 199.271 63.6824 185.166 76.0522 180.146L168.516 142.635C180.886 137.614 194.99 143.578 200.011 155.953C205.031 168.323 199.068 182.427 186.693 187.448Z" fill="#604428"/>
</g>
</g>
</g>
<mask id="mask6_47_13831" style="mask-type:luminance" maskUnits="userSpaceOnUse" x="60" y="139" width="143" height="89">
<path d="M60.3334 139.333H203V227.333H60.3334V139.333Z" fill="white"/>
</mask>
<g mask="url(#mask6_47_13831)">
<mask id="mask7_47_13831" style="mask-type:luminance" maskUnits="userSpaceOnUse" x="53" y="133" width="157" height="102">
<path d="M53.3386 189.099L191.412 133.083L209.828 178.49L71.7605 234.505L53.3386 189.099Z" fill="white"/>
</mask>
<g mask="url(#mask7_47_13831)">
<mask id="mask8_47_13831" style="mask-type:luminance" maskUnits="userSpaceOnUse" x="53" y="133" width="157" height="102">
<path d="M53.3386 189.099L191.412 133.083L209.828 178.49L71.7605 234.505L53.3386 189.099Z" fill="white"/>
</mask>
<g mask="url(#mask8_47_13831)">
<path d="M186.781 187.667L94.323 225.177C81.8438 230.24 67.5834 224.214 62.5209 211.729C57.4584 199.25 63.4844 184.995 75.9636 179.927L168.427 142.417C180.906 137.354 195.167 143.38 200.229 155.865C205.292 168.344 199.266 182.599 186.781 187.667ZM76.1407 180.365C63.9011 185.334 57.9896 199.313 62.9584 211.552C67.9219 223.797 81.9063 229.703 94.1459 224.74L186.604 187.229C198.849 182.261 204.755 168.282 199.792 156.042C194.823 143.797 180.844 137.891 168.604 142.854L76.1407 180.365Z" fill="#604428"/>
</g>
</g>
</g>
<mask id="mask9_47_13831" style="mask-type:luminance" maskUnits="userSpaceOnUse" x="25" y="120" width="142" height="88">
<path d="M25.6666 120.667H167V207.333H25.6666V120.667Z" fill="white"/>
</mask>
<g mask="url(#mask9_47_13831)">
<mask id="mask10_47_13831" style="mask-type:luminance" maskUnits="userSpaceOnUse" x="18" y="113" width="157" height="102">
<path d="M18.1458 169.526L156.213 113.51L174.635 158.911L36.5676 214.927L18.1458 169.526Z" fill="white"/>
</mask>
<g mask="url(#mask10_47_13831)">
<mask id="mask11_47_13831" style="mask-type:luminance" maskUnits="userSpaceOnUse" x="18" y="113" width="157" height="102">
<path d="M18.1458 169.526L156.213 113.51L174.635 158.911L36.5676 214.927L18.1458 169.526Z" fill="white"/>
</mask>
<g mask="url(#mask11_47_13831)">
<path d="M151.5 167.87L59.0416 205.38C46.6666 210.401 32.5676 204.437 27.5468 192.068C22.526 179.693 28.4895 165.589 40.8593 160.573L133.323 123.057C145.693 118.042 159.797 124 164.818 136.375C169.838 148.745 163.875 162.849 151.5 167.87Z" fill="#604428"/>
</g>
</g>
</g>
<mask id="mask12_47_13831" style="mask-type:luminance" maskUnits="userSpaceOnUse" x="24" y="120" width="143" height="89">
<path d="M24.3334 120.667H167V208.667H24.3334V120.667Z" fill="white"/>
</mask>
<g mask="url(#mask12_47_13831)">
<mask id="mask13_47_13831" style="mask-type:luminance" maskUnits="userSpaceOnUse" x="18" y="113" width="157" height="102">
<path d="M18.1459 169.526L156.214 113.51L174.635 158.911L36.5677 214.927L18.1459 169.526Z" fill="white"/>
</mask>
<g mask="url(#mask13_47_13831)">
<mask id="mask14_47_13831" style="mask-type:luminance" maskUnits="userSpaceOnUse" x="18" y="113" width="157" height="102">
<path d="M18.1459 169.526L156.214 113.51L174.635 158.911L36.5677 214.927L18.1459 169.526Z" fill="white"/>
</mask>
<g mask="url(#mask14_47_13831)">
<path d="M151.589 168.088L59.1302 205.599C46.6458 210.661 32.3906 204.635 27.3281 192.156C22.2656 179.672 28.2917 165.416 40.7708 160.354L133.234 122.838C145.714 117.776 159.974 123.802 165.036 136.286C170.099 148.765 164.073 163.026 151.589 168.088ZM40.9479 160.791C28.7083 165.755 22.7969 179.734 27.7656 191.979C32.7292 204.219 46.7136 210.13 58.9531 205.161L151.411 167.651C163.651 162.682 169.563 148.703 164.599 136.463C159.63 124.224 145.651 118.312 133.411 123.276L40.9479 160.791Z" fill="#604428"/>
</g>
</g>
</g>
<mask id="mask15_47_13831" style="mask-type:luminance" maskUnits="userSpaceOnUse" x="247" y="254" width="39" height="51">
<path d="M247 254H285.667V304.667H247V254Z" fill="white"/>
</mask>
<g mask="url(#mask15_47_13831)">
<mask id="mask16_47_13831" style="mask-type:luminance" maskUnits="userSpaceOnUse" x="246" y="252" width="41" height="55">
<path d="M279.875 306.01L246.464 257.38L253.057 252.854L286.469 301.479L279.875 306.01Z" fill="white"/>
</mask>
<g mask="url(#mask16_47_13831)">
<mask id="mask17_47_13831" style="mask-type:luminance" maskUnits="userSpaceOnUse" x="246" y="252" width="41" height="55">
<path d="M279.875 306.01L246.464 257.38L253.057 252.854L286.469 301.479L279.875 306.01Z" fill="white"/>
</mask>
<g mask="url(#mask17_47_13831)">
<path d="M248.917 260.921L251.312 264.411L251.323 264.406L275.109 299.02L275.099 299.026L277.495 302.51C278.818 304.437 281.453 304.921 283.38 303.604C285.302 302.281 285.792 299.645 284.469 297.718L255.891 256.13C254.568 254.208 251.943 253.713 250.021 255.036C248.094 256.354 247.599 259 248.917 260.921Z" fill="#FCD590"/>
</g>
</g>
</g>
<mask id="mask18_47_13831" style="mask-type:luminance" maskUnits="userSpaceOnUse" x="269" y="287" width="13" height="15">
<path d="M269.667 287.333H281.667V302H269.667V287.333Z" fill="white"/>
</mask>
<g mask="url(#mask18_47_13831)">
<mask id="mask19_47_13831" style="mask-type:luminance" maskUnits="userSpaceOnUse" x="246" y="252" width="41" height="55">
<path d="M279.875 306.011L246.464 257.381L253.057 252.854L286.469 301.479L279.875 306.011Z" fill="white"/>
</mask>
<g mask="url(#mask19_47_13831)">
<mask id="mask20_47_13831" style="mask-type:luminance" maskUnits="userSpaceOnUse" x="246" y="252" width="41" height="55">
<path d="M279.875 306.011L246.464 257.381L253.057 252.854L286.469 301.479L279.875 306.011Z" fill="white"/>
</mask>
<g mask="url(#mask20_47_13831)">
<path d="M270.927 289.224L279.234 301.318C279.568 301.802 280.224 301.927 280.708 301.589C281.193 301.256 281.318 300.605 280.984 300.115L278.589 296.631L278.578 296.636L272.672 288.042C272.339 287.558 271.682 287.433 271.198 287.766C270.708 288.099 270.599 288.75 270.927 289.224Z" fill="#FCD590"/>
</g>
</g>
</g>
<mask id="mask21_47_13831" style="mask-type:luminance" maskUnits="userSpaceOnUse" x="119" y="242" width="52" height="38">
<path d="M119 242H171V279.333H119V242Z" fill="white"/>
</mask>
<g mask="url(#mask21_47_13831)">
<mask id="mask22_47_13831" style="mask-type:luminance" maskUnits="userSpaceOnUse" x="117" y="240" width="55" height="40">
<path d="M117.969 272.953L167.562 240.99L171.896 247.719L122.302 279.677L117.969 272.953Z" fill="white"/>
</mask>
<g mask="url(#mask22_47_13831)">
<mask id="mask23_47_13831" style="mask-type:luminance" maskUnits="userSpaceOnUse" x="117" y="240" width="55" height="40">
<path d="M117.969 272.953L167.562 240.99L171.896 247.719L122.302 279.677L117.969 272.953Z" fill="white"/>
</mask>
<g mask="url(#mask23_47_13831)">
<path d="M163.948 243.339L160.391 245.63L160.401 245.641L125.094 268.391L125.089 268.38L121.531 270.672C119.573 271.938 119.005 274.562 120.271 276.521C121.531 278.484 124.156 279.052 126.115 277.786L168.531 250.453C170.495 249.187 171.068 246.578 169.802 244.615C168.542 242.651 165.911 242.078 163.948 243.339Z" fill="#FCD590"/>
</g>
</g>
</g>
<mask id="mask24_47_13831" style="mask-type:luminance" maskUnits="userSpaceOnUse" x="121" y="263" width="17" height="13">
<path d="M121.667 263.333H137.667V275.333H121.667V263.333Z" fill="white"/>
</mask>
<g mask="url(#mask24_47_13831)">
<mask id="mask25_47_13831" style="mask-type:luminance" maskUnits="userSpaceOnUse" x="117" y="240" width="55" height="40">
<path d="M117.969 272.953L167.562 240.99L171.896 247.719L122.302 279.677L117.969 272.953Z" fill="white"/>
</mask>
<g mask="url(#mask25_47_13831)">
<mask id="mask26_47_13831" style="mask-type:luminance" maskUnits="userSpaceOnUse" x="117" y="240" width="55" height="40">
<path d="M117.969 272.953L167.562 240.99L171.896 247.719L122.302 279.677L117.969 272.953Z" fill="white"/>
</mask>
<g mask="url(#mask26_47_13831)">
<path d="M135.01 264.5L122.677 272.448C122.182 272.766 122.042 273.417 122.359 273.912C122.677 274.406 123.328 274.547 123.823 274.229L127.38 271.938L127.375 271.927L136.141 266.281C136.635 265.958 136.776 265.307 136.458 264.813C136.141 264.318 135.495 264.188 135.01 264.5Z" fill="#FCD590"/>
</g>
</g>
</g>
<mask id="mask27_47_13831" style="mask-type:luminance" maskUnits="userSpaceOnUse" x="111" y="243" width="18" height="54">
<path d="M111 243.333H128.333V296.667H111V243.333Z" fill="white"/>
</mask>
<g mask="url(#mask27_47_13831)">
<mask id="mask28_47_13831" style="mask-type:luminance" maskUnits="userSpaceOnUse" x="110" y="243" width="19" height="54">
<path d="M110.469 295.386L120.302 243.308L128.161 244.792L118.328 296.87L110.469 295.386Z" fill="white"/>
</mask>
<g mask="url(#mask28_47_13831)">
<mask id="mask29_47_13831" style="mask-type:luminance" maskUnits="userSpaceOnUse" x="110" y="243" width="19" height="54">
<path d="M110.469 295.386L120.302 243.308L128.161 244.792L118.328 296.87L110.469 295.386Z" fill="white"/>
</mask>
<g mask="url(#mask29_47_13831)">
<path d="M119.589 247.162L118.88 250.891L118.891 250.896L111.901 287.928H111.891L111.187 291.657C110.797 293.714 112.151 295.704 114.214 296.094C116.271 296.48 118.255 295.125 118.646 293.068L127.047 248.568C127.437 246.511 126.089 244.526 124.031 244.136C121.974 243.75 119.974 245.105 119.589 247.162Z" fill="#FCD590"/>
</g>
</g>
</g>
<mask id="mask30_47_13831" style="mask-type:luminance" maskUnits="userSpaceOnUse" x="112" y="278" width="6" height="16">
<path d="M112.333 278H117.667V294H112.333V278Z" fill="white"/>
</mask>
<g mask="url(#mask30_47_13831)">
<mask id="mask31_47_13831" style="mask-type:luminance" maskUnits="userSpaceOnUse" x="110" y="243" width="19" height="54">
<path d="M110.469 295.385L120.302 243.307L128.161 244.792L118.328 296.87L110.469 295.385Z" fill="white"/>
</mask>
<g mask="url(#mask31_47_13831)">
<mask id="mask32_47_13831" style="mask-type:luminance" maskUnits="userSpaceOnUse" x="110" y="243" width="19" height="54">
<path d="M110.469 295.385L120.302 243.307L128.161 244.792L118.328 296.87L110.469 295.385Z" fill="white"/>
</mask>
<g mask="url(#mask32_47_13831)">
<path d="M115.49 279.073L113.047 292.01C112.948 292.526 113.286 293.021 113.802 293.12C114.323 293.219 114.818 292.88 114.917 292.359L115.62 288.63H115.609L117.344 279.432C117.443 278.911 117.109 278.417 116.589 278.323C116.068 278.224 115.583 278.562 115.49 279.073Z" fill="#FCD590"/>
</g>
</g>
</g>
<mask id="mask33_47_13831" style="mask-type:luminance" maskUnits="userSpaceOnUse" x="96" y="251" width="42" height="42">
<path d="M96.3334 251.333H137.667V292.667H96.3334V251.333Z" fill="white"/>
</mask>
<g mask="url(#mask33_47_13831)">
<mask id="mask34_47_13831" style="mask-type:luminance" maskUnits="userSpaceOnUse" x="94" y="250" width="45" height="44">
<path d="M132.599 293.104L94.9584 255.797L100.589 250.115L138.234 287.427L132.599 293.104Z" fill="white"/>
</mask>
<g mask="url(#mask34_47_13831)">
<mask id="mask35_47_13831" style="mask-type:luminance" maskUnits="userSpaceOnUse" x="94" y="250" width="45" height="44">
<path d="M132.599 293.104L94.9584 255.797L100.589 250.115L138.234 287.427L132.599 293.104Z" fill="white"/>
</mask>
<g mask="url(#mask35_47_13831)">
<path d="M97.7553 258.547L100.448 261.219L100.458 261.214L127.224 287.745L127.219 287.75L129.917 290.422C131.401 291.896 133.807 291.885 135.281 290.401C136.755 288.911 136.745 286.505 135.26 285.031L103.099 253.156C101.615 251.682 99.2136 251.682 97.7396 253.172C96.2657 254.656 96.2657 257.073 97.7553 258.547Z" fill="#FCD590"/>
</g>
</g>
</g>
<mask id="mask36_47_13831" style="mask-type:luminance" maskUnits="userSpaceOnUse" x="120" y="278" width="14" height="12">
<path d="M120.333 278H133.667V290H120.333V278Z" fill="white"/>
</mask>
<g mask="url(#mask36_47_13831)">
<mask id="mask37_47_13831" style="mask-type:luminance" maskUnits="userSpaceOnUse" x="94" y="250" width="45" height="44">
<path d="M132.599 293.104L94.9584 255.797L100.589 250.115L138.234 287.427L132.599 293.104Z" fill="white"/>
</mask>
<g mask="url(#mask37_47_13831)">
<mask id="mask38_47_13831" style="mask-type:luminance" maskUnits="userSpaceOnUse" x="94" y="250" width="45" height="44">
<path d="M132.599 293.104L94.9584 255.797L100.589 250.115L138.234 287.427L132.599 293.104Z" fill="white"/>
</mask>
<g mask="url(#mask38_47_13831)">
<path d="M121.896 279.813L131.245 289.078C131.625 289.453 132.219 289.448 132.594 289.073C132.964 288.698 132.964 288.099 132.589 287.729L129.891 285.057L129.886 285.063L123.234 278.474C122.859 278.104 122.261 278.104 121.891 278.479C121.521 278.854 121.526 279.448 121.896 279.813Z" fill="#FCD590"/>
</g>
</g>
</g>
<mask id="mask39_47_13831" style="mask-type:luminance" maskUnits="userSpaceOnUse" x="261" y="295" width="54" height="17">
<path d="M261.667 295.333H315V311.333H261.667V295.333Z" fill="white"/>
</mask>
<g mask="url(#mask39_47_13831)">
<mask id="mask40_47_13831" style="mask-type:luminance" maskUnits="userSpaceOnUse" x="261" y="294" width="54" height="17">
<path d="M262.37 294.797L314.719 303.083L313.469 310.984L261.12 302.698L262.37 294.797Z" fill="white"/>
</mask>
<g mask="url(#mask40_47_13831)">
<mask id="mask41_47_13831" style="mask-type:luminance" maskUnits="userSpaceOnUse" x="261" y="294" width="54" height="17">
<path d="M314.599 303.062L262.25 294.776L261 302.677L313.344 310.963L314.599 303.062Z" fill="white"/>
</mask>
<g mask="url(#mask41_47_13831)">
<path d="M266.12 295.401L269.87 295.995V296.005L307.094 301.901V301.891L310.844 302.484C312.911 302.812 314.328 304.76 314 306.828C313.672 308.896 311.724 310.307 309.656 309.984L264.932 302.901C262.865 302.573 261.448 300.635 261.776 298.568C262.104 296.5 264.052 295.073 266.12 295.401Z" fill="#FCD590"/>
</g>
</g>
</g>
<mask id="mask42_47_13831" style="mask-type:luminance" maskUnits="userSpaceOnUse" x="296" y="302" width="17" height="6">
<path d="M296.333 302H312.333V307.333H296.333V302Z" fill="white"/>
</mask>
<g mask="url(#mask42_47_13831)">
<mask id="mask43_47_13831" style="mask-type:luminance" maskUnits="userSpaceOnUse" x="261" y="294" width="54" height="17">
<path d="M262.37 294.797L314.719 303.083L313.469 310.984L261.12 302.698L262.37 294.797Z" fill="white"/>
</mask>
<g mask="url(#mask43_47_13831)">
<mask id="mask44_47_13831" style="mask-type:luminance" maskUnits="userSpaceOnUse" x="261" y="294" width="54" height="17">
<path d="M314.599 303.062L262.25 294.776L261 302.677L313.344 310.963L314.599 303.062Z" fill="white"/>
</mask>
<g mask="url(#mask44_47_13831)">
<path d="M297.547 302.291L310.547 304.354C311.073 304.437 311.422 304.916 311.339 305.442C311.255 305.963 310.771 306.317 310.25 306.234L306.5 305.64L306.505 305.63L297.26 304.166C296.734 304.083 296.385 303.599 296.469 303.078C296.552 302.552 297.031 302.213 297.547 302.291Z" fill="#FCD590"/>
</g>
</g>
</g>
<mask id="mask45_47_13831" style="mask-type:luminance" maskUnits="userSpaceOnUse" x="265" y="279" width="41" height="42">
<path d="M265.667 279.333H305.667V320.667H265.667V279.333Z" fill="white"/>
</mask>
<g mask="url(#mask45_47_13831)">
<mask id="mask46_47_13831" style="mask-type:luminance" maskUnits="userSpaceOnUse" x="265" y="278" width="43" height="45">
<path d="M265.307 316.854L301.484 278.12L307.328 283.584L271.151 322.313L265.307 316.854Z" fill="white"/>
</mask>
<g mask="url(#mask46_47_13831)">
<mask id="mask47_47_13831" style="mask-type:luminance" maskUnits="userSpaceOnUse" x="265" y="278" width="43" height="45">
<path d="M301.401 278.214L265.219 316.943L271.068 322.407L307.245 283.677L301.401 278.214Z" fill="white"/>
</mask>
<g mask="url(#mask47_47_13831)">
<path d="M267.906 314.089L270.5 311.313L270.505 311.318L296.234 283.776L296.224 283.771L298.818 280.995C300.245 279.469 302.651 279.386 304.182 280.813C305.714 282.245 305.797 284.651 304.365 286.183L273.453 319.271C272.026 320.803 269.625 320.891 268.099 319.459C266.568 318.032 266.479 315.62 267.906 314.089Z" fill="#FCD590"/>
</g>
</g>
</g>
<mask id="mask48_47_13831" style="mask-type:luminance" maskUnits="userSpaceOnUse" x="289" y="280" width="14" height="14">
<path d="M289.667 280.667H303V294H289.667V280.667Z" fill="white"/>
</mask>
<g mask="url(#mask48_47_13831)">
<mask id="mask49_47_13831" style="mask-type:luminance" maskUnits="userSpaceOnUse" x="265" y="278" width="43" height="45">
<path d="M265.307 316.854L301.484 278.12L307.328 283.583L271.151 322.312L265.307 316.854Z" fill="white"/>
</mask>
<g mask="url(#mask49_47_13831)">
<mask id="mask50_47_13831" style="mask-type:luminance" maskUnits="userSpaceOnUse" x="265" y="278" width="43" height="45">
<path d="M301.401 278.213L265.219 316.943L271.068 322.406L307.245 283.677L301.401 278.213Z" fill="white"/>
</mask>
<g mask="url(#mask50_47_13831)">
<path d="M291.214 291.911L300.203 282.292C300.563 281.901 301.161 281.88 301.547 282.245C301.932 282.604 301.953 283.203 301.594 283.588L299 286.365L298.995 286.354L292.604 293.193C292.245 293.583 291.646 293.599 291.26 293.24C290.87 292.88 290.859 292.286 291.214 291.911Z" fill="#FCD590"/>
</g>
</g>
</g>
<mask id="mask51_47_13831" style="mask-type:luminance" maskUnits="userSpaceOnUse" x="126" y="117" width="178" height="178">
<path d="M126.677 117.698H303.677V294.698H126.677V117.698Z" fill="white"/>
</mask>
<g mask="url(#mask51_47_13831)">
<path d="M303.318 206.021C303.318 207.463 303.281 208.906 303.214 210.354C303.141 211.797 303.036 213.234 302.896 214.677C302.75 216.114 302.573 217.547 302.365 218.979C302.151 220.406 301.906 221.833 301.62 223.25C301.339 224.667 301.021 226.078 300.672 227.479C300.323 228.88 299.938 230.271 299.516 231.656C299.094 233.042 298.641 234.411 298.156 235.771C297.667 237.135 297.151 238.479 296.594 239.818C296.042 241.151 295.458 242.474 294.839 243.781C294.219 245.088 293.573 246.375 292.891 247.651C292.208 248.927 291.495 250.182 290.755 251.422C290.01 252.661 289.24 253.885 288.432 255.088C287.63 256.286 286.797 257.469 285.938 258.63C285.078 259.792 284.188 260.932 283.271 262.047C282.354 263.167 281.411 264.26 280.438 265.328C279.469 266.401 278.474 267.448 277.448 268.469C276.427 269.495 275.38 270.489 274.313 271.458C273.24 272.432 272.146 273.375 271.026 274.292C269.911 275.208 268.771 276.099 267.609 276.958C266.448 277.818 265.271 278.651 264.068 279.453C262.865 280.255 261.646 281.031 260.406 281.771C259.167 282.515 257.906 283.229 256.63 283.911C255.359 284.594 254.068 285.239 252.76 285.859C251.453 286.479 250.13 287.062 248.797 287.614C247.464 288.167 246.115 288.687 244.755 289.177C243.391 289.661 242.021 290.114 240.635 290.536C239.255 290.953 237.859 291.338 236.458 291.693C235.057 292.042 233.646 292.359 232.229 292.64C230.813 292.922 229.385 293.172 227.958 293.38C226.526 293.594 225.094 293.771 223.656 293.911C222.219 294.057 220.776 294.161 219.333 294.234C217.891 294.302 216.443 294.338 215 294.338C213.552 294.338 212.109 294.302 210.667 294.234C209.219 294.161 207.781 294.057 206.344 293.911C204.901 293.771 203.469 293.594 202.042 293.38C200.609 293.172 199.188 292.922 197.766 292.64C196.349 292.359 194.943 292.042 193.536 291.693C192.135 291.338 190.745 290.953 189.359 290.536C187.979 290.114 186.604 289.661 185.245 289.177C183.885 288.687 182.536 288.167 181.198 287.614C179.865 287.062 178.542 286.479 177.234 285.859C175.932 285.239 174.641 284.594 173.365 283.911C172.089 283.229 170.833 282.515 169.594 281.771C168.354 281.031 167.13 280.255 165.932 279.453C164.729 278.651 163.547 277.818 162.385 276.958C161.224 276.099 160.089 275.208 158.969 274.292C157.849 273.375 156.755 272.432 155.688 271.458C154.615 270.489 153.568 269.495 152.547 268.469C151.526 267.448 150.526 266.401 149.557 265.328C148.589 264.26 147.641 263.167 146.724 262.047C145.807 260.932 144.922 259.792 144.057 258.63C143.198 257.469 142.365 256.286 141.563 255.088C140.76 253.885 139.984 252.661 139.245 251.422C138.5 250.182 137.786 248.927 137.109 247.651C136.427 246.375 135.776 245.088 135.156 243.781C134.542 242.474 133.953 241.151 133.401 239.818C132.849 238.479 132.328 237.135 131.844 235.771C131.354 234.411 130.901 233.042 130.479 231.656C130.063 230.271 129.677 228.88 129.323 227.479C128.974 226.078 128.656 224.667 128.375 223.25C128.094 221.833 127.844 220.406 127.635 218.979C127.422 217.547 127.245 216.114 127.104 214.677C126.964 213.234 126.854 211.797 126.786 210.354C126.714 208.906 126.677 207.463 126.677 206.021C126.677 204.573 126.714 203.13 126.786 201.682C126.854 200.239 126.964 198.802 127.104 197.359C127.245 195.922 127.422 194.489 127.635 193.057C127.844 191.63 128.094 190.203 128.375 188.786C128.656 187.37 128.974 185.958 129.323 184.557C129.677 183.156 130.063 181.765 130.479 180.38C130.901 178.995 131.354 177.625 131.844 176.265C132.328 174.901 132.849 173.557 133.401 172.219C133.953 170.885 134.542 169.562 135.156 168.255C135.776 166.948 136.427 165.661 137.109 164.385C137.786 163.109 138.5 161.854 139.245 160.614C139.984 159.375 140.76 158.151 141.563 156.948C142.365 155.75 143.198 154.568 144.057 153.406C144.922 152.245 145.807 151.104 146.724 149.989C147.641 148.87 148.589 147.776 149.557 146.708C150.526 145.635 151.526 144.588 152.547 143.568C153.568 142.547 154.615 141.547 155.688 140.578C156.755 139.604 157.849 138.661 158.969 137.745C160.089 136.828 161.224 135.937 162.385 135.078C163.547 134.219 164.729 133.385 165.932 132.583C167.13 131.781 168.354 131.005 169.594 130.265C170.833 129.521 172.089 128.807 173.365 128.125C174.641 127.448 175.932 126.797 177.234 126.177C178.542 125.557 179.865 124.974 181.198 124.422C182.536 123.87 183.885 123.349 185.245 122.859C186.604 122.375 187.979 121.922 189.359 121.5C190.745 121.083 192.135 120.698 193.536 120.344C194.943 119.995 196.349 119.677 197.766 119.396C199.188 119.114 200.609 118.864 202.042 118.656C203.469 118.443 204.901 118.265 206.344 118.125C207.781 117.979 209.219 117.875 210.667 117.802C212.109 117.734 213.552 117.698 215 117.698C216.443 117.698 217.891 117.734 219.333 117.802C220.776 117.875 222.219 117.979 223.656 118.125C225.094 118.265 226.526 118.443 227.958 118.656C229.385 118.864 230.813 119.114 232.229 119.396C233.646 119.677 235.057 119.995 236.458 120.344C237.859 120.698 239.255 121.083 240.635 121.5C242.021 121.922 243.391 122.375 244.755 122.859C246.115 123.349 247.464 123.87 248.797 124.422C250.13 124.974 251.453 125.557 252.76 126.177C254.068 126.797 255.359 127.448 256.63 128.125C257.906 128.807 259.167 129.521 260.406 130.265C261.646 131.005 262.865 131.781 264.068 132.583C265.271 133.385 266.448 134.219 267.609 135.078C268.771 135.937 269.911 136.828 271.026 137.745C272.146 138.661 273.24 139.604 274.313 140.578C275.38 141.547 276.427 142.547 277.448 143.568C278.474 144.588 279.469 145.635 280.438 146.708C281.411 147.776 282.354 148.87 283.271 149.989C284.188 151.104 285.078 152.245 285.938 153.406C286.797 154.568 287.63 155.75 288.432 156.948C289.24 158.151 290.01 159.375 290.755 160.614C291.495 161.854 292.208 163.109 292.891 164.385C293.573 165.661 294.219 166.948 294.839 168.255C295.458 169.562 296.042 170.885 296.594 172.219C297.151 173.557 297.667 174.901 298.156 176.265C298.641 177.625 299.094 178.995 299.516 180.38C299.938 181.765 300.323 183.156 300.672 184.557C301.021 185.958 301.339 187.37 301.62 188.786C301.906 190.203 302.151 191.63 302.365 193.057C302.573 194.489 302.75 195.922 302.896 197.359C303.036 198.802 303.141 200.239 303.214 201.682C303.281 203.13 303.318 204.573 303.318 206.021Z" fill="#442F19"/>
</g>
<mask id="mask52_47_13831" style="mask-type:luminance" maskUnits="userSpaceOnUse" x="126" y="58" width="178" height="178">
<path d="M126.677 58.1353H303.677V235.135H126.677V58.1353Z" fill="white"/>
</mask>
<g mask="url(#mask52_47_13831)">
<path d="M303.318 146.458C303.318 147.901 303.281 149.349 303.214 150.792C303.141 152.234 303.036 153.677 302.896 155.114C302.75 156.552 302.573 157.989 302.365 159.417C302.151 160.849 301.906 162.271 301.62 163.687C301.339 165.104 301.021 166.515 300.672 167.917C300.323 169.318 299.938 170.713 299.516 172.094C299.094 173.479 298.641 174.849 298.156 176.213C297.667 177.573 297.151 178.922 296.594 180.255C296.042 181.594 295.458 182.911 294.839 184.219C294.219 185.526 293.573 186.818 292.891 188.094C292.208 189.364 291.495 190.625 290.755 191.864C290.01 193.104 289.24 194.323 288.432 195.526C287.63 196.729 286.797 197.911 285.938 199.068C285.078 200.229 284.188 201.37 283.271 202.489C282.354 203.604 281.411 204.698 280.438 205.771C279.469 206.844 278.474 207.885 277.448 208.911C276.427 209.932 275.38 210.927 274.313 211.901C273.24 212.87 272.146 213.812 271.026 214.729C269.911 215.646 268.771 216.536 267.609 217.396C266.448 218.26 265.271 219.088 264.068 219.896C262.865 220.698 261.646 221.469 260.406 222.213C259.167 222.958 257.906 223.667 256.63 224.349C255.359 225.031 254.068 225.682 252.76 226.297C251.453 226.917 250.13 227.5 248.797 228.057C247.464 228.609 246.115 229.13 244.755 229.614C243.391 230.104 242.021 230.557 240.635 230.974C239.255 231.396 237.859 231.781 236.458 232.13C235.057 232.484 233.646 232.797 232.229 233.083C230.813 233.364 229.385 233.609 227.958 233.823C226.526 234.036 225.094 234.213 223.656 234.354C222.219 234.495 220.776 234.599 219.333 234.672C217.891 234.745 216.443 234.776 215 234.776C213.552 234.776 212.109 234.745 210.667 234.672C209.219 234.599 207.781 234.495 206.344 234.354C204.901 234.213 203.469 234.036 202.042 233.823C200.609 233.609 199.188 233.364 197.766 233.083C196.349 232.797 194.943 232.484 193.536 232.13C192.135 231.781 190.745 231.396 189.359 230.974C187.979 230.557 186.604 230.104 185.245 229.614C183.885 229.13 182.536 228.609 181.198 228.057C179.865 227.5 178.542 226.917 177.234 226.297C175.932 225.682 174.641 225.031 173.365 224.349C172.089 223.667 170.833 222.958 169.594 222.213C168.354 221.469 167.13 220.698 165.932 219.896C164.729 219.088 163.547 218.26 162.385 217.396C161.224 216.536 160.089 215.646 158.969 214.729C157.849 213.812 156.755 212.87 155.688 211.901C154.615 210.927 153.568 209.932 152.547 208.911C151.526 207.885 150.526 206.844 149.557 205.771C148.589 204.698 147.641 203.604 146.724 202.489C145.807 201.37 144.922 200.229 144.057 199.068C143.198 197.911 142.365 196.729 141.563 195.526C140.76 194.323 139.984 193.104 139.245 191.864C138.5 190.625 137.786 189.364 137.109 188.094C136.427 186.818 135.776 185.526 135.156 184.219C134.542 182.911 133.953 181.594 133.401 180.255C132.849 178.922 132.328 177.573 131.844 176.213C131.354 174.849 130.901 173.479 130.479 172.094C130.063 170.713 129.677 169.318 129.323 167.917C128.974 166.515 128.656 165.104 128.375 163.687C128.094 162.271 127.844 160.849 127.635 159.417C127.422 157.989 127.245 156.552 127.104 155.114C126.964 153.677 126.854 152.234 126.786 150.792C126.714 149.349 126.677 147.901 126.677 146.458C126.677 145.01 126.714 143.568 126.786 142.125C126.854 140.682 126.964 139.239 127.104 137.802C127.245 136.364 127.422 134.927 127.635 133.5C127.844 132.068 128.094 130.646 128.375 129.229C128.656 127.807 128.974 126.401 129.323 125C129.677 123.594 130.063 122.203 130.479 120.818C130.901 119.437 131.354 118.062 131.844 116.703C132.328 115.344 132.849 113.995 133.401 112.661C133.953 111.323 134.542 110.005 135.156 108.698C135.776 107.39 136.427 106.099 137.109 104.823C137.786 103.547 138.5 102.292 139.245 101.052C139.984 99.8123 140.76 98.5936 141.563 97.3905C142.365 96.1873 143.198 95.005 144.057 93.8436C144.922 92.6821 145.807 91.5467 146.724 90.4269C147.641 89.3123 148.589 88.2186 149.557 87.1457C150.526 86.0728 151.526 85.0259 152.547 84.005C153.568 82.9842 154.615 81.9894 155.688 81.0155C156.755 80.0467 157.849 79.104 158.969 78.1873C160.089 77.2707 161.224 76.38 162.385 75.5207C163.547 74.6561 164.729 73.8228 165.932 73.0207C167.13 72.2186 168.354 71.4478 169.594 70.703C170.833 69.9582 172.089 69.2498 173.365 68.5675C174.641 67.8853 175.932 67.2342 177.234 66.6196C178.542 65.9998 179.865 65.4113 181.198 64.8592C182.536 64.3071 183.885 63.7863 185.245 63.3019C186.604 62.8123 187.979 62.3592 189.359 61.9425C190.745 61.5207 192.135 61.1353 193.536 60.7863C194.943 60.4321 196.349 60.1144 197.766 59.8332C199.188 59.5519 200.609 59.3071 202.042 59.0936C203.469 58.88 204.901 58.703 206.344 58.5623C207.781 58.4217 209.219 58.3123 210.667 58.2446C212.109 58.1717 213.552 58.1353 215 58.1353C216.443 58.1353 217.891 58.1717 219.333 58.2446C220.776 58.3123 222.219 58.4217 223.656 58.5623C225.094 58.703 226.526 58.88 227.958 59.0936C229.385 59.3071 230.813 59.5519 232.229 59.8332C233.646 60.1144 235.057 60.4321 236.458 60.7863C237.859 61.1353 239.255 61.5207 240.635 61.9425C242.021 62.3592 243.391 62.8123 244.755 63.3019C246.115 63.7863 247.464 64.3071 248.797 64.8592C250.13 65.4113 251.453 65.9998 252.76 66.6196C254.068 67.2342 255.359 67.8853 256.63 68.5675C257.906 69.2498 259.167 69.9582 260.406 70.703C261.646 71.4478 262.865 72.2186 264.068 73.0207C265.271 73.8228 266.448 74.6561 267.609 75.5207C268.771 76.38 269.911 77.2707 271.026 78.1873C272.146 79.104 273.24 80.0467 274.313 81.0155C275.38 81.9894 276.427 82.9842 277.448 84.005C278.474 85.0259 279.469 86.0728 280.438 87.1457C281.411 88.2186 282.354 89.3123 283.271 90.4269C284.188 91.5467 285.078 92.6821 285.938 93.8436C286.797 95.005 287.63 96.1873 288.432 97.3905C289.24 98.5936 290.01 99.8123 290.755 101.052C291.495 102.292 292.208 103.547 292.891 104.823C293.573 106.099 294.219 107.39 294.839 108.698C295.458 110.005 296.042 111.323 296.594 112.661C297.151 113.995 297.667 115.344 298.156 116.703C298.641 118.062 299.094 119.437 299.516 120.818C299.938 122.203 300.323 123.594 300.672 125C301.021 126.401 301.339 127.807 301.62 129.229C301.906 130.646 302.151 132.068 302.365 133.5C302.573 134.927 302.75 136.364 302.896 137.802C303.036 139.239 303.141 140.682 303.214 142.125C303.281 143.568 303.318 145.01 303.318 146.458Z" fill="#EDE0D2"/>
</g>
<mask id="mask53_47_13831" style="mask-type:luminance" maskUnits="userSpaceOnUse" x="226" y="102" width="64" height="64">
<path d="M226.312 102.604H289.005V165.302H226.312V102.604Z" fill="white"/>
</mask>
<g mask="url(#mask53_47_13831)">
<mask id="mask54_47_13831" style="mask-type:luminance" maskUnits="userSpaceOnUse" x="226" y="102" width="64" height="64">
<path d="M257.661 102.604C240.349 102.604 226.312 116.64 226.312 133.953C226.312 151.265 240.349 165.302 257.661 165.302C274.974 165.302 289.005 151.265 289.005 133.953C289.005 116.64 274.974 102.604 257.661 102.604Z" fill="white"/>
</mask>
<g mask="url(#mask54_47_13831)">
<path d="M226.312 102.604H289.005V165.302H226.312V102.604Z" fill="white"/>
</g>
</g>
<mask id="mask55_47_13831" style="mask-type:luminance" maskUnits="userSpaceOnUse" x="141" y="102" width="64" height="64">
<path d="M141.552 102.604H204.25V165.302H141.552V102.604Z" fill="white"/>
</mask>
<g mask="url(#mask55_47_13831)">
<mask id="mask56_47_13831" style="mask-type:luminance" maskUnits="userSpaceOnUse" x="141" y="102" width="64" height="64">
<path d="M172.901 102.604C155.589 102.604 141.552 116.64 141.552 133.953C141.552 151.265 155.589 165.302 172.901 165.302C190.214 165.302 204.25 151.265 204.25 133.953C204.25 116.64 190.214 102.604 172.901 102.604Z" fill="white"/>
</mask>
<g mask="url(#mask56_47_13831)">
<path d="M141.552 102.604H204.25V165.302H141.552V102.604Z" fill="white"/>
</g>
</g>
<mask id="mask57_47_13831" style="mask-type:luminance" maskUnits="userSpaceOnUse" x="232" y="108" width="40" height="40">
<path d="M232.672 108.516H271.432V147.281H232.672V108.516Z" fill="white"/>
</mask>
<g mask="url(#mask57_47_13831)">
<mask id="mask58_47_13831" style="mask-type:luminance" maskUnits="userSpaceOnUse" x="232" y="108" width="40" height="40">
<path d="M252.052 108.516C241.349 108.516 232.672 117.193 232.672 127.901C232.672 138.604 241.349 147.281 252.052 147.281C262.755 147.281 271.432 138.604 271.432 127.901C271.432 117.193 262.755 108.516 252.052 108.516Z" fill="white"/>
</mask>
<g mask="url(#mask58_47_13831)">
<path d="M232.672 108.516H271.432V147.281H232.672V108.516Z" fill="black"/>
</g>
</g>
<mask id="mask59_47_13831" style="mask-type:luminance" maskUnits="userSpaceOnUse" x="147" y="107" width="40" height="40">
<path d="M147.344 107.698H186.104V146.463H147.344V107.698Z" fill="white"/>
</mask>
<g mask="url(#mask59_47_13831)">
<mask id="mask60_47_13831" style="mask-type:luminance" maskUnits="userSpaceOnUse" x="147" y="107" width="40" height="40">
<path d="M166.724 107.698C156.021 107.698 147.344 116.375 147.344 127.078C147.344 137.786 156.021 146.463 166.724 146.463C177.427 146.463 186.104 137.786 186.104 127.078C186.104 116.375 177.427 107.698 166.724 107.698Z" fill="white"/>
</mask>
<g mask="url(#mask60_47_13831)">
<path d="M147.344 107.698H186.104V146.463H147.344V107.698Z" fill="black"/>
</g>
</g>
<mask id="mask61_47_13831" style="mask-type:luminance" maskUnits="userSpaceOnUse" x="164" y="108" width="20" height="20">
<path d="M164.641 108.516H183.203V127.078H164.641V108.516Z" fill="white"/>
</mask>
<g mask="url(#mask61_47_13831)">
<mask id="mask62_47_13831" style="mask-type:luminance" maskUnits="userSpaceOnUse" x="164" y="108" width="20" height="20">
<path d="M173.922 108.516C168.797 108.516 164.641 112.672 164.641 117.797C164.641 122.927 168.797 127.078 173.922 127.078C179.047 127.078 183.203 122.927 183.203 117.797C183.203 112.672 179.047 108.516 173.922 108.516Z" fill="white"/>
</mask>
<g mask="url(#mask62_47_13831)">
<path d="M164.641 108.516H183.203V127.078H164.641V108.516Z" fill="white"/>
</g>
</g>
<mask id="mask63_47_13831" style="mask-type:luminance" maskUnits="userSpaceOnUse" x="249" y="108" width="20" height="20">
<path d="M249.958 108.995H268.521V127.557H249.958V108.995Z" fill="white"/>
</mask>
<g mask="url(#mask63_47_13831)">
<mask id="mask64_47_13831" style="mask-type:luminance" maskUnits="userSpaceOnUse" x="249" y="108" width="20" height="20">
<path d="M259.24 108.995C254.115 108.995 249.958 113.151 249.958 118.276C249.958 123.406 254.115 127.557 259.24 127.557C264.37 127.557 268.521 123.406 268.521 118.276C268.521 113.151 264.37 108.995 259.24 108.995Z" fill="white"/>
</mask>
<g mask="url(#mask64_47_13831)">
<path d="M249.958 108.995H268.521V127.557H249.958V108.995Z" fill="white"/>
</g>
</g>
<mask id="mask65_47_13831" style="mask-type:luminance" maskUnits="userSpaceOnUse" x="182" y="238" width="66" height="25">
<path d="M182.302 238.787H247.302V262.787H182.302V238.787Z" fill="white"/>
</mask>
<g mask="url(#mask65_47_13831)">
<path d="M240.089 252.037C231.224 249.641 224.589 251.662 220.234 254.235C226.188 248.177 235.271 246.188 238.182 245.693L240.089 252.037ZM229.609 238.818L232.109 244.792C227.396 246.255 221.24 249.094 217.073 254.333C219.708 245.167 226.922 240.333 229.609 238.818ZM200.349 238.818C203.036 240.333 210.25 245.146 212.885 254.349C208.719 249.11 202.563 246.271 197.849 244.807L200.349 238.818ZM191.776 245.693C194.682 246.188 203.771 248.177 209.724 254.235C205.37 251.662 198.734 249.641 189.87 252.037L191.776 245.693ZM218.807 263.11H211.151C209.469 260.932 202.188 253.943 182.302 262.229L184.021 256.667C203.854 247.037 213.651 260.255 214.063 260.833C214.078 260.849 214.094 260.849 214.109 260.865C214.13 260.901 214.146 260.932 214.177 260.953C214.198 260.969 214.198 260.969 214.198 260.985C214.229 261.021 214.266 261.037 214.318 261.052C214.349 261.073 214.385 261.104 214.417 261.12C214.453 261.141 214.484 261.172 214.536 261.188C214.552 261.188 214.573 261.208 214.573 261.208C214.641 261.24 214.724 261.24 214.807 261.255C214.859 261.255 214.896 261.292 214.943 261.292C214.964 261.292 214.979 261.292 214.995 261.292C215.01 261.292 215.031 261.292 215.047 261.292C215.099 261.292 215.13 261.276 215.182 261.255C215.266 261.24 215.339 261.24 215.422 261.208C215.438 261.208 215.453 261.188 215.453 261.188C215.505 261.172 215.542 261.141 215.573 261.12C215.609 261.104 215.641 261.089 215.677 261.052C215.708 261.021 215.76 261 215.797 260.985C215.813 260.969 215.813 260.969 215.813 260.953C215.849 260.917 215.865 260.901 215.88 260.865C215.896 260.849 215.917 260.849 215.932 260.833C216.339 260.255 226.141 247.037 245.974 256.667L247.693 262.229C227.787 253.943 220.49 260.953 218.807 263.11Z" fill="#EDE0D2"/>
</g>
<mask id="mask66_47_13831" style="mask-type:luminance" maskUnits="userSpaceOnUse" x="243" y="216" width="110" height="93">
<path d="M243 216.667H352.333V308.667H243V216.667Z" fill="white"/>
</mask>
<g mask="url(#mask66_47_13831)">
<mask id="mask67_47_13831" style="mask-type:luminance" maskUnits="userSpaceOnUse" x="235" y="208" width="126" height="109">
<path d="M235.505 283.614L335.474 208.573L360.089 241.364L260.12 316.406L235.505 283.614Z" fill="white"/>
</mask>
<g mask="url(#mask67_47_13831)">
<mask id="mask68_47_13831" style="mask-type:luminance" maskUnits="userSpaceOnUse" x="235" y="208" width="126" height="109">
<path d="M335.51 208.547L235.547 283.589L260.156 316.375L360.125 241.333L335.51 208.547Z" fill="white"/>
</mask>
<g mask="url(#mask68_47_13831)">
<path d="M276.49 303.989L343.635 253.588C352.62 246.843 354.437 234.088 347.693 225.104C340.948 216.119 328.193 214.302 319.208 221.047L252.062 271.448C243.078 278.192 241.26 290.948 248.005 299.932C254.75 308.916 267.505 310.734 276.49 303.989Z" fill="#604428"/>
<path d="M276.609 304.151L343.755 253.745C352.818 246.943 354.656 234.047 347.854 224.984C341.047 215.917 328.156 214.083 319.089 220.885L251.943 271.292C242.88 278.094 241.042 290.989 247.849 300.052C254.651 309.12 267.547 310.953 276.609 304.151ZM319.328 221.203C328.219 214.531 340.865 216.333 347.536 225.224C354.208 234.109 352.406 246.755 343.516 253.427L276.37 303.833C267.479 310.505 254.839 308.703 248.161 299.812C241.49 290.927 243.292 278.281 252.182 271.609L319.328 221.203Z" fill="#604428"/>
</g>
</g>
</g>
<mask id="mask69_47_13831" style="mask-type:luminance" maskUnits="userSpaceOnUse" x="224" y="171" width="131" height="110">
<path d="M224.333 171.333H355V280.667H224.333V171.333Z" fill="white"/>
</mask>
<g mask="url(#mask69_47_13831)">
<mask id="mask70_47_13831" style="mask-type:luminance" maskUnits="userSpaceOnUse" x="215" y="161" width="150" height="129">
<path d="M215.552 250.677L334.714 161.224L364.13 200.412L244.969 289.865L215.552 250.677Z" fill="white"/>
</mask>
<g mask="url(#mask70_47_13831)">
<mask id="mask71_47_13831" style="mask-type:luminance" maskUnits="userSpaceOnUse" x="215" y="161" width="149" height="130">
<path d="M334.401 161.458L215.24 250.912L244.656 290.099L363.818 200.651L334.401 161.458Z" fill="white"/>
</mask>
<g mask="url(#mask71_47_13831)">
<path d="M264.255 274.886L344.052 214.985C354.729 206.969 356.891 191.813 348.875 181.136C340.859 170.459 325.698 168.297 315.021 176.313L235.224 236.214C224.547 244.229 222.385 259.391 230.401 270.068C238.417 280.745 253.573 282.901 264.255 274.886Z" fill="#604428"/>
</g>
</g>
</g>
<mask id="mask72_47_13831" style="mask-type:luminance" maskUnits="userSpaceOnUse" x="224" y="170" width="131" height="111">
<path d="M224.333 170H355V280.667H224.333V170Z" fill="white"/>
</mask>
<g mask="url(#mask72_47_13831)">
<mask id="mask73_47_13831" style="mask-type:luminance" maskUnits="userSpaceOnUse" x="215" y="161" width="150" height="129">
<path d="M215.552 250.677L334.714 161.224L364.13 200.412L244.969 289.865L215.552 250.677Z" fill="white"/>
</mask>
<g mask="url(#mask73_47_13831)">
<mask id="mask74_47_13831" style="mask-type:luminance" maskUnits="userSpaceOnUse" x="215" y="161" width="149" height="130">
<path d="M334.401 161.458L215.24 250.912L244.656 290.099L363.818 200.651L334.401 161.458Z" fill="white"/>
</mask>
<g mask="url(#mask74_47_13831)">
<path d="M264.396 275.078L344.193 215.172C354.964 207.089 357.151 191.766 349.063 180.99C340.974 170.219 325.651 168.037 314.88 176.125L235.083 236.026C224.307 244.11 222.125 259.438 230.214 270.209C238.297 280.979 253.625 283.162 264.396 275.078ZM315.162 176.5C325.729 168.573 340.755 170.709 348.688 181.276C356.615 191.839 354.474 206.865 343.912 214.797L264.109 274.698C253.547 282.63 238.521 280.49 230.589 269.922C222.662 259.36 224.802 244.334 235.365 236.401L315.162 176.5Z" fill="#604428"/>
</g>
</g>
</g>
<mask id="mask75_47_13831" style="mask-type:luminance" maskUnits="userSpaceOnUse" x="229" y="127" width="130" height="110">
<path d="M229.667 127.333H359V236.667H229.667V127.333Z" fill="white"/>
</mask>
<g mask="url(#mask75_47_13831)">
<mask id="mask76_47_13831" style="mask-type:luminance" maskUnits="userSpaceOnUse" x="220" y="118" width="150" height="129">
<path d="M220.823 207.495L339.984 118.042L369.401 157.229L250.24 246.683L220.823 207.495Z" fill="white"/>
</mask>
<g mask="url(#mask76_47_13831)">
<mask id="mask77_47_13831" style="mask-type:luminance" maskUnits="userSpaceOnUse" x="220" y="118" width="150" height="129">
<path d="M339.672 118.276L220.51 207.729L249.927 246.917L369.089 157.464L339.672 118.276Z" fill="white"/>
</mask>
<g mask="url(#mask77_47_13831)">
<path d="M269.521 231.704L349.323 171.803C360 163.787 362.161 148.631 354.146 137.954C346.13 127.271 330.969 125.115 320.292 133.131L240.495 193.032C229.812 201.047 227.656 216.204 235.672 226.881C243.687 237.563 258.844 239.719 269.521 231.704Z" fill="#604428"/>
</g>
</g>
</g>
<mask id="mask78_47_13831" style="mask-type:luminance" maskUnits="userSpaceOnUse" x="229" y="127" width="132" height="111">
<path d="M229.667 127.333H360.333V238H229.667V127.333Z" fill="white"/>
</mask>
<g mask="url(#mask78_47_13831)">
<mask id="mask79_47_13831" style="mask-type:luminance" maskUnits="userSpaceOnUse" x="220" y="118" width="150" height="129">
<path d="M220.823 207.495L339.984 118.042L369.401 157.229L250.24 246.683L220.823 207.495Z" fill="white"/>
</mask>
<g mask="url(#mask79_47_13831)">
<mask id="mask80_47_13831" style="mask-type:luminance" maskUnits="userSpaceOnUse" x="220" y="118" width="150" height="129">
<path d="M339.672 118.276L220.51 207.729L249.927 246.917L369.089 157.464L339.672 118.276Z" fill="white"/>
</mask>
<g mask="url(#mask80_47_13831)">
<path d="M269.667 231.891L349.464 171.99C360.234 163.907 362.417 148.584 354.333 137.808C346.245 127.037 330.922 124.855 320.151 132.943L240.349 192.844C229.578 200.927 227.396 216.25 235.484 227.026C243.568 237.797 258.891 239.98 269.667 231.891ZM320.432 133.318C331 125.386 346.026 127.526 353.953 138.094C361.885 148.657 359.745 163.683 349.182 171.615L269.38 231.516C258.818 239.448 243.792 237.308 235.859 226.74C227.927 216.177 230.068 201.151 240.635 193.219L320.432 133.318Z" fill="#604428"/>
</g>
</g>
</g>
<mask id="mask81_47_13831" style="mask-type:luminance" maskUnits="userSpaceOnUse" x="39" y="54" width="54" height="76">
<path d="M39 54H92.3333V130H39V54Z" fill="white"/>
</mask>
<g mask="url(#mask81_47_13831)">
<mask id="mask82_47_13831" style="mask-type:luminance" maskUnits="userSpaceOnUse" x="-11" y="38" width="114" height="125">
<path d="M-10.7031 53.1929L85.1146 38.0991L102.391 147.75L6.57292 162.844L-10.7031 53.1929Z" fill="white"/>
</mask>
<g mask="url(#mask82_47_13831)">
<mask id="mask83_47_13831" style="mask-type:luminance" maskUnits="userSpaceOnUse" x="-11" y="38" width="114" height="125">
<path d="M-10.7031 53.1929L85.1146 38.0991L102.391 147.75L6.57292 162.844L-10.7031 53.1929Z" fill="white"/>
</mask>
<g mask="url(#mask83_47_13831)">
<path d="M50.5104 54.4272L52.3281 101.854C51.7239 101.849 51.1093 101.901 50.4843 102.021C49.2552 102.24 48.0312 102.682 46.8541 103.333C41.8489 106.083 39.1718 111.651 40.7656 116.005C41.9739 119.328 45.4583 121.141 49.4218 120.516C49.5052 120.5 49.5885 120.49 49.6718 120.474C50.9062 120.25 52.1302 119.807 53.3073 119.156C57.3437 116.938 59.9895 112.787 59.901 108.792L58.4583 71.3335L82.5989 79.672L83.776 110.11C83.1875 110.11 82.5729 110.167 81.9843 110.276C80.7552 110.495 79.5364 110.938 78.3541 111.583C73.3541 114.339 70.677 119.901 72.2656 124.261C73.4791 127.583 76.9583 129.396 80.927 128.771C81.0104 128.761 81.0885 128.745 81.177 128.729C82.4062 128.505 83.6302 128.063 84.8125 127.412C88.8385 125.198 91.4687 121.068 91.3541 117.12L89.427 67.0783L50.5104 54.4272Z" fill="#53BCEA"/>
</g>
</g>
</g>
<mask id="mask84_47_13831" style="mask-type:luminance" maskUnits="userSpaceOnUse" x="0" y="84" width="38" height="78">
<path d="M0.333374 84.6665H37.6667V162H0.333374V84.6665Z" fill="white"/>
</mask>
<g mask="url(#mask84_47_13831)">
<mask id="mask85_47_13831" style="mask-type:luminance" maskUnits="userSpaceOnUse" x="-11" y="38" width="114" height="125">
<path d="M-10.7031 53.1924L85.1146 38.0986L102.391 147.75L6.57292 162.843L-10.7031 53.1924Z" fill="white"/>
</mask>
<g mask="url(#mask85_47_13831)">
<mask id="mask86_47_13831" style="mask-type:luminance" maskUnits="userSpaceOnUse" x="-11" y="38" width="114" height="125">
<path d="M-10.7031 53.1924L85.1146 38.0986L102.391 147.75L6.57292 162.843L-10.7031 53.1924Z" fill="white"/>
</mask>
<g mask="url(#mask86_47_13831)">
<path d="M25.0573 97.2551C24.2083 96.7811 23.3021 96.3384 22.2812 95.9009C21.8177 95.703 21.3541 95.5155 20.9062 95.3488C20.3802 95.1561 19.9062 94.9947 19.4635 94.8541C18.9114 94.677 18.3698 94.5155 17.8385 94.3541C16.7135 94.0155 15.6562 93.6978 14.7239 93.3124C13.4948 92.8176 12.5521 92.2082 11.9323 91.5051C11.75 91.302 11.3541 90.7291 11.0312 90.2707L10.5104 89.5259C10.026 88.8332 9.47915 88.052 8.46873 87.0728C7.46352 86.0988 6.10936 85.6666 4.75519 85.8801C4.22394 85.9634 3.71352 86.1405 3.24998 86.4113C3.06769 86.5155 2.89061 86.6301 2.71352 86.7655C0.927063 88.1405 0.229147 90.6353 1.01561 92.8384L17.9896 135.364C16.9791 135.641 15.9791 136.062 15.0104 136.62C13.5729 137.448 12.2448 138.542 11.0573 139.875C6.02602 145.536 5.11456 153.646 8.98956 158.333C11.0364 160.807 14.1406 161.927 17.5 161.396C18.9427 161.172 20.375 160.651 21.7552 159.859C23.1979 159.031 24.5312 157.932 25.7187 156.599C29.776 152.021 31.2448 145.698 29.3646 140.833L14.3958 103.338C14.8906 103.432 15.3698 103.516 15.8489 103.599C16.3489 103.693 16.8437 103.776 17.2812 103.864L18.4375 104.114C18.8854 104.229 19.2291 104.323 19.5364 104.411C20.25 104.625 20.9531 104.875 21.6406 105.156C24.6041 106.364 26.8594 108.161 28.3541 110.521C29.9635 112.995 30.7969 116.385 30.7083 120.099C30.6875 121.516 31.6823 122.729 33.0364 122.927C33.6146 123.01 34.2083 122.896 34.7396 122.594C35.5 122.156 36.0052 121.385 36.125 120.5C36.8073 115.505 36.1302 110.614 34.2187 106.739C32.3333 102.859 29.1666 99.5832 25.0573 97.2551Z" fill="#53BCEA"/>
</g>
</g>
</g>
<mask id="mask87_47_13831" style="mask-type:luminance" maskUnits="userSpaceOnUse" x="19" y="46" width="22" height="42">
<path d="M19 46H40.3333V87.3333H19V46Z" fill="white"/>
</mask>
<g mask="url(#mask87_47_13831)">
<mask id="mask88_47_13831" style="mask-type:luminance" maskUnits="userSpaceOnUse" x="-11" y="38" width="114" height="125">
<path d="M-10.7031 53.1929L85.1146 38.0991L102.391 147.75L6.57292 162.844L-10.7031 53.1929Z" fill="white"/>
</mask>
<g mask="url(#mask88_47_13831)">
<mask id="mask89_47_13831" style="mask-type:luminance" maskUnits="userSpaceOnUse" x="-11" y="38" width="114" height="125">
<path d="M-10.7031 53.1929L85.1146 38.0991L102.391 147.75L6.57292 162.844L-10.7031 53.1929Z" fill="white"/>
</mask>
<g mask="url(#mask89_47_13831)">
<path d="M37.3699 56.0888C37.0313 55.7138 36.6667 55.3492 36.2396 54.9638C36.0469 54.7919 35.8542 54.6252 35.6615 54.469C35.4376 54.2867 35.2344 54.1304 35.0417 53.9846C34.8021 53.8127 34.5678 53.6409 34.3334 53.4742C33.8438 53.12 33.3803 52.7919 32.9896 52.4481C32.474 52.0002 32.1199 51.5523 31.9324 51.1044C31.8751 50.9742 31.7813 50.6304 31.698 50.3492L31.5678 49.9013C31.448 49.4846 31.3074 49.0106 30.9844 48.37C30.6563 47.7242 30.0678 47.2919 29.3699 47.1669C29.099 47.12 28.823 47.1252 28.5469 47.1773C28.4428 47.1981 28.3386 47.2242 28.2292 47.2606C27.1303 47.6304 26.3751 48.7346 26.3907 49.9377L27.5886 73.469C27.0469 73.4377 26.4949 73.4794 25.9271 73.5888C25.0886 73.7554 24.2605 74.0627 23.4636 74.5159C20.0678 76.4377 18.2761 80.2346 19.3803 83.1617C19.9688 84.7086 21.2917 85.7711 23.0209 86.0679C23.7553 86.1982 24.5417 86.1877 25.349 86.0263C26.1876 85.8648 27.0157 85.5523 27.8178 85.0992C30.5574 83.5471 32.323 80.7138 32.2188 78.0263L31.1615 57.2763C31.3855 57.4013 31.6094 57.5263 31.8282 57.6461C32.0574 57.7711 32.2813 57.8961 32.4792 58.0106L33.0001 58.3284C33.2032 58.4586 33.3542 58.5575 33.4844 58.6513C33.8021 58.8752 34.1042 59.1148 34.3907 59.3648C35.6303 60.4481 36.4324 61.6981 36.7657 63.0992C37.1407 64.5679 36.9792 66.3596 36.3178 68.1513C36.073 68.8388 36.3594 69.5992 36.9792 69.9169C37.2501 70.0523 37.5574 70.0992 37.8699 70.0367C38.3126 69.9534 38.6876 69.6617 38.8907 69.245C40.0521 66.9273 40.5365 64.4325 40.2553 62.2294C39.9792 60.0263 38.9792 57.9065 37.3699 56.0888Z" fill="#53BCEA"/>
</g>
</g>
</g>
<mask id="mask90_47_13831" style="mask-type:luminance" maskUnits="userSpaceOnUse" x="204" y="166" width="37" height="23">
<path d="M204.333 166H240.333V188.667H204.333V166Z" fill="white"/>
</mask>
<g mask="url(#mask90_47_13831)">
<mask id="mask91_47_13831" style="mask-type:luminance" maskUnits="userSpaceOnUse" x="201" y="161" width="41" height="32">
<path d="M201.859 175.323L235.286 161.958L241.969 178.672L208.542 192.037L201.859 175.323Z" fill="white"/>
</mask>
<g mask="url(#mask91_47_13831)">
<mask id="mask92_47_13831" style="mask-type:luminance" maskUnits="userSpaceOnUse" x="201" y="161" width="41" height="32">
<path d="M201.859 175.323L235.286 161.958L241.969 178.672L208.542 192.037L201.859 175.323Z" fill="white"/>
</mask>
<g mask="url(#mask92_47_13831)">
<path d="M239.135 170.287C239.359 170.844 239.474 171.438 239.474 172.073C239.474 172.703 239.365 173.365 239.146 174.047C238.927 174.735 238.604 175.433 238.167 176.141C237.734 176.854 237.208 177.563 236.578 178.271C235.948 178.979 235.234 179.677 234.432 180.354C233.63 181.031 232.76 181.688 231.818 182.308C230.875 182.933 229.88 183.521 228.833 184.063C227.786 184.61 226.708 185.104 225.594 185.547C224.484 185.995 223.359 186.38 222.224 186.709C221.089 187.031 219.969 187.297 218.854 187.495C217.74 187.693 216.661 187.818 215.609 187.88C214.562 187.938 213.568 187.933 212.625 187.849C211.677 187.771 210.807 187.625 210 187.406C209.198 187.188 208.479 186.912 207.849 186.563C207.219 186.219 206.682 185.818 206.25 185.36C205.812 184.896 205.484 184.391 205.26 183.834C205.036 183.276 204.927 182.677 204.927 182.047C204.922 181.412 205.031 180.75 205.25 180.068C205.469 179.38 205.797 178.683 206.229 177.974C206.661 177.261 207.193 176.552 207.823 175.844C208.453 175.136 209.167 174.443 209.969 173.761C210.766 173.084 211.641 172.433 212.583 171.808C213.526 171.183 214.521 170.599 215.568 170.052C216.615 169.511 217.693 169.016 218.807 168.568C219.917 168.125 221.042 167.74 222.177 167.412C223.307 167.084 224.432 166.823 225.547 166.625C226.656 166.427 227.74 166.297 228.786 166.235C229.833 166.177 230.833 166.188 231.776 166.266C232.719 166.344 233.594 166.495 234.396 166.709C235.198 166.927 235.917 167.209 236.547 167.552C237.182 167.896 237.714 168.297 238.151 168.761C238.583 169.219 238.917 169.729 239.135 170.287Z" fill="#FCD590"/>
</g>
</g>
</g>
<mask id="mask93_47_13831" style="mask-type:luminance" maskUnits="userSpaceOnUse" x="189" y="167" width="37" height="22">
<path d="M189.667 167.333H225.667V188.667H189.667V167.333Z" fill="white"/>
</mask>
<g mask="url(#mask93_47_13831)">
<mask id="mask94_47_13831" style="mask-type:luminance" maskUnits="userSpaceOnUse" x="187" y="163" width="40" height="29">
<path d="M192.917 163.245L227 174.834L221.208 191.875L187.125 180.287L192.917 163.245Z" fill="white"/>
</mask>
<g mask="url(#mask94_47_13831)">
<mask id="mask95_47_13831" style="mask-type:luminance" maskUnits="userSpaceOnUse" x="187" y="163" width="40" height="29">
<path d="M192.917 163.245L227 174.834L221.208 191.875L187.125 180.287L192.917 163.245Z" fill="white"/>
</mask>
<g mask="url(#mask95_47_13831)">
<path d="M224.51 183.667C224.318 184.235 224.016 184.761 223.604 185.24C223.193 185.724 222.682 186.152 222.068 186.532C221.458 186.907 220.755 187.224 219.964 187.485C219.177 187.74 218.312 187.938 217.37 188.068C216.432 188.193 215.437 188.256 214.391 188.25C213.339 188.245 212.25 188.178 211.13 188.037C210.01 187.896 208.875 187.693 207.724 187.428C206.573 187.162 205.432 186.834 204.297 186.448C203.161 186.063 202.057 185.625 200.984 185.136C199.911 184.646 198.885 184.115 197.911 183.542C196.937 182.969 196.031 182.365 195.198 181.73C194.359 181.089 193.609 180.438 192.948 179.761C192.281 179.089 191.714 178.407 191.245 177.719C190.776 177.032 190.411 176.355 190.156 175.683C189.901 175.006 189.76 174.355 189.724 173.724C189.693 173.089 189.776 172.49 189.969 171.922C190.161 171.355 190.464 170.829 190.875 170.344C191.286 169.865 191.797 169.433 192.411 169.053C193.021 168.678 193.724 168.36 194.516 168.099C195.307 167.844 196.172 167.646 197.109 167.521C198.047 167.391 199.042 167.329 200.094 167.334C201.141 167.339 202.229 167.412 203.349 167.547C204.469 167.688 205.609 167.891 206.755 168.157C207.906 168.422 209.047 168.75 210.182 169.136C211.318 169.521 212.422 169.959 213.495 170.448C214.573 170.938 215.594 171.469 216.568 172.042C217.542 172.615 218.448 173.219 219.281 173.86C220.12 174.495 220.87 175.152 221.531 175.823C222.198 176.5 222.766 177.178 223.234 177.865C223.703 178.553 224.068 179.235 224.323 179.907C224.578 180.579 224.724 181.23 224.755 181.865C224.786 182.495 224.703 183.094 224.51 183.667Z" fill="#FCD590"/>
</g>
</g>
</g>
<mask id="mask96_47_13831" style="mask-type:luminance" maskUnits="userSpaceOnUse" x="188" y="170" width="35" height="22">
<path d="M188.333 170H223V191.333H188.333V170Z" fill="white"/>
</mask>
<g mask="url(#mask96_47_13831)">
<mask id="mask97_47_13831" style="mask-type:luminance" maskUnits="userSpaceOnUse" x="185" y="166" width="40" height="29">
<path d="M191.75 166.677L224.891 177.943L219.094 194.985L185.958 183.719L191.75 166.677Z" fill="white"/>
</mask>
<g mask="url(#mask97_47_13831)">
<mask id="mask98_47_13831" style="mask-type:luminance" maskUnits="userSpaceOnUse" x="185" y="166" width="40" height="29">
<path d="M191.75 166.677L224.891 177.943L219.094 194.985L185.958 183.719L191.75 166.677Z" fill="white"/>
</mask>
<g mask="url(#mask98_47_13831)">
<path d="M221.979 186.214C221.792 186.755 221.505 187.261 221.109 187.719C220.719 188.182 220.229 188.594 219.641 188.953C219.057 189.313 218.385 189.62 217.63 189.865C216.87 190.115 216.047 190.297 215.146 190.422C214.25 190.547 213.297 190.604 212.292 190.599C211.286 190.599 210.25 190.526 209.177 190.396C208.104 190.261 207.016 190.068 205.917 189.813C204.818 189.557 203.724 189.245 202.641 188.875C201.552 188.505 200.495 188.089 199.469 187.62C198.443 187.151 197.458 186.646 196.531 186.094C195.599 185.547 194.729 184.969 193.932 184.36C193.13 183.75 192.417 183.125 191.776 182.479C191.141 181.833 190.599 181.182 190.151 180.526C189.703 179.865 189.354 179.219 189.109 178.573C188.865 177.927 188.729 177.307 188.698 176.698C188.667 176.094 188.745 175.521 188.927 174.974C189.115 174.432 189.401 173.927 189.797 173.469C190.187 173.005 190.677 172.594 191.266 172.235C191.849 171.875 192.521 171.568 193.281 171.323C194.036 171.073 194.865 170.891 195.76 170.766C196.656 170.641 197.609 170.583 198.615 170.589C199.62 170.589 200.656 170.662 201.729 170.792C202.807 170.927 203.891 171.12 204.99 171.375C206.094 171.63 207.182 171.943 208.271 172.313C209.354 172.682 210.411 173.099 211.437 173.568C212.469 174.037 213.448 174.542 214.38 175.094C215.312 175.641 216.177 176.219 216.974 176.828C217.776 177.438 218.495 178.063 219.13 178.708C219.766 179.354 220.307 180.005 220.755 180.662C221.208 181.323 221.552 181.969 221.797 182.615C222.042 183.261 222.177 183.88 222.208 184.49C222.24 185.094 222.161 185.667 221.979 186.214Z" fill="#FFB93E"/>
</g>
</g>
</g>
<mask id="mask99_47_13831" style="mask-type:luminance" maskUnits="userSpaceOnUse" x="205" y="168" width="37" height="24">
<path d="M205.667 168.667H241.667V191.333H205.667V168.667Z" fill="white"/>
</mask>
<g mask="url(#mask99_47_13831)">
<mask id="mask100_47_13831" style="mask-type:luminance" maskUnits="userSpaceOnUse" x="203" y="165" width="41" height="31">
<path d="M203.203 178.693L236.63 165.323L243.318 182.036L209.891 195.401L203.203 178.693Z" fill="white"/>
</mask>
<g mask="url(#mask100_47_13831)">
<mask id="mask101_47_13831" style="mask-type:luminance" maskUnits="userSpaceOnUse" x="203" y="165" width="41" height="31">
<path d="M203.203 178.693L236.63 165.323L243.318 182.036L209.891 195.401L203.203 178.693Z" fill="white"/>
</mask>
<g mask="url(#mask101_47_13831)">
<path d="M240.484 173.651C240.708 174.208 240.818 174.807 240.823 175.437C240.823 176.073 240.714 176.734 240.495 177.416C240.276 178.104 239.948 178.802 239.516 179.51C239.083 180.224 238.552 180.932 237.922 181.64C237.297 182.349 236.578 183.041 235.781 183.724C234.979 184.401 234.104 185.052 233.167 185.677C232.224 186.302 231.229 186.885 230.182 187.432C229.135 187.974 228.052 188.469 226.943 188.916C225.828 189.359 224.703 189.745 223.573 190.073C222.438 190.401 221.313 190.661 220.203 190.859C219.089 191.057 218.005 191.187 216.958 191.25C215.911 191.307 214.911 191.297 213.969 191.219C213.026 191.14 212.151 190.989 211.349 190.776C210.547 190.557 209.828 190.276 209.198 189.932C208.563 189.588 208.031 189.187 207.594 188.724C207.162 188.265 206.833 187.755 206.609 187.198C206.385 186.64 206.271 186.047 206.271 185.411C206.271 184.781 206.38 184.12 206.599 183.437C206.818 182.75 207.146 182.052 207.578 181.344C208.01 180.63 208.542 179.922 209.167 179.213C209.797 178.505 210.51 177.807 211.313 177.13C212.115 176.453 212.984 175.797 213.927 175.177C214.87 174.552 215.865 173.969 216.911 173.422C217.958 172.875 219.042 172.38 220.151 171.937C221.266 171.489 222.385 171.104 223.521 170.776C224.656 170.453 225.781 170.187 226.891 169.989C228.005 169.791 229.083 169.666 230.135 169.604C231.182 169.547 232.177 169.552 233.125 169.635C234.068 169.713 234.943 169.859 235.745 170.078C236.547 170.297 237.266 170.573 237.896 170.922C238.526 171.265 239.063 171.666 239.495 172.125C239.932 172.588 240.26 173.094 240.484 173.651Z" fill="#FFB93E"/>
</g>
</g>
</g>
<mask id="mask102_47_13831" style="mask-type:luminance" maskUnits="userSpaceOnUse" x="113" y="0" width="213" height="93">
<path d="M113.667 0.666504H325.667V92.6665H113.667V0.666504Z" fill="white"/>
</mask>
<g mask="url(#mask102_47_13831)">
<mask id="mask103_47_13831" style="mask-type:luminance" maskUnits="userSpaceOnUse" x="111" y="-24" width="226" height="170">
<path d="M145.943 -23.3804L336.042 38.7707L301.24 145.224L111.141 83.0728L145.943 -23.3804Z" fill="white"/>
</mask>
<g mask="url(#mask103_47_13831)">
<mask id="mask104_47_13831" style="mask-type:luminance" maskUnits="userSpaceOnUse" x="111" y="-24" width="226" height="170">
<path d="M145.943 -23.3804L336.042 38.7707L301.24 145.224L111.141 83.0728L145.943 -23.3804Z" fill="white"/>
</mask>
<g mask="url(#mask104_47_13831)">
<path d="M225.573 3.12482C229.682 4.41128 233.412 6.44774 236.901 8.94253C242.474 12.9321 247.891 17.1196 252.896 21.8123C254.786 23.5832 256.792 25.2186 258.953 26.6509C267.219 32.1196 274.714 38.5988 282.568 44.604C288.068 48.8071 293.484 53.1561 299.656 56.3696C307.432 60.4217 314.688 65.3332 322.177 69.8644C322.75 70.2134 323.24 70.5571 323.979 70.6613C325.135 70.8279 325.297 71.6457 324.682 72.6873C322.224 76.8436 318.448 79.0311 313.844 79.9217C311.005 80.4738 308.146 80.9738 305.281 81.3384C297.505 82.3332 289.849 84.1352 282.01 84.6925C277.99 84.9738 273.964 85.2654 269.932 85.3279C263.443 85.4321 257.036 86.13 250.656 87.2759C242.625 88.7186 234.536 89.5155 226.37 89.6352C223.141 89.6873 219.833 89.2655 216.693 90.4998C211.672 89.7863 206.719 91.005 201.719 91.0519C188.26 91.1717 174.797 91.3332 161.333 91.5571C152.745 91.6977 144.135 91.1352 135.667 89.3852C130.448 88.3071 125.234 87.2134 120.031 86.0727C118.62 85.7602 117.25 85.2811 116.089 84.3384C114.547 83.0936 113.755 81.5623 114.188 79.5415C114.234 79.3175 114.417 79.0415 114.344 78.8904C113.224 76.7029 114.948 76.3279 116.328 75.7186C117.802 75.0727 119.094 74.1196 120.396 73.1925C126.224 69.0363 131.906 64.6509 137.912 60.7759C145.526 55.8696 153.156 50.9686 160.995 46.4113C173.464 39.1509 185.234 30.8852 196.135 21.4165C197.745 20.0207 199.354 18.6092 201.057 17.3332C205.333 14.1248 209.286 10.5623 213.047 6.77066C214.5 5.30191 216.146 4.06753 217.839 2.90607C219.578 1.70816 221.422 1.31753 223.422 2.40086C224.078 2.75503 224.854 2.88524 225.573 3.12482Z" fill="#433820"/>
</g>
</g>
</g>
<mask id="mask105_47_13831" style="mask-type:luminance" maskUnits="userSpaceOnUse" x="119" y="6" width="192" height="76">
<path d="M119 6H311V82H119V6Z" fill="white"/>
</mask>
<g mask="url(#mask105_47_13831)">
<mask id="mask106_47_13831" style="mask-type:luminance" maskUnits="userSpaceOnUse" x="111" y="-24" width="226" height="170">
<path d="M145.943 -23.3804L336.042 38.7707L301.24 145.224L111.141 83.0728L145.943 -23.3804Z" fill="white"/>
</mask>
<g mask="url(#mask106_47_13831)">
<mask id="mask107_47_13831" style="mask-type:luminance" maskUnits="userSpaceOnUse" x="111" y="-24" width="226" height="170">
<path d="M145.943 -23.3804L336.042 38.7707L301.24 145.224L111.141 83.0728L145.943 -23.3804Z" fill="white"/>
</mask>
<g mask="url(#mask107_47_13831)">
<path d="M193.365 80.1615C193.146 80.1042 192.917 79.9584 192.708 79.9896C186.719 80.8646 180.698 80.25 174.698 80.2917C168.609 80.3386 162.516 80.224 156.432 80.2448C148.714 80.2709 141.083 79.4167 133.427 78.7552C129.562 78.4271 125.703 78.0052 121.839 77.6198C121.083 77.5469 120.312 77.5261 119.635 77.0834C119.734 76.3542 120.417 76.2084 120.88 75.8802C125.297 72.7552 129.745 69.6771 134.151 66.5365C146.255 57.8959 158.87 50.0469 171.755 42.6407C178.661 38.6771 184.958 33.9011 191.135 28.9323C196.297 24.7761 201.375 20.5157 206.547 16.3698C208.99 14.4063 211.193 12.1979 213.437 10.0313C214.281 9.21877 214.964 8.85419 215.896 9.83857C216.146 10.099 216.562 10.1979 216.88 10.4011C220.552 12.724 223.839 12.0417 227.156 8.79169C227.427 8.52607 227.719 8.25523 227.906 7.93232C228.49 6.94273 229.167 7.07294 229.995 7.6094C231.333 8.47398 232.766 9.21357 234.062 10.1407C239.891 14.3021 245.589 18.625 250.849 23.5052C252.406 24.9532 253.99 26.4219 255.755 27.599C264.255 33.2709 272.083 39.8282 280.156 46.0625C285.641 50.2969 291.052 54.6354 297.135 58.0052C301.266 60.2865 305.443 62.4896 309.406 65.0625C309.708 65.2604 310.125 65.3334 310.255 65.9479C309.74 66.5573 308.88 66.7032 308.135 66.9063C300.5 69.0209 292.88 71.1875 284.917 71.7761C280.359 72.1146 275.844 72.849 271.318 73.4792C263.62 74.5573 255.901 75.3854 248.12 75.5729C243.01 75.6927 237.932 76.2032 232.896 77.0365C222.411 78.7709 211.812 78.7604 201.245 79.2084C200.562 79.2396 199.87 79.1615 199.198 79.0521C198.333 78.9115 197.698 79.125 197.333 79.9584C196.042 80.6146 194.745 81.1563 193.365 80.1615Z" fill="#EDE0D2"/>
</g>
</g>
</g>
<mask id="mask108_47_13831" style="mask-type:luminance" maskUnits="userSpaceOnUse" x="181" y="67" width="141" height="19">
<path d="M181.667 67.3335H321.667V86.0002H181.667V67.3335Z" fill="white"/>
</mask>
<g mask="url(#mask108_47_13831)">
<mask id="mask109_47_13831" style="mask-type:luminance" maskUnits="userSpaceOnUse" x="111" y="-24" width="226" height="170">
<path d="M145.943 -23.3799L336.042 38.7712L301.24 145.224L111.141 83.0732L145.943 -23.3799Z" fill="white"/>
</mask>
<g mask="url(#mask109_47_13831)">
<mask id="mask110_47_13831" style="mask-type:luminance" maskUnits="userSpaceOnUse" x="111" y="-24" width="226" height="170">
<path d="M145.943 -23.3799L336.042 38.7712L301.24 145.224L111.141 83.0732L145.943 -23.3799Z" fill="white"/>
</mask>
<g mask="url(#mask110_47_13831)">
<path d="M240.724 82.6253C240.682 82.5628 240.604 82.5003 240.599 82.4378C240.396 77.7608 240.073 78.7191 244.083 78.4274C248.708 78.0889 253.359 78.042 257.974 77.6045C259.323 77.4795 259.964 78.792 261.099 78.5472C262.089 78.3233 262.526 77.1878 263.771 77.0472C270.349 76.3181 276.911 75.4274 283.474 74.5628C284.594 74.417 285.464 74.3493 286.036 75.6931C286.453 76.6774 287.516 76.5576 287.839 75.4847C288.156 74.4378 288.646 74.016 289.703 73.8962C295.089 73.2764 300.276 71.6826 305.521 70.4118C306.995 70.0576 308.141 69.9222 309.078 71.3181C309.464 71.8962 310.078 72.2503 310.786 72.3701C311.276 72.4587 311.703 72.3545 311.974 71.917C312.193 71.5524 312.083 71.1878 311.891 70.8389C311.526 70.1774 310.745 69.8389 310.495 69.0785C310.552 69.016 310.599 68.9483 310.656 68.9014C312.646 67.3858 314.437 67.8649 316.297 69.2764C317.854 70.4587 319.594 71.4066 321.219 72.4326C320.995 73.2816 320.573 73.8024 320.078 74.2868C319.417 74.9431 318.792 75.766 317.932 74.4847C317.719 74.167 317.302 74.0889 316.917 74.0368C315.542 73.8545 315.073 74.5003 315.589 75.8806C315.667 76.0837 315.714 76.292 315.781 76.5108C314.828 77.1618 313.771 77.3181 312.729 77.4899C305.37 78.6722 298 79.8233 290.641 81.0212C289.589 81.1931 288.745 81.2139 288.172 80.0733C287.896 79.5264 287.234 79.2764 286.578 79.5368C285.969 79.7764 285.854 80.2712 286.031 80.8545C286.286 81.6931 285.682 81.7295 285.151 81.7764C283.031 81.9795 280.917 82.2295 278.792 82.3285C274.156 82.5524 269.521 82.6774 264.885 82.8753C263.99 82.917 263.375 82.8337 263.536 81.6983C263.583 81.3389 263.469 80.9378 263.359 80.5785C263.193 80.0212 262.802 79.6514 262.193 79.6826C261.578 79.7191 261.229 80.1253 261.167 80.7191C261.083 81.5316 261.422 82.5681 260.599 83.0264C259.911 83.4066 258.99 83.3753 258.167 83.5003C255.156 83.9639 252.146 84.4118 249.135 84.8649C246.724 82.6514 243.552 83.2816 240.724 82.6253ZM213.437 81.3806C212.526 81.4066 211.62 81.4743 210.708 81.4847C207.224 81.5316 203.734 81.5889 200.25 81.5941C199.01 81.5941 197.781 81.4378 197.333 79.9587C195.995 79.6878 194.703 80.3597 193.365 80.1618C193.615 81.8753 193.516 82.0941 192.219 82.5785C191.214 82.9535 190.167 83.0368 189.104 83.0316C187.146 83.0212 185.182 83.0472 183.224 82.9847C182.349 82.9535 181.911 83.1826 182.062 84.1149C182.63 84.8181 183.354 84.9951 184.26 85.042C193.057 85.5316 201.828 84.917 210.604 84.5316C212.526 84.4483 214.568 84.6253 216.411 83.7347C215.891 81.3076 215.891 81.3024 213.437 81.3806ZM238.083 80.3493C238.109 79.3389 237.609 78.9847 236.646 79.1462C236.12 79.2347 235.589 79.2764 235.062 79.3597C230.177 80.1358 225.271 80.7451 220.333 81.0628C218.375 81.1878 218.375 81.2087 218.937 83.1774C219.552 84.1045 220.443 83.9378 221.37 83.8649C226.089 83.5056 230.812 83.1774 235.542 82.8649C236.443 82.8024 237.365 82.9066 238.073 82.1722C238.078 81.5628 238.068 80.9535 238.083 80.3493Z" fill="#9D743B"/>
</g>
</g>
</g>
<mask id="mask111_47_13831" style="mask-type:luminance" maskUnits="userSpaceOnUse" x="116" y="4" width="134" height="86">
<path d="M116.333 4.6665H249.667V89.9998H116.333V4.6665Z" fill="white"/>
</mask>
<g mask="url(#mask111_47_13831)">
<mask id="mask112_47_13831" style="mask-type:luminance" maskUnits="userSpaceOnUse" x="111" y="-24" width="226" height="170">
<path d="M145.943 -23.3804L336.042 38.7707L301.24 145.224L111.141 83.0728L145.943 -23.3804Z" fill="white"/>
</mask>
<g mask="url(#mask112_47_13831)">
<mask id="mask113_47_13831" style="mask-type:luminance" maskUnits="userSpaceOnUse" x="111" y="-24" width="226" height="170">
<path d="M145.943 -23.3804L336.042 38.7707L301.24 145.224L111.141 83.0728L145.943 -23.3804Z" fill="white"/>
</mask>
<g mask="url(#mask113_47_13831)">
<path d="M240.724 82.6251C242.281 82.3178 243.844 82.4271 245.417 82.5001C246.823 82.5626 247.891 82.9219 248.495 84.2813C248.604 84.5209 248.922 84.6719 249.141 84.8594C242.099 86.1251 235.005 86.8594 227.854 86.9896C225.12 87.0417 222.318 87.5365 219.667 87.1094C217.047 86.6928 214.755 87.7396 212.286 87.7865C209.708 87.8334 207.13 88.073 204.547 88.2553C197.411 88.7553 190.266 88.4948 183.125 88.5417C175.828 88.5886 168.531 88.8803 161.234 89.0365C159.568 89.073 157.797 89.3021 156.25 88.8386C154.729 88.3803 153.396 87.8334 151.896 88.6615C144.229 88.2188 136.609 87.4584 129.224 85.1563C129.083 85.1094 128.943 85.0417 128.802 84.9844L128.818 85.0105C129.396 84.5261 129.49 83.9011 129.479 83.1719C129.469 82.5782 129.693 81.9792 129.828 81.3073C130.505 80.9792 131.245 81.1459 131.984 81.2032C138.109 81.6876 144.203 82.5886 150.354 82.7448C151.245 82.7709 151.604 83.0417 151.604 83.9063C151.604 84.2032 151.661 84.5157 151.771 84.7969C151.984 85.3438 152.427 85.6355 153.016 85.6094C153.719 85.5834 153.813 85.0365 153.906 84.4948C154.214 82.7553 154.224 82.6719 155.958 82.7396C163.328 83.0157 170.703 82.8178 178.073 82.8959C179.693 82.9115 179.714 82.9584 179.641 84.6198C179.615 85.224 179.432 85.8438 179.516 86.4271C179.604 87.099 179.865 87.8594 180.766 87.7605C181.505 87.6771 181.99 87.2709 181.943 86.3751C181.901 85.6303 182.016 84.8698 182.063 84.1198C190.484 85.0417 198.906 84.3855 207.328 84.1146C210.359 84.0157 213.365 83.3594 216.411 83.7344C218.188 84.5053 218.188 84.5053 218.938 83.1823C224.891 83.2657 230.781 82.3698 236.714 82.1615C237.167 82.1459 237.62 82.0209 238.073 82.1719C238.104 82.2396 238.151 82.3073 238.167 82.3803C238.323 83.2136 237.995 84.3803 239.281 84.5209C240.646 84.6615 240.38 83.3646 240.724 82.6251ZM128.813 85.0105C127.526 84.7396 126.693 84.1303 127.125 82.6407C127.448 81.5105 126.99 80.849 125.891 80.6719C123.198 80.2501 120.51 79.8126 117.802 79.5105C116.557 79.3698 116.063 80.3594 116.75 81.474C117.328 82.4063 118.245 82.9376 119.266 83.323C121.271 84.0834 123.391 84.3282 125.484 84.6042C126.578 84.7448 127.635 85.474 128.802 84.9844C128.802 84.9792 128.813 85.0105 128.813 85.0105ZM225.552 6.73442C225.807 6.32817 225.984 5.88546 225.448 5.56776C223.87 4.63026 221.995 5.92713 220.385 4.89067C219.922 4.58859 219.354 5.04172 218.958 5.38026C218.234 5.98442 216.865 6.26046 216.995 7.33338C217.125 8.4063 218.51 8.39588 219.281 8.79172C221.615 9.58338 224.354 8.66151 225.552 6.73442ZM176.089 65.8126C177.964 66.5209 179.958 66.5834 181.922 66.7292C186.385 67.0521 190.844 67.7448 195.333 67.0521C197.594 66.7032 199.87 66.5678 202.156 66.5834C204.599 66.599 207.026 66.3438 209.359 65.5626C210.198 65.2813 211.089 65.0261 211.328 63.9792C210.339 63.1928 209.25 63.2605 208.198 63.3646C205.474 63.6251 202.734 63.823 200.036 64.2813C194.974 65.1355 189.917 65.2136 184.807 64.849C181.573 64.6198 178.307 64.4844 174.906 64.8178C175.167 65.6876 175.693 65.6615 176.089 65.8126ZM195.839 46.9219C194.469 46.8803 193.104 46.8855 191.74 46.8021C185.286 46.4271 178.844 47.3282 172.391 46.9271C171.813 46.8907 171.078 46.8959 170.938 47.698C170.813 48.4219 171.339 48.7761 171.927 49.0417C173.214 49.6146 174.573 49.7396 175.948 49.6667C180.203 49.4376 184.458 49.5782 188.708 49.5886C190.531 49.5938 192.359 49.4844 194.161 49.1876C195.448 48.974 196.589 48.4896 197.667 47.5782C197.021 47.073 196.443 46.9428 195.839 46.9219ZM178.547 55.6563C174.099 55.1251 169.682 54.4376 165.255 53.8021C164.115 53.6407 163.052 53.2448 161.932 53.0626C161.464 52.9896 161.01 53.1094 160.776 53.5886C160.542 54.0782 160.818 54.448 161.135 54.8021C161.609 55.3386 162.266 55.5573 162.906 55.7917C165.052 56.573 167.266 57.0678 169.526 57.4271C173.813 58.1094 178.115 58.4376 182.443 58.1459C183.24 58.0938 184.115 58.099 184.802 57.1563C182.62 56.6146 180.609 55.9063 178.547 55.6563ZM167.391 63.448C165.469 62.7136 163.516 62.1771 161.448 61.9011C158.672 61.5313 155.932 60.8594 153.177 60.3021C152.547 60.1719 151.885 60.1303 151.521 60.7032C151.099 61.3594 151.677 61.8334 152.089 62.2553C152.401 62.5782 152.76 62.9011 153.161 63.0834C157.875 65.224 162.786 65.8021 167.87 64.8751C168.068 64.8386 168.24 64.6459 168.49 64.4792C168.245 63.7917 167.818 63.6094 167.391 63.448ZM150.609 68.6407C147.703 68.1511 144.755 67.8907 141.823 67.5417C141.453 67.4948 141.052 67.4063 140.797 67.7969C140.495 68.2553 140.693 68.6771 140.974 69.0469C141.344 69.5313 141.839 69.8751 142.349 70.2136C145.646 72.3959 149.307 72.6094 153.073 72.2292C153.74 72.1615 154.396 71.9428 154.823 71.1198C153.547 70.0573 152.26 68.9219 150.609 68.6407ZM181.24 72.4323C174.771 71.9688 168.292 71.7448 161.688 71.8959C162.052 72.9271 162.802 72.9532 163.432 73.0782C165.37 73.4532 167.302 73.8178 169.25 74.1146C172.786 74.6563 176.339 74.9323 179.901 74.3438C180.797 74.1928 181.719 74.1094 182.411 73.323C182.141 72.6355 181.682 72.4636 181.24 72.4323ZM200.552 58.9948C201.432 58.8855 202.656 58.7032 202.589 57.6094C202.521 56.4948 201.37 56.2292 200.323 56.198C200.099 56.1928 199.87 56.1667 199.646 56.1771C196.844 56.2917 194.047 56.4011 191.25 56.5417C190.729 56.5678 190.167 56.5938 189.74 56.9532C189.245 57.3698 189.141 57.8334 189.781 58.2188C190.036 58.3751 190.333 58.4584 191 58.7292C193.917 58.9896 197.224 59.4115 200.552 58.9948ZM202.13 71.7657C198.438 72.0261 194.74 72.2917 191.047 72.5521C190.354 72.6042 189.583 72.5105 189.13 73.4428C189.547 73.573 189.823 73.7396 190.104 73.7501C194.484 73.9271 198.865 73.9167 203.219 73.4376C204.224 73.3282 205.354 73.1303 206.031 71.7865C204.62 71.0782 203.37 71.6771 202.13 71.7657ZM203.844 45.7448C203.13 45.9896 202.771 46.5782 202.87 47.3438C202.974 48.1459 203.604 48.5782 204.292 48.5469C206.333 48.4532 208.234 47.9532 209.677 46.125C207.635 44.9428 205.745 45.0782 203.844 45.7448ZM208.333 56.0261C207.932 56.2032 207.458 56.4219 207.651 57.0053C207.776 57.4011 208.156 57.5834 208.547 57.5678C211.172 57.4532 213.729 57.0573 216.01 55.4688C213.37 54.823 210.807 54.9323 208.333 56.0261Z" fill="#604428"/>
</g>
</g>
</g>
</svg>
