<svg xmlns="http://www.w3.org/2000/svg" xmlns:xlink="http://www.w3.org/1999/xlink" width="500" zoomAndPan="magnify" viewBox="0 0 375 374.999991" height="500" preserveAspectRatio="xMidYMid meet" version="1.0"><defs><clipPath id="ff2b91cda2"><path d="M 70.105469 209.445312 L 163.855469 209.445312 L 163.855469 240.195312 L 70.105469 240.195312 Z M 70.105469 209.445312 " clip-rule="nonzero"/></clipPath><clipPath id="ba3452e050"><path d="M 47.121094 180.699219 L 158.871094 180.699219 L 158.871094 217.449219 L 47.121094 217.449219 Z M 47.121094 180.699219 " clip-rule="nonzero"/></clipPath><clipPath id="71eded5cbf"><path d="M 28.183594 157.171875 L 139.933594 157.171875 L 139.933594 193.921875 L 28.183594 193.921875 Z M 28.183594 157.171875 " clip-rule="nonzero"/></clipPath><clipPath id="c6a3828434"><path d="M 210 209.445312 L 303.644531 209.445312 L 303.644531 240.195312 L 210 240.195312 Z M 210 209.445312 " clip-rule="nonzero"/></clipPath><clipPath id="3747d36061"><path d="M 209.929688 209.445312 L 303.644531 209.445312 L 303.644531 240.195312 L 209.929688 240.195312 Z M 209.929688 209.445312 " clip-rule="nonzero"/></clipPath><clipPath id="c1b83262a0"><path d="M 212.753906 180.699219 L 324.210938 180.699219 L 324.210938 217.449219 L 212.753906 217.449219 Z M 212.753906 180.699219 " clip-rule="nonzero"/></clipPath><clipPath id="655b021ada"><path d="M 235.355469 157.171875 L 346.8125 157.171875 L 346.8125 193.921875 L 235.355469 193.921875 Z M 235.355469 157.171875 " clip-rule="nonzero"/></clipPath><clipPath id="5ce46fb4fe"><path d="M 198.71875 255.125 L 204.71875 255.125 L 204.71875 299.375 L 198.71875 299.375 Z M 198.71875 255.125 " clip-rule="nonzero"/></clipPath><clipPath id="a91411af3e"><path d="M 167.589844 253.324219 L 173.589844 253.324219 L 173.589844 297.574219 L 167.589844 297.574219 Z M 167.589844 253.324219 " clip-rule="nonzero"/></clipPath><clipPath id="f00d595be5"><path d="M 151 281 L 182 281 L 182 311 L 151 311 Z M 151 281 " clip-rule="nonzero"/></clipPath><clipPath id="853645e634"><path d="M 178.683594 311.417969 L 149.847656 284.058594 L 153.976562 279.707031 L 182.816406 307.0625 Z M 178.683594 311.417969 " clip-rule="nonzero"/></clipPath><clipPath id="fa4fea976b"><path d="M 178.683594 311.417969 L 149.847656 284.058594 L 153.976562 279.707031 L 182.816406 307.0625 Z M 178.683594 311.417969 " clip-rule="nonzero"/></clipPath><clipPath id="8476e79460"><path d="M 170 300 L 179 300 L 179 309 L 170 309 Z M 170 300 " clip-rule="nonzero"/></clipPath><clipPath id="4e012b8dd5"><path d="M 178.683594 311.417969 L 149.847656 284.058594 L 153.976562 279.707031 L 182.816406 307.0625 Z M 178.683594 311.417969 " clip-rule="nonzero"/></clipPath><clipPath id="84c7baa3be"><path d="M 178.683594 311.417969 L 149.847656 284.058594 L 153.976562 279.707031 L 182.816406 307.0625 Z M 178.683594 311.417969 " clip-rule="nonzero"/></clipPath><clipPath id="8ab4661bb1"><path d="M 146 291 L 186 291 L 186 305 L 146 305 Z M 146 291 " clip-rule="nonzero"/></clipPath><clipPath id="9dbe11b65b"><path d="M 186.242188 296.535156 L 147.425781 305.109375 L 146.132812 299.25 L 184.945312 290.679688 Z M 186.242188 296.535156 " clip-rule="nonzero"/></clipPath><clipPath id="d913aab555"><path d="M 186.242188 296.535156 L 147.425781 305.109375 L 146.132812 299.25 L 184.945312 290.679688 Z M 186.242188 296.535156 " clip-rule="nonzero"/></clipPath><clipPath id="cbab9898e6"><path d="M 172 294 L 184 294 L 184 298 L 172 298 Z M 172 294 " clip-rule="nonzero"/></clipPath><clipPath id="2406c0f359"><path d="M 186.242188 296.535156 L 147.425781 305.109375 L 146.132812 299.25 L 184.945312 290.679688 Z M 186.242188 296.535156 " clip-rule="nonzero"/></clipPath><clipPath id="2c2143925e"><path d="M 186.242188 296.535156 L 147.425781 305.109375 L 146.132812 299.25 L 184.945312 290.679688 Z M 186.242188 296.535156 " clip-rule="nonzero"/></clipPath><clipPath id="49fc835c49"><path d="M 189 286 L 221 286 L 221 316 L 189 316 Z M 189 286 " clip-rule="nonzero"/></clipPath><clipPath id="16f1ca97ff"><path d="M 192.65625 285.011719 L 221.496094 312.367188 L 217.367188 316.71875 L 188.527344 289.363281 Z M 192.65625 285.011719 " clip-rule="nonzero"/></clipPath><clipPath id="467ad1371a"><path d="M 221.429688 312.304688 L 192.589844 284.945312 L 188.460938 289.296875 L 217.296875 316.65625 Z M 221.429688 312.304688 " clip-rule="nonzero"/></clipPath><clipPath id="cea29875d7"><path d="M 210 304 L 219 304 L 219 313 L 210 313 Z M 210 304 " clip-rule="nonzero"/></clipPath><clipPath id="b2f912dd8c"><path d="M 192.65625 285.011719 L 221.496094 312.367188 L 217.367188 316.71875 L 188.527344 289.363281 Z M 192.65625 285.011719 " clip-rule="nonzero"/></clipPath><clipPath id="75c7ec4a35"><path d="M 221.429688 312.304688 L 192.589844 284.945312 L 188.460938 289.296875 L 217.296875 316.65625 Z M 221.429688 312.304688 " clip-rule="nonzero"/></clipPath><clipPath id="a1fbed530a"><path d="M 185 291 L 225 291 L 225 305 L 185 305 Z M 185 291 " clip-rule="nonzero"/></clipPath><clipPath id="f65a814192"><path d="M 185.101562 299.890625 L 223.917969 291.316406 L 225.210938 297.175781 L 186.394531 305.75 Z M 185.101562 299.890625 " clip-rule="nonzero"/></clipPath><clipPath id="db8105c7b7"><path d="M 223.824219 291.335938 L 185.011719 299.910156 L 186.304688 305.769531 L 225.121094 297.195312 Z M 223.824219 291.335938 " clip-rule="nonzero"/></clipPath><clipPath id="a45fab9c85"><path d="M 211 293 L 223 293 L 223 297 L 211 297 Z M 211 293 " clip-rule="nonzero"/></clipPath><clipPath id="c578d12de2"><path d="M 185.101562 299.890625 L 223.917969 291.316406 L 225.210938 297.175781 L 186.394531 305.75 Z M 185.101562 299.890625 " clip-rule="nonzero"/></clipPath><clipPath id="6dba623e15"><path d="M 223.824219 291.335938 L 185.011719 299.910156 L 186.304688 305.769531 L 225.121094 297.195312 Z M 223.824219 291.335938 " clip-rule="nonzero"/></clipPath><clipPath id="14ae649e80"><path d="M 120.007812 148.507812 L 252.757812 148.507812 L 252.757812 281 L 120.007812 281 Z M 120.007812 148.507812 " clip-rule="nonzero"/></clipPath><clipPath id="e39bfac7cc"><path d="M 120.007812 103.839844 L 252.757812 103.839844 L 252.757812 236.589844 L 120.007812 236.589844 Z M 120.007812 103.839844 " clip-rule="nonzero"/></clipPath><clipPath id="cc305512ca"><path d="M 194.730469 137.191406 L 241.753906 137.191406 L 241.753906 184.210938 L 194.730469 184.210938 Z M 194.730469 137.191406 " clip-rule="nonzero"/></clipPath><clipPath id="941ad647f7"><path d="M 218.242188 137.191406 C 205.257812 137.191406 194.730469 147.714844 194.730469 160.703125 C 194.730469 173.6875 205.257812 184.210938 218.242188 184.210938 C 231.226562 184.210938 241.753906 173.6875 241.753906 160.703125 C 241.753906 147.714844 231.226562 137.191406 218.242188 137.191406 Z M 218.242188 137.191406 " clip-rule="nonzero"/></clipPath><clipPath id="a24904f925"><path d="M 131.160156 137.191406 L 178.183594 137.191406 L 178.183594 184.210938 L 131.160156 184.210938 Z M 131.160156 137.191406 " clip-rule="nonzero"/></clipPath><clipPath id="44e5252a41"><path d="M 154.671875 137.191406 C 141.6875 137.191406 131.160156 147.714844 131.160156 160.703125 C 131.160156 173.6875 141.6875 184.210938 154.671875 184.210938 C 167.65625 184.210938 178.183594 173.6875 178.183594 160.703125 C 178.183594 147.714844 167.65625 137.191406 154.671875 137.191406 Z M 154.671875 137.191406 " clip-rule="nonzero"/></clipPath><clipPath id="8eb38f0a06"><path d="M 172.5625 177.335938 L 199.5625 177.335938 L 199.5625 190.835938 L 172.5625 190.835938 Z M 172.5625 177.335938 " clip-rule="nonzero"/></clipPath><clipPath id="782c666ae1"><path d="M 203.402344 146.421875 L 232.472656 146.421875 L 232.472656 175.492188 L 203.402344 175.492188 Z M 203.402344 146.421875 " clip-rule="nonzero"/></clipPath><clipPath id="0ee1711cd6"><path d="M 217.9375 146.421875 C 209.910156 146.421875 203.402344 152.929688 203.402344 160.957031 C 203.402344 168.984375 209.910156 175.492188 217.9375 175.492188 C 225.964844 175.492188 232.472656 168.984375 232.472656 160.957031 C 232.472656 152.929688 225.964844 146.421875 217.9375 146.421875 Z M 217.9375 146.421875 " clip-rule="nonzero"/></clipPath><clipPath id="05a2ce810a"><path d="M 141.699219 146.421875 L 170.773438 146.421875 L 170.773438 175.492188 L 141.699219 175.492188 Z M 141.699219 146.421875 " clip-rule="nonzero"/></clipPath><clipPath id="1c574fb9e1"><path d="M 156.234375 146.421875 C 148.207031 146.421875 141.699219 152.929688 141.699219 160.957031 C 141.699219 168.984375 148.207031 175.492188 156.234375 175.492188 C 164.265625 175.492188 170.773438 168.984375 170.773438 160.957031 C 170.773438 152.929688 164.265625 146.421875 156.234375 146.421875 Z M 156.234375 146.421875 " clip-rule="nonzero"/></clipPath><clipPath id="c923b72b5c"><path d="M 154.671875 147.035156 L 168.59375 147.035156 L 168.59375 160.957031 L 154.671875 160.957031 Z M 154.671875 147.035156 " clip-rule="nonzero"/></clipPath><clipPath id="da1bb51e9b"><path d="M 161.632812 147.035156 C 157.789062 147.035156 154.671875 150.152344 154.671875 153.996094 C 154.671875 157.839844 157.789062 160.957031 161.632812 160.957031 C 165.476562 160.957031 168.59375 157.839844 168.59375 153.996094 C 168.59375 150.152344 165.476562 147.035156 161.632812 147.035156 Z M 161.632812 147.035156 " clip-rule="nonzero"/></clipPath><clipPath id="baff994a66"><path d="M 216.367188 146.78125 L 230.289062 146.78125 L 230.289062 160.703125 L 216.367188 160.703125 Z M 216.367188 146.78125 " clip-rule="nonzero"/></clipPath><clipPath id="f99d9ac09f"><path d="M 223.328125 146.78125 C 219.484375 146.78125 216.367188 149.894531 216.367188 153.742188 C 216.367188 157.585938 219.484375 160.703125 223.328125 160.703125 C 227.171875 160.703125 230.289062 157.585938 230.289062 153.742188 C 230.289062 149.894531 227.171875 146.78125 223.328125 146.78125 Z M 223.328125 146.78125 " clip-rule="nonzero"/></clipPath><clipPath id="dea8039dfc"><path d="M 152.683594 237.824219 L 222.433594 237.824219 L 222.433594 264 L 152.683594 264 Z M 152.683594 237.824219 " clip-rule="nonzero"/></clipPath><clipPath id="9c624a82b0"><path d="M 108 17 L 200 17 L 200 114 L 108 114 Z M 108 17 " clip-rule="nonzero"/></clipPath><clipPath id="7d19ce1b74"><path d="M 89.527344 32.707031 L 222.65625 10.304688 L 241.199219 120.503906 L 108.070312 142.90625 Z M 89.527344 32.707031 " clip-rule="nonzero"/></clipPath><clipPath id="a48eed7a0d"><path d="M 89.527344 32.707031 L 222.65625 10.304688 L 241.199219 120.503906 L 108.070312 142.90625 Z M 89.527344 32.707031 " clip-rule="nonzero"/></clipPath><clipPath id="2da7781688"><path d="M 89.527344 32.707031 L 222.65625 10.304688 L 241.199219 120.503906 L 108.070312 142.90625 Z M 89.527344 32.707031 " clip-rule="nonzero"/></clipPath><clipPath id="a254f90155"><path d="M 133 87 L 203 87 L 203 117 L 133 117 Z M 133 87 " clip-rule="nonzero"/></clipPath><clipPath id="96c80c3048"><path d="M 89.527344 32.707031 L 222.65625 10.304688 L 241.199219 120.503906 L 108.070312 142.90625 Z M 89.527344 32.707031 " clip-rule="nonzero"/></clipPath><clipPath id="d1ddec6c9c"><path d="M 89.527344 32.707031 L 222.65625 10.304688 L 241.199219 120.503906 L 108.070312 142.90625 Z M 89.527344 32.707031 " clip-rule="nonzero"/></clipPath><clipPath id="48b7b82886"><path d="M 89.527344 32.707031 L 222.65625 10.304688 L 241.199219 120.503906 L 108.070312 142.90625 Z M 89.527344 32.707031 " clip-rule="nonzero"/></clipPath><clipPath id="a5e6bd0281"><path d="M 105 92 L 239 92 L 239 137 L 105 137 Z M 105 92 " clip-rule="nonzero"/></clipPath><clipPath id="7b237e3acb"><path d="M 89.527344 32.707031 L 222.65625 10.304688 L 241.199219 120.503906 L 108.070312 142.90625 Z M 89.527344 32.707031 " clip-rule="nonzero"/></clipPath><clipPath id="b2a9a365f2"><path d="M 89.527344 32.707031 L 222.65625 10.304688 L 241.199219 120.503906 L 108.070312 142.90625 Z M 89.527344 32.707031 " clip-rule="nonzero"/></clipPath><clipPath id="28db4e6aef"><path d="M 89.527344 32.707031 L 222.65625 10.304688 L 241.199219 120.503906 L 108.070312 142.90625 Z M 89.527344 32.707031 " clip-rule="nonzero"/></clipPath></defs><g clip-path="url(#ff2b91cda2)"><path fill="#604428" d="M 148.480469 240.117188 L 85.511719 240.117188 C 77.085938 240.117188 70.253906 233.285156 70.253906 224.859375 C 70.253906 216.433594 77.085938 209.601562 85.511719 209.601562 L 148.480469 209.601562 C 156.90625 209.601562 163.738281 216.433594 163.738281 224.859375 C 163.738281 233.285156 156.90625 240.117188 148.480469 240.117188 Z M 148.480469 240.117188 " fill-opacity="1" fill-rule="nonzero"/><path fill="#604428" d="M 148.480469 240.265625 L 85.511719 240.265625 C 77.011719 240.265625 70.105469 233.359375 70.105469 224.859375 C 70.105469 216.359375 77.011719 209.453125 85.511719 209.453125 L 148.480469 209.453125 C 156.980469 209.453125 163.890625 216.359375 163.890625 224.859375 C 163.890625 233.359375 156.980469 240.265625 148.480469 240.265625 Z M 85.511719 209.75 C 77.175781 209.75 70.402344 216.523438 70.402344 224.859375 C 70.402344 233.195312 77.175781 239.96875 85.511719 239.96875 L 148.480469 239.96875 C 156.816406 239.96875 163.589844 233.195312 163.589844 224.859375 C 163.589844 216.523438 156.816406 209.75 148.480469 209.75 Z M 85.511719 209.75 " fill-opacity="1" fill-rule="nonzero"/></g><g clip-path="url(#ba3452e050)"><path fill="#604428" d="M 140.269531 217.148438 L 65.433594 217.148438 C 55.417969 217.148438 47.300781 209.03125 47.300781 199.015625 C 47.300781 189.003906 55.417969 180.882812 65.433594 180.882812 L 140.269531 180.882812 C 150.28125 180.882812 158.402344 189.003906 158.402344 199.015625 C 158.402344 209.03125 150.28125 217.148438 140.269531 217.148438 Z M 140.269531 217.148438 " fill-opacity="1" fill-rule="nonzero"/><path fill="#604428" d="M 140.269531 217.328125 L 65.433594 217.328125 C 55.332031 217.328125 47.121094 209.117188 47.121094 199.015625 C 47.121094 188.914062 55.332031 180.707031 65.433594 180.707031 L 140.269531 180.707031 C 150.371094 180.707031 158.578125 188.914062 158.578125 199.015625 C 158.578125 209.117188 150.371094 217.328125 140.269531 217.328125 Z M 65.433594 181.058594 C 55.527344 181.058594 47.476562 189.109375 47.476562 199.015625 C 47.476562 208.921875 55.527344 216.972656 65.433594 216.972656 L 140.269531 216.972656 C 150.175781 216.972656 158.226562 208.921875 158.226562 199.015625 C 158.226562 189.109375 150.175781 181.058594 140.269531 181.058594 Z M 65.433594 181.058594 " fill-opacity="1" fill-rule="nonzero"/></g><g clip-path="url(#71eded5cbf)"><path fill="#604428" d="M 121.332031 193.621094 L 46.496094 193.621094 C 36.480469 193.621094 28.359375 185.5 28.359375 175.488281 C 28.359375 165.472656 36.480469 157.355469 46.496094 157.355469 L 121.332031 157.355469 C 131.34375 157.355469 139.464844 165.472656 139.464844 175.488281 C 139.464844 185.5 131.34375 193.621094 121.332031 193.621094 Z M 121.332031 193.621094 " fill-opacity="1" fill-rule="nonzero"/><path fill="#604428" d="M 121.332031 193.796875 L 46.496094 193.796875 C 36.394531 193.796875 28.183594 185.589844 28.183594 175.488281 C 28.183594 165.386719 36.394531 157.175781 46.496094 157.175781 L 121.332031 157.175781 C 131.433594 157.175781 139.640625 165.386719 139.640625 175.488281 C 139.640625 185.589844 131.433594 193.796875 121.332031 193.796875 Z M 46.496094 157.53125 C 36.585938 157.53125 28.539062 165.582031 28.539062 175.488281 C 28.539062 185.394531 36.585938 193.445312 46.496094 193.445312 L 121.332031 193.445312 C 131.238281 193.445312 139.289062 185.394531 139.289062 175.488281 C 139.289062 165.582031 131.238281 157.53125 121.332031 157.53125 Z M 46.496094 157.53125 " fill-opacity="1" fill-rule="nonzero"/></g><g clip-path="url(#c6a3828434)"><path fill="#604428" d="M 225.300781 240.117188 L 288.273438 240.117188 C 296.699219 240.117188 303.53125 233.285156 303.53125 224.859375 C 303.53125 216.433594 296.699219 209.601562 288.273438 209.601562 L 225.300781 209.601562 C 216.875 209.601562 210.042969 216.433594 210.042969 224.859375 C 210.042969 233.285156 216.875 240.117188 225.300781 240.117188 Z M 225.300781 240.117188 " fill-opacity="1" fill-rule="nonzero"/></g><g clip-path="url(#3747d36061)"><path fill="#604428" d="M 225.300781 240.265625 L 288.273438 240.265625 C 296.773438 240.265625 303.679688 233.359375 303.679688 224.859375 C 303.679688 216.359375 296.773438 209.453125 288.273438 209.453125 L 225.300781 209.453125 C 216.800781 209.453125 209.894531 216.359375 209.894531 224.859375 C 209.894531 233.359375 216.800781 240.265625 225.300781 240.265625 Z M 288.273438 209.75 C 296.609375 209.75 303.382812 216.523438 303.382812 224.859375 C 303.382812 233.195312 296.609375 239.96875 288.273438 239.96875 L 225.300781 239.96875 C 216.964844 239.96875 210.191406 233.195312 210.191406 224.859375 C 210.191406 216.523438 216.964844 209.75 225.300781 209.75 Z M 288.273438 209.75 " fill-opacity="1" fill-rule="nonzero"/></g><g clip-path="url(#c1b83262a0)"><path fill="#604428" d="M 231.0625 217.148438 L 305.898438 217.148438 C 315.914062 217.148438 324.03125 209.03125 324.03125 199.015625 C 324.03125 189.003906 315.914062 180.882812 305.898438 180.882812 L 231.0625 180.882812 C 221.050781 180.882812 212.929688 189.003906 212.929688 199.015625 C 212.929688 209.03125 221.050781 217.148438 231.0625 217.148438 Z M 231.0625 217.148438 " fill-opacity="1" fill-rule="nonzero"/><path fill="#604428" d="M 231.0625 217.328125 L 305.898438 217.328125 C 316 217.328125 324.210938 209.117188 324.210938 199.015625 C 324.210938 188.914062 316 180.707031 305.898438 180.707031 L 231.0625 180.707031 C 220.960938 180.707031 212.753906 188.914062 212.753906 199.015625 C 212.753906 209.117188 220.960938 217.328125 231.0625 217.328125 Z M 305.898438 181.058594 C 315.804688 181.058594 323.855469 189.109375 323.855469 199.015625 C 323.855469 208.921875 315.804688 216.972656 305.898438 216.972656 L 231.0625 216.972656 C 221.15625 216.972656 213.105469 208.921875 213.105469 199.015625 C 213.105469 189.109375 221.15625 181.058594 231.0625 181.058594 Z M 305.898438 181.058594 " fill-opacity="1" fill-rule="nonzero"/></g><g clip-path="url(#655b021ada)"><path fill="#604428" d="M 253.667969 193.621094 L 328.503906 193.621094 C 338.515625 193.621094 346.636719 185.5 346.636719 175.488281 C 346.636719 165.472656 338.515625 157.355469 328.503906 157.355469 L 253.667969 157.355469 C 243.652344 157.355469 235.535156 165.472656 235.535156 175.488281 C 235.535156 185.5 243.652344 193.621094 253.667969 193.621094 Z M 253.667969 193.621094 " fill-opacity="1" fill-rule="nonzero"/><path fill="#604428" d="M 253.667969 193.796875 L 328.503906 193.796875 C 338.605469 193.796875 346.8125 185.589844 346.8125 175.488281 C 346.8125 165.386719 338.605469 157.175781 328.503906 157.175781 L 253.667969 157.175781 C 243.566406 157.175781 235.355469 165.386719 235.355469 175.488281 C 235.355469 185.589844 243.566406 193.796875 253.667969 193.796875 Z M 328.503906 157.53125 C 338.410156 157.53125 346.460938 165.582031 346.460938 175.488281 C 346.460938 185.394531 338.410156 193.445312 328.503906 193.445312 L 253.667969 193.445312 C 243.761719 193.445312 235.710938 185.394531 235.710938 175.488281 C 235.710938 165.582031 243.761719 157.53125 253.667969 157.53125 Z M 328.503906 157.53125 " fill-opacity="1" fill-rule="nonzero"/></g><g clip-path="url(#5ce46fb4fe)"><path fill="#fcd590" d="M 198.730469 258.359375 L 198.730469 261.53125 L 198.738281 261.53125 L 198.738281 293.03125 L 198.730469 293.03125 L 198.730469 296.203125 C 198.730469 297.953125 200.152344 299.375 201.902344 299.375 C 203.652344 299.375 205.074219 297.953125 205.074219 296.203125 L 205.074219 258.359375 C 205.074219 256.609375 203.660156 255.183594 201.910156 255.183594 C 200.160156 255.183594 198.730469 256.609375 198.730469 258.359375 Z M 198.730469 258.359375 " fill-opacity="1" fill-rule="nonzero"/></g><path fill="#fcd590" d="M 200.3125 285.199219 L 200.3125 296.203125 C 200.3125 296.644531 200.664062 297 201.109375 297 C 201.550781 297 201.902344 296.644531 201.902344 296.203125 L 201.902344 293.03125 L 201.894531 293.03125 L 201.894531 285.207031 C 201.894531 284.765625 201.539062 284.414062 201.097656 284.414062 C 200.65625 284.414062 200.3125 284.765625 200.3125 285.199219 Z M 200.3125 285.199219 " fill-opacity="1" fill-rule="nonzero"/><g clip-path="url(#a91411af3e)"><path fill="#fcd590" d="M 167.601562 256.558594 L 167.601562 259.730469 L 167.609375 259.730469 L 167.609375 291.230469 L 167.601562 291.230469 L 167.601562 294.402344 C 167.601562 296.152344 169.023438 297.574219 170.773438 297.574219 C 172.523438 297.574219 173.945312 296.152344 173.945312 294.402344 L 173.945312 256.558594 C 173.945312 254.808594 172.53125 253.382812 170.78125 253.382812 C 169.03125 253.382812 167.601562 254.808594 167.601562 256.558594 Z M 167.601562 256.558594 " fill-opacity="1" fill-rule="nonzero"/></g><path fill="#fcd590" d="M 169.183594 283.398438 L 169.183594 294.402344 C 169.183594 294.84375 169.535156 295.199219 169.980469 295.199219 C 170.421875 295.199219 170.773438 294.84375 170.773438 294.402344 L 170.773438 291.230469 L 170.765625 291.230469 L 170.765625 283.410156 C 170.765625 282.964844 170.410156 282.613281 169.96875 282.613281 C 169.527344 282.613281 169.183594 282.964844 169.183594 283.398438 Z M 169.183594 283.398438 " fill-opacity="1" fill-rule="nonzero"/><g clip-path="url(#f00d595be5)"><g clip-path="url(#853645e634)"><g clip-path="url(#fa4fea976b)"><path fill="#fcd590" d="M 151.988281 286.074219 L 154.054688 288.035156 L 154.058594 288.03125 L 174.566406 307.484375 L 174.5625 307.488281 L 176.625 309.449219 C 177.765625 310.53125 179.570312 310.484375 180.652344 309.34375 C 181.734375 308.203125 181.683594 306.398438 180.546875 305.316406 L 155.90625 281.945312 C 154.769531 280.863281 152.96875 280.90625 151.886719 282.042969 C 150.804688 283.183594 150.847656 284.996094 151.988281 286.074219 Z M 151.988281 286.074219 " fill-opacity="1" fill-rule="nonzero"/></g></g></g><g clip-path="url(#8476e79460)"><g clip-path="url(#4e012b8dd5)"><g clip-path="url(#84c7baa3be)"><path fill="#fcd590" d="M 170.441406 301.625 L 177.601562 308.417969 C 177.890625 308.691406 178.339844 308.679688 178.613281 308.394531 C 178.886719 308.105469 178.875 307.65625 178.585938 307.382812 L 176.519531 305.425781 L 176.515625 305.429688 L 171.421875 300.597656 C 171.136719 300.324219 170.6875 300.335938 170.414062 300.625 C 170.140625 300.914062 170.15625 301.355469 170.441406 301.625 Z M 170.441406 301.625 " fill-opacity="1" fill-rule="nonzero"/></g></g></g><g clip-path="url(#8ab4661bb1)"><g clip-path="url(#9dbe11b65b)"><g clip-path="url(#d913aab555)"><path fill="#fcd590" d="M 150.296875 304.464844 L 153.078125 303.851562 L 153.074219 303.84375 L 180.675781 297.746094 L 180.679688 297.753906 L 183.457031 297.140625 C 184.992188 296.800781 185.964844 295.28125 185.625 293.746094 C 185.285156 292.214844 183.765625 291.242188 182.230469 291.582031 L 149.066406 298.90625 C 147.535156 299.242188 146.5625 300.757812 146.898438 302.292969 C 147.238281 303.824219 148.761719 304.804688 150.296875 304.464844 Z M 150.296875 304.464844 " fill-opacity="1" fill-rule="nonzero"/></g></g></g><g clip-path="url(#cbab9898e6)"><g clip-path="url(#2406c0f359)"><g clip-path="url(#2c2143925e)"><path fill="#fcd590" d="M 173.511719 297.882812 L 183.152344 295.753906 C 183.539062 295.667969 183.78125 295.289062 183.695312 294.902344 C 183.609375 294.515625 183.230469 294.273438 182.84375 294.359375 L 180.0625 294.972656 L 180.066406 294.980469 L 173.210938 296.496094 C 172.824219 296.582031 172.582031 296.960938 172.667969 297.347656 C 172.753906 297.734375 173.128906 297.96875 173.511719 297.882812 Z M 173.511719 297.882812 " fill-opacity="1" fill-rule="nonzero"/></g></g></g><g clip-path="url(#49fc835c49)"><g clip-path="url(#16f1ca97ff)"><g clip-path="url(#467ad1371a)"><path fill="#fcd590" d="M 194.714844 286.976562 L 196.78125 288.9375 L 196.777344 288.941406 L 217.285156 308.398438 L 217.289062 308.390625 L 219.355469 310.351562 C 220.496094 311.429688 220.542969 313.238281 219.460938 314.375 C 218.378906 315.515625 216.574219 315.5625 215.4375 314.480469 L 190.796875 291.109375 C 189.660156 290.027344 189.605469 288.226562 190.6875 287.089844 C 191.765625 285.949219 193.578125 285.894531 194.714844 286.976562 Z M 194.714844 286.976562 " fill-opacity="1" fill-rule="nonzero"/></g></g></g><g clip-path="url(#cea29875d7)"><g clip-path="url(#b2f912dd8c)"><g clip-path="url(#75c7ec4a35)"><path fill="#fcd590" d="M 211.214844 304.585938 L 218.378906 311.378906 C 218.664062 311.652344 218.675781 312.101562 218.40625 312.390625 C 218.132812 312.675781 217.683594 312.6875 217.394531 312.417969 L 215.328125 310.457031 L 215.335938 310.449219 L 210.242188 305.621094 C 209.957031 305.347656 209.945312 304.898438 210.214844 304.609375 C 210.488281 304.324219 210.933594 304.316406 211.214844 304.585938 Z M 211.214844 304.585938 " fill-opacity="1" fill-rule="nonzero"/></g></g></g><g clip-path="url(#a1fbed530a)"><g clip-path="url(#f65a814192)"><g clip-path="url(#db8105c7b7)"><path fill="#fcd590" d="M 187.882812 299.285156 L 190.664062 298.671875 L 190.667969 298.679688 L 218.269531 292.582031 L 218.265625 292.574219 L 221.046875 291.960938 C 222.582031 291.621094 224.101562 292.59375 224.441406 294.128906 C 224.78125 295.660156 223.808594 297.183594 222.273438 297.523438 L 189.113281 304.847656 C 187.578125 305.183594 186.058594 304.222656 185.71875 302.6875 C 185.382812 301.152344 186.351562 299.625 187.882812 299.285156 Z M 187.882812 299.285156 " fill-opacity="1" fill-rule="nonzero"/></g></g></g><g clip-path="url(#a45fab9c85)"><g clip-path="url(#c578d12de2)"><g clip-path="url(#6dba623e15)"><path fill="#fcd590" d="M 211.710938 295.476562 L 221.351562 293.347656 C 221.742188 293.261719 222.117188 293.503906 222.203125 293.890625 C 222.289062 294.277344 222.046875 294.65625 221.660156 294.742188 L 218.878906 295.355469 L 218.878906 295.347656 L 212.023438 296.863281 C 211.636719 296.945312 211.257812 296.707031 211.175781 296.320312 C 211.089844 295.929688 211.332031 295.5625 211.710938 295.476562 Z M 211.710938 295.476562 " fill-opacity="1" fill-rule="nonzero"/></g></g></g><g clip-path="url(#14ae649e80)"><path fill="#442f19" d="M 252.488281 214.75 C 252.488281 215.832031 252.460938 216.917969 252.40625 218 C 252.355469 219.082031 252.273438 220.164062 252.167969 221.242188 C 252.0625 222.320312 251.929688 223.398438 251.769531 224.46875 C 251.609375 225.542969 251.425781 226.609375 251.214844 227.671875 C 251.003906 228.734375 250.765625 229.792969 250.5 230.84375 C 250.238281 231.894531 249.949219 232.941406 249.632812 233.976562 C 249.320312 235.015625 248.980469 236.042969 248.613281 237.066406 C 248.25 238.085938 247.859375 239.097656 247.445312 240.097656 C 247.03125 241.101562 246.589844 242.089844 246.125 243.070312 C 245.664062 244.050781 245.175781 245.019531 244.664062 245.976562 C 244.152344 246.929688 243.621094 247.875 243.0625 248.804688 C 242.503906 249.734375 241.925781 250.648438 241.324219 251.550781 C 240.722656 252.453125 240.097656 253.339844 239.449219 254.207031 C 238.804688 255.078125 238.136719 255.933594 237.449219 256.773438 C 236.761719 257.609375 236.054688 258.429688 235.328125 259.234375 C 234.597656 260.035156 233.851562 260.820312 233.085938 261.589844 C 232.320312 262.355469 231.535156 263.101562 230.730469 263.832031 C 229.925781 264.558594 229.105469 265.265625 228.269531 265.953125 C 227.429688 266.640625 226.578125 267.308594 225.707031 267.953125 C 224.835938 268.601562 223.949219 269.222656 223.046875 269.828125 C 222.144531 270.429688 221.230469 271.007812 220.300781 271.566406 C 219.371094 272.121094 218.429688 272.65625 217.472656 273.167969 C 216.515625 273.679688 215.546875 274.167969 214.566406 274.628906 C 213.585938 275.09375 212.597656 275.53125 211.59375 275.949219 C 210.59375 276.363281 209.582031 276.753906 208.5625 277.117188 C 207.542969 277.484375 206.511719 277.824219 205.476562 278.136719 C 204.4375 278.453125 203.394531 278.742188 202.339844 279.003906 C 201.289062 279.269531 200.234375 279.503906 199.167969 279.71875 C 198.105469 279.929688 197.039062 280.113281 195.964844 280.273438 C 194.894531 280.433594 193.816406 280.566406 192.738281 280.671875 C 191.660156 280.777344 190.578125 280.855469 189.496094 280.910156 C 188.414062 280.964844 187.332031 280.988281 186.246094 280.988281 C 185.164062 280.988281 184.078125 280.964844 182.996094 280.910156 C 181.914062 280.855469 180.832031 280.777344 179.753906 280.671875 C 178.675781 280.566406 177.597656 280.433594 176.527344 280.273438 C 175.453125 280.113281 174.386719 279.929688 173.324219 279.71875 C 172.261719 279.503906 171.203125 279.269531 170.152344 279.003906 C 169.101562 278.742188 168.054688 278.453125 167.019531 278.136719 C 165.980469 277.824219 164.953125 277.484375 163.929688 277.117188 C 162.910156 276.753906 161.898438 276.363281 160.898438 275.949219 C 159.894531 275.53125 158.90625 275.09375 157.925781 274.628906 C 156.945312 274.167969 155.976562 273.679688 155.019531 273.167969 C 154.066406 272.65625 153.121094 272.121094 152.191406 271.566406 C 151.261719 271.007812 150.347656 270.429688 149.445312 269.828125 C 148.542969 269.222656 147.65625 268.601562 146.789062 267.953125 C 145.917969 267.308594 145.0625 266.640625 144.222656 265.953125 C 143.386719 265.265625 142.566406 264.558594 141.761719 263.832031 C 140.957031 263.101562 140.175781 262.355469 139.40625 261.589844 C 138.640625 260.820312 137.894531 260.035156 137.164062 259.234375 C 136.4375 258.429688 135.730469 257.609375 135.042969 256.773438 C 134.355469 255.933594 133.6875 255.078125 133.042969 254.207031 C 132.394531 253.339844 131.773438 252.453125 131.167969 251.550781 C 130.566406 250.648438 129.988281 249.734375 129.429688 248.804688 C 128.871094 247.875 128.339844 246.929688 127.828125 245.976562 C 127.316406 245.019531 126.828125 244.050781 126.367188 243.070312 C 125.902344 242.089844 125.464844 241.101562 125.046875 240.097656 C 124.632812 239.097656 124.242188 238.085938 123.878906 237.066406 C 123.511719 236.042969 123.171875 235.015625 122.859375 233.976562 C 122.542969 232.941406 122.253906 231.894531 121.992188 230.84375 C 121.726562 229.792969 121.492188 228.734375 121.277344 227.671875 C 121.066406 226.609375 120.882812 225.542969 120.722656 224.46875 C 120.5625 223.398438 120.429688 222.320312 120.324219 221.242188 C 120.21875 220.164062 120.140625 219.082031 120.085938 218 C 120.03125 216.917969 120.007812 215.832031 120.007812 214.75 C 120.007812 213.664062 120.03125 212.582031 120.085938 211.5 C 120.140625 210.417969 120.21875 209.335938 120.324219 208.257812 C 120.429688 207.179688 120.5625 206.101562 120.722656 205.03125 C 120.882812 203.957031 121.066406 202.890625 121.277344 201.828125 C 121.492188 200.761719 121.726562 199.707031 121.992188 198.65625 C 122.253906 197.601562 122.542969 196.558594 122.859375 195.519531 C 123.171875 194.484375 123.511719 193.453125 123.878906 192.433594 C 124.242188 191.414062 124.632812 190.402344 125.046875 189.402344 C 125.464844 188.398438 125.902344 187.40625 126.367188 186.429688 C 126.828125 185.449219 127.316406 184.480469 127.828125 183.523438 C 128.339844 182.566406 128.871094 181.625 129.429688 180.695312 C 129.988281 179.765625 130.566406 178.851562 131.167969 177.949219 C 131.773438 177.046875 132.394531 176.160156 133.042969 175.289062 C 133.6875 174.417969 134.355469 173.566406 135.042969 172.726562 C 135.730469 171.890625 136.4375 171.070312 137.164062 170.265625 C 137.894531 169.460938 138.640625 168.675781 139.40625 167.910156 C 140.175781 167.144531 140.957031 166.398438 141.761719 165.667969 C 142.566406 164.941406 143.386719 164.234375 144.222656 163.546875 C 145.0625 162.855469 145.917969 162.191406 146.789062 161.542969 C 147.65625 160.898438 148.542969 160.273438 149.445312 159.671875 C 150.347656 159.070312 151.261719 158.492188 152.191406 157.933594 C 153.121094 157.375 154.066406 156.84375 155.019531 156.332031 C 155.976562 155.820312 156.945312 155.332031 157.925781 154.867188 C 158.90625 154.40625 159.894531 153.964844 160.898438 153.550781 C 161.898438 153.136719 162.910156 152.746094 163.929688 152.382812 C 164.953125 152.015625 165.980469 151.675781 167.019531 151.363281 C 168.054688 151.046875 169.101562 150.757812 170.152344 150.496094 C 171.203125 150.230469 172.261719 149.992188 173.324219 149.78125 C 174.386719 149.570312 175.453125 149.386719 176.527344 149.226562 C 177.597656 149.066406 178.675781 148.933594 179.753906 148.828125 C 180.832031 148.722656 181.914062 148.640625 182.996094 148.589844 C 184.078125 148.535156 185.164062 148.507812 186.246094 148.507812 C 187.332031 148.507812 188.414062 148.535156 189.496094 148.589844 C 190.578125 148.640625 191.660156 148.722656 192.738281 148.828125 C 193.816406 148.933594 194.894531 149.066406 195.964844 149.226562 C 197.039062 149.386719 198.105469 149.570312 199.167969 149.78125 C 200.234375 149.992188 201.289062 150.230469 202.339844 150.496094 C 203.394531 150.757812 204.4375 151.046875 205.476562 151.363281 C 206.511719 151.675781 207.542969 152.015625 208.5625 152.382812 C 209.582031 152.746094 210.59375 153.136719 211.59375 153.550781 C 212.597656 153.964844 213.585938 154.40625 214.566406 154.867188 C 215.546875 155.332031 216.515625 155.820312 217.472656 156.332031 C 218.429688 156.84375 219.371094 157.375 220.300781 157.933594 C 221.230469 158.492188 222.144531 159.070312 223.046875 159.671875 C 223.949219 160.273438 224.835938 160.898438 225.707031 161.542969 C 226.578125 162.191406 227.429688 162.855469 228.269531 163.546875 C 229.105469 164.234375 229.925781 164.941406 230.730469 165.667969 C 231.535156 166.398438 232.320312 167.144531 233.085938 167.910156 C 233.851562 168.675781 234.597656 169.460938 235.328125 170.265625 C 236.054688 171.070312 236.761719 171.890625 237.449219 172.726562 C 238.136719 173.566406 238.804688 174.417969 239.449219 175.289062 C 240.097656 176.160156 240.722656 177.046875 241.324219 177.949219 C 241.925781 178.851562 242.503906 179.765625 243.0625 180.695312 C 243.621094 181.625 244.152344 182.566406 244.664062 183.523438 C 245.175781 184.480469 245.664062 185.449219 246.125 186.429688 C 246.589844 187.40625 247.03125 188.398438 247.445312 189.402344 C 247.859375 190.402344 248.25 191.414062 248.613281 192.433594 C 248.980469 193.453125 249.320312 194.484375 249.632812 195.519531 C 249.949219 196.558594 250.238281 197.601562 250.5 198.65625 C 250.765625 199.707031 251.003906 200.761719 251.214844 201.828125 C 251.425781 202.890625 251.609375 203.957031 251.769531 205.03125 C 251.929688 206.101562 252.0625 207.179688 252.167969 208.257812 C 252.273438 209.335938 252.355469 210.417969 252.40625 211.5 C 252.460938 212.582031 252.488281 213.664062 252.488281 214.75 Z M 252.488281 214.75 " fill-opacity="1" fill-rule="nonzero"/></g><g clip-path="url(#e39bfac7cc)"><path fill="#ede0d2" d="M 252.488281 170.078125 C 252.488281 171.164062 252.460938 172.246094 252.40625 173.328125 C 252.355469 174.414062 252.273438 175.492188 252.167969 176.570312 C 252.0625 177.652344 251.929688 178.726562 251.769531 179.796875 C 251.609375 180.871094 251.425781 181.9375 251.214844 183.003906 C 251.003906 184.066406 250.765625 185.121094 250.5 186.175781 C 250.238281 187.226562 249.949219 188.269531 249.632812 189.308594 C 249.320312 190.34375 248.980469 191.375 248.613281 192.394531 C 248.25 193.414062 247.859375 194.425781 247.445312 195.429688 C 247.03125 196.429688 246.589844 197.421875 246.125 198.402344 C 245.664062 199.378906 245.175781 200.347656 244.664062 201.304688 C 244.152344 202.261719 243.621094 203.203125 243.0625 204.132812 C 242.503906 205.0625 241.925781 205.980469 241.324219 206.878906 C 240.722656 207.78125 240.097656 208.667969 239.449219 209.539062 C 238.804688 210.410156 238.136719 211.261719 237.449219 212.101562 C 236.761719 212.941406 236.054688 213.761719 235.328125 214.5625 C 234.597656 215.367188 233.851562 216.152344 233.085938 216.917969 C 232.320312 217.683594 231.535156 218.433594 230.730469 219.160156 C 229.925781 219.886719 229.105469 220.597656 228.269531 221.285156 C 227.429688 221.972656 226.578125 222.636719 225.707031 223.285156 C 224.835938 223.929688 223.949219 224.554688 223.046875 225.15625 C 222.144531 225.757812 221.230469 226.339844 220.300781 226.894531 C 219.371094 227.453125 218.429688 227.988281 217.472656 228.496094 C 216.515625 229.007812 215.546875 229.496094 214.566406 229.960938 C 213.585938 230.421875 212.597656 230.863281 211.59375 231.277344 C 210.59375 231.691406 209.582031 232.082031 208.5625 232.445312 C 207.542969 232.8125 206.511719 233.152344 205.476562 233.46875 C 204.4375 233.78125 203.394531 234.070312 202.339844 234.335938 C 201.289062 234.597656 200.234375 234.835938 199.167969 235.046875 C 198.105469 235.257812 197.039062 235.445312 195.964844 235.601562 C 194.894531 235.761719 193.816406 235.894531 192.738281 236 C 191.660156 236.105469 190.578125 236.1875 189.496094 236.238281 C 188.414062 236.292969 187.332031 236.320312 186.246094 236.320312 C 185.164062 236.320312 184.078125 236.292969 182.996094 236.238281 C 181.914062 236.1875 180.832031 236.105469 179.753906 236 C 178.675781 235.894531 177.597656 235.761719 176.527344 235.601562 C 175.453125 235.445312 174.386719 235.257812 173.324219 235.046875 C 172.261719 234.835938 171.203125 234.597656 170.152344 234.335938 C 169.101562 234.070312 168.054688 233.78125 167.019531 233.46875 C 165.980469 233.152344 164.953125 232.8125 163.929688 232.445312 C 162.910156 232.082031 161.898438 231.691406 160.898438 231.277344 C 159.894531 230.863281 158.90625 230.421875 157.925781 229.960938 C 156.945312 229.496094 155.976562 229.007812 155.019531 228.496094 C 154.066406 227.988281 153.121094 227.453125 152.191406 226.894531 C 151.261719 226.339844 150.347656 225.757812 149.445312 225.15625 C 148.542969 224.554688 147.65625 223.929688 146.789062 223.285156 C 145.917969 222.636719 145.0625 221.972656 144.222656 221.285156 C 143.386719 220.597656 142.566406 219.886719 141.761719 219.160156 C 140.957031 218.433594 140.175781 217.683594 139.40625 216.917969 C 138.640625 216.152344 137.894531 215.367188 137.164062 214.5625 C 136.4375 213.761719 135.730469 212.941406 135.042969 212.101562 C 134.355469 211.261719 133.6875 210.410156 133.042969 209.539062 C 132.394531 208.667969 131.773438 207.78125 131.167969 206.878906 C 130.566406 205.980469 129.988281 205.0625 129.429688 204.132812 C 128.871094 203.203125 128.339844 202.261719 127.828125 201.304688 C 127.316406 200.347656 126.828125 199.378906 126.367188 198.402344 C 125.902344 197.421875 125.464844 196.429688 125.046875 195.429688 C 124.632812 194.425781 124.242188 193.414062 123.878906 192.394531 C 123.511719 191.375 123.171875 190.34375 122.859375 189.308594 C 122.542969 188.269531 122.253906 187.226562 121.992188 186.175781 C 121.726562 185.121094 121.492188 184.066406 121.277344 183.003906 C 121.066406 181.9375 120.882812 180.871094 120.722656 179.796875 C 120.5625 178.726562 120.429688 177.652344 120.324219 176.570312 C 120.21875 175.492188 120.140625 174.414062 120.085938 173.328125 C 120.03125 172.246094 120.007812 171.164062 120.007812 170.078125 C 120.007812 168.996094 120.03125 167.910156 120.085938 166.828125 C 120.140625 165.746094 120.21875 164.664062 120.324219 163.585938 C 120.429688 162.507812 120.5625 161.433594 120.722656 160.359375 C 120.882812 159.289062 121.066406 158.21875 121.277344 157.15625 C 121.492188 156.09375 121.726562 155.035156 121.992188 153.984375 C 122.253906 152.933594 122.542969 151.886719 122.859375 150.851562 C 123.171875 149.8125 123.511719 148.785156 123.878906 147.761719 C 124.242188 146.742188 124.632812 145.730469 125.046875 144.730469 C 125.464844 143.730469 125.902344 142.738281 126.367188 141.757812 C 126.828125 140.777344 127.316406 139.808594 127.828125 138.855469 C 128.339844 137.898438 128.871094 136.953125 129.429688 136.023438 C 129.988281 135.09375 130.566406 134.179688 131.167969 133.277344 C 131.773438 132.375 132.394531 131.492188 133.042969 130.621094 C 133.6875 129.75 134.355469 128.894531 135.042969 128.058594 C 135.730469 127.21875 136.4375 126.398438 137.164062 125.59375 C 137.894531 124.792969 138.640625 124.007812 139.40625 123.242188 C 140.175781 122.472656 140.957031 121.726562 141.761719 121 C 142.566406 120.269531 143.386719 119.5625 144.222656 118.875 C 145.0625 118.1875 145.917969 117.519531 146.789062 116.875 C 147.65625 116.230469 148.542969 115.605469 149.445312 115.003906 C 150.347656 114.398438 151.261719 113.820312 152.191406 113.261719 C 153.121094 112.707031 154.066406 112.171875 155.019531 111.660156 C 155.976562 111.148438 156.945312 110.664062 157.925781 110.199219 C 158.90625 109.734375 159.894531 109.296875 160.898438 108.882812 C 161.898438 108.464844 162.910156 108.078125 163.929688 107.710938 C 164.953125 107.347656 165.980469 107.007812 167.019531 106.691406 C 168.054688 106.375 169.101562 106.085938 170.152344 105.824219 C 171.203125 105.5625 172.261719 105.324219 173.324219 105.113281 C 174.386719 104.898438 175.453125 104.714844 176.527344 104.554688 C 177.597656 104.398438 178.675781 104.265625 179.753906 104.15625 C 180.832031 104.050781 181.914062 103.972656 182.996094 103.917969 C 184.078125 103.867188 185.164062 103.839844 186.246094 103.839844 C 187.332031 103.839844 188.414062 103.867188 189.496094 103.917969 C 190.578125 103.972656 191.660156 104.050781 192.738281 104.15625 C 193.816406 104.265625 194.894531 104.398438 195.964844 104.554688 C 197.039062 104.714844 198.105469 104.898438 199.167969 105.113281 C 200.234375 105.324219 201.289062 105.5625 202.339844 105.824219 C 203.394531 106.085938 204.4375 106.375 205.476562 106.691406 C 206.511719 107.007812 207.542969 107.347656 208.5625 107.710938 C 209.582031 108.078125 210.59375 108.464844 211.59375 108.882812 C 212.597656 109.296875 213.585938 109.734375 214.566406 110.199219 C 215.546875 110.664062 216.515625 111.148438 217.472656 111.660156 C 218.429688 112.171875 219.371094 112.707031 220.300781 113.261719 C 221.230469 113.820312 222.144531 114.398438 223.046875 115.003906 C 223.949219 115.605469 224.835938 116.230469 225.707031 116.875 C 226.578125 117.519531 227.429688 118.1875 228.269531 118.875 C 229.105469 119.5625 229.925781 120.269531 230.730469 121 C 231.535156 121.726562 232.320312 122.472656 233.085938 123.242188 C 233.851562 124.007812 234.597656 124.792969 235.328125 125.59375 C 236.054688 126.398438 236.761719 127.21875 237.449219 128.058594 C 238.136719 128.894531 238.804688 129.75 239.449219 130.621094 C 240.097656 131.492188 240.722656 132.375 241.324219 133.277344 C 241.925781 134.179688 242.503906 135.09375 243.0625 136.023438 C 243.621094 136.953125 244.152344 137.898438 244.664062 138.855469 C 245.175781 139.808594 245.664062 140.777344 246.125 141.757812 C 246.589844 142.738281 247.03125 143.730469 247.445312 144.730469 C 247.859375 145.730469 248.25 146.742188 248.613281 147.761719 C 248.980469 148.785156 249.320312 149.8125 249.632812 150.851562 C 249.949219 151.886719 250.238281 152.933594 250.5 153.984375 C 250.765625 155.035156 251.003906 156.09375 251.214844 157.15625 C 251.425781 158.21875 251.609375 159.289062 251.769531 160.359375 C 251.929688 161.433594 252.0625 162.507812 252.167969 163.585938 C 252.273438 164.664062 252.355469 165.746094 252.40625 166.828125 C 252.460938 167.910156 252.488281 168.996094 252.488281 170.078125 Z M 252.488281 170.078125 " fill-opacity="1" fill-rule="nonzero"/></g><g clip-path="url(#cc305512ca)"><g clip-path="url(#941ad647f7)"><path fill="#ffffff" d="M 194.730469 137.191406 L 241.753906 137.191406 L 241.753906 184.210938 L 194.730469 184.210938 Z M 194.730469 137.191406 " fill-opacity="1" fill-rule="nonzero"/></g></g><g clip-path="url(#a24904f925)"><g clip-path="url(#44e5252a41)"><path fill="#ffffff" d="M 131.160156 137.191406 L 178.183594 137.191406 L 178.183594 184.210938 L 131.160156 184.210938 Z M 131.160156 137.191406 " fill-opacity="1" fill-rule="nonzero"/></g></g><g clip-path="url(#8eb38f0a06)"><path fill="#ffb93e" d="M 199.925781 184.207031 C 199.925781 184.660156 199.839844 185.105469 199.664062 185.546875 C 199.488281 185.988281 199.230469 186.417969 198.886719 186.832031 C 198.542969 187.25 198.121094 187.644531 197.621094 188.019531 C 197.121094 188.390625 196.554688 188.738281 195.917969 189.058594 C 195.285156 189.375 194.59375 189.660156 193.847656 189.910156 C 193.101562 190.160156 192.3125 190.371094 191.480469 190.542969 C 190.652344 190.714844 189.796875 190.847656 188.914062 190.933594 C 188.035156 191.023438 187.144531 191.066406 186.246094 191.066406 C 185.347656 191.066406 184.457031 191.023438 183.578125 190.933594 C 182.695312 190.847656 181.839844 190.714844 181.011719 190.542969 C 180.179688 190.371094 179.390625 190.160156 178.644531 189.910156 C 177.898438 189.660156 177.207031 189.375 176.570312 189.058594 C 175.9375 188.738281 175.367188 188.390625 174.871094 188.019531 C 174.371094 187.644531 173.949219 187.25 173.605469 186.832031 C 173.261719 186.417969 173.003906 185.988281 172.828125 185.546875 C 172.652344 185.105469 172.5625 184.660156 172.5625 184.207031 C 172.5625 183.757812 172.652344 183.3125 172.828125 182.871094 C 173.003906 182.429688 173.261719 182 173.605469 181.585938 C 173.949219 181.167969 174.371094 180.773438 174.871094 180.398438 C 175.367188 180.023438 175.9375 179.679688 176.570312 179.359375 C 177.207031 179.042969 177.898438 178.757812 178.644531 178.507812 C 179.390625 178.257812 180.179688 178.046875 181.011719 177.875 C 181.839844 177.699219 182.695312 177.570312 183.578125 177.484375 C 184.457031 177.394531 185.347656 177.351562 186.246094 177.351562 C 187.144531 177.351562 188.035156 177.394531 188.914062 177.484375 C 189.796875 177.570312 190.652344 177.699219 191.480469 177.875 C 192.3125 178.046875 193.101562 178.257812 193.847656 178.507812 C 194.59375 178.757812 195.285156 179.042969 195.917969 179.359375 C 196.554688 179.679688 197.121094 180.023438 197.621094 180.398438 C 198.121094 180.773438 198.542969 181.167969 198.886719 181.585938 C 199.230469 182 199.488281 182.429688 199.664062 182.871094 C 199.839844 183.3125 199.925781 183.757812 199.925781 184.207031 Z M 199.925781 184.207031 " fill-opacity="1" fill-rule="nonzero"/></g><g clip-path="url(#782c666ae1)"><g clip-path="url(#0ee1711cd6)"><path fill="#000000" d="M 203.402344 146.421875 L 232.472656 146.421875 L 232.472656 175.492188 L 203.402344 175.492188 Z M 203.402344 146.421875 " fill-opacity="1" fill-rule="nonzero"/></g></g><g clip-path="url(#05a2ce810a)"><g clip-path="url(#1c574fb9e1)"><path fill="#000000" d="M 141.699219 146.421875 L 170.773438 146.421875 L 170.773438 175.492188 L 141.699219 175.492188 Z M 141.699219 146.421875 " fill-opacity="1" fill-rule="nonzero"/></g></g><g clip-path="url(#c923b72b5c)"><g clip-path="url(#da1bb51e9b)"><path fill="#ffffff" d="M 154.671875 147.035156 L 168.59375 147.035156 L 168.59375 160.957031 L 154.671875 160.957031 Z M 154.671875 147.035156 " fill-opacity="1" fill-rule="nonzero"/></g></g><g clip-path="url(#baff994a66)"><g clip-path="url(#f99d9ac09f)"><path fill="#ffffff" d="M 216.367188 146.78125 L 230.289062 146.78125 L 230.289062 160.703125 L 216.367188 160.703125 Z M 216.367188 146.78125 " fill-opacity="1" fill-rule="nonzero"/></g></g><g clip-path="url(#dea8039dfc)"><path fill="#ede0d2" d="M 214.210938 251.933594 C 204.773438 249.378906 197.710938 251.535156 193.074219 254.269531 C 199.414062 247.820312 209.085938 245.703125 212.179688 245.175781 Z M 203.054688 237.859375 L 205.714844 244.21875 C 200.699219 245.773438 194.140625 248.800781 189.703125 254.378906 C 192.511719 244.617188 200.191406 239.472656 203.054688 237.859375 Z M 171.902344 237.859375 C 174.761719 239.472656 182.441406 244.597656 185.25 254.394531 C 180.8125 248.816406 174.253906 245.792969 169.238281 244.234375 Z M 162.773438 245.175781 C 165.871094 245.703125 175.542969 247.820312 181.878906 254.269531 C 177.242188 251.535156 170.179688 249.378906 160.742188 251.933594 Z M 191.550781 263.722656 L 183.402344 263.722656 C 181.609375 261.40625 173.855469 253.960938 152.683594 262.78125 L 154.515625 256.859375 C 175.632812 246.609375 186.0625 260.679688 186.5 261.296875 C 186.515625 261.316406 186.535156 261.316406 186.554688 261.332031 C 186.570312 261.371094 186.589844 261.40625 186.625 261.421875 C 186.644531 261.441406 186.644531 261.441406 186.644531 261.460938 C 186.679688 261.496094 186.714844 261.515625 186.769531 261.53125 C 186.808594 261.550781 186.84375 261.585938 186.878906 261.605469 C 186.914062 261.621094 186.953125 261.660156 187.007812 261.675781 C 187.023438 261.675781 187.042969 261.695312 187.042969 261.695312 C 187.113281 261.730469 187.207031 261.730469 187.296875 261.75 C 187.351562 261.75 187.386719 261.785156 187.441406 261.785156 C 187.457031 261.785156 187.476562 261.785156 187.496094 261.785156 C 187.511719 261.785156 187.53125 261.785156 187.550781 261.785156 C 187.605469 261.785156 187.640625 261.769531 187.695312 261.75 C 187.785156 261.730469 187.855469 261.730469 187.949219 261.695312 C 187.964844 261.695312 187.984375 261.675781 187.984375 261.675781 C 188.039062 261.660156 188.074219 261.621094 188.109375 261.605469 C 188.148438 261.585938 188.183594 261.570312 188.21875 261.53125 C 188.253906 261.496094 188.308594 261.476562 188.347656 261.460938 C 188.363281 261.441406 188.363281 261.441406 188.363281 261.421875 C 188.402344 261.386719 188.417969 261.371094 188.4375 261.332031 C 188.453125 261.316406 188.472656 261.316406 188.492188 261.296875 C 188.925781 260.679688 199.359375 246.609375 220.476562 256.859375 L 222.304688 262.78125 C 201.113281 253.960938 193.34375 261.421875 191.550781 263.722656 Z M 191.550781 263.722656 " fill-opacity="1" fill-rule="nonzero"/></g><g clip-path="url(#9c624a82b0)"><g clip-path="url(#7d19ce1b74)"><g clip-path="url(#a48eed7a0d)"><g clip-path="url(#2da7781688)"><path fill="#060001" d="M 199.648438 102.761719 C 201.070312 91.085938 196.882812 37.421875 195.636719 21.671875 C 195.617188 21.390625 195.570312 21.113281 195.496094 20.84375 C 195.421875 20.570312 195.320312 20.308594 195.191406 20.058594 C 195.066406 19.808594 194.914062 19.570312 194.738281 19.351562 C 194.566406 19.128906 194.371094 18.929688 194.15625 18.746094 C 193.941406 18.566406 193.710938 18.40625 193.460938 18.269531 C 193.214844 18.136719 192.957031 18.027344 192.6875 17.941406 C 192.421875 17.859375 192.144531 17.800781 191.867188 17.773438 C 191.585938 17.746094 191.304688 17.746094 191.027344 17.773438 C 151.199219 22.324219 121.433594 31.589844 111.074219 35.125 C 110.808594 35.222656 110.558594 35.339844 110.316406 35.488281 C 110.074219 35.632812 109.851562 35.800781 109.640625 35.988281 C 109.433594 36.179688 109.246094 36.386719 109.082031 36.617188 C 108.917969 36.84375 108.773438 37.085938 108.65625 37.339844 C 108.539062 37.597656 108.449219 37.859375 108.382812 38.132812 C 108.316406 38.410156 108.28125 38.6875 108.273438 38.96875 C 108.261719 39.25 108.28125 39.527344 108.328125 39.804688 C 108.375 40.082031 108.449219 40.355469 108.546875 40.617188 C 117.15625 63.863281 137.773438 108.011719 139.300781 113.640625 Z M 199.648438 102.761719 " fill-opacity="1" fill-rule="nonzero"/></g></g></g></g><g clip-path="url(#a254f90155)"><g clip-path="url(#96c80c3048)"><g clip-path="url(#d1ddec6c9c)"><g clip-path="url(#48b7b82886)"><path fill="#d71e32" d="M 134.804688 103.21875 L 199.871094 87.75 C 200.027344 87.710938 200.1875 87.710938 200.34375 87.742188 C 200.503906 87.773438 200.648438 87.835938 200.78125 87.929688 C 200.910156 88.023438 201.019531 88.140625 201.097656 88.28125 C 201.179688 88.421875 201.226562 88.570312 201.242188 88.730469 L 202.664062 103.695312 C 202.691406 103.980469 202.621094 104.238281 202.449219 104.46875 C 202.277344 104.699219 202.050781 104.84375 201.769531 104.898438 L 139.234375 116.699219 C 138.964844 116.75 138.707031 116.707031 138.46875 116.570312 C 138.230469 116.429688 138.066406 116.230469 137.976562 115.972656 L 134.007812 104.683594 C 133.957031 104.53125 133.933594 104.378906 133.949219 104.21875 C 133.960938 104.0625 134.003906 103.914062 134.082031 103.773438 C 134.15625 103.632812 134.257812 103.515625 134.382812 103.421875 C 134.507812 103.324219 134.648438 103.257812 134.804688 103.21875 Z M 134.804688 103.21875 " fill-opacity="1" fill-rule="nonzero"/></g></g></g></g><g clip-path="url(#a5e6bd0281)"><g clip-path="url(#7b237e3acb)"><g clip-path="url(#b2a9a365f2)"><g clip-path="url(#28db4e6aef)"><path fill="#060001" d="M 116.167969 117.269531 C 116.167969 117.269531 107.710938 117.980469 106.933594 118.167969 C 104.128906 118.847656 105.941406 129.710938 106.84375 134.308594 C 106.894531 134.605469 106.996094 134.886719 107.140625 135.152344 C 107.285156 135.417969 107.46875 135.648438 107.691406 135.851562 C 107.914062 136.058594 108.164062 136.21875 108.441406 136.339844 C 108.71875 136.460938 109.003906 136.535156 109.304688 136.5625 C 115.902344 137.042969 138.523438 137.78125 176.644531 129.875 C 213.839844 122.152344 231.886719 113.125 237.417969 109.972656 C 237.691406 109.808594 237.929688 109.601562 238.132812 109.355469 C 238.335938 109.109375 238.492188 108.835938 238.601562 108.535156 C 238.710938 108.234375 238.765625 107.925781 238.765625 107.605469 C 238.765625 107.285156 238.714844 106.972656 238.609375 106.671875 C 237.5 103.359375 235.339844 97.019531 233.929688 93.742188 C 233.808594 93.445312 233.640625 93.179688 233.425781 92.941406 C 233.207031 92.707031 232.957031 92.515625 232.671875 92.367188 C 232.390625 92.222656 232.085938 92.132812 231.769531 92.09375 C 231.453125 92.054688 231.136719 92.074219 230.828125 92.148438 C 196.671875 100.953125 155.242188 113.832031 116.167969 117.269531 Z M 116.167969 117.269531 " fill-opacity="1" fill-rule="nonzero"/></g></g></g></g></svg>