<svg width="351" height="311" viewBox="0 0 351 311" fill="none" xmlns="http://www.w3.org/2000/svg">
<mask id="mask0_47_13830" style="mask-type:luminance" maskUnits="userSpaceOnUse" x="120" y="152" width="121" height="74">
<path d="M120.333 152H240.333V225.333H120.333V152Z" fill="white"/>
</mask>
<g mask="url(#mask0_47_13830)">
<mask id="mask1_47_13830" style="mask-type:luminance" maskUnits="userSpaceOnUse" x="115" y="145" width="132" height="86">
<path d="M115.24 192.87L231.068 145.88L246.479 183.87L130.651 230.865L115.24 192.87Z" fill="white"/>
</mask>
<g mask="url(#mask1_47_13830)">
<mask id="mask2_47_13830" style="mask-type:luminance" maskUnits="userSpaceOnUse" x="115" y="145" width="132" height="86">
<path d="M115.24 192.87L231.068 145.88L246.479 183.87L130.651 230.865L115.24 192.87Z" fill="white"/>
</mask>
<g mask="url(#mask2_47_13830)">
<path d="M227.453 191.485L149.651 223.047C139.24 227.271 127.37 222.255 123.151 211.844C118.927 201.433 123.943 189.568 134.354 185.344L212.151 153.781C222.562 149.558 234.432 154.573 238.656 164.985C242.88 175.396 237.859 187.261 227.453 191.485Z" fill="#604428"/>
</g>
</g>
</g>
<mask id="mask3_47_13830" style="mask-type:luminance" maskUnits="userSpaceOnUse" x="120" y="152" width="122" height="74">
<path d="M120.333 152H241.667V225.333H120.333V152Z" fill="white"/>
</mask>
<g mask="url(#mask3_47_13830)">
<mask id="mask4_47_13830" style="mask-type:luminance" maskUnits="userSpaceOnUse" x="115" y="145" width="132" height="86">
<path d="M115.24 192.87L231.068 145.88L246.479 183.87L130.651 230.865L115.24 192.87Z" fill="white"/>
</mask>
<g mask="url(#mask4_47_13830)">
<mask id="mask5_47_13830" style="mask-type:luminance" maskUnits="userSpaceOnUse" x="115" y="145" width="132" height="86">
<path d="M115.24 192.87L231.068 145.88L246.479 183.87L130.651 230.865L115.24 192.87Z" fill="white"/>
</mask>
<g mask="url(#mask5_47_13830)">
<path d="M227.526 191.667L149.724 223.234C139.224 227.495 127.224 222.422 122.964 211.917C118.703 201.417 123.776 189.422 134.276 185.161L212.078 153.594C222.583 149.333 234.578 154.406 238.839 164.906C243.099 175.411 238.026 187.406 227.526 191.667ZM134.427 185.526C124.125 189.708 119.156 201.469 123.333 211.771C127.51 222.068 139.276 227.042 149.573 222.865L227.375 191.302C237.677 187.12 242.651 175.359 238.469 165.057C234.292 154.76 222.526 149.786 212.229 153.963L134.427 185.526Z" fill="#604428"/>
</g>
</g>
</g>
<mask id="mask6_47_13830" style="mask-type:luminance" maskUnits="userSpaceOnUse" x="79" y="120" width="143" height="87">
<path d="M79 120H221.667V206.667H79V120Z" fill="white"/>
</mask>
<g mask="url(#mask6_47_13830)">
<mask id="mask7_47_13830" style="mask-type:luminance" maskUnits="userSpaceOnUse" x="72" y="112" width="157" height="103">
<path d="M72.4375 168.88L210.505 112.865L228.927 158.271L90.8594 214.281L72.4375 168.88Z" fill="white"/>
</mask>
<g mask="url(#mask7_47_13830)">
<mask id="mask8_47_13830" style="mask-type:luminance" maskUnits="userSpaceOnUse" x="72" y="112" width="157" height="103">
<path d="M72.4375 168.88L210.505 112.865L228.927 158.271L90.8594 214.281L72.4375 168.88Z" fill="white"/>
</mask>
<g mask="url(#mask8_47_13830)">
<path d="M205.792 167.224L113.333 204.734C100.958 209.755 86.8594 203.792 81.8385 191.422C76.8177 179.047 82.7813 164.943 95.151 159.927L187.615 122.412C199.984 117.396 214.089 123.359 219.109 135.729C224.13 148.099 218.167 162.203 205.792 167.224Z" fill="#604428"/>
</g>
</g>
</g>
<mask id="mask9_47_13830" style="mask-type:luminance" maskUnits="userSpaceOnUse" x="79" y="120" width="143" height="88">
<path d="M79 120H221.667V208H79V120Z" fill="white"/>
</mask>
<g mask="url(#mask9_47_13830)">
<mask id="mask10_47_13830" style="mask-type:luminance" maskUnits="userSpaceOnUse" x="72" y="112" width="157" height="103">
<path d="M72.4375 168.88L210.505 112.865L228.927 158.271L90.8594 214.281L72.4375 168.88Z" fill="white"/>
</mask>
<g mask="url(#mask10_47_13830)">
<mask id="mask11_47_13830" style="mask-type:luminance" maskUnits="userSpaceOnUse" x="72" y="112" width="157" height="103">
<path d="M72.4375 168.88L210.505 112.865L228.927 158.271L90.8594 214.281L72.4375 168.88Z" fill="white"/>
</mask>
<g mask="url(#mask11_47_13830)">
<path d="M205.88 167.443L113.422 204.954C100.937 210.016 86.6823 203.99 81.6198 191.511C76.5573 179.026 82.5833 164.771 95.0625 159.709L187.526 122.193C200.005 117.131 214.266 123.162 219.328 135.641C224.391 148.12 218.365 162.381 205.88 167.443ZM95.2396 160.146C83 165.11 77.0885 179.089 82.0573 191.334C87.0208 203.573 101.005 209.485 113.245 204.516L205.703 167.006C217.943 162.037 223.854 148.058 218.891 135.818C213.922 123.579 199.943 117.667 187.703 122.631L95.2396 160.146Z" fill="#604428"/>
</g>
</g>
</g>
<mask id="mask12_47_13830" style="mask-type:luminance" maskUnits="userSpaceOnUse" x="44" y="100" width="143" height="88">
<path d="M44.3333 100H187V188H44.3333V100Z" fill="white"/>
</mask>
<g mask="url(#mask12_47_13830)">
<mask id="mask13_47_13830" style="mask-type:luminance" maskUnits="userSpaceOnUse" x="37" y="93" width="157" height="102">
<path d="M37.2448 149.302L175.312 93.2866L193.734 138.693L55.6666 194.708L37.2448 149.302Z" fill="white"/>
</mask>
<g mask="url(#mask13_47_13830)">
<mask id="mask14_47_13830" style="mask-type:luminance" maskUnits="userSpaceOnUse" x="37" y="93" width="157" height="102">
<path d="M37.2448 149.302L175.312 93.2866L193.734 138.693L55.6666 194.708L37.2448 149.302Z" fill="white"/>
</mask>
<g mask="url(#mask14_47_13830)">
<path d="M170.599 147.646L78.1405 185.157C65.7655 190.177 51.6614 184.214 46.6457 171.844C41.6249 159.469 47.5884 145.37 59.9582 140.349L152.422 102.839C164.792 97.818 178.896 103.782 183.917 116.151C188.932 128.521 182.974 142.625 170.599 147.646Z" fill="#604428"/>
<path d="M170.687 147.865L78.2291 185.375C65.7447 190.438 51.4895 184.412 46.427 171.932C41.3645 159.448 47.3906 145.193 59.8697 140.13L152.333 102.62C164.812 97.5521 179.068 103.583 184.135 116.063C189.198 128.542 183.172 142.802 170.687 147.865ZM60.0468 140.568C47.8072 145.531 41.8958 159.516 46.8645 171.755C51.8281 183.995 65.8072 189.906 78.052 184.938L170.51 147.427C182.75 142.464 188.661 128.479 183.698 116.24C178.729 104 164.75 98.0886 152.51 103.057L60.0468 140.568Z" fill="#604428"/>
</g>
</g>
</g>
<mask id="mask15_47_13830" style="mask-type:luminance" maskUnits="userSpaceOnUse" x="247" y="244" width="39" height="51">
<path d="M247 244H285.667V294.667H247V244Z" fill="white"/>
</mask>
<g mask="url(#mask15_47_13830)">
<mask id="mask16_47_13830" style="mask-type:luminance" maskUnits="userSpaceOnUse" x="246" y="242" width="41" height="55">
<path d="M279.875 296.01L246.464 247.38L253.057 242.854L286.469 291.479L279.875 296.01Z" fill="white"/>
</mask>
<g mask="url(#mask16_47_13830)">
<mask id="mask17_47_13830" style="mask-type:luminance" maskUnits="userSpaceOnUse" x="246" y="242" width="41" height="55">
<path d="M279.875 296.01L246.464 247.38L253.057 242.854L286.469 291.479L279.875 296.01Z" fill="white"/>
</mask>
<g mask="url(#mask17_47_13830)">
<path d="M248.917 250.921L251.312 254.411L251.323 254.406L275.109 289.02L275.099 289.026L277.495 292.51C278.818 294.437 281.453 294.921 283.38 293.604C285.302 292.281 285.792 289.645 284.469 287.718L255.891 246.13C254.568 244.208 251.943 243.713 250.021 245.036C248.094 246.354 247.599 249 248.917 250.921Z" fill="#FCD590"/>
</g>
</g>
</g>
<mask id="mask18_47_13830" style="mask-type:luminance" maskUnits="userSpaceOnUse" x="269" y="277" width="13" height="15">
<path d="M269.667 277.333H281.667V292H269.667V277.333Z" fill="white"/>
</mask>
<g mask="url(#mask18_47_13830)">
<mask id="mask19_47_13830" style="mask-type:luminance" maskUnits="userSpaceOnUse" x="246" y="242" width="41" height="55">
<path d="M279.875 296.011L246.464 247.381L253.057 242.854L286.469 291.479L279.875 296.011Z" fill="white"/>
</mask>
<g mask="url(#mask19_47_13830)">
<mask id="mask20_47_13830" style="mask-type:luminance" maskUnits="userSpaceOnUse" x="246" y="242" width="41" height="55">
<path d="M279.875 296.011L246.464 247.381L253.057 242.854L286.469 291.479L279.875 296.011Z" fill="white"/>
</mask>
<g mask="url(#mask20_47_13830)">
<path d="M270.927 279.224L279.234 291.318C279.568 291.802 280.224 291.927 280.708 291.589C281.193 291.256 281.318 290.605 280.984 290.115L278.589 286.631L278.578 286.636L272.672 278.042C272.339 277.558 271.682 277.433 271.198 277.766C270.708 278.099 270.599 278.75 270.927 279.224Z" fill="#FCD590"/>
</g>
</g>
</g>
<mask id="mask21_47_13830" style="mask-type:luminance" maskUnits="userSpaceOnUse" x="119" y="232" width="52" height="38">
<path d="M119 232H171V269.333H119V232Z" fill="white"/>
</mask>
<g mask="url(#mask21_47_13830)">
<mask id="mask22_47_13830" style="mask-type:luminance" maskUnits="userSpaceOnUse" x="117" y="230" width="55" height="40">
<path d="M117.969 262.953L167.562 230.99L171.896 237.719L122.302 269.677L117.969 262.953Z" fill="white"/>
</mask>
<g mask="url(#mask22_47_13830)">
<mask id="mask23_47_13830" style="mask-type:luminance" maskUnits="userSpaceOnUse" x="117" y="230" width="55" height="40">
<path d="M117.969 262.953L167.562 230.99L171.896 237.719L122.302 269.677L117.969 262.953Z" fill="white"/>
</mask>
<g mask="url(#mask23_47_13830)">
<path d="M163.948 233.339L160.391 235.63L160.401 235.641L125.094 258.391L125.089 258.38L121.531 260.672C119.573 261.938 119.005 264.562 120.271 266.521C121.531 268.484 124.156 269.052 126.115 267.786L168.531 240.453C170.495 239.187 171.068 236.578 169.802 234.615C168.542 232.651 165.911 232.078 163.948 233.339Z" fill="#FCD590"/>
</g>
</g>
</g>
<mask id="mask24_47_13830" style="mask-type:luminance" maskUnits="userSpaceOnUse" x="121" y="253" width="17" height="13">
<path d="M121.667 253.333H137.667V265.333H121.667V253.333Z" fill="white"/>
</mask>
<g mask="url(#mask24_47_13830)">
<mask id="mask25_47_13830" style="mask-type:luminance" maskUnits="userSpaceOnUse" x="117" y="230" width="55" height="40">
<path d="M117.969 262.953L167.562 230.99L171.896 237.719L122.302 269.677L117.969 262.953Z" fill="white"/>
</mask>
<g mask="url(#mask25_47_13830)">
<mask id="mask26_47_13830" style="mask-type:luminance" maskUnits="userSpaceOnUse" x="117" y="230" width="55" height="40">
<path d="M117.969 262.953L167.562 230.99L171.896 237.719L122.302 269.677L117.969 262.953Z" fill="white"/>
</mask>
<g mask="url(#mask26_47_13830)">
<path d="M135.01 254.5L122.677 262.448C122.182 262.766 122.042 263.417 122.359 263.912C122.677 264.406 123.328 264.547 123.823 264.229L127.38 261.938L127.375 261.927L136.141 256.281C136.635 255.958 136.776 255.307 136.458 254.813C136.141 254.318 135.495 254.188 135.01 254.5Z" fill="#FCD590"/>
</g>
</g>
</g>
<mask id="mask27_47_13830" style="mask-type:luminance" maskUnits="userSpaceOnUse" x="111" y="233" width="18" height="54">
<path d="M111 233.333H128.333V286.667H111V233.333Z" fill="white"/>
</mask>
<g mask="url(#mask27_47_13830)">
<mask id="mask28_47_13830" style="mask-type:luminance" maskUnits="userSpaceOnUse" x="110" y="233" width="19" height="54">
<path d="M110.469 285.386L120.302 233.308L128.161 234.792L118.328 286.87L110.469 285.386Z" fill="white"/>
</mask>
<g mask="url(#mask28_47_13830)">
<mask id="mask29_47_13830" style="mask-type:luminance" maskUnits="userSpaceOnUse" x="110" y="233" width="19" height="54">
<path d="M110.469 285.386L120.302 233.308L128.161 234.792L118.328 286.87L110.469 285.386Z" fill="white"/>
</mask>
<g mask="url(#mask29_47_13830)">
<path d="M119.589 237.162L118.88 240.891L118.891 240.896L111.901 277.928H111.891L111.187 281.657C110.797 283.714 112.151 285.704 114.214 286.094C116.271 286.48 118.255 285.125 118.646 283.068L127.047 238.568C127.437 236.511 126.089 234.526 124.031 234.136C121.974 233.75 119.974 235.105 119.589 237.162Z" fill="#FCD590"/>
</g>
</g>
</g>
<mask id="mask30_47_13830" style="mask-type:luminance" maskUnits="userSpaceOnUse" x="112" y="268" width="6" height="16">
<path d="M112.333 268H117.667V284H112.333V268Z" fill="white"/>
</mask>
<g mask="url(#mask30_47_13830)">
<mask id="mask31_47_13830" style="mask-type:luminance" maskUnits="userSpaceOnUse" x="110" y="233" width="19" height="54">
<path d="M110.469 285.385L120.302 233.307L128.161 234.792L118.328 286.87L110.469 285.385Z" fill="white"/>
</mask>
<g mask="url(#mask31_47_13830)">
<mask id="mask32_47_13830" style="mask-type:luminance" maskUnits="userSpaceOnUse" x="110" y="233" width="19" height="54">
<path d="M110.469 285.385L120.302 233.307L128.161 234.792L118.328 286.87L110.469 285.385Z" fill="white"/>
</mask>
<g mask="url(#mask32_47_13830)">
<path d="M115.49 269.073L113.047 282.01C112.948 282.526 113.286 283.021 113.802 283.12C114.323 283.219 114.818 282.88 114.917 282.359L115.62 278.63H115.609L117.344 269.432C117.443 268.911 117.109 268.417 116.589 268.323C116.068 268.224 115.583 268.562 115.49 269.073Z" fill="#FCD590"/>
</g>
</g>
</g>
<mask id="mask33_47_13830" style="mask-type:luminance" maskUnits="userSpaceOnUse" x="96" y="241" width="42" height="42">
<path d="M96.3333 241.333H137.667V282.667H96.3333V241.333Z" fill="white"/>
</mask>
<g mask="url(#mask33_47_13830)">
<mask id="mask34_47_13830" style="mask-type:luminance" maskUnits="userSpaceOnUse" x="94" y="240" width="45" height="44">
<path d="M132.599 283.104L94.9583 245.797L100.589 240.115L138.234 277.427L132.599 283.104Z" fill="white"/>
</mask>
<g mask="url(#mask34_47_13830)">
<mask id="mask35_47_13830" style="mask-type:luminance" maskUnits="userSpaceOnUse" x="94" y="240" width="45" height="44">
<path d="M132.599 283.104L94.9583 245.797L100.589 240.115L138.234 277.427L132.599 283.104Z" fill="white"/>
</mask>
<g mask="url(#mask35_47_13830)">
<path d="M97.7552 248.547L100.448 251.219L100.458 251.214L127.224 277.745L127.219 277.75L129.917 280.422C131.401 281.901 133.807 281.885 135.281 280.401C136.755 278.911 136.745 276.505 135.26 275.031L103.099 243.156C101.615 241.682 99.2135 241.682 97.7396 243.172C96.2656 244.656 96.2656 247.073 97.7552 248.547Z" fill="#FCD590"/>
</g>
</g>
</g>
<mask id="mask36_47_13830" style="mask-type:luminance" maskUnits="userSpaceOnUse" x="120" y="268" width="14" height="12">
<path d="M120.333 268H133.667V280H120.333V268Z" fill="white"/>
</mask>
<g mask="url(#mask36_47_13830)">
<mask id="mask37_47_13830" style="mask-type:luminance" maskUnits="userSpaceOnUse" x="94" y="240" width="45" height="44">
<path d="M132.599 283.104L94.9583 245.797L100.589 240.115L138.234 277.427L132.599 283.104Z" fill="white"/>
</mask>
<g mask="url(#mask37_47_13830)">
<mask id="mask38_47_13830" style="mask-type:luminance" maskUnits="userSpaceOnUse" x="94" y="240" width="45" height="44">
<path d="M132.599 283.104L94.9583 245.797L100.589 240.115L138.234 277.427L132.599 283.104Z" fill="white"/>
</mask>
<g mask="url(#mask38_47_13830)">
<path d="M121.896 269.813L131.245 279.078C131.625 279.453 132.219 279.448 132.594 279.073C132.964 278.698 132.964 278.099 132.589 277.729L129.891 275.057L129.885 275.063L123.234 268.474C122.859 268.104 122.26 268.104 121.891 268.479C121.521 268.854 121.526 269.448 121.896 269.813Z" fill="#FCD590"/>
</g>
</g>
</g>
<mask id="mask39_47_13830" style="mask-type:luminance" maskUnits="userSpaceOnUse" x="261" y="285" width="54" height="17">
<path d="M261.667 285.333H315V301.333H261.667V285.333Z" fill="white"/>
</mask>
<g mask="url(#mask39_47_13830)">
<mask id="mask40_47_13830" style="mask-type:luminance" maskUnits="userSpaceOnUse" x="261" y="284" width="54" height="17">
<path d="M262.37 284.797L314.719 293.083L313.469 300.984L261.12 292.698L262.37 284.797Z" fill="white"/>
</mask>
<g mask="url(#mask40_47_13830)">
<mask id="mask41_47_13830" style="mask-type:luminance" maskUnits="userSpaceOnUse" x="261" y="284" width="54" height="17">
<path d="M314.599 293.062L262.25 284.776L261 292.677L313.344 300.963L314.599 293.062Z" fill="white"/>
</mask>
<g mask="url(#mask41_47_13830)">
<path d="M266.12 285.401L269.87 285.995V286.005L307.094 291.901V291.891L310.844 292.484C312.911 292.812 314.328 294.76 314 296.828C313.672 298.896 311.724 300.307 309.656 299.984L264.932 292.901C262.865 292.573 261.448 290.635 261.776 288.568C262.104 286.5 264.052 285.073 266.12 285.401Z" fill="#FCD590"/>
</g>
</g>
</g>
<mask id="mask42_47_13830" style="mask-type:luminance" maskUnits="userSpaceOnUse" x="296" y="292" width="17" height="6">
<path d="M296.333 292H312.333V297.333H296.333V292Z" fill="white"/>
</mask>
<g mask="url(#mask42_47_13830)">
<mask id="mask43_47_13830" style="mask-type:luminance" maskUnits="userSpaceOnUse" x="261" y="284" width="54" height="17">
<path d="M262.37 284.797L314.719 293.083L313.469 300.984L261.12 292.698L262.37 284.797Z" fill="white"/>
</mask>
<g mask="url(#mask43_47_13830)">
<mask id="mask44_47_13830" style="mask-type:luminance" maskUnits="userSpaceOnUse" x="261" y="284" width="54" height="17">
<path d="M314.599 293.062L262.25 284.776L261 292.677L313.344 300.963L314.599 293.062Z" fill="white"/>
</mask>
<g mask="url(#mask44_47_13830)">
<path d="M297.547 292.291L310.547 294.354C311.073 294.437 311.422 294.916 311.339 295.442C311.255 295.963 310.771 296.317 310.25 296.234L306.5 295.64L306.505 295.63L297.26 294.166C296.734 294.083 296.385 293.599 296.469 293.078C296.552 292.552 297.031 292.213 297.547 292.291Z" fill="#FCD590"/>
</g>
</g>
</g>
<mask id="mask45_47_13830" style="mask-type:luminance" maskUnits="userSpaceOnUse" x="265" y="269" width="41" height="42">
<path d="M265.667 269.333H305.667V310.667H265.667V269.333Z" fill="white"/>
</mask>
<g mask="url(#mask45_47_13830)">
<mask id="mask46_47_13830" style="mask-type:luminance" maskUnits="userSpaceOnUse" x="265" y="268" width="43" height="45">
<path d="M265.307 306.854L301.484 268.12L307.328 273.584L271.151 312.313L265.307 306.854Z" fill="white"/>
</mask>
<g mask="url(#mask46_47_13830)">
<mask id="mask47_47_13830" style="mask-type:luminance" maskUnits="userSpaceOnUse" x="265" y="268" width="43" height="45">
<path d="M301.401 268.214L265.219 306.943L271.068 312.407L307.245 273.672L301.401 268.214Z" fill="white"/>
</mask>
<g mask="url(#mask47_47_13830)">
<path d="M267.906 304.089L270.5 301.313L270.505 301.318L296.234 273.776L296.224 273.771L298.818 270.995C300.245 269.469 302.651 269.386 304.182 270.813C305.714 272.245 305.797 274.651 304.365 276.183L273.453 309.271C272.026 310.803 269.625 310.891 268.099 309.459C266.568 308.032 266.479 305.62 267.906 304.089Z" fill="#FCD590"/>
</g>
</g>
</g>
<mask id="mask48_47_13830" style="mask-type:luminance" maskUnits="userSpaceOnUse" x="289" y="270" width="14" height="14">
<path d="M289.667 270.667H303V284H289.667V270.667Z" fill="white"/>
</mask>
<g mask="url(#mask48_47_13830)">
<mask id="mask49_47_13830" style="mask-type:luminance" maskUnits="userSpaceOnUse" x="265" y="268" width="43" height="45">
<path d="M265.307 306.854L301.484 268.12L307.328 273.583L271.151 312.312L265.307 306.854Z" fill="white"/>
</mask>
<g mask="url(#mask49_47_13830)">
<mask id="mask50_47_13830" style="mask-type:luminance" maskUnits="userSpaceOnUse" x="265" y="268" width="43" height="45">
<path d="M301.401 268.213L265.219 306.943L271.068 312.406L307.245 273.672L301.401 268.213Z" fill="white"/>
</mask>
<g mask="url(#mask50_47_13830)">
<path d="M291.214 281.911L300.203 272.292C300.563 271.901 301.161 271.88 301.547 272.245C301.932 272.604 301.953 273.203 301.594 273.588L299 276.365L298.995 276.354L292.604 283.193C292.245 283.583 291.646 283.599 291.26 283.24C290.87 282.88 290.859 282.286 291.214 281.911Z" fill="#FCD590"/>
</g>
</g>
</g>
<mask id="mask51_47_13830" style="mask-type:luminance" maskUnits="userSpaceOnUse" x="126" y="107" width="178" height="178">
<path d="M126.677 107.698H303.677V284.698H126.677V107.698Z" fill="white"/>
</mask>
<g mask="url(#mask51_47_13830)">
<path d="M303.318 196.021C303.318 197.463 303.281 198.906 303.214 200.354C303.141 201.797 303.036 203.234 302.896 204.677C302.75 206.114 302.573 207.547 302.365 208.979C302.151 210.406 301.906 211.833 301.62 213.25C301.339 214.667 301.021 216.078 300.672 217.479C300.323 218.88 299.937 220.271 299.516 221.656C299.094 223.042 298.641 224.411 298.156 225.771C297.667 227.135 297.151 228.479 296.594 229.818C296.042 231.151 295.458 232.474 294.839 233.781C294.219 235.088 293.573 236.375 292.891 237.651C292.208 238.927 291.495 240.182 290.755 241.422C290.01 242.661 289.24 243.885 288.432 245.088C287.63 246.286 286.797 247.469 285.937 248.63C285.078 249.792 284.187 250.932 283.271 252.047C282.354 253.167 281.411 254.26 280.437 255.328C279.469 256.401 278.474 257.448 277.448 258.469C276.427 259.495 275.38 260.489 274.312 261.458C273.24 262.432 272.146 263.375 271.026 264.292C269.911 265.208 268.771 266.099 267.609 266.958C266.448 267.818 265.271 268.651 264.068 269.453C262.865 270.255 261.646 271.031 260.406 271.771C259.167 272.515 257.906 273.229 256.63 273.911C255.359 274.594 254.068 275.239 252.76 275.859C251.453 276.479 250.13 277.062 248.797 277.614C247.464 278.167 246.115 278.687 244.755 279.177C243.391 279.661 242.021 280.114 240.635 280.536C239.255 280.953 237.859 281.338 236.458 281.693C235.057 282.042 233.646 282.359 232.229 282.64C230.812 282.922 229.385 283.172 227.958 283.38C226.526 283.594 225.094 283.771 223.656 283.911C222.219 284.057 220.776 284.161 219.333 284.234C217.891 284.302 216.443 284.338 215 284.338C213.552 284.338 212.109 284.302 210.667 284.234C209.219 284.161 207.781 284.057 206.344 283.911C204.901 283.771 203.469 283.594 202.042 283.38C200.609 283.172 199.187 282.922 197.766 282.64C196.349 282.359 194.943 282.042 193.536 281.693C192.135 281.338 190.745 280.953 189.359 280.536C187.979 280.114 186.604 279.661 185.245 279.177C183.885 278.687 182.536 278.167 181.198 277.614C179.865 277.062 178.542 276.479 177.234 275.859C175.932 275.239 174.641 274.594 173.365 273.911C172.089 273.229 170.833 272.515 169.594 271.771C168.354 271.031 167.13 270.255 165.932 269.453C164.729 268.651 163.547 267.818 162.385 266.958C161.224 266.099 160.089 265.208 158.969 264.292C157.849 263.375 156.755 262.432 155.687 261.458C154.615 260.489 153.568 259.495 152.547 258.469C151.526 257.448 150.526 256.401 149.557 255.328C148.589 254.26 147.641 253.167 146.724 252.047C145.807 250.932 144.922 249.792 144.057 248.63C143.198 247.469 142.365 246.286 141.562 245.088C140.76 243.885 139.984 242.661 139.245 241.422C138.5 240.182 137.786 238.927 137.109 237.651C136.427 236.375 135.776 235.088 135.156 233.781C134.542 232.474 133.953 231.151 133.401 229.818C132.849 228.479 132.328 227.135 131.844 225.771C131.354 224.411 130.901 223.042 130.479 221.656C130.062 220.271 129.677 218.88 129.323 217.479C128.974 216.078 128.656 214.667 128.375 213.25C128.094 211.833 127.844 210.406 127.635 208.979C127.422 207.547 127.245 206.114 127.104 204.677C126.964 203.234 126.854 201.797 126.786 200.354C126.714 198.906 126.677 197.463 126.677 196.021C126.677 194.573 126.714 193.13 126.786 191.682C126.854 190.239 126.964 188.802 127.104 187.359C127.245 185.922 127.422 184.489 127.635 183.057C127.844 181.63 128.094 180.203 128.375 178.786C128.656 177.37 128.974 175.958 129.323 174.557C129.677 173.156 130.062 171.765 130.479 170.38C130.901 168.995 131.354 167.625 131.844 166.265C132.328 164.901 132.849 163.557 133.401 162.219C133.953 160.885 134.542 159.562 135.156 158.255C135.776 156.948 136.427 155.661 137.109 154.385C137.786 153.109 138.5 151.854 139.245 150.614C139.984 149.375 140.76 148.151 141.562 146.948C142.365 145.75 143.198 144.568 144.057 143.406C144.922 142.245 145.807 141.104 146.724 139.989C147.641 138.87 148.589 137.776 149.557 136.708C150.526 135.635 151.526 134.588 152.547 133.568C153.568 132.547 154.615 131.547 155.687 130.578C156.755 129.604 157.849 128.661 158.969 127.745C160.089 126.828 161.224 125.937 162.385 125.078C163.547 124.219 164.729 123.385 165.932 122.583C167.13 121.781 168.354 121.005 169.594 120.265C170.833 119.521 172.089 118.807 173.365 118.125C174.641 117.448 175.932 116.797 177.234 116.177C178.542 115.557 179.865 114.974 181.198 114.422C182.536 113.87 183.885 113.349 185.245 112.859C186.604 112.375 187.979 111.922 189.359 111.5C190.745 111.083 192.135 110.698 193.536 110.344C194.943 109.995 196.349 109.677 197.766 109.396C199.187 109.114 200.609 108.864 202.042 108.656C203.469 108.443 204.901 108.265 206.344 108.125C207.781 107.979 209.219 107.875 210.667 107.802C212.109 107.734 213.552 107.698 215 107.698C216.443 107.698 217.891 107.734 219.333 107.802C220.776 107.875 222.219 107.979 223.656 108.125C225.094 108.265 226.526 108.443 227.958 108.656C229.385 108.864 230.812 109.114 232.229 109.396C233.646 109.677 235.057 109.995 236.458 110.344C237.859 110.698 239.255 111.083 240.635 111.5C242.021 111.922 243.391 112.375 244.755 112.859C246.115 113.349 247.464 113.87 248.797 114.422C250.13 114.974 251.453 115.557 252.76 116.177C254.068 116.797 255.359 117.448 256.63 118.125C257.906 118.807 259.167 119.521 260.406 120.265C261.646 121.005 262.865 121.781 264.068 122.583C265.271 123.385 266.448 124.219 267.609 125.078C268.771 125.937 269.911 126.828 271.026 127.745C272.146 128.661 273.24 129.604 274.312 130.578C275.38 131.547 276.427 132.547 277.448 133.568C278.474 134.588 279.469 135.635 280.437 136.708C281.411 137.776 282.354 138.87 283.271 139.989C284.187 141.104 285.078 142.245 285.937 143.406C286.797 144.568 287.63 145.75 288.432 146.948C289.24 148.151 290.01 149.375 290.755 150.614C291.495 151.854 292.208 153.109 292.891 154.385C293.573 155.661 294.219 156.948 294.839 158.255C295.458 159.562 296.042 160.885 296.594 162.219C297.151 163.557 297.667 164.901 298.156 166.265C298.641 167.625 299.094 168.995 299.516 170.38C299.937 171.765 300.323 173.156 300.672 174.557C301.021 175.958 301.339 177.37 301.62 178.786C301.906 180.203 302.151 181.63 302.365 183.057C302.573 184.489 302.75 185.922 302.896 187.359C303.036 188.802 303.141 190.239 303.214 191.682C303.281 193.13 303.318 194.573 303.318 196.021Z" fill="#442F19"/>
</g>
<mask id="mask52_47_13830" style="mask-type:luminance" maskUnits="userSpaceOnUse" x="126" y="48" width="178" height="178">
<path d="M126.677 48.1353H303.677V225.135H126.677V48.1353Z" fill="white"/>
</mask>
<g mask="url(#mask52_47_13830)">
<path d="M303.318 136.458C303.318 137.901 303.281 139.349 303.214 140.792C303.141 142.234 303.036 143.677 302.896 145.114C302.75 146.552 302.573 147.989 302.365 149.417C302.151 150.849 301.906 152.271 301.62 153.687C301.339 155.104 301.021 156.515 300.672 157.917C300.323 159.318 299.937 160.713 299.516 162.094C299.094 163.479 298.641 164.849 298.156 166.213C297.667 167.573 297.151 168.922 296.594 170.255C296.042 171.594 295.458 172.911 294.839 174.219C294.219 175.526 293.573 176.818 292.891 178.094C292.208 179.364 291.495 180.625 290.755 181.864C290.01 183.104 289.24 184.323 288.432 185.526C287.63 186.729 286.797 187.911 285.937 189.068C285.078 190.229 284.187 191.37 283.271 192.489C282.354 193.604 281.411 194.698 280.437 195.771C279.469 196.844 278.474 197.885 277.448 198.911C276.427 199.932 275.38 200.927 274.312 201.901C273.24 202.87 272.146 203.812 271.026 204.729C269.911 205.646 268.771 206.536 267.609 207.396C266.448 208.26 265.271 209.088 264.068 209.896C262.865 210.698 261.646 211.469 260.406 212.213C259.167 212.958 257.906 213.667 256.63 214.349C255.359 215.031 254.068 215.682 252.76 216.297C251.453 216.917 250.13 217.5 248.797 218.057C247.464 218.609 246.115 219.13 244.755 219.614C243.391 220.104 242.021 220.557 240.635 220.974C239.255 221.396 237.859 221.781 236.458 222.13C235.057 222.484 233.646 222.797 232.229 223.083C230.812 223.364 229.385 223.609 227.958 223.823C226.526 224.036 225.094 224.213 223.656 224.354C222.219 224.495 220.776 224.599 219.333 224.672C217.891 224.745 216.443 224.776 215 224.776C213.552 224.776 212.109 224.745 210.667 224.672C209.219 224.599 207.781 224.495 206.344 224.354C204.901 224.213 203.469 224.036 202.042 223.823C200.609 223.609 199.187 223.364 197.766 223.083C196.349 222.797 194.943 222.484 193.536 222.13C192.135 221.781 190.745 221.396 189.359 220.974C187.979 220.557 186.604 220.104 185.245 219.614C183.885 219.13 182.536 218.609 181.198 218.057C179.865 217.5 178.542 216.917 177.234 216.297C175.932 215.682 174.641 215.031 173.365 214.349C172.089 213.667 170.833 212.958 169.594 212.213C168.354 211.469 167.13 210.698 165.932 209.896C164.729 209.088 163.547 208.26 162.385 207.396C161.224 206.536 160.089 205.646 158.969 204.729C157.849 203.812 156.755 202.87 155.687 201.901C154.615 200.927 153.568 199.932 152.547 198.911C151.526 197.885 150.526 196.844 149.557 195.771C148.589 194.698 147.641 193.604 146.724 192.489C145.807 191.37 144.922 190.229 144.057 189.068C143.198 187.911 142.365 186.729 141.562 185.526C140.76 184.323 139.984 183.104 139.245 181.864C138.5 180.625 137.786 179.364 137.109 178.094C136.427 176.818 135.776 175.526 135.156 174.219C134.542 172.911 133.953 171.594 133.401 170.255C132.849 168.922 132.328 167.573 131.844 166.213C131.354 164.849 130.901 163.479 130.479 162.094C130.062 160.713 129.677 159.318 129.323 157.917C128.974 156.515 128.656 155.104 128.375 153.687C128.094 152.271 127.844 150.849 127.635 149.417C127.422 147.989 127.245 146.552 127.104 145.114C126.964 143.677 126.854 142.234 126.786 140.792C126.714 139.349 126.677 137.901 126.677 136.458C126.677 135.01 126.714 133.568 126.786 132.125C126.854 130.682 126.964 129.239 127.104 127.802C127.245 126.364 127.422 124.927 127.635 123.5C127.844 122.068 128.094 120.646 128.375 119.229C128.656 117.807 128.974 116.401 129.323 115C129.677 113.594 130.062 112.203 130.479 110.818C130.901 109.437 131.354 108.062 131.844 106.703C132.328 105.344 132.849 103.995 133.401 102.661C133.953 101.323 134.542 100.005 135.156 98.6978C135.776 97.3905 136.427 96.0988 137.109 94.8228C137.786 93.5467 138.5 92.2915 139.245 91.0519C139.984 89.8123 140.76 88.5936 141.562 87.3905C142.365 86.1873 143.198 85.005 144.057 83.8436C144.922 82.6821 145.807 81.5467 146.724 80.4269C147.641 79.3123 148.589 78.2186 149.557 77.1457C150.526 76.0728 151.526 75.0259 152.547 74.005C153.568 72.9842 154.615 71.9894 155.687 71.0155C156.755 70.0467 157.849 69.104 158.969 68.1873C160.089 67.2707 161.224 66.38 162.385 65.5207C163.547 64.6561 164.729 63.8228 165.932 63.0207C167.13 62.2186 168.354 61.4478 169.594 60.703C170.833 59.9582 172.089 59.2498 173.365 58.5675C174.641 57.8853 175.932 57.2342 177.234 56.6196C178.542 55.9998 179.865 55.4113 181.198 54.8592C182.536 54.3071 183.885 53.7863 185.245 53.3019C186.604 52.8123 187.979 52.3592 189.359 51.9425C190.745 51.5207 192.135 51.1353 193.536 50.7863C194.943 50.4321 196.349 50.1144 197.766 49.8332C199.187 49.5519 200.609 49.3071 202.042 49.0936C203.469 48.88 204.901 48.703 206.344 48.5623C207.781 48.4217 209.219 48.3123 210.667 48.2446C212.109 48.1717 213.552 48.1353 215 48.1353C216.443 48.1353 217.891 48.1717 219.333 48.2446C220.776 48.3123 222.219 48.4217 223.656 48.5623C225.094 48.703 226.526 48.88 227.958 49.0936C229.385 49.3071 230.812 49.5519 232.229 49.8332C233.646 50.1144 235.057 50.4321 236.458 50.7863C237.859 51.1353 239.255 51.5207 240.635 51.9425C242.021 52.3592 243.391 52.8123 244.755 53.3019C246.115 53.7863 247.464 54.3071 248.797 54.8592C250.13 55.4113 251.453 55.9998 252.76 56.6196C254.068 57.2342 255.359 57.8853 256.63 58.5675C257.906 59.2498 259.167 59.9582 260.406 60.703C261.646 61.4478 262.865 62.2186 264.068 63.0207C265.271 63.8228 266.448 64.6561 267.609 65.5207C268.771 66.38 269.911 67.2707 271.026 68.1873C272.146 69.104 273.24 70.0467 274.312 71.0155C275.38 71.9894 276.427 72.9842 277.448 74.005C278.474 75.0259 279.469 76.0728 280.437 77.1457C281.411 78.2186 282.354 79.3123 283.271 80.4269C284.187 81.5467 285.078 82.6821 285.937 83.8436C286.797 85.005 287.63 86.1873 288.432 87.3905C289.24 88.5936 290.01 89.8123 290.755 91.0519C291.495 92.2915 292.208 93.5467 292.891 94.8228C293.573 96.0988 294.219 97.3905 294.839 98.6978C295.458 100.005 296.042 101.323 296.594 102.661C297.151 103.995 297.667 105.344 298.156 106.703C298.641 108.062 299.094 109.437 299.516 110.818C299.937 112.203 300.323 113.594 300.672 115C301.021 116.401 301.339 117.807 301.62 119.229C301.906 120.646 302.151 122.068 302.365 123.5C302.573 124.927 302.75 126.364 302.896 127.802C303.036 129.239 303.141 130.682 303.214 132.125C303.281 133.568 303.318 135.01 303.318 136.458Z" fill="#EDE0D2"/>
</g>
<mask id="mask53_47_13830" style="mask-type:luminance" maskUnits="userSpaceOnUse" x="226" y="92" width="64" height="64">
<path d="M226.312 92.604H289.005V155.302H226.312V92.604Z" fill="white"/>
</mask>
<g mask="url(#mask53_47_13830)">
<mask id="mask54_47_13830" style="mask-type:luminance" maskUnits="userSpaceOnUse" x="226" y="92" width="64" height="64">
<path d="M257.661 92.604C240.349 92.604 226.312 106.64 226.312 123.953C226.312 141.265 240.349 155.302 257.661 155.302C274.974 155.302 289.005 141.265 289.005 123.953C289.005 106.64 274.974 92.604 257.661 92.604Z" fill="white"/>
</mask>
<g mask="url(#mask54_47_13830)">
<path d="M226.312 92.604H289.005V155.302H226.312V92.604Z" fill="white"/>
</g>
</g>
<mask id="mask55_47_13830" style="mask-type:luminance" maskUnits="userSpaceOnUse" x="141" y="92" width="64" height="64">
<path d="M141.552 92.604H204.25V155.302H141.552V92.604Z" fill="white"/>
</mask>
<g mask="url(#mask55_47_13830)">
<mask id="mask56_47_13830" style="mask-type:luminance" maskUnits="userSpaceOnUse" x="141" y="92" width="64" height="64">
<path d="M172.901 92.604C155.589 92.604 141.552 106.64 141.552 123.953C141.552 141.265 155.589 155.302 172.901 155.302C190.214 155.302 204.25 141.265 204.25 123.953C204.25 106.64 190.214 92.604 172.901 92.604Z" fill="white"/>
</mask>
<g mask="url(#mask56_47_13830)">
<path d="M141.552 92.604H204.25V155.302H141.552V92.604Z" fill="white"/>
</g>
</g>
<mask id="mask57_47_13830" style="mask-type:luminance" maskUnits="userSpaceOnUse" x="232" y="98" width="40" height="40">
<path d="M232.672 98.5156H271.432V137.281H232.672V98.5156Z" fill="white"/>
</mask>
<g mask="url(#mask57_47_13830)">
<mask id="mask58_47_13830" style="mask-type:luminance" maskUnits="userSpaceOnUse" x="232" y="98" width="40" height="40">
<path d="M252.052 98.5156C241.349 98.5156 232.672 107.193 232.672 117.901C232.672 128.604 241.349 137.281 252.052 137.281C262.755 137.281 271.432 128.604 271.432 117.901C271.432 107.193 262.755 98.5156 252.052 98.5156Z" fill="white"/>
</mask>
<g mask="url(#mask58_47_13830)">
<path d="M232.672 98.5156H271.432V137.281H232.672V98.5156Z" fill="black"/>
</g>
</g>
<mask id="mask59_47_13830" style="mask-type:luminance" maskUnits="userSpaceOnUse" x="147" y="97" width="40" height="40">
<path d="M147.344 97.6978H186.104V136.463H147.344V97.6978Z" fill="white"/>
</mask>
<g mask="url(#mask59_47_13830)">
<mask id="mask60_47_13830" style="mask-type:luminance" maskUnits="userSpaceOnUse" x="147" y="97" width="40" height="40">
<path d="M166.724 97.6978C156.021 97.6978 147.344 106.375 147.344 117.078C147.344 127.786 156.021 136.463 166.724 136.463C177.427 136.463 186.104 127.786 186.104 117.078C186.104 106.375 177.427 97.6978 166.724 97.6978Z" fill="white"/>
</mask>
<g mask="url(#mask60_47_13830)">
<path d="M147.344 97.6978H186.104V136.463H147.344V97.6978Z" fill="black"/>
</g>
</g>
<mask id="mask61_47_13830" style="mask-type:luminance" maskUnits="userSpaceOnUse" x="164" y="98" width="20" height="20">
<path d="M164.641 98.5156H183.203V117.078H164.641V98.5156Z" fill="white"/>
</mask>
<g mask="url(#mask61_47_13830)">
<mask id="mask62_47_13830" style="mask-type:luminance" maskUnits="userSpaceOnUse" x="164" y="98" width="20" height="20">
<path d="M173.922 98.5156C168.797 98.5156 164.641 102.672 164.641 107.797C164.641 112.927 168.797 117.078 173.922 117.078C179.047 117.078 183.203 112.927 183.203 107.797C183.203 102.672 179.047 98.5156 173.922 98.5156Z" fill="white"/>
</mask>
<g mask="url(#mask62_47_13830)">
<path d="M164.641 98.5156H183.203V117.078H164.641V98.5156Z" fill="white"/>
</g>
</g>
<mask id="mask63_47_13830" style="mask-type:luminance" maskUnits="userSpaceOnUse" x="249" y="98" width="20" height="20">
<path d="M249.958 98.9946H268.521V117.557H249.958V98.9946Z" fill="white"/>
</mask>
<g mask="url(#mask63_47_13830)">
<mask id="mask64_47_13830" style="mask-type:luminance" maskUnits="userSpaceOnUse" x="249" y="98" width="20" height="20">
<path d="M259.24 98.9946C254.115 98.9946 249.958 103.151 249.958 108.276C249.958 113.406 254.115 117.557 259.24 117.557C264.37 117.557 268.521 113.406 268.521 108.276C268.521 103.151 264.37 98.9946 259.24 98.9946Z" fill="white"/>
</mask>
<g mask="url(#mask64_47_13830)">
<path d="M249.958 98.9946H268.521V117.557H249.958V98.9946Z" fill="white"/>
</g>
</g>
<mask id="mask65_47_13830" style="mask-type:luminance" maskUnits="userSpaceOnUse" x="182" y="228" width="66" height="25">
<path d="M182.302 228.787H247.302V252.787H182.302V228.787Z" fill="white"/>
</mask>
<g mask="url(#mask65_47_13830)">
<path d="M240.089 242.037C231.224 239.641 224.589 241.662 220.234 244.235C226.188 238.177 235.271 236.188 238.182 235.693L240.089 242.037ZM229.609 228.818L232.109 234.792C227.396 236.255 221.24 239.094 217.073 244.333C219.708 235.167 226.922 230.333 229.609 228.818ZM200.349 228.818C203.036 230.333 210.25 235.146 212.885 244.349C208.719 239.11 202.563 236.271 197.849 234.807L200.349 228.818ZM191.776 235.693C194.682 236.188 203.771 238.177 209.724 244.235C205.37 241.662 198.734 239.641 189.87 242.037L191.776 235.693ZM218.807 253.11H211.151C209.469 250.932 202.188 243.943 182.302 252.229L184.021 246.667C203.854 237.037 213.651 250.255 214.063 250.833C214.078 250.849 214.094 250.849 214.109 250.865C214.13 250.901 214.146 250.932 214.177 250.953C214.198 250.969 214.198 250.969 214.198 250.985C214.229 251.021 214.266 251.037 214.318 251.052C214.349 251.073 214.385 251.104 214.417 251.12C214.453 251.141 214.484 251.172 214.536 251.188C214.552 251.188 214.573 251.208 214.573 251.208C214.641 251.24 214.724 251.24 214.807 251.255C214.859 251.255 214.896 251.292 214.943 251.292C214.964 251.292 214.979 251.292 214.995 251.292C215.01 251.292 215.031 251.292 215.047 251.292C215.099 251.292 215.13 251.276 215.182 251.255C215.266 251.24 215.339 251.24 215.422 251.208C215.438 251.208 215.453 251.188 215.453 251.188C215.505 251.172 215.542 251.141 215.573 251.12C215.609 251.104 215.641 251.089 215.677 251.052C215.708 251.021 215.76 251 215.797 250.985C215.813 250.969 215.813 250.969 215.813 250.953C215.849 250.917 215.865 250.901 215.88 250.865C215.896 250.849 215.917 250.849 215.932 250.833C216.339 250.255 226.141 237.037 245.974 246.667L247.693 252.229C227.787 243.943 220.49 250.953 218.807 253.11Z" fill="#EDE0D2"/>
</g>
<mask id="mask66_47_13830" style="mask-type:luminance" maskUnits="userSpaceOnUse" x="233" y="214" width="110" height="94">
<path d="M233.667 214.667H343V308H233.667V214.667Z" fill="white"/>
</mask>
<g mask="url(#mask66_47_13830)">
<mask id="mask67_47_13830" style="mask-type:luminance" maskUnits="userSpaceOnUse" x="226" y="207" width="126" height="109">
<path d="M226.521 282.468L326.49 207.427L351.104 240.218L251.135 315.26L226.521 282.468Z" fill="white"/>
</mask>
<g mask="url(#mask67_47_13830)">
<mask id="mask68_47_13830" style="mask-type:luminance" maskUnits="userSpaceOnUse" x="226" y="207" width="126" height="109">
<path d="M326.526 207.396L226.557 282.442L251.172 315.229L351.141 240.187L326.526 207.396Z" fill="white"/>
</mask>
<g mask="url(#mask68_47_13830)">
<path d="M267.505 302.843L334.651 252.442C343.635 245.697 345.453 232.942 338.708 223.958C331.964 214.973 319.208 213.156 310.224 219.901L243.078 270.302C234.094 277.046 232.276 289.802 239.021 298.786C245.766 307.77 258.521 309.588 267.505 302.843Z" fill="#604428"/>
<path d="M267.625 303.005L334.771 252.599C343.833 245.797 345.672 232.901 338.87 223.838C332.062 214.771 319.172 212.937 310.104 219.739L242.958 270.146C233.896 276.948 232.057 289.843 238.865 298.906C245.667 307.968 258.563 309.807 267.625 303.005ZM310.344 220.057C319.234 213.385 331.88 215.187 338.552 224.073C345.224 232.963 343.422 245.609 334.531 252.281L267.385 302.687C258.495 309.359 245.854 307.557 239.177 298.666C232.505 289.781 234.307 277.135 243.198 270.463L310.344 220.057Z" fill="#604428"/>
</g>
</g>
</g>
<mask id="mask69_47_13830" style="mask-type:luminance" maskUnits="userSpaceOnUse" x="216" y="169" width="130" height="110">
<path d="M216.333 169.333H345.667V278.667H216.333V169.333Z" fill="white"/>
</mask>
<g mask="url(#mask69_47_13830)">
<mask id="mask70_47_13830" style="mask-type:luminance" maskUnits="userSpaceOnUse" x="206" y="160" width="150" height="129">
<path d="M206.568 249.531L325.729 160.078L355.146 199.266L235.984 288.719L206.568 249.531Z" fill="white"/>
</mask>
<g mask="url(#mask70_47_13830)">
<mask id="mask71_47_13830" style="mask-type:luminance" maskUnits="userSpaceOnUse" x="206" y="160" width="149" height="129">
<path d="M325.417 160.312L206.255 249.766L235.672 288.953L354.833 199.5L325.417 160.312Z" fill="white"/>
</mask>
<g mask="url(#mask71_47_13830)">
<path d="M255.271 273.74L335.068 213.839C345.745 205.823 347.906 190.667 339.891 179.99C331.875 169.308 316.714 167.151 306.036 175.167L226.24 235.068C215.563 243.084 213.401 258.24 221.417 268.922C229.432 279.599 244.589 281.755 255.271 273.74Z" fill="#604428"/>
</g>
</g>
</g>
<mask id="mask72_47_13830" style="mask-type:luminance" maskUnits="userSpaceOnUse" x="216" y="169" width="130" height="111">
<path d="M216.333 169.333H345.667V280H216.333V169.333Z" fill="white"/>
</mask>
<g mask="url(#mask72_47_13830)">
<mask id="mask73_47_13830" style="mask-type:luminance" maskUnits="userSpaceOnUse" x="206" y="160" width="150" height="129">
<path d="M206.568 249.531L325.729 160.078L355.146 199.266L235.984 288.719L206.568 249.531Z" fill="white"/>
</mask>
<g mask="url(#mask73_47_13830)">
<mask id="mask74_47_13830" style="mask-type:luminance" maskUnits="userSpaceOnUse" x="206" y="160" width="149" height="129">
<path d="M325.417 160.312L206.255 249.766L235.672 288.953L354.833 199.5L325.417 160.312Z" fill="white"/>
</mask>
<g mask="url(#mask74_47_13830)">
<path d="M255.412 273.927L335.208 214.026C345.979 205.943 348.162 190.62 340.078 179.844C331.99 169.073 316.667 166.891 305.896 174.979L226.099 234.88C215.323 242.964 213.141 258.287 221.229 269.063C229.313 279.833 244.635 282.016 255.412 273.927ZM306.177 175.354C316.745 167.422 331.771 169.563 339.703 180.13C347.63 190.693 345.49 205.719 334.927 213.651L255.125 273.552C244.563 281.484 229.537 279.344 221.604 268.776C213.677 258.214 215.818 243.188 226.38 235.255L306.177 175.354Z" fill="#604428"/>
</g>
</g>
</g>
<mask id="mask75_47_13830" style="mask-type:luminance" maskUnits="userSpaceOnUse" x="221" y="126" width="130" height="110">
<path d="M221.667 126.667H351V236H221.667V126.667Z" fill="white"/>
</mask>
<g mask="url(#mask75_47_13830)">
<mask id="mask76_47_13830" style="mask-type:luminance" maskUnits="userSpaceOnUse" x="211" y="116" width="150" height="130">
<path d="M211.839 206.349L331 116.896L360.417 156.083L241.255 245.536L211.839 206.349Z" fill="white"/>
</mask>
<g mask="url(#mask76_47_13830)">
<mask id="mask77_47_13830" style="mask-type:luminance" maskUnits="userSpaceOnUse" x="211" y="117" width="150" height="129">
<path d="M330.687 117.13L211.526 206.583L240.943 245.771L360.104 156.317L330.687 117.13Z" fill="white"/>
</mask>
<g mask="url(#mask77_47_13830)">
<path d="M260.536 230.557L340.339 170.656C351.016 162.64 353.172 147.484 345.161 136.802C337.146 126.125 321.984 123.969 311.307 131.984L231.505 191.885C220.828 199.901 218.672 215.057 226.688 225.734C234.703 236.416 249.859 238.573 260.536 230.557Z" fill="#604428"/>
</g>
</g>
</g>
<mask id="mask78_47_13830" style="mask-type:luminance" maskUnits="userSpaceOnUse" x="220" y="126" width="131" height="110">
<path d="M220.333 126.667H351V236H220.333V126.667Z" fill="white"/>
</mask>
<g mask="url(#mask78_47_13830)">
<mask id="mask79_47_13830" style="mask-type:luminance" maskUnits="userSpaceOnUse" x="211" y="116" width="150" height="130">
<path d="M211.839 206.349L331 116.896L360.417 156.083L241.255 245.536L211.839 206.349Z" fill="white"/>
</mask>
<g mask="url(#mask79_47_13830)">
<mask id="mask80_47_13830" style="mask-type:luminance" maskUnits="userSpaceOnUse" x="211" y="117" width="150" height="129">
<path d="M330.688 117.13L211.526 206.583L240.943 245.771L360.104 156.317L330.688 117.13Z" fill="white"/>
</mask>
<g mask="url(#mask80_47_13830)">
<path d="M260.682 230.745L340.479 170.844C351.25 162.76 353.432 147.432 345.349 136.661C337.26 125.89 321.938 123.708 311.167 131.792L231.365 191.698C220.594 199.781 218.411 215.104 226.5 225.88C234.583 236.651 249.906 238.833 260.682 230.745ZM311.448 132.172C322.016 124.239 337.042 126.38 344.969 136.948C352.901 147.51 350.76 162.536 340.198 170.469L260.396 230.37C249.833 238.302 234.807 236.161 226.875 225.594C218.943 215.031 221.083 200.005 231.651 192.073L311.448 132.172Z" fill="#604428"/>
</g>
</g>
</g>
<mask id="mask81_47_13830" style="mask-type:luminance" maskUnits="userSpaceOnUse" x="39" y="44" width="54" height="76">
<path d="M39 44H92.3333V120H39V44Z" fill="white"/>
</mask>
<g mask="url(#mask81_47_13830)">
<mask id="mask82_47_13830" style="mask-type:luminance" maskUnits="userSpaceOnUse" x="-11" y="28" width="114" height="125">
<path d="M-10.7031 43.1929L85.1146 28.0991L102.391 137.75L6.57292 152.844L-10.7031 43.1929Z" fill="white"/>
</mask>
<g mask="url(#mask82_47_13830)">
<mask id="mask83_47_13830" style="mask-type:luminance" maskUnits="userSpaceOnUse" x="-11" y="28" width="114" height="125">
<path d="M-10.7031 43.1929L85.1146 28.0991L102.391 137.75L6.57292 152.844L-10.7031 43.1929Z" fill="white"/>
</mask>
<g mask="url(#mask83_47_13830)">
<path d="M50.5104 44.4272L52.3281 91.8543C51.724 91.8491 51.1094 91.9012 50.4844 92.021C49.2552 92.2397 48.0313 92.6825 46.8542 93.3335C41.849 96.0835 39.1719 101.651 40.7656 106.005C41.974 109.328 45.4584 111.141 49.4219 110.516C49.5052 110.5 49.5886 110.49 49.6719 110.474C50.9063 110.25 52.1302 109.807 53.3073 109.156C57.3438 106.938 59.9896 102.787 59.9011 98.7918L58.4584 61.3335L82.599 69.672L83.7761 100.11C83.1875 100.11 82.5729 100.167 81.9844 100.276C80.7552 100.495 79.5365 100.938 78.3542 101.583C73.3542 104.339 70.6771 109.901 72.2656 114.261C73.4792 117.583 76.9584 119.396 80.9271 118.771C81.0104 118.761 81.0886 118.745 81.1771 118.729C82.4063 118.505 83.6302 118.063 84.8125 117.412C88.8386 115.198 91.4688 111.068 91.3542 107.12L89.4271 57.0783L50.5104 44.4272Z" fill="#53BCEA"/>
</g>
</g>
</g>
<mask id="mask84_47_13830" style="mask-type:luminance" maskUnits="userSpaceOnUse" x="0" y="74" width="38" height="78">
<path d="M0.333313 74.6665H37.6666V152H0.333313V74.6665Z" fill="white"/>
</mask>
<g mask="url(#mask84_47_13830)">
<mask id="mask85_47_13830" style="mask-type:luminance" maskUnits="userSpaceOnUse" x="-11" y="28" width="114" height="125">
<path d="M-10.7031 43.1924L85.1146 28.0986L102.391 137.75L6.57292 152.843L-10.7031 43.1924Z" fill="white"/>
</mask>
<g mask="url(#mask85_47_13830)">
<mask id="mask86_47_13830" style="mask-type:luminance" maskUnits="userSpaceOnUse" x="-11" y="28" width="114" height="125">
<path d="M-10.7031 43.1924L85.1146 28.0986L102.391 137.75L6.57292 152.843L-10.7031 43.1924Z" fill="white"/>
</mask>
<g mask="url(#mask86_47_13830)">
<path d="M25.0573 87.2551C24.2083 86.7811 23.3021 86.3384 22.2812 85.9009C21.8177 85.703 21.3541 85.5155 20.9062 85.3488C20.3802 85.1561 19.9062 84.9947 19.4635 84.8541C18.9114 84.677 18.3698 84.5155 17.8385 84.3541C16.7135 84.0155 15.6562 83.6978 14.7239 83.3124C13.4948 82.8176 12.5521 82.2082 11.9323 81.5051C11.75 81.302 11.3541 80.7291 11.0312 80.2707L10.5104 79.5259C10.026 78.8332 9.47915 78.052 8.46873 77.0728C7.46352 76.0988 6.10936 75.6666 4.75519 75.8801C4.22394 75.9634 3.71352 76.1405 3.24998 76.4113C3.06769 76.5155 2.89061 76.6301 2.71352 76.7655C0.927063 78.1405 0.229147 80.6353 1.01561 82.8384L17.9896 125.364C16.9791 125.641 15.9791 126.062 15.0104 126.62C13.5729 127.448 12.2448 128.542 11.0573 129.875C6.02602 135.536 5.11456 143.646 8.98956 148.333C11.0364 150.807 14.1406 151.927 17.5 151.396C18.9427 151.172 20.375 150.651 21.7552 149.859C23.1979 149.031 24.5312 147.932 25.7187 146.599C29.776 142.021 31.2448 135.698 29.3646 130.833L14.3958 93.3384C14.8906 93.4322 15.3698 93.5155 15.8489 93.5988C16.3489 93.6926 16.8437 93.7759 17.2812 93.8645L18.4375 94.1145C18.8854 94.2291 19.2291 94.3228 19.5364 94.4113C20.25 94.6249 20.9531 94.8749 21.6406 95.1561C24.6041 96.3645 26.8594 98.1613 28.3541 100.521C29.9635 102.995 30.7969 106.385 30.7083 110.099C30.6875 111.516 31.6823 112.729 33.0364 112.927C33.6146 113.01 34.2083 112.896 34.7396 112.594C35.5 112.156 36.0052 111.385 36.125 110.5C36.8073 105.505 36.1302 100.614 34.2187 96.7395C32.3333 92.8593 29.1666 89.5832 25.0573 87.2551Z" fill="#53BCEA"/>
</g>
</g>
</g>
<mask id="mask87_47_13830" style="mask-type:luminance" maskUnits="userSpaceOnUse" x="19" y="36" width="22" height="42">
<path d="M19 36H40.3333V77.3333H19V36Z" fill="white"/>
</mask>
<g mask="url(#mask87_47_13830)">
<mask id="mask88_47_13830" style="mask-type:luminance" maskUnits="userSpaceOnUse" x="-11" y="28" width="114" height="125">
<path d="M-10.7031 43.1929L85.1146 28.0991L102.391 137.75L6.57292 152.844L-10.7031 43.1929Z" fill="white"/>
</mask>
<g mask="url(#mask88_47_13830)">
<mask id="mask89_47_13830" style="mask-type:luminance" maskUnits="userSpaceOnUse" x="-11" y="28" width="114" height="125">
<path d="M-10.7031 43.1929L85.1146 28.0991L102.391 137.75L6.57292 152.844L-10.7031 43.1929Z" fill="white"/>
</mask>
<g mask="url(#mask89_47_13830)">
<path d="M37.3698 46.0888C37.0312 45.7138 36.6667 45.3492 36.2396 44.9638C36.0469 44.7919 35.8542 44.6252 35.6615 44.469C35.4375 44.2867 35.2344 44.1304 35.0417 43.9846C34.8021 43.8127 34.5677 43.6409 34.3333 43.4742C33.8437 43.12 33.3802 42.7919 32.9896 42.4481C32.474 42.0002 32.1198 41.5523 31.9323 41.1044C31.875 40.9742 31.7812 40.6304 31.6979 40.3492L31.5677 39.9013C31.4479 39.4846 31.3073 39.0106 30.9844 38.37C30.6562 37.7242 30.0677 37.2919 29.3698 37.1669C29.099 37.12 28.8229 37.1252 28.5469 37.1773C28.4427 37.1981 28.3385 37.2242 28.2292 37.2606C27.1302 37.6304 26.375 38.7346 26.3906 39.9377L27.5885 63.469C27.0469 63.4377 26.4948 63.4794 25.9271 63.5888C25.0885 63.7554 24.2604 64.0627 23.4635 64.5159C20.0677 66.4377 18.276 70.2346 19.3802 73.1617C19.9687 74.7086 21.2917 75.7711 23.0208 76.0679C23.7552 76.1982 24.5417 76.1877 25.349 76.0263C26.1875 75.8648 27.0156 75.5523 27.8177 75.0992C30.5573 73.5471 32.3229 70.7138 32.2187 68.0263L31.1615 47.2763C31.3854 47.4013 31.6094 47.5263 31.8281 47.6461C32.0573 47.7711 32.2812 47.8961 32.4792 48.0106L33 48.3284C33.2031 48.4586 33.3542 48.5575 33.4844 48.6513C33.8021 48.8752 34.1042 49.1148 34.3906 49.3648C35.6302 50.4481 36.4323 51.6981 36.7656 53.0992C37.1406 54.5679 36.9792 56.3596 36.3177 58.1513C36.0729 58.8388 36.3594 59.5992 36.9792 59.9169C37.25 60.0523 37.5573 60.0992 37.8698 60.0367C38.3125 59.9534 38.6875 59.6617 38.8906 59.245C40.0521 56.9273 40.5365 54.4325 40.2552 52.2294C39.9792 50.0263 38.9792 47.9065 37.3698 46.0888Z" fill="#53BCEA"/>
</g>
</g>
</g>
<mask id="mask90_47_13830" style="mask-type:luminance" maskUnits="userSpaceOnUse" x="204" y="156" width="37" height="23">
<path d="M204.333 156H240.333V178.667H204.333V156Z" fill="white"/>
</mask>
<g mask="url(#mask90_47_13830)">
<mask id="mask91_47_13830" style="mask-type:luminance" maskUnits="userSpaceOnUse" x="201" y="151" width="41" height="32">
<path d="M201.859 165.323L235.286 151.958L241.969 168.672L208.542 182.037L201.859 165.323Z" fill="white"/>
</mask>
<g mask="url(#mask91_47_13830)">
<mask id="mask92_47_13830" style="mask-type:luminance" maskUnits="userSpaceOnUse" x="201" y="151" width="41" height="32">
<path d="M201.859 165.323L235.286 151.958L241.969 168.672L208.542 182.037L201.859 165.323Z" fill="white"/>
</mask>
<g mask="url(#mask92_47_13830)">
<path d="M239.135 160.287C239.359 160.844 239.474 161.438 239.474 162.073C239.474 162.703 239.365 163.365 239.146 164.047C238.927 164.735 238.604 165.433 238.167 166.141C237.734 166.854 237.208 167.563 236.578 168.271C235.948 168.979 235.234 169.677 234.432 170.354C233.63 171.031 232.76 171.688 231.818 172.308C230.875 172.933 229.88 173.521 228.833 174.063C227.786 174.61 226.708 175.104 225.594 175.547C224.484 175.995 223.359 176.38 222.224 176.709C221.089 177.031 219.969 177.297 218.854 177.495C217.74 177.693 216.661 177.818 215.609 177.88C214.562 177.938 213.568 177.933 212.625 177.849C211.677 177.771 210.807 177.625 210 177.406C209.198 177.188 208.479 176.912 207.849 176.563C207.219 176.219 206.682 175.818 206.25 175.36C205.812 174.896 205.484 174.391 205.26 173.834C205.036 173.276 204.927 172.677 204.927 172.047C204.922 171.412 205.031 170.75 205.25 170.068C205.469 169.38 205.797 168.683 206.229 167.974C206.661 167.261 207.193 166.552 207.823 165.844C208.453 165.136 209.167 164.443 209.969 163.761C210.766 163.084 211.641 162.433 212.583 161.808C213.526 161.183 214.521 160.599 215.568 160.052C216.615 159.511 217.693 159.016 218.807 158.568C219.917 158.125 221.042 157.74 222.177 157.412C223.307 157.084 224.432 156.823 225.547 156.625C226.656 156.427 227.74 156.297 228.786 156.235C229.833 156.177 230.833 156.188 231.776 156.266C232.719 156.344 233.594 156.495 234.396 156.709C235.198 156.927 235.917 157.209 236.547 157.552C237.182 157.896 237.714 158.297 238.151 158.761C238.583 159.219 238.917 159.729 239.135 160.287Z" fill="#FCD590"/>
</g>
</g>
</g>
<mask id="mask93_47_13830" style="mask-type:luminance" maskUnits="userSpaceOnUse" x="189" y="157" width="37" height="22">
<path d="M189.667 157.333H225.667V178.667H189.667V157.333Z" fill="white"/>
</mask>
<g mask="url(#mask93_47_13830)">
<mask id="mask94_47_13830" style="mask-type:luminance" maskUnits="userSpaceOnUse" x="187" y="153" width="40" height="29">
<path d="M192.917 153.245L227 164.834L221.208 181.875L187.125 170.287L192.917 153.245Z" fill="white"/>
</mask>
<g mask="url(#mask94_47_13830)">
<mask id="mask95_47_13830" style="mask-type:luminance" maskUnits="userSpaceOnUse" x="187" y="153" width="40" height="29">
<path d="M192.917 153.245L227 164.834L221.208 181.875L187.125 170.287L192.917 153.245Z" fill="white"/>
</mask>
<g mask="url(#mask95_47_13830)">
<path d="M224.51 173.667C224.318 174.235 224.016 174.761 223.604 175.24C223.193 175.724 222.682 176.152 222.068 176.532C221.458 176.907 220.755 177.224 219.964 177.485C219.177 177.74 218.312 177.938 217.37 178.068C216.432 178.193 215.437 178.256 214.391 178.25C213.339 178.245 212.25 178.178 211.13 178.037C210.01 177.896 208.875 177.693 207.724 177.428C206.573 177.162 205.432 176.834 204.297 176.448C203.161 176.063 202.057 175.625 200.984 175.136C199.911 174.646 198.885 174.115 197.911 173.542C196.937 172.969 196.031 172.365 195.198 171.73C194.359 171.089 193.609 170.438 192.948 169.761C192.281 169.089 191.714 168.407 191.245 167.719C190.776 167.032 190.411 166.355 190.156 165.683C189.901 165.006 189.76 164.355 189.724 163.724C189.693 163.089 189.776 162.49 189.969 161.922C190.161 161.355 190.464 160.829 190.875 160.344C191.286 159.865 191.797 159.433 192.411 159.053C193.021 158.678 193.724 158.36 194.516 158.099C195.307 157.844 196.172 157.646 197.109 157.521C198.047 157.391 199.042 157.329 200.094 157.334C201.141 157.339 202.229 157.412 203.349 157.547C204.469 157.688 205.609 157.891 206.755 158.157C207.906 158.422 209.047 158.75 210.182 159.136C211.318 159.521 212.422 159.959 213.495 160.448C214.573 160.938 215.594 161.469 216.568 162.042C217.542 162.615 218.448 163.219 219.281 163.86C220.12 164.495 220.87 165.152 221.531 165.823C222.198 166.5 222.766 167.178 223.234 167.865C223.703 168.553 224.068 169.235 224.323 169.907C224.578 170.579 224.724 171.23 224.755 171.865C224.786 172.495 224.703 173.094 224.51 173.667Z" fill="#FCD590"/>
</g>
</g>
</g>
<mask id="mask96_47_13830" style="mask-type:luminance" maskUnits="userSpaceOnUse" x="188" y="160" width="35" height="22">
<path d="M188.333 160H223V181.333H188.333V160Z" fill="white"/>
</mask>
<g mask="url(#mask96_47_13830)">
<mask id="mask97_47_13830" style="mask-type:luminance" maskUnits="userSpaceOnUse" x="185" y="156" width="40" height="29">
<path d="M191.75 156.677L224.891 167.943L219.094 184.985L185.958 173.719L191.75 156.677Z" fill="white"/>
</mask>
<g mask="url(#mask97_47_13830)">
<mask id="mask98_47_13830" style="mask-type:luminance" maskUnits="userSpaceOnUse" x="185" y="156" width="40" height="29">
<path d="M191.75 156.677L224.891 167.943L219.094 184.985L185.958 173.719L191.75 156.677Z" fill="white"/>
</mask>
<g mask="url(#mask98_47_13830)">
<path d="M221.979 176.214C221.792 176.755 221.505 177.261 221.109 177.719C220.719 178.182 220.229 178.594 219.641 178.953C219.057 179.313 218.385 179.62 217.63 179.865C216.87 180.115 216.047 180.297 215.146 180.422C214.25 180.547 213.297 180.604 212.292 180.599C211.286 180.599 210.25 180.526 209.177 180.396C208.104 180.261 207.016 180.068 205.917 179.813C204.818 179.557 203.724 179.245 202.641 178.875C201.552 178.505 200.495 178.089 199.469 177.62C198.443 177.151 197.458 176.646 196.531 176.094C195.599 175.547 194.729 174.969 193.932 174.36C193.13 173.75 192.417 173.125 191.776 172.479C191.141 171.833 190.599 171.182 190.151 170.526C189.703 169.865 189.354 169.219 189.109 168.573C188.865 167.927 188.729 167.307 188.698 166.698C188.667 166.094 188.745 165.521 188.927 164.974C189.115 164.432 189.401 163.927 189.797 163.469C190.188 163.005 190.677 162.594 191.266 162.235C191.849 161.875 192.521 161.568 193.281 161.323C194.036 161.073 194.865 160.891 195.76 160.766C196.656 160.641 197.609 160.583 198.615 160.589C199.62 160.589 200.656 160.662 201.729 160.792C202.807 160.927 203.891 161.12 204.99 161.375C206.094 161.63 207.182 161.943 208.271 162.313C209.354 162.682 210.411 163.099 211.438 163.568C212.469 164.037 213.448 164.542 214.38 165.094C215.313 165.641 216.177 166.219 216.974 166.828C217.776 167.438 218.495 168.063 219.13 168.708C219.766 169.354 220.307 170.005 220.755 170.662C221.208 171.323 221.552 171.969 221.797 172.615C222.042 173.261 222.177 173.886 222.208 174.49C222.24 175.094 222.161 175.667 221.979 176.214Z" fill="#FFB93E"/>
</g>
</g>
</g>
<mask id="mask99_47_13830" style="mask-type:luminance" maskUnits="userSpaceOnUse" x="205" y="158" width="37" height="24">
<path d="M205.667 158.667H241.667V181.333H205.667V158.667Z" fill="white"/>
</mask>
<g mask="url(#mask99_47_13830)">
<mask id="mask100_47_13830" style="mask-type:luminance" maskUnits="userSpaceOnUse" x="203" y="155" width="41" height="31">
<path d="M203.203 168.693L236.63 155.323L243.318 172.036L209.891 185.401L203.203 168.693Z" fill="white"/>
</mask>
<g mask="url(#mask100_47_13830)">
<mask id="mask101_47_13830" style="mask-type:luminance" maskUnits="userSpaceOnUse" x="203" y="155" width="41" height="31">
<path d="M203.203 168.693L236.63 155.323L243.318 172.036L209.891 185.401L203.203 168.693Z" fill="white"/>
</mask>
<g mask="url(#mask101_47_13830)">
<path d="M240.484 163.651C240.708 164.208 240.818 164.807 240.823 165.437C240.823 166.073 240.714 166.734 240.495 167.416C240.276 168.104 239.948 168.802 239.516 169.51C239.083 170.224 238.552 170.932 237.922 171.64C237.297 172.349 236.578 173.041 235.781 173.724C234.979 174.401 234.104 175.052 233.167 175.677C232.224 176.302 231.229 176.885 230.182 177.432C229.135 177.974 228.052 178.469 226.943 178.916C225.828 179.359 224.703 179.745 223.573 180.073C222.438 180.401 221.313 180.661 220.203 180.859C219.089 181.057 218.005 181.187 216.958 181.25C215.911 181.307 214.911 181.297 213.969 181.219C213.026 181.14 212.151 180.989 211.349 180.776C210.547 180.557 209.828 180.276 209.198 179.932C208.563 179.588 208.031 179.187 207.594 178.724C207.162 178.265 206.833 177.755 206.609 177.198C206.385 176.64 206.271 176.047 206.271 175.411C206.271 174.781 206.38 174.12 206.599 173.432C206.818 172.75 207.146 172.052 207.578 171.344C208.01 170.63 208.542 169.922 209.167 169.213C209.797 168.505 210.51 167.807 211.313 167.13C212.115 166.453 212.984 165.797 213.927 165.177C214.87 164.552 215.865 163.963 216.911 163.422C217.958 162.875 219.042 162.38 220.151 161.937C221.266 161.489 222.385 161.104 223.521 160.776C224.656 160.453 225.781 160.187 226.891 159.989C228.005 159.791 229.083 159.666 230.135 159.604C231.182 159.547 232.177 159.552 233.125 159.635C234.068 159.713 234.943 159.859 235.745 160.078C236.547 160.297 237.266 160.573 237.896 160.922C238.526 161.265 239.063 161.666 239.495 162.125C239.932 162.588 240.26 163.094 240.484 163.651Z" fill="#FFB93E"/>
</g>
</g>
</g>
<mask id="mask102_47_13830" style="mask-type:luminance" maskUnits="userSpaceOnUse" x="112" y="0" width="213" height="91">
<path d="M112.333 0H324.333V90.6667H112.333V0Z" fill="white"/>
</mask>
<g mask="url(#mask102_47_13830)">
<mask id="mask103_47_13830" style="mask-type:luminance" maskUnits="userSpaceOnUse" x="109" y="-25" width="226" height="169">
<path d="M144.599 -24.8384L334.693 37.3127L299.891 143.766L109.792 81.6147L144.599 -24.8384Z" fill="white"/>
</mask>
<g mask="url(#mask103_47_13830)">
<mask id="mask104_47_13830" style="mask-type:luminance" maskUnits="userSpaceOnUse" x="109" y="-25" width="226" height="169">
<path d="M144.599 -24.8384L334.693 37.3127L299.891 143.766L109.792 81.6147L144.599 -24.8384Z" fill="white"/>
</mask>
<g mask="url(#mask104_47_13830)">
<path d="M224.229 1.66682C228.333 2.95327 232.068 4.98973 235.552 7.48452C241.125 11.4793 246.542 15.6616 251.552 20.3543C253.443 22.1251 255.443 23.7606 257.609 25.1929C265.87 30.6616 273.365 37.1408 281.224 43.146C286.724 47.3543 292.135 51.6981 298.312 54.9116C306.088 58.9637 313.338 63.8804 320.828 68.4064C321.406 68.7554 321.891 69.0991 322.635 69.2033C323.786 69.3699 323.953 70.1877 323.333 71.2293C320.875 75.3856 317.099 77.5731 312.495 78.4637C309.656 79.0158 306.802 79.5158 303.937 79.8856C296.161 80.8752 288.5 82.6772 280.667 83.2345C276.646 83.5158 272.615 83.8127 268.588 83.8752C262.099 83.9741 255.687 84.672 249.307 85.8179C241.281 87.2606 233.193 88.0574 225.021 88.1772C221.792 88.2293 218.484 87.8074 215.349 89.047C210.323 88.3283 205.375 89.547 200.375 89.5939C186.911 89.7137 173.448 89.8752 159.984 90.0991C151.396 90.2397 142.792 89.6772 134.323 87.9272C129.104 86.8491 123.891 85.7554 118.682 84.6147C117.271 84.3074 115.901 83.8231 114.74 82.8856C113.198 81.6356 112.406 80.1043 112.838 78.0835C112.885 77.8595 113.073 77.5835 112.995 77.4324C111.875 75.2449 113.604 74.8699 114.979 74.2606C116.458 73.6147 117.745 72.6616 119.047 71.7345C124.875 67.5783 130.557 63.1929 136.562 59.3179C144.177 54.4116 151.807 49.5106 159.646 44.9533C172.12 37.6929 183.885 29.4272 194.792 19.9585C196.401 18.5626 198.005 17.1512 199.708 15.8751C203.984 12.6668 207.943 9.10432 211.698 5.31786C213.156 3.8439 214.797 2.60952 216.49 1.44807C218.229 0.250148 220.078 -0.140476 222.073 0.942857C222.734 1.29702 223.505 1.42723 224.229 1.66682Z" fill="#433820"/>
</g>
</g>
</g>
<mask id="mask105_47_13830" style="mask-type:luminance" maskUnits="userSpaceOnUse" x="117" y="5" width="193" height="75">
<path d="M117.667 5.3335H309.667V80.0002H117.667V5.3335Z" fill="white"/>
</mask>
<g mask="url(#mask105_47_13830)">
<mask id="mask106_47_13830" style="mask-type:luminance" maskUnits="userSpaceOnUse" x="109" y="-25" width="226" height="169">
<path d="M144.599 -24.8384L334.693 37.3127L299.891 143.766L109.792 81.6147L144.599 -24.8384Z" fill="white"/>
</mask>
<g mask="url(#mask106_47_13830)">
<mask id="mask107_47_13830" style="mask-type:luminance" maskUnits="userSpaceOnUse" x="109" y="-25" width="226" height="169">
<path d="M144.599 -24.8384L334.693 37.3127L299.891 143.766L109.792 81.6147L144.599 -24.8384Z" fill="white"/>
</mask>
<g mask="url(#mask107_47_13830)">
<path d="M192.021 78.7083C191.802 78.6458 191.568 78.5 191.365 78.5312C185.375 79.4062 179.354 78.7917 173.349 78.8333C167.266 78.8802 161.172 78.7656 155.089 78.7865C147.365 78.8125 139.74 77.9583 132.078 77.3021C128.214 76.9688 124.354 76.5469 120.495 76.1615C119.734 76.0885 118.969 76.0677 118.292 75.6302C118.391 74.8958 119.068 74.75 119.536 74.4219C123.953 71.2969 128.401 68.2187 132.802 65.0781C144.906 56.4375 157.521 48.5885 170.406 41.1875C177.313 37.2187 183.615 32.4427 189.786 27.474C194.948 23.3177 200.031 19.0573 205.198 14.9115C207.641 12.9479 209.849 10.7396 212.094 8.57291C212.932 7.76041 213.62 7.39583 214.552 8.38021C214.797 8.64062 215.214 8.73958 215.536 8.94271C219.203 11.2656 222.495 10.5833 225.813 7.33333C226.083 7.06771 226.375 6.79687 226.563 6.47396C227.141 5.48958 227.823 5.61458 228.646 6.15104C229.99 7.01562 231.417 7.75521 232.714 8.68229C238.542 12.8437 244.24 17.1667 249.5 22.0469C251.063 23.4948 252.646 24.9635 254.406 26.1406C262.906 31.8125 270.734 38.3698 278.807 44.6042C284.292 48.8385 289.708 53.1823 295.792 56.5469C299.922 58.8333 304.099 61.0312 308.057 63.6042C308.359 63.8021 308.781 63.875 308.906 64.4896C308.396 65.099 307.531 65.2448 306.792 65.4479C299.156 67.5625 291.531 69.7292 283.573 70.3177C279.01 70.6562 274.495 71.3906 269.969 72.0208C262.276 73.099 254.552 73.9271 246.776 74.1146C241.667 74.2344 236.589 74.7448 231.552 75.5781C221.068 77.3125 210.469 77.3021 199.896 77.75C199.219 77.7812 198.526 77.7031 197.849 77.5938C196.99 77.4531 196.349 77.6667 195.99 78.5C194.693 79.1562 193.396 79.6979 192.021 78.7083Z" fill="#EDE0D2"/>
</g>
</g>
</g>
<mask id="mask108_47_13830" style="mask-type:luminance" maskUnits="userSpaceOnUse" x="180" y="65" width="141" height="19">
<path d="M180.333 65.3335H320.333V84.0002H180.333V65.3335Z" fill="white"/>
</mask>
<g mask="url(#mask108_47_13830)">
<mask id="mask109_47_13830" style="mask-type:luminance" maskUnits="userSpaceOnUse" x="109" y="-25" width="226" height="169">
<path d="M144.599 -24.8384L334.693 37.3127L299.891 143.766L109.792 81.6147L144.599 -24.8384Z" fill="white"/>
</mask>
<g mask="url(#mask109_47_13830)">
<mask id="mask110_47_13830" style="mask-type:luminance" maskUnits="userSpaceOnUse" x="109" y="-25" width="226" height="169">
<path d="M144.599 -24.8384L334.693 37.3127L299.891 143.766L109.792 81.6147L144.599 -24.8384Z" fill="white"/>
</mask>
<g mask="url(#mask110_47_13830)">
<path d="M239.38 81.1667C239.333 81.1042 239.255 81.0417 239.255 80.9792C239.052 76.3021 238.724 77.2604 242.74 76.9688C247.365 76.6302 252.01 76.5886 256.625 76.1458C257.974 76.0208 258.615 77.3386 259.75 77.0886C260.745 76.8698 261.177 75.7292 262.422 75.5886C269 74.8594 275.562 73.9688 282.125 73.1042C283.245 72.9583 284.12 72.8906 284.693 74.2396C285.109 75.2188 286.172 75.099 286.495 74.0261C286.807 72.9792 287.297 72.5573 288.354 72.4375C293.745 71.8177 298.927 70.224 304.177 68.9531C305.646 68.599 306.792 68.4635 307.734 69.8646C308.12 70.4375 308.729 70.7917 309.443 70.9167C309.927 71 310.354 70.9011 310.625 70.4583C310.849 70.0938 310.74 69.7292 310.547 69.3802C310.177 68.7188 309.396 68.3802 309.151 67.6198C309.208 67.5573 309.25 67.4896 309.307 67.4427C311.297 65.9271 313.089 66.4115 314.948 67.8177C316.51 69 318.25 69.9479 319.875 70.974C319.651 71.8229 319.224 72.3438 318.729 72.8333C318.068 73.4844 317.448 74.3073 316.589 73.0261C316.375 72.7083 315.958 72.6302 315.568 72.5781C314.193 72.3958 313.729 73.0417 314.245 74.4271C314.318 74.625 314.37 74.8333 314.432 75.0573C313.484 75.7031 312.422 75.8646 311.385 76.0313C304.021 77.2135 296.656 78.3646 289.297 79.5625C288.24 79.7344 287.396 79.7552 286.823 78.6146C286.547 78.0677 285.891 77.8177 285.229 78.0781C284.625 78.3177 284.51 78.8125 284.687 79.3958C284.943 80.2344 284.333 80.2708 283.807 80.3177C281.687 80.5208 279.568 80.7708 277.443 80.8698C272.807 81.0938 268.172 81.2188 263.536 81.4219C262.646 81.4583 262.026 81.375 262.187 80.2396C262.24 79.8802 262.125 79.4792 262.016 79.1198C261.844 78.5625 261.453 78.1927 260.844 78.224C260.229 78.2604 259.885 78.6667 259.823 79.2604C259.74 80.0729 260.078 81.1094 259.255 81.5677C258.568 81.9479 257.646 81.9167 256.823 82.0417C253.812 82.5052 250.802 82.9531 247.792 83.4063C245.38 81.1927 242.208 81.8229 239.38 81.1667ZM212.089 79.9219C211.182 79.9479 210.271 80.0156 209.365 80.0261C205.875 80.0729 202.385 80.1302 198.901 80.1354C197.667 80.1354 196.432 79.9792 195.984 78.5C194.646 78.2292 193.354 78.9011 192.021 78.7031C192.266 80.4167 192.172 80.6354 190.875 81.1198C189.87 81.4948 188.818 81.5781 187.755 81.5729C185.797 81.5625 183.833 81.5886 181.875 81.5261C181.005 81.4948 180.568 81.724 180.719 82.6563C181.286 83.3594 182.005 83.5365 182.917 83.5833C191.708 84.0729 200.484 83.4583 209.255 83.0729C211.182 82.9896 213.219 83.1667 215.062 82.2761C214.547 79.849 214.547 79.8438 212.089 79.9219ZM236.734 78.8906C236.76 77.8802 236.26 77.5261 235.297 77.6875C234.771 77.7761 234.24 77.8177 233.714 77.9011C228.828 78.6771 223.927 79.2865 218.984 79.6042C217.026 79.7292 217.026 79.75 217.594 81.7188C218.208 82.6458 219.094 82.4792 220.021 82.4063C224.745 82.0469 229.469 81.7188 234.193 81.4063C235.094 81.3438 236.016 81.4479 236.724 80.7136C236.729 80.1042 236.724 79.5 236.734 78.8906Z" fill="#9D743B"/>
</g>
</g>
</g>
<mask id="mask111_47_13830" style="mask-type:luminance" maskUnits="userSpaceOnUse" x="115" y="2" width="134" height="86">
<path d="M115 2.6665H248.333V87.9998H115V2.6665Z" fill="white"/>
</mask>
<g mask="url(#mask111_47_13830)">
<mask id="mask112_47_13830" style="mask-type:luminance" maskUnits="userSpaceOnUse" x="109" y="-25" width="226" height="169">
<path d="M144.599 -24.8389L334.693 37.3122L299.891 143.765L109.792 81.6143L144.599 -24.8389Z" fill="white"/>
</mask>
<g mask="url(#mask112_47_13830)">
<mask id="mask113_47_13830" style="mask-type:luminance" maskUnits="userSpaceOnUse" x="109" y="-25" width="226" height="169">
<path d="M144.599 -24.8389L334.693 37.3122L299.891 143.765L109.792 81.6143L144.599 -24.8389Z" fill="white"/>
</mask>
<g mask="url(#mask113_47_13830)">
<path d="M239.38 81.1666C240.938 80.8593 242.495 80.9686 244.073 81.0416C245.474 81.1041 246.547 81.4634 247.151 82.8228C247.255 83.0624 247.573 83.2134 247.797 83.4009C240.755 84.6666 233.661 85.4009 226.505 85.5363C223.771 85.5832 220.974 86.078 218.318 85.6509C215.703 85.2343 213.411 86.2863 210.943 86.328C208.359 86.3749 205.781 86.6145 203.203 86.7968C196.062 87.2968 188.917 87.0363 181.776 87.0832C174.479 87.1301 167.188 87.4218 159.891 87.578C158.219 87.6145 156.448 87.8436 154.906 87.3801C153.385 86.9218 152.047 86.3749 150.547 87.203C142.88 86.7603 135.26 86.0051 127.88 83.6978C127.734 83.6561 127.599 83.5832 127.458 83.5259L127.469 83.552C128.052 83.0676 128.146 82.4426 128.13 81.7134C128.125 81.1197 128.349 80.5207 128.484 79.8541C129.156 79.5207 129.896 79.6874 130.635 79.7447C136.76 80.2291 142.854 81.1301 149.005 81.2863C149.896 81.3124 150.26 81.5832 150.255 82.4478C150.255 82.7447 150.318 83.0572 150.427 83.3384C150.635 83.8853 151.083 84.177 151.672 84.1561C152.375 84.1301 152.464 83.578 152.562 83.0363C152.87 81.2968 152.875 81.2134 154.609 81.2811C161.984 81.5572 169.354 81.3593 176.724 81.4374C178.349 81.4582 178.37 81.4999 178.297 83.1613C178.266 83.7655 178.089 84.3853 178.167 84.9686C178.255 85.6405 178.516 86.4009 179.417 86.302C180.156 86.2186 180.646 85.8124 180.594 84.9218C180.552 84.1718 180.672 83.4113 180.719 82.6613C189.141 83.5832 197.557 82.927 205.979 82.6561C209.01 82.5572 212.021 81.9061 215.062 82.2759C216.844 83.0468 216.844 83.0468 217.594 81.7238C223.542 81.8072 229.438 80.9113 235.37 80.703C235.823 80.6874 236.276 80.5624 236.724 80.7134C236.755 80.7811 236.807 80.8488 236.818 80.9218C236.974 81.7551 236.646 82.9218 237.938 83.0624C239.297 83.2082 239.031 81.9061 239.38 81.1666ZM127.469 83.552C126.177 83.2811 125.349 82.6718 125.776 81.1822C126.104 80.052 125.646 79.3905 124.542 79.2134C121.854 78.7916 119.161 78.3541 116.458 78.052C115.208 77.9113 114.714 78.9009 115.401 80.0155C115.979 80.953 116.901 81.4791 117.917 81.8645C119.922 82.6249 122.042 82.8697 124.135 83.1457C125.229 83.2863 126.286 84.0155 127.453 83.5259C127.458 83.5207 127.469 83.552 127.469 83.552ZM224.208 5.27593C224.458 4.86968 224.641 4.42697 224.099 4.10926C222.521 3.17176 220.646 4.46863 219.042 3.43218C218.573 3.13009 218.01 3.58322 217.609 3.92176C216.891 4.52593 215.521 4.80197 215.646 5.87489C215.776 6.95301 217.161 6.93739 217.938 7.33322C220.271 8.12489 223.005 7.20301 224.208 5.27593ZM174.74 64.3541C176.615 65.0624 178.609 65.1249 180.573 65.2707C185.036 65.5936 189.5 66.2864 193.99 65.5936C196.25 65.2447 198.521 65.1093 200.812 65.1249C203.255 65.1405 205.677 64.8853 208.016 64.1041C208.849 63.8228 209.74 63.5676 209.984 62.5207C208.99 61.7343 207.906 61.802 206.854 61.9061C204.13 62.1718 201.385 62.3645 198.693 62.8228C193.63 63.6822 188.568 63.7551 183.458 63.3905C180.224 63.1613 176.958 63.0259 173.562 63.3593C173.823 64.2291 174.349 64.203 174.74 64.3541ZM194.49 45.4634C193.125 45.4218 191.755 45.427 190.391 45.3488C183.938 44.9686 177.495 45.8697 171.047 45.4686C170.464 45.4322 169.729 45.4426 169.594 46.2395C169.464 46.9634 169.995 47.3176 170.583 47.5832C171.865 48.1561 173.224 48.2811 174.604 48.2082C178.854 47.9791 183.109 48.1197 187.365 48.1353C189.188 48.1405 191.01 48.0259 192.818 47.7291C194.104 47.5155 195.24 47.0311 196.323 46.1197C195.672 45.6145 195.099 45.4843 194.49 45.4634ZM177.198 54.1978C172.755 53.6666 168.339 52.9791 163.911 52.3436C162.766 52.1822 161.703 51.7916 160.583 51.6041C160.115 51.5311 159.661 51.6509 159.432 52.1301C159.193 52.6249 159.474 52.9895 159.786 53.3436C160.266 53.8801 160.917 54.0988 161.557 54.3332C163.708 55.1145 165.922 55.6093 168.182 55.9686C172.469 56.6509 176.766 56.9791 181.099 56.6874C181.896 56.6353 182.766 56.6405 183.458 55.6978C181.276 55.1561 179.266 54.4478 177.198 54.1978ZM166.047 61.9895C164.12 61.2551 162.167 60.7186 160.104 60.4426C157.323 60.0728 154.583 59.4009 151.833 58.8436C151.203 58.7134 150.542 58.6718 150.172 59.2447C149.75 59.9009 150.328 60.3749 150.74 60.7968C151.052 61.1197 151.411 61.4426 151.818 61.6249C156.526 63.7655 161.438 64.3436 166.521 63.4166C166.724 63.3801 166.896 63.1874 167.146 63.0207C166.901 62.3332 166.474 62.1509 166.047 61.9895ZM149.26 67.1874C146.354 66.6926 143.406 66.4374 140.479 66.0832C140.104 66.0364 139.703 65.953 139.448 66.3384C139.146 66.7968 139.349 67.2186 139.63 67.5884C140 68.0728 140.49 68.4166 141.005 68.7551C144.297 70.9374 147.958 71.1509 151.724 70.7707C152.396 70.703 153.047 70.4843 153.479 69.6613C152.198 68.5988 150.911 67.4634 149.26 67.1874ZM179.896 70.9738C173.422 70.5155 166.948 70.2916 160.344 70.4374C160.703 71.4686 161.458 71.4947 162.089 71.6197C164.021 71.9947 165.958 72.3593 167.901 72.6561C171.443 73.1978 174.99 73.4738 178.557 72.8853C179.453 72.7343 180.375 72.6509 181.068 71.8645C180.792 71.177 180.333 71.0051 179.896 70.9738ZM199.203 57.5363C200.089 57.427 201.307 57.2447 201.24 56.1509C201.172 55.0364 200.021 54.7707 198.979 54.7395C198.75 54.7343 198.526 54.7082 198.297 54.7186C195.5 54.8332 192.703 54.9426 189.906 55.0832C189.38 55.1093 188.818 55.1353 188.391 55.4947C187.896 55.9113 187.797 56.3749 188.432 56.7655C188.688 56.9166 188.99 56.9999 189.651 57.2707C192.573 57.5311 195.875 57.953 199.203 57.5363ZM200.781 70.3072C197.089 70.5676 193.396 70.8332 189.703 71.0936C189.005 71.1457 188.24 71.052 187.786 71.9843C188.198 72.1197 188.474 72.2811 188.76 72.2916C193.141 72.4686 197.516 72.4634 201.875 71.9791C202.875 71.8697 204.005 71.6718 204.688 70.328C203.271 69.6197 202.026 70.2186 200.781 70.3072ZM202.495 44.2863C201.781 44.5311 201.422 45.1197 201.521 45.8853C201.625 46.6874 202.255 47.1197 202.948 47.0884C204.984 46.9947 206.885 46.4947 208.328 44.6666C206.286 43.4843 204.396 43.6197 202.495 44.2863ZM206.984 54.5676C206.583 54.7447 206.109 54.9634 206.302 55.5468C206.432 55.9426 206.807 56.1249 207.198 56.1093C209.828 55.9947 212.385 55.5989 214.661 54.0103C212.026 53.3645 209.464 53.4739 206.984 54.5676Z" fill="#604428"/>
</g>
</g>
</g>
</svg>
