<svg width="426" height="340" viewBox="0 0 426 340" fill="none" xmlns="http://www.w3.org/2000/svg">
<mask id="mask0_47_13836" style="mask-type:luminance" maskUnits="userSpaceOnUse" x="56" y="197" width="126" height="42">
<path d="M56.4739 197.26H181.474V238.26H56.4739V197.26Z" fill="white"/>
</mask>
<g mask="url(#mask0_47_13836)">
<path d="M160.974 238.156H77.0156C65.7812 238.156 56.6719 229.046 56.6719 217.812C56.6719 206.578 65.7812 197.468 77.0156 197.468H160.974C172.208 197.468 181.318 206.578 181.318 217.812C181.318 229.046 172.208 238.156 160.974 238.156Z" fill="#604428"/>
<path d="M160.974 238.354H77.0155C65.6822 238.354 56.4739 229.146 56.4739 217.812C56.4739 206.479 65.6822 197.271 77.0155 197.271H160.974C172.307 197.271 181.521 206.479 181.521 217.812C181.521 229.146 172.307 238.354 160.974 238.354ZM77.0155 197.666C65.901 197.666 56.8697 206.698 56.8697 217.812C56.8697 228.927 65.901 237.958 77.0155 237.958H160.974C172.088 237.958 181.12 228.927 181.12 217.812C181.12 206.698 172.088 197.666 160.974 197.666H77.0155Z" fill="#604428"/>
</g>
<mask id="mask1_47_13836" style="mask-type:luminance" maskUnits="userSpaceOnUse" x="25" y="158" width="150" height="50">
<path d="M25.8281 158.932H174.828V207.932H25.8281V158.932Z" fill="white"/>
</mask>
<g mask="url(#mask1_47_13836)">
<path d="M150.026 207.531H50.2447C36.8905 207.531 26.0676 196.708 26.0676 183.354C26.0676 170.005 36.8905 159.177 50.2447 159.177H150.026C163.375 159.177 174.203 170.005 174.203 183.354C174.203 196.708 163.375 207.531 150.026 207.531Z" fill="#604428"/>
<path d="M150.026 207.771H50.2448C36.776 207.771 25.8281 196.823 25.8281 183.354C25.8281 169.885 36.776 158.942 50.2448 158.942H150.026C163.495 158.942 174.438 169.885 174.438 183.354C174.438 196.823 163.495 207.771 150.026 207.771ZM50.2448 159.411C37.0365 159.411 26.3021 170.146 26.3021 183.354C26.3021 196.562 37.0365 207.297 50.2448 207.297H150.026C163.234 207.297 173.969 196.562 173.969 183.354C173.969 170.146 163.234 159.411 150.026 159.411H50.2448Z" fill="#604428"/>
</g>
<mask id="mask2_47_13836" style="mask-type:luminance" maskUnits="userSpaceOnUse" x="0" y="127" width="150" height="50">
<path d="M0.578125 127.562H149.578V176.562H0.578125V127.562Z" fill="white"/>
</mask>
<g mask="url(#mask2_47_13836)">
<path d="M124.776 176.162H24.9948C11.6406 176.162 0.8125 165.334 0.8125 151.985C0.8125 138.631 11.6406 127.808 24.9948 127.808H124.776C138.125 127.808 148.953 138.631 148.953 151.985C148.953 165.334 138.125 176.162 124.776 176.162Z" fill="#604428"/>
<path d="M124.776 176.396H24.9948C11.526 176.396 0.578125 165.453 0.578125 151.985C0.578125 138.516 11.526 127.568 24.9948 127.568H124.776C138.245 127.568 149.188 138.516 149.188 151.985C149.188 165.453 138.245 176.396 124.776 176.396ZM24.9948 128.042C11.7812 128.042 1.05208 138.776 1.05208 151.985C1.05208 165.193 11.7812 175.927 24.9948 175.927H124.776C137.984 175.927 148.719 165.193 148.719 151.985C148.719 138.776 137.984 128.042 124.776 128.042H24.9948Z" fill="#604428"/>
</g>
<mask id="mask3_47_13836" style="mask-type:luminance" maskUnits="userSpaceOnUse" x="243" y="197" width="125" height="42">
<path d="M243 197.26H367.859V238.26H243V197.26Z" fill="white"/>
</mask>
<g mask="url(#mask3_47_13836)">
<path d="M263.401 238.156H347.365C358.599 238.156 367.708 229.047 367.708 217.812C367.708 206.578 358.599 197.469 347.365 197.469H263.401C252.167 197.469 243.057 206.578 243.057 217.812C243.057 229.047 252.167 238.156 263.401 238.156Z" fill="#604428"/>
</g>
<mask id="mask4_47_13836" style="mask-type:luminance" maskUnits="userSpaceOnUse" x="242" y="197" width="126" height="42">
<path d="M242.906 197.26H367.859V238.26H242.906V197.26Z" fill="white"/>
</mask>
<g mask="url(#mask4_47_13836)">
<path d="M263.401 238.354H347.365C358.698 238.354 367.906 229.146 367.906 217.812C367.906 206.479 358.698 197.271 347.365 197.271H263.401C252.068 197.271 242.859 206.479 242.859 217.812C242.859 229.146 252.068 238.354 263.401 238.354ZM347.365 197.666C358.479 197.666 367.51 206.698 367.51 217.812C367.51 228.927 358.479 237.958 347.365 237.958H263.401C252.286 237.958 243.255 228.927 243.255 217.812C243.255 206.698 252.286 197.666 263.401 197.666H347.365Z" fill="#604428"/>
</g>
<mask id="mask5_47_13836" style="mask-type:luminance" maskUnits="userSpaceOnUse" x="246" y="158" width="150" height="50">
<path d="M246.672 158.932H395.281V207.932H246.672V158.932Z" fill="white"/>
</mask>
<g mask="url(#mask5_47_13836)">
<path d="M271.083 207.531H370.865C384.219 207.531 395.042 196.708 395.042 183.354C395.042 170.005 384.219 159.177 370.865 159.177H271.083C257.734 159.177 246.906 170.005 246.906 183.354C246.906 196.708 257.734 207.531 271.083 207.531Z" fill="#604428"/>
<path d="M271.083 207.771H370.865C384.333 207.771 395.281 196.823 395.281 183.354C395.281 169.885 384.333 158.942 370.865 158.942H271.083C257.615 158.942 246.672 169.885 246.672 183.354C246.672 196.823 257.615 207.771 271.083 207.771ZM370.865 159.411C384.073 159.411 394.807 170.146 394.807 183.354C394.807 196.562 384.073 207.297 370.865 207.297H271.083C257.875 207.297 247.141 196.562 247.141 183.354C247.141 170.146 257.875 159.411 271.083 159.411H370.865Z" fill="#604428"/>
</g>
<mask id="mask6_47_13836" style="mask-type:luminance" maskUnits="userSpaceOnUse" x="276" y="127" width="150" height="50">
<path d="M276.807 127.562H425.417V176.562H276.807V127.562Z" fill="white"/>
</mask>
<g mask="url(#mask6_47_13836)">
<path d="M301.224 176.162H401.005C414.354 176.162 425.182 165.334 425.182 151.985C425.182 138.631 414.354 127.808 401.005 127.808H301.224C287.87 127.808 277.047 138.631 277.047 151.985C277.047 165.334 287.87 176.162 301.224 176.162Z" fill="#604428"/>
<path d="M301.224 176.396H401.005C414.474 176.396 425.417 165.453 425.417 151.985C425.417 138.516 414.474 127.568 401.005 127.568H301.224C287.755 127.568 276.807 138.516 276.807 151.985C276.807 165.453 287.755 176.396 301.224 176.396ZM401.005 128.042C414.214 128.042 424.948 138.776 424.948 151.985C424.948 165.193 414.214 175.927 401.005 175.927H301.224C288.016 175.927 277.281 165.193 277.281 151.985C277.281 138.776 288.016 128.042 301.224 128.042H401.005Z" fill="#604428"/>
</g>
<mask id="mask7_47_13836" style="mask-type:luminance" maskUnits="userSpaceOnUse" x="227" y="258" width="9" height="60">
<path d="M227.958 258.167H235.958V317.167H227.958V258.167Z" fill="white"/>
</mask>
<g mask="url(#mask7_47_13836)">
<path d="M227.974 262.479V266.708H227.984V308.708H227.974V312.937C227.974 315.271 229.87 317.167 232.203 317.167C234.536 317.167 236.432 315.271 236.432 312.937V262.479C236.432 260.146 234.547 258.245 232.213 258.245C229.88 258.245 227.974 260.146 227.974 262.479Z" fill="#FCD590"/>
</g>
<path d="M230.083 298.266V312.938C230.083 313.526 230.552 314 231.146 314C231.734 314 232.203 313.526 232.203 312.938V308.708H232.193V298.276C232.193 297.688 231.719 297.219 231.13 297.219C230.542 297.219 230.083 297.687 230.083 298.266Z" fill="#FCD590"/>
<mask id="mask8_47_13836" style="mask-type:luminance" maskUnits="userSpaceOnUse" x="186" y="255" width="9" height="60">
<path d="M186.453 255.766H194.453V314.766H186.453V255.766Z" fill="white"/>
</mask>
<g mask="url(#mask8_47_13836)">
<path d="M186.469 260.078V264.307H186.479V306.307H186.469V310.536C186.469 312.87 188.365 314.766 190.698 314.766C193.031 314.766 194.927 312.87 194.927 310.536V260.078C194.927 257.745 193.042 255.844 190.708 255.844C188.375 255.844 186.469 257.745 186.469 260.078Z" fill="#FCD590"/>
</g>
<path d="M188.578 295.865V310.537C188.578 311.125 189.047 311.599 189.641 311.599C190.229 311.599 190.698 311.125 190.698 310.537V306.307H190.688V295.88C190.688 295.287 190.214 294.818 189.625 294.818C189.036 294.818 188.578 295.287 188.578 295.865Z" fill="#FCD590"/>
<mask id="mask9_47_13836" style="mask-type:luminance" maskUnits="userSpaceOnUse" x="164" y="292" width="42" height="41">
<path d="M164.333 292.667H205.667V332.667H164.333V292.667Z" fill="white"/>
</mask>
<g mask="url(#mask9_47_13836)">
<mask id="mask10_47_13836" style="mask-type:luminance" maskUnits="userSpaceOnUse" x="162" y="290" width="45" height="44">
<path d="M201.245 333.224L162.797 296.744L168.302 290.942L206.755 327.416L201.245 333.224Z" fill="white"/>
</mask>
<g mask="url(#mask10_47_13836)">
<mask id="mask11_47_13836" style="mask-type:luminance" maskUnits="userSpaceOnUse" x="162" y="290" width="45" height="44">
<path d="M201.245 333.224L162.797 296.744L168.302 290.942L206.755 327.416L201.245 333.224Z" fill="white"/>
</mask>
<g mask="url(#mask11_47_13836)">
<path d="M165.651 299.432L168.406 302.047L168.411 302.041L195.755 327.979L195.75 327.984L198.5 330.599C200.021 332.041 202.427 331.979 203.87 330.458C205.312 328.937 205.245 326.531 203.729 325.088L170.875 293.927C169.359 292.484 166.958 292.541 165.515 294.057C164.073 295.578 164.13 297.994 165.651 299.432Z" fill="#FCD590"/>
</g>
</g>
</g>
<mask id="mask12_47_13836" style="mask-type:luminance" maskUnits="userSpaceOnUse" x="189" y="318" width="13" height="12">
<path d="M189.667 318H201.667V330H189.667V318Z" fill="white"/>
</mask>
<g mask="url(#mask12_47_13836)">
<mask id="mask13_47_13836" style="mask-type:luminance" maskUnits="userSpaceOnUse" x="162" y="290" width="45" height="44">
<path d="M201.245 333.224L162.797 296.745L168.302 290.943L206.755 327.417L201.245 333.224Z" fill="white"/>
</mask>
<g mask="url(#mask13_47_13836)">
<mask id="mask14_47_13836" style="mask-type:luminance" maskUnits="userSpaceOnUse" x="162" y="290" width="45" height="44">
<path d="M201.245 333.224L162.797 296.745L168.302 290.943L206.755 327.417L201.245 333.224Z" fill="white"/>
</mask>
<g mask="url(#mask14_47_13836)">
<path d="M190.255 320.167L199.802 329.224C200.188 329.589 200.786 329.573 201.151 329.193C201.516 328.807 201.5 328.209 201.115 327.844L198.359 325.235L198.354 325.24L191.563 318.797C191.182 318.432 190.583 318.448 190.219 318.834C189.854 319.219 189.875 319.807 190.255 320.167Z" fill="#FCD590"/>
</g>
</g>
</g>
<mask id="mask15_47_13836" style="mask-type:luminance" maskUnits="userSpaceOnUse" x="157" y="306" width="54" height="19">
<path d="M157.667 306H211V324.667H157.667V306Z" fill="white"/>
</mask>
<g mask="url(#mask15_47_13836)">
<mask id="mask16_47_13836" style="mask-type:luminance" maskUnits="userSpaceOnUse" x="157" y="305" width="55" height="20">
<path d="M211.323 313.38L159.568 324.812L157.844 317L209.594 305.573L211.323 313.38Z" fill="white"/>
</mask>
<g mask="url(#mask16_47_13836)">
<mask id="mask17_47_13836" style="mask-type:luminance" maskUnits="userSpaceOnUse" x="157" y="305" width="55" height="20">
<path d="M211.323 313.38L159.568 324.812L157.844 317L209.594 305.573L211.323 313.38Z" fill="white"/>
</mask>
<g mask="url(#mask17_47_13836)">
<path d="M163.396 323.953L167.104 323.135L167.099 323.125L203.901 314.995L203.906 315.005L207.609 314.187C209.656 313.734 210.953 311.708 210.5 309.661C210.047 307.62 208.021 306.323 205.974 306.776L161.755 316.541C159.714 316.989 158.417 319.01 158.865 321.057C159.318 323.099 161.349 324.406 163.396 323.953Z" fill="#FCD590"/>
</g>
</g>
</g>
<mask id="mask18_47_13836" style="mask-type:luminance" maskUnits="userSpaceOnUse" x="192" y="310" width="17" height="6">
<path d="M192.333 310H208.333V315.333H192.333V310Z" fill="white"/>
</mask>
<g mask="url(#mask18_47_13836)">
<mask id="mask19_47_13836" style="mask-type:luminance" maskUnits="userSpaceOnUse" x="157" y="305" width="55" height="20">
<path d="M211.323 313.38L159.568 324.812L157.844 317L209.594 305.573L211.323 313.38Z" fill="white"/>
</mask>
<g mask="url(#mask19_47_13836)">
<mask id="mask20_47_13836" style="mask-type:luminance" maskUnits="userSpaceOnUse" x="157" y="305" width="55" height="20">
<path d="M211.323 313.38L159.568 324.812L157.844 317L209.594 305.573L211.323 313.38Z" fill="white"/>
</mask>
<g mask="url(#mask20_47_13836)">
<path d="M194.349 315.177L207.203 312.339C207.719 312.224 208.042 311.719 207.927 311.203C207.813 310.687 207.307 310.365 206.792 310.479L203.083 311.297L203.089 311.307L193.948 313.328C193.432 313.443 193.109 313.948 193.224 314.464C193.339 314.979 193.839 315.292 194.349 315.177Z" fill="#FCD590"/>
</g>
</g>
</g>
<mask id="mask21_47_13836" style="mask-type:luminance" maskUnits="userSpaceOnUse" x="215" y="299" width="43" height="41">
<path d="M215 299.333H257.667V339.333H215V299.333Z" fill="white"/>
</mask>
<g mask="url(#mask21_47_13836)">
<mask id="mask22_47_13836" style="mask-type:luminance" maskUnits="userSpaceOnUse" x="214" y="298" width="45" height="43">
<path d="M219.875 298.016L258.328 334.49L252.823 340.292L214.37 303.818L219.875 298.016Z" fill="white"/>
</mask>
<g mask="url(#mask22_47_13836)">
<mask id="mask23_47_13836" style="mask-type:luminance" maskUnits="userSpaceOnUse" x="214" y="297" width="45" height="44">
<path d="M258.24 334.406L219.786 297.927L214.281 303.729L252.729 340.208L258.24 334.406Z" fill="white"/>
</mask>
<g mask="url(#mask23_47_13836)">
<path d="M222.62 300.636L225.375 303.25L225.37 303.255L252.713 329.198L252.719 329.188L255.474 331.802C256.995 333.24 257.057 335.651 255.614 337.167C254.172 338.688 251.766 338.75 250.25 337.307L217.396 306.146C215.88 304.703 215.807 302.302 217.25 300.787C218.687 299.266 221.104 299.193 222.62 300.636Z" fill="#FCD590"/>
</g>
</g>
</g>
<mask id="mask24_47_13836" style="mask-type:luminance" maskUnits="userSpaceOnUse" x="243" y="323" width="12" height="13">
<path d="M243 323.333H255V335.333H243V323.333Z" fill="white"/>
</mask>
<g mask="url(#mask24_47_13836)">
<mask id="mask25_47_13836" style="mask-type:luminance" maskUnits="userSpaceOnUse" x="214" y="298" width="45" height="43">
<path d="M219.875 298.016L258.328 334.49L252.823 340.292L214.37 303.818L219.875 298.016Z" fill="white"/>
</mask>
<g mask="url(#mask25_47_13836)">
<mask id="mask26_47_13836" style="mask-type:luminance" maskUnits="userSpaceOnUse" x="214" y="297" width="45" height="44">
<path d="M258.24 334.406L219.786 297.927L214.281 303.729L252.729 340.208L258.24 334.406Z" fill="white"/>
</mask>
<g mask="url(#mask26_47_13836)">
<path d="M244.62 324.115L254.172 333.172C254.552 333.537 254.568 334.136 254.208 334.521C253.844 334.901 253.245 334.917 252.859 334.558L250.104 331.943L250.115 331.933L243.323 325.495C242.943 325.131 242.927 324.532 243.287 324.146C243.651 323.766 244.245 323.756 244.62 324.115Z" fill="#FCD590"/>
</g>
</g>
</g>
<mask id="mask27_47_13836" style="mask-type:luminance" maskUnits="userSpaceOnUse" x="209" y="306" width="54" height="19">
<path d="M209.667 306H263V324.667H209.667V306Z" fill="white"/>
</mask>
<g mask="url(#mask27_47_13836)">
<mask id="mask28_47_13836" style="mask-type:luminance" maskUnits="userSpaceOnUse" x="209" y="306" width="55" height="20">
<path d="M209.802 317.854L261.557 306.422L263.281 314.234L211.526 325.667L209.802 317.854Z" fill="white"/>
</mask>
<g mask="url(#mask28_47_13836)">
<mask id="mask29_47_13836" style="mask-type:luminance" maskUnits="userSpaceOnUse" x="209" y="306" width="55" height="20">
<path d="M261.432 306.448L209.682 317.88L211.406 325.693L263.162 314.26L261.432 306.448Z" fill="white"/>
</mask>
<g mask="url(#mask29_47_13836)">
<path d="M213.511 317.047L217.219 316.229L217.224 316.24L254.026 308.109L254.021 308.099L257.729 307.281C259.776 306.828 261.802 308.125 262.255 310.172C262.708 312.214 261.412 314.245 259.365 314.698L215.151 324.464C213.104 324.911 211.078 323.63 210.625 321.583C210.177 319.536 211.469 317.5 213.511 317.047Z" fill="#FCD590"/>
</g>
</g>
</g>
<mask id="mask30_47_13836" style="mask-type:luminance" maskUnits="userSpaceOnUse" x="244" y="308" width="17" height="6">
<path d="M244.333 308.667H260.333V314H244.333V308.667Z" fill="white"/>
</mask>
<g mask="url(#mask30_47_13836)">
<mask id="mask31_47_13836" style="mask-type:luminance" maskUnits="userSpaceOnUse" x="209" y="306" width="55" height="20">
<path d="M209.802 317.854L261.557 306.422L263.281 314.234L211.526 325.667L209.802 317.854Z" fill="white"/>
</mask>
<g mask="url(#mask31_47_13836)">
<mask id="mask32_47_13836" style="mask-type:luminance" maskUnits="userSpaceOnUse" x="209" y="306" width="55" height="20">
<path d="M261.432 306.448L209.682 317.88L211.406 325.693L263.161 314.26L261.432 306.448Z" fill="white"/>
</mask>
<g mask="url(#mask32_47_13836)">
<path d="M245.281 311.969L258.135 309.13C258.656 309.015 259.156 309.338 259.271 309.854C259.385 310.37 259.062 310.875 258.547 310.989L254.838 311.807V311.797L245.698 313.818C245.182 313.927 244.677 313.609 244.568 313.094C244.453 312.573 244.776 312.083 245.281 311.969Z" fill="#FCD590"/>
</g>
</g>
</g>
<mask id="mask33_47_13836" style="mask-type:luminance" maskUnits="userSpaceOnUse" x="123" y="116" width="178" height="177">
<path d="M123.01 116.01H300.01V292.667H123.01V116.01Z" fill="white"/>
</mask>
<g mask="url(#mask33_47_13836)">
<path d="M299.651 204.333C299.651 205.776 299.615 207.224 299.542 208.667C299.474 210.109 299.365 211.552 299.224 212.989C299.083 214.427 298.906 215.864 298.693 217.292C298.479 218.724 298.234 220.146 297.953 221.562C297.672 222.979 297.354 224.39 297 225.792C296.651 227.193 296.266 228.588 295.844 229.969C295.427 231.354 294.974 232.724 294.484 234.088C294 235.448 293.479 236.797 292.927 238.13C292.375 239.469 291.787 240.786 291.167 242.094C290.552 243.401 289.901 244.693 289.219 245.969C288.537 247.239 287.828 248.5 287.083 249.739C286.339 250.979 285.568 252.198 284.766 253.401C283.964 254.604 283.13 255.786 282.266 256.943C281.406 258.104 280.516 259.245 279.599 260.364C278.682 261.479 277.74 262.573 276.771 263.646C275.797 264.713 274.802 265.76 273.781 266.786C272.76 267.807 271.714 268.802 270.641 269.776C269.568 270.745 268.474 271.687 267.359 272.604C266.24 273.521 265.104 274.411 263.943 275.271C262.781 276.135 261.599 276.963 260.396 277.771C259.193 278.573 257.974 279.344 256.734 280.088C255.495 280.828 254.24 281.542 252.964 282.224C251.688 282.906 250.396 283.557 249.089 284.172C247.781 284.792 246.464 285.375 245.125 285.932C243.792 286.484 242.443 287.005 241.083 287.489C239.724 287.979 238.349 288.432 236.969 288.849C235.583 289.271 234.193 289.656 232.787 290.005C231.385 290.359 229.979 290.672 228.557 290.958C227.141 291.239 225.719 291.484 224.287 291.698C222.859 291.911 221.422 292.088 219.984 292.229C218.547 292.37 217.104 292.474 215.662 292.547C214.219 292.62 212.776 292.651 211.328 292.651C209.885 292.651 208.438 292.62 206.995 292.547C205.552 292.474 204.109 292.37 202.672 292.229C201.234 292.088 199.797 291.911 198.37 291.698C196.938 291.484 195.516 291.239 194.099 290.958C192.682 290.672 191.271 290.359 189.87 290.005C188.469 289.656 187.073 289.271 185.693 288.849C184.307 288.432 182.938 287.979 181.573 287.489C180.214 287.005 178.865 286.484 177.531 285.932C176.193 285.375 174.875 284.792 173.568 284.172C172.26 283.557 170.969 282.906 169.693 282.224C168.422 281.542 167.162 280.828 165.922 280.088C164.682 279.344 163.464 278.573 162.26 277.771C161.057 276.963 159.875 276.135 158.719 275.271C157.557 274.411 156.417 273.521 155.297 272.604C154.182 271.687 153.089 270.745 152.016 269.776C150.943 268.802 149.901 267.807 148.875 266.786C147.854 265.76 146.859 264.713 145.885 263.646C144.917 262.573 143.974 261.479 143.057 260.364C142.141 259.245 141.25 258.104 140.391 256.943C139.526 255.786 138.698 254.604 137.891 253.401C137.089 252.198 136.318 250.979 135.573 249.739C134.828 248.5 134.12 247.239 133.438 245.969C132.755 244.693 132.104 243.401 131.49 242.094C130.87 240.786 130.287 239.469 129.729 238.13C129.177 236.797 128.656 235.448 128.172 234.088C127.682 232.724 127.229 231.354 126.813 229.969C126.391 228.588 126.005 227.193 125.656 225.792C125.302 224.39 124.99 222.979 124.703 221.562C124.422 220.146 124.177 218.724 123.964 217.292C123.75 215.864 123.573 214.427 123.432 212.989C123.292 211.552 123.188 210.109 123.115 208.667C123.042 207.224 123.01 205.776 123.01 204.333C123.01 202.885 123.042 201.443 123.115 200C123.188 198.557 123.292 197.114 123.432 195.677C123.573 194.239 123.75 192.802 123.964 191.375C124.177 189.943 124.422 188.521 124.703 187.104C124.99 185.682 125.302 184.276 125.656 182.875C126.005 181.469 126.391 180.078 126.813 178.693C127.229 177.312 127.682 175.937 128.172 174.578C128.656 173.219 129.177 171.87 129.729 170.536C130.287 169.198 130.87 167.875 131.49 166.573C132.104 165.265 132.755 163.974 133.438 162.698C134.12 161.422 134.828 160.167 135.573 158.927C136.318 157.687 137.089 156.469 137.891 155.265C138.698 154.062 139.526 152.88 140.391 151.719C141.25 150.557 142.141 149.422 143.057 148.302C143.974 147.187 144.917 146.094 145.885 145.021C146.859 143.948 147.854 142.901 148.875 141.88C149.901 140.859 150.943 139.864 152.016 138.89C153.089 137.922 154.182 136.979 155.297 136.062C156.417 135.14 157.557 134.255 158.719 133.39C159.875 132.531 161.057 131.698 162.26 130.896C163.464 130.094 164.682 129.323 165.922 128.578C167.162 127.833 168.422 127.125 169.693 126.443C170.969 125.76 172.26 125.109 173.568 124.489C174.875 123.875 176.193 123.286 177.531 122.734C178.865 122.182 180.214 121.661 181.573 121.177C182.938 120.687 184.307 120.234 185.693 119.818C187.073 119.396 188.469 119.01 189.87 118.661C191.271 118.307 192.682 117.989 194.099 117.708C195.516 117.427 196.938 117.182 198.37 116.969C199.797 116.755 201.234 116.578 202.672 116.437C204.109 116.297 205.552 116.187 206.995 116.12C208.438 116.047 209.885 116.01 211.328 116.01C212.776 116.01 214.219 116.047 215.662 116.12C217.104 116.187 218.547 116.297 219.984 116.437C221.422 116.578 222.859 116.755 224.287 116.969C225.719 117.182 227.141 117.427 228.557 117.708C229.979 117.989 231.385 118.307 232.787 118.661C234.193 119.01 235.583 119.396 236.969 119.818C238.349 120.234 239.724 120.687 241.083 121.177C242.443 121.661 243.792 122.182 245.125 122.734C246.464 123.286 247.781 123.875 249.089 124.489C250.396 125.109 251.688 125.76 252.964 126.443C254.24 127.125 255.495 127.833 256.734 128.578C257.974 129.323 259.193 130.094 260.396 130.896C261.599 131.698 262.781 132.531 263.943 133.39C265.104 134.255 266.24 135.14 267.359 136.062C268.474 136.979 269.568 137.922 270.641 138.89C271.714 139.864 272.76 140.859 273.781 141.88C274.802 142.901 275.797 143.948 276.771 145.021C277.74 146.094 278.682 147.187 279.599 148.302C280.516 149.422 281.406 150.557 282.266 151.719C283.13 152.88 283.964 154.062 284.766 155.265C285.568 156.469 286.339 157.687 287.083 158.927C287.828 160.167 288.537 161.422 289.219 162.698C289.901 163.974 290.552 165.265 291.167 166.573C291.787 167.875 292.375 169.198 292.927 170.536C293.479 171.87 294 173.219 294.484 174.578C294.974 175.937 295.427 177.312 295.844 178.693C296.266 180.078 296.651 181.469 297 182.875C297.354 184.276 297.672 185.682 297.953 187.104C298.234 188.521 298.479 189.943 298.693 191.375C298.906 192.802 299.083 194.239 299.224 195.677C299.365 197.114 299.474 198.557 299.542 200C299.615 201.443 299.651 202.885 299.651 204.333Z" fill="#442F19"/>
</g>
<mask id="mask34_47_13836" style="mask-type:luminance" maskUnits="userSpaceOnUse" x="123" y="56" width="178" height="178">
<path d="M123.01 56.4531H300.01V233.453H123.01V56.4531Z" fill="white"/>
</mask>
<g mask="url(#mask34_47_13836)">
<path d="M299.651 144.771C299.651 146.219 299.615 147.661 299.542 149.104C299.474 150.552 299.365 151.99 299.224 153.427C299.083 154.87 298.906 156.302 298.693 157.729C298.479 159.161 298.234 160.583 297.953 162.005C297.672 163.422 297.354 164.828 297 166.234C296.651 167.635 296.266 169.026 295.844 170.411C295.427 171.792 294.974 173.167 294.484 174.526C294 175.885 293.479 177.234 292.927 178.573C292.375 179.906 291.787 181.229 291.167 182.536C290.552 183.839 289.901 185.13 289.219 186.406C288.537 187.682 287.828 188.938 287.083 190.177C286.339 191.417 285.568 192.641 284.766 193.839C283.964 195.042 283.13 196.224 282.266 197.385C281.406 198.547 280.516 199.682 279.599 200.802C278.682 201.922 277.74 203.016 276.771 204.083C275.797 205.156 274.802 206.203 273.781 207.224C272.76 208.245 271.714 209.245 270.641 210.214C269.568 211.182 268.474 212.13 267.359 213.047C266.24 213.964 265.104 214.849 263.943 215.714C262.781 216.573 261.599 217.406 260.396 218.208C259.193 219.01 257.974 219.786 256.734 220.526C255.495 221.271 254.24 221.984 252.964 222.661C251.688 223.344 250.396 223.995 249.089 224.615C247.781 225.229 246.464 225.818 245.125 226.37C243.792 226.922 242.443 227.443 241.083 227.927C239.724 228.417 238.349 228.87 236.969 229.292C235.583 229.708 234.193 230.094 232.787 230.448C231.385 230.797 229.979 231.115 228.557 231.396C227.141 231.677 225.719 231.927 224.287 232.135C222.859 232.349 221.422 232.526 219.984 232.667C218.547 232.807 217.104 232.917 215.662 232.984C214.219 233.057 212.776 233.094 211.328 233.094C209.885 233.094 208.438 233.057 206.995 232.984C205.552 232.917 204.109 232.807 202.672 232.667C201.234 232.526 199.797 232.349 198.37 232.135C196.938 231.927 195.516 231.677 194.099 231.396C192.682 231.115 191.271 230.797 189.87 230.448C188.469 230.094 187.073 229.708 185.693 229.292C184.307 228.87 182.938 228.417 181.573 227.927C180.214 227.443 178.865 226.922 177.531 226.37C176.193 225.818 174.875 225.229 173.568 224.615C172.26 223.995 170.969 223.344 169.693 222.661C168.422 221.984 167.162 221.271 165.922 220.526C164.682 219.786 163.464 219.01 162.26 218.208C161.057 217.406 159.875 216.573 158.719 215.714C157.557 214.849 156.417 213.964 155.297 213.047C154.182 212.13 153.089 211.182 152.016 210.214C150.943 209.245 149.901 208.245 148.875 207.224C147.854 206.203 146.859 205.156 145.885 204.083C144.917 203.016 143.974 201.922 143.057 200.802C142.141 199.682 141.25 198.547 140.391 197.385C139.526 196.224 138.698 195.042 137.891 193.839C137.089 192.641 136.318 191.417 135.573 190.177C134.828 188.938 134.12 187.682 133.438 186.406C132.755 185.13 132.104 183.839 131.49 182.536C130.87 181.229 130.287 179.906 129.729 178.573C129.177 177.234 128.656 175.885 128.172 174.526C127.682 173.167 127.229 171.792 126.813 170.411C126.391 169.026 126.005 167.635 125.656 166.234C125.302 164.828 124.99 163.422 124.703 162.005C124.422 160.583 124.177 159.161 123.964 157.729C123.75 156.302 123.573 154.87 123.432 153.427C123.292 151.99 123.188 150.552 123.115 149.104C123.042 147.661 123.01 146.219 123.01 144.771C123.01 143.328 123.042 141.88 123.115 140.438C123.188 138.995 123.292 137.552 123.432 136.115C123.573 134.677 123.75 133.245 123.964 131.812C124.177 130.385 124.422 128.958 124.703 127.542C124.99 126.125 125.302 124.714 125.656 123.312C126.005 121.911 126.391 120.516 126.813 119.135C127.229 117.75 127.682 116.38 128.172 115.016C128.656 113.656 129.177 112.307 129.729 110.974C130.287 109.641 130.87 108.318 131.49 107.01C132.104 105.703 132.755 104.411 133.438 103.141C134.12 101.865 134.828 100.604 135.573 99.3646C136.318 98.125 137.089 96.9062 137.891 95.7031C138.698 94.5 139.526 93.3229 140.391 92.1615C141.25 91 142.141 89.8594 143.057 88.7448C143.974 87.625 144.917 86.5313 145.885 85.4583C146.859 84.3906 147.854 83.3438 148.875 82.3229C149.901 81.2969 150.943 80.3021 152.016 79.3333C153.089 78.3594 154.182 77.4167 155.297 76.5C156.417 75.5833 157.557 74.6927 158.719 73.8333C159.875 72.974 161.057 72.1406 162.26 71.3385C163.464 70.5313 164.682 69.7604 165.922 69.0156C167.162 68.276 168.422 67.5625 169.693 66.8802C170.969 66.1979 172.26 65.5521 173.568 64.9323C174.875 64.3125 176.193 63.7292 177.531 63.1771C178.865 62.6198 180.214 62.1042 181.573 61.6146C182.938 61.1302 184.307 60.6771 185.693 60.2552C187.073 59.8333 188.469 59.4479 189.87 59.099C191.271 58.75 192.682 58.4323 194.099 58.151C195.516 57.8646 196.938 57.6198 198.37 57.4062C199.797 57.1979 201.234 57.0208 202.672 56.875C204.109 56.7344 205.552 56.6302 206.995 56.5573C208.438 56.4896 209.885 56.4531 211.328 56.4531C212.776 56.4531 214.219 56.4896 215.662 56.5573C217.104 56.6302 218.547 56.7344 219.984 56.875C221.422 57.0208 222.859 57.1979 224.287 57.4062C225.719 57.6198 227.141 57.8646 228.557 58.151C229.979 58.4323 231.385 58.75 232.787 59.099C234.193 59.4479 235.583 59.8333 236.969 60.2552C238.349 60.6771 239.724 61.1302 241.083 61.6146C242.443 62.1042 243.792 62.6198 245.125 63.1771C246.464 63.7292 247.781 64.3125 249.089 64.9323C250.396 65.5521 251.688 66.1979 252.964 66.8802C254.24 67.5625 255.495 68.276 256.734 69.0156C257.974 69.7604 259.193 70.5313 260.396 71.3385C261.599 72.1406 262.781 72.974 263.943 73.8333C265.104 74.6927 266.24 75.5833 267.359 76.5C268.474 77.4167 269.568 78.3594 270.641 79.3333C271.714 80.3021 272.76 81.2969 273.781 82.3229C274.802 83.3438 275.797 84.3906 276.771 85.4583C277.74 86.5313 278.682 87.625 279.599 88.7448C280.516 89.8594 281.406 91 282.266 92.1615C283.13 93.3229 283.964 94.5 284.766 95.7031C285.568 96.9062 286.339 98.125 287.083 99.3646C287.828 100.604 288.537 101.865 289.219 103.141C289.901 104.411 290.552 105.703 291.167 107.01C291.787 108.318 292.375 109.641 292.927 110.974C293.479 112.307 294 113.656 294.484 115.016C294.974 116.38 295.427 117.75 295.844 119.135C296.266 120.516 296.651 121.911 297 123.312C297.354 124.714 297.672 126.125 297.953 127.542C298.234 128.958 298.479 130.385 298.693 131.812C298.906 133.245 299.083 134.677 299.224 136.115C299.365 137.552 299.474 138.995 299.542 140.438C299.615 141.88 299.651 143.328 299.651 144.771Z" fill="#EDE0D2"/>
</g>
<mask id="mask35_47_13836" style="mask-type:luminance" maskUnits="userSpaceOnUse" x="222" y="100" width="64" height="64">
<path d="M222.641 100.922H285.339V163.615H222.641V100.922Z" fill="white"/>
</mask>
<g mask="url(#mask35_47_13836)">
<mask id="mask36_47_13836" style="mask-type:luminance" maskUnits="userSpaceOnUse" x="222" y="100" width="64" height="64">
<path d="M253.99 100.922C236.677 100.922 222.641 114.953 222.641 132.271C222.641 149.583 236.677 163.615 253.99 163.615C271.302 163.615 285.339 149.583 285.339 132.271C285.339 114.953 271.302 100.922 253.99 100.922Z" fill="white"/>
</mask>
<g mask="url(#mask36_47_13836)">
<path d="M222.641 100.922H285.339V163.615H222.641V100.922Z" fill="white"/>
</g>
</g>
<mask id="mask37_47_13836" style="mask-type:luminance" maskUnits="userSpaceOnUse" x="137" y="100" width="64" height="64">
<path d="M137.88 100.922H200.578V163.615H137.88V100.922Z" fill="white"/>
</mask>
<g mask="url(#mask37_47_13836)">
<mask id="mask38_47_13836" style="mask-type:luminance" maskUnits="userSpaceOnUse" x="137" y="100" width="64" height="64">
<path d="M169.229 100.922C151.917 100.922 137.88 114.953 137.88 132.271C137.88 149.583 151.917 163.615 169.229 163.615C186.542 163.615 200.578 149.583 200.578 132.271C200.578 114.953 186.542 100.922 169.229 100.922Z" fill="white"/>
</mask>
<g mask="url(#mask38_47_13836)">
<path d="M137.88 100.922H200.578V163.615H137.88V100.922Z" fill="white"/>
</g>
</g>
<mask id="mask39_47_13836" style="mask-type:luminance" maskUnits="userSpaceOnUse" x="193" y="154" width="37" height="19">
<path d="M193.083 154.448H229.083V172.448H193.083V154.448Z" fill="white"/>
</mask>
<g mask="url(#mask39_47_13836)">
<path d="M229.568 163.609C229.568 164.214 229.453 164.807 229.219 165.396C228.984 165.984 228.641 166.557 228.182 167.109C227.724 167.667 227.161 168.193 226.495 168.693C225.828 169.188 225.073 169.651 224.224 170.078C223.38 170.5 222.458 170.88 221.463 171.214C220.469 171.547 219.417 171.828 218.307 172.057C217.203 172.286 216.062 172.464 214.885 172.578C213.713 172.698 212.526 172.755 211.328 172.755C210.13 172.755 208.943 172.698 207.771 172.578C206.594 172.464 205.453 172.286 204.349 172.057C203.24 171.828 202.187 171.547 201.193 171.214C200.198 170.88 199.276 170.5 198.427 170.078C197.583 169.651 196.823 169.188 196.161 168.693C195.495 168.193 194.932 167.667 194.474 167.109C194.016 166.557 193.672 165.984 193.437 165.396C193.203 164.807 193.083 164.214 193.083 163.609C193.083 163.01 193.203 162.417 193.437 161.828C193.672 161.24 194.016 160.667 194.474 160.115C194.932 159.557 195.495 159.031 196.161 158.531C196.823 158.031 197.583 157.573 198.427 157.146C199.276 156.724 200.198 156.344 201.193 156.01C202.187 155.677 203.24 155.396 204.349 155.167C205.453 154.932 206.594 154.76 207.771 154.646C208.943 154.526 210.13 154.469 211.328 154.469C212.526 154.469 213.713 154.526 214.885 154.646C216.062 154.76 217.203 154.932 218.307 155.167C219.417 155.396 220.469 155.677 221.463 156.01C222.458 156.344 223.38 156.724 224.224 157.146C225.073 157.573 225.828 158.031 226.495 158.531C227.161 159.031 227.724 159.557 228.182 160.115C228.641 160.667 228.984 161.24 229.219 161.828C229.453 162.417 229.568 163.01 229.568 163.609Z" fill="#FFB93E"/>
</g>
<mask id="mask40_47_13836" style="mask-type:luminance" maskUnits="userSpaceOnUse" x="234" y="113" width="39" height="39">
<path d="M234.203 113.229H272.964V151.989H234.203V113.229Z" fill="white"/>
</mask>
<g mask="url(#mask40_47_13836)">
<mask id="mask41_47_13836" style="mask-type:luminance" maskUnits="userSpaceOnUse" x="234" y="113" width="39" height="39">
<path d="M253.583 113.229C242.88 113.229 234.203 121.906 234.203 132.609C234.203 143.312 242.88 151.989 253.583 151.989C264.286 151.989 272.964 143.312 272.964 132.609C272.964 121.906 264.286 113.229 253.583 113.229Z" fill="white"/>
</mask>
<g mask="url(#mask41_47_13836)">
<path d="M234.203 113.229H272.964V151.989H234.203V113.229Z" fill="black"/>
</g>
</g>
<mask id="mask42_47_13836" style="mask-type:luminance" maskUnits="userSpaceOnUse" x="151" y="113" width="40" height="39">
<path d="M151.932 113.229H190.698V151.989H151.932V113.229Z" fill="white"/>
</mask>
<g mask="url(#mask42_47_13836)">
<mask id="mask43_47_13836" style="mask-type:luminance" maskUnits="userSpaceOnUse" x="151" y="113" width="40" height="39">
<path d="M171.313 113.229C160.609 113.229 151.932 121.906 151.932 132.609C151.932 143.312 160.609 151.989 171.313 151.989C182.021 151.989 190.698 143.312 190.698 132.609C190.698 121.906 182.021 113.229 171.313 113.229Z" fill="white"/>
</mask>
<g mask="url(#mask43_47_13836)">
<path d="M151.932 113.229H190.698V151.989H151.932V113.229Z" fill="black"/>
</g>
</g>
<mask id="mask44_47_13836" style="mask-type:luminance" maskUnits="userSpaceOnUse" x="169" y="114" width="19" height="19">
<path d="M169.229 114.047H187.792V132.609H169.229V114.047Z" fill="white"/>
</mask>
<g mask="url(#mask44_47_13836)">
<mask id="mask45_47_13836" style="mask-type:luminance" maskUnits="userSpaceOnUse" x="169" y="114" width="19" height="19">
<path d="M178.51 114.047C173.385 114.047 169.229 118.203 169.229 123.328C169.229 128.453 173.385 132.609 178.51 132.609C183.635 132.609 187.792 128.453 187.792 123.328C187.792 118.203 183.635 114.047 178.51 114.047Z" fill="white"/>
</mask>
<g mask="url(#mask45_47_13836)">
<path d="M169.229 114.047H187.792V132.609H169.229V114.047Z" fill="white"/>
</g>
</g>
<mask id="mask46_47_13836" style="mask-type:luminance" maskUnits="userSpaceOnUse" x="251" y="113" width="20" height="20">
<path d="M251.49 113.708H270.052V132.271H251.49V113.708Z" fill="white"/>
</mask>
<g mask="url(#mask46_47_13836)">
<mask id="mask47_47_13836" style="mask-type:luminance" maskUnits="userSpaceOnUse" x="251" y="113" width="20" height="20">
<path d="M260.771 113.708C255.646 113.708 251.49 117.86 251.49 122.99C251.49 128.115 255.646 132.271 260.771 132.271C265.896 132.271 270.052 128.115 270.052 122.99C270.052 117.86 265.896 113.708 260.771 113.708Z" fill="white"/>
</mask>
<g mask="url(#mask47_47_13836)">
<path d="M251.49 113.708H270.052V132.271H251.49V113.708Z" fill="white"/>
</g>
</g>
<mask id="mask48_47_13836" style="mask-type:luminance" maskUnits="userSpaceOnUse" x="166" y="235" width="94" height="35">
<path d="M166.578 235.099H259.578V270H166.578V235.099Z" fill="white"/>
</mask>
<g mask="url(#mask48_47_13836)">
<path d="M248.615 253.912C236.031 250.505 226.615 253.38 220.432 257.026C228.885 248.427 241.781 245.604 245.906 244.901L248.615 253.912ZM233.74 235.146L237.286 243.625C230.599 245.698 221.854 249.735 215.938 257.172C219.682 244.156 229.922 237.297 233.74 235.146ZM192.203 235.146C196.016 237.297 206.255 244.13 210 257.193C204.083 249.755 195.339 245.724 188.651 243.646L192.203 235.146ZM180.031 244.901C184.161 245.604 197.057 248.427 205.505 257.026C199.323 253.38 189.906 250.505 177.323 253.912L180.031 244.901ZM218.401 269.63H207.536C205.146 266.542 194.807 256.615 166.578 268.375L169.021 260.479C197.177 246.813 211.083 265.573 211.667 266.396C211.688 266.422 211.714 266.422 211.74 266.443C211.76 266.495 211.786 266.542 211.833 266.563C211.859 266.589 211.859 266.589 211.859 266.615C211.906 266.662 211.953 266.688 212.026 266.708C212.078 266.735 212.125 266.781 212.172 266.807C212.219 266.828 212.271 266.88 212.344 266.901C212.365 266.901 212.391 266.927 212.391 266.927C212.484 266.974 212.609 266.974 212.729 267C212.802 267 212.849 267.047 212.922 267.047C212.943 267.047 212.969 267.047 212.995 267.047C213.016 267.047 213.042 267.047 213.068 267.047C213.141 267.047 213.188 267.026 213.26 267C213.38 266.974 213.474 266.974 213.599 266.927C213.62 266.927 213.646 266.901 213.646 266.901C213.719 266.88 213.766 266.828 213.812 266.807C213.865 266.781 213.911 266.761 213.958 266.708C214.005 266.662 214.078 266.636 214.13 266.615C214.151 266.589 214.151 266.589 214.151 266.563C214.203 266.516 214.224 266.495 214.25 266.443C214.271 266.422 214.297 266.422 214.323 266.396C214.901 265.573 228.812 246.813 256.969 260.479L259.406 268.375C231.151 256.615 220.792 266.563 218.401 269.63Z" fill="#EDE0D2"/>
</g>
<mask id="mask49_47_13836" style="mask-type:luminance" maskUnits="userSpaceOnUse" x="112" y="0" width="213" height="92">
<path d="M112.333 0.666504H324.333V91.3332H112.333V0.666504Z" fill="white"/>
</mask>
<g mask="url(#mask49_47_13836)">
<mask id="mask50_47_13836" style="mask-type:luminance" maskUnits="userSpaceOnUse" x="110" y="-25" width="226" height="170">
<path d="M145.031 -24.0679L335.13 38.0832L300.328 144.536L110.229 82.3853L145.031 -24.0679Z" fill="white"/>
</mask>
<g mask="url(#mask50_47_13836)">
<mask id="mask51_47_13836" style="mask-type:luminance" maskUnits="userSpaceOnUse" x="110" y="-25" width="226" height="170">
<path d="M145.031 -24.0679L335.13 38.0832L300.328 144.536L110.229 82.3853L145.031 -24.0679Z" fill="white"/>
</mask>
<g mask="url(#mask51_47_13836)">
<path d="M224.667 2.43714C228.771 3.72881 232.505 5.76006 235.989 8.26006C241.562 12.2496 246.979 16.4371 251.984 21.1299C253.875 22.9007 255.88 24.5309 258.047 25.9684C266.307 31.4371 273.802 37.9163 281.656 43.9215C287.161 48.1246 292.573 52.4684 298.745 55.6819C306.526 59.734 313.776 64.6507 321.266 69.1767C321.844 69.5257 322.328 69.8694 323.068 69.9788C324.224 70.1403 324.385 70.9632 323.771 72.0049C321.312 76.1611 317.536 78.3434 312.932 79.2392C310.094 79.7861 307.239 80.2913 304.37 80.6559C296.599 81.6507 288.937 83.4476 281.104 84.0049C277.083 84.2913 273.052 84.583 269.026 84.6455C262.536 84.7444 256.125 85.4476 249.745 86.5934C241.719 88.0309 233.625 88.8278 225.458 88.9528C222.229 88.9996 218.922 88.583 215.786 89.8174C210.76 89.0986 205.812 90.3226 200.812 90.3642C187.349 90.484 173.885 90.6455 160.422 90.8694C151.833 91.0101 143.224 90.4528 134.76 88.6976C129.542 87.6194 124.323 86.5257 119.12 85.3851C117.708 85.0778 116.338 84.5934 115.177 83.6559C113.635 82.4059 112.844 80.8799 113.276 78.859C113.323 78.6351 113.51 78.3538 113.432 78.2028C112.312 76.0153 114.042 75.6403 115.417 75.0361C116.891 74.3851 118.182 73.4371 119.484 72.5049C125.312 68.3538 130.995 63.9684 137 60.0934C144.614 55.1819 152.245 50.2861 160.083 45.7236C172.557 38.4684 184.323 30.2028 195.224 20.734C196.838 19.333 198.443 17.9267 200.146 16.6455C204.422 13.4371 208.375 9.87464 212.135 6.08818C213.594 4.61943 215.234 3.37985 216.927 2.21839C218.667 1.02568 220.516 0.629851 222.51 1.71839C223.167 2.06735 223.943 2.20277 224.667 2.43714Z" fill="#433820"/>
</g>
</g>
</g>
<mask id="mask52_47_13836" style="mask-type:luminance" maskUnits="userSpaceOnUse" x="117" y="6" width="193" height="75">
<path d="M117.667 6H309.667V80.6667H117.667V6Z" fill="white"/>
</mask>
<g mask="url(#mask52_47_13836)">
<mask id="mask53_47_13836" style="mask-type:luminance" maskUnits="userSpaceOnUse" x="110" y="-25" width="226" height="170">
<path d="M145.031 -24.0679L335.13 38.0832L300.328 144.536L110.229 82.3853L145.031 -24.0679Z" fill="white"/>
</mask>
<g mask="url(#mask53_47_13836)">
<mask id="mask54_47_13836" style="mask-type:luminance" maskUnits="userSpaceOnUse" x="110" y="-25" width="226" height="170">
<path d="M145.031 -24.0679L335.13 38.0832L300.328 144.536L110.229 82.3853L145.031 -24.0679Z" fill="white"/>
</mask>
<g mask="url(#mask54_47_13836)">
<path d="M192.458 79.4788C192.235 79.4163 192.005 79.2757 191.802 79.3018C185.813 80.182 179.792 79.5674 173.787 79.6091C167.703 79.6507 161.604 79.5413 155.526 79.557C147.802 79.583 140.172 78.7288 132.516 78.0726C128.651 77.7393 124.792 77.3174 120.927 76.9372C120.172 76.8591 119.406 76.8382 118.724 76.4007C118.828 75.6716 119.505 75.5257 119.969 75.1924C124.391 72.0726 128.839 68.9945 133.24 65.8486C145.344 57.2132 157.958 49.3643 170.844 41.958C177.75 37.9893 184.052 33.2132 190.224 28.2445C195.386 24.0882 200.469 19.833 205.636 15.682C208.078 13.7184 210.287 11.5153 212.531 9.34863C213.37 8.53613 214.057 8.16634 214.985 9.15071C215.235 9.41113 215.651 9.5153 215.969 9.71321C219.641 12.0361 222.932 11.3538 226.25 8.10384C226.521 7.83821 226.813 7.56738 227 7.24446C227.578 6.26009 228.261 6.38509 229.083 6.92155C230.427 7.79134 231.854 8.52571 233.151 9.4528C238.979 13.6143 244.677 17.9424 249.938 22.8226C251.495 24.2705 253.078 25.7393 254.844 26.9111C263.344 32.5882 271.172 39.1403 279.245 45.3747C284.729 49.609 290.146 53.9528 296.229 57.3174C300.36 59.6038 304.531 61.8018 308.495 64.3799C308.797 64.5726 309.219 64.6507 309.344 65.2601C308.833 65.8747 307.969 66.0153 307.224 66.2236C299.594 68.3382 291.969 70.5049 284.011 71.0882C279.448 71.4268 274.932 72.1611 270.406 72.7966C262.708 73.8695 254.99 74.6976 247.214 74.8851C242.099 75.0101 237.026 75.5205 231.985 76.3538C221.5 78.083 210.901 78.0778 200.333 78.5257C199.656 78.5518 198.964 78.4788 198.287 78.3695C197.427 78.2288 196.787 78.4372 196.422 79.2757C195.13 79.932 193.833 80.4684 192.458 79.4788Z" fill="#EDE0D2"/>
</g>
</g>
</g>
<mask id="mask55_47_13836" style="mask-type:luminance" maskUnits="userSpaceOnUse" x="180" y="66" width="141" height="19">
<path d="M180.333 66H320.333V84.6667H180.333V66Z" fill="white"/>
</mask>
<g mask="url(#mask55_47_13836)">
<mask id="mask56_47_13836" style="mask-type:luminance" maskUnits="userSpaceOnUse" x="110" y="-25" width="226" height="170">
<path d="M145.031 -24.0679L335.13 38.0832L300.328 144.536L110.229 82.3853L145.031 -24.0679Z" fill="white"/>
</mask>
<g mask="url(#mask56_47_13836)">
<mask id="mask57_47_13836" style="mask-type:luminance" maskUnits="userSpaceOnUse" x="110" y="-25" width="226" height="170">
<path d="M145.031 -24.0679L335.13 38.0832L300.328 144.536L110.229 82.3853L145.031 -24.0679Z" fill="white"/>
</mask>
<g mask="url(#mask57_47_13836)">
<path d="M239.818 81.9373C239.771 81.88 239.693 81.8175 239.687 81.7498C239.484 77.0779 239.161 78.031 243.172 77.7393C247.797 77.4008 252.448 77.3591 257.062 76.9216C258.411 76.7914 259.052 78.1091 260.187 77.8591C261.182 77.6404 261.614 76.4998 262.859 76.3643C269.437 75.63 276 74.7393 282.562 73.8748C283.682 73.7289 284.557 73.6612 285.13 75.0102C285.547 75.9894 286.609 75.8696 286.932 74.8018C287.245 73.7498 287.734 73.3331 288.792 73.2133C294.182 72.5935 299.364 70.9998 304.609 69.7289C306.083 69.3696 307.229 69.2341 308.167 70.6352C308.557 71.2133 309.167 71.5675 309.875 71.6873C310.364 71.7706 310.792 71.6716 311.062 71.2289C311.286 70.8643 311.177 70.505 310.984 70.156C310.614 69.4893 309.833 69.1508 309.588 68.3956C309.646 68.3279 309.687 68.2602 309.745 68.2185C311.734 66.6977 313.526 67.1821 315.385 68.5935C316.948 69.7758 318.687 70.7185 320.312 71.7498C320.088 72.5987 319.661 73.1196 319.167 73.6039C318.505 74.2602 317.885 75.0779 317.021 73.7966C316.807 73.4789 316.396 73.406 316.005 73.3487C314.63 73.1664 314.167 73.8175 314.682 75.1977C314.755 75.3956 314.802 75.6091 314.87 75.8279C313.922 76.4737 312.859 76.6352 311.823 76.8018C304.458 77.9894 297.094 79.1404 289.734 80.3331C288.677 80.505 287.833 80.531 287.26 79.3852C286.984 78.8383 286.328 78.5935 285.667 78.8487C285.062 79.0883 284.943 79.5883 285.125 80.1664C285.38 81.005 284.771 81.0414 284.245 81.0935C282.125 81.2914 280.005 81.5414 277.88 81.6456C273.245 81.8644 268.609 81.9946 263.974 82.1925C263.083 82.2289 262.463 82.1508 262.625 81.0102C262.677 80.6508 262.557 80.255 262.448 79.8956C262.281 79.3331 261.89 78.9633 261.281 78.9998C260.667 79.031 260.318 79.4373 260.26 80.0362C260.177 80.8435 260.51 81.8852 259.693 82.3435C259.005 82.7237 258.078 82.6925 257.255 82.8175C254.25 83.2758 251.239 83.7237 248.229 84.1768C245.818 81.9633 242.646 82.5935 239.818 81.9373ZM212.526 80.6925C211.62 80.7237 210.708 80.7862 209.802 80.8018C206.312 80.8487 202.823 80.906 199.338 80.906C198.104 80.906 196.87 80.755 196.422 79.2758C195.083 78.9998 193.792 79.6768 192.458 79.4789C192.703 81.1873 192.609 81.406 191.312 81.8904C190.307 82.2654 189.255 82.3487 188.193 82.3435C186.234 82.3383 184.271 82.3644 182.312 82.2966C181.437 82.2654 181.005 82.4998 181.156 83.4268C181.724 84.13 182.443 84.3071 183.349 84.3591C192.146 84.8435 200.922 84.2341 209.693 83.8487C211.614 83.7654 213.656 83.9425 215.5 83.0466C214.984 80.6196 214.984 80.6196 212.526 80.6925ZM237.172 79.6612C237.198 78.6508 236.698 78.2966 235.734 78.4633C235.208 78.5518 234.677 78.5883 234.151 78.6716C229.265 79.4529 224.364 80.0571 219.422 80.3748C217.463 80.4998 217.463 80.5206 218.031 82.4946C218.64 83.4216 219.531 83.2498 220.458 83.1821C225.182 82.8175 229.906 82.4946 234.63 82.1768C235.531 82.1144 236.453 82.2185 237.161 81.4841C237.167 80.88 237.156 80.2706 237.172 79.6612Z" fill="#9D743B"/>
</g>
</g>
</g>
<mask id="mask58_47_13836" style="mask-type:luminance" maskUnits="userSpaceOnUse" x="115" y="3" width="134" height="86">
<path d="M115 3.3335H248.333V88.6668H115V3.3335Z" fill="white"/>
</mask>
<g mask="url(#mask58_47_13836)">
<mask id="mask59_47_13836" style="mask-type:luminance" maskUnits="userSpaceOnUse" x="110" y="-25" width="226" height="170">
<path d="M145.031 -24.0674L335.13 38.0837L300.328 144.537L110.229 82.3857L145.031 -24.0674Z" fill="white"/>
</mask>
<g mask="url(#mask59_47_13836)">
<mask id="mask60_47_13836" style="mask-type:luminance" maskUnits="userSpaceOnUse" x="110" y="-25" width="226" height="170">
<path d="M145.031 -24.0674L335.13 38.0837L300.328 144.537L110.229 82.3857L145.031 -24.0674Z" fill="white"/>
</mask>
<g mask="url(#mask60_47_13836)">
<path d="M239.818 81.938C241.375 81.6308 242.932 81.7453 244.505 81.813C245.912 81.8755 246.984 82.2401 247.589 83.5995C247.693 83.8391 248.01 83.9849 248.229 84.1776C241.193 85.4433 234.099 86.1724 226.943 86.3078C224.208 86.3599 221.412 86.8495 218.755 86.4276C216.141 86.011 213.849 87.0578 211.375 87.0995C208.797 87.1464 206.219 87.3912 203.641 87.5683C196.5 88.0683 189.354 87.8078 182.214 87.8547C174.917 87.9016 167.62 88.1985 160.328 88.3495C158.656 88.386 156.885 88.6203 155.344 88.1568C153.818 87.6933 152.484 87.1464 150.984 87.9797C143.318 87.5318 135.698 86.7766 128.318 84.4745C128.172 84.4276 128.037 84.3547 127.896 84.2974L127.906 84.3287C128.49 83.8443 128.578 83.2193 128.568 82.4901C128.563 81.8964 128.787 81.2974 128.917 80.6255C129.594 80.2974 130.333 80.4641 131.073 80.5214C137.198 81.0005 143.292 81.9016 149.443 82.063C150.333 82.0839 150.698 82.3599 150.693 83.2193C150.693 83.5162 150.755 83.8339 150.859 84.1099C151.073 84.662 151.521 84.9485 152.104 84.9276C152.807 84.9016 152.901 84.3547 152.995 83.8078C153.307 82.0735 153.313 81.9901 155.047 82.0578C162.417 82.3339 169.792 82.1308 177.162 82.2141C178.787 82.2297 178.807 82.2766 178.729 83.9328C178.703 84.5422 178.526 85.1568 178.604 85.7453C178.693 86.4172 178.953 87.1724 179.854 87.0735C180.594 86.9901 181.078 86.5839 181.031 85.6933C180.99 84.9433 181.109 84.188 181.156 83.4328C189.578 84.3547 197.995 83.6985 206.417 83.4276C209.448 83.3287 212.453 82.6776 215.5 83.0526C217.276 83.8183 217.276 83.8183 218.031 82.4953C223.979 82.5839 229.87 81.6828 235.802 81.4797C236.26 81.4641 236.708 81.3391 237.162 81.4901C237.193 81.5578 237.24 81.6255 237.255 81.6933C237.412 82.5266 237.083 83.6985 238.375 83.8339C239.734 83.9797 239.469 82.6828 239.818 81.938ZM127.906 84.3287C126.615 84.0578 125.787 83.4485 126.214 81.9589C126.542 80.8287 126.083 80.162 124.979 79.9901C122.292 79.563 119.599 79.1255 116.896 78.8235C115.646 78.6828 115.151 79.6724 115.839 80.787C116.417 81.7245 117.333 82.2505 118.354 82.636C120.359 83.3964 122.479 83.6464 124.573 83.9172C125.667 84.0578 126.724 84.7922 127.891 84.2974C127.896 84.2974 127.906 84.3287 127.906 84.3287ZM224.641 6.04741C224.896 5.64116 225.078 5.20366 224.537 4.88075C222.958 3.94325 221.083 5.24533 219.479 4.20366C219.01 3.90158 218.448 4.3547 218.047 4.69325C217.328 5.30262 215.953 5.57866 216.083 6.64637C216.214 7.7245 217.599 7.71408 218.37 8.1047C220.703 8.89637 223.443 7.9745 224.641 6.04741ZM175.177 65.1255C177.052 65.8391 179.047 65.9016 181.01 66.0422C185.474 66.3703 189.932 67.063 194.427 66.3703C196.688 66.0214 198.958 65.886 201.245 65.8964C203.693 65.912 206.115 65.662 208.448 64.8755C209.287 64.5995 210.177 64.3443 210.417 63.2974C209.427 62.5057 208.344 62.5787 207.292 62.6776C204.563 62.9432 201.823 63.136 199.125 63.5943C194.068 64.4537 189.005 64.5318 183.896 64.1672C180.662 63.9328 177.396 63.7974 174 64.1307C174.255 65.0005 174.781 64.9797 175.177 65.1255ZM194.927 46.2349C193.563 46.1932 192.193 46.1985 190.828 46.1203C184.375 45.7401 177.932 46.6412 171.479 46.2401C170.901 46.2037 170.167 46.2141 170.026 47.011C169.901 47.7401 170.432 48.0891 171.021 48.3547C172.302 48.9328 173.662 49.0578 175.042 48.9849C179.292 48.7505 183.547 48.8964 187.802 48.9068C189.625 48.912 191.448 48.8026 193.255 48.5005C194.542 48.287 195.677 47.8078 196.76 46.8912C196.109 46.3912 195.537 46.2557 194.927 46.2349ZM177.635 54.9693C173.193 54.438 168.771 53.7505 164.344 53.1203C163.203 52.9589 162.141 52.563 161.021 52.3807C160.552 52.3026 160.099 52.4224 159.87 52.9016C159.63 53.3964 159.906 53.761 160.224 54.1151C160.703 54.6516 161.354 54.8703 161.995 55.1047C164.146 55.8912 166.359 56.386 168.62 56.7453C172.901 57.4276 177.203 57.7505 181.537 57.4589C182.328 57.4068 183.203 57.4172 183.896 56.4693C181.714 55.9328 179.698 55.2193 177.635 54.9693ZM166.479 62.7662C164.557 62.0318 162.604 61.4953 160.542 61.2193C157.76 60.8443 155.021 60.1724 152.271 59.6151C151.641 59.4901 150.979 59.4432 150.609 60.0214C150.188 60.6724 150.766 61.1464 151.177 61.5682C151.49 61.8912 151.849 62.2141 152.255 62.3964C156.964 64.5422 161.875 65.1151 166.958 64.1932C167.162 64.1568 167.328 63.9589 167.583 63.7974C167.339 63.1099 166.906 62.9276 166.479 62.7662ZM149.698 67.9589C146.792 67.4641 143.844 67.2089 140.917 66.8547C140.542 66.813 140.141 66.7245 139.885 67.1099C139.583 67.5682 139.781 67.9953 140.063 68.3599C140.438 68.8443 140.927 69.1932 141.438 69.5318C144.734 71.7089 148.396 71.9276 152.162 71.5474C152.833 71.4797 153.484 71.2558 153.917 70.438C152.635 69.3703 151.349 68.2401 149.698 67.9589ZM180.333 71.7453C173.859 71.287 167.385 71.063 160.776 71.2141C161.141 72.2401 161.891 72.2662 162.526 72.3912C164.458 72.7714 166.396 73.1308 168.339 73.4276C171.875 73.9745 175.427 74.2505 178.995 73.6568C179.891 73.511 180.813 73.4224 181.505 72.6412C181.229 71.9485 180.771 71.7766 180.333 71.7453ZM199.641 58.3078C200.521 58.1985 201.745 58.0162 201.677 56.9224C201.609 55.813 200.458 55.5422 199.417 55.5162C199.188 55.511 198.958 55.4797 198.734 55.4901C195.938 55.6047 193.135 55.7193 190.344 55.8547C189.818 55.8807 189.255 55.9068 188.828 56.2662C188.333 56.6828 188.234 57.1516 188.87 57.537C189.125 57.6932 189.427 57.7714 190.089 58.0474C193.01 58.3026 196.313 58.7245 199.641 58.3078ZM201.219 71.0787C197.526 71.3391 193.833 71.6047 190.135 71.8703C189.443 71.9172 188.677 71.8287 188.224 72.7558C188.635 72.8912 188.912 73.0526 189.198 73.063C193.573 73.2453 197.953 73.2349 202.313 72.7558C203.313 72.6412 204.443 72.4433 205.125 71.1047C203.708 70.3964 202.458 70.9953 201.219 71.0787ZM202.932 45.0578C202.219 45.3078 201.859 45.8964 201.958 46.6568C202.063 47.4589 202.693 47.8964 203.385 47.8599C205.422 47.7714 207.323 47.2662 208.766 45.438C206.724 44.2557 204.833 44.3912 202.932 45.0578ZM207.422 55.3391C207.021 55.5162 206.547 55.7401 206.74 56.3235C206.87 56.7141 207.245 56.9016 207.635 56.8807C210.26 56.7662 212.823 56.3755 215.099 54.7818C212.464 54.1412 209.901 54.2453 207.422 55.3391Z" fill="#604428"/>
</g>
</g>
</g>
</svg>
