<svg width="347" height="325" viewBox="0 0 347 325" fill="none" xmlns="http://www.w3.org/2000/svg">
<mask id="mask0_47_13827" style="mask-type:luminance" maskUnits="userSpaceOnUse" x="11" y="146" width="112" height="88">
<path d="M11 146H123V234H11V146Z" fill="white"/>
</mask>
<g mask="url(#mask0_47_13827)">
<mask id="mask1_47_13827" style="mask-type:luminance" maskUnits="userSpaceOnUse" x="4" y="138" width="127" height="104">
<path d="M26.9427 138.25L130.708 207.943L107.849 241.979L4.08331 172.286L26.9427 138.25Z" fill="white"/>
</mask>
<g mask="url(#mask1_47_13827)">
<mask id="mask2_47_13827" style="mask-type:luminance" maskUnits="userSpaceOnUse" x="4" y="138" width="127" height="104">
<path d="M26.9427 138.25L130.708 207.943L107.849 241.979L4.08331 172.286L26.9427 138.25Z" fill="white"/>
</mask>
<g mask="url(#mask2_47_13827)">
<path d="M90.8906 230.469L21.1927 183.656C11.8698 177.391 9.38542 164.75 15.6458 155.422C21.9115 146.094 34.5521 143.615 43.8802 149.875L113.578 196.688C122.906 202.953 125.391 215.594 119.125 224.922C112.859 234.245 100.219 236.729 90.8906 230.469Z" fill="#604428"/>
</g>
</g>
</g>
<mask id="mask3_47_13827" style="mask-type:luminance" maskUnits="userSpaceOnUse" x="11" y="146" width="112" height="90">
<path d="M11 146H123V235.333H11V146Z" fill="white"/>
</mask>
<g mask="url(#mask3_47_13827)">
<mask id="mask4_47_13827" style="mask-type:luminance" maskUnits="userSpaceOnUse" x="4" y="138" width="127" height="104">
<path d="M26.9427 138.25L130.708 207.943L107.849 241.979L4.08331 172.286L26.9427 138.25Z" fill="white"/>
</mask>
<g mask="url(#mask4_47_13827)">
<mask id="mask5_47_13827" style="mask-type:luminance" maskUnits="userSpaceOnUse" x="4" y="138" width="127" height="104">
<path d="M26.9427 138.25L130.708 207.943L107.849 241.979L4.08331 172.286L26.9427 138.25Z" fill="white"/>
</mask>
<g mask="url(#mask5_47_13827)">
<path d="M90.7812 230.63L21.0833 183.817C11.6719 177.5 9.16145 164.719 15.4844 155.312C21.8021 145.901 34.5833 143.39 43.9896 149.713L113.687 196.526C123.099 202.844 125.609 215.625 119.292 225.031C112.969 234.442 100.188 236.953 90.7812 230.63ZM43.7708 150.041C34.5417 143.844 22.0104 146.307 15.8125 155.531C9.61458 164.76 12.0781 177.291 21.3021 183.489L91.0052 230.302C100.229 236.5 112.76 234.036 118.958 224.812C125.156 215.583 122.698 203.052 113.469 196.854L43.7708 150.041Z" fill="#604428"/>
</g>
</g>
</g>
<mask id="mask6_47_13827" style="mask-type:luminance" maskUnits="userSpaceOnUse" x="4" y="98" width="134" height="106">
<path d="M4.33331 98H137.667V203.333H4.33331V98Z" fill="white"/>
</mask>
<g mask="url(#mask6_47_13827)">
<mask id="mask7_47_13827" style="mask-type:luminance" maskUnits="userSpaceOnUse" x="-5" y="89" width="152" height="125">
<path d="M22.8698 89.3491L146.562 172.422L119.245 213.099L-4.44794 130.026L22.8698 89.3491Z" fill="white"/>
</mask>
<g mask="url(#mask7_47_13827)">
<mask id="mask8_47_13827" style="mask-type:luminance" maskUnits="userSpaceOnUse" x="-5" y="89" width="152" height="125">
<path d="M22.8698 89.3491L146.562 172.422L119.245 213.099L-4.44794 130.026L22.8698 89.3491Z" fill="white"/>
</mask>
<g mask="url(#mask8_47_13827)">
<path d="M98.875 198.938L16.0417 143.307C4.95836 135.859 2.00524 120.839 9.45315 109.755C16.8959 98.672 31.9219 95.7189 43.0052 103.162L125.833 158.797C136.917 166.24 139.87 181.266 132.427 192.349C124.984 203.432 109.958 206.38 98.875 198.938Z" fill="#604428"/>
<path d="M98.7448 199.135L15.9115 143.5C4.72917 135.99 1.74479 120.802 9.25521 109.62C16.7656 98.4376 31.9531 95.4584 43.1354 102.969L125.969 158.599C137.146 166.109 140.13 181.297 132.62 192.479C125.115 203.662 109.922 206.646 98.7448 199.135ZM42.8698 103.359C31.9062 95.9949 17.0104 98.9167 9.64583 109.885C2.28125 120.849 5.20833 135.745 16.1719 143.109L99.0052 198.745C109.969 206.109 124.865 203.182 132.229 192.214C139.594 181.25 136.672 166.354 125.703 158.99L42.8698 103.359Z" fill="#604428"/>
</g>
</g>
</g>
<mask id="mask9_47_13827" style="mask-type:luminance" maskUnits="userSpaceOnUse" x="1" y="58" width="133" height="106">
<path d="M1.66669 58H133.667V163.333H1.66669V58Z" fill="white"/>
</mask>
<g mask="url(#mask9_47_13827)">
<mask id="mask10_47_13827" style="mask-type:luminance" maskUnits="userSpaceOnUse" x="-8" y="49" width="152" height="124">
<path d="M19.4011 49.2241L143.094 132.302L115.771 172.979L-7.91663 89.9012L19.4011 49.2241Z" fill="white"/>
</mask>
<g mask="url(#mask10_47_13827)">
<mask id="mask11_47_13827" style="mask-type:luminance" maskUnits="userSpaceOnUse" x="-8" y="49" width="152" height="124">
<path d="M19.4011 49.2241L143.094 132.302L115.771 172.979L-7.91663 89.9012L19.4011 49.2241Z" fill="white"/>
</mask>
<g mask="url(#mask11_47_13827)">
<path d="M95.4011 158.818L12.5729 103.183C1.48961 95.7399 -1.46351 80.7138 5.9792 69.6305C13.4219 58.5472 28.4479 55.594 39.5313 63.042L122.365 118.672C133.448 126.115 136.401 141.141 128.953 152.224C121.51 163.308 106.484 166.261 95.4011 158.818Z" fill="#604428"/>
</g>
</g>
</g>
<mask id="mask12_47_13827" style="mask-type:luminance" maskUnits="userSpaceOnUse" x="0" y="58" width="134" height="106">
<path d="M0.333313 58H133.667V163.333H0.333313V58Z" fill="white"/>
</mask>
<g mask="url(#mask12_47_13827)">
<mask id="mask13_47_13827" style="mask-type:luminance" maskUnits="userSpaceOnUse" x="-8" y="49" width="152" height="124">
<path d="M19.401 49.2241L143.094 132.302L115.771 172.979L-7.91669 89.9012L19.401 49.2241Z" fill="white"/>
</mask>
<g mask="url(#mask13_47_13827)">
<mask id="mask14_47_13827" style="mask-type:luminance" maskUnits="userSpaceOnUse" x="-8" y="49" width="152" height="124">
<path d="M19.401 49.2241L143.094 132.302L115.771 172.979L-7.91669 89.9012L19.401 49.2241Z" fill="white"/>
</mask>
<g mask="url(#mask14_47_13827)">
<path d="M95.2708 159.011L12.4375 103.381C1.26038 95.8702 -1.72399 80.6827 5.78642 69.5004C13.2916 58.3181 28.4843 55.3337 39.6666 62.8441L122.495 118.48C133.677 125.985 136.661 141.177 129.151 152.355C121.641 163.537 106.453 166.521 95.2708 159.011ZM39.401 63.2348C28.4375 55.8702 13.5416 58.7973 6.17705 69.7608C-1.18754 80.7296 1.73434 95.6202 12.7031 102.99L95.5364 158.62C106.5 165.985 121.396 163.058 128.76 152.094C136.125 141.125 133.198 126.235 122.234 118.87L39.401 63.2348Z" fill="#604428"/>
</g>
</g>
</g>
<mask id="mask15_47_13827" style="mask-type:luminance" maskUnits="userSpaceOnUse" x="232" y="146" width="109" height="94">
<path d="M232.333 146H340.333V239.333H232.333V146Z" fill="white"/>
</mask>
<g mask="url(#mask15_47_13827)">
<mask id="mask16_47_13827" style="mask-type:luminance" maskUnits="userSpaceOnUse" x="224" y="137" width="125" height="110">
<path d="M224.823 214.578L323.25 137.531L348.526 169.812L250.094 246.865L224.823 214.578Z" fill="white"/>
</mask>
<g mask="url(#mask16_47_13827)">
<mask id="mask17_47_13827" style="mask-type:luminance" maskUnits="userSpaceOnUse" x="224" y="137" width="125" height="110">
<path d="M323.286 137.5L224.859 214.552L250.135 246.833L348.562 169.786L323.286 137.5Z" fill="white"/>
</mask>
<g mask="url(#mask17_47_13827)">
<path d="M266.208 234.125L332.323 182.37C341.172 175.443 342.729 162.656 335.802 153.807C328.88 144.964 316.089 143.406 307.24 150.328L241.13 202.083C232.281 209.005 230.724 221.797 237.651 230.646C244.573 239.49 257.365 241.047 266.208 234.125Z" fill="#604428"/>
</g>
</g>
</g>
<mask id="mask18_47_13827" style="mask-type:luminance" maskUnits="userSpaceOnUse" x="232" y="144" width="109" height="96">
<path d="M232.333 144.667H340.333V239.333H232.333V144.667Z" fill="white"/>
</mask>
<g mask="url(#mask18_47_13827)">
<mask id="mask19_47_13827" style="mask-type:luminance" maskUnits="userSpaceOnUse" x="224" y="137" width="125" height="110">
<path d="M224.823 214.578L323.25 137.531L348.526 169.812L250.094 246.865L224.823 214.578Z" fill="white"/>
</mask>
<g mask="url(#mask19_47_13827)">
<mask id="mask20_47_13827" style="mask-type:luminance" maskUnits="userSpaceOnUse" x="224" y="137" width="125" height="110">
<path d="M323.286 137.5L224.859 214.552L250.135 246.833L348.562 169.786L323.286 137.5Z" fill="white"/>
</mask>
<g mask="url(#mask20_47_13827)">
<path d="M266.333 234.281L332.448 182.526C341.37 175.537 342.943 162.609 335.958 153.688C328.974 144.761 316.042 143.188 307.12 150.172L241.005 201.927C232.083 208.912 230.505 221.844 237.495 230.766C244.479 239.688 257.411 241.266 266.333 234.281ZM307.365 150.484C316.115 143.636 328.797 145.177 335.646 153.932C342.5 162.682 340.953 175.359 332.203 182.214L266.089 233.969C257.339 240.818 244.656 239.271 237.807 230.521C230.953 221.771 232.5 209.089 241.25 202.24L307.365 150.484Z" fill="#604428"/>
</g>
</g>
</g>
<mask id="mask21_47_13827" style="mask-type:luminance" maskUnits="userSpaceOnUse" x="213" y="99" width="129" height="113">
<path d="M213.667 99.3335H341.667V211.333H213.667V99.3335Z" fill="white"/>
</mask>
<g mask="url(#mask21_47_13827)">
<mask id="mask22_47_13827" style="mask-type:luminance" maskUnits="userSpaceOnUse" x="204" y="90" width="148" height="131">
<path d="M204.203 182.052L321.531 90.2085L351.734 128.792L234.411 220.636L204.203 182.052Z" fill="white"/>
</mask>
<g mask="url(#mask22_47_13827)">
<mask id="mask23_47_13827" style="mask-type:luminance" maskUnits="userSpaceOnUse" x="203" y="90" width="149" height="131">
<path d="M321.224 90.4482L203.896 182.292L234.099 220.875L351.427 129.032L321.224 90.4482Z" fill="white"/>
</mask>
<g mask="url(#mask23_47_13827)">
<path d="M253.385 205.271L331.958 143.766C342.469 135.537 344.323 120.339 336.094 109.823C327.865 99.3127 312.662 97.4585 302.151 105.688L223.578 167.193C213.068 175.427 211.214 190.625 219.443 201.136C227.672 211.651 242.875 213.5 253.385 205.271Z" fill="#604428"/>
<path d="M253.531 205.459L332.104 143.953C342.708 135.651 344.578 120.287 336.276 109.677C327.974 99.0732 312.609 97.2034 302.005 105.505L223.432 167.011C212.828 175.313 210.958 190.677 219.26 201.282C227.563 211.891 242.927 213.761 253.531 205.459ZM302.297 105.875C312.698 97.7346 327.766 99.568 335.906 109.969C344.047 120.37 342.214 135.438 331.813 143.584L253.24 205.089C242.839 213.229 227.771 211.396 219.63 200.99C211.49 190.589 213.323 175.521 223.724 167.38L302.297 105.875Z" fill="#604428"/>
</g>
</g>
</g>
<mask id="mask24_47_13827" style="mask-type:luminance" maskUnits="userSpaceOnUse" x="217" y="56" width="129" height="112">
<path d="M217.667 56.6665H345.667V167.333H217.667V56.6665Z" fill="white"/>
</mask>
<g mask="url(#mask24_47_13827)">
<mask id="mask25_47_13827" style="mask-type:luminance" maskUnits="userSpaceOnUse" x="208" y="46" width="149" height="132">
<path d="M208.599 138.771L325.927 46.9268L356.13 85.5101L238.802 177.354L208.599 138.771Z" fill="white"/>
</mask>
<g mask="url(#mask25_47_13827)">
<mask id="mask26_47_13827" style="mask-type:luminance" maskUnits="userSpaceOnUse" x="208" y="47" width="148" height="131">
<path d="M325.62 47.1665L208.292 139.01L238.495 177.599L355.823 85.7498L325.62 47.1665Z" fill="white"/>
</mask>
<g mask="url(#mask26_47_13827)">
<path d="M257.781 161.989L336.349 100.484C346.865 92.2549 348.713 77.057 340.484 66.5414C332.255 56.031 317.057 54.1768 306.542 62.406L227.974 123.916C217.458 132.146 215.609 147.343 223.838 157.854C232.068 168.37 247.266 170.224 257.781 161.989Z" fill="#604428"/>
</g>
</g>
</g>
<mask id="mask27_47_13827" style="mask-type:luminance" maskUnits="userSpaceOnUse" x="217" y="56" width="130" height="113">
<path d="M217.667 56.6665H347V168.667H217.667V56.6665Z" fill="white"/>
</mask>
<g mask="url(#mask27_47_13827)">
<mask id="mask28_47_13827" style="mask-type:luminance" maskUnits="userSpaceOnUse" x="208" y="46" width="149" height="132">
<path d="M208.599 138.771L325.927 46.9268L356.13 85.5101L238.802 177.354L208.599 138.771Z" fill="white"/>
</mask>
<g mask="url(#mask28_47_13827)">
<mask id="mask29_47_13827" style="mask-type:luminance" maskUnits="userSpaceOnUse" x="208" y="47" width="148" height="131">
<path d="M325.62 47.1665L208.292 139.01L238.495 177.599L355.823 85.7498L325.62 47.1665Z" fill="white"/>
</mask>
<g mask="url(#mask29_47_13827)">
<path d="M257.927 162.177L336.495 100.672C347.104 92.3696 348.974 77.005 340.672 66.3956C332.37 55.7914 317.005 53.9216 306.396 62.2237L227.828 123.729C217.224 132.031 215.349 147.396 223.651 158C231.953 168.609 247.323 170.479 257.927 162.177ZM306.687 62.5935C317.089 54.4529 332.156 56.2862 340.302 66.6873C348.443 77.0883 346.609 92.156 336.208 100.302L257.635 161.807C247.234 169.948 232.167 168.114 224.026 157.713C215.88 147.307 217.719 132.245 228.12 124.099L306.687 62.5935Z" fill="#604428"/>
</g>
</g>
</g>
<mask id="mask30_47_13827" style="mask-type:luminance" maskUnits="userSpaceOnUse" x="212" y="247" width="38" height="53">
<path d="M212.333 247.333H249.667V299.333H212.333V247.333Z" fill="white"/>
</mask>
<g mask="url(#mask30_47_13827)">
<mask id="mask31_47_13827" style="mask-type:luminance" maskUnits="userSpaceOnUse" x="210" y="247" width="41" height="54">
<path d="M244.208 300.323L210.792 251.698L217.385 247.167L250.802 295.792L244.208 300.323Z" fill="white"/>
</mask>
<g mask="url(#mask31_47_13827)">
<mask id="mask32_47_13827" style="mask-type:luminance" maskUnits="userSpaceOnUse" x="210" y="247" width="41" height="54">
<path d="M244.208 300.323L210.792 251.698L217.385 247.167L250.802 295.792L244.208 300.323Z" fill="white"/>
</mask>
<g mask="url(#mask32_47_13827)">
<path d="M213.25 255.24L215.646 258.724L215.651 258.719L239.438 293.334L239.432 293.339L241.828 296.828C243.146 298.75 245.786 299.24 247.708 297.917C249.63 296.594 250.12 293.959 248.797 292.037L220.224 250.448C218.901 248.521 216.271 248.026 214.349 249.349C212.427 250.672 211.927 253.313 213.25 255.24Z" fill="#FCD590"/>
</g>
</g>
</g>
<mask id="mask33_47_13827" style="mask-type:luminance" maskUnits="userSpaceOnUse" x="235" y="280" width="11" height="17">
<path d="M235 280.667H245.667V296.667H235V280.667Z" fill="white"/>
</mask>
<g mask="url(#mask33_47_13827)">
<mask id="mask34_47_13827" style="mask-type:luminance" maskUnits="userSpaceOnUse" x="210" y="247" width="41" height="54">
<path d="M244.208 300.323L210.792 251.698L217.385 247.167L250.802 295.792L244.208 300.323Z" fill="white"/>
</mask>
<g mask="url(#mask34_47_13827)">
<mask id="mask35_47_13827" style="mask-type:luminance" maskUnits="userSpaceOnUse" x="210" y="247" width="41" height="54">
<path d="M244.208 300.323L210.792 251.698L217.385 247.167L250.802 295.792L244.208 300.323Z" fill="white"/>
</mask>
<g mask="url(#mask35_47_13827)">
<path d="M235.255 283.541L243.562 295.63C243.896 296.12 244.552 296.239 245.036 295.906C245.526 295.573 245.646 294.916 245.312 294.432L242.917 290.942L242.906 290.953L237 282.354C236.667 281.87 236.01 281.75 235.526 282.083C235.042 282.416 234.927 283.062 235.255 283.541Z" fill="#FCD590"/>
</g>
</g>
</g>
<mask id="mask36_47_13827" style="mask-type:luminance" maskUnits="userSpaceOnUse" x="95" y="256" width="43" height="49">
<path d="M95 256.667H137.667V304.667H95V256.667Z" fill="white"/>
</mask>
<g mask="url(#mask36_47_13827)">
<mask id="mask37_47_13827" style="mask-type:luminance" maskUnits="userSpaceOnUse" x="93" y="255" width="45" height="51">
<path d="M93.3489 300.203L131.786 255.442L137.854 260.651L99.4219 305.416L93.3489 300.203Z" fill="white"/>
</mask>
<g mask="url(#mask37_47_13827)">
<mask id="mask38_47_13827" style="mask-type:luminance" maskUnits="userSpaceOnUse" x="93" y="255" width="45" height="51">
<path d="M93.3489 300.203L131.786 255.442L137.854 260.651L99.4219 305.416L93.3489 300.203Z" fill="white"/>
</mask>
<g mask="url(#mask38_47_13827)">
<path d="M128.99 258.724L126.234 261.932L126.245 261.937L98.8854 293.807L98.875 293.797L96.1198 297.005C94.599 298.776 94.8021 301.453 96.5729 302.974C98.3437 304.494 101.021 304.291 102.542 302.52L135.411 264.234C136.932 262.463 136.734 259.797 134.964 258.276C133.198 256.755 130.51 256.953 128.99 258.724Z" fill="#FCD590"/>
</g>
</g>
</g>
<mask id="mask39_47_13827" style="mask-type:luminance" maskUnits="userSpaceOnUse" x="96" y="286" width="14" height="15">
<path d="M96.3333 286H109.667V300.667H96.3333V286Z" fill="white"/>
</mask>
<g mask="url(#mask39_47_13827)">
<mask id="mask40_47_13827" style="mask-type:luminance" maskUnits="userSpaceOnUse" x="93" y="255" width="45" height="51">
<path d="M93.3489 300.203L131.786 255.443L137.854 260.651L99.4219 305.417L93.3489 300.203Z" fill="white"/>
</mask>
<g mask="url(#mask40_47_13827)">
<mask id="mask41_47_13827" style="mask-type:luminance" maskUnits="userSpaceOnUse" x="93" y="255" width="45" height="51">
<path d="M93.3489 300.203L131.786 255.443L137.854 260.651L99.4219 305.417L93.3489 300.203Z" fill="white"/>
</mask>
<g mask="url(#mask41_47_13827)">
<path d="M107.276 287.25L97.7187 298.38C97.3385 298.828 97.3854 299.495 97.8333 299.875C98.2812 300.261 98.9479 300.208 99.3281 299.766L102.083 296.552L102.078 296.547L108.87 288.636C109.255 288.188 109.203 287.521 108.755 287.136C108.307 286.755 107.656 286.813 107.276 287.25Z" fill="#FCD590"/>
</g>
</g>
</g>
<mask id="mask42_47_13827" style="mask-type:luminance" maskUnits="userSpaceOnUse" x="87" y="270" width="14" height="55">
<path d="M87 270H100.333V324.667H87V270Z" fill="white"/>
</mask>
<g mask="url(#mask42_47_13827)">
<mask id="mask43_47_13827" style="mask-type:luminance" maskUnits="userSpaceOnUse" x="87" y="270" width="14" height="54">
<path d="M92.5521 323.844L87.1406 271.125L95.099 270.307L100.51 323.031L92.5521 323.844Z" fill="white"/>
</mask>
<g mask="url(#mask43_47_13827)">
<mask id="mask44_47_13827" style="mask-type:luminance" maskUnits="userSpaceOnUse" x="87" y="270" width="14" height="54">
<path d="M92.5521 323.844L87.1406 271.125L95.099 270.307L100.51 323.031L92.5521 323.844Z" fill="white"/>
</mask>
<g mask="url(#mask44_47_13827)">
<path d="M87.5573 275.021L87.9427 278.797H87.9531L91.8021 316.292H91.7917L92.1771 320.068C92.3906 322.151 94.2604 323.672 96.3438 323.458C98.4271 323.245 99.9479 321.375 99.7344 319.292L95.1094 274.245C94.8958 272.167 93.0365 270.646 90.9531 270.859C88.875 271.073 87.3438 272.937 87.5573 275.021Z" fill="#FCD590"/>
</g>
</g>
</g>
<mask id="mask45_47_13827" style="mask-type:luminance" maskUnits="userSpaceOnUse" x="92" y="304" width="5" height="18">
<path d="M92.3333 304.667H96.3333V322H92.3333V304.667Z" fill="white"/>
</mask>
<g mask="url(#mask45_47_13827)">
<mask id="mask46_47_13827" style="mask-type:luminance" maskUnits="userSpaceOnUse" x="87" y="270" width="14" height="54">
<path d="M92.5521 323.844L87.1406 271.125L95.099 270.307L100.51 323.031L92.5521 323.844Z" fill="white"/>
</mask>
<g mask="url(#mask46_47_13827)">
<mask id="mask47_47_13827" style="mask-type:luminance" maskUnits="userSpaceOnUse" x="87" y="270" width="14" height="54">
<path d="M92.5521 323.844L87.1406 271.125L95.099 270.307L100.51 323.031L92.5521 323.844Z" fill="white"/>
</mask>
<g mask="url(#mask47_47_13827)">
<path d="M92.7188 306.776L94.0625 319.875C94.1146 320.401 94.5781 320.776 95.1042 320.724C95.6302 320.672 96.0104 320.208 95.9583 319.682L95.5677 315.906H95.5573L94.6042 306.594C94.5469 306.067 94.0833 305.692 93.5573 305.745C93.0313 305.797 92.6667 306.26 92.7188 306.776Z" fill="#FCD590"/>
</g>
</g>
</g>
<mask id="mask48_47_13827" style="mask-type:luminance" maskUnits="userSpaceOnUse" x="67" y="284" width="50" height="30">
<path d="M67 284.667H116.333V314H67V284.667Z" fill="white"/>
</mask>
<g mask="url(#mask48_47_13827)">
<mask id="mask49_47_13827" style="mask-type:luminance" maskUnits="userSpaceOnUse" x="66" y="283" width="51" height="33">
<path d="M113.12 315.354L66.4114 290.318L70.1875 283.266L116.901 308.307L113.12 315.354Z" fill="white"/>
</mask>
<g mask="url(#mask49_47_13827)">
<mask id="mask50_47_13827" style="mask-type:luminance" maskUnits="userSpaceOnUse" x="66" y="283" width="51" height="33">
<path d="M113.12 315.354L66.4114 290.318L70.1875 283.266L116.901 308.307L113.12 315.354Z" fill="white"/>
</mask>
<g mask="url(#mask50_47_13827)">
<path d="M69.8698 292.156L73.2187 293.948L73.2239 293.943L106.443 311.745L106.437 311.755L109.781 313.552C111.625 314.542 113.932 313.844 114.922 312C115.911 310.151 115.214 307.849 113.37 306.859L73.4583 285.464C71.6146 284.474 69.3125 285.161 68.3229 287.005C67.3333 288.854 68.026 291.167 69.8698 292.156Z" fill="#FCD590"/>
</g>
</g>
</g>
<mask id="mask51_47_13827" style="mask-type:luminance" maskUnits="userSpaceOnUse" x="97" y="303" width="16" height="10">
<path d="M97.6667 303.333H112.333V312.667H97.6667V303.333Z" fill="white"/>
</mask>
<g mask="url(#mask51_47_13827)">
<mask id="mask52_47_13827" style="mask-type:luminance" maskUnits="userSpaceOnUse" x="66" y="283" width="51" height="33">
<path d="M113.12 315.354L66.4115 290.318L70.1875 283.266L116.901 308.307L113.12 315.354Z" fill="white"/>
</mask>
<g mask="url(#mask52_47_13827)">
<mask id="mask53_47_13827" style="mask-type:luminance" maskUnits="userSpaceOnUse" x="66" y="283" width="51" height="33">
<path d="M113.12 315.354L66.4115 290.318L70.1875 283.266L116.901 308.307L113.12 315.354Z" fill="white"/>
</mask>
<g mask="url(#mask53_47_13827)">
<path d="M99.073 305.661L110.677 311.88C111.141 312.13 111.714 311.958 111.964 311.495C112.214 311.026 112.042 310.453 111.573 310.203L108.229 308.411L108.224 308.422L99.974 304C99.5105 303.75 98.9376 303.922 98.6876 304.385C98.4376 304.854 98.6147 305.417 99.073 305.661Z" fill="#FCD590"/>
</g>
</g>
</g>
<mask id="mask54_47_13827" style="mask-type:luminance" maskUnits="userSpaceOnUse" x="225" y="288" width="54" height="17">
<path d="M225.667 288.667H279V304.667H225.667V288.667Z" fill="white"/>
</mask>
<g mask="url(#mask54_47_13827)">
<mask id="mask55_47_13827" style="mask-type:luminance" maskUnits="userSpaceOnUse" x="225" y="289" width="55" height="17">
<path d="M226.703 289.109L279.052 297.396L277.797 305.297L225.453 297.01L226.703 289.109Z" fill="white"/>
</mask>
<g mask="url(#mask55_47_13827)">
<mask id="mask56_47_13827" style="mask-type:luminance" maskUnits="userSpaceOnUse" x="225" y="289" width="54" height="17">
<path d="M278.927 297.375L226.578 289.088L225.328 296.989L277.677 305.281L278.927 297.375Z" fill="white"/>
</mask>
<g mask="url(#mask56_47_13827)">
<path d="M230.448 289.719L234.198 290.313V290.323L271.422 296.214L271.427 296.203L275.177 296.797C277.245 297.125 278.656 299.073 278.328 301.141C278.005 303.208 276.057 304.625 273.99 304.297L229.26 297.214C227.193 296.891 225.776 294.953 226.104 292.886C226.432 290.818 228.38 289.391 230.448 289.719Z" fill="#FCD590"/>
</g>
</g>
</g>
<mask id="mask57_47_13827" style="mask-type:luminance" maskUnits="userSpaceOnUse" x="260" y="295" width="17" height="6">
<path d="M260.333 295.333H276.333V300.667H260.333V295.333Z" fill="white"/>
</mask>
<g mask="url(#mask57_47_13827)">
<mask id="mask58_47_13827" style="mask-type:luminance" maskUnits="userSpaceOnUse" x="225" y="289" width="55" height="17">
<path d="M226.703 289.109L279.052 297.396L277.797 305.297L225.453 297.01L226.703 289.109Z" fill="white"/>
</mask>
<g mask="url(#mask58_47_13827)">
<mask id="mask59_47_13827" style="mask-type:luminance" maskUnits="userSpaceOnUse" x="225" y="289" width="54" height="17">
<path d="M278.927 297.375L226.578 289.088L225.328 296.989L277.677 305.281L278.927 297.375Z" fill="white"/>
</mask>
<g mask="url(#mask59_47_13827)">
<path d="M261.875 296.609L274.88 298.666C275.401 298.75 275.75 299.234 275.672 299.755C275.589 300.276 275.104 300.63 274.583 300.547L270.833 299.953V299.942L261.589 298.479C261.068 298.396 260.714 297.911 260.797 297.39C260.88 296.87 261.365 296.526 261.875 296.609Z" fill="#FCD590"/>
</g>
</g>
</g>
<mask id="mask60_47_13827" style="mask-type:luminance" maskUnits="userSpaceOnUse" x="231" y="274" width="40" height="42">
<path d="M231 274H271V315.333H231V274Z" fill="white"/>
</mask>
<g mask="url(#mask60_47_13827)">
<mask id="mask61_47_13827" style="mask-type:luminance" maskUnits="userSpaceOnUse" x="229" y="272" width="43" height="45">
<path d="M229.635 311.167L265.812 272.438L271.661 277.896L235.479 316.63L229.635 311.167Z" fill="white"/>
</mask>
<g mask="url(#mask61_47_13827)">
<mask id="mask62_47_13827" style="mask-type:luminance" maskUnits="userSpaceOnUse" x="229" y="272" width="43" height="45">
<path d="M265.729 272.526L229.547 311.26L235.396 316.719L271.573 277.989L265.729 272.526Z" fill="white"/>
</mask>
<g mask="url(#mask62_47_13827)">
<path d="M232.234 308.401L234.828 305.625L234.833 305.635L260.563 278.093L260.557 278.083L263.146 275.312C264.578 273.781 266.984 273.698 268.516 275.13C270.042 276.557 270.125 278.963 268.698 280.494L237.786 313.583C236.354 315.114 233.958 315.203 232.427 313.776C230.896 312.343 230.807 309.932 232.234 308.401Z" fill="#FCD590"/>
</g>
</g>
</g>
<mask id="mask63_47_13827" style="mask-type:luminance" maskUnits="userSpaceOnUse" x="255" y="275" width="12" height="14">
<path d="M255 275.333H267V288.667H255V275.333Z" fill="white"/>
</mask>
<g mask="url(#mask63_47_13827)">
<mask id="mask64_47_13827" style="mask-type:luminance" maskUnits="userSpaceOnUse" x="229" y="272" width="43" height="45">
<path d="M229.635 311.167L265.812 272.438L271.661 277.896L235.479 316.63L229.635 311.167Z" fill="white"/>
</mask>
<g mask="url(#mask64_47_13827)">
<mask id="mask65_47_13827" style="mask-type:luminance" maskUnits="userSpaceOnUse" x="229" y="272" width="43" height="45">
<path d="M265.729 272.526L229.547 311.26L235.396 316.719L271.573 277.989L265.729 272.526Z" fill="white"/>
</mask>
<g mask="url(#mask65_47_13827)">
<path d="M255.542 286.224L264.531 276.604C264.891 276.219 265.49 276.198 265.875 276.557C266.26 276.917 266.281 277.516 265.922 277.901L263.328 280.677L263.323 280.672L256.932 287.51C256.573 287.896 255.974 287.917 255.589 287.557C255.203 287.193 255.187 286.604 255.542 286.224Z" fill="#FCD590"/>
</g>
</g>
</g>
<mask id="mask66_47_13827" style="mask-type:luminance" maskUnits="userSpaceOnUse" x="91" y="112" width="178" height="177">
<path d="M91.0104 112.01H268.01V288.667H91.0104V112.01Z" fill="white"/>
</mask>
<g mask="url(#mask66_47_13827)">
<path d="M267.651 200.333C267.651 201.776 267.615 203.224 267.542 204.667C267.474 206.109 267.365 207.552 267.224 208.989C267.083 210.427 266.906 211.864 266.693 213.292C266.479 214.724 266.234 216.146 265.953 217.562C265.672 218.979 265.354 220.39 265 221.792C264.651 223.193 264.266 224.588 263.844 225.969C263.427 227.354 262.974 228.724 262.484 230.088C262 231.448 261.479 232.797 260.927 234.13C260.375 235.469 259.786 236.786 259.167 238.094C258.552 239.401 257.901 240.693 257.219 241.969C256.536 243.239 255.828 244.5 255.083 245.739C254.339 246.979 253.568 248.198 252.766 249.401C251.964 250.604 251.13 251.781 250.266 252.943C249.406 254.104 248.516 255.245 247.599 256.364C246.682 257.479 245.74 258.573 244.771 259.646C243.797 260.713 242.802 261.76 241.781 262.786C240.76 263.807 239.714 264.802 238.641 265.776C237.568 266.745 236.474 267.687 235.359 268.604C234.24 269.521 233.104 270.411 231.943 271.271C230.781 272.135 229.599 272.963 228.396 273.765C227.193 274.573 225.974 275.344 224.734 276.088C223.495 276.828 222.24 277.542 220.964 278.224C219.687 278.906 218.396 279.557 217.089 280.172C215.781 280.792 214.464 281.375 213.125 281.932C211.792 282.484 210.443 283.005 209.083 283.489C207.724 283.979 206.349 284.432 204.969 284.849C203.583 285.271 202.193 285.656 200.786 286.005C199.385 286.359 197.979 286.672 196.557 286.953C195.141 287.239 193.719 287.484 192.286 287.698C190.859 287.911 189.422 288.083 187.984 288.229C186.547 288.37 185.104 288.474 183.661 288.547C182.219 288.62 180.776 288.651 179.328 288.651C177.885 288.651 176.437 288.62 174.995 288.547C173.552 288.474 172.109 288.37 170.672 288.229C169.234 288.083 167.797 287.911 166.37 287.698C164.937 287.484 163.516 287.239 162.099 286.953C160.682 286.672 159.271 286.359 157.87 286.005C156.469 285.656 155.073 285.271 153.693 284.849C152.307 284.432 150.937 283.979 149.573 283.489C148.214 283.005 146.865 282.484 145.531 281.932C144.193 281.375 142.875 280.792 141.568 280.172C140.26 279.557 138.969 278.906 137.693 278.224C136.422 277.542 135.161 276.828 133.922 276.088C132.682 275.344 131.464 274.573 130.26 273.765C129.057 272.963 127.875 272.135 126.719 271.271C125.557 270.411 124.417 269.521 123.297 268.604C122.182 267.687 121.089 266.745 120.016 265.776C118.943 264.802 117.901 263.807 116.875 262.786C115.854 261.76 114.859 260.713 113.885 259.646C112.917 258.573 111.974 257.479 111.057 256.364C110.141 255.245 109.25 254.104 108.391 252.943C107.526 251.781 106.698 250.604 105.891 249.401C105.089 248.198 104.318 246.979 103.573 245.739C102.828 244.5 102.12 243.239 101.437 241.969C100.755 240.693 100.104 239.401 99.4895 238.094C98.8698 236.786 98.2864 235.469 97.7291 234.13C97.177 232.797 96.6562 231.448 96.1718 230.088C95.6823 228.724 95.2291 227.354 94.8125 225.969C94.3906 224.588 94.0052 223.193 93.6562 221.792C93.302 220.39 92.9895 218.979 92.7031 217.562C92.4218 216.146 92.177 214.724 91.9635 213.292C91.75 211.859 91.5729 210.427 91.4323 208.989C91.2916 207.552 91.1875 206.109 91.1145 204.667C91.0416 203.224 91.0104 201.776 91.0104 200.333C91.0104 198.885 91.0416 197.443 91.1145 196C91.1875 194.557 91.2916 193.114 91.4323 191.677C91.5729 190.239 91.75 188.802 91.9635 187.375C92.177 185.943 92.4218 184.521 92.7031 183.104C92.9895 181.682 93.302 180.276 93.6562 178.87C94.0052 177.469 94.3906 176.078 94.8125 174.693C95.2291 173.312 95.6823 171.937 96.1718 170.578C96.6562 169.219 97.177 167.87 97.7291 166.531C98.2864 165.198 98.8698 163.875 99.4895 162.573C100.104 161.265 100.755 159.974 101.437 158.698C102.12 157.422 102.828 156.167 103.573 154.927C104.318 153.687 105.089 152.469 105.891 151.265C106.698 150.062 107.526 148.88 108.391 147.719C109.25 146.557 110.141 145.422 111.057 144.302C111.974 143.187 112.917 142.094 113.885 141.021C114.859 139.948 115.854 138.901 116.875 137.88C117.901 136.859 118.943 135.864 120.016 134.89C121.089 133.922 122.182 132.979 123.297 132.062C124.417 131.14 125.557 130.255 126.719 129.39C127.875 128.531 129.057 127.698 130.26 126.896C131.464 126.094 132.682 125.323 133.922 124.578C135.161 123.833 136.422 123.12 137.693 122.443C138.969 121.76 140.26 121.109 141.568 120.489C142.875 119.875 144.193 119.286 145.531 118.734C146.865 118.182 148.214 117.661 149.573 117.177C150.937 116.687 152.307 116.234 153.693 115.818C155.073 115.396 156.469 115.01 157.87 114.661C159.271 114.307 160.682 113.989 162.099 113.708C163.516 113.427 164.937 113.182 166.37 112.969C167.797 112.755 169.234 112.578 170.672 112.437C172.109 112.297 173.552 112.187 174.995 112.12C176.437 112.047 177.885 112.01 179.328 112.01C180.776 112.01 182.219 112.047 183.661 112.12C185.104 112.187 186.547 112.297 187.984 112.437C189.422 112.578 190.859 112.755 192.286 112.969C193.719 113.182 195.141 113.427 196.557 113.708C197.979 113.989 199.385 114.307 200.786 114.661C202.193 115.01 203.583 115.396 204.969 115.818C206.349 116.234 207.724 116.687 209.083 117.177C210.443 117.661 211.792 118.182 213.125 118.734C214.464 119.286 215.781 119.875 217.089 120.489C218.396 121.109 219.687 121.76 220.964 122.443C222.24 123.12 223.495 123.833 224.734 124.578C225.974 125.323 227.193 126.094 228.396 126.896C229.599 127.698 230.781 128.531 231.943 129.39C233.104 130.255 234.24 131.14 235.359 132.062C236.474 132.979 237.568 133.922 238.641 134.89C239.714 135.864 240.76 136.859 241.781 137.88C242.802 138.901 243.797 139.948 244.771 141.021C245.74 142.094 246.682 143.187 247.599 144.302C248.516 145.422 249.406 146.557 250.266 147.719C251.13 148.88 251.964 150.062 252.766 151.265C253.568 152.469 254.339 153.687 255.083 154.927C255.828 156.167 256.536 157.422 257.219 158.698C257.901 159.974 258.552 161.265 259.167 162.573C259.786 163.875 260.375 165.198 260.927 166.531C261.479 167.87 262 169.219 262.484 170.578C262.974 171.937 263.427 173.312 263.844 174.693C264.266 176.078 264.651 177.469 265 178.87C265.354 180.276 265.672 181.682 265.953 183.104C266.234 184.521 266.479 185.943 266.693 187.375C266.906 188.802 267.083 190.239 267.224 191.677C267.365 193.114 267.474 194.557 267.542 196C267.615 197.443 267.651 198.885 267.651 200.333Z" fill="#442F19"/>
</g>
<mask id="mask67_47_13827" style="mask-type:luminance" maskUnits="userSpaceOnUse" x="91" y="52" width="178" height="178">
<path d="M91.0104 52.4531H268.01V229.453H91.0104V52.4531Z" fill="white"/>
</mask>
<g mask="url(#mask67_47_13827)">
<path d="M267.651 140.771C267.651 142.219 267.615 143.661 267.542 145.104C267.474 146.552 267.365 147.99 267.224 149.427C267.083 150.87 266.906 152.302 266.693 153.729C266.479 155.161 266.234 156.583 265.953 158C265.672 159.422 265.354 160.828 265 162.234C264.651 163.635 264.266 165.026 263.844 166.411C263.427 167.792 262.974 169.167 262.484 170.526C262 171.885 261.479 173.234 260.927 174.573C260.375 175.906 259.786 177.229 259.167 178.536C258.552 179.839 257.901 181.13 257.219 182.406C256.536 183.682 255.828 184.938 255.083 186.177C254.339 187.417 253.568 188.641 252.766 189.839C251.964 191.042 251.13 192.224 250.266 193.385C249.406 194.547 248.516 195.682 247.599 196.802C246.682 197.922 245.74 199.016 244.771 200.083C243.797 201.156 242.802 202.203 241.781 203.224C240.76 204.245 239.714 205.245 238.641 206.214C237.568 207.182 236.474 208.13 235.359 209.047C234.24 209.964 233.104 210.849 231.943 211.714C230.781 212.573 229.599 213.406 228.396 214.208C227.193 215.01 225.974 215.786 224.734 216.526C223.495 217.271 222.24 217.984 220.964 218.661C219.687 219.344 218.396 219.995 217.089 220.615C215.781 221.229 214.464 221.818 213.125 222.37C211.792 222.922 210.443 223.443 209.083 223.927C207.724 224.417 206.349 224.87 204.969 225.292C203.583 225.708 202.193 226.094 200.786 226.448C199.385 226.797 197.979 227.115 196.557 227.396C195.141 227.677 193.719 227.922 192.286 228.135C190.859 228.349 189.422 228.526 187.984 228.667C186.547 228.807 185.104 228.917 183.661 228.984C182.219 229.057 180.776 229.094 179.328 229.094C177.885 229.094 176.437 229.057 174.995 228.984C173.552 228.917 172.109 228.807 170.672 228.667C169.234 228.526 167.797 228.349 166.37 228.135C164.937 227.922 163.516 227.677 162.099 227.396C160.682 227.115 159.271 226.797 157.87 226.448C156.469 226.094 155.073 225.708 153.693 225.292C152.307 224.87 150.937 224.417 149.573 223.927C148.214 223.443 146.865 222.922 145.531 222.37C144.193 221.818 142.875 221.229 141.568 220.615C140.26 219.995 138.969 219.344 137.693 218.661C136.422 217.984 135.161 217.271 133.922 216.526C132.682 215.786 131.464 215.01 130.26 214.208C129.057 213.406 127.875 212.573 126.719 211.714C125.557 210.849 124.417 209.964 123.297 209.047C122.182 208.13 121.089 207.182 120.016 206.214C118.943 205.245 117.901 204.245 116.875 203.224C115.854 202.203 114.859 201.156 113.885 200.083C112.917 199.016 111.974 197.922 111.057 196.802C110.141 195.682 109.25 194.547 108.391 193.385C107.526 192.224 106.698 191.042 105.891 189.839C105.089 188.641 104.318 187.417 103.573 186.177C102.828 184.938 102.12 183.682 101.437 182.406C100.755 181.13 100.104 179.839 99.4895 178.536C98.8698 177.229 98.2864 175.906 97.7291 174.573C97.177 173.234 96.6562 171.885 96.1718 170.526C95.6823 169.167 95.2291 167.792 94.8125 166.411C94.3906 165.026 94.0052 163.635 93.6562 162.234C93.302 160.828 92.9895 159.422 92.7031 158C92.4218 156.583 92.177 155.161 91.9635 153.729C91.75 152.302 91.5729 150.87 91.4323 149.427C91.2916 147.99 91.1875 146.552 91.1145 145.104C91.0416 143.661 91.0104 142.219 91.0104 140.771C91.0104 139.328 91.0416 137.88 91.1145 136.438C91.1875 134.995 91.2916 133.552 91.4323 132.115C91.5729 130.677 91.75 129.245 91.9635 127.812C92.177 126.385 92.4218 124.958 92.7031 123.542C92.9895 122.125 93.302 120.714 93.6562 119.312C94.0052 117.911 94.3906 116.516 94.8125 115.135C95.2291 113.75 95.6823 112.38 96.1718 111.016C96.6562 109.656 97.177 108.307 97.7291 106.974C98.2864 105.641 98.8698 104.318 99.4895 103.01C100.104 101.703 100.755 100.411 101.437 99.1406C102.12 97.8646 102.828 96.6042 103.573 95.3646C104.318 94.125 105.089 92.9062 105.891 91.7031C106.698 90.5 107.526 89.3229 108.391 88.1615C109.25 87 110.141 85.8594 111.057 84.7448C111.974 83.625 112.917 82.5313 113.885 81.4583C114.859 80.3906 115.854 79.3438 116.875 78.3177C117.901 77.2969 118.943 76.3021 120.016 75.3333C121.089 74.3594 122.182 73.4167 123.297 72.5C124.417 71.5833 125.557 70.6927 126.719 69.8333C127.875 68.974 129.057 68.1406 130.26 67.3385C131.464 66.5313 132.682 65.7604 133.922 65.0156C135.161 64.276 136.422 63.5625 137.693 62.8802C138.969 62.1979 140.26 61.5521 141.568 60.9323C142.875 60.3125 144.193 59.7292 145.531 59.1771C146.865 58.6198 148.214 58.1042 149.573 57.6146C150.937 57.1302 152.307 56.6771 153.693 56.2552C155.073 55.8333 156.469 55.4479 157.87 55.099C159.271 54.75 160.682 54.4323 162.099 54.151C163.516 53.8646 164.937 53.6198 166.37 53.4062C167.797 53.1979 169.234 53.0208 170.672 52.875C172.109 52.7344 173.552 52.6302 174.995 52.5573C176.437 52.4896 177.885 52.4531 179.328 52.4531C180.776 52.4531 182.219 52.4896 183.661 52.5573C185.104 52.6302 186.547 52.7344 187.984 52.875C189.422 53.0208 190.859 53.1979 192.286 53.4062C193.719 53.6198 195.141 53.8646 196.557 54.151C197.979 54.4323 199.385 54.75 200.786 55.099C202.193 55.4479 203.583 55.8333 204.969 56.2552C206.349 56.6771 207.724 57.1302 209.083 57.6146C210.443 58.1042 211.792 58.6198 213.125 59.1771C214.464 59.7292 215.781 60.3125 217.089 60.9323C218.396 61.5521 219.687 62.1979 220.964 62.8802C222.24 63.5625 223.495 64.276 224.734 65.0156C225.974 65.7604 227.193 66.5313 228.396 67.3385C229.599 68.1406 230.781 68.974 231.943 69.8333C233.104 70.6927 234.24 71.5833 235.359 72.5C236.474 73.4167 237.568 74.3594 238.641 75.3333C239.714 76.3021 240.76 77.2969 241.781 78.3177C242.802 79.3438 243.797 80.3906 244.771 81.4583C245.74 82.5313 246.682 83.625 247.599 84.7448C248.516 85.8594 249.406 87 250.266 88.1615C251.13 89.3229 251.964 90.5 252.766 91.7031C253.568 92.9062 254.339 94.125 255.083 95.3646C255.828 96.6042 256.536 97.8646 257.219 99.1406C257.901 100.411 258.552 101.703 259.167 103.01C259.786 104.318 260.375 105.641 260.927 106.974C261.479 108.307 262 109.656 262.484 111.016C262.974 112.38 263.427 113.75 263.844 115.135C264.266 116.516 264.651 117.911 265 119.312C265.354 120.714 265.672 122.125 265.953 123.542C266.234 124.958 266.479 126.385 266.693 127.812C266.906 129.245 267.083 130.677 267.224 132.115C267.365 133.552 267.474 134.995 267.542 136.438C267.615 137.88 267.651 139.328 267.651 140.771Z" fill="#EDE0D2"/>
</g>
<mask id="mask68_47_13827" style="mask-type:luminance" maskUnits="userSpaceOnUse" x="168" y="163" width="37" height="25">
<path d="M168.333 163.333H204.333V187.333H168.333V163.333Z" fill="white"/>
</mask>
<g mask="url(#mask68_47_13827)">
<mask id="mask69_47_13827" style="mask-type:luminance" maskUnits="userSpaceOnUse" x="166" y="160" width="41" height="31">
<path d="M166.443 173.724L199.87 160.354L206.552 177.068L173.125 190.438L166.443 173.724Z" fill="white"/>
</mask>
<g mask="url(#mask69_47_13827)">
<mask id="mask70_47_13827" style="mask-type:luminance" maskUnits="userSpaceOnUse" x="166" y="160" width="41" height="31">
<path d="M166.443 173.724L199.87 160.354L206.552 177.068L173.125 190.438L166.443 173.724Z" fill="white"/>
</mask>
<g mask="url(#mask70_47_13827)">
<path d="M203.719 168.688C203.943 169.245 204.057 169.839 204.057 170.475C204.057 171.105 203.953 171.766 203.729 172.448C203.51 173.136 203.188 173.834 202.755 174.542C202.318 175.256 201.792 175.964 201.161 176.672C200.531 177.381 199.818 178.073 199.016 178.756C198.214 179.433 197.344 180.084 196.401 180.709C195.458 181.334 194.464 181.917 193.417 182.464C192.37 183.011 191.292 183.506 190.177 183.948C189.068 184.391 187.943 184.777 186.807 185.105C185.672 185.433 184.552 185.698 183.438 185.896C182.323 186.089 181.245 186.219 180.198 186.282C179.146 186.339 178.151 186.329 177.208 186.251C176.26 186.172 175.391 186.021 174.583 185.808C173.781 185.589 173.063 185.308 172.432 184.964C171.802 184.62 171.271 184.219 170.833 183.756C170.396 183.297 170.068 182.787 169.844 182.23C169.62 181.672 169.51 181.079 169.51 180.443C169.505 179.813 169.615 179.152 169.833 178.469C170.057 177.782 170.38 177.084 170.813 176.376C171.245 175.662 171.776 174.954 172.406 174.245C173.036 173.537 173.75 172.844 174.552 172.162C175.349 171.485 176.224 170.834 177.167 170.209C178.109 169.584 179.104 169.001 180.151 168.454C181.198 167.907 182.276 167.412 183.391 166.969C184.5 166.527 185.625 166.136 186.76 165.813C187.891 165.485 189.016 165.219 190.13 165.021C191.24 164.823 192.323 164.698 193.37 164.636C194.422 164.579 195.417 164.589 196.359 164.667C197.302 164.745 198.177 164.896 198.979 165.11C199.786 165.329 200.5 165.61 201.135 165.954C201.766 166.297 202.297 166.698 202.734 167.162C203.167 167.62 203.5 168.131 203.719 168.688Z" fill="#FCD590"/>
</g>
</g>
</g>
<mask id="mask71_47_13827" style="mask-type:luminance" maskUnits="userSpaceOnUse" x="190" y="96" width="64" height="64">
<path d="M190.641 96.9219H253.339V159.615H190.641V96.9219Z" fill="white"/>
</mask>
<g mask="url(#mask71_47_13827)">
<mask id="mask72_47_13827" style="mask-type:luminance" maskUnits="userSpaceOnUse" x="190" y="96" width="64" height="64">
<path d="M221.99 96.9219C204.677 96.9219 190.641 110.953 190.641 128.271C190.641 145.583 204.677 159.615 221.99 159.615C239.302 159.615 253.339 145.583 253.339 128.271C253.339 110.953 239.302 96.9219 221.99 96.9219Z" fill="white"/>
</mask>
<g mask="url(#mask72_47_13827)">
<path d="M190.641 96.9219H253.339V159.615H190.641V96.9219Z" fill="white"/>
</g>
</g>
<mask id="mask73_47_13827" style="mask-type:luminance" maskUnits="userSpaceOnUse" x="105" y="96" width="64" height="64">
<path d="M105.88 96.9219H168.578V159.615H105.88V96.9219Z" fill="white"/>
</mask>
<g mask="url(#mask73_47_13827)">
<mask id="mask74_47_13827" style="mask-type:luminance" maskUnits="userSpaceOnUse" x="105" y="96" width="64" height="64">
<path d="M137.229 96.9219C119.917 96.9219 105.88 110.953 105.88 128.271C105.88 145.583 119.917 159.615 137.229 159.615C154.542 159.615 168.578 145.583 168.578 128.271C168.578 110.953 154.542 96.9219 137.229 96.9219Z" fill="white"/>
</mask>
<g mask="url(#mask74_47_13827)">
<path d="M105.88 96.9219H168.578V159.615H105.88V96.9219Z" fill="white"/>
</g>
</g>
<mask id="mask75_47_13827" style="mask-type:luminance" maskUnits="userSpaceOnUse" x="153" y="164" width="37" height="24">
<path d="M153.667 164.667H189.667V187.333H153.667V164.667Z" fill="white"/>
</mask>
<g mask="url(#mask75_47_13827)">
<mask id="mask76_47_13827" style="mask-type:luminance" maskUnits="userSpaceOnUse" x="151" y="161" width="41" height="30">
<path d="M157.5 161.646L191.589 173.234L185.792 190.276L151.708 178.687L157.5 161.646Z" fill="white"/>
</mask>
<g mask="url(#mask76_47_13827)">
<mask id="mask77_47_13827" style="mask-type:luminance" maskUnits="userSpaceOnUse" x="151" y="161" width="41" height="30">
<path d="M157.5 161.646L191.589 173.234L185.792 190.276L151.708 178.687L157.5 161.646Z" fill="white"/>
</mask>
<g mask="url(#mask77_47_13827)">
<path d="M189.094 182.062C188.901 182.63 188.599 183.156 188.188 183.64C187.776 184.12 187.266 184.552 186.656 184.932C186.042 185.307 185.339 185.625 184.547 185.885C183.76 186.14 182.896 186.333 181.953 186.463C181.016 186.594 180.021 186.656 178.974 186.651C177.922 186.646 176.833 186.573 175.714 186.437C174.594 186.297 173.458 186.094 172.307 185.828C171.156 185.562 170.016 185.234 168.88 184.849C167.745 184.463 166.641 184.026 165.568 183.536C164.495 183.047 163.469 182.515 162.495 181.943C161.521 181.37 160.615 180.765 159.781 180.125C158.948 179.489 158.193 178.833 157.531 178.161C156.865 177.484 156.297 176.807 155.828 176.12C155.359 175.432 154.995 174.75 154.74 174.078C154.484 173.406 154.344 172.755 154.313 172.12C154.276 171.489 154.359 170.89 154.552 170.318C154.745 169.75 155.047 169.224 155.458 168.745C155.87 168.26 156.38 167.833 156.995 167.453C157.604 167.078 158.307 166.76 159.099 166.5C159.891 166.239 160.755 166.047 161.693 165.916C162.63 165.791 163.625 165.729 164.677 165.734C165.724 165.739 166.813 165.807 167.932 165.948C169.057 166.088 170.193 166.291 171.339 166.557C172.49 166.823 173.63 167.151 174.766 167.536C175.901 167.922 177.005 168.359 178.078 168.849C179.156 169.338 180.177 169.87 181.151 170.443C182.125 171.015 183.031 171.62 183.865 172.255C184.703 172.89 185.453 173.547 186.12 174.224C186.781 174.896 187.349 175.578 187.818 176.265C188.287 176.953 188.651 177.63 188.906 178.302C189.162 178.979 189.307 179.63 189.339 180.26C189.37 180.896 189.287 181.495 189.094 182.062Z" fill="#FCD590"/>
</g>
</g>
</g>
<mask id="mask78_47_13827" style="mask-type:luminance" maskUnits="userSpaceOnUse" x="202" y="109" width="39" height="39">
<path d="M202.203 109.229H240.964V147.989H202.203V109.229Z" fill="white"/>
</mask>
<g mask="url(#mask78_47_13827)">
<mask id="mask79_47_13827" style="mask-type:luminance" maskUnits="userSpaceOnUse" x="202" y="109" width="39" height="39">
<path d="M221.583 109.229C210.88 109.229 202.203 117.906 202.203 128.609C202.203 139.312 210.88 147.989 221.583 147.989C232.286 147.989 240.964 139.312 240.964 128.609C240.964 117.906 232.286 109.229 221.583 109.229Z" fill="white"/>
</mask>
<g mask="url(#mask79_47_13827)">
<path d="M202.203 109.229H240.964V147.989H202.203V109.229Z" fill="black"/>
</g>
</g>
<mask id="mask80_47_13827" style="mask-type:luminance" maskUnits="userSpaceOnUse" x="119" y="109" width="40" height="39">
<path d="M119.932 109.229H158.698V147.989H119.932V109.229Z" fill="white"/>
</mask>
<g mask="url(#mask80_47_13827)">
<mask id="mask81_47_13827" style="mask-type:luminance" maskUnits="userSpaceOnUse" x="119" y="109" width="40" height="39">
<path d="M139.313 109.229C128.609 109.229 119.932 117.906 119.932 128.609C119.932 139.312 128.609 147.989 139.313 147.989C150.021 147.989 158.698 139.312 158.698 128.609C158.698 117.906 150.021 109.229 139.313 109.229Z" fill="white"/>
</mask>
<g mask="url(#mask81_47_13827)">
<path d="M119.932 109.229H158.698V147.989H119.932V109.229Z" fill="black"/>
</g>
</g>
<mask id="mask82_47_13827" style="mask-type:luminance" maskUnits="userSpaceOnUse" x="137" y="110" width="19" height="19">
<path d="M137.229 110.047H155.792V128.609H137.229V110.047Z" fill="white"/>
</mask>
<g mask="url(#mask82_47_13827)">
<mask id="mask83_47_13827" style="mask-type:luminance" maskUnits="userSpaceOnUse" x="137" y="110" width="19" height="19">
<path d="M146.51 110.047C141.385 110.047 137.229 114.203 137.229 119.328C137.229 124.453 141.385 128.609 146.51 128.609C151.635 128.609 155.792 124.453 155.792 119.328C155.792 114.203 151.635 110.047 146.51 110.047Z" fill="white"/>
</mask>
<g mask="url(#mask83_47_13827)">
<path d="M137.229 110.047H155.792V128.609H137.229V110.047Z" fill="white"/>
</g>
</g>
<mask id="mask84_47_13827" style="mask-type:luminance" maskUnits="userSpaceOnUse" x="219" y="109" width="20" height="20">
<path d="M219.49 109.708H238.052V128.271H219.49V109.708Z" fill="white"/>
</mask>
<g mask="url(#mask84_47_13827)">
<mask id="mask85_47_13827" style="mask-type:luminance" maskUnits="userSpaceOnUse" x="219" y="109" width="20" height="20">
<path d="M228.771 109.708C223.646 109.708 219.49 113.86 219.49 118.99C219.49 124.115 223.646 128.271 228.771 128.271C233.896 128.271 238.052 124.115 238.052 118.99C238.052 113.86 233.896 109.708 228.771 109.708Z" fill="white"/>
</mask>
<g mask="url(#mask85_47_13827)">
<path d="M219.49 109.708H238.052V128.271H219.49V109.708Z" fill="white"/>
</g>
</g>
<mask id="mask86_47_13827" style="mask-type:luminance" maskUnits="userSpaceOnUse" x="146" y="233" width="66" height="25">
<path d="M146.63 233.099H211.63V257.099H146.63V233.099Z" fill="white"/>
</mask>
<g mask="url(#mask86_47_13827)">
<path d="M204.417 246.354C195.552 243.953 188.922 245.979 184.568 248.547C190.521 242.49 199.604 240.5 202.51 240.006L204.417 246.354ZM193.937 233.136L196.437 239.104C191.729 240.568 185.568 243.412 181.401 248.651C184.036 239.479 191.25 234.646 193.937 233.136ZM164.677 233.136C167.365 234.646 174.578 239.464 177.219 248.667C173.047 243.427 166.891 240.584 162.177 239.12L164.677 233.136ZM156.104 240.006C159.016 240.5 168.099 242.49 174.052 248.547C169.698 245.979 163.062 243.953 154.198 246.354L156.104 240.006ZM183.135 257.427H175.479C173.797 255.25 166.516 248.256 146.63 256.542L148.349 250.979C168.182 241.349 177.984 254.568 178.391 255.146C178.406 255.162 178.422 255.162 178.443 255.183C178.458 255.214 178.474 255.25 178.51 255.266C178.526 255.282 178.526 255.282 178.526 255.302C178.562 255.334 178.594 255.349 178.646 255.37C178.677 255.386 178.714 255.417 178.75 255.438C178.781 255.453 178.818 255.485 178.865 255.506C178.885 255.506 178.901 255.521 178.901 255.521C178.969 255.558 179.052 255.558 179.141 255.573C179.187 255.573 179.224 255.604 179.276 255.604C179.292 255.604 179.307 255.604 179.328 255.604C179.344 255.604 179.359 255.604 179.375 255.604C179.427 255.604 179.464 255.589 179.51 255.573C179.599 255.558 179.667 255.558 179.75 255.521C179.766 255.521 179.786 255.506 179.786 255.506C179.839 255.485 179.87 255.453 179.906 255.438C179.937 255.417 179.974 255.401 180.005 255.37C180.042 255.334 180.094 255.318 180.125 255.302C180.141 255.282 180.141 255.282 180.141 255.266C180.177 255.229 180.193 255.214 180.208 255.183C180.229 255.162 180.245 255.162 180.26 255.146C180.672 254.568 190.469 241.349 210.302 250.979L212.021 256.542C192.12 248.256 184.823 255.266 183.135 257.427Z" fill="#EDE0D2"/>
</g>
<mask id="mask87_47_13827" style="mask-type:luminance" maskUnits="userSpaceOnUse" x="152" y="168" width="35" height="22">
<path d="M152.333 168.667H187V190H152.333V168.667Z" fill="white"/>
</mask>
<g mask="url(#mask87_47_13827)">
<mask id="mask88_47_13827" style="mask-type:luminance" maskUnits="userSpaceOnUse" x="150" y="165" width="40" height="29">
<path d="M156.333 165.078L189.474 176.344L183.677 193.385L150.542 182.12L156.333 165.078Z" fill="white"/>
</mask>
<g mask="url(#mask88_47_13827)">
<mask id="mask89_47_13827" style="mask-type:luminance" maskUnits="userSpaceOnUse" x="150" y="165" width="40" height="29">
<path d="M156.333 165.078L189.474 176.344L183.677 193.385L150.542 182.12L156.333 165.078Z" fill="white"/>
</mask>
<g mask="url(#mask89_47_13827)">
<path d="M186.562 184.609C186.375 185.156 186.089 185.656 185.693 186.12C185.302 186.583 184.812 186.995 184.224 187.354C183.641 187.714 182.969 188.021 182.214 188.266C181.458 188.516 180.63 188.698 179.729 188.823C178.833 188.948 177.88 189.005 176.875 189C175.87 188.995 174.833 188.927 173.76 188.797C172.687 188.661 171.599 188.469 170.5 188.214C169.401 187.958 168.307 187.646 167.224 187.276C166.135 186.906 165.078 186.49 164.052 186.021C163.026 185.552 162.042 185.047 161.115 184.495C160.182 183.948 159.318 183.37 158.516 182.76C157.719 182.151 157 181.521 156.359 180.88C155.724 180.234 155.182 179.583 154.734 178.922C154.286 178.266 153.937 177.615 153.693 176.974C153.448 176.328 153.312 175.703 153.281 175.099C153.25 174.495 153.328 173.922 153.516 173.375C153.698 172.833 153.984 172.328 154.38 171.87C154.771 171.406 155.26 170.995 155.849 170.635C156.432 170.271 157.104 169.969 157.865 169.724C158.62 169.474 159.448 169.286 160.344 169.167C161.24 169.042 162.193 168.984 163.198 168.984C164.203 168.99 165.24 169.057 166.318 169.193C167.391 169.323 168.474 169.521 169.573 169.776C170.677 170.031 171.766 170.344 172.854 170.714C173.937 171.083 174.995 171.5 176.021 171.969C177.052 172.438 178.031 172.943 178.964 173.495C179.896 174.042 180.76 174.62 181.557 175.229C182.359 175.839 183.078 176.464 183.714 177.109C184.349 177.755 184.891 178.406 185.339 179.062C185.792 179.719 186.135 180.37 186.38 181.016C186.625 181.656 186.766 182.281 186.792 182.891C186.823 183.495 186.745 184.068 186.562 184.609Z" fill="#FFB93E"/>
</g>
</g>
</g>
<mask id="mask90_47_13827" style="mask-type:luminance" maskUnits="userSpaceOnUse" x="169" y="167" width="37" height="23">
<path d="M169.667 167.333H205.667V190H169.667V167.333Z" fill="white"/>
</mask>
<g mask="url(#mask90_47_13827)">
<mask id="mask91_47_13827" style="mask-type:luminance" maskUnits="userSpaceOnUse" x="167" y="163" width="41" height="31">
<path d="M167.792 177.089L201.214 163.724L207.901 180.438L174.474 193.802L167.792 177.089Z" fill="white"/>
</mask>
<g mask="url(#mask91_47_13827)">
<mask id="mask92_47_13827" style="mask-type:luminance" maskUnits="userSpaceOnUse" x="167" y="163" width="41" height="31">
<path d="M167.792 177.089L201.214 163.724L207.901 180.438L174.474 193.802L167.792 177.089Z" fill="white"/>
</mask>
<g mask="url(#mask92_47_13827)">
<path d="M205.068 172.052C205.292 172.61 205.401 173.209 205.406 173.839C205.406 174.474 205.297 175.131 205.078 175.818C204.859 176.5 204.531 177.198 204.099 177.912C203.667 178.62 203.135 179.334 202.505 180.042C201.88 180.75 201.161 181.443 200.365 182.12C199.563 182.802 198.693 183.453 197.75 184.078C196.807 184.703 195.813 185.287 194.766 185.834C193.719 186.375 192.635 186.87 191.526 187.318C190.411 187.761 189.292 188.146 188.156 188.474C187.021 188.802 185.896 189.063 184.786 189.261C183.672 189.459 182.589 189.589 181.542 189.646C180.495 189.709 179.495 189.698 178.552 189.62C177.609 189.537 176.734 189.391 175.932 189.172C175.13 188.959 174.411 188.677 173.781 188.334C173.151 187.99 172.615 187.584 172.177 187.125C171.745 186.667 171.417 186.157 171.193 185.599C170.969 185.042 170.854 184.448 170.854 183.813C170.854 183.177 170.964 182.521 171.182 181.834C171.401 181.151 171.729 180.453 172.161 179.74C172.594 179.032 173.125 178.323 173.75 177.615C174.38 176.907 175.094 176.209 175.896 175.532C176.698 174.849 177.568 174.198 178.51 173.573C179.453 172.953 180.448 172.365 181.495 171.823C182.542 171.276 183.625 170.782 184.734 170.339C185.849 169.891 186.969 169.506 188.104 169.177C189.24 168.849 190.365 168.589 191.474 168.391C192.589 168.193 193.667 168.063 194.719 168.006C195.766 167.943 196.76 167.953 197.708 168.037C198.651 168.115 199.526 168.261 200.328 168.479C201.13 168.693 201.849 168.974 202.479 169.318C203.109 169.667 203.646 170.068 204.078 170.526C204.516 170.985 204.844 171.495 205.068 172.052Z" fill="#FFB93E"/>
</g>
</g>
</g>
<mask id="mask93_47_13827" style="mask-type:luminance" maskUnits="userSpaceOnUse" x="73" y="0" width="213" height="92">
<path d="M73.6666 0.666504H285.667V91.3332H73.6666V0.666504Z" fill="white"/>
</mask>
<g mask="url(#mask93_47_13827)">
<mask id="mask94_47_13827" style="mask-type:luminance" maskUnits="userSpaceOnUse" x="71" y="-24" width="225" height="169">
<path d="M105.823 -23.667L295.922 38.4841L261.115 144.937L71.0156 82.7861L105.823 -23.667Z" fill="white"/>
</mask>
<g mask="url(#mask94_47_13827)">
<mask id="mask95_47_13827" style="mask-type:luminance" maskUnits="userSpaceOnUse" x="71" y="-24" width="225" height="169">
<path d="M105.823 -23.667L295.922 38.4841L261.115 144.937L71.0156 82.7861L105.823 -23.667Z" fill="white"/>
</mask>
<g mask="url(#mask95_47_13827)">
<path d="M185.453 2.8382C189.562 4.12466 193.292 6.16112 196.781 8.65591C202.349 12.6455 207.766 16.833 212.776 21.5257C214.667 23.2965 216.672 24.932 218.833 26.3642C227.094 31.833 234.594 38.3122 242.448 44.3174C247.948 48.5205 253.365 52.8695 259.536 56.083C267.312 60.1351 274.568 65.0465 282.052 69.5778C282.63 69.9267 283.115 70.2705 283.859 70.3747C285.01 70.5413 285.177 71.359 284.557 72.4007C282.104 76.557 278.323 78.7445 273.719 79.6351C270.88 80.1872 268.026 80.6872 265.161 81.0517C257.385 82.0465 249.724 83.8486 241.891 84.4059C237.87 84.6872 233.844 84.9788 229.812 85.0413C223.323 85.1455 216.911 85.8434 210.531 86.9893C202.505 88.432 194.417 89.2288 186.25 89.3486C183.021 89.4007 179.708 88.9788 176.573 90.2132C171.552 89.4997 166.599 90.7184 161.599 90.7653C148.135 90.8851 134.672 91.0465 121.214 91.2705C112.62 91.4111 104.016 90.8486 95.5469 89.0986C90.3281 88.0205 85.1146 86.9267 79.9063 85.7861C78.4948 85.4736 77.125 84.9945 75.9688 84.0517C74.4219 82.807 73.6302 81.2757 74.0625 79.2549C74.1094 79.0309 74.2969 78.7549 74.2188 78.6038C73.1042 76.4163 74.8281 76.0413 76.2031 75.432C77.6823 74.7861 78.974 73.833 80.276 72.9059C86.1042 68.7497 91.7813 64.3642 97.7917 60.4892C105.401 55.583 113.031 50.682 120.87 46.1247C133.344 38.8642 145.109 30.5986 156.016 21.1299C157.625 19.734 159.234 18.3226 160.938 17.0465C165.208 13.8382 169.167 10.2757 172.922 6.48404C174.38 5.01529 176.021 3.78091 177.719 2.61945C179.458 1.42153 181.302 1.03091 183.302 2.11424C183.958 2.46841 184.734 2.59862 185.453 2.8382Z" fill="#433820"/>
</g>
</g>
</g>
<mask id="mask96_47_13827" style="mask-type:luminance" maskUnits="userSpaceOnUse" x="79" y="6" width="192" height="75">
<path d="M79 6H271V80.6667H79V6Z" fill="white"/>
</mask>
<g mask="url(#mask96_47_13827)">
<mask id="mask97_47_13827" style="mask-type:luminance" maskUnits="userSpaceOnUse" x="71" y="-24" width="225" height="169">
<path d="M105.823 -23.6665L295.922 38.4845L261.115 144.938L71.0156 82.7866L105.823 -23.6665Z" fill="white"/>
</mask>
<g mask="url(#mask97_47_13827)">
<mask id="mask98_47_13827" style="mask-type:luminance" maskUnits="userSpaceOnUse" x="71" y="-24" width="225" height="169">
<path d="M105.823 -23.6665L295.922 38.4845L261.115 144.938L71.0156 82.7866L105.823 -23.6665Z" fill="white"/>
</mask>
<g mask="url(#mask98_47_13827)">
<path d="M153.245 79.8754C153.026 79.8181 152.792 79.6722 152.589 79.7035C146.599 80.5785 140.578 79.9639 134.578 80.0056C128.49 80.0524 122.396 79.9379 116.312 79.9587C108.594 79.9847 100.964 79.1306 93.3073 78.4691C89.4375 78.141 85.5781 77.7191 81.7188 77.3337C80.9635 77.2608 80.1927 77.2399 79.5156 76.7972C79.6146 76.0681 80.2917 75.9222 80.7604 75.5941C85.1771 72.4691 89.625 69.391 94.026 66.2504C106.135 57.6097 118.745 49.7608 131.63 42.3545C138.536 38.391 144.839 33.6149 151.01 28.641C156.177 24.4899 161.255 20.2295 166.422 16.0785C168.865 14.1201 171.073 11.9118 173.318 9.74514C174.161 8.93264 174.844 8.56806 175.776 9.55243C176.026 9.81285 176.438 9.91181 176.76 10.1149C180.427 12.4379 183.719 11.7556 187.036 8.50556C187.307 8.23994 187.599 7.9691 187.786 7.64618C188.365 6.6566 189.047 6.78681 189.875 7.32327C191.214 8.18785 192.646 8.92743 193.943 9.85452C199.771 14.016 205.464 18.3389 210.724 23.2191C212.286 24.667 213.87 26.1358 215.63 27.3129C224.135 32.9847 231.958 39.542 240.031 45.7764C245.521 50.0056 250.932 54.3493 257.016 57.7191C261.146 60.0004 265.323 62.2035 269.281 64.7764C269.583 64.9743 270.005 65.0472 270.135 65.6618C269.62 66.2712 268.76 66.417 268.016 66.6201C260.38 68.7347 252.76 70.9014 244.797 71.4899C240.24 71.8285 235.724 72.5629 231.198 73.1931C223.5 74.2712 215.776 75.0993 208 75.2868C202.891 75.4066 197.813 75.917 192.776 76.7504C182.292 78.4847 171.693 78.4743 161.125 78.9222C160.443 78.9535 159.75 78.8754 159.078 78.766C158.214 78.6254 157.573 78.8389 157.214 79.6722C155.917 80.3285 154.62 80.8701 153.245 79.8754Z" fill="#EDE0D2"/>
</g>
</g>
</g>
<mask id="mask99_47_13827" style="mask-type:luminance" maskUnits="userSpaceOnUse" x="141" y="67" width="141" height="19">
<path d="M141.667 67.3335H281.667V86.0002H141.667V67.3335Z" fill="white"/>
</mask>
<g mask="url(#mask99_47_13827)">
<mask id="mask100_47_13827" style="mask-type:luminance" maskUnits="userSpaceOnUse" x="71" y="-24" width="225" height="169">
<path d="M105.823 -23.6665L295.922 38.4845L261.115 144.938L71.0156 82.7866L105.823 -23.6665Z" fill="white"/>
</mask>
<g mask="url(#mask100_47_13827)">
<mask id="mask101_47_13827" style="mask-type:luminance" maskUnits="userSpaceOnUse" x="71" y="-24" width="225" height="169">
<path d="M105.823 -23.6665L295.922 38.4845L261.115 144.938L71.0156 82.7866L105.823 -23.6665Z" fill="white"/>
</mask>
<g mask="url(#mask101_47_13827)">
<path d="M200.604 82.3387C200.563 82.2762 200.484 82.2137 200.479 82.1512C200.276 77.4741 199.953 78.4325 203.964 78.1408C208.589 77.8023 213.24 77.7554 217.849 77.3179C219.203 77.1929 219.844 78.5054 220.974 78.2554C221.969 78.0366 222.406 76.9012 223.651 76.7606C230.229 76.0314 236.792 75.1408 243.354 74.2762C244.474 74.1304 245.344 74.0627 245.917 75.4064C246.333 76.3908 247.396 76.271 247.719 75.1981C248.036 74.1512 248.526 73.7294 249.583 73.6096C254.969 72.9898 260.151 71.396 265.401 70.1252C266.875 69.771 268.021 69.6356 268.958 71.0314C269.344 71.6096 269.953 71.9637 270.667 72.0835C271.156 72.1721 271.583 72.0679 271.854 71.6304C272.073 71.2658 271.964 70.9012 271.771 70.5523C271.401 69.8908 270.62 69.5471 270.375 68.7919C270.432 68.7294 270.474 68.6616 270.536 68.6148C272.526 67.0991 274.313 67.5783 276.172 68.9898C277.734 70.1721 279.474 71.12 281.099 72.146C280.875 72.995 280.448 73.5158 279.958 74.0002C279.292 74.6564 278.672 75.4794 277.813 74.1981C277.599 73.8804 277.182 73.8023 276.792 73.7502C275.422 73.5679 274.953 74.2137 275.469 75.5939C275.542 75.7971 275.594 76.0054 275.656 76.2241C274.708 76.8752 273.651 77.0314 272.609 77.2033C265.25 78.3856 257.88 79.5366 250.521 80.7346C249.464 80.9064 248.62 80.9273 248.047 79.7866C247.776 79.2398 247.115 78.9898 246.458 79.2502C245.849 79.4898 245.734 79.9846 245.911 80.5679C246.167 81.4064 245.557 81.4429 245.031 81.4898C242.911 81.6929 240.797 81.9429 238.667 82.0419C234.036 82.2658 229.396 82.3908 224.76 82.5887C223.87 82.6304 223.25 82.5471 223.411 81.4116C223.464 81.0523 223.349 80.6512 223.24 80.2919C223.068 79.7346 222.677 79.3648 222.068 79.396C221.453 79.4325 221.109 79.8387 221.047 80.4325C220.964 81.245 221.302 82.2814 220.479 82.7398C219.792 83.12 218.87 83.0887 218.047 83.2137C215.036 83.6773 212.026 84.1252 209.016 84.5783C206.604 82.3648 203.432 82.995 200.604 82.3387ZM173.318 81.0939C172.406 81.12 171.5 81.1877 170.589 81.1981C167.099 81.245 163.615 81.3023 160.125 81.3075C158.891 81.3075 157.656 81.1512 157.214 79.6721C155.87 79.4012 154.578 80.0731 153.245 79.8752C153.495 81.5887 153.396 81.8075 152.099 82.2919C151.094 82.6669 150.042 82.7502 148.984 82.745C147.021 82.7346 145.063 82.7606 143.104 82.6981C142.229 82.6669 141.792 82.896 141.943 83.8283C142.51 84.5314 143.234 84.7085 144.141 84.7554C152.932 85.245 161.708 84.6304 170.479 84.245C172.406 84.1616 174.443 84.3387 176.292 83.4429C175.771 81.021 175.771 81.0158 173.318 81.0939ZM197.964 80.0627C197.984 79.0523 197.484 78.6981 196.526 78.8596C196 78.9481 195.469 78.9898 194.943 79.0731C190.057 79.8491 185.151 80.4585 180.214 80.7762C178.25 80.9012 178.255 80.9221 178.818 82.8908C179.432 83.8179 180.318 83.6512 181.245 83.5783C185.969 83.2189 190.693 82.8908 195.417 82.5783C196.318 82.5158 197.245 82.62 197.953 81.8856C197.953 81.2762 197.948 80.6669 197.964 80.0627Z" fill="#9D743B"/>
</g>
</g>
</g>
<mask id="mask102_47_13827" style="mask-type:luminance" maskUnits="userSpaceOnUse" x="75" y="3" width="135" height="87">
<path d="M75 3.3335H209.667V90.0002H75V3.3335Z" fill="white"/>
</mask>
<g mask="url(#mask102_47_13827)">
<mask id="mask103_47_13827" style="mask-type:luminance" maskUnits="userSpaceOnUse" x="71" y="-24" width="225" height="169">
<path d="M105.823 -23.6665L295.922 38.4845L261.115 144.938L71.0156 82.7866L105.823 -23.6665Z" fill="white"/>
</mask>
<g mask="url(#mask103_47_13827)">
<mask id="mask104_47_13827" style="mask-type:luminance" maskUnits="userSpaceOnUse" x="71" y="-24" width="225" height="169">
<path d="M105.823 -23.6665L295.922 38.4845L261.115 144.938L71.0156 82.7866L105.823 -23.6665Z" fill="white"/>
</mask>
<g mask="url(#mask104_47_13827)">
<path d="M200.604 82.3389C202.161 82.0316 203.719 82.141 205.297 82.2139C206.698 82.2764 207.771 82.6358 208.375 83.9952C208.484 84.2348 208.802 84.3858 209.021 84.5733C201.979 85.8389 194.885 86.5733 187.734 86.7035C184.995 86.7556 182.198 87.2504 179.542 86.8233C176.927 86.4066 174.635 87.4535 172.167 87.5004C169.583 87.5473 167.005 87.7868 164.427 87.9691C157.292 88.4691 150.146 88.2087 143 88.2556C135.703 88.3025 128.411 88.5941 121.115 88.7504C119.448 88.7868 117.672 89.016 116.13 88.5525C114.609 88.0941 113.276 87.5473 111.776 88.3754C104.104 87.9327 96.4844 87.1723 89.1041 84.8702C88.9583 84.8233 88.8229 84.7556 88.6823 84.6983L88.6927 84.7243C89.276 84.24 89.3698 83.615 89.3594 82.8858C89.3489 82.292 89.5729 81.6931 89.7083 81.0212C90.3854 80.6931 91.125 80.8598 91.8594 80.917C97.9896 81.4014 104.078 82.3025 110.229 82.4587C111.125 82.4848 111.484 82.7556 111.479 83.6202C111.479 83.917 111.542 84.2295 111.651 84.5056C111.865 85.0577 112.307 85.3441 112.896 85.3233C113.599 85.2973 113.687 84.7504 113.786 84.2087C114.094 82.4691 114.104 82.3858 115.839 82.4535C123.208 82.7295 130.578 82.5316 137.948 82.6098C139.573 82.6254 139.594 82.6723 139.521 84.3337C139.495 84.9379 139.312 85.5577 139.391 86.141C139.484 86.8129 139.745 87.5733 140.646 87.4743C141.385 87.391 141.87 86.9848 141.818 86.0889C141.781 85.3441 141.896 84.5837 141.943 83.8337C150.365 84.7556 158.781 84.0993 167.208 83.8233C170.234 83.7295 173.245 83.0733 176.292 83.4483C178.068 84.2191 178.068 84.2191 178.818 82.8962C184.766 82.9795 190.661 82.0837 196.594 81.8754C197.047 81.8598 197.5 81.7348 197.953 81.8858C197.984 81.9535 198.031 82.0212 198.042 82.0941C198.198 82.9275 197.875 84.0941 199.161 84.2348C200.526 84.3754 200.26 83.0785 200.604 82.3389ZM88.6927 84.7243C87.401 84.4535 86.5729 83.8441 87.0052 82.3545C87.3281 81.2243 86.8698 80.5629 85.7656 80.3858C83.0781 79.9639 80.3854 79.5264 77.6823 79.2243C76.4323 79.0837 75.9427 80.0733 76.6302 81.1879C77.2083 82.1202 78.125 82.6514 79.1406 83.0368C81.151 83.7973 83.2708 84.042 85.3594 84.3181C86.4583 84.4587 87.5104 85.1879 88.6823 84.6983C88.6823 84.6931 88.6927 84.7243 88.6927 84.7243ZM185.432 6.44829C185.682 6.04204 185.865 5.59933 185.328 5.28162C183.75 4.33891 181.875 5.641 180.266 4.60454C179.802 4.30246 179.234 4.75558 178.833 5.09412C178.115 5.69829 176.745 5.97433 176.875 7.04725C177.005 8.12017 178.385 8.10975 179.161 8.50558C181.495 9.29725 184.229 8.37537 185.432 6.44829ZM135.964 65.5264C137.844 66.2348 139.839 66.2973 141.802 66.4431C146.266 66.766 150.724 67.4587 155.214 66.766C157.474 66.417 159.745 66.2816 162.036 66.2973C164.479 66.3129 166.901 66.0577 169.24 65.2764C170.073 64.9952 170.969 64.74 171.208 63.6931C170.214 62.9066 169.13 62.9743 168.078 63.0785C165.354 63.3389 162.609 63.5368 159.917 63.9952C154.854 64.8493 149.797 64.9275 144.687 64.5629C141.448 64.3337 138.182 64.1983 134.786 64.5316C135.047 65.4014 135.573 65.3754 135.964 65.5264ZM155.714 46.6358C154.349 46.5941 152.979 46.5993 151.62 46.516C145.167 46.141 138.724 47.042 132.271 46.641C131.687 46.6045 130.958 46.6098 130.818 47.4118C130.693 48.1358 131.219 48.49 131.807 48.7504C133.094 49.3285 134.453 49.4535 135.828 49.3806C140.083 49.1514 144.333 49.292 148.589 49.3025C150.411 49.3077 152.234 49.1983 154.042 48.9014C155.328 48.6879 156.469 48.2035 157.547 47.292C156.896 46.7868 156.323 46.6514 155.714 46.6358ZM138.422 55.3702C133.979 54.8389 129.562 54.1514 125.135 53.516C123.99 53.3545 122.932 52.9587 121.807 52.7764C121.344 52.7035 120.885 52.8233 120.656 53.3025C120.422 53.792 120.698 54.1618 121.01 54.516C121.49 55.0525 122.141 55.2712 122.786 55.5056C124.932 56.2868 127.146 56.7816 129.406 57.141C133.693 57.8233 137.99 58.1514 142.323 57.8598C143.12 57.8077 143.995 57.8129 144.682 56.8702C142.5 56.3285 140.49 55.615 138.422 55.3702ZM127.271 63.1618C125.349 62.4275 123.396 61.891 121.328 61.615C118.552 61.2452 115.812 60.5733 113.057 60.016C112.427 59.8858 111.766 59.8441 111.396 60.417C110.974 61.0733 111.557 61.5473 111.964 61.9691C112.281 62.292 112.641 62.615 113.042 62.7973C117.75 64.9379 122.661 65.516 127.75 64.5889C127.948 64.5525 128.12 64.3598 128.37 64.1931C128.125 63.5056 127.698 63.3233 127.271 63.1618ZM110.49 68.3545C107.578 67.865 104.635 67.6045 101.703 67.2556C101.328 67.2087 100.927 67.1202 100.672 67.5108C100.375 67.9691 100.573 68.391 100.854 68.7608C101.224 69.2452 101.714 69.5889 102.229 69.9275C105.526 72.1098 109.182 72.3233 112.953 71.9431C113.62 71.8754 114.276 71.6566 114.703 70.8337C113.422 69.7712 112.141 68.6358 110.49 68.3545ZM141.12 72.1462C134.646 71.6827 128.172 71.4587 121.568 71.6098C121.932 72.641 122.682 72.667 123.312 72.792C125.245 73.167 127.182 73.5316 129.13 73.8285C132.667 74.3702 136.214 74.6462 139.781 74.0577C140.677 73.9066 141.599 73.8233 142.292 73.0368C142.016 72.3493 141.557 72.1775 141.12 72.1462ZM160.432 58.7087C161.312 58.5993 162.536 58.417 162.469 57.3181C162.396 56.2087 161.25 55.9431 160.203 55.9118C159.979 55.9066 159.75 55.8806 159.521 55.891C156.724 56.0056 153.927 56.115 151.13 56.2556C150.609 56.2816 150.047 56.3077 149.615 56.667C149.12 57.0837 149.021 57.5473 149.656 57.9327C149.911 58.0889 150.214 58.1723 150.875 58.4431C153.797 58.7035 157.099 59.1254 160.432 58.7087ZM162.005 71.4795C158.312 71.74 154.62 72.0056 150.927 72.266C150.229 72.3181 149.464 72.2243 149.01 73.1566C149.422 73.2868 149.703 73.4535 149.984 73.4639C154.365 73.641 158.745 73.6306 163.099 73.1514C164.099 73.042 165.229 72.8441 165.911 71.5004C164.5 70.792 163.25 71.391 162.005 71.4795ZM163.719 45.4587C163.01 45.7035 162.651 46.292 162.75 47.0577C162.849 47.8597 163.479 48.292 164.172 48.2608C166.208 48.167 168.109 47.667 169.557 45.8389C167.51 44.6566 165.62 44.792 163.719 45.4587ZM168.214 55.7348C167.807 55.917 167.339 56.1358 167.526 56.7191C167.656 57.115 168.031 57.2973 168.422 57.2816C171.052 57.1618 173.609 56.7712 175.885 55.1827C173.25 54.5368 170.687 54.6462 168.214 55.7348Z" fill="#604428"/>
</g>
</g>
</g>
</svg>
