<svg width="250" height="353" viewBox="0 0 250 353" fill="none" xmlns="http://www.w3.org/2000/svg">
<mask id="mask0_47_13833" style="mask-type:luminance" maskUnits="userSpaceOnUse" x="132" y="173" width="110" height="94">
<path d="M132.333 173.667H241.667V267H132.333V173.667Z" fill="white"/>
</mask>
<g mask="url(#mask0_47_13833)">
<mask id="mask1_47_13833" style="mask-type:luminance" maskUnits="userSpaceOnUse" x="124" y="166" width="126" height="109">
<path d="M124.906 241.531L224.875 166.489L249.49 199.276L149.521 274.317L124.906 241.531Z" fill="white"/>
</mask>
<g mask="url(#mask1_47_13833)">
<mask id="mask2_47_13833" style="mask-type:luminance" maskUnits="userSpaceOnUse" x="124" y="166" width="126" height="109">
<path d="M224.917 166.458L124.948 241.5L149.557 274.291L249.526 199.25L224.917 166.458Z" fill="white"/>
</mask>
<g mask="url(#mask2_47_13833)">
<path d="M165.891 261.906L233.037 211.505C242.021 204.76 243.839 192.005 237.094 183.016C230.349 174.031 217.594 172.219 208.61 178.963L141.464 229.365C132.479 236.109 130.662 248.865 137.406 257.849C144.151 266.833 156.906 268.651 165.891 261.906Z" fill="#604428"/>
<path d="M166.011 262.067L233.156 211.661C242.224 204.859 244.058 191.963 237.255 182.901C230.448 173.833 217.558 172 208.49 178.802L141.344 229.208C132.281 236.01 130.443 248.906 137.25 257.968C144.052 267.031 156.948 268.87 166.011 262.067ZM208.729 179.12C217.62 172.448 230.266 174.25 236.938 183.135C243.61 192.026 241.808 204.672 232.917 211.343L165.771 261.75C156.88 268.422 144.24 266.62 137.568 257.729C130.891 248.838 132.693 236.198 141.584 229.526L208.729 179.12Z" fill="#604428"/>
</g>
</g>
</g>
<mask id="mask3_47_13833" style="mask-type:luminance" maskUnits="userSpaceOnUse" x="113" y="128" width="132" height="110">
<path d="M113.667 128.333H244.333V237.667H113.667V128.333Z" fill="white"/>
</mask>
<g mask="url(#mask3_47_13833)">
<mask id="mask4_47_13833" style="mask-type:luminance" maskUnits="userSpaceOnUse" x="104" y="119" width="150" height="129">
<path d="M104.953 208.594L224.115 119.141L253.531 158.328L134.37 247.781L104.953 208.594Z" fill="white"/>
</mask>
<g mask="url(#mask4_47_13833)">
<mask id="mask5_47_13833" style="mask-type:luminance" maskUnits="userSpaceOnUse" x="104" y="119" width="150" height="130">
<path d="M223.802 119.375L104.641 208.828L134.057 248.016L253.219 158.562L223.802 119.375Z" fill="white"/>
</mask>
<g mask="url(#mask5_47_13833)">
<path d="M153.656 232.802L233.453 172.901C244.13 164.886 246.292 149.729 238.276 139.047C230.26 128.37 215.099 126.214 204.422 134.229L124.625 194.13C113.948 202.146 111.786 217.302 119.802 227.979C127.818 238.662 142.979 240.818 153.656 232.802Z" fill="#604428"/>
</g>
</g>
</g>
<mask id="mask6_47_13833" style="mask-type:luminance" maskUnits="userSpaceOnUse" x="113" y="128" width="132" height="111">
<path d="M113.667 128.333H244.333V239H113.667V128.333Z" fill="white"/>
</mask>
<g mask="url(#mask6_47_13833)">
<mask id="mask7_47_13833" style="mask-type:luminance" maskUnits="userSpaceOnUse" x="104" y="119" width="150" height="129">
<path d="M104.953 208.594L224.115 119.141L253.531 158.328L134.37 247.781L104.953 208.594Z" fill="white"/>
</mask>
<g mask="url(#mask7_47_13833)">
<mask id="mask8_47_13833" style="mask-type:luminance" maskUnits="userSpaceOnUse" x="104" y="119" width="150" height="130">
<path d="M223.802 119.375L104.641 208.828L134.057 248.016L253.219 158.562L223.802 119.375Z" fill="white"/>
</mask>
<g mask="url(#mask8_47_13833)">
<path d="M153.797 232.99L233.594 173.089C244.37 165.005 246.552 149.677 238.464 138.906C230.38 128.136 215.052 125.953 204.281 134.037L124.484 193.943C113.708 202.026 111.526 217.349 119.615 228.125C127.698 238.896 143.026 241.078 153.797 232.99ZM204.563 134.417C215.13 126.485 230.156 128.625 238.089 139.193C246.016 149.755 243.875 164.781 233.313 172.714L153.51 232.615C142.948 240.547 127.922 238.406 119.99 227.839C112.063 217.276 114.203 202.25 124.766 194.318L204.563 134.417Z" fill="#604428"/>
</g>
</g>
</g>
<mask id="mask9_47_13833" style="mask-type:luminance" maskUnits="userSpaceOnUse" x="119" y="85" width="131" height="110">
<path d="M119 85.6665H249.667V195H119V85.6665Z" fill="white"/>
</mask>
<g mask="url(#mask9_47_13833)">
<mask id="mask10_47_13833" style="mask-type:luminance" maskUnits="userSpaceOnUse" x="110" y="75" width="149" height="130">
<path d="M110.224 165.406L229.385 75.958L258.802 115.146L139.641 204.599L110.224 165.406Z" fill="white"/>
</mask>
<g mask="url(#mask10_47_13833)">
<mask id="mask11_47_13833" style="mask-type:luminance" maskUnits="userSpaceOnUse" x="109" y="76" width="150" height="129">
<path d="M229.073 76.1924L109.911 165.64L139.328 204.833L258.49 115.38L229.073 76.1924Z" fill="white"/>
</mask>
<g mask="url(#mask11_47_13833)">
<path d="M158.922 189.62L238.724 129.719C249.401 121.703 251.562 106.541 243.547 95.8643C235.531 85.1873 220.37 83.031 209.693 91.0466L129.896 150.948C119.219 158.963 117.057 174.12 125.073 184.797C133.088 195.474 148.245 197.635 158.922 189.62Z" fill="#604428"/>
<path d="M159.068 189.807L238.864 129.906C249.635 121.823 251.818 106.495 243.734 95.7238C235.646 84.953 220.323 82.7707 209.552 90.854L129.75 150.76C118.979 158.844 116.797 174.167 124.885 184.937C132.969 195.713 148.291 197.896 159.068 189.807ZM209.833 91.2342C220.401 83.3019 235.427 85.4425 243.354 96.0103C251.286 106.573 249.146 121.599 238.583 129.531L158.781 189.432C148.219 197.359 133.193 195.219 125.26 184.656C117.328 174.094 119.469 159.068 130.036 151.135L209.833 91.2342Z" fill="#604428"/>
</g>
</g>
</g>
<mask id="mask12_47_13833" style="mask-type:luminance" maskUnits="userSpaceOnUse" x="148" y="261" width="27" height="58">
<path d="M148.333 261.667H175V319H148.333V261.667Z" fill="white"/>
</mask>
<g mask="url(#mask12_47_13833)">
<mask id="mask13_47_13833" style="mask-type:luminance" maskUnits="userSpaceOnUse" x="148" y="261" width="27" height="59">
<path d="M167.375 319.661L148.057 263.911L155.62 261.292L174.937 317.042L167.375 319.661Z" fill="white"/>
</mask>
<g mask="url(#mask13_47_13833)">
<mask id="mask14_47_13833" style="mask-type:luminance" maskUnits="userSpaceOnUse" x="148" y="261" width="27" height="59">
<path d="M167.375 319.661L148.057 263.911L155.62 261.292L174.937 317.042L167.375 319.661Z" fill="white"/>
</mask>
<g mask="url(#mask14_47_13833)">
<path d="M149.484 267.974L150.87 271.974L150.88 271.968L164.635 311.656H164.62L166.005 315.656C166.771 317.859 169.187 319.031 171.39 318.271C173.593 317.505 174.765 315.088 174 312.885L157.479 265.208C156.718 263 154.312 261.828 152.109 262.588C149.906 263.354 148.724 265.771 149.484 267.974Z" fill="#FCD590"/>
</g>
</g>
</g>
<mask id="mask15_47_13833" style="mask-type:luminance" maskUnits="userSpaceOnUse" x="163" y="299" width="8" height="18">
<path d="M163 299H171V316.333H163V299Z" fill="white"/>
</mask>
<g mask="url(#mask15_47_13833)">
<mask id="mask16_47_13833" style="mask-type:luminance" maskUnits="userSpaceOnUse" x="148" y="261" width="27" height="59">
<path d="M167.375 319.661L148.057 263.911L155.62 261.292L174.938 317.042L167.375 319.661Z" fill="white"/>
</mask>
<g mask="url(#mask16_47_13833)">
<mask id="mask17_47_13833" style="mask-type:luminance" maskUnits="userSpaceOnUse" x="148" y="261" width="27" height="59">
<path d="M167.375 319.661L148.057 263.911L155.62 261.292L174.938 317.042L167.375 319.661Z" fill="white"/>
</mask>
<g mask="url(#mask17_47_13833)">
<path d="M163.198 301.104L168 314.963C168.193 315.521 168.792 315.812 169.349 315.62C169.906 315.427 170.198 314.828 170.005 314.271L168.62 310.276H168.61L165.193 300.422C165 299.864 164.401 299.573 163.844 299.765C163.287 299.963 163.011 300.557 163.198 301.104Z" fill="#FCD590"/>
</g>
</g>
</g>
<mask id="mask18_47_13833" style="mask-type:luminance" maskUnits="userSpaceOnUse" x="69" y="273" width="21" height="61">
<path d="M69.6667 273.667H89.6667V333.667H69.6667V273.667Z" fill="white"/>
</mask>
<g mask="url(#mask18_47_13833)">
<mask id="mask19_47_13833" style="mask-type:luminance" maskUnits="userSpaceOnUse" x="69" y="274" width="21" height="60">
<path d="M69.7292 331.937L81.3334 274.088L89.1772 275.661L77.573 333.51L69.7292 331.937Z" fill="white"/>
</mask>
<g mask="url(#mask19_47_13833)">
<mask id="mask20_47_13833" style="mask-type:luminance" maskUnits="userSpaceOnUse" x="69" y="274" width="21" height="60">
<path d="M69.7292 331.937L81.3334 274.088L89.1772 275.661L77.573 333.51L69.7292 331.937Z" fill="white"/>
</mask>
<g mask="url(#mask20_47_13833)">
<path d="M80.5053 278.318L79.672 282.464H79.6824L71.422 323.646L71.4116 323.641L70.5782 327.792C70.1199 330.078 71.6095 332.313 73.8959 332.771C76.1824 333.229 78.4168 331.745 78.8751 329.453L88.8022 279.979C89.2605 277.693 87.7866 275.464 85.4949 275C83.2084 274.542 80.9636 276.026 80.5053 278.318Z" fill="#FCD590"/>
</g>
</g>
</g>
<mask id="mask21_47_13833" style="mask-type:luminance" maskUnits="userSpaceOnUse" x="72" y="312" width="6" height="18">
<path d="M72.3333 312.333H77.6666V329.667H72.3333V312.333Z" fill="white"/>
</mask>
<g mask="url(#mask21_47_13833)">
<mask id="mask22_47_13833" style="mask-type:luminance" maskUnits="userSpaceOnUse" x="69" y="274" width="21" height="60">
<path d="M69.729 331.938L81.3332 274.089L89.1769 275.662L77.5728 333.511L69.729 331.938Z" fill="white"/>
</mask>
<g mask="url(#mask22_47_13833)">
<mask id="mask23_47_13833" style="mask-type:luminance" maskUnits="userSpaceOnUse" x="69" y="274" width="21" height="60">
<path d="M69.729 331.938L81.3332 274.089L89.1769 275.662L77.5728 333.511L69.729 331.938Z" fill="white"/>
</mask>
<g mask="url(#mask23_47_13833)">
<path d="M75.531 313.823L72.6456 328.203C72.531 328.782 72.9008 329.339 73.4789 329.453C74.057 329.568 74.6091 329.198 74.7289 328.625L75.5622 324.474H75.5466L77.5987 314.245C77.7133 313.667 77.3435 313.115 76.7706 313C76.1924 312.881 75.6456 313.256 75.531 313.823Z" fill="#FCD590"/>
</g>
</g>
</g>
<mask id="mask24_47_13833" style="mask-type:luminance" maskUnits="userSpaceOnUse" x="51" y="305" width="35" height="48">
<path d="M51 305.667H85.6667V352.333H51V305.667Z" fill="white"/>
</mask>
<g mask="url(#mask24_47_13833)">
<mask id="mask25_47_13833" style="mask-type:luminance" maskUnits="userSpaceOnUse" x="50" y="305" width="38" height="48">
<path d="M80.6093 352.937L50.0833 309.614L56.6249 305.005L87.1458 348.333L80.6093 352.937Z" fill="white"/>
</mask>
<g mask="url(#mask25_47_13833)">
<mask id="mask26_47_13833" style="mask-type:luminance" maskUnits="userSpaceOnUse" x="50" y="305" width="38" height="48">
<path d="M80.6093 352.937L50.0833 309.614L56.6249 305.005L87.1458 348.333L80.6093 352.937Z" fill="white"/>
</mask>
<g mask="url(#mask26_47_13833)">
<path d="M52.3542 312.812L54.5364 315.911L54.5469 315.906L76.2552 346.719L76.2448 346.724L78.4323 349.828C79.6354 351.542 82.0104 351.953 83.7239 350.745C85.4323 349.536 85.8437 347.167 84.6406 345.453L58.5573 308.437C57.3542 306.724 54.9896 306.307 53.276 307.515C51.5677 308.719 51.1458 311.099 52.3542 312.812Z" fill="#FCD590"/>
</g>
</g>
</g>
<mask id="mask27_47_13833" style="mask-type:luminance" maskUnits="userSpaceOnUse" x="71" y="336" width="12" height="14">
<path d="M71 336.333H83V349.667H71V336.333Z" fill="white"/>
</mask>
<g mask="url(#mask27_47_13833)">
<mask id="mask28_47_13833" style="mask-type:luminance" maskUnits="userSpaceOnUse" x="50" y="305" width="38" height="48">
<path d="M80.6093 352.938L50.0833 309.615L56.6249 305.005L87.1458 348.333L80.6093 352.938Z" fill="white"/>
</mask>
<g mask="url(#mask28_47_13833)">
<mask id="mask29_47_13833" style="mask-type:luminance" maskUnits="userSpaceOnUse" x="50" y="305" width="38" height="48">
<path d="M80.6093 352.938L50.0833 309.615L56.6249 305.005L87.1458 348.333L80.6093 352.938Z" fill="white"/>
</mask>
<g mask="url(#mask29_47_13833)">
<path d="M72.3958 337.974L79.9792 348.74C80.2812 349.172 80.875 349.271 81.3073 348.969C81.7396 348.662 81.8385 348.073 81.5364 347.641L79.3489 344.537L79.3385 344.542L73.9479 336.891C73.6458 336.459 73.0573 336.36 72.625 336.662C72.1927 336.969 72.0989 337.552 72.3958 337.974Z" fill="#FCD590"/>
</g>
</g>
</g>
<mask id="mask30_47_13833" style="mask-type:luminance" maskUnits="userSpaceOnUse" x="40" y="327" width="55" height="11">
<path d="M40.3333 327H94.9999V337.667H40.3333V327Z" fill="white"/>
</mask>
<g mask="url(#mask30_47_13833)">
<mask id="mask31_47_13833" style="mask-type:luminance" maskUnits="userSpaceOnUse" x="41" y="327" width="54" height="10">
<path d="M94.3853 335.469L41.3958 336.495L41.2395 328.5L94.2343 327.469L94.3853 335.469Z" fill="white"/>
</mask>
<g mask="url(#mask31_47_13833)">
<mask id="mask32_47_13833" style="mask-type:luminance" maskUnits="userSpaceOnUse" x="41" y="327" width="54" height="10">
<path d="M94.3853 335.469L41.3958 336.495L41.2395 328.5L94.2343 327.469L94.3853 335.469Z" fill="white"/>
</mask>
<g mask="url(#mask32_47_13833)">
<path d="M45.3176 336.406L49.1145 336.333V336.323L86.7967 335.594V335.604L90.5936 335.526C92.6822 335.489 94.354 333.75 94.3124 331.661C94.2707 329.567 92.5363 327.896 90.4426 327.937L45.1717 328.817C43.078 328.854 41.4061 330.578 41.4478 332.672C41.4895 334.765 43.2238 336.448 45.3176 336.406Z" fill="#FCD590"/>
</g>
</g>
</g>
<mask id="mask33_47_13833" style="mask-type:luminance" maskUnits="userSpaceOnUse" x="76" y="331" width="17" height="4">
<path d="M76.3333 331H92.3333V335H76.3333V331Z" fill="white"/>
</mask>
<g mask="url(#mask33_47_13833)">
<mask id="mask34_47_13833" style="mask-type:luminance" maskUnits="userSpaceOnUse" x="41" y="327" width="54" height="10">
<path d="M94.3853 335.469L41.3958 336.495L41.2395 328.5L94.2343 327.469L94.3853 335.469Z" fill="white"/>
</mask>
<g mask="url(#mask34_47_13833)">
<mask id="mask35_47_13833" style="mask-type:luminance" maskUnits="userSpaceOnUse" x="41" y="327" width="54" height="10">
<path d="M94.3853 335.469L41.3958 336.495L41.2395 328.5L94.2343 327.469L94.3853 335.469Z" fill="white"/>
</mask>
<g mask="url(#mask35_47_13833)">
<path d="M77.3907 333.891L90.5521 333.636C91.0834 333.625 91.5 333.193 91.4896 332.667C91.4792 332.136 91.0469 331.724 90.5157 331.735L86.724 331.807V331.818L77.3646 332C76.8386 332.011 76.4219 332.438 76.4323 332.969C76.4427 333.495 76.875 333.901 77.3907 333.891Z" fill="#FCD590"/>
</g>
</g>
</g>
<mask id="mask36_47_13833" style="mask-type:luminance" maskUnits="userSpaceOnUse" x="151" y="304" width="51" height="29">
<path d="M151 304.333H201.667V332.333H151V304.333Z" fill="white"/>
</mask>
<g mask="url(#mask36_47_13833)">
<mask id="mask37_47_13833" style="mask-type:luminance" maskUnits="userSpaceOnUse" x="150" y="304" width="52" height="30">
<path d="M153.474 304.203L201.745 326.083L198.443 333.37L150.172 311.49L153.474 304.203Z" fill="white"/>
</mask>
<g mask="url(#mask37_47_13833)">
<mask id="mask38_47_13833" style="mask-type:luminance" maskUnits="userSpaceOnUse" x="150" y="304" width="52" height="30">
<path d="M201.63 326.031L153.359 304.151L150.057 311.437L198.328 333.318L201.63 326.031Z" fill="white"/>
</mask>
<g mask="url(#mask38_47_13833)">
<path d="M156.922 305.781L160.38 307.349V307.359L194.708 322.917V322.906L198.167 324.474C200.073 325.338 200.922 327.594 200.057 329.5C199.193 331.406 196.943 332.255 195.036 331.39L153.792 312.698C151.88 311.833 151.031 309.588 151.896 307.682C152.76 305.776 155.016 304.917 156.922 305.781Z" fill="#FCD590"/>
</g>
</g>
</g>
<mask id="mask39_47_13833" style="mask-type:luminance" maskUnits="userSpaceOnUse" x="183" y="320" width="16" height="9">
<path d="M183 320.333H199V328.333H183V320.333Z" fill="white"/>
</mask>
<g mask="url(#mask39_47_13833)">
<mask id="mask40_47_13833" style="mask-type:luminance" maskUnits="userSpaceOnUse" x="150" y="304" width="52" height="30">
<path d="M153.474 304.203L201.745 326.083L198.443 333.37L150.172 311.49L153.474 304.203Z" fill="white"/>
</mask>
<g mask="url(#mask40_47_13833)">
<mask id="mask41_47_13833" style="mask-type:luminance" maskUnits="userSpaceOnUse" x="150" y="304" width="52" height="30">
<path d="M201.63 326.031L153.359 304.151L150.057 311.437L198.328 333.318L201.63 326.031Z" fill="white"/>
</mask>
<g mask="url(#mask41_47_13833)">
<path d="M185.396 320.766L197.386 326.198C197.87 326.417 198.078 326.979 197.86 327.458C197.641 327.943 197.084 328.151 196.599 327.932L193.146 326.365V326.354L184.625 322.495C184.141 322.276 183.932 321.714 184.151 321.234C184.37 320.75 184.922 320.552 185.396 320.766Z" fill="#FCD590"/>
</g>
</g>
</g>
<mask id="mask42_47_13833" style="mask-type:luminance" maskUnits="userSpaceOnUse" x="151" y="299" width="48" height="34">
<path d="M151 299H199V332.333H151V299Z" fill="white"/>
</mask>
<g mask="url(#mask42_47_13833)">
<mask id="mask43_47_13833" style="mask-type:luminance" maskUnits="userSpaceOnUse" x="150" y="298" width="50" height="36">
<path d="M150.448 326.25L195.604 298.505L199.792 305.323L154.635 333.063L150.448 326.25Z" fill="white"/>
</mask>
<g mask="url(#mask43_47_13833)">
<mask id="mask44_47_13833" style="mask-type:luminance" maskUnits="userSpaceOnUse" x="150" y="298" width="50" height="36">
<path d="M195.5 298.568L150.344 326.313L154.531 333.13L199.688 305.386L195.5 298.568Z" fill="white"/>
</mask>
<g mask="url(#mask44_47_13833)">
<path d="M153.688 324.271L156.927 322.286L156.932 322.297L189.042 302.562L189.037 302.557L192.271 300.568C194.057 299.474 196.396 300.031 197.495 301.818C198.589 303.599 198.031 305.943 196.245 307.036L157.667 330.745C155.88 331.838 153.547 331.286 152.448 329.505C151.354 327.719 151.906 325.37 153.688 324.271Z" fill="#FCD590"/>
</g>
</g>
</g>
<mask id="mask45_47_13833" style="mask-type:luminance" maskUnits="userSpaceOnUse" x="180" y="301" width="15" height="10">
<path d="M180.333 301.667H195V311H180.333V301.667Z" fill="white"/>
</mask>
<g mask="url(#mask45_47_13833)">
<mask id="mask46_47_13833" style="mask-type:luminance" maskUnits="userSpaceOnUse" x="150" y="298" width="50" height="36">
<path d="M150.448 326.25L195.604 298.505L199.792 305.323L154.635 333.062L150.448 326.25Z" fill="white"/>
</mask>
<g mask="url(#mask46_47_13833)">
<mask id="mask47_47_13833" style="mask-type:luminance" maskUnits="userSpaceOnUse" x="150" y="298" width="50" height="36">
<path d="M195.5 298.567L150.344 326.312L154.531 333.13L199.687 305.385L195.5 298.567Z" fill="white"/>
</mask>
<g mask="url(#mask47_47_13833)">
<path d="M182.047 309.072L193.26 302.182C193.713 301.906 194.297 302.041 194.573 302.494C194.849 302.942 194.708 303.525 194.26 303.802L191.026 305.791L191.021 305.781L183.047 310.682C182.594 310.958 182.01 310.817 181.734 310.369C181.458 309.916 181.604 309.343 182.047 309.072Z" fill="#FCD590"/>
</g>
</g>
</g>
<mask id="mask48_47_13833" style="mask-type:luminance" maskUnits="userSpaceOnUse" x="24" y="113" width="178" height="178">
<path d="M24.2761 113.896H201.276V290.896H24.2761V113.896Z" fill="white"/>
</mask>
<g mask="url(#mask48_47_13833)">
<path d="M200.917 202.219C200.917 203.662 200.885 205.11 200.813 206.552C200.74 207.995 200.635 209.438 200.495 210.875C200.354 212.313 200.177 213.75 199.964 215.177C199.75 216.61 199.505 218.031 199.224 219.448C198.938 220.865 198.625 222.276 198.271 223.677C197.922 225.078 197.537 226.474 197.115 227.854C196.698 229.24 196.245 230.61 195.755 231.974C195.271 233.333 194.75 234.682 194.198 236.016C193.641 237.354 193.057 238.672 192.438 239.979C191.823 241.287 191.172 242.578 190.49 243.854C189.807 245.125 189.099 246.386 188.354 247.625C187.609 248.865 186.839 250.083 186.037 251.287C185.229 252.49 184.401 253.672 183.537 254.828C182.677 255.99 181.787 257.13 180.87 258.25C179.953 259.365 179.01 260.458 178.042 261.531C177.068 262.599 176.073 263.646 175.052 264.672C174.026 265.693 172.984 266.688 171.912 267.662C170.839 268.63 169.745 269.573 168.63 270.49C167.51 271.406 166.37 272.297 165.208 273.156C164.052 274.021 162.87 274.849 161.667 275.656C160.464 276.458 159.245 277.229 158.005 277.974C156.766 278.719 155.505 279.427 154.234 280.11C152.958 280.792 151.667 281.443 150.359 282.057C149.052 282.677 147.734 283.261 146.396 283.818C145.063 284.37 143.714 284.891 142.354 285.375C140.99 285.865 139.62 286.318 138.234 286.735C136.854 287.156 135.458 287.542 134.057 287.891C132.656 288.245 131.245 288.557 129.828 288.844C128.412 289.125 126.99 289.37 125.557 289.583C124.13 289.797 122.693 289.974 121.255 290.115C119.818 290.255 118.375 290.36 116.932 290.432C115.49 290.505 114.042 290.537 112.599 290.537C111.151 290.537 109.708 290.505 108.266 290.432C106.823 290.36 105.38 290.255 103.943 290.115C102.505 289.974 101.068 289.797 99.6407 289.583C98.2084 289.37 96.7865 289.125 95.3699 288.844C93.948 288.557 92.5417 288.245 91.1407 287.891C89.7345 287.542 88.3438 287.156 86.9584 286.735C85.5782 286.318 84.2032 285.865 82.8438 285.375C81.4845 284.891 80.1355 284.37 78.8022 283.818C77.4636 283.261 76.1459 282.677 74.8386 282.057C73.5313 281.443 72.2397 280.792 70.9636 280.11C69.6876 279.427 68.4324 278.719 67.1928 277.974C65.9532 277.229 64.7345 276.458 63.5313 275.656C62.3282 274.849 61.1459 274.021 59.9845 273.156C58.823 272.297 57.6876 271.406 56.5678 270.49C55.4532 269.573 54.3595 268.63 53.2865 267.662C52.2136 266.688 51.1667 265.693 50.1459 264.672C49.1251 263.646 48.1303 262.599 47.1563 261.531C46.1876 260.458 45.2449 259.365 44.3282 258.25C43.4115 257.13 42.5209 255.99 41.6615 254.828C40.797 253.672 39.9636 252.49 39.1615 251.287C38.3595 250.083 37.5886 248.865 36.8438 247.625C36.099 246.386 35.3907 245.125 34.7084 243.854C34.0261 242.578 33.3751 241.287 32.7605 239.979C32.1407 238.672 31.5522 237.354 31.0001 236.016C30.448 234.682 29.9272 233.333 29.4428 231.974C28.9532 230.61 28.5001 229.24 28.0834 227.854C27.6615 226.474 27.2761 225.078 26.9272 223.677C26.573 222.276 26.2553 220.865 25.974 219.448C25.6928 218.031 25.448 216.61 25.2345 215.177C25.0209 213.75 24.8438 212.313 24.7032 210.875C24.5626 209.438 24.4532 207.995 24.3855 206.552C24.3126 205.11 24.2761 203.662 24.2761 202.219C24.2761 200.771 24.3126 199.328 24.3855 197.886C24.4532 196.443 24.5626 195 24.7032 193.563C24.8438 192.125 25.0209 190.688 25.2345 189.261C25.448 187.828 25.6928 186.406 25.974 184.99C26.2553 183.568 26.573 182.162 26.9272 180.761C27.2761 179.354 27.6615 177.964 28.0834 176.578C28.5001 175.198 28.9532 173.823 29.4428 172.464C29.9272 171.104 30.448 169.755 31.0001 168.422C31.5522 167.083 32.1407 165.766 32.7605 164.458C33.3751 163.151 34.0261 161.86 34.7084 160.583C35.3907 159.307 36.099 158.052 36.8438 156.813C37.5886 155.573 38.3595 154.354 39.1615 153.151C39.9636 151.948 40.797 150.766 41.6615 149.604C42.5209 148.443 43.4115 147.307 44.3282 146.188C45.2449 145.073 46.1876 143.979 47.1563 142.906C48.1303 141.833 49.1251 140.787 50.1459 139.766C51.1667 138.745 52.2136 137.75 53.2865 136.776C54.3595 135.807 55.4532 134.865 56.5678 133.948C57.6876 133.031 58.823 132.141 59.9845 131.281C61.1459 130.417 62.3282 129.583 63.5313 128.781C64.7345 127.979 65.9532 127.208 67.1928 126.464C68.4324 125.719 69.6876 125.011 70.9636 124.328C72.2397 123.646 73.5313 122.995 74.8386 122.38C76.1459 121.761 77.4636 121.172 78.8022 120.62C80.1355 120.068 81.4845 119.547 82.8438 119.063C84.2032 118.573 85.5782 118.12 86.9584 117.703C88.3438 117.281 89.7345 116.896 91.1407 116.547C92.5417 116.193 93.948 115.875 95.3699 115.594C96.7865 115.313 98.2084 115.068 99.6407 114.854C101.068 114.641 102.505 114.464 103.943 114.323C105.38 114.182 106.823 114.073 108.266 114.005C109.708 113.932 111.151 113.896 112.599 113.896C114.042 113.896 115.49 113.932 116.932 114.005C118.375 114.073 119.818 114.182 121.255 114.323C122.693 114.464 124.13 114.641 125.557 114.854C126.99 115.068 128.412 115.313 129.828 115.594C131.245 115.875 132.656 116.193 134.057 116.547C135.458 116.896 136.854 117.281 138.234 117.703C139.62 118.12 140.99 118.573 142.354 119.063C143.714 119.547 145.063 120.068 146.396 120.62C147.734 121.172 149.052 121.761 150.359 122.38C151.667 122.995 152.958 123.646 154.234 124.328C155.505 125.011 156.766 125.719 158.005 126.464C159.245 127.208 160.464 127.979 161.667 128.781C162.87 129.583 164.052 130.417 165.208 131.281C166.37 132.141 167.51 133.031 168.63 133.948C169.745 134.865 170.839 135.807 171.912 136.776C172.984 137.75 174.026 138.745 175.052 139.766C176.073 140.787 177.068 141.833 178.042 142.906C179.01 143.979 179.953 145.073 180.87 146.188C181.787 147.307 182.677 148.443 183.537 149.604C184.401 150.766 185.229 151.948 186.037 153.151C186.839 154.354 187.609 155.573 188.354 156.813C189.099 158.052 189.807 159.307 190.49 160.583C191.172 161.86 191.823 163.151 192.438 164.458C193.057 165.766 193.641 167.083 194.198 168.422C194.75 169.755 195.271 171.104 195.755 172.464C196.245 173.823 196.698 175.198 197.115 176.578C197.537 177.964 197.922 179.354 198.271 180.761C198.625 182.162 198.938 183.568 199.224 184.99C199.505 186.406 199.75 187.828 199.964 189.261C200.177 190.688 200.354 192.125 200.495 193.563C200.635 195 200.74 196.443 200.813 197.886C200.885 199.328 200.917 200.771 200.917 202.219Z" fill="#442F19"/>
</g>
<mask id="mask49_47_13833" style="mask-type:luminance" maskUnits="userSpaceOnUse" x="24" y="54" width="178" height="177">
<path d="M24.2761 54.3384H201.276V231H24.2761V54.3384Z" fill="white"/>
</mask>
<g mask="url(#mask49_47_13833)">
<path d="M200.917 142.656C200.917 144.104 200.885 145.547 200.813 146.989C200.74 148.437 200.635 149.875 200.495 151.312C200.354 152.755 200.177 154.187 199.964 155.62C199.75 157.047 199.505 158.469 199.224 159.89C198.938 161.307 198.625 162.713 198.271 164.12C197.922 165.521 197.537 166.911 197.115 168.297C196.698 169.677 196.245 171.052 195.755 172.411C195.271 173.771 194.75 175.12 194.198 176.458C193.641 177.792 193.057 179.114 192.438 180.422C191.823 181.724 191.172 183.015 190.49 184.292C189.807 185.568 189.099 186.823 188.354 188.062C187.609 189.302 186.839 190.526 186.037 191.724C185.229 192.927 184.401 194.109 183.537 195.271C182.677 196.432 181.787 197.573 180.87 198.687C179.953 199.807 179.01 200.901 178.042 201.969C177.068 203.042 176.073 204.088 175.052 205.109C174.026 206.13 172.984 207.13 171.912 208.099C170.839 209.068 169.745 210.015 168.63 210.932C167.51 211.849 166.37 212.734 165.208 213.599C164.052 214.458 162.87 215.292 161.667 216.094C160.464 216.896 159.245 217.672 158.005 218.411C156.766 219.156 155.505 219.87 154.234 220.552C152.958 221.229 151.667 221.88 150.359 222.5C149.052 223.114 147.734 223.703 146.396 224.255C145.063 224.807 143.714 225.328 142.354 225.818C140.99 226.302 139.62 226.755 138.234 227.177C136.854 227.594 135.458 227.979 134.057 228.333C132.656 228.682 131.245 229 129.828 229.281C128.412 229.562 126.99 229.812 125.557 230.021C124.13 230.234 122.693 230.411 121.255 230.552C119.818 230.693 118.375 230.802 116.932 230.87C115.49 230.943 114.042 230.979 112.599 230.979C111.151 230.979 109.708 230.943 108.266 230.87C106.823 230.802 105.38 230.693 103.943 230.552C102.505 230.411 101.068 230.234 99.6407 230.021C98.2084 229.812 96.7865 229.562 95.3699 229.281C93.948 229 92.5417 228.682 91.1407 228.333C89.7345 227.979 88.3438 227.594 86.9584 227.177C85.5782 226.755 84.2032 226.302 82.8438 225.818C81.4845 225.328 80.1355 224.807 78.8022 224.255C77.4636 223.703 76.1459 223.114 74.8386 222.5C73.5313 221.88 72.2397 221.229 70.9636 220.552C69.6876 219.87 68.4324 219.156 67.1928 218.411C65.9532 217.672 64.7345 216.896 63.5313 216.094C62.3282 215.292 61.1459 214.458 59.9845 213.599C58.823 212.734 57.6876 211.849 56.5678 210.932C55.4532 210.015 54.3595 209.068 53.2865 208.099C52.2136 207.13 51.1667 206.13 50.1459 205.109C49.1251 204.088 48.1303 203.042 47.1563 201.969C46.1876 200.901 45.2449 199.807 44.3282 198.687C43.4115 197.573 42.5209 196.432 41.6615 195.271C40.797 194.109 39.9636 192.927 39.1615 191.724C38.3595 190.526 37.5886 189.302 36.8438 188.062C36.099 186.823 35.3907 185.568 34.7084 184.292C34.0261 183.015 33.3751 181.724 32.7605 180.422C32.1407 179.114 31.5522 177.792 31.0001 176.458C30.448 175.12 29.9272 173.771 29.4428 172.411C28.9532 171.052 28.5001 169.677 28.0834 168.297C27.6615 166.911 27.2761 165.521 26.9272 164.12C26.573 162.713 26.2553 161.307 25.974 159.89C25.6928 158.469 25.448 157.047 25.2345 155.62C25.0209 154.187 24.8438 152.755 24.7032 151.312C24.5626 149.875 24.4532 148.437 24.3855 146.989C24.3126 145.547 24.2761 144.104 24.2761 142.656C24.2761 141.213 24.3126 139.765 24.3855 138.323C24.4532 136.88 24.5626 135.437 24.7032 134C24.8438 132.562 25.0209 131.13 25.2345 129.698C25.448 128.271 25.6928 126.844 25.974 125.427C26.2553 124.01 26.573 122.599 26.9272 121.198C27.2761 119.797 27.6615 118.401 28.0834 117.021C28.5001 115.635 28.9532 114.265 29.4428 112.906C29.9272 111.542 30.448 110.193 31.0001 108.859C31.5522 107.526 32.1407 106.203 32.7605 104.896C33.3751 103.588 34.0261 102.297 34.7084 101.026C35.3907 99.7498 36.099 98.4894 36.8438 97.2498C37.5886 96.0103 38.3595 94.7915 39.1615 93.5884C39.9636 92.3853 40.797 91.2082 41.6615 90.0467C42.5209 88.8853 43.4115 87.7446 44.3282 86.63C45.2449 85.5103 46.1876 84.4165 47.1563 83.3436C48.1303 82.2759 49.1251 81.229 50.1459 80.2082C51.1667 79.1821 52.2136 78.1873 53.2865 77.2186C54.3595 76.2446 55.4532 75.3019 56.5678 74.3853C57.6876 73.4686 58.823 72.578 59.9845 71.7186C61.1459 70.8592 62.3282 70.0259 63.5313 69.2238C64.7345 68.4165 65.9532 67.6457 67.1928 66.9009C68.4324 66.1613 69.6876 65.4478 70.9636 64.7655C72.2397 64.0832 73.5313 63.4373 74.8386 62.8175C76.1459 62.1978 77.4636 61.6144 78.8022 61.0623C80.1355 60.505 81.4845 59.9894 82.8438 59.4998C84.2032 59.0155 85.5782 58.5623 86.9584 58.1405C88.3438 57.7186 89.7345 57.3332 91.1407 56.9842C92.5417 56.6353 93.948 56.3175 95.3699 56.0363C96.7865 55.755 98.2084 55.505 99.6407 55.2915C101.068 55.0832 102.505 54.9061 103.943 54.7603C105.38 54.6196 106.823 54.5155 108.266 54.4425C109.708 54.3748 111.151 54.3384 112.599 54.3384C114.042 54.3384 115.49 54.3748 116.932 54.4425C118.375 54.5155 119.818 54.6196 121.255 54.7603C122.693 54.9061 124.13 55.0832 125.557 55.2915C126.99 55.505 128.412 55.755 129.828 56.0363C131.245 56.3175 132.656 56.6353 134.057 56.9842C135.458 57.3332 136.854 57.7186 138.234 58.1405C139.62 58.5623 140.99 59.0155 142.354 59.4998C143.714 59.9894 145.063 60.505 146.396 61.0623C147.734 61.6144 149.052 62.1978 150.359 62.8175C151.667 63.4373 152.958 64.0832 154.234 64.7655C155.505 65.4478 156.766 66.1613 158.005 66.9009C159.245 67.6457 160.464 68.4165 161.667 69.2238C162.87 70.0259 164.052 70.8592 165.208 71.7186C166.37 72.578 167.51 73.4686 168.63 74.3853C169.745 75.3019 170.839 76.2446 171.912 77.2186C172.984 78.1873 174.026 79.1821 175.052 80.2082C176.073 81.229 177.068 82.2759 178.042 83.3436C179.01 84.4165 179.953 85.5103 180.87 86.63C181.787 87.7446 182.677 88.8853 183.537 90.0467C184.401 91.2082 185.229 92.3853 186.037 93.5884C186.839 94.7915 187.609 96.0103 188.354 97.2498C189.099 98.4894 189.807 99.7498 190.49 101.026C191.172 102.297 191.823 103.588 192.438 104.896C193.057 106.203 193.641 107.526 194.198 108.859C194.75 110.193 195.271 111.542 195.755 112.906C196.245 114.265 196.698 115.635 197.115 117.021C197.537 118.401 197.922 119.797 198.271 121.198C198.625 122.599 198.938 124.01 199.224 125.427C199.505 126.844 199.75 128.271 199.964 129.698C200.177 131.13 200.354 132.562 200.495 134C200.635 135.437 200.74 136.88 200.813 138.323C200.885 139.765 200.917 141.213 200.917 142.656Z" fill="#EDE0D2"/>
</g>
<mask id="mask50_47_13833" style="mask-type:luminance" maskUnits="userSpaceOnUse" x="118" y="105" width="64" height="64">
<path d="M118.979 105.573H181.677V168.271H118.979V105.573Z" fill="white"/>
</mask>
<g mask="url(#mask50_47_13833)">
<mask id="mask51_47_13833" style="mask-type:luminance" maskUnits="userSpaceOnUse" x="118" y="105" width="64" height="64">
<path d="M150.328 105.573C133.016 105.573 118.979 119.609 118.979 136.922C118.979 154.234 133.016 168.271 150.328 168.271C167.641 168.271 181.677 154.234 181.677 136.922C181.677 119.609 167.641 105.573 150.328 105.573Z" fill="white"/>
</mask>
<g mask="url(#mask51_47_13833)">
<path d="M118.979 105.573H181.677V168.271H118.979V105.573Z" fill="white"/>
</g>
</g>
<mask id="mask52_47_13833" style="mask-type:luminance" maskUnits="userSpaceOnUse" x="39" y="98" width="63" height="64">
<path d="M39.1511 98.8071H101.849V161.5H39.1511V98.8071Z" fill="white"/>
</mask>
<g mask="url(#mask52_47_13833)">
<mask id="mask53_47_13833" style="mask-type:luminance" maskUnits="userSpaceOnUse" x="39" y="98" width="63" height="64">
<path d="M70.5001 98.8071C53.1876 98.8071 39.1511 112.838 39.1511 130.156C39.1511 147.469 53.1876 161.5 70.5001 161.5C87.8126 161.5 101.849 147.469 101.849 130.156C101.849 112.838 87.8126 98.8071 70.5001 98.8071Z" fill="white"/>
</mask>
<g mask="url(#mask53_47_13833)">
<path d="M39.1511 98.8071H101.849V161.5H39.1511V98.8071Z" fill="white"/>
</g>
</g>
<mask id="mask54_47_13833" style="mask-type:luminance" maskUnits="userSpaceOnUse" x="130" y="117" width="40" height="40">
<path d="M130.948 117.542H169.708V156.302H130.948V117.542Z" fill="white"/>
</mask>
<g mask="url(#mask54_47_13833)">
<mask id="mask55_47_13833" style="mask-type:luminance" maskUnits="userSpaceOnUse" x="130" y="117" width="40" height="40">
<path d="M150.328 117.542C139.625 117.542 130.948 126.219 130.948 136.922C130.948 147.625 139.625 156.302 150.328 156.302C161.031 156.302 169.708 147.625 169.708 136.922C169.708 126.219 161.031 117.542 150.328 117.542Z" fill="white"/>
</mask>
<g mask="url(#mask55_47_13833)">
<path d="M130.948 117.542H169.708V156.302H130.948V117.542Z" fill="black"/>
</g>
</g>
<mask id="mask56_47_13833" style="mask-type:luminance" maskUnits="userSpaceOnUse" x="50" y="108" width="40" height="40">
<path d="M50.4583 108.516H89.2239V147.281H50.4583V108.516Z" fill="white"/>
</mask>
<g mask="url(#mask56_47_13833)">
<mask id="mask57_47_13833" style="mask-type:luminance" maskUnits="userSpaceOnUse" x="50" y="108" width="40" height="40">
<path d="M69.8437 108.516C59.1405 108.516 50.4583 117.193 50.4583 127.896C50.4583 138.604 59.1405 147.281 69.8437 147.281C80.5468 147.281 89.2239 138.604 89.2239 127.896C89.2239 117.193 80.5468 108.516 69.8437 108.516Z" fill="white"/>
</mask>
<g mask="url(#mask57_47_13833)">
<path d="M50.4583 108.516H89.2239V147.281H50.4583V108.516Z" fill="black"/>
</g>
</g>
<mask id="mask58_47_13833" style="mask-type:luminance" maskUnits="userSpaceOnUse" x="79" y="235" width="66" height="24">
<path d="M79.9011 235H144.901V258.984H79.9011V235Z" fill="white"/>
</mask>
<g mask="url(#mask58_47_13833)">
<path d="M137.688 248.24C128.823 245.839 122.193 247.865 117.833 250.432C123.792 244.375 132.875 242.386 135.781 241.891L137.688 248.24ZM127.208 235.021L129.708 240.99C124.995 242.453 118.839 245.297 114.672 250.537C117.307 241.365 124.521 236.531 127.208 235.021ZM97.948 235.021C100.635 236.531 107.849 241.349 110.484 250.552C106.318 245.313 100.162 242.469 95.448 241.005L97.948 235.021ZM89.3751 241.891C92.2865 242.386 101.37 244.375 107.323 250.432C102.969 247.865 96.3334 245.839 87.4688 248.24L89.3751 241.891ZM116.406 259.313H108.75C107.068 257.136 99.7865 250.141 79.9011 258.427L81.6199 252.865C101.453 243.235 111.25 256.453 111.662 257.031C111.677 257.047 111.693 257.047 111.714 257.068C111.729 257.099 111.745 257.136 111.781 257.151C111.797 257.167 111.797 257.167 111.797 257.188C111.828 257.219 111.865 257.235 111.917 257.255C111.948 257.271 111.984 257.302 112.016 257.323C112.052 257.339 112.083 257.375 112.135 257.391C112.151 257.391 112.172 257.406 112.172 257.406C112.24 257.443 112.323 257.443 112.406 257.458C112.458 257.458 112.495 257.49 112.547 257.49C112.563 257.49 112.578 257.49 112.594 257.49C112.615 257.49 112.63 257.49 112.646 257.49C112.698 257.49 112.734 257.474 112.781 257.458C112.87 257.443 112.938 257.443 113.021 257.406C113.037 257.406 113.057 257.391 113.057 257.391C113.104 257.375 113.141 257.339 113.172 257.323C113.208 257.302 113.245 257.287 113.276 257.255C113.313 257.219 113.359 257.203 113.396 257.188C113.412 257.167 113.412 257.167 113.412 257.151C113.448 257.12 113.464 257.099 113.479 257.068C113.5 257.047 113.516 257.047 113.531 257.031C113.938 256.453 123.74 243.235 143.573 252.865L145.292 258.427C125.391 250.141 118.089 257.151 116.406 259.313Z" fill="#EDE0D2"/>
</g>
<mask id="mask59_47_13833" style="mask-type:luminance" maskUnits="userSpaceOnUse" x="17" y="244" width="117" height="85">
<path d="M17.6667 244.333H133.667V328.333H17.6667V244.333Z" fill="white"/>
</mask>
<g mask="url(#mask59_47_13833)">
<mask id="mask60_47_13833" style="mask-type:luminance" maskUnits="userSpaceOnUse" x="11" y="237" width="130" height="98">
<path d="M31.3179 237.912L140.568 298.662L120.641 334.49L11.396 273.745L31.3179 237.912Z" fill="white"/>
</mask>
<g mask="url(#mask60_47_13833)">
<mask id="mask61_47_13833" style="mask-type:luminance" maskUnits="userSpaceOnUse" x="11" y="237" width="130" height="98">
<path d="M31.3179 237.912L140.568 298.662L120.641 334.49L11.396 273.745L31.3179 237.912Z" fill="white"/>
</mask>
<g mask="url(#mask61_47_13833)">
<path d="M102.776 324.443L29.3959 283.641C19.5782 278.177 16.0469 265.792 21.5052 255.969C26.9636 246.151 39.3542 242.62 49.1719 248.078L122.552 288.88C132.37 294.344 135.901 306.729 130.443 316.552C124.984 326.37 112.594 329.901 102.776 324.443Z" fill="#604428"/>
<path d="M102.677 324.614L29.3022 283.812C19.3959 278.307 15.823 265.781 21.3334 255.875C26.8386 245.969 39.3647 242.396 49.2709 247.906L122.646 288.708C132.552 294.219 136.125 306.739 130.615 316.646C125.109 326.552 112.583 330.125 102.677 324.614ZM49.0782 248.25C39.3594 242.849 27.0782 246.354 21.6772 256.068C16.2761 265.781 19.7813 278.062 29.4949 283.463L102.87 324.271C112.589 329.672 124.87 326.167 130.271 316.453C135.672 306.739 132.167 294.458 122.453 289.057L49.0782 248.25Z" fill="#604428"/>
</g>
</g>
</g>
<mask id="mask62_47_13833" style="mask-type:luminance" maskUnits="userSpaceOnUse" x="8" y="197" width="137" height="100">
<path d="M8.33325 197.667H144.333V296.333H8.33325V197.667Z" fill="white"/>
</mask>
<g mask="url(#mask62_47_13833)">
<mask id="mask63_47_13833" style="mask-type:luminance" maskUnits="userSpaceOnUse" x="-1" y="189" width="155" height="116">
<path d="M23.1614 189.521L153.385 261.937L129.573 304.76L-0.651123 232.349L23.1614 189.521Z" fill="white"/>
</mask>
<g mask="url(#mask63_47_13833)">
<mask id="mask64_47_13833" style="mask-type:luminance" maskUnits="userSpaceOnUse" x="-1" y="189" width="155" height="116">
<path d="M23.1614 189.521L153.385 261.937L129.573 304.76L-0.651123 232.349L23.1614 189.521Z" fill="white"/>
</mask>
<g mask="url(#mask64_47_13833)">
<path d="M108.089 292.354L20.8802 243.864C9.21357 237.374 5.01045 222.65 11.5 210.984C17.9896 199.312 32.7136 195.114 44.3854 201.598L131.589 250.093C143.255 256.583 147.458 271.307 140.969 282.973C134.479 294.645 119.755 298.843 108.089 292.354Z" fill="#604428"/>
</g>
</g>
</g>
<mask id="mask65_47_13833" style="mask-type:luminance" maskUnits="userSpaceOnUse" x="7" y="197" width="138" height="100">
<path d="M7 197.667H144.333V296.333H7V197.667Z" fill="white"/>
</mask>
<g mask="url(#mask65_47_13833)">
<mask id="mask66_47_13833" style="mask-type:luminance" maskUnits="userSpaceOnUse" x="-1" y="189" width="155" height="116">
<path d="M23.1614 189.521L153.385 261.937L129.573 304.76L-0.651123 232.349L23.1614 189.521Z" fill="white"/>
</mask>
<g mask="url(#mask66_47_13833)">
<mask id="mask67_47_13833" style="mask-type:luminance" maskUnits="userSpaceOnUse" x="-1" y="189" width="155" height="116">
<path d="M23.1614 189.521L153.385 261.937L129.573 304.76L-0.651123 232.349L23.1614 189.521Z" fill="white"/>
</mask>
<g mask="url(#mask67_47_13833)">
<path d="M107.974 292.562L20.7656 244.067C8.99474 237.526 4.74995 222.64 11.2968 210.869C17.8385 199.093 32.7239 194.849 44.5 201.396L131.703 249.885C143.474 256.432 147.719 271.317 141.172 283.088C134.63 294.859 119.745 299.109 107.974 292.562ZM44.2708 201.807C32.7239 195.385 18.125 199.552 11.7083 211.099C5.28641 222.64 9.45308 237.239 20.9947 243.656L108.203 292.151C119.745 298.567 134.344 294.406 140.76 282.859C147.182 271.317 143.016 256.718 131.474 250.302L44.2708 201.807Z" fill="#604428"/>
</g>
</g>
</g>
<mask id="mask68_47_13833" style="mask-type:luminance" maskUnits="userSpaceOnUse" x="0" y="157" width="138" height="100">
<path d="M0.333252 157.667H137.667V256.333H0.333252V157.667Z" fill="white"/>
</mask>
<g mask="url(#mask68_47_13833)">
<mask id="mask69_47_13833" style="mask-type:luminance" maskUnits="userSpaceOnUse" x="-8" y="149" width="155" height="117">
<path d="M16.3436 149.833L146.562 222.244L122.75 265.073L-7.47412 192.656L16.3436 149.833Z" fill="white"/>
</mask>
<g mask="url(#mask69_47_13833)">
<mask id="mask70_47_13833" style="mask-type:luminance" maskUnits="userSpaceOnUse" x="-8" y="149" width="155" height="117">
<path d="M16.3436 149.833L146.562 222.244L122.75 265.073L-7.47412 192.656L16.3436 149.833Z" fill="white"/>
</mask>
<g mask="url(#mask70_47_13833)">
<path d="M101.265 252.666L14.0571 204.171C2.39046 197.687 -1.80746 182.958 4.67692 171.291C11.1665 159.624 25.8905 155.421 37.5623 161.911L124.765 210.406C136.432 216.89 140.635 231.619 134.146 243.286C127.656 254.953 112.932 259.156 101.265 252.666Z" fill="#604428"/>
<path d="M101.151 252.869L13.9426 204.38C2.17175 197.833 -2.07305 182.947 4.47383 171.177C11.0207 159.406 25.9009 155.161 37.677 161.703L124.88 210.197C136.651 216.744 140.896 231.63 134.354 243.401C127.807 255.171 112.922 259.416 101.151 252.869ZM37.4478 162.119C25.9009 155.697 11.3072 159.859 4.88529 171.406C-1.53659 182.953 2.63008 197.546 14.1717 203.968L101.38 252.458C112.922 258.88 127.521 254.713 133.937 243.171C140.359 231.625 136.193 217.031 124.651 210.609L37.4478 162.119Z" fill="#604428"/>
</g>
</g>
</g>
<mask id="mask71_47_13833" style="mask-type:luminance" maskUnits="userSpaceOnUse" x="84" y="165" width="31" height="28">
<path d="M84.3333 165.667H115V192.333H84.3333V165.667Z" fill="white"/>
</mask>
<g mask="url(#mask71_47_13833)">
<mask id="mask72_47_13833" style="mask-type:luminance" maskUnits="userSpaceOnUse" x="80" y="161" width="40" height="37">
<path d="M91.8644 161.5L119.047 183.547L107.708 197.526L80.5259 175.479L91.8644 161.5Z" fill="white"/>
</mask>
<g mask="url(#mask72_47_13833)">
<mask id="mask73_47_13833" style="mask-type:luminance" maskUnits="userSpaceOnUse" x="80" y="161" width="40" height="37">
<path d="M91.8644 161.5L119.047 183.547L107.708 197.526L80.5259 175.479L91.8644 161.5Z" fill="white"/>
</mask>
<g mask="url(#mask73_47_13833)">
<path d="M113.453 190.297C113.088 190.745 112.646 191.115 112.114 191.411C111.588 191.708 110.984 191.927 110.312 192.062C109.635 192.198 108.901 192.25 108.104 192.219C107.312 192.187 106.468 192.078 105.583 191.88C104.698 191.687 103.786 191.411 102.843 191.062C101.906 190.708 100.953 190.281 99.9945 189.786C99.031 189.292 98.0779 188.734 97.1352 188.109C96.1925 187.49 95.2758 186.818 94.3852 186.099C93.4945 185.375 92.6508 184.615 91.8487 183.823C91.0466 183.026 90.3018 182.208 89.6195 181.375C88.932 180.536 88.3227 179.693 87.7862 178.844C87.2445 177.995 86.7862 177.161 86.4164 176.333C86.0414 175.51 85.7602 174.708 85.5622 173.937C85.3695 173.167 85.2706 172.432 85.2654 171.745C85.2602 171.057 85.3435 170.427 85.5258 169.844C85.7081 169.266 85.9789 168.755 86.3435 168.307C86.7029 167.865 87.1508 167.49 87.6768 167.198C88.2029 166.901 88.807 166.682 89.4841 166.547C90.156 166.411 90.8904 166.359 91.6872 166.385C92.4841 166.417 93.3227 166.531 94.2081 166.724C95.0935 166.922 96.0049 167.193 96.9477 167.547C97.8904 167.901 98.8383 168.323 99.8018 168.818C100.76 169.318 101.713 169.875 102.656 170.495C103.599 171.115 104.515 171.786 105.406 172.51C106.297 173.229 107.14 173.99 107.948 174.786C108.75 175.578 109.489 176.396 110.177 177.234C110.859 178.073 111.468 178.917 112.01 179.76C112.547 180.609 113.005 181.448 113.38 182.276C113.75 183.099 114.036 183.896 114.229 184.672C114.422 185.443 114.521 186.172 114.531 186.859C114.536 187.547 114.448 188.182 114.265 188.76C114.083 189.339 113.812 189.849 113.453 190.297Z" fill="#FFB93E"/>
</g>
</g>
</g>
<mask id="mask74_47_13833" style="mask-type:luminance" maskUnits="userSpaceOnUse" x="12" y="0" width="213" height="93">
<path d="M12.3333 0.333496H224.333V92.3335H12.3333V0.333496Z" fill="white"/>
</mask>
<g mask="url(#mask74_47_13833)">
<mask id="mask75_47_13833" style="mask-type:luminance" maskUnits="userSpaceOnUse" x="10" y="-24" width="226" height="169">
<path d="M45.2291 -23.8384L235.328 38.3127L200.521 144.766L10.427 82.6147L45.2291 -23.8384Z" fill="white"/>
</mask>
<g mask="url(#mask75_47_13833)">
<mask id="mask76_47_13833" style="mask-type:luminance" maskUnits="userSpaceOnUse" x="10" y="-24" width="226" height="169">
<path d="M45.2291 -23.8384L235.328 38.3127L200.521 144.766L10.427 82.6147L45.2291 -23.8384Z" fill="white"/>
</mask>
<g mask="url(#mask76_47_13833)">
<path d="M124.859 2.66669C128.969 3.95315 132.698 5.98961 136.187 8.48961C141.76 12.4792 147.177 16.6667 152.182 21.3542C154.073 23.1302 156.078 24.7604 158.239 26.1927C166.505 31.6667 174 38.1459 181.854 44.1459C187.354 48.3542 192.771 52.6979 198.943 55.9115C206.719 59.9636 213.974 64.8802 221.463 69.4063C222.036 69.7552 222.526 70.099 223.265 70.2032C224.422 70.3698 224.583 71.1875 223.969 72.2344C221.51 76.3854 217.734 78.5729 213.125 79.4688C210.292 80.0157 207.432 80.5209 204.568 80.8854C196.792 81.8802 189.13 83.6771 181.297 84.2344C177.276 84.5209 173.25 84.8125 169.219 84.875C162.729 84.974 156.323 85.6719 149.943 86.8177C141.911 88.2605 133.823 89.0573 125.656 89.1823C122.427 89.2292 119.12 88.8125 115.979 90.0469C110.958 89.3282 106.005 90.5521 101.005 90.5938C87.5467 90.7136 74.0832 90.875 60.6196 91.099C52.0311 91.2396 43.4217 90.6823 34.953 88.9271C29.7342 87.849 24.5207 86.7552 19.3123 85.6146C17.9061 85.3073 16.5363 84.8229 15.3748 83.8854C13.8332 82.6354 13.0415 81.1094 13.4738 79.0834C13.5207 78.8646 13.703 78.5834 13.63 78.4323C12.5103 76.2448 14.2342 75.8698 15.6144 75.2657C17.0884 74.6146 18.38 73.6667 19.6821 72.7344C25.5103 68.5782 31.1873 64.1979 37.1978 60.3229C44.8123 55.4115 52.4426 50.5157 60.2811 45.9532C72.7498 38.6979 84.5207 30.4323 95.4217 20.9584C97.0311 19.5625 98.6405 18.1563 100.344 16.875C104.62 13.6667 108.573 10.1042 112.333 6.31774C113.786 4.84899 115.432 3.6094 117.125 2.44794C118.864 1.25003 120.708 0.859402 122.708 1.94794C123.364 2.2969 124.14 2.43232 124.859 2.66669Z" fill="#433820"/>
</g>
</g>
</g>
<mask id="mask77_47_13833" style="mask-type:luminance" maskUnits="userSpaceOnUse" x="17" y="5" width="193" height="76">
<path d="M17.6667 5.6665H209.667V80.3332H17.6667V5.6665Z" fill="white"/>
</mask>
<g mask="url(#mask77_47_13833)">
<mask id="mask78_47_13833" style="mask-type:luminance" maskUnits="userSpaceOnUse" x="10" y="-24" width="226" height="169">
<path d="M45.2293 -23.8389L235.328 38.3122L200.521 144.765L10.4272 82.6143L45.2293 -23.8389Z" fill="white"/>
</mask>
<g mask="url(#mask78_47_13833)">
<mask id="mask79_47_13833" style="mask-type:luminance" maskUnits="userSpaceOnUse" x="10" y="-24" width="226" height="169">
<path d="M45.2293 -23.8389L235.328 38.3122L200.521 144.765L10.4272 82.6143L45.2293 -23.8389Z" fill="white"/>
</mask>
<g mask="url(#mask79_47_13833)">
<path d="M92.6513 79.7078C92.4325 79.6453 92.2034 79.4995 91.995 79.5308C86.0055 80.411 79.9846 79.7964 73.9846 79.8381C67.8961 79.8797 61.8023 79.7703 55.719 79.786C48.0002 79.812 40.37 78.9578 32.7138 78.3016C28.8492 77.9683 24.9898 77.5464 21.1252 77.1662C20.37 77.0881 19.5992 77.0672 18.9221 76.6297C19.0211 75.9006 19.6982 75.7547 20.1669 75.4214C24.5836 72.3016 29.0315 69.2183 33.4377 66.0776C45.5419 57.4422 58.1513 49.5881 71.0419 42.187C77.9482 38.2183 84.245 33.4422 90.4221 28.4735C95.5836 24.3172 100.662 20.062 105.834 15.911C108.276 13.9474 110.479 11.7391 112.724 9.57243C113.568 8.76513 114.25 8.39534 115.183 9.37972C115.433 9.64013 115.849 9.73909 116.167 9.94222C119.834 12.2651 123.125 11.5828 126.443 8.33284C126.714 8.06722 127.005 7.79638 127.193 7.47347C127.776 6.48909 128.453 6.61409 129.281 7.15055C130.62 8.02034 132.052 8.75472 133.349 9.6818C139.177 13.8433 144.875 18.1714 150.136 23.0516C151.693 24.4995 153.276 25.9683 155.042 27.1401C163.542 32.8172 171.37 39.3693 179.443 45.6037C184.927 49.8381 190.339 54.1818 196.422 57.5464C200.552 59.8328 204.729 62.0308 208.693 64.6037C208.995 64.8016 209.412 64.8797 209.542 65.4891C209.026 66.1037 208.167 66.2443 207.422 66.4526C199.787 68.5672 192.167 70.7287 184.203 71.3172C179.646 71.6558 175.13 72.3901 170.604 73.0256C162.906 74.0985 155.188 74.9266 147.406 75.1141C142.297 75.2391 137.219 75.7495 132.183 76.5828C121.698 78.312 111.099 78.3068 100.531 78.7547C99.8492 78.7808 99.1565 78.7078 98.4846 78.5933C97.62 78.4578 96.9846 78.6662 96.62 79.4995C95.3284 80.161 94.0315 80.6974 92.6513 79.7078Z" fill="#EDE0D2"/>
</g>
</g>
</g>
<mask id="mask80_47_13833" style="mask-type:luminance" maskUnits="userSpaceOnUse" x="80" y="67" width="142" height="19">
<path d="M80.3333 67H221.667V85.6667H80.3333V67Z" fill="white"/>
</mask>
<g mask="url(#mask80_47_13833)">
<mask id="mask81_47_13833" style="mask-type:luminance" maskUnits="userSpaceOnUse" x="10" y="-24" width="226" height="169">
<path d="M45.2291 -23.8384L235.328 38.3127L200.521 144.766L10.427 82.6147L45.2291 -23.8384Z" fill="white"/>
</mask>
<g mask="url(#mask81_47_13833)">
<mask id="mask82_47_13833" style="mask-type:luminance" maskUnits="userSpaceOnUse" x="10" y="-24" width="226" height="169">
<path d="M45.2291 -23.8384L235.328 38.3127L200.521 144.766L10.427 82.6147L45.2291 -23.8384Z" fill="white"/>
</mask>
<g mask="url(#mask82_47_13833)">
<path d="M140.01 82.1667C139.969 82.1042 139.891 82.0469 139.885 81.9792C139.682 77.3073 139.359 78.2604 143.37 77.9688C147.995 77.6302 152.646 77.5886 157.26 77.1511C158.609 77.0208 159.25 78.3386 160.385 78.0886C161.375 77.8698 161.813 76.7292 163.057 76.5938C169.635 75.8594 176.198 74.9688 182.76 74.1042C183.88 73.9583 184.75 73.8906 185.323 75.2396C185.74 76.2188 186.802 76.099 187.125 75.0313C187.443 73.9792 187.932 73.5625 188.99 73.4375C194.375 72.8229 199.563 71.224 204.807 69.9583C206.281 69.599 207.427 69.4636 208.365 70.8646C208.75 71.4375 209.359 71.7969 210.073 71.9167C210.563 72 210.99 71.9011 211.26 71.4583C211.479 71.0938 211.37 70.7292 211.177 70.3854C210.813 69.7188 210.031 69.3802 209.781 68.625C209.839 68.5573 209.885 68.4896 209.943 68.4479C211.932 66.9271 213.719 67.4115 215.583 68.8177C217.141 70.0052 218.88 70.9479 220.505 71.9792C220.281 72.8281 219.854 73.349 219.365 73.8333C218.703 74.4844 218.078 75.3073 217.219 74.0261C217.005 73.7083 216.589 73.6302 216.203 73.5781C214.828 73.3958 214.359 74.0469 214.875 75.4271C214.953 75.625 215 75.8333 215.068 76.0573C214.115 76.7031 213.057 76.8646 212.016 77.0313C204.656 78.2188 197.286 79.3698 189.927 80.5625C188.875 80.7344 188.031 80.7552 187.458 79.6146C187.182 79.0677 186.521 78.8229 185.865 79.0781C185.255 79.3177 185.141 79.8177 185.318 80.3958C185.573 81.2344 184.969 81.2708 184.438 81.3229C182.318 81.5208 180.203 81.7708 178.078 81.875C173.443 82.0938 168.807 82.224 164.172 82.4219C163.276 82.4583 162.661 82.3802 162.823 81.2396C162.87 80.8802 162.755 80.4792 162.646 80.1198C162.479 79.5625 162.089 79.1927 161.479 79.2292C160.865 79.2604 160.516 79.6667 160.453 80.2656C160.37 81.0729 160.708 82.1146 159.885 82.5677C159.198 82.9531 158.276 82.9219 157.453 83.0469C154.443 83.5052 151.432 83.9531 148.422 84.4063C146.01 82.1927 142.839 82.8229 140.01 82.1667ZM112.724 80.9219C111.813 80.9531 110.906 81.0156 109.995 81.0313C106.51 81.0781 103.021 81.1354 99.5365 81.1354C98.2969 81.1354 97.0677 80.9844 96.6198 79.5052C95.2813 79.2292 93.9844 79.9011 92.6511 79.7083C92.9011 81.4167 92.8021 81.6354 91.5052 82.1198C90.5 82.4948 89.4531 82.5781 88.3906 82.5729C86.4323 82.5677 84.4688 82.5938 82.5104 82.5261C81.6354 82.4948 81.1979 82.7292 81.349 83.6563C81.9167 84.3594 82.6406 84.5365 83.5469 84.5886C92.3438 85.0729 101.115 84.4636 109.891 84.0781C111.813 83.9948 113.854 84.1719 115.698 83.2761C115.177 80.849 115.177 80.8438 112.724 80.9219ZM137.37 79.8906C137.391 78.8802 136.891 78.5261 135.932 78.6875C135.406 78.7813 134.875 78.8177 134.349 78.9011C129.464 79.6823 124.557 80.2865 119.62 80.6042C117.661 80.7292 117.661 80.75 118.224 82.7188C118.839 83.6458 119.729 83.4792 120.656 83.4115C125.375 83.0469 130.099 82.724 134.828 82.4063C135.729 82.3438 136.651 82.4479 137.359 81.7136C137.359 81.1094 137.354 80.5 137.37 79.8906Z" fill="#9D743B"/>
</g>
</g>
</g>
<mask id="mask83_47_13833" style="mask-type:luminance" maskUnits="userSpaceOnUse" x="15" y="4" width="135" height="86">
<path d="M15 4.3335H149.667V89.6668H15V4.3335Z" fill="white"/>
</mask>
<g mask="url(#mask83_47_13833)">
<mask id="mask84_47_13833" style="mask-type:luminance" maskUnits="userSpaceOnUse" x="10" y="-24" width="226" height="169">
<path d="M45.2291 -23.8384L235.328 38.3127L200.521 144.766L10.427 82.6147L45.2291 -23.8384Z" fill="white"/>
</mask>
<g mask="url(#mask84_47_13833)">
<mask id="mask85_47_13833" style="mask-type:luminance" maskUnits="userSpaceOnUse" x="10" y="-24" width="226" height="169">
<path d="M45.2291 -23.8384L235.328 38.3127L200.521 144.766L10.427 82.6147L45.2291 -23.8384Z" fill="white"/>
</mask>
<g mask="url(#mask85_47_13833)">
<path d="M140.01 82.167C141.568 81.8598 143.13 81.9743 144.703 82.042C146.109 82.1045 147.177 82.4691 147.781 83.8233C147.89 84.0681 148.208 84.2139 148.427 84.4066C141.385 85.6723 134.291 86.4014 127.14 86.5368C124.406 86.5889 121.604 87.0785 118.953 86.6566C116.333 86.24 114.041 87.2868 111.573 87.3285C108.995 87.3754 106.411 87.6202 103.833 87.7973C96.6977 88.2973 89.5519 88.0368 82.4113 88.0837C75.1144 88.1306 67.8175 88.4275 60.5206 88.5785C58.854 88.615 57.0831 88.8493 55.5363 88.3806C54.0154 87.9223 52.6821 87.3754 51.1821 88.2035C43.5102 87.7608 35.8956 87.0056 28.5102 84.6983C28.3696 84.6566 28.229 84.5837 28.0883 84.5264L28.104 84.5577C28.6821 84.0681 28.7758 83.4483 28.7654 82.7139C28.755 82.1202 28.979 81.5264 29.1144 80.8545C29.7915 80.5212 30.5311 80.6931 31.2706 80.7504C37.3956 81.2295 43.4894 82.1306 49.6404 82.292C50.5311 82.3129 50.8904 82.5837 50.8904 83.4483C50.8904 83.7452 50.9477 84.0629 51.0571 84.3389C51.2706 84.891 51.7133 85.1775 52.3019 85.1566C53.005 85.1306 53.0988 84.5837 53.1925 84.0368C53.4998 82.2973 53.5102 82.2191 55.2446 82.2816C62.6144 82.5629 69.9894 82.3598 77.3592 82.4431C78.979 82.4587 78.9998 82.5056 78.9269 84.1618C78.9009 84.766 78.7186 85.3858 78.8019 85.9743C78.8904 86.6462 79.1509 87.4014 80.0519 87.3025C80.7915 87.2191 81.2758 86.8129 81.229 85.9223C81.1873 85.1723 81.3019 84.417 81.3488 83.6618C89.7706 84.5837 98.1925 83.9275 106.614 83.6566C109.646 83.5577 112.651 82.9066 115.698 83.2816C117.474 84.0473 117.474 84.0473 118.224 82.7243C124.177 82.8129 130.068 81.9118 136 81.7087C136.453 81.6879 136.906 81.5681 137.359 81.7191C137.39 81.7868 137.437 81.8493 137.453 81.9223C137.604 82.7556 137.281 83.9223 138.568 84.0629C139.932 84.2087 139.666 82.9118 140.01 82.167ZM28.0988 84.5577C26.8071 84.2816 25.979 83.6775 26.4113 82.1827C26.7342 81.0577 26.2758 80.391 25.1769 80.2191C22.4842 79.792 19.7967 79.3545 17.0883 79.0525C15.8436 78.9118 15.3488 79.9014 16.0363 81.016C16.6144 81.9535 17.5311 82.4795 18.5519 82.865C20.5571 83.6254 22.6769 83.8754 24.7706 84.1462C25.8644 84.2868 26.9217 85.0212 28.0883 84.5264L28.0988 84.5577ZM124.838 6.27642C125.094 5.87017 125.271 5.43267 124.734 5.10975C123.156 4.17225 121.281 5.47433 119.672 4.43267C119.208 4.13058 118.64 4.58371 118.245 4.92225C117.521 5.53163 116.151 5.80767 116.281 6.87537C116.411 7.9535 117.797 7.94308 118.568 8.33371C120.901 9.12537 123.64 8.2035 124.838 6.27642ZM75.3748 65.3545C77.2498 66.0681 79.2446 66.1254 81.2081 66.2712C85.6717 66.5993 90.13 67.2868 94.6196 66.5993C96.88 66.2504 99.1561 66.1098 101.443 66.1254C103.885 66.141 106.312 65.891 108.646 65.1045C109.484 64.8233 110.375 64.5733 110.614 63.5264C109.625 62.7348 108.536 62.8077 107.484 62.9066C104.76 63.1723 102.021 63.365 99.3227 63.8233C94.2602 64.6827 89.2029 64.7608 84.0936 64.3962C80.8592 64.1618 77.5936 64.0264 74.1925 64.3598C74.4529 65.2295 74.979 65.2035 75.3748 65.3545ZM95.1248 46.4639C93.755 46.4222 92.3904 46.4275 91.0258 46.3493C84.5727 45.9691 78.13 46.8702 71.6769 46.4691C71.0936 46.4327 70.3644 46.4431 70.2238 47.24C70.0988 47.9639 70.6248 48.3181 71.2133 48.5837C72.4998 49.1618 73.8592 49.2868 75.2342 49.2087C79.4894 48.9795 83.7446 49.1254 87.9946 49.1358C89.8175 49.141 91.6456 49.0264 93.4477 48.7295C94.7342 48.516 95.8748 48.0368 96.9529 47.1202C96.3071 46.6202 95.729 46.4847 95.1248 46.4639ZM77.8331 55.1983C73.3852 54.667 68.9686 53.9795 64.5415 53.3493C63.4008 53.1827 62.3383 52.792 61.2186 52.6098C60.7498 52.5316 60.2967 52.6514 60.0623 53.1306C59.8279 53.6254 60.104 53.99 60.4165 54.3441C60.8956 54.8806 61.5519 55.0993 62.1925 55.3337C64.3383 56.1202 66.5519 56.6098 68.8123 56.9743C73.0988 57.6566 77.4008 57.9795 81.729 57.6879C82.5258 57.6358 83.4008 57.641 84.0883 56.6983C81.9061 56.1618 79.8956 55.4483 77.8331 55.1983ZM66.6769 62.99C64.755 62.2608 62.8019 61.7243 60.7342 61.4483C57.9581 61.0733 55.2186 60.4014 52.4633 59.8441C51.8331 59.7191 51.1717 59.6723 50.8071 60.2452C50.3852 60.9014 50.9633 61.3754 51.3748 61.7973C51.6873 62.1202 52.0467 62.4431 52.4477 62.6254C57.1613 64.7712 62.0727 65.3441 67.1561 64.417C67.354 64.3806 67.5258 64.1879 67.7758 64.0212C67.5311 63.3337 67.104 63.1566 66.6769 62.99ZM49.8956 68.1879C46.9894 67.6931 44.0415 67.4379 41.1092 67.0837C40.7394 67.042 40.3383 66.9535 40.0831 67.3389C39.7811 67.7973 39.979 68.2191 40.2602 68.5889C40.63 69.0733 41.1248 69.4223 41.6352 69.7608C44.9321 71.9379 48.5936 72.1566 52.3592 71.7764C53.0258 71.7087 53.6821 71.4848 54.1092 70.667C52.8331 69.5993 51.5467 68.4691 49.8956 68.1879ZM80.5258 71.9743C74.0571 71.516 67.5779 71.292 60.9738 71.4379C61.3383 72.4691 62.0883 72.4952 62.7186 72.6202C64.6561 73.0004 66.5883 73.3597 68.5363 73.6566C72.0727 74.2035 75.6248 74.4795 79.1873 73.8858C80.0831 73.74 81.005 73.6514 81.6977 72.8702C81.4269 72.1775 80.9686 72.0056 80.5258 71.9743ZM99.8383 58.5368C100.719 58.4275 101.943 58.2452 101.875 57.1514C101.807 56.0368 100.656 55.7712 99.6092 55.7452C99.3852 55.74 99.1561 55.7087 98.9321 55.7191C96.13 55.8337 93.3331 55.9483 90.5363 56.0837C90.0154 56.1098 89.4529 56.1358 89.0258 56.4952C88.5311 56.9118 88.4269 57.3806 89.0675 57.766C89.3227 57.9223 89.6196 58.0004 90.2863 58.2764C93.2029 58.5316 96.5102 58.9535 99.8383 58.5368ZM101.416 71.3077C97.7238 71.5681 94.0258 71.8337 90.3331 72.0941C89.6404 72.1462 88.8696 72.0577 88.4165 72.9848C88.8331 73.1202 89.1092 73.2816 89.3904 73.292C93.7706 73.4743 98.1508 73.4639 102.505 72.9848C103.51 72.8702 104.64 72.6723 105.318 71.3285C103.906 70.6254 102.656 71.2191 101.416 71.3077ZM103.13 45.2868C102.416 45.5368 102.057 46.1254 102.156 46.8858C102.26 47.6879 102.89 48.1254 103.578 48.0889C105.62 47.9952 107.515 47.4952 108.963 45.667C106.922 44.4847 105.031 44.6202 103.13 45.2868ZM107.62 55.5681C107.219 55.7452 106.745 55.9639 106.937 56.5473C107.062 56.9431 107.443 57.1306 107.833 57.1098C110.458 56.9952 113.015 56.6045 115.297 55.0108C112.656 54.3702 110.094 54.4743 107.62 55.5681Z" fill="#604428"/>
</g>
</g>
</g>
<mask id="mask86_47_13833" style="mask-type:luminance" maskUnits="userSpaceOnUse" x="124" y="32" width="41" height="27">
<path d="M124.333 32.3335H164.333V59.0002H124.333V32.3335Z" fill="white"/>
</mask>
<g mask="url(#mask86_47_13833)">
<mask id="mask87_47_13833" style="mask-type:luminance" maskUnits="userSpaceOnUse" x="109" y="24" width="94" height="96">
<path d="M124.974 24.9741L202.432 40.5262L186.484 119.943L109.031 104.391L124.974 24.9741Z" fill="white"/>
</mask>
<g mask="url(#mask87_47_13833)">
<mask id="mask88_47_13833" style="mask-type:luminance" maskUnits="userSpaceOnUse" x="109" y="24" width="94" height="96">
<path d="M124.974 24.9741L202.432 40.5262L186.484 119.943L109.031 104.391L124.974 24.9741Z" fill="white"/>
</mask>
<g mask="url(#mask88_47_13833)">
<mask id="mask89_47_13833" style="mask-type:luminance" maskUnits="userSpaceOnUse" x="109" y="24" width="94" height="96">
<path d="M124.974 24.9741L202.432 40.5262L186.484 119.943L109.031 104.391L124.974 24.9741Z" fill="white"/>
</mask>
<g mask="url(#mask89_47_13833)">
<path d="M126.458 48.4792C125.266 47.0886 125.24 45.0104 126.479 43.5938C127.833 42.0365 130.188 41.8802 131.745 43.2292C138.974 49.5417 144.906 52.0365 148.911 50.4792C154.224 48.3907 156.359 39.2084 156.734 35.8282C156.958 33.7865 158.792 32.3125 160.844 32.5313C162.906 32.7604 164.396 34.6042 164.146 36.6198C164.083 37.3021 162.281 53.2448 151.646 57.4323C144.797 60.099 136.448 57.224 126.839 48.8542C126.703 48.7396 126.573 48.6146 126.458 48.4792Z" fill="#FF3E12"/>
</g>
</g>
</g>
</g>
<mask id="mask90_47_13833" style="mask-type:luminance" maskUnits="userSpaceOnUse" x="117" y="55" width="28" height="44">
<path d="M117.667 55H144.333V99H117.667V55Z" fill="white"/>
</mask>
<g mask="url(#mask90_47_13833)">
<mask id="mask91_47_13833" style="mask-type:luminance" maskUnits="userSpaceOnUse" x="109" y="24" width="94" height="96">
<path d="M124.974 24.9741L202.432 40.5262L186.484 119.943L109.031 104.391L124.974 24.9741Z" fill="white"/>
</mask>
<g mask="url(#mask91_47_13833)">
<mask id="mask92_47_13833" style="mask-type:luminance" maskUnits="userSpaceOnUse" x="109" y="24" width="94" height="96">
<path d="M124.974 24.9741L202.432 40.5262L186.484 119.943L109.031 104.391L124.974 24.9741Z" fill="white"/>
</mask>
<g mask="url(#mask92_47_13833)">
<mask id="mask93_47_13833" style="mask-type:luminance" maskUnits="userSpaceOnUse" x="109" y="24" width="94" height="96">
<path d="M124.974 24.9741L202.432 40.5262L186.484 119.943L109.031 104.391L124.974 24.9741Z" fill="white"/>
</mask>
<g mask="url(#mask93_47_13833)">
<path d="M126.219 96.4012C124.974 94.9532 125.021 92.797 126.344 91.3855C133.656 83.7241 136.734 77.2762 135.229 72.7189C133.01 65.8699 121.307 63.7189 121.172 63.6772C119.135 63.3647 117.786 61.3855 118.141 59.3751C118.495 57.3439 120.411 55.9897 122.443 56.3439C123.115 56.4376 138.635 59.3491 142.313 70.3647C144.766 77.8335 141.208 86.6199 131.76 96.547C130.318 98.021 127.964 98.0835 126.474 96.6512C126.385 96.573 126.297 96.4897 126.219 96.4012Z" fill="#FF3E12"/>
</g>
</g>
</g>
</g>
<mask id="mask94_47_13833" style="mask-type:luminance" maskUnits="userSpaceOnUse" x="164" y="41" width="31" height="45">
<path d="M164.333 41.6665H195V85.6665H164.333V41.6665Z" fill="white"/>
</mask>
<g mask="url(#mask94_47_13833)">
<mask id="mask95_47_13833" style="mask-type:luminance" maskUnits="userSpaceOnUse" x="109" y="24" width="94" height="96">
<path d="M124.974 24.9736L202.432 40.5257L186.484 119.942L109.031 104.39L124.974 24.9736Z" fill="white"/>
</mask>
<g mask="url(#mask95_47_13833)">
<mask id="mask96_47_13833" style="mask-type:luminance" maskUnits="userSpaceOnUse" x="109" y="24" width="94" height="96">
<path d="M124.974 24.9736L202.432 40.5257L186.484 119.942L109.031 104.39L124.974 24.9736Z" fill="white"/>
</mask>
<g mask="url(#mask96_47_13833)">
<mask id="mask97_47_13833" style="mask-type:luminance" maskUnits="userSpaceOnUse" x="109" y="24" width="94" height="96">
<path d="M124.974 24.9736L202.432 40.5257L186.484 119.942L109.031 104.39L124.974 24.9736Z" fill="white"/>
</mask>
<g mask="url(#mask97_47_13833)">
<path d="M168.516 74.3797C166.38 71.8954 165.156 69.1454 164.802 66.1089C163.51 54.6974 175.536 44.6401 176.917 43.5308C178.479 42.2651 180.755 42.4683 182.078 44.0047C182.094 44.0256 182.114 44.0464 182.156 44.0933C183.448 45.6922 183.198 48.0256 181.599 49.3172C178.755 51.6454 171.505 59.0151 172.213 65.2756C172.614 68.6193 175.453 71.5985 180.562 74.1193L191.422 78.2131C193.364 78.937 194.318 81.0985 193.594 83.0204C192.859 84.9474 190.713 85.9266 188.786 85.187L177.62 80.9683C173.677 79.0568 170.635 76.8381 168.516 74.3797Z" fill="#FF3E12"/>
</g>
</g>
</g>
</g>
<mask id="mask98_47_13833" style="mask-type:luminance" maskUnits="userSpaceOnUse" x="137" y="83" width="49" height="28">
<path d="M137.667 83H185.667V111H137.667V83Z" fill="white"/>
</mask>
<g mask="url(#mask98_47_13833)">
<mask id="mask99_47_13833" style="mask-type:luminance" maskUnits="userSpaceOnUse" x="109" y="24" width="94" height="96">
<path d="M124.974 24.9741L202.432 40.5262L186.484 119.943L109.031 104.391L124.974 24.9741Z" fill="white"/>
</mask>
<g mask="url(#mask99_47_13833)">
<mask id="mask100_47_13833" style="mask-type:luminance" maskUnits="userSpaceOnUse" x="109" y="24" width="94" height="96">
<path d="M124.974 24.9741L202.432 40.5262L186.484 119.943L109.031 104.391L124.974 24.9741Z" fill="white"/>
</mask>
<g mask="url(#mask100_47_13833)">
<mask id="mask101_47_13833" style="mask-type:luminance" maskUnits="userSpaceOnUse" x="109" y="24" width="94" height="96">
<path d="M124.974 24.9741L202.432 40.5262L186.484 119.943L109.031 104.391L124.974 24.9741Z" fill="white"/>
</mask>
<g mask="url(#mask101_47_13833)">
<path d="M139.344 108.99C138.255 107.724 138.135 105.828 139.13 104.386L150.021 89.0574C152.083 86.0261 155.167 84.0834 158.849 83.4741C169.255 81.7918 181.901 91.1095 183.307 92.1772C184.99 93.4011 185.266 95.7553 184.01 97.3803C182.776 99.0261 180.432 99.3595 178.781 98.1043C175.667 95.7553 166.198 89.8386 160.042 90.8491C158.354 91.1251 157.109 91.9168 156.151 93.3334L145.219 108.729C144.021 110.391 141.687 110.787 140.016 109.594C139.76 109.417 139.536 109.214 139.344 108.99Z" fill="#FF3E12"/>
</g>
</g>
</g>
</g>
</svg>
