<svg width="17" height="22" viewBox="0 0 17 22" fill="none" xmlns="http://www.w3.org/2000/svg">
<path d="M3.00252 4.97784C3.86655 4.97784 4.56667 4.29118 4.56667 3.44431C4.56667 2.59744 3.8663 1.91079 3.00252 1.91079C2.13874 1.91079 1.43838 2.59744 1.43838 3.44431C1.43838 4.29118 2.13874 4.97784 3.00252 4.97784ZM5.9624 12.8909H6.04386L6.16279 14.3231C6.84867 13.9237 7.64598 13.6903 8.50001 13.6903C9.35405 13.6903 10.1514 13.924 10.8372 14.3233L10.9562 12.8909H11.0376C11.5446 12.8909 11.9821 12.485 12.0156 11.9755L12.4164 5.88644C12.4588 5.24119 12.0188 4.70764 11.4332 4.70764H5.56687C4.98094 4.70764 4.54118 5.24119 4.58366 5.88644L4.98444 11.9755C5.01792 12.485 5.45543 12.8909 5.9624 12.8909ZM8.50001 4.00383C9.62765 4.00383 10.5419 3.10772 10.5419 2.00192C10.5419 0.896355 9.6279 0 8.50001 0C7.37238 0 6.45813 0.89611 6.45813 2.00192C6.45813 3.10748 7.37238 4.00383 8.50001 4.00383ZM13.9975 4.97784C14.8613 4.97784 15.5617 4.29118 15.5617 3.44431C15.5617 2.59744 14.8613 1.91079 13.9975 1.91079C13.1335 1.91079 12.4334 2.59744 12.4334 3.44431C12.4331 4.29118 13.1335 4.97784 13.9975 4.97784ZM4.2226 12.0237L3.82207 5.9347C3.81283 5.79335 3.82008 5.65372 3.83981 5.51678H0.755501C0.306747 5.51678 -0.0303185 5.92539 0.00216373 6.41999L0.309246 11.0848C0.334982 11.475 0.670298 11.7861 1.05859 11.7861H1.12105L1.57605 17.2701C1.60004 17.5594 1.84765 17.7867 2.13 17.7867H3.87529C3.89254 17.7867 3.90778 17.7786 3.92477 17.7769C3.98873 17.1025 4.20711 16.4727 4.54143 15.9171L4.77105 13.1489C4.46472 12.8591 4.25209 12.4711 4.2226 12.0237ZM16.2443 5.51703H13.16C13.1797 5.65372 13.187 5.79335 13.1777 5.93495L12.7772 12.024C12.7477 12.4711 12.5351 12.8591 12.2287 13.1489L12.4586 15.9186C12.7924 16.4739 13.0105 17.1032 13.0745 17.7772C13.0918 17.7789 13.1072 17.7872 13.1247 17.7872H14.87C15.1524 17.7872 15.4 17.5599 15.424 17.2706L15.879 11.7866H15.9414C16.3297 11.7866 16.665 11.4755 16.6908 11.0853L16.9979 6.42048C17.0301 5.92564 16.6933 5.51703 16.2443 5.51703ZM8.49951 14.3941C6.35719 14.3941 4.62064 16.0967 4.62064 18.197C4.62064 20.2974 6.35719 22 8.49951 22C10.6418 22 12.3784 20.2974 12.3784 18.197C12.3786 16.0967 10.6418 14.3941 8.49951 14.3941ZM8.94927 19.9655H8.11448V19.1752H8.94927V19.9655ZM9.24086 18.1157C8.99474 18.2896 8.8918 18.3962 8.8918 18.7994H8.13746C8.13746 18.2612 8.19418 18.0258 8.72064 17.6618C8.94352 17.5101 9.0747 17.3365 9.0747 17.1069C9.0747 16.6694 8.76062 16.5521 8.52025 16.5521C8.00578 16.5521 7.93133 16.9332 7.90259 17.1966V17.202H7.09653C7.09653 16.2267 7.84587 15.8904 8.46903 15.8904C8.81184 15.8904 9.93273 15.9857 9.93273 17.0841C9.93273 17.5383 9.68112 17.8073 9.24086 18.1157Z" fill="#442F19"/>
</svg>
