<svg width="26" height="22" viewBox="0 0 26 22" fill="none" xmlns="http://www.w3.org/2000/svg">
<path d="M12.9998 11L3.30176 7.12598L3.89976 21.4H1.29976L1.92376 6.56698L-0.000244141 5.79998L12.9998 0.599976L25.9998 5.79998L12.9998 11ZM12.9998 4.49998C12.2848 4.49998 11.6998 4.78598 11.6998 5.14998C11.6998 5.51398 12.2848 5.79998 12.9998 5.79998C13.7148 5.79998 14.2998 5.51398 14.2998 5.14998C14.2998 4.78598 13.7148 4.49998 12.9998 4.49998ZM12.9998 12.3L20.2408 9.40098C21.1638 10.623 21.8008 12.092 22.0088 13.691C21.6188 13.639 21.2158 13.6 20.7998 13.6C17.4848 13.6 14.5858 15.381 12.9998 18.033C12.1947 16.682 11.0527 15.5631 9.68538 14.7861C8.31809 14.009 6.77244 13.6003 5.19976 13.6C4.78376 13.6 4.38076 13.639 3.99076 13.691C4.19876 12.092 4.83576 10.623 5.75876 9.40098L12.9998 12.3Z" fill="#442F19"/>
</svg>
