<svg width="27" height="27" viewBox="0 0 27 27" fill="none" xmlns="http://www.w3.org/2000/svg">
<path d="M5.79351 21.2063C5.02476 20.3062 4.42926 19.2986 4.00701 18.1834C3.58476 17.0681 3.37401 15.882 3.37476 14.625C3.37476 11.8125 4.35913 9.42188 6.32788 7.45312C8.29663 5.48438 10.6873 4.5 13.4998 4.5H13.7248L11.9248 2.7L13.4998 1.125L17.9998 5.625L13.4998 10.125L11.8966 8.52187L13.6685 6.75H13.4998C11.3248 6.75 9.46851 7.51875 7.93101 9.05625C6.39351 10.5938 5.62476 12.45 5.62476 14.625C5.62476 15.5813 5.77926 16.4812 6.08826 17.325C6.39726 18.1687 6.83338 18.9281 7.39663 19.6031L5.79351 21.2063ZM12.3748 20.8125C12.3748 20.3813 12.2296 19.9549 11.9394 19.5334C11.6491 19.1119 11.3255 18.6712 10.9685 18.2115C10.6123 17.7517 10.289 17.2736 9.99876 16.7771C9.70851 16.2806 9.56301 15.7507 9.56226 15.1875C9.56226 14.1 9.94663 13.1719 10.7154 12.4031C11.4841 11.6344 12.4123 11.25 13.4998 11.25C14.5873 11.25 15.5154 11.6344 16.2841 12.4031C17.0529 13.1719 17.4373 14.1 17.4373 15.1875C17.4373 15.75 17.2921 16.2799 17.0019 16.7771C16.7116 17.2744 16.388 17.7521 16.031 18.2104C15.6748 18.6701 15.3515 19.1108 15.0613 19.5322C14.771 19.9537 14.6255 20.3805 14.6248 20.8125H12.3748ZM12.3748 23.625V21.9375H14.6248V23.625H12.3748ZM21.206 21.2063L19.6029 19.6031C20.1654 18.9281 20.6015 18.1687 20.9113 17.325C21.221 16.4812 21.3755 15.5813 21.3748 14.625C21.3748 13.3875 21.1171 12.2393 20.6019 11.1803C20.0866 10.1212 19.3786 9.23512 18.4779 8.52187L20.081 6.91875C21.1685 7.85625 22.031 8.98612 22.6685 10.3084C23.306 11.6306 23.6248 13.0695 23.6248 14.625C23.6248 15.8813 23.414 17.0674 22.9925 18.1834C22.571 19.2994 21.9755 20.307 21.206 21.2063Z" fill="#442F19"/>
</svg>
