<svg width="24" height="24" viewBox="0 0 24 24" fill="none" xmlns="http://www.w3.org/2000/svg">
<path d="M21.9998 8.16204V8.23504C21.9998 9.09504 21.9998 9.52604 21.7928 9.87804C21.5858 10.23 21.2088 10.439 20.4568 10.858L19.6638 11.298C20.2098 9.45004 20.3928 7.46404 20.4598 5.76604L20.4698 5.54504L20.4718 5.49304C21.1228 5.71904 21.4888 5.88804 21.7168 6.20404C21.9998 6.59704 21.9998 7.11904 21.9998 8.16204ZM1.99976 8.16204V8.23504C1.99976 9.09504 1.99976 9.52604 2.20676 9.87804C2.41376 10.23 2.79076 10.439 3.54276 10.858L4.33676 11.298C3.78976 9.45004 3.60676 7.46404 3.53976 5.76604L3.52976 5.54504L3.52876 5.49304C2.87676 5.71904 2.51076 5.88804 2.28276 6.20404C1.99976 6.59704 1.99976 7.12004 1.99976 8.16204Z" fill="#442F19"/>
<path fill-rule="evenodd" clip-rule="evenodd" d="M16.3768 2.34699C14.9299 2.10986 13.4659 1.99379 11.9998 1.99999C10.2168 1.99999 8.74676 2.15699 7.62276 2.34699C6.48376 2.53899 5.91476 2.63499 5.43876 3.22099C4.96376 3.80699 4.98876 4.43999 5.03876 5.70599C5.21176 10.054 6.14976 15.486 11.2498 15.966V19.5H9.81976C9.58867 19.5001 9.36476 19.5803 9.1861 19.7269C9.00744 19.8735 8.88506 20.0774 8.83976 20.304L8.64976 21.25H5.99976C5.80085 21.25 5.61008 21.329 5.46943 21.4697C5.32878 21.6103 5.24976 21.8011 5.24976 22C5.24976 22.1989 5.32878 22.3897 5.46943 22.5303C5.61008 22.671 5.80085 22.75 5.99976 22.75H17.9998C18.1987 22.75 18.3894 22.671 18.5301 22.5303C18.6707 22.3897 18.7498 22.1989 18.7498 22C18.7498 21.8011 18.6707 21.6103 18.5301 21.4697C18.3894 21.329 18.1987 21.25 17.9998 21.25H15.3498L15.1598 20.304C15.1145 20.0774 14.9921 19.8735 14.8134 19.7269C14.6348 19.5803 14.4109 19.5001 14.1798 19.5H12.7498V15.966C17.8498 15.486 18.7888 10.055 18.9608 5.70599C19.0108 4.43999 19.0368 3.80599 18.5608 3.22099C18.0848 2.63499 17.5158 2.53899 16.3768 2.34699Z" fill="#442F19"/>
</svg>
