<svg width="198" height="198" viewBox="0 0 198 198" fill="none" xmlns="http://www.w3.org/2000/svg">
<circle cx="99" cy="99" r="99" fill="#D9D9D9"/>
<path d="M99 146C87.422 146 78 136.578 78 125L78.371 103.629L57.126 104C45.422 104 36 94.578 36 83C36 71.422 45.422 62 57 62L78.371 61.622L78 41.126C78 29.422 87.422 20 99 20C110.578 20 120 29.422 120 41L120.385 61.622L141.126 62C152.578 62 162 71.422 162 83C162 94.578 152.578 104 141 104L120.385 103.629L120 125.126C120 136.578 110.578 146 99 146ZM92 90V125.126C92 128.857 95.143 132 99 132C102.857 132 106 128.857 106 125V90H141.126C144.857 90 148 86.857 148 83C148 79.143 144.857 76 141 76H106V41C106 37.017 102.857 34 99 34C95.143 34 92 37.143 92 41V76H57C53.017 76 50 79.143 50 83C50 86.857 53.143 90 57 90H92Z" fill="black"/>
<g filter="url(#filter0_d_31_6)">
<mask id="path-3-outside-1_31_6" maskUnits="userSpaceOnUse" x="47" y="156" width="104" height="11" fill="black">
<rect fill="white" x="47" y="156" width="104" height="11"/>
<path d="M49.4148 166H48.3068L51.5114 157.273H52.6023L55.8068 166H54.6989L52.0909 158.653H52.0227L49.4148 166ZM49.8239 162.591H54.2898V163.528H49.8239V162.591ZM59.7414 166.136C59.196 166.136 58.7144 165.999 58.2968 165.723C57.8792 165.445 57.5525 165.053 57.3167 164.547C57.0809 164.038 56.963 163.438 56.963 162.744C56.963 162.057 57.0809 161.46 57.3167 160.955C57.5525 160.449 57.8806 160.058 58.3011 159.783C58.7215 159.507 59.2073 159.369 59.7585 159.369C60.1846 159.369 60.5212 159.44 60.7684 159.582C61.0184 159.722 61.2087 159.881 61.3394 160.06C61.473 160.236 61.5766 160.381 61.6505 160.494H61.7357V157.273H62.7414V166H61.7698V164.994H61.6505C61.5766 165.114 61.4715 165.264 61.3352 165.446C61.1988 165.625 61.0042 165.786 60.7514 165.928C60.4985 166.067 60.1619 166.136 59.7414 166.136ZM59.8778 165.233C60.2812 165.233 60.6221 165.128 60.9005 164.918C61.1789 164.705 61.3906 164.411 61.5355 164.036C61.6803 163.658 61.7528 163.222 61.7528 162.727C61.7528 162.239 61.6818 161.811 61.5397 161.445C61.3977 161.075 61.1874 160.788 60.909 160.584C60.6306 160.376 60.2869 160.273 59.8778 160.273C59.4516 160.273 59.0965 160.382 58.8124 160.601C58.5312 160.817 58.3195 161.111 58.1775 161.483C58.0383 161.852 57.9687 162.267 57.9687 162.727C57.9687 163.193 58.0397 163.616 58.1818 163.997C58.3266 164.375 58.5397 164.676 58.821 164.901C59.1051 165.122 59.4573 165.233 59.8778 165.233ZM67.4345 166.136C66.8891 166.136 66.4076 165.999 65.9899 165.723C65.5723 165.445 65.2456 165.053 65.0098 164.547C64.774 164.038 64.6561 163.438 64.6561 162.744C64.6561 162.057 64.774 161.46 65.0098 160.955C65.2456 160.449 65.5737 160.058 65.9942 159.783C66.4147 159.507 66.9005 159.369 67.4516 159.369C67.8777 159.369 68.2144 159.44 68.4615 159.582C68.7115 159.722 68.9019 159.881 69.0326 160.06C69.1661 160.236 69.2698 160.381 69.3436 160.494H69.4289V157.273H70.4345V166H69.463V164.994H69.3436C69.2698 165.114 69.1647 165.264 69.0283 165.446C68.8919 165.625 68.6973 165.786 68.4445 165.928C68.1916 166.067 67.855 166.136 67.4345 166.136ZM67.5709 165.233C67.9743 165.233 68.3152 165.128 68.5936 164.918C68.872 164.705 69.0837 164.411 69.2286 164.036C69.3735 163.658 69.4459 163.222 69.4459 162.727C69.4459 162.239 69.3749 161.811 69.2328 161.445C69.0908 161.075 68.8806 160.788 68.6022 160.584C68.3237 160.376 67.98 160.273 67.5709 160.273C67.1448 160.273 66.7897 160.382 66.5056 160.601C66.2243 160.817 66.0127 161.111 65.8706 161.483C65.7314 161.852 65.6618 162.267 65.6618 162.727C65.6618 163.193 65.7328 163.616 65.8749 163.997C66.0198 164.375 66.2328 164.676 66.5141 164.901C66.7982 165.122 67.1505 165.233 67.5709 165.233ZM76.4074 166V157.273H79.3563C80.041 157.273 80.6006 157.396 81.0353 157.643C81.4728 157.888 81.7966 158.219 82.0069 158.636C82.2171 159.054 82.3222 159.52 82.3222 160.034C82.3222 160.548 82.2171 161.016 82.0069 161.436C81.7995 161.857 81.4785 162.192 81.0438 162.442C80.6091 162.689 80.0523 162.812 79.3734 162.812H77.2597V161.875H79.3393C79.808 161.875 80.1844 161.794 80.4685 161.632C80.7526 161.47 80.9586 161.251 81.0864 160.976C81.2171 160.697 81.2824 160.384 81.2824 160.034C81.2824 159.685 81.2171 159.372 81.0864 159.097C80.9586 158.821 80.7512 158.605 80.4643 158.449C80.1773 158.29 79.7966 158.21 79.3222 158.21H77.4643V166H76.4074ZM84.1283 166V159.455H85.0999V160.443H85.168C85.2874 160.119 85.5033 159.857 85.8158 159.655C86.1283 159.453 86.4805 159.352 86.8726 159.352C86.9464 159.352 87.0388 159.354 87.1496 159.357C87.2604 159.359 87.3442 159.364 87.401 159.369V160.392C87.3669 160.384 87.2888 160.371 87.1666 160.354C87.0473 160.334 86.9209 160.324 86.7874 160.324C86.4692 160.324 86.1851 160.391 85.9351 160.524C85.6879 160.655 85.4919 160.837 85.347 161.07C85.205 161.3 85.1339 161.562 85.1339 161.858V166H84.1283ZM91.293 166.136C90.7021 166.136 90.1836 165.996 89.7376 165.714C89.2944 165.433 88.9478 165.04 88.6978 164.534C88.4507 164.028 88.3271 163.437 88.3271 162.761C88.3271 162.08 88.4507 161.484 88.6978 160.976C88.9478 160.467 89.2944 160.072 89.7376 159.791C90.1836 159.51 90.7021 159.369 91.293 159.369C91.8839 159.369 92.4009 159.51 92.8441 159.791C93.2901 160.072 93.6367 160.467 93.8839 160.976C94.1339 161.484 94.2589 162.08 94.2589 162.761C94.2589 163.437 94.1339 164.028 93.8839 164.534C93.6367 165.04 93.2901 165.433 92.8441 165.714C92.4009 165.996 91.8839 166.136 91.293 166.136ZM91.293 165.233C91.7418 165.233 92.1112 165.118 92.4009 164.888C92.6907 164.658 92.9052 164.355 93.0444 163.98C93.1836 163.605 93.2532 163.199 93.2532 162.761C93.2532 162.324 93.1836 161.916 93.0444 161.538C92.9052 161.161 92.6907 160.855 92.4009 160.622C92.1112 160.389 91.7418 160.273 91.293 160.273C90.8441 160.273 90.4748 160.389 90.185 160.622C89.8953 160.855 89.6808 161.161 89.5416 161.538C89.4024 161.916 89.3328 162.324 89.3328 162.761C89.3328 163.199 89.4024 163.605 89.5416 163.98C89.6808 164.355 89.8953 164.658 90.185 164.888C90.4748 165.118 90.8441 165.233 91.293 165.233ZM98.9488 159.455V160.307H95.4204V159.455H98.9488ZM96.4772 166V158.551C96.4772 158.176 96.5653 157.864 96.7414 157.614C96.9176 157.364 97.1463 157.176 97.4275 157.051C97.7088 156.926 98.0056 156.864 98.3181 156.864C98.5653 156.864 98.767 156.884 98.9233 156.923C99.0795 156.963 99.196 157 99.2727 157.034L98.9829 157.903C98.9318 157.886 98.8608 157.865 98.7698 157.839C98.6818 157.814 98.5653 157.801 98.4204 157.801C98.088 157.801 97.848 157.885 97.7002 158.053C97.5554 158.22 97.4829 158.466 97.4829 158.79V166H96.4772ZM100.598 166V159.455H101.604V166H100.598ZM101.11 158.364C100.914 158.364 100.745 158.297 100.603 158.163C100.463 158.03 100.394 157.869 100.394 157.682C100.394 157.494 100.463 157.334 100.603 157.2C100.745 157.067 100.914 157 101.11 157C101.306 157 101.473 157.067 101.612 157.2C101.755 157.334 101.826 157.494 101.826 157.682C101.826 157.869 101.755 158.03 101.612 158.163C101.473 158.297 101.306 158.364 101.11 158.364ZM104.692 157.273V166H103.686V157.273H104.692ZM109.518 166.136C108.887 166.136 108.343 165.997 107.886 165.719C107.431 165.438 107.08 165.045 106.833 164.543C106.589 164.037 106.467 163.449 106.467 162.778C106.467 162.108 106.589 161.517 106.833 161.006C107.08 160.491 107.424 160.091 107.864 159.804C108.308 159.514 108.825 159.369 109.416 159.369C109.757 159.369 110.093 159.426 110.426 159.54C110.758 159.653 111.061 159.838 111.333 160.094C111.606 160.347 111.823 160.682 111.985 161.099C112.147 161.517 112.228 162.031 112.228 162.642V163.068H107.183V162.199H111.205C111.205 161.83 111.132 161.5 110.984 161.21C110.839 160.92 110.632 160.692 110.362 160.524C110.095 160.357 109.779 160.273 109.416 160.273C109.015 160.273 108.668 160.372 108.376 160.571C108.086 160.767 107.863 161.023 107.707 161.338C107.551 161.653 107.472 161.991 107.472 162.352V162.932C107.472 163.426 107.558 163.845 107.728 164.189C107.901 164.53 108.141 164.79 108.448 164.969C108.755 165.145 109.112 165.233 109.518 165.233C109.782 165.233 110.021 165.196 110.234 165.122C110.45 165.045 110.636 164.932 110.792 164.781C110.948 164.628 111.069 164.437 111.154 164.21L112.126 164.483C112.024 164.812 111.852 165.102 111.61 165.352C111.369 165.599 111.07 165.793 110.715 165.932C110.36 166.068 109.961 166.136 109.518 166.136ZM117.749 166V157.273H120.698C121.383 157.273 121.942 157.396 122.377 157.643C122.815 157.888 123.139 158.219 123.349 158.636C123.559 159.054 123.664 159.52 123.664 160.034C123.664 160.548 123.559 161.016 123.349 161.436C123.141 161.857 122.82 162.192 122.386 162.442C121.951 162.689 121.394 162.812 120.715 162.812H118.602V161.875H120.681C121.15 161.875 121.526 161.794 121.81 161.632C122.094 161.47 122.3 161.251 122.428 160.976C122.559 160.697 122.624 160.384 122.624 160.034C122.624 159.685 122.559 159.372 122.428 159.097C122.3 158.821 122.093 158.605 121.806 158.449C121.519 158.29 121.139 158.21 120.664 158.21H118.806V166H117.749ZM126.476 162.062V166H125.47V157.273H126.476V160.477H126.561C126.714 160.139 126.945 159.871 127.251 159.672C127.561 159.47 127.973 159.369 128.487 159.369C128.933 159.369 129.324 159.459 129.659 159.638C129.994 159.814 130.254 160.085 130.439 160.452C130.626 160.815 130.72 161.278 130.72 161.841V166H129.714V161.909C129.714 161.389 129.58 160.987 129.31 160.703C129.043 160.416 128.672 160.273 128.197 160.273C127.868 160.273 127.572 160.342 127.311 160.482C127.053 160.621 126.848 160.824 126.697 161.091C126.55 161.358 126.476 161.682 126.476 162.062ZM135.459 166.136C134.868 166.136 134.35 165.996 133.904 165.714C133.46 165.433 133.114 165.04 132.864 164.534C132.617 164.028 132.493 163.437 132.493 162.761C132.493 162.08 132.617 161.484 132.864 160.976C133.114 160.467 133.46 160.072 133.904 159.791C134.35 159.51 134.868 159.369 135.459 159.369C136.05 159.369 136.567 159.51 137.01 159.791C137.456 160.072 137.803 160.467 138.05 160.976C138.3 161.484 138.425 162.08 138.425 162.761C138.425 163.437 138.3 164.028 138.05 164.534C137.803 165.04 137.456 165.433 137.01 165.714C136.567 165.996 136.05 166.136 135.459 166.136ZM135.459 165.233C135.908 165.233 136.277 165.118 136.567 164.888C136.857 164.658 137.071 164.355 137.21 163.98C137.35 163.605 137.419 163.199 137.419 162.761C137.419 162.324 137.35 161.916 137.21 161.538C137.071 161.161 136.857 160.855 136.567 160.622C136.277 160.389 135.908 160.273 135.459 160.273C135.01 160.273 134.641 160.389 134.351 160.622C134.061 160.855 133.847 161.161 133.708 161.538C133.568 161.916 133.499 162.324 133.499 162.761C133.499 163.199 133.568 163.605 133.708 163.98C133.847 164.355 134.061 164.658 134.351 164.888C134.641 165.118 135.01 165.233 135.459 165.233ZM143.047 159.455V160.307H139.655V159.455H143.047ZM140.643 157.886H141.649V164.125C141.649 164.409 141.69 164.622 141.773 164.764C141.858 164.903 141.966 164.997 142.096 165.045C142.23 165.091 142.371 165.114 142.518 165.114C142.629 165.114 142.72 165.108 142.791 165.097C142.862 165.082 142.919 165.071 142.962 165.062L143.166 165.966C143.098 165.991 143.003 166.017 142.881 166.043C142.758 166.071 142.604 166.085 142.416 166.085C142.132 166.085 141.854 166.024 141.581 165.902C141.311 165.78 141.087 165.594 140.908 165.344C140.731 165.094 140.643 164.778 140.643 164.398V157.886ZM147.388 166.136C146.797 166.136 146.279 165.996 145.833 165.714C145.39 165.433 145.043 165.04 144.793 164.534C144.546 164.028 144.422 163.437 144.422 162.761C144.422 162.08 144.546 161.484 144.793 160.976C145.043 160.467 145.39 160.072 145.833 159.791C146.279 159.51 146.797 159.369 147.388 159.369C147.979 159.369 148.496 159.51 148.939 159.791C149.385 160.072 149.732 160.467 149.979 160.976C150.229 161.484 150.354 162.08 150.354 162.761C150.354 163.437 150.229 164.028 149.979 164.534C149.732 165.04 149.385 165.433 148.939 165.714C148.496 165.996 147.979 166.136 147.388 166.136ZM147.388 165.233C147.837 165.233 148.206 165.118 148.496 164.888C148.786 164.658 149.001 164.355 149.14 163.98C149.279 163.605 149.349 163.199 149.349 162.761C149.349 162.324 149.279 161.916 149.14 161.538C149.001 161.161 148.786 160.855 148.496 160.622C148.206 160.389 147.837 160.273 147.388 160.273C146.939 160.273 146.57 160.389 146.28 160.622C145.991 160.855 145.776 161.161 145.637 161.538C145.498 161.916 145.428 162.324 145.428 162.761C145.428 163.199 145.498 163.605 145.637 163.98C145.776 164.355 145.991 164.658 146.28 164.888C146.57 165.118 146.939 165.233 147.388 165.233Z"/>
</mask>
<path d="M49.4148 166H48.3068L51.5114 157.273H52.6023L55.8068 166H54.6989L52.0909 158.653H52.0227L49.4148 166ZM49.8239 162.591H54.2898V163.528H49.8239V162.591ZM59.7414 166.136C59.196 166.136 58.7144 165.999 58.2968 165.723C57.8792 165.445 57.5525 165.053 57.3167 164.547C57.0809 164.038 56.963 163.438 56.963 162.744C56.963 162.057 57.0809 161.46 57.3167 160.955C57.5525 160.449 57.8806 160.058 58.3011 159.783C58.7215 159.507 59.2073 159.369 59.7585 159.369C60.1846 159.369 60.5212 159.44 60.7684 159.582C61.0184 159.722 61.2087 159.881 61.3394 160.06C61.473 160.236 61.5766 160.381 61.6505 160.494H61.7357V157.273H62.7414V166H61.7698V164.994H61.6505C61.5766 165.114 61.4715 165.264 61.3352 165.446C61.1988 165.625 61.0042 165.786 60.7514 165.928C60.4985 166.067 60.1619 166.136 59.7414 166.136ZM59.8778 165.233C60.2812 165.233 60.6221 165.128 60.9005 164.918C61.1789 164.705 61.3906 164.411 61.5355 164.036C61.6803 163.658 61.7528 163.222 61.7528 162.727C61.7528 162.239 61.6818 161.811 61.5397 161.445C61.3977 161.075 61.1874 160.788 60.909 160.584C60.6306 160.376 60.2869 160.273 59.8778 160.273C59.4516 160.273 59.0965 160.382 58.8124 160.601C58.5312 160.817 58.3195 161.111 58.1775 161.483C58.0383 161.852 57.9687 162.267 57.9687 162.727C57.9687 163.193 58.0397 163.616 58.1818 163.997C58.3266 164.375 58.5397 164.676 58.821 164.901C59.1051 165.122 59.4573 165.233 59.8778 165.233ZM67.4345 166.136C66.8891 166.136 66.4076 165.999 65.9899 165.723C65.5723 165.445 65.2456 165.053 65.0098 164.547C64.774 164.038 64.6561 163.438 64.6561 162.744C64.6561 162.057 64.774 161.46 65.0098 160.955C65.2456 160.449 65.5737 160.058 65.9942 159.783C66.4147 159.507 66.9005 159.369 67.4516 159.369C67.8777 159.369 68.2144 159.44 68.4615 159.582C68.7115 159.722 68.9019 159.881 69.0326 160.06C69.1661 160.236 69.2698 160.381 69.3436 160.494H69.4289V157.273H70.4345V166H69.463V164.994H69.3436C69.2698 165.114 69.1647 165.264 69.0283 165.446C68.8919 165.625 68.6973 165.786 68.4445 165.928C68.1916 166.067 67.855 166.136 67.4345 166.136ZM67.5709 165.233C67.9743 165.233 68.3152 165.128 68.5936 164.918C68.872 164.705 69.0837 164.411 69.2286 164.036C69.3735 163.658 69.4459 163.222 69.4459 162.727C69.4459 162.239 69.3749 161.811 69.2328 161.445C69.0908 161.075 68.8806 160.788 68.6022 160.584C68.3237 160.376 67.98 160.273 67.5709 160.273C67.1448 160.273 66.7897 160.382 66.5056 160.601C66.2243 160.817 66.0127 161.111 65.8706 161.483C65.7314 161.852 65.6618 162.267 65.6618 162.727C65.6618 163.193 65.7328 163.616 65.8749 163.997C66.0198 164.375 66.2328 164.676 66.5141 164.901C66.7982 165.122 67.1505 165.233 67.5709 165.233ZM76.4074 166V157.273H79.3563C80.041 157.273 80.6006 157.396 81.0353 157.643C81.4728 157.888 81.7966 158.219 82.0069 158.636C82.2171 159.054 82.3222 159.52 82.3222 160.034C82.3222 160.548 82.2171 161.016 82.0069 161.436C81.7995 161.857 81.4785 162.192 81.0438 162.442C80.6091 162.689 80.0523 162.812 79.3734 162.812H77.2597V161.875H79.3393C79.808 161.875 80.1844 161.794 80.4685 161.632C80.7526 161.47 80.9586 161.251 81.0864 160.976C81.2171 160.697 81.2824 160.384 81.2824 160.034C81.2824 159.685 81.2171 159.372 81.0864 159.097C80.9586 158.821 80.7512 158.605 80.4643 158.449C80.1773 158.29 79.7966 158.21 79.3222 158.21H77.4643V166H76.4074ZM84.1283 166V159.455H85.0999V160.443H85.168C85.2874 160.119 85.5033 159.857 85.8158 159.655C86.1283 159.453 86.4805 159.352 86.8726 159.352C86.9464 159.352 87.0388 159.354 87.1496 159.357C87.2604 159.359 87.3442 159.364 87.401 159.369V160.392C87.3669 160.384 87.2888 160.371 87.1666 160.354C87.0473 160.334 86.9209 160.324 86.7874 160.324C86.4692 160.324 86.1851 160.391 85.9351 160.524C85.6879 160.655 85.4919 160.837 85.347 161.07C85.205 161.3 85.1339 161.562 85.1339 161.858V166H84.1283ZM91.293 166.136C90.7021 166.136 90.1836 165.996 89.7376 165.714C89.2944 165.433 88.9478 165.04 88.6978 164.534C88.4507 164.028 88.3271 163.437 88.3271 162.761C88.3271 162.08 88.4507 161.484 88.6978 160.976C88.9478 160.467 89.2944 160.072 89.7376 159.791C90.1836 159.51 90.7021 159.369 91.293 159.369C91.8839 159.369 92.4009 159.51 92.8441 159.791C93.2901 160.072 93.6367 160.467 93.8839 160.976C94.1339 161.484 94.2589 162.08 94.2589 162.761C94.2589 163.437 94.1339 164.028 93.8839 164.534C93.6367 165.04 93.2901 165.433 92.8441 165.714C92.4009 165.996 91.8839 166.136 91.293 166.136ZM91.293 165.233C91.7418 165.233 92.1112 165.118 92.4009 164.888C92.6907 164.658 92.9052 164.355 93.0444 163.98C93.1836 163.605 93.2532 163.199 93.2532 162.761C93.2532 162.324 93.1836 161.916 93.0444 161.538C92.9052 161.161 92.6907 160.855 92.4009 160.622C92.1112 160.389 91.7418 160.273 91.293 160.273C90.8441 160.273 90.4748 160.389 90.185 160.622C89.8953 160.855 89.6808 161.161 89.5416 161.538C89.4024 161.916 89.3328 162.324 89.3328 162.761C89.3328 163.199 89.4024 163.605 89.5416 163.98C89.6808 164.355 89.8953 164.658 90.185 164.888C90.4748 165.118 90.8441 165.233 91.293 165.233ZM98.9488 159.455V160.307H95.4204V159.455H98.9488ZM96.4772 166V158.551C96.4772 158.176 96.5653 157.864 96.7414 157.614C96.9176 157.364 97.1463 157.176 97.4275 157.051C97.7088 156.926 98.0056 156.864 98.3181 156.864C98.5653 156.864 98.767 156.884 98.9233 156.923C99.0795 156.963 99.196 157 99.2727 157.034L98.9829 157.903C98.9318 157.886 98.8608 157.865 98.7698 157.839C98.6818 157.814 98.5653 157.801 98.4204 157.801C98.088 157.801 97.848 157.885 97.7002 158.053C97.5554 158.22 97.4829 158.466 97.4829 158.79V166H96.4772ZM100.598 166V159.455H101.604V166H100.598ZM101.11 158.364C100.914 158.364 100.745 158.297 100.603 158.163C100.463 158.03 100.394 157.869 100.394 157.682C100.394 157.494 100.463 157.334 100.603 157.2C100.745 157.067 100.914 157 101.11 157C101.306 157 101.473 157.067 101.612 157.2C101.755 157.334 101.826 157.494 101.826 157.682C101.826 157.869 101.755 158.03 101.612 158.163C101.473 158.297 101.306 158.364 101.11 158.364ZM104.692 157.273V166H103.686V157.273H104.692ZM109.518 166.136C108.887 166.136 108.343 165.997 107.886 165.719C107.431 165.438 107.08 165.045 106.833 164.543C106.589 164.037 106.467 163.449 106.467 162.778C106.467 162.108 106.589 161.517 106.833 161.006C107.08 160.491 107.424 160.091 107.864 159.804C108.308 159.514 108.825 159.369 109.416 159.369C109.757 159.369 110.093 159.426 110.426 159.54C110.758 159.653 111.061 159.838 111.333 160.094C111.606 160.347 111.823 160.682 111.985 161.099C112.147 161.517 112.228 162.031 112.228 162.642V163.068H107.183V162.199H111.205C111.205 161.83 111.132 161.5 110.984 161.21C110.839 160.92 110.632 160.692 110.362 160.524C110.095 160.357 109.779 160.273 109.416 160.273C109.015 160.273 108.668 160.372 108.376 160.571C108.086 160.767 107.863 161.023 107.707 161.338C107.551 161.653 107.472 161.991 107.472 162.352V162.932C107.472 163.426 107.558 163.845 107.728 164.189C107.901 164.53 108.141 164.79 108.448 164.969C108.755 165.145 109.112 165.233 109.518 165.233C109.782 165.233 110.021 165.196 110.234 165.122C110.45 165.045 110.636 164.932 110.792 164.781C110.948 164.628 111.069 164.437 111.154 164.21L112.126 164.483C112.024 164.812 111.852 165.102 111.61 165.352C111.369 165.599 111.07 165.793 110.715 165.932C110.36 166.068 109.961 166.136 109.518 166.136ZM117.749 166V157.273H120.698C121.383 157.273 121.942 157.396 122.377 157.643C122.815 157.888 123.139 158.219 123.349 158.636C123.559 159.054 123.664 159.52 123.664 160.034C123.664 160.548 123.559 161.016 123.349 161.436C123.141 161.857 122.82 162.192 122.386 162.442C121.951 162.689 121.394 162.812 120.715 162.812H118.602V161.875H120.681C121.15 161.875 121.526 161.794 121.81 161.632C122.094 161.47 122.3 161.251 122.428 160.976C122.559 160.697 122.624 160.384 122.624 160.034C122.624 159.685 122.559 159.372 122.428 159.097C122.3 158.821 122.093 158.605 121.806 158.449C121.519 158.29 121.139 158.21 120.664 158.21H118.806V166H117.749ZM126.476 162.062V166H125.47V157.273H126.476V160.477H126.561C126.714 160.139 126.945 159.871 127.251 159.672C127.561 159.47 127.973 159.369 128.487 159.369C128.933 159.369 129.324 159.459 129.659 159.638C129.994 159.814 130.254 160.085 130.439 160.452C130.626 160.815 130.72 161.278 130.72 161.841V166H129.714V161.909C129.714 161.389 129.58 160.987 129.31 160.703C129.043 160.416 128.672 160.273 128.197 160.273C127.868 160.273 127.572 160.342 127.311 160.482C127.053 160.621 126.848 160.824 126.697 161.091C126.55 161.358 126.476 161.682 126.476 162.062ZM135.459 166.136C134.868 166.136 134.35 165.996 133.904 165.714C133.46 165.433 133.114 165.04 132.864 164.534C132.617 164.028 132.493 163.437 132.493 162.761C132.493 162.08 132.617 161.484 132.864 160.976C133.114 160.467 133.46 160.072 133.904 159.791C134.35 159.51 134.868 159.369 135.459 159.369C136.05 159.369 136.567 159.51 137.01 159.791C137.456 160.072 137.803 160.467 138.05 160.976C138.3 161.484 138.425 162.08 138.425 162.761C138.425 163.437 138.3 164.028 138.05 164.534C137.803 165.04 137.456 165.433 137.01 165.714C136.567 165.996 136.05 166.136 135.459 166.136ZM135.459 165.233C135.908 165.233 136.277 165.118 136.567 164.888C136.857 164.658 137.071 164.355 137.21 163.98C137.35 163.605 137.419 163.199 137.419 162.761C137.419 162.324 137.35 161.916 137.21 161.538C137.071 161.161 136.857 160.855 136.567 160.622C136.277 160.389 135.908 160.273 135.459 160.273C135.01 160.273 134.641 160.389 134.351 160.622C134.061 160.855 133.847 161.161 133.708 161.538C133.568 161.916 133.499 162.324 133.499 162.761C133.499 163.199 133.568 163.605 133.708 163.98C133.847 164.355 134.061 164.658 134.351 164.888C134.641 165.118 135.01 165.233 135.459 165.233ZM143.047 159.455V160.307H139.655V159.455H143.047ZM140.643 157.886H141.649V164.125C141.649 164.409 141.69 164.622 141.773 164.764C141.858 164.903 141.966 164.997 142.096 165.045C142.23 165.091 142.371 165.114 142.518 165.114C142.629 165.114 142.72 165.108 142.791 165.097C142.862 165.082 142.919 165.071 142.962 165.062L143.166 165.966C143.098 165.991 143.003 166.017 142.881 166.043C142.758 166.071 142.604 166.085 142.416 166.085C142.132 166.085 141.854 166.024 141.581 165.902C141.311 165.78 141.087 165.594 140.908 165.344C140.731 165.094 140.643 164.778 140.643 164.398V157.886ZM147.388 166.136C146.797 166.136 146.279 165.996 145.833 165.714C145.39 165.433 145.043 165.04 144.793 164.534C144.546 164.028 144.422 163.437 144.422 162.761C144.422 162.08 144.546 161.484 144.793 160.976C145.043 160.467 145.39 160.072 145.833 159.791C146.279 159.51 146.797 159.369 147.388 159.369C147.979 159.369 148.496 159.51 148.939 159.791C149.385 160.072 149.732 160.467 149.979 160.976C150.229 161.484 150.354 162.08 150.354 162.761C150.354 163.437 150.229 164.028 149.979 164.534C149.732 165.04 149.385 165.433 148.939 165.714C148.496 165.996 147.979 166.136 147.388 166.136ZM147.388 165.233C147.837 165.233 148.206 165.118 148.496 164.888C148.786 164.658 149.001 164.355 149.14 163.98C149.279 163.605 149.349 163.199 149.349 162.761C149.349 162.324 149.279 161.916 149.14 161.538C149.001 161.161 148.786 160.855 148.496 160.622C148.206 160.389 147.837 160.273 147.388 160.273C146.939 160.273 146.57 160.389 146.28 160.622C145.991 160.855 145.776 161.161 145.637 161.538C145.498 161.916 145.428 162.324 145.428 162.761C145.428 163.199 145.498 163.605 145.637 163.98C145.776 164.355 145.991 164.658 146.28 164.888C146.57 165.118 146.939 165.233 147.388 165.233Z" fill="#D9D9D9"/>
<path d="M49.4148 166V166.5H49.7678L49.886 166.167L49.4148 166ZM48.3068 166L47.8375 165.828L47.5906 166.5H48.3068V166ZM51.5114 157.273V156.773H51.1623L51.042 157.1L51.5114 157.273ZM52.6023 157.273L53.0716 157.1L52.9513 156.773H52.6023V157.273ZM55.8068 166V166.5H56.5231L56.2762 165.828L55.8068 166ZM54.6989 166L54.2277 166.167L54.3458 166.5H54.6989V166ZM52.0909 158.653L52.5621 158.486L52.444 158.153H52.0909V158.653ZM52.0227 158.653V158.153H51.6697L51.5515 158.486L52.0227 158.653ZM49.8239 162.591V162.091H49.3239V162.591H49.8239ZM54.2898 162.591H54.7898V162.091H54.2898V162.591ZM54.2898 163.528V164.028H54.7898V163.528H54.2898ZM49.8239 163.528H49.3239V164.028H49.8239V163.528ZM49.4148 165.5H48.3068V166.5H49.4148V165.5ZM48.7762 166.172L51.9807 157.445L51.042 157.1L47.8375 165.828L48.7762 166.172ZM51.5114 157.773H52.6023V156.773H51.5114V157.773ZM52.1329 157.445L55.3375 166.172L56.2762 165.828L53.0716 157.1L52.1329 157.445ZM55.8068 165.5H54.6989V166.5H55.8068V165.5ZM55.1701 165.833L52.5621 158.486L51.6197 158.821L54.2277 166.167L55.1701 165.833ZM52.0909 158.153H52.0227V159.153H52.0909V158.153ZM51.5515 158.486L48.9436 165.833L49.886 166.167L52.4939 158.821L51.5515 158.486ZM49.8239 163.091H54.2898V162.091H49.8239V163.091ZM53.7898 162.591V163.528H54.7898V162.591H53.7898ZM54.2898 163.028H49.8239V164.028H54.2898V163.028ZM50.3239 163.528V162.591H49.3239V163.528H50.3239ZM58.2968 165.723L58.0195 166.139L58.0214 166.14L58.2968 165.723ZM57.3167 164.547L56.8631 164.757L56.8635 164.758L57.3167 164.547ZM57.3167 160.955L56.8635 160.743L57.3167 160.955ZM58.3011 159.783L58.027 159.364H58.027L58.3011 159.783ZM60.7684 159.582L60.5192 160.016L60.5252 160.019L60.7684 159.582ZM61.3394 160.06L60.9356 160.355L60.941 160.362L61.3394 160.06ZM61.6505 160.494L61.2313 160.767L61.3792 160.994H61.6505V160.494ZM61.7357 160.494V160.994H62.2357V160.494H61.7357ZM61.7357 157.273V156.773H61.2357V157.273H61.7357ZM62.7414 157.273H63.2414V156.773H62.7414V157.273ZM62.7414 166V166.5H63.2414V166H62.7414ZM61.7698 166H61.2698V166.5H61.7698V166ZM61.7698 164.994H62.2698V164.494H61.7698V164.994ZM61.6505 164.994V164.494H61.372L61.2254 164.731L61.6505 164.994ZM61.3352 165.446L61.7329 165.749L61.7352 165.746L61.3352 165.446ZM60.7514 165.928L60.9925 166.366L60.9963 166.363L60.7514 165.928ZM60.9005 164.918L61.2018 165.317L61.2044 165.315L60.9005 164.918ZM61.5355 164.036L62.0019 164.216L62.0023 164.215L61.5355 164.036ZM61.5397 161.445L61.073 161.624L61.0735 161.625L61.5397 161.445ZM60.909 160.584L60.6103 160.985L60.613 160.987L60.909 160.584ZM58.8124 160.601L59.1169 160.997L59.1175 160.997L58.8124 160.601ZM58.1775 161.483L57.7104 161.305L57.7096 161.307L58.1775 161.483ZM58.1818 163.997L57.7133 164.172L57.7149 164.176L58.1818 163.997ZM58.821 164.901L58.5091 165.291L58.5134 165.295L58.821 164.901ZM59.7414 165.636C59.2847 165.636 58.9007 165.522 58.5722 165.306L58.0214 166.14C58.5281 166.475 59.1073 166.636 59.7414 166.636V165.636ZM58.5742 165.307C58.2411 165.085 57.9714 164.768 57.7699 164.336L56.8635 164.758C57.1336 165.337 57.5173 165.804 58.0195 166.139L58.5742 165.307ZM57.7703 164.337C57.5714 163.908 57.463 163.382 57.463 162.744H56.463C56.463 163.493 56.5904 164.169 56.8631 164.757L57.7703 164.337ZM57.463 162.744C57.463 162.113 57.5712 161.592 57.7699 161.166L56.8635 160.743C56.5906 161.329 56.463 162 56.463 162.744H57.463ZM57.7699 161.166C57.9708 160.735 58.2408 160.42 58.5752 160.201L58.027 159.364C57.5204 159.697 57.1342 160.163 56.8635 160.743L57.7699 161.166ZM58.5752 160.201C58.9064 159.984 59.2949 159.869 59.7585 159.869V158.869C59.1197 158.869 58.5367 159.03 58.027 159.364L58.5752 160.201ZM59.7585 159.869C60.1373 159.869 60.3764 159.934 60.5193 160.016L61.0176 159.149C60.6661 158.947 60.2319 158.869 59.7585 158.869V159.869ZM60.5252 160.019C60.7297 160.133 60.8581 160.248 60.9356 160.355L61.7432 159.765C61.5594 159.513 61.3071 159.31 61.0117 159.146L60.5252 160.019ZM60.941 160.362C61.0711 160.533 61.1668 160.668 61.2313 160.767L62.0697 160.222C61.9865 160.094 61.8748 159.938 61.7379 159.758L60.941 160.362ZM61.6505 160.994H61.7357V159.994H61.6505V160.994ZM62.2357 160.494V157.273H61.2357V160.494H62.2357ZM61.7357 157.773H62.7414V156.773H61.7357V157.773ZM62.2414 157.273V166H63.2414V157.273H62.2414ZM62.7414 165.5H61.7698V166.5H62.7414V165.5ZM62.2698 166V164.994H61.2698V166H62.2698ZM61.7698 164.494H61.6505V165.494H61.7698V164.494ZM61.2254 164.731C61.1626 164.833 61.0673 164.97 60.9352 165.146L61.7352 165.746C61.8757 165.559 61.9907 165.395 62.0756 165.257L61.2254 164.731ZM60.9375 165.143C60.8525 165.254 60.7163 165.374 60.5065 165.492L60.9963 166.363C61.2921 166.197 61.5451 165.996 61.7329 165.749L60.9375 165.143ZM60.5102 165.49C60.3574 165.574 60.1135 165.636 59.7414 165.636V166.636C60.2103 166.636 60.6397 166.56 60.9925 166.366L60.5102 165.49ZM59.8778 165.733C60.3722 165.733 60.8235 165.602 61.2018 165.317L60.5992 164.519C60.4207 164.653 60.1902 164.733 59.8778 164.733V165.733ZM61.2044 165.315C61.5661 165.038 61.8288 164.664 62.0019 164.216L61.0691 163.855C60.9524 164.157 60.7917 164.371 60.5966 164.521L61.2044 165.315ZM62.0023 164.215C62.1734 163.768 62.2528 163.27 62.2528 162.727H61.2528C61.2528 163.174 61.1873 163.547 61.0686 163.856L62.0023 164.215ZM62.2528 162.727C62.2528 162.191 62.175 161.7 62.0059 161.264L61.0735 161.625C61.1885 161.922 61.2528 162.286 61.2528 162.727H62.2528ZM62.0064 161.265C61.8351 160.82 61.5713 160.45 61.2051 160.181L60.613 160.987C60.8036 161.127 60.9602 161.331 61.073 161.624L62.0064 161.265ZM61.2077 160.183C60.8283 159.9 60.3747 159.773 59.8778 159.773V160.773C60.1991 160.773 60.4329 160.853 60.6103 160.985L61.2077 160.183ZM59.8778 159.773C59.3628 159.773 58.8946 159.907 58.5074 160.205L59.1175 160.997C59.2985 160.858 59.5405 160.773 59.8778 160.773V159.773ZM58.508 160.204C58.1446 160.483 57.8812 160.857 57.7104 161.305L58.6446 161.661C58.7579 161.365 58.9178 161.15 59.1169 160.997L58.508 160.204ZM57.7096 161.307C57.546 161.741 57.4687 162.217 57.4687 162.727H58.4687C58.4687 162.317 58.5306 161.964 58.6454 161.659L57.7096 161.307ZM57.4687 162.727C57.4687 163.244 57.5476 163.728 57.7133 164.172L58.6502 163.822C58.5319 163.505 58.4687 163.142 58.4687 162.727H57.4687ZM57.7149 164.176C57.8876 164.627 58.1499 165.005 58.5091 165.291L59.1328 164.51C58.9295 164.348 58.7657 164.123 58.6486 163.818L57.7149 164.176ZM58.5134 165.295C58.8996 165.596 59.3653 165.733 59.8778 165.733V164.733C59.5494 164.733 59.3106 164.648 59.1285 164.506L58.5134 165.295ZM65.9899 165.723L65.7126 166.139L65.7146 166.14L65.9899 165.723ZM65.0098 164.547L64.5562 164.757L64.5567 164.758L65.0098 164.547ZM65.0098 160.955L64.5567 160.743L65.0098 160.955ZM65.9942 159.783L65.7201 159.364L65.9942 159.783ZM68.4615 159.582L68.2124 160.016L68.2183 160.019L68.4615 159.582ZM69.0326 160.06L68.6287 160.355L68.6341 160.362L69.0326 160.06ZM69.3436 160.494L68.9244 160.767L69.0723 160.994H69.3436V160.494ZM69.4289 160.494V160.994H69.9289V160.494H69.4289ZM69.4289 157.273V156.773H68.9289V157.273H69.4289ZM70.4345 157.273H70.9345V156.773H70.4345V157.273ZM70.4345 166V166.5H70.9345V166H70.4345ZM69.463 166H68.963V166.5H69.463V166ZM69.463 164.994H69.963V164.494H69.463V164.994ZM69.3436 164.994V164.494H69.0651L68.9185 164.731L69.3436 164.994ZM69.0283 165.446L69.426 165.749L69.4283 165.746L69.0283 165.446ZM68.4445 165.928L68.6856 166.366L68.6894 166.363L68.4445 165.928ZM68.5936 164.918L68.8949 165.317L68.8975 165.315L68.5936 164.918ZM69.2286 164.036L69.695 164.216L69.6954 164.215L69.2286 164.036ZM69.2328 161.445L68.7662 161.624L68.7666 161.625L69.2328 161.445ZM68.6022 160.584L68.3035 160.985L68.3061 160.987L68.6022 160.584ZM66.5056 160.601L66.81 160.997L66.8106 160.997L66.5056 160.601ZM65.8706 161.483L65.4035 161.305L65.4028 161.307L65.8706 161.483ZM65.8749 163.997L65.4064 164.172L65.408 164.176L65.8749 163.997ZM66.5141 164.901L66.2022 165.291L66.2066 165.295L66.5141 164.901ZM67.4345 165.636C66.9778 165.636 66.5939 165.522 66.2653 165.306L65.7146 166.14C66.2213 166.475 66.8004 166.636 67.4345 166.636V165.636ZM66.2673 165.307C65.9342 165.085 65.6645 164.768 65.463 164.336L64.5567 164.758C64.8267 165.337 65.2104 165.804 65.7126 166.139L66.2673 165.307ZM65.4634 164.337C65.2645 163.908 65.1561 163.382 65.1561 162.744H64.1561C64.1561 163.493 64.2835 164.169 64.5562 164.757L65.4634 164.337ZM65.1561 162.744C65.1561 162.113 65.2644 161.592 65.463 161.166L64.5567 160.743C64.2837 161.329 64.1561 162 64.1561 162.744H65.1561ZM65.463 161.166C65.6639 160.735 65.934 160.42 66.2683 160.201L65.7201 159.364C65.2135 159.697 64.8273 160.163 64.5567 160.743L65.463 161.166ZM66.2683 160.201C66.5995 159.984 66.9881 159.869 67.4516 159.869V158.869C66.8128 158.869 66.2298 159.03 65.7201 159.364L66.2683 160.201ZM67.4516 159.869C67.8304 159.869 68.0695 159.934 68.2124 160.016L68.7107 159.149C68.3592 158.947 67.9251 158.869 67.4516 158.869V159.869ZM68.2183 160.019C68.4228 160.133 68.5512 160.248 68.6287 160.355L69.4364 159.765C69.2526 159.513 69.0003 159.31 68.7048 159.146L68.2183 160.019ZM68.6341 160.362C68.7643 160.533 68.8599 160.668 68.9244 160.767L69.7629 160.222C69.6797 160.094 69.5679 159.938 69.431 159.758L68.6341 160.362ZM69.3436 160.994H69.4289V159.994H69.3436V160.994ZM69.9289 160.494V157.273H68.9289V160.494H69.9289ZM69.4289 157.773H70.4345V156.773H69.4289V157.773ZM69.9345 157.273V166H70.9345V157.273H69.9345ZM70.4345 165.5H69.463V166.5H70.4345V165.5ZM69.963 166V164.994H68.963V166H69.963ZM69.463 164.494H69.3436V165.494H69.463V164.494ZM68.9185 164.731C68.8557 164.833 68.7605 164.97 68.6283 165.146L69.4283 165.746C69.5689 165.559 69.6838 165.395 69.7688 165.257L68.9185 164.731ZM68.6306 165.143C68.5456 165.254 68.4094 165.374 68.1996 165.492L68.6894 166.363C68.9852 166.197 69.2382 165.996 69.426 165.749L68.6306 165.143ZM68.2033 165.49C68.0505 165.574 67.8066 165.636 67.4345 165.636V166.636C67.9034 166.636 68.3328 166.56 68.6856 166.366L68.2033 165.49ZM67.5709 165.733C68.0654 165.733 68.5166 165.602 68.8949 165.317L68.2923 164.519C68.1138 164.653 67.8833 164.733 67.5709 164.733V165.733ZM68.8975 165.315C69.2592 165.038 69.5219 164.664 69.695 164.216L68.7622 163.855C68.6455 164.157 68.4848 164.371 68.2898 164.521L68.8975 165.315ZM69.6954 164.215C69.8665 163.768 69.9459 163.27 69.9459 162.727H68.9459C68.9459 163.174 68.8804 163.547 68.7617 163.856L69.6954 164.215ZM69.9459 162.727C69.9459 162.191 69.8681 161.7 69.699 161.264L68.7666 161.625C68.8816 161.922 68.9459 162.286 68.9459 162.727H69.9459ZM69.6995 161.265C69.5282 160.82 69.2644 160.45 68.8982 160.181L68.3061 160.987C68.4967 161.127 68.6533 161.331 68.7662 161.624L69.6995 161.265ZM68.9008 160.183C68.5215 159.9 68.0678 159.773 67.5709 159.773V160.773C67.8922 160.773 68.126 160.853 68.3035 160.985L68.9008 160.183ZM67.5709 159.773C67.0559 159.773 66.5877 159.907 66.2005 160.205L66.8106 160.997C66.9916 160.858 67.2336 160.773 67.5709 160.773V159.773ZM66.2011 160.204C65.8377 160.483 65.5743 160.857 65.4035 161.305L66.3378 161.661C66.451 161.365 66.6109 161.15 66.81 160.997L66.2011 160.204ZM65.4028 161.307C65.2391 161.741 65.1618 162.217 65.1618 162.727H66.1618C66.1618 162.317 66.2237 161.964 66.3385 161.659L65.4028 161.307ZM65.1618 162.727C65.1618 163.244 65.2407 163.728 65.4064 164.172L66.3433 163.822C66.225 163.505 66.1618 163.142 66.1618 162.727H65.1618ZM65.408 164.176C65.5807 164.627 65.843 165.005 66.2022 165.291L66.826 164.51C66.6227 164.348 66.4588 164.123 66.3417 163.818L65.408 164.176ZM66.2066 165.295C66.5927 165.596 67.0584 165.733 67.5709 165.733V164.733C67.2425 164.733 67.0037 164.648 66.8216 164.506L66.2066 165.295ZM76.4074 166H75.9074V166.5H76.4074V166ZM76.4074 157.273V156.773H75.9074V157.273H76.4074ZM81.0353 157.643L80.7881 158.078L80.7915 158.08L81.0353 157.643ZM82.0069 158.636L81.5603 158.861V158.861L82.0069 158.636ZM82.0069 161.436L81.5597 161.212L81.5585 161.215L82.0069 161.436ZM81.0438 162.442L81.291 162.876L81.2931 162.875L81.0438 162.442ZM77.2597 162.812H76.7597V163.312H77.2597V162.812ZM77.2597 161.875V161.375H76.7597V161.875H77.2597ZM80.4685 161.632L80.2209 161.198L80.4685 161.632ZM81.0864 160.976L80.6338 160.763L80.6329 160.765L81.0864 160.976ZM81.0864 159.097L80.6328 159.307L80.6346 159.311L81.0864 159.097ZM80.4643 158.449L80.2218 158.886L80.2251 158.888L80.4643 158.449ZM77.4643 158.21V157.71H76.9643V158.21H77.4643ZM77.4643 166V166.5H77.9643V166H77.4643ZM76.9074 166V157.273H75.9074V166H76.9074ZM76.4074 157.773H79.3563V156.773H76.4074V157.773ZM79.3563 157.773C79.9849 157.773 80.4516 157.887 80.7881 158.078L81.2824 157.209C80.7497 156.906 80.097 156.773 79.3563 156.773V157.773ZM80.7915 158.08C81.1483 158.279 81.3982 158.539 81.5603 158.861L82.4535 158.412C82.195 157.898 81.7972 157.496 81.2791 157.207L80.7915 158.08ZM81.5603 158.861C81.732 159.202 81.8222 159.59 81.8222 160.034H82.8222C82.8222 159.45 82.7022 158.906 82.4535 158.412L81.5603 158.861ZM81.8222 160.034C81.8222 160.478 81.732 160.868 81.5597 161.212L82.4541 161.66C82.7022 161.163 82.8222 160.619 82.8222 160.034H81.8222ZM81.5585 161.215C81.398 161.54 81.1495 161.804 80.7945 162.008L81.2931 162.875C81.8074 162.579 82.2009 162.173 82.4553 161.657L81.5585 161.215ZM80.7967 162.007C80.4595 162.199 79.9954 162.312 79.3734 162.312V163.312C80.1092 163.312 80.7588 163.179 81.291 162.876L80.7967 162.007ZM79.3734 162.312H77.2597V163.312H79.3734V162.312ZM77.7597 162.812V161.875H76.7597V162.812H77.7597ZM77.2597 162.375H79.3393V161.375H77.2597V162.375ZM79.3393 162.375C79.8594 162.375 80.3309 162.286 80.7161 162.066L80.2209 161.198C80.038 161.302 79.7566 161.375 79.3393 161.375V162.375ZM80.7161 162.066C81.0832 161.857 81.365 161.563 81.54 161.186L80.6329 160.765C80.5521 160.939 80.422 161.083 80.2209 161.198L80.7161 162.066ZM81.539 161.188C81.7049 160.835 81.7824 160.447 81.7824 160.034H80.7824C80.7824 160.32 80.7293 160.56 80.6338 160.763L81.539 161.188ZM81.7824 160.034C81.7824 159.621 81.705 159.234 81.5382 158.882L80.6346 159.311C80.7293 159.51 80.7824 159.748 80.7824 160.034H81.7824ZM81.54 158.886C81.3635 158.506 81.0769 158.213 80.7034 158.01L80.2251 158.888C80.4255 158.997 80.5536 159.136 80.6329 159.307L81.54 158.886ZM80.7067 158.012C80.3198 157.797 79.8461 157.71 79.3222 157.71V158.71C79.7472 158.71 80.0349 158.782 80.2218 158.886L80.7067 158.012ZM79.3222 157.71H77.4643V158.71H79.3222V157.71ZM76.9643 158.21V166H77.9643V158.21H76.9643ZM77.4643 165.5H76.4074V166.5H77.4643V165.5ZM84.1283 166H83.6283V166.5H84.1283V166ZM84.1283 159.455V158.955H83.6283V159.455H84.1283ZM85.0999 159.455H85.5999V158.955H85.0999V159.455ZM85.0999 160.443H84.5999V160.943H85.0999V160.443ZM85.168 160.443V160.943H85.5167L85.6372 160.616L85.168 160.443ZM85.8158 159.655L85.5446 159.235L85.8158 159.655ZM87.401 159.369H87.901V158.917L87.4507 158.872L87.401 159.369ZM87.401 160.392L87.2797 160.877L87.901 161.032V160.392H87.401ZM87.1666 160.354L87.0844 160.847L87.0975 160.849L87.1666 160.354ZM85.9351 160.524L86.1688 160.966L86.1706 160.965L85.9351 160.524ZM85.347 161.07L84.9224 160.806L84.9216 160.807L85.347 161.07ZM85.1339 166V166.5H85.6339V166H85.1339ZM84.6283 166V159.455H83.6283V166H84.6283ZM84.1283 159.955H85.0999V158.955H84.1283V159.955ZM84.5999 159.455V160.443H85.5999V159.455H84.5999ZM85.0999 160.943H85.168V159.943H85.0999V160.943ZM85.6372 160.616C85.7161 160.402 85.858 160.223 86.0869 160.075L85.5446 159.235C85.1486 159.49 84.8586 159.837 84.6989 160.27L85.6372 160.616ZM86.0869 160.075C86.3141 159.928 86.5713 159.852 86.8726 159.852V158.852C86.3898 158.852 85.9424 158.978 85.5446 159.235L86.0869 160.075ZM86.8726 159.852C86.9406 159.852 87.0284 159.854 87.1368 159.856L87.1624 158.857C87.0492 158.854 86.9523 158.852 86.8726 158.852V159.852ZM87.1368 159.856C87.2444 159.859 87.3133 159.863 87.3512 159.867L87.4507 158.872C87.375 158.864 87.2764 158.86 87.1624 158.857L87.1368 159.856ZM86.901 159.369V160.392H87.901V159.369H86.901ZM87.5223 159.907C87.4571 159.891 87.3504 159.874 87.2357 159.858L87.0975 160.849C87.1566 160.857 87.2024 160.864 87.2361 160.87C87.2741 160.876 87.2844 160.878 87.2797 160.877L87.5223 159.907ZM87.2488 159.86C87.0997 159.836 86.9456 159.824 86.7874 159.824V160.824C86.8961 160.824 86.9949 160.832 87.0844 160.847L87.2488 159.86ZM86.7874 159.824C86.3972 159.824 86.0305 159.906 85.6995 160.083L86.1706 160.965C86.3396 160.875 86.5411 160.824 86.7874 160.824V159.824ZM85.7014 160.082C85.3775 160.253 85.115 160.496 84.9224 160.806L85.7716 161.334C85.8688 161.177 85.9983 161.056 86.1688 160.966L85.7014 160.082ZM84.9216 160.807C84.7263 161.123 84.6339 161.479 84.6339 161.858H85.6339C85.6339 161.646 85.6836 161.476 85.7725 161.332L84.9216 160.807ZM84.6339 161.858V166H85.6339V161.858H84.6339ZM85.1339 165.5H84.1283V166.5H85.1339V165.5ZM89.7376 165.714L89.4697 166.137L89.4709 166.137L89.7376 165.714ZM88.6978 164.534L88.2486 164.754L88.2496 164.756L88.6978 164.534ZM88.6978 160.976L88.2491 160.755L88.2481 160.757L88.6978 160.976ZM89.7376 159.791L89.4709 159.368L89.4697 159.369L89.7376 159.791ZM92.8441 159.791L92.5762 160.213L92.5774 160.214L92.8441 159.791ZM93.8839 160.976L93.4342 161.194L93.4352 161.196L93.8839 160.976ZM93.8839 164.534L93.4357 164.312L93.4347 164.315L93.8839 164.534ZM92.8441 165.714L92.5774 165.292L92.5762 165.292L92.8441 165.714ZM92.4009 164.888L92.09 164.496L92.4009 164.888ZM93.0444 163.98L93.5131 164.154L93.0444 163.98ZM93.0444 161.538L93.5136 161.365V161.365L93.0444 161.538ZM92.4009 160.622L92.7142 160.232L92.4009 160.622ZM90.185 160.622L89.8717 160.232L90.185 160.622ZM89.5416 161.538L89.0724 161.365L89.0724 161.365L89.5416 161.538ZM89.5416 163.98L89.0728 164.154L89.5416 163.98ZM90.185 164.888L90.496 164.496L90.185 164.888ZM91.293 165.636C90.7847 165.636 90.3611 165.517 90.0043 165.292L89.4709 166.137C90.0061 166.475 90.6194 166.636 91.293 166.636V165.636ZM90.0055 165.292C89.6454 165.064 89.3586 164.742 89.146 164.313L88.2496 164.756C88.537 165.337 88.9434 165.803 89.4697 166.137L90.0055 165.292ZM89.147 164.315C88.9393 163.89 88.8271 163.377 88.8271 162.761H87.8271C87.8271 163.498 87.962 164.167 88.2486 164.754L89.147 164.315ZM88.8271 162.761C88.8271 162.14 88.9396 161.622 89.1475 161.194L88.2481 160.757C87.9617 161.347 87.8271 162.019 87.8271 162.761H88.8271ZM89.1465 161.196C89.3593 160.764 89.6461 160.441 90.0055 160.213L89.4697 159.369C88.9427 159.703 88.5363 160.171 88.2491 160.755L89.1465 161.196ZM90.0043 160.214C90.3611 159.989 90.7847 159.869 91.293 159.869V158.869C90.6194 158.869 90.0061 159.031 89.4709 159.368L90.0043 160.214ZM91.293 159.869C91.8013 159.869 92.2229 159.989 92.5762 160.213L93.112 159.369C92.579 159.031 91.9665 158.869 91.293 158.869V159.869ZM92.5774 160.214C92.9389 160.442 93.2247 160.763 93.4342 161.194L94.3336 160.757C94.0487 160.171 93.6414 159.703 93.1108 159.368L92.5774 160.214ZM93.4352 161.196C93.6453 161.624 93.7589 162.141 93.7589 162.761H94.7589C94.7589 162.018 94.6225 161.345 94.3326 160.755L93.4352 161.196ZM93.7589 162.761C93.7589 163.376 93.6455 163.888 93.4357 164.313L94.3321 164.756C94.6223 164.169 94.7589 163.499 94.7589 162.761H93.7589ZM93.4347 164.315C93.2254 164.743 92.9396 165.063 92.5774 165.292L93.1108 166.137C93.6407 165.803 94.048 165.337 94.3331 164.754L93.4347 164.315ZM92.5762 165.292C92.2229 165.517 91.8013 165.636 91.293 165.636V166.636C91.9665 166.636 92.579 166.475 93.112 166.137L92.5762 165.292ZM91.293 165.733C91.8299 165.733 92.316 165.594 92.7119 165.279L92.09 164.496C91.9063 164.642 91.6538 164.733 91.293 164.733V165.733ZM92.7119 165.279C93.0789 164.988 93.3448 164.607 93.5131 164.154L92.5757 163.806C92.4655 164.103 92.3025 164.327 92.09 164.496L92.7119 165.279ZM93.5131 164.154C93.6749 163.718 93.7532 163.253 93.7532 162.761H92.7532C92.7532 163.145 92.6923 163.492 92.5757 163.806L93.5131 164.154ZM93.7532 162.761C93.7532 162.27 93.6749 161.803 93.5136 161.365L92.5752 161.711C92.6923 162.029 92.7532 162.378 92.7532 162.761H93.7532ZM93.5136 161.365C93.3457 160.91 93.0805 160.527 92.7142 160.232L92.0877 161.012C92.3009 161.183 92.4647 161.411 92.5752 161.711L93.5136 161.365ZM92.7142 160.232C92.3183 159.914 91.8313 159.773 91.293 159.773V160.773C91.6524 160.773 91.904 160.864 92.0877 161.012L92.7142 160.232ZM91.293 159.773C90.7546 159.773 90.2677 159.914 89.8717 160.232L90.4983 161.012C90.6819 160.864 90.9336 160.773 91.293 160.773V159.773ZM89.8717 160.232C89.5055 160.527 89.2402 160.91 89.0724 161.365L90.0107 161.711C90.1213 161.411 90.285 161.183 90.4983 161.012L89.8717 160.232ZM89.0724 161.365C88.9111 161.803 88.8328 162.27 88.8328 162.761H89.8328C89.8328 162.378 89.8936 162.029 90.0107 161.711L89.0724 161.365ZM88.8328 162.761C88.8328 163.253 88.9111 163.718 89.0728 164.154L90.0103 163.806C89.8936 163.492 89.8328 163.145 89.8328 162.761H88.8328ZM89.0728 164.154C89.2411 164.607 89.5071 164.988 89.8741 165.279L90.496 164.496C90.2834 164.327 90.1204 164.103 90.0103 163.806L89.0728 164.154ZM89.8741 165.279C90.2699 165.594 90.756 165.733 91.293 165.733V164.733C90.9322 164.733 90.6797 164.642 90.496 164.496L89.8741 165.279ZM98.9488 159.455H99.4488V158.955H98.9488V159.455ZM98.9488 160.307V160.807H99.4488V160.307H98.9488ZM95.4204 160.307H94.9204V160.807H95.4204V160.307ZM95.4204 159.455V158.955H94.9204V159.455H95.4204ZM96.4772 166H95.9772V166.5H96.4772V166ZM96.7414 157.614L96.3327 157.326L96.7414 157.614ZM97.4275 157.051L97.2244 156.594L97.4275 157.051ZM98.9233 156.923L98.7999 157.408L98.7999 157.408L98.9233 156.923ZM99.2727 157.034L99.747 157.192L99.8906 156.762L99.4758 156.577L99.2727 157.034ZM98.9829 157.903L98.8248 158.378L99.2991 158.536L99.4573 158.062L98.9829 157.903ZM98.7698 157.839L98.6304 158.32L98.6345 158.321L98.7698 157.839ZM97.7002 158.053L97.3251 157.722L97.322 157.726L97.7002 158.053ZM97.4829 166V166.5H97.9829V166H97.4829ZM98.4488 159.455V160.307H99.4488V159.455H98.4488ZM98.9488 159.807H95.4204V160.807H98.9488V159.807ZM95.9204 160.307V159.455H94.9204V160.307H95.9204ZM95.4204 159.955H98.9488V158.955H95.4204V159.955ZM96.9772 166V158.551H95.9772V166H96.9772ZM96.9772 158.551C96.9772 158.256 97.0457 158.05 97.1502 157.902L96.3327 157.326C96.0849 157.677 95.9772 158.097 95.9772 158.551H96.9772ZM97.1502 157.902C97.2739 157.726 97.4313 157.597 97.6306 157.508L97.2244 156.594C96.8612 156.756 96.5612 157.001 96.3327 157.326L97.1502 157.902ZM97.6306 157.508C97.8469 157.412 98.0745 157.364 98.3181 157.364V156.364C97.9368 156.364 97.5706 156.44 97.2244 156.594L97.6306 157.508ZM98.3181 157.364C98.5433 157.364 98.6993 157.382 98.7999 157.408L99.0466 156.439C98.8347 156.385 98.5873 156.364 98.3181 156.364V157.364ZM98.7999 157.408C98.9489 157.446 99.0324 157.474 99.0696 157.491L99.4758 156.577C99.3596 156.526 99.2101 156.48 99.0466 156.439L98.7999 157.408ZM98.7983 156.876L98.5086 157.745L99.4573 158.062L99.747 157.192L98.7983 156.876ZM99.141 157.429C99.0788 157.408 98.999 157.385 98.9052 157.358L98.6345 158.321C98.7225 158.346 98.7847 158.364 98.8248 158.378L99.141 157.429ZM98.9093 157.359C98.7575 157.315 98.5885 157.301 98.4204 157.301V158.301C98.5421 158.301 98.606 158.313 98.6304 158.32L98.9093 157.359ZM98.4204 157.301C98.0153 157.301 97.6063 157.403 97.3251 157.722L98.0753 158.383C98.0897 158.367 98.1608 158.301 98.4204 158.301V157.301ZM97.322 157.726C97.0692 158.018 96.9829 158.4 96.9829 158.79H97.9829C97.9829 158.532 98.0415 158.422 98.0785 158.38L97.322 157.726ZM96.9829 158.79V166H97.9829V158.79H96.9829ZM97.4829 165.5H96.4772V166.5H97.4829V165.5ZM100.598 166H100.098V166.5H100.598V166ZM100.598 159.455V158.955H100.098V159.455H100.598ZM101.604 159.455H102.104V158.955H101.604V159.455ZM101.604 166V166.5H102.104V166H101.604ZM100.603 158.163L100.256 158.524L100.26 158.528L100.603 158.163ZM100.603 157.2L100.26 156.836L100.256 156.839L100.603 157.2ZM101.612 157.2L101.266 157.561L101.27 157.565L101.612 157.2ZM101.612 158.163L101.27 157.799L101.266 157.803L101.612 158.163ZM101.098 166V159.455H100.098V166H101.098ZM100.598 159.955H101.604V158.955H100.598V159.955ZM101.104 159.455V166H102.104V159.455H101.104ZM101.604 165.5H100.598V166.5H101.604V165.5ZM101.11 157.864C101.04 157.864 100.994 157.845 100.945 157.799L100.26 158.528C100.495 158.749 100.787 158.864 101.11 158.864V157.864ZM100.949 157.803C100.905 157.76 100.894 157.729 100.894 157.682H99.8937C99.8937 158.01 100.022 158.299 100.256 158.524L100.949 157.803ZM100.894 157.682C100.894 157.635 100.905 157.603 100.949 157.561L100.256 156.839C100.022 157.064 99.8937 157.354 99.8937 157.682H100.894ZM100.945 157.565C100.994 157.519 101.04 157.5 101.11 157.5V156.5C100.787 156.5 100.495 156.615 100.26 156.836L100.945 157.565ZM101.11 157.5C101.179 157.5 101.222 157.519 101.266 157.561L101.959 156.839C101.725 156.615 101.432 156.5 101.11 156.5V157.5ZM101.27 157.565C101.316 157.608 101.326 157.638 101.326 157.682H102.326C102.326 157.35 102.193 157.06 101.955 156.836L101.27 157.565ZM101.326 157.682C101.326 157.725 101.316 157.756 101.27 157.799L101.955 158.528C102.193 158.304 102.326 158.013 102.326 157.682H101.326ZM101.266 157.803C101.222 157.845 101.179 157.864 101.11 157.864V158.864C101.432 158.864 101.725 158.749 101.959 158.524L101.266 157.803ZM104.692 157.273H105.192V156.773H104.692V157.273ZM104.692 166V166.5H105.192V166H104.692ZM103.686 166H103.186V166.5H103.686V166ZM103.686 157.273V156.773H103.186V157.273H103.686ZM104.192 157.273V166H105.192V157.273H104.192ZM104.692 165.5H103.686V166.5H104.692V165.5ZM104.186 166V157.273H103.186V166H104.186ZM103.686 157.773H104.692V156.773H103.686V157.773ZM107.886 165.719L107.623 166.144L107.626 166.146L107.886 165.719ZM106.833 164.543L106.383 164.76L106.385 164.763L106.833 164.543ZM106.833 161.006L106.383 160.789L106.382 160.79L106.833 161.006ZM107.864 159.804L108.137 160.223L108.138 160.222L107.864 159.804ZM110.426 159.54L110.587 159.067L110.426 159.54ZM111.333 160.094L110.991 160.459L110.993 160.46L111.333 160.094ZM111.985 161.099L112.451 160.919V160.919L111.985 161.099ZM112.228 163.068V163.568H112.728V163.068H112.228ZM107.183 163.068H106.683V163.568H107.183V163.068ZM107.183 162.199V161.699H106.683V162.199H107.183ZM111.205 162.199V162.699H111.705V162.199H111.205ZM110.984 161.21L110.537 161.434L110.538 161.437L110.984 161.21ZM110.362 160.524L110.096 160.948L110.098 160.949L110.362 160.524ZM108.376 160.571L108.656 160.985L108.657 160.985L108.376 160.571ZM107.707 161.338L107.259 161.116L107.707 161.338ZM107.728 164.189L107.28 164.411L107.282 164.415L107.728 164.189ZM108.448 164.969L108.196 165.401L108.199 165.402L108.448 164.969ZM110.234 165.122L110.398 165.595L110.401 165.593L110.234 165.122ZM110.792 164.781L111.139 165.141L111.142 165.138L110.792 164.781ZM111.154 164.21L111.289 163.729L110.847 163.605L110.686 164.035L111.154 164.21ZM112.126 164.483L112.603 164.631L112.756 164.14L112.261 164.002L112.126 164.483ZM111.61 165.352L111.968 165.702L111.97 165.7L111.61 165.352ZM110.715 165.932L110.895 166.399L110.898 166.397L110.715 165.932ZM109.518 165.636C108.962 165.636 108.512 165.514 108.146 165.292L107.626 166.146C108.175 166.48 108.812 166.636 109.518 166.636V165.636ZM108.149 165.294C107.778 165.064 107.49 164.745 107.282 164.322L106.385 164.763C106.671 165.346 107.084 165.811 107.623 166.144L108.149 165.294ZM107.283 164.325C107.078 163.899 106.967 163.388 106.967 162.778H105.967C105.967 163.51 106.1 164.175 106.383 164.76L107.283 164.325ZM106.967 162.778C106.967 162.169 107.078 161.654 107.284 161.221L106.382 160.79C106.1 161.38 105.967 162.047 105.967 162.778H106.967ZM107.284 161.222C107.495 160.783 107.78 160.456 108.137 160.223L107.592 159.385C107.068 159.726 106.666 160.2 106.383 160.789L107.284 161.222ZM108.138 160.222C108.491 159.992 108.91 159.869 109.416 159.869V158.869C108.739 158.869 108.125 159.036 107.591 159.385L108.138 160.222ZM109.416 159.869C109.7 159.869 109.982 159.917 110.264 160.013L110.587 159.067C110.204 158.936 109.813 158.869 109.416 158.869V159.869ZM110.264 160.013C110.525 160.102 110.767 160.248 110.991 160.459L111.675 159.729C111.354 159.428 110.991 159.205 110.587 159.067L110.264 160.013ZM110.993 160.46C111.2 160.652 111.379 160.919 111.519 161.28L112.451 160.919C112.268 160.445 112.012 160.041 111.673 159.727L110.993 160.46ZM111.519 161.28C111.652 161.623 111.728 162.072 111.728 162.642H112.728C112.728 161.99 112.642 161.411 112.451 160.919L111.519 161.28ZM111.728 162.642V163.068H112.728V162.642H111.728ZM112.228 162.568H107.183V163.568H112.228V162.568ZM107.683 163.068V162.199H106.683V163.068H107.683ZM107.183 162.699H111.205V161.699H107.183V162.699ZM111.705 162.199C111.705 161.761 111.617 161.352 111.429 160.983L110.538 161.437C110.646 161.648 110.705 161.898 110.705 162.199H111.705ZM111.431 160.987C111.246 160.616 110.976 160.317 110.625 160.099L110.098 160.949C110.288 161.067 110.432 161.225 110.537 161.434L111.431 160.987ZM110.627 160.101C110.269 159.876 109.859 159.773 109.416 159.773V160.773C109.7 160.773 109.92 160.837 110.096 160.948L110.627 160.101ZM109.416 159.773C108.929 159.773 108.481 159.895 108.095 160.157L108.657 160.985C108.856 160.849 109.102 160.773 109.416 160.773V159.773ZM108.096 160.157C107.734 160.402 107.453 160.724 107.259 161.116L108.155 161.56C108.273 161.322 108.438 161.132 108.656 160.985L108.096 160.157ZM107.259 161.116C107.067 161.502 106.972 161.916 106.972 162.352H107.972C107.972 162.066 108.034 161.805 108.155 161.56L107.259 161.116ZM106.972 162.352V162.932H107.972V162.352H106.972ZM106.972 162.932C106.972 163.482 107.067 163.981 107.28 164.411L108.176 163.967C108.048 163.709 107.972 163.371 107.972 162.932H106.972ZM107.282 164.415C107.496 164.835 107.8 165.17 108.196 165.401L108.7 164.537C108.483 164.41 108.307 164.224 108.174 163.962L107.282 164.415ZM108.199 165.402C108.593 165.628 109.037 165.733 109.518 165.733V164.733C109.186 164.733 108.918 164.662 108.697 164.535L108.199 165.402ZM109.518 165.733C109.828 165.733 110.124 165.69 110.398 165.595L110.07 164.65C109.918 164.703 109.736 164.733 109.518 164.733V165.733ZM110.401 165.593C110.68 165.494 110.929 165.344 111.139 165.141L110.445 164.421C110.343 164.52 110.219 164.597 110.066 164.651L110.401 165.593ZM111.142 165.138C111.356 164.928 111.514 164.674 111.622 164.386L110.686 164.035C110.624 164.201 110.541 164.327 110.442 164.424L111.142 165.138ZM111.019 164.692L111.991 164.964L112.261 164.002L111.289 163.729L111.019 164.692ZM111.648 164.335C111.569 164.589 111.438 164.811 111.251 165.005L111.97 165.7C112.265 165.394 112.478 165.036 112.603 164.631L111.648 164.335ZM111.253 165.003C111.066 165.194 110.829 165.35 110.533 165.466L110.898 166.397C111.312 166.235 111.672 166.005 111.968 165.702L111.253 165.003ZM110.536 165.465C110.247 165.576 109.91 165.636 109.518 165.636V166.636C110.012 166.636 110.474 166.56 110.895 166.399L110.536 165.465ZM117.749 166H117.249V166.5H117.749V166ZM117.749 157.273V156.773H117.249V157.273H117.749ZM122.377 157.643L122.13 158.078L122.133 158.08L122.377 157.643ZM123.349 158.636L122.902 158.861V158.861L123.349 158.636ZM123.349 161.436L122.902 161.212L122.9 161.215L123.349 161.436ZM122.386 162.442L122.633 162.876L122.635 162.875L122.386 162.442ZM118.602 162.812H118.102V163.312H118.602V162.812ZM118.602 161.875V161.375H118.102V161.875H118.602ZM121.81 161.632L121.563 161.198L121.81 161.632ZM122.428 160.976L121.976 160.763L121.975 160.765L122.428 160.976ZM122.428 159.097L121.975 159.307L121.977 159.311L122.428 159.097ZM121.806 158.449L121.564 158.886L121.567 158.888L121.806 158.449ZM118.806 158.21V157.71H118.306V158.21H118.806ZM118.806 166V166.5H119.306V166H118.806ZM118.249 166V157.273H117.249V166H118.249ZM117.749 157.773H120.698V156.773H117.749V157.773ZM120.698 157.773C121.327 157.773 121.793 157.887 122.13 158.078L122.624 157.209C122.092 156.906 121.439 156.773 120.698 156.773V157.773ZM122.133 158.08C122.49 158.279 122.74 158.539 122.902 158.861L123.795 158.412C123.537 157.898 123.139 157.496 122.621 157.207L122.133 158.08ZM122.902 158.861C123.074 159.202 123.164 159.59 123.164 160.034H124.164C124.164 159.45 124.044 158.906 123.795 158.412L122.902 158.861ZM123.164 160.034C123.164 160.478 123.074 160.868 122.902 161.212L123.796 161.66C124.044 161.163 124.164 160.619 124.164 160.034H123.164ZM122.9 161.215C122.74 161.54 122.491 161.804 122.136 162.008L122.635 162.875C123.149 162.579 123.543 162.173 123.797 161.657L122.9 161.215ZM122.139 162.007C121.801 162.199 121.337 162.312 120.715 162.312V163.312C121.451 163.312 122.101 163.179 122.633 162.876L122.139 162.007ZM120.715 162.312H118.602V163.312H120.715V162.312ZM119.102 162.812V161.875H118.102V162.812H119.102ZM118.602 162.375H120.681V161.375H118.602V162.375ZM120.681 162.375C121.201 162.375 121.673 162.286 122.058 162.066L121.563 161.198C121.38 161.302 121.098 161.375 120.681 161.375V162.375ZM122.058 162.066C122.425 161.857 122.707 161.563 122.882 161.186L121.975 160.765C121.894 160.939 121.764 161.083 121.563 161.198L122.058 162.066ZM122.881 161.188C123.047 160.835 123.124 160.447 123.124 160.034H122.124C122.124 160.32 122.071 160.56 121.976 160.763L122.881 161.188ZM123.124 160.034C123.124 159.621 123.047 159.234 122.88 158.882L121.977 159.311C122.071 159.51 122.124 159.748 122.124 160.034H123.124ZM122.882 158.886C122.705 158.506 122.419 158.213 122.045 158.01L121.567 158.888C121.767 158.997 121.895 159.136 121.975 159.307L122.882 158.886ZM122.049 158.012C121.662 157.797 121.188 157.71 120.664 157.71V158.71C121.089 158.71 121.377 158.782 121.564 158.886L122.049 158.012ZM120.664 157.71H118.806V158.71H120.664V157.71ZM118.306 158.21V166H119.306V158.21H118.306ZM118.806 165.5H117.749V166.5H118.806V165.5ZM126.476 166V166.5H126.976V166H126.476ZM125.47 166H124.97V166.5H125.47V166ZM125.47 157.273V156.773H124.97V157.273H125.47ZM126.476 157.273H126.976V156.773H126.476V157.273ZM126.476 160.477H125.976V160.977H126.476V160.477ZM126.561 160.477V160.977H126.883L127.016 160.684L126.561 160.477ZM127.251 159.672L127.523 160.091L127.524 160.091L127.251 159.672ZM129.659 159.638L129.424 160.079L129.426 160.08L129.659 159.638ZM130.439 160.452L129.992 160.677L129.994 160.681L130.439 160.452ZM130.72 166V166.5H131.22V166H130.72ZM129.714 166H129.214V166.5H129.714V166ZM129.31 160.703L128.944 161.044L128.947 161.048L129.31 160.703ZM127.311 160.482L127.076 160.04L127.074 160.041L127.311 160.482ZM126.697 161.091L126.262 160.845L126.26 160.849L126.697 161.091ZM125.976 162.062V166H126.976V162.062H125.976ZM126.476 165.5H125.47V166.5H126.476V165.5ZM125.97 166V157.273H124.97V166H125.97ZM125.47 157.773H126.476V156.773H125.47V157.773ZM125.976 157.273V160.477H126.976V157.273H125.976ZM126.476 160.977H126.561V159.977H126.476V160.977ZM127.016 160.684C127.131 160.431 127.298 160.237 127.523 160.091L126.979 159.252C126.591 159.504 126.298 159.847 126.106 160.271L127.016 160.684ZM127.524 160.091C127.727 159.959 128.033 159.869 128.487 159.869V158.869C127.913 158.869 127.395 158.981 126.978 159.253L127.524 160.091ZM128.487 159.869C128.865 159.869 129.172 159.945 129.424 160.079L129.895 159.197C129.475 158.973 129.001 158.869 128.487 158.869V159.869ZM129.426 160.08C129.662 160.204 129.85 160.395 129.992 160.677L130.885 160.227C130.658 159.775 130.327 159.424 129.892 159.195L129.426 160.08ZM129.994 160.681C130.134 160.952 130.22 161.33 130.22 161.841H131.22C131.22 161.227 131.118 160.679 130.883 160.223L129.994 160.681ZM130.22 161.841V166H131.22V161.841H130.22ZM130.72 165.5H129.714V166.5H130.72V165.5ZM130.214 166V161.909H129.214V166H130.214ZM130.214 161.909C130.214 161.304 130.056 160.763 129.672 160.359L128.947 161.048C129.103 161.212 129.214 161.474 129.214 161.909H130.214ZM129.676 160.362C129.294 159.953 128.779 159.773 128.197 159.773V160.773C128.565 160.773 128.791 160.879 128.944 161.044L129.676 160.362ZM128.197 159.773C127.795 159.773 127.418 159.858 127.076 160.04L127.546 160.923C127.727 160.826 127.94 160.773 128.197 160.773V159.773ZM127.074 160.041C126.728 160.227 126.457 160.5 126.262 160.845L127.133 161.336C127.239 161.148 127.377 161.014 127.548 160.922L127.074 160.041ZM126.26 160.849C126.062 161.206 125.976 161.618 125.976 162.062H126.976C126.976 161.746 127.037 161.51 127.135 161.333L126.26 160.849ZM133.904 165.714L133.636 166.137L133.637 166.137L133.904 165.714ZM132.864 164.534L132.415 164.754L132.416 164.756L132.864 164.534ZM132.864 160.976L132.415 160.755L132.414 160.757L132.864 160.976ZM133.904 159.791L133.637 159.368L133.636 159.369L133.904 159.791ZM137.01 159.791L136.742 160.213L136.744 160.214L137.01 159.791ZM138.05 160.976L137.6 161.194L137.601 161.196L138.05 160.976ZM138.05 164.534L137.602 164.312L137.601 164.315L138.05 164.534ZM137.01 165.714L136.744 165.292L136.742 165.292L137.01 165.714ZM136.567 164.888L136.256 164.496L136.567 164.888ZM137.21 163.98L137.679 164.154L137.21 163.98ZM137.21 161.538L137.68 161.365V161.365L137.21 161.538ZM136.567 160.622L136.88 160.232L136.567 160.622ZM134.351 160.622L134.038 160.232L134.351 160.622ZM133.708 161.538L133.238 161.365V161.365L133.708 161.538ZM133.708 163.98L133.239 164.154L133.708 163.98ZM134.351 164.888L134.662 164.496L134.351 164.888ZM135.459 165.636C134.951 165.636 134.527 165.517 134.17 165.292L133.637 166.137C134.172 166.475 134.786 166.636 135.459 166.636V165.636ZM134.172 165.292C133.812 165.064 133.525 164.742 133.312 164.313L132.416 164.756C132.703 165.337 133.109 165.803 133.636 166.137L134.172 165.292ZM133.313 164.315C133.105 163.89 132.993 163.377 132.993 162.761H131.993C131.993 163.498 132.128 164.167 132.415 164.754L133.313 164.315ZM132.993 162.761C132.993 162.14 133.106 161.622 133.314 161.194L132.414 160.757C132.128 161.347 131.993 162.019 131.993 162.761H132.993ZM133.313 161.196C133.525 160.764 133.812 160.441 134.172 160.213L133.636 159.369C133.109 159.703 132.702 160.171 132.415 160.755L133.313 161.196ZM134.17 160.214C134.527 159.989 134.951 159.869 135.459 159.869V158.869C134.786 158.869 134.172 159.031 133.637 159.368L134.17 160.214ZM135.459 159.869C135.967 159.869 136.389 159.989 136.742 160.213L137.278 159.369C136.745 159.031 136.133 158.869 135.459 158.869V159.869ZM136.744 160.214C137.105 160.442 137.391 160.763 137.6 161.194L138.5 160.757C138.215 160.171 137.808 159.703 137.277 159.368L136.744 160.214ZM137.601 161.196C137.811 161.624 137.925 162.141 137.925 162.761H138.925C138.925 162.018 138.789 161.345 138.499 160.755L137.601 161.196ZM137.925 162.761C137.925 163.376 137.812 163.888 137.602 164.313L138.498 164.756C138.788 164.169 138.925 163.499 138.925 162.761H137.925ZM137.601 164.315C137.392 164.743 137.106 165.063 136.744 165.292L137.277 166.137C137.807 165.803 138.214 165.337 138.499 164.754L137.601 164.315ZM136.742 165.292C136.389 165.517 135.967 165.636 135.459 165.636V166.636C136.133 166.636 136.745 166.475 137.278 166.137L136.742 165.292ZM135.459 165.733C135.996 165.733 136.482 165.594 136.878 165.279L136.256 164.496C136.072 164.642 135.82 164.733 135.459 164.733V165.733ZM136.878 165.279C137.245 164.988 137.511 164.607 137.679 164.154L136.742 163.806C136.632 164.103 136.469 164.327 136.256 164.496L136.878 165.279ZM137.679 164.154C137.841 163.718 137.919 163.253 137.919 162.761H136.919C136.919 163.145 136.858 163.492 136.742 163.806L137.679 164.154ZM137.919 162.761C137.919 162.27 137.841 161.803 137.68 161.365L136.741 161.711C136.858 162.029 136.919 162.378 136.919 162.761H137.919ZM137.68 161.365C137.512 160.91 137.247 160.527 136.88 160.232L136.254 161.012C136.467 161.183 136.631 161.411 136.741 161.711L137.68 161.365ZM136.88 160.232C136.484 159.914 135.997 159.773 135.459 159.773V160.773C135.818 160.773 136.07 160.864 136.254 161.012L136.88 160.232ZM135.459 159.773C134.921 159.773 134.434 159.914 134.038 160.232L134.664 161.012C134.848 160.864 135.1 160.773 135.459 160.773V159.773ZM134.038 160.232C133.672 160.527 133.406 160.91 133.238 161.365L134.177 161.711C134.287 161.411 134.451 161.183 134.664 161.012L134.038 160.232ZM133.238 161.365C133.077 161.803 132.999 162.27 132.999 162.761H133.999C133.999 162.378 134.06 162.029 134.177 161.711L133.238 161.365ZM132.999 162.761C132.999 163.253 133.077 163.718 133.239 164.154L134.176 163.806C134.06 163.492 133.999 163.145 133.999 162.761H132.999ZM133.239 164.154C133.407 164.607 133.673 164.988 134.04 165.279L134.662 164.496C134.45 164.327 134.287 164.103 134.176 163.806L133.239 164.154ZM134.04 165.279C134.436 165.594 134.922 165.733 135.459 165.733V164.733C135.098 164.733 134.846 164.642 134.662 164.496L134.04 165.279ZM143.047 159.455H143.547V158.955H143.047V159.455ZM143.047 160.307V160.807H143.547V160.307H143.047ZM139.655 160.307H139.155V160.807H139.655V160.307ZM139.655 159.455V158.955H139.155V159.455H139.655ZM140.643 157.886V157.386H140.143V157.886H140.643ZM141.649 157.886H142.149V157.386H141.649V157.886ZM141.773 164.764L141.34 165.015L141.346 165.025L141.773 164.764ZM142.096 165.045L141.923 165.515L141.935 165.519L142.096 165.045ZM142.791 165.097L142.87 165.59L142.88 165.589L142.889 165.587L142.791 165.097ZM142.962 165.062L143.449 164.952L143.341 164.477L142.863 164.572L142.962 165.062ZM143.166 165.966L143.342 166.434L143.75 166.281L143.654 165.855L143.166 165.966ZM142.881 166.043L142.778 165.553L142.767 165.556L142.881 166.043ZM141.581 165.902L141.375 166.358L141.376 166.358L141.581 165.902ZM140.908 165.344L140.499 165.632L140.501 165.635L140.908 165.344ZM142.547 159.455V160.307H143.547V159.455H142.547ZM143.047 159.807H139.655V160.807H143.047V159.807ZM140.155 160.307V159.455H139.155V160.307H140.155ZM139.655 159.955H143.047V158.955H139.655V159.955ZM140.643 158.386H141.649V157.386H140.643V158.386ZM141.149 157.886V164.125H142.149V157.886H141.149ZM141.149 164.125C141.149 164.441 141.192 164.76 141.34 165.015L142.205 164.513C142.188 164.485 142.149 164.377 142.149 164.125H141.149ZM141.346 165.025C141.48 165.243 141.67 165.421 141.923 165.514L142.27 164.576C142.262 164.574 142.236 164.564 142.199 164.503L141.346 165.025ZM141.935 165.519C142.123 165.583 142.318 165.614 142.518 165.614V164.614C142.423 164.614 142.337 164.599 142.258 164.572L141.935 165.519ZM142.518 165.614C142.643 165.614 142.763 165.607 142.87 165.59L142.712 164.603C142.677 164.608 142.615 164.614 142.518 164.614V165.614ZM142.889 165.587C142.96 165.573 143.017 165.561 143.06 165.553L142.863 164.572C142.821 164.581 142.764 164.592 142.693 164.606L142.889 165.587ZM142.474 165.173L142.678 166.076L143.654 165.855L143.449 164.952L142.474 165.173ZM142.99 165.498C142.957 165.51 142.89 165.53 142.778 165.553L142.983 166.532C143.115 166.504 143.239 166.473 143.342 166.434L142.99 165.498ZM142.767 165.556C142.696 165.572 142.582 165.585 142.416 165.585V166.585C142.625 166.585 142.821 166.57 142.994 166.53L142.767 165.556ZM142.416 165.585C142.206 165.585 141.997 165.541 141.785 165.446L141.376 166.358C141.71 166.508 142.058 166.585 142.416 166.585V165.585ZM141.787 165.446C141.6 165.362 141.444 165.234 141.314 165.053L140.501 165.635C140.729 165.953 141.022 166.198 141.375 166.358L141.787 165.446ZM141.316 165.056C141.213 164.909 141.143 164.701 141.143 164.398H140.143C140.143 164.856 140.25 165.279 140.499 165.632L141.316 165.056ZM141.143 164.398V157.886H140.143V164.398H141.143ZM145.833 165.714L145.565 166.137L145.566 166.137L145.833 165.714ZM144.793 164.534L144.344 164.754L144.345 164.756L144.793 164.534ZM144.793 160.976L144.344 160.755L144.343 160.757L144.793 160.976ZM145.833 159.791L145.566 159.368L145.565 159.369L145.833 159.791ZM148.939 159.791L148.672 160.213L148.673 160.214L148.939 159.791ZM149.979 160.976L149.529 161.194L149.53 161.196L149.979 160.976ZM149.979 164.534L149.531 164.312L149.53 164.315L149.979 164.534ZM148.939 165.714L148.673 165.292L148.672 165.292L148.939 165.714ZM148.496 164.888L148.185 164.496L148.496 164.888ZM149.14 163.98L149.608 164.154L149.14 163.98ZM149.14 161.538L149.609 161.365V161.365L149.14 161.538ZM148.496 160.622L148.81 160.232L148.496 160.622ZM146.28 160.622L145.967 160.232L146.28 160.622ZM145.637 161.538L145.168 161.365V161.365L145.637 161.538ZM145.637 163.98L145.168 164.154L145.637 163.98ZM146.28 164.888L146.591 164.496L146.28 164.888ZM147.388 165.636C146.88 165.636 146.456 165.517 146.1 165.292L145.566 166.137C146.101 166.475 146.715 166.636 147.388 166.636V165.636ZM146.101 165.292C145.741 165.064 145.454 164.742 145.241 164.313L144.345 164.756C144.632 165.337 145.039 165.803 145.565 166.137L146.101 165.292ZM145.242 164.315C145.035 163.89 144.922 163.377 144.922 162.761H143.922C143.922 163.498 144.057 164.167 144.344 164.754L145.242 164.315ZM144.922 162.761C144.922 162.14 145.035 161.622 145.243 161.194L144.343 160.757C144.057 161.347 143.922 162.019 143.922 162.761H144.922ZM145.242 161.196C145.455 160.764 145.741 160.441 146.101 160.213L145.565 159.369C145.038 159.703 144.632 160.171 144.344 160.755L145.242 161.196ZM146.1 160.214C146.456 159.989 146.88 159.869 147.388 159.869V158.869C146.715 158.869 146.101 159.031 145.566 159.368L146.1 160.214ZM147.388 159.869C147.897 159.869 148.318 159.989 148.672 160.213L149.207 159.369C148.674 159.031 148.062 158.869 147.388 158.869V159.869ZM148.673 160.214C149.034 160.442 149.32 160.763 149.53 161.194L150.429 160.757C150.144 160.171 149.737 159.703 149.206 159.368L148.673 160.214ZM149.53 161.196C149.741 161.624 149.854 162.141 149.854 162.761H150.854C150.854 162.018 150.718 161.345 150.428 160.755L149.53 161.196ZM149.854 162.761C149.854 163.376 149.741 163.888 149.531 164.313L150.427 164.756C150.718 164.169 150.854 163.499 150.854 162.761H149.854ZM149.53 164.315C149.321 164.743 149.035 165.063 148.673 165.292L149.206 166.137C149.736 165.803 150.143 165.337 150.428 164.754L149.53 164.315ZM148.672 165.292C148.318 165.517 147.897 165.636 147.388 165.636V166.636C148.062 166.636 148.674 166.475 149.207 166.137L148.672 165.292ZM147.388 165.733C147.925 165.733 148.411 165.594 148.807 165.279L148.185 164.496C148.002 164.642 147.749 164.733 147.388 164.733V165.733ZM148.807 165.279C149.174 164.988 149.44 164.607 149.608 164.154L148.671 163.806C148.561 164.103 148.398 164.327 148.185 164.496L148.807 165.279ZM149.608 164.154C149.77 163.718 149.849 163.253 149.849 162.761H148.849C148.849 163.145 148.788 163.492 148.671 163.806L149.608 164.154ZM149.849 162.761C149.849 162.27 149.77 161.803 149.609 161.365L148.671 161.711C148.788 162.029 148.849 162.378 148.849 162.761H149.849ZM149.609 161.365C149.441 160.91 149.176 160.527 148.81 160.232L148.183 161.012C148.396 161.183 148.56 161.411 148.671 161.711L149.609 161.365ZM148.81 160.232C148.414 159.914 147.927 159.773 147.388 159.773V160.773C147.748 160.773 147.999 160.864 148.183 161.012L148.81 160.232ZM147.388 159.773C146.85 159.773 146.363 159.914 145.967 160.232L146.594 161.012C146.777 160.864 147.029 160.773 147.388 160.773V159.773ZM145.967 160.232C145.601 160.527 145.336 160.91 145.168 161.365L146.106 161.711C146.217 161.411 146.38 161.183 146.594 161.012L145.967 160.232ZM145.168 161.365C145.006 161.803 144.928 162.27 144.928 162.761H145.928C145.928 162.378 145.989 162.029 146.106 161.711L145.168 161.365ZM144.928 162.761C144.928 163.253 145.006 163.718 145.168 164.154L146.106 163.806C145.989 163.492 145.928 163.145 145.928 162.761H144.928ZM145.168 164.154C145.336 164.607 145.602 164.988 145.969 165.279L146.591 164.496C146.379 164.327 146.216 164.103 146.106 163.806L145.168 164.154ZM145.969 165.279C146.365 165.594 146.851 165.733 147.388 165.733V164.733C147.028 164.733 146.775 164.642 146.591 164.496L145.969 165.279Z" fill="black" mask="url(#path-3-outside-1_31_6)"/>
</g>
<defs>
<filter id="filter0_d_31_6" x="44.3068" y="156.864" width="110.047" height="17.2727" filterUnits="userSpaceOnUse" color-interpolation-filters="sRGB">
<feFlood flood-opacity="0" result="BackgroundImageFix"/>
<feColorMatrix in="SourceAlpha" type="matrix" values="0 0 0 0 0 0 0 0 0 0 0 0 0 0 0 0 0 0 127 0" result="hardAlpha"/>
<feOffset dy="4"/>
<feGaussianBlur stdDeviation="2"/>
<feComposite in2="hardAlpha" operator="out"/>
<feColorMatrix type="matrix" values="0 0 0 0 0 0 0 0 0 0 0 0 0 0 0 0 0 0 0.25 0"/>
<feBlend mode="normal" in2="BackgroundImageFix" result="effect1_dropShadow_31_6"/>
<feBlend mode="normal" in="SourceGraphic" in2="effect1_dropShadow_31_6" result="shape"/>
</filter>
</defs>
</svg>
